<?xml version="1.0" encoding="utf-8"?>
<!-- Generator: Adobe Illustrator 18.0.0, SVG Export Plug-In . SVG Version: 6.00 Build 0)  -->
<!DOCTYPE svg PUBLIC "-//W3C//DTD SVG 1.1//EN" "http://www.w3.org/Graphics/SVG/1.1/DTD/svg11.dtd">
<svg version="1.1" id="Layer_1" xmlns="http://www.w3.org/2000/svg" xmlns:xlink="http://www.w3.org/1999/xlink" x="0px" y="0px"
	 viewBox="0 0 960 560" enable-background="new 0 0 960 560" xml:space="preserve">
<filter  id="Shadow_9">
	<feGaussianBlur  stdDeviation="2.5" in="SourceAlpha"></feGaussianBlur>
	<feOffset  result="offsetblur" dy="2" dx="0"></feOffset>
	<feFlood  flood-color="#000000"></feFlood>
	<feComposite  operator="in" in2="offsetblur"></feComposite>
</filter>
<filter  id="Shadow_8">
	<feGaussianBlur  stdDeviation="2.5" in="SourceAlpha"></feGaussianBlur>
	<feOffset  result="offsetblur" dy="2" dx="0"></feOffset>
	<feFlood  flood-color="#000000"></feFlood>
	<feComposite  operator="in" in2="offsetblur"></feComposite>
</filter>
<filter  id="Shadow_7">
	<feGaussianBlur  stdDeviation="2.5" in="SourceAlpha"></feGaussianBlur>
	<feOffset  result="offsetblur" dy="2" dx="0"></feOffset>
	<feFlood  flood-color="#000000"></feFlood>
	<feComposite  operator="in" in2="offsetblur"></feComposite>
</filter>
<filter  id="Shadow_6">
	<feGaussianBlur  stdDeviation="2.5" in="SourceAlpha"></feGaussianBlur>
	<feOffset  result="offsetblur" dy="2" dx="0"></feOffset>
	<feFlood  flood-color="#000000"></feFlood>
	<feComposite  operator="in" in2="offsetblur"></feComposite>
</filter>
<filter  id="Shadow_5">
	<feGaussianBlur  stdDeviation="2.5" in="SourceAlpha"></feGaussianBlur>
	<feOffset  result="offsetblur" dy="2" dx="0"></feOffset>
	<feFlood  flood-color="#000000"></feFlood>
	<feComposite  operator="in" in2="offsetblur"></feComposite>
</filter>
<filter  id="Shadow_4">
	<feGaussianBlur  stdDeviation="2.5" in="SourceAlpha"></feGaussianBlur>
	<feOffset  result="offsetblur" dy="2" dx="0"></feOffset>
	<feFlood  flood-color="#000000"></feFlood>
	<feComposite  operator="in" in2="offsetblur"></feComposite>
</filter>
<filter  id="Shadow_3">
	<feGaussianBlur  stdDeviation="2.5" in="SourceAlpha"></feGaussianBlur>
	<feOffset  result="offsetblur" dy="2" dx="0"></feOffset>
	<feFlood  flood-color="#000000"></feFlood>
	<feComposite  operator="in" in2="offsetblur"></feComposite>
</filter>
<filter  id="Shadow_2">
	<feGaussianBlur  stdDeviation="2.5" in="SourceAlpha"></feGaussianBlur>
	<feOffset  result="offsetblur" dy="2" dx="0"></feOffset>
	<feFlood  flood-color="#000000"></feFlood>
	<feComposite  operator="in" in2="offsetblur"></feComposite>
</filter>
<filter  id="Shadow_15">
	<feGaussianBlur  stdDeviation="2.5" in="SourceAlpha"></feGaussianBlur>
	<feOffset  result="offsetblur" dy="2" dx="0"></feOffset>
	<feFlood  flood-color="#000000"></feFlood>
	<feComposite  operator="in" in2="offsetblur"></feComposite>
</filter>
<filter  id="Shadow_14">
	<feGaussianBlur  stdDeviation="2.5" in="SourceAlpha"></feGaussianBlur>
	<feOffset  result="offsetblur" dy="2" dx="0"></feOffset>
	<feFlood  flood-color="#000000"></feFlood>
	<feComposite  operator="in" in2="offsetblur"></feComposite>
</filter>
<filter  id="Shadow_13">
	<feGaussianBlur  stdDeviation="2.5" in="SourceAlpha"></feGaussianBlur>
	<feOffset  result="offsetblur" dy="2" dx="0"></feOffset>
	<feFlood  flood-color="#000000"></feFlood>
	<feComposite  operator="in" in2="offsetblur"></feComposite>
</filter>
<filter  id="Shadow_12">
	<feGaussianBlur  stdDeviation="2.5" in="SourceAlpha"></feGaussianBlur>
	<feOffset  result="offsetblur" dy="2" dx="0"></feOffset>
	<feFlood  flood-color="#000000"></feFlood>
	<feComposite  operator="in" in2="offsetblur"></feComposite>
</filter>
<filter  id="Shadow_11">
	<feGaussianBlur  stdDeviation="2.5" in="SourceAlpha"></feGaussianBlur>
	<feOffset  result="offsetblur" dy="2" dx="0"></feOffset>
	<feFlood  flood-color="#000000"></feFlood>
	<feComposite  operator="in" in2="offsetblur"></feComposite>
</filter>
<filter  id="Shadow_10">
	<feGaussianBlur  stdDeviation="2.5" in="SourceAlpha"></feGaussianBlur>
	<feOffset  result="offsetblur" dy="2" dx="0"></feOffset>
	<feFlood  flood-color="#000000"></feFlood>
	<feComposite  operator="in" in2="offsetblur"></feComposite>
</filter>
<filter  id="Shadow_1">
	<feGaussianBlur  stdDeviation="2.5" in="SourceAlpha"></feGaussianBlur>
	<feOffset  result="offsetblur" dy="2" dx="0"></feOffset>
	<feFlood  flood-color="#000000"></feFlood>
	<feComposite  operator="in" in2="offsetblur"></feComposite>
</filter>
<g id="Dortmund">
	<g>
		<path fill="#929292" d="M643.5,201v-2v-5l2.9-1.5l1.1,1.1v2.4v3l3,2c0,0,2.2-2.8,3-3.3c0.7-0.6,3.2,0.2,3.2,0.2l0.8,2v1.1v2
			l-2.5,1.9l-0.2,3.4l1.5,2.2h0.7l1.5,2v2.5l2.4,1.5l1.7-1.3l1.7,1.3l1.3-0.9V214l1.5-1l-1.7-2.8l-0.7-2.4l0.4-1.3l2-0.7l5.9-6.7
			l1.1-0.9l1.1,1.7l0.7,1.1l2.6,0.4l1.3-0.4l1.3-1.9l0.9-1.6h1.1l0.8-2.4l1.3-1.5l0.9-2.4l1.8-2.6l1.3-2.6l-1.8-2.8l0.7-3.5l1.1-1.3
			h6.8l1.3,1.4l3.2-0.4v-3.1H699l0.1-3h1.9l2.4-1.5l-1.1-2.6l-0.6-2.4l-1.1-3.8l-1.7-0.7h-2l-2.7,0.8l-0.2,2.8l-1.7-1.7l-0.6-3.5
			l1.8-2.8l2.8-1.7h1.5l1-3h1l1.4,0.8l2-0.5l1.8-1.2h1.8l1.2,1.2l4.1-0.2l2.2-0.2V150l-1.5-2.2l-0.6-2.9l1.1-2.4h2.4l2.5-1h2.5h1.5
			v2.5v3l1.4,0.5h1.1l3.2-0.8l2.3-0.6V144l4-0.8V138l3.3-2.2l1.1-4.3l3.1-3l-2.2-2.4l1.1-3.9l-1.2-4.1l2.8-2.6V113l2.3-2.7l-1.1-0.9
			l-2.2-0.9H739h-3l1.6-3.2l-0.2-1.8l-3.1-1.7l0.6-3.5l-1.3-0.7H731h-3v-1.5l1.5-1.8V92l-1-1.7l0.4-2l-1.1-2.6l-1.3-2l-2.2-1.4
			l-2-0.7H721l-1.2,1.2l-1.5-1.2l0.2-2.1l1.3-1.5l2-1.5l-1.5-1.8l1.5-2l1.1-1.3l-2.4-0.7l-3.1-1.1l-0.4-2.4l1.7-2.9l1.7-1.6h2.6
			l0.7-2.5l1.7-1.8l1.1-9.7l-2.8-1.6l-2.6,2l-2,1.5l-1.7,1.3l-1.3,4.1l-1.8,1.3l-2.2,0.6l-2.8-0.4l-2.2-0.4l-1.7,1.8l-2.8-0.7v-3
			v-3.9l-0.2-3.3l-1.1-2.3H698h-2l-3.1,1.2l-1.7-0.4l-2.4-0.8l-0.9,2.7l-0.4,1.8l-1.3,0.2l-2.8,0.3H681l-1.5-0.7v3v3.1l2.2,1.1
			l0.7,1.7l3.2,2l2.7,3.6l-0.9,5.3l-1,2.6l1.3,2.2l2.7,4.2l-4.4,0.9l-0.7,3.1l-1.7,0.9H682l-2.3-1.1l-2-1.1l-1.7-0.4l-1.3,2.6
			l-1.5,1.8l-2.8,0.4l-2.8,0.9l-1.1,0.9H664l-2.2,0.2l-2.6,0.6l-2.6,0.6l-2.6-2.8l0.6-2l1.7-0.7l3.7-1.5l1.8-2.7l-0.2-2.6H660
			l-1.7,0.3l-2.4-1.3l-0.4-2l-0.1-3.1l2.1-1.8V66l-0.1-1.4l2.2-0.4l1.3-2.1l-1.7-2.5l-2.2-1.5l-1.8-0.6H653l-2.5,0.3l-3.9-2.2
			l-1.5-2.4l-2.8-3.7l-1.3-2.4l-2,0.6l-1.6,0.9V51v1l1.7,1.9l-1.7,2.6l-2.7,0.9l-2.6,2.2l-4.3,1.7l-2,0.7l-2.8,3.4l-2.6,1.1H618h-2
			h-2h-2.5h-2V68l-1.9,0.5H606h-1.3h-2.2V72l-0.8,1.1L600,74l-2.2,0.2l-1.4,2V79l-2.2,1l-2-0.5H590l-1.5,1V82v1l-2.6,0.1l-1.4,1.9
			l0.8,2.5l1.1,1.5l1.1,2l1.3,0.4l1.1,0.1l2.8,1.6l-3.2,5.3H588l-0.9,1l-2.6,0.4l-2-0.4l-1.3,0.6l-2.4,0.9l-2.8,0.6l-2.4,0.4
			l-2.4,0.6l-3.3,0.4l-0.5,2.1l-1.8-0.3l-1.8-0.7l-2.2-1.7L560,101l-2.6-0.2l-1.8-1.1l-2.9-1.7l-2.1,0.2v1.8l2,1v2l-3.1-0.1l-2-1.1
			l-2.2-0.4l-2.4,0.4l0.9,1.5l0.4,1.3l-1.3-0.2l-3.5-0.4l1.5,3.3l0.2,2.8l-0.9,2.2l1.5,2.8l2.2,0.4l0.7,2.2l0.3,3.7l1.2,0.4l1.5,0.6
			l0.5,1.5l-0.4,1.8v1.4l0.4,1.4l2.2,2.6l1.3,3.1l3,3l0.6,3.3l-1.1,10.2l-2.6,0.9l-1.8-0.2l0.2,3l-1.8,3l-3.9,2.8l-0.4,2.4v2.6
			l1.5,2l1.8-1.5l2.4,0.6l1.1,2.2l-1.7,0.9l-3.1,0.6l-2.6,2.5l-0.2,2.3h-4l-0.9,1.4l-1.1,3.3l-1.3-0.4l-1.3-2.2l-2,0.2l-2.4,1.3
			l1.5,3.1l1.1,3l1.5,0.7l2-0.4l3.5-0.6v2l-0.6,1.9l1.8,2l3.1,2l0.2,5l-3.5,0.6l-1.5,2.6l-1.7,1.1l0.2,3l1.1,3.7l0.9,2.4l2-1.7
			l2.6,0.4l0.7,2l2,3.5l-0.2,1.9l0.2,2.1h3h3l0.1,3l-3.7,0.7l-1.9,1.1v1.6l-0.1,2.1l1.1,3.1l1.7,2.3h1.8h2h2l1.4,2l0.7,4.8l-1.3,3
			l0.4,2.7l2,0.5h1.8l0.3-2.5l2.2,0.9v2.6h1.5l2.2-2.2l2.6-0.2l2.4-0.7l1.3,2l3.3-0.9l1.7,2l1.7-0.8l2.2-0.2h1.7l0.2-2.9l-0.9-2.4
			l-2.2-3.1l1.1-4.6h1.9l1.8,2h1.2l2,0.5l2.2-0.2l-0.7-2.8l1.8-3.6l3.2-0.9l0.6-3.9l2.7-1.2l2.9,1.5l4.6-1.3l2.2-1.1l5.9-0.2
			l3.7-2.4l1.3-5.5l-0.2-2.8l3.1,1.3l2.2,1.5l2.8-1.7l3.7-0.4l4.3-1.5l3-2.4V204l-0.2-4.5L643.5,201z"/>
		<path fill-opacity="0" stroke="#000000" stroke-miterlimit="10" d="M643.5,201v-2v-5l2.9-1.5l1.1,1.1v2.4v3l3,2c0,0,2.2-2.8,3-3.3
			c0.7-0.6,3.2,0.2,3.2,0.2l0.8,2v1.1v2l-2.5,1.9l-0.2,3.4l1.5,2.2h0.7l1.5,2v2.5l2.4,1.5l1.7-1.3l1.7,1.3l1.3-0.9V214l1.5-1
			l-1.7-2.8l-0.7-2.4l0.4-1.3l2-0.7l5.9-6.7l1.1-0.9l1.1,1.7l0.7,1.1l2.6,0.4l1.3-0.4l1.3-1.9l0.9-1.6h1.1l0.8-2.4l1.3-1.5l0.9-2.4
			l1.8-2.6l1.3-2.6l-1.8-2.8l0.7-3.5l1.1-1.3h6.8l1.3,1.4l3.2-0.4v-3.1H699l0.1-3h1.9l2.4-1.5l-1.1-2.6l-0.6-2.4l-1.1-3.8l-1.7-0.7
			h-2l-2.7,0.8l-0.2,2.8l-1.7-1.7l-0.6-3.5l1.8-2.8l2.8-1.7h1.5l1-3h1l1.4,0.8l2-0.5l1.8-1.2h1.8l1.2,1.2l4.1-0.2l2.2-0.2V150
			l-1.5-2.2l-0.6-2.9l1.1-2.4h2.4l2.5-1h2.5h1.5v2.5v3l1.4,0.5h1.1l3.2-0.8l2.3-0.6V144l4-0.8V138l3.3-2.2l1.1-4.3l3.1-3l-2.2-2.4
			l1.1-3.9l-1.2-4.1l2.8-2.6V113l2.3-2.7l-1.1-0.9l-2.2-0.9H739h-3l1.6-3.2l-0.2-1.8l-3.1-1.7l0.6-3.5l-1.3-0.7H731h-3v-1.5l1.5-1.8
			V92l-1-1.7l0.4-2l-1.1-2.6l-1.3-2l-2.2-1.4l-2-0.7H721l-1.2,1.2l-1.5-1.2l0.2-2.1l1.3-1.5l2-1.5l-1.5-1.8l1.5-2l1.1-1.3l-2.4-0.7
			l-3.1-1.1l-0.4-2.4l1.7-2.9l1.7-1.6h2.6l0.7-2.5l1.7-1.8l1.1-9.7l-2.8-1.6l-2.6,2l-2,1.5l-1.7,1.3l-1.3,4.1l-1.8,1.3l-2.2,0.6
			l-2.8-0.4l-2.2-0.4l-1.7,1.8l-2.8-0.7v-3v-3.9l-0.2-3.3l-1.1-2.3H698h-2l-3.1,1.2l-1.7-0.4l-2.4-0.8l-0.9,2.7l-0.4,1.8l-1.3,0.2
			l-2.8,0.3H681l-1.5-0.7v3v3.1l2.2,1.1l0.7,1.7l3.2,2l2.7,3.6l-0.9,5.3l-1,2.6l1.3,2.2l2.7,4.2l-4.4,0.9l-0.7,3.1l-1.7,0.9H682
			l-2.3-1.1l-2-1.1l-1.7-0.4l-1.3,2.6l-1.5,1.8l-2.8,0.4l-2.8,0.9l-1.1,0.9H664l-2.2,0.2l-2.6,0.6l-2.6,0.6l-2.6-2.8l0.6-2l1.7-0.7
			l3.7-1.5l1.8-2.7l-0.2-2.6H660l-1.7,0.3l-2.4-1.3l-0.4-2l-0.1-3.1l2.1-1.8V66l-0.1-1.4l2.2-0.4l1.3-2.1l-1.7-2.5l-2.2-1.5
			l-1.8-0.6H653l-2.5,0.3l-3.9-2.2l-1.5-2.4l-2.8-3.7l-1.3-2.4l-2,0.6l-1.6,0.9V51v1l1.7,1.9l-1.7,2.6l-2.7,0.9l-2.6,2.2l-4.3,1.7
			l-2,0.7l-2.8,3.4l-2.6,1.1H618h-2h-2h-2.5h-2V68l-1.9,0.5H606h-1.3h-2.2V72l-0.8,1.1L600,74l-2.2,0.2l-1.4,2V79l-2.2,1l-2-0.5H590
			l-1.5,1V82v1l-2.6,0.1l-1.4,1.9l0.8,2.5l1.1,1.5l1.1,2l1.3,0.4l1.1,0.1l2.8,1.6l-3.2,5.3H588l-0.9,1l-2.6,0.4l-2-0.4l-1.3,0.6
			l-2.4,0.9l-2.8,0.6l-2.4,0.4l-2.4,0.6l-3.3,0.4l-0.5,2.1l-1.8-0.3l-1.8-0.7l-2.2-1.7L560,101l-2.6-0.2l-1.8-1.1l-2.9-1.7l-2.1,0.2
			v1.8l2,1v2l-3.1-0.1l-2-1.1l-2.2-0.4l-2.4,0.4l0.9,1.5l0.4,1.3l-1.3-0.2l-3.5-0.4l1.5,3.3l0.2,2.8l-0.9,2.2l1.5,2.8l2.2,0.4
			l0.7,2.2l0.3,3.7l1.2,0.4l1.5,0.6l0.5,1.5l-0.4,1.8v1.4l0.4,1.4l2.2,2.6l1.3,3.1l3,3l0.6,3.3l-1.1,10.2l-2.6,0.9l-1.8-0.2l0.2,3
			l-1.8,3l-3.9,2.8l-0.4,2.4v2.6l1.5,2l1.8-1.5l2.4,0.6l1.1,2.2l-1.7,0.9l-3.1,0.6l-2.6,2.5l-0.2,2.3h-4l-0.9,1.4l-1.1,3.3l-1.3-0.4
			l-1.3-2.2l-2,0.2l-2.4,1.3l1.5,3.1l1.1,3l1.5,0.7l2-0.4l3.5-0.6v2l-0.6,1.9l1.8,2l3.1,2l0.2,5l-3.5,0.6l-1.5,2.6l-1.7,1.1l0.2,3
			l1.1,3.7l0.9,2.4l2-1.7l2.6,0.4l0.7,2l2,3.5l-0.2,1.9l0.2,2.1h3h3l0.1,3l-3.7,0.7l-1.9,1.1v1.6l-0.1,2.1l1.1,3.1l1.7,2.3h1.8h2h2
			l1.4,2l0.7,4.8l-1.3,3l0.4,2.7l2,0.5h1.8l0.3-2.5l2.2,0.9v2.6h1.5l2.2-2.2l2.6-0.2l2.4-0.7l1.3,2l3.3-0.9l1.7,2l1.7-0.8l2.2-0.2
			h1.7l0.2-2.9l-0.9-2.4l-2.2-3.1l1.1-4.6h1.9l1.8,2h1.2l2,0.5l2.2-0.2l-0.7-2.8l1.8-3.6l3.2-0.9l0.6-3.9l2.7-1.2l2.9,1.5l4.6-1.3
			l2.2-1.1l5.9-0.2l3.7-2.4l1.3-5.5l-0.2-2.8l3.1,1.3l2.2,1.5l2.8-1.7l3.7-0.4l4.3-1.5l3-2.4V204l-0.2-4.5L643.5,201z"/>
	</g>
</g>
<g id="Hannover">
	<g>
		<path fill="#B8B8B8" d="M723.2,81.4h-1l-1.9,0.7l-0.8,0.7l-0.9-1.4v-1.5l1.1-1.9l1.1-1l1.2-0.9l-1.2-1.1l0.2-1l0.3-0.4l0.6-0.8
			l0.8-0.5l0.7-1l-1.8-0.7l-1.4-1l-1-0.1l-1-0.3l-0.2-0.5l-0.1-1.1l0.9-1.7L721,63l2.8-0.2l0.9-2.9c0.6-0.9,1.5-2.2,1.5-3.3l0.4-2.2
			l0.1-2.5l0.1-2.4v-1l-1-0.9l-1-0.8l-0.9-0.3l0.1-1.3l0.8-0.5v-0.5l-1.2-1.1l-0.4-1.7l0.9-1.4l1.5-0.9l2.4-0.6l1.8-2.9V34v-1
			l-2-1.3l1.4-1.6l2.6-1.4V27l-1.8-1.8l0.3-1.5c0.1-0.7,0.1-1.5-0.2-2.2l0,0h-0.9l-1.1-0.8l-0.4-0.6l0.6-1.6l1.2-0.9l0.9-1.9
			l0.7-1.2l-0.1-1.4l-1.2-1.1l-0.9-3.7l1.4-2.6l3.1,3.7L735,12l0.6,1.9v1.2l1.6,2.9l1.7,2.7l2.2,0.9l6.1,1.7l1-0.5l1.9,0.1l2.2,2
			L753,28l2,1.1l6.7,3.3h4.6h3.6l2.2,0.2l3.2,1.4l3.1,1.4l2.5,1.2l2.9,1.7l5.4,1.9l1.9,1.1l0.7,1.1l1.5,1.7l3,1.7l4.4,2l3.5,1.1
			l1.4-0.6h2.4l2.4,0.1L813,50l2.5,2.9l2.6,0.7l3.5-0.4l3.1-1l0.7-1.9l2.6,0.1l1.4,1.2l2,1.6l0.9,1l0.7,1.1l1.2,1.7l1.1,0.4l0.5,0.6
			l0.7,0.6v1v2l-1.4,0.1l-1.6,0.4v1.5l1.1,0.5h1.4l1.3,1.5l-0.8,1.5l-1,1.2v1.3l0.7,0.7l2.3,1.4v1.9l-1.6,1.7l-2,0.2l-0.2,1.6
			l1.4,0.6l2.4,0.7l-1.4,1l-1.1,1.7l-1.1,1.8h-1.8l-1.6,1.7l-0.4,1.4l0.6,1l0.7,0.9H831h-3h-3l-0.4,2H823l-4.2-0.6l-2-0.2l-1.5,0.1
			l-1,0.7l-0.9,1.2v2.8h-1.5l-1.6-0.6l-0.9,0.6v2.5l0.1,1.5h1.4l1.6,1h1.4l-0.9,1.5l-1.2,0.6l-0.4,0.9h1.5l0.6,2.3l0.5,2.1l-0.6,1.2
			l-1.1,1.4H811l-1.1,0.9l0.2,2.6l0.9,1.6l-0.6,0.9v1.5l0.6,0.5h0.9l1.1,0.8l0.6,2l-0.2,0.7v1.5h0.5l1.8,0.9l0.1,1.6l-0.4,1.1
			l-0.7,1l1,1.4l0.7,1.2l-1,1.4l-1,2.1v1.8l1,1.2v0.8l-1.3,1l-2.2-0.6l-2.5-0.5l-1.5,0.6h-2L804,136l-1.5-1.7l-1.6-1.2l-2.6,0.1
			l-1.2,0.1l-0.1,3.1l-1.7,3.7l-1.5,1.2l-1.2,0.9l-2,1.2l-1.1,1.9l-1.1-1.1l-1.4-0.9l-0.4,2v1v0.7l-1.6,0.7l-1.7,2.1h-1.1h-1
			l-1.5-0.5l-2-0.4l-0.7,0.9l-0.6,1.2l-1.1,1.4l-1.6,1.9l-0.7-1.4l-1.2-1.5l-1.6-1.7l-1.6,0.5l-0.2,1.4l-0.1,2.3h-0.8l-1.2,0.4
			l-0.1-2.5l-0.4-1.2l-0.7-0.1l-0.6,0.1l-0.9,1.5l-0.7,1.2l-2.5,1l-1.9,2.7l1.5,0.9h1.6h1l0.6,0.8l-0.2,3.2h-1.3l-2.3-1.9l-1.4,0.4
			l-2.1-1.1l-3-0.7l-2-1.7l1-1.6l0.2-1l-1.1-0.5l-0.4-2.1l2,0.4h2l0.9-2.3l0.6-3l-1.6-2l-2.2-3.4l1.7-1.5l0.9-2.3l0.7-1.5h1.9
			l-0.2,0.8l1.6-0.1l-0.2-1.6l-0.9-1.1l-1.5-0.6l-0.3-3.2v-1.6l-2.3-0.4l-1.5,1.6l-1.4,0.7l-1.5-1.4l-1.4,0.7L746,129l-0.6-2
			l-1.4,0.1l-0.5,1.3l-0.8,0.5l-1.1-0.5l-0.5-0.5l-0.5-1.3l-0.3-1.8l1-1.4l-0.7-1.9l-0.1-2.6l-0.6-0.7l1-0.7l1-1.6V113l2-1.2V110
			l-1.4-1.4l-2.9-0.2l-1-0.2l-1.3,0.2l1.2-3.3l-0.1-1.1l-1.4-1l-2.1-1.6l0,0l0.6-2.4l-0.6-1.3l-1.6-0.4h-3.1h-1.5l0.6-1.6l0.1-0.6
			v-0.6l0.1-1l-0.5-1.9l-0.5-1.1l0.4-2.2l-0.3-1.8l-1.1-1.5l-1.4-2.1l-1.9-0.7L723.2,81.4z"/>
		<path fill-opacity="0" stroke="#000000" stroke-miterlimit="10" d="M723.2,81.4h-1l-1.9,0.7l-0.8,0.7l-0.9-1.4v-1.5l1.1-1.9l1.1-1
			l1.2-0.9l-1.2-1.1l0.2-1l0.3-0.4l0.6-0.8l0.8-0.5l0.7-1l-1.8-0.7l-1.4-1l-1-0.1l-1-0.3l-0.2-0.5l-0.1-1.1l0.9-1.7L721,63l2.8-0.2
			l0.9-2.9c0.6-0.9,1.5-2.2,1.5-3.3l0.4-2.2l0.1-2.5l0.1-2.4v-1l-1-0.9l-1-0.8l-0.9-0.3l0.1-1.3l0.8-0.5v-0.5l-1.2-1.1l-0.4-1.7
			l0.9-1.4l1.5-0.9l2.4-0.6l1.8-2.9V34v-1l-2-1.3l1.4-1.6l2.6-1.4V27l-1.8-1.8l0.3-1.5c0.1-0.7,0.1-1.5-0.2-2.2l0,0h-0.9l-1.1-0.8
			l-0.4-0.6l0.6-1.6l1.2-0.9l0.9-1.9l0.7-1.2l-0.1-1.4l-1.2-1.1l-0.9-3.7l1.4-2.6l3.1,3.7L735,12l0.6,1.9v1.2l1.6,2.9l1.7,2.7
			l2.2,0.9l6.1,1.7l1-0.5l1.9,0.1l2.2,2L753,28l2,1.1l6.7,3.3h4.6h3.6l2.2,0.2l3.2,1.4l3.1,1.4l2.5,1.2l2.9,1.7l5.4,1.9l1.9,1.1
			l0.7,1.1l1.5,1.7l3,1.7l4.4,2l3.5,1.1l1.4-0.6h2.4l2.4,0.1L813,50l2.5,2.9l2.6,0.7l3.5-0.4l3.1-1l0.7-1.9l2.6,0.1l1.4,1.2l2,1.6
			l0.9,1l0.7,1.1l1.2,1.7l1.1,0.4l0.5,0.6l0.7,0.6v1v2l-1.4,0.1l-1.6,0.4v1.5l1.1,0.5h1.4l1.3,1.5l-0.8,1.5l-1,1.2v1.3l0.7,0.7
			l2.3,1.4v1.9l-1.6,1.7l-2,0.2l-0.2,1.6l1.4,0.6l2.4,0.7l-1.4,1l-1.1,1.7l-1.1,1.8h-1.8l-1.6,1.7l-0.4,1.4l0.6,1l0.7,0.9H831h-3h-3
			l-0.4,2H823l-4.2-0.6l-2-0.2l-1.5,0.1l-1,0.7l-0.9,1.2v2.8h-1.5l-1.6-0.6l-0.9,0.6v2.5l0.1,1.5h1.4l1.6,1h1.4l-0.9,1.5l-1.2,0.6
			l-0.4,0.9h1.5l0.6,2.3l0.5,2.1l-0.6,1.2l-1.1,1.4H811l-1.1,0.9l0.2,2.6l0.9,1.6l-0.6,0.9v1.5l0.6,0.5h0.9l1.1,0.8l0.6,2l-0.2,0.7
			v1.5h0.5l1.8,0.9l0.1,1.6l-0.4,1.1l-0.7,1l1,1.4l0.7,1.2l-1,1.4l-1,2.1v1.8l1,1.2v0.8l-1.3,1l-2.2-0.6l-2.5-0.5l-1.5,0.6h-2
			L804,136l-1.5-1.7l-1.6-1.2l-2.6,0.1l-1.2,0.1l-0.1,3.1l-1.7,3.7l-1.5,1.2l-1.2,0.9l-2,1.2l-1.1,1.9l-1.1-1.1l-1.4-0.9l-0.4,2v1
			v0.7l-1.6,0.7l-1.7,2.1h-1.1h-1l-1.5-0.5l-2-0.4l-0.7,0.9l-0.6,1.2l-1.1,1.4l-1.6,1.9l-0.7-1.4l-1.2-1.5l-1.6-1.7l-1.6,0.5
			l-0.2,1.4l-0.1,2.3h-0.8l-1.2,0.4l-0.1-2.5l-0.4-1.2l-0.7-0.1l-0.6,0.1l-0.9,1.5l-0.7,1.2l-2.5,1l-1.9,2.7l1.5,0.9h1.6h1l0.6,0.8
			l-0.2,3.2h-1.3l-2.3-1.9l-1.4,0.4l-2.1-1.1l-3-0.7l-2-1.7l1-1.6l0.2-1l-1.1-0.5l-0.4-2.1l2,0.4h2l0.9-2.3l0.6-3l-1.6-2l-2.2-3.4
			l1.7-1.5l0.9-2.3l0.7-1.5h1.9l-0.2,0.8l1.6-0.1l-0.2-1.6l-0.9-1.1l-1.5-0.6l-0.3-3.2v-1.6l-2.3-0.4l-1.5,1.6l-1.4,0.7l-1.5-1.4
			l-1.4,0.7L746,129l-0.6-2l-1.4,0.1l-0.5,1.3l-0.8,0.5l-1.1-0.5l-0.5-0.5l-0.5-1.3l-0.3-1.8l1-1.4l-0.7-1.9l-0.1-2.6l-0.6-0.7
			l1-0.7l1-1.6V113l2-1.2V110l-1.4-1.4l-2.9-0.2l-1-0.2l-1.3,0.2l1.2-3.3l-0.1-1.1l-1.4-1l-2.1-1.6l0,0l0.6-2.4l-0.6-1.3l-1.6-0.4
			h-3.1h-1.5l0.6-1.6l0.1-0.6v-0.6l0.1-1l-0.5-1.9l-0.5-1.1l0.4-2.2l-0.3-1.8l-1.1-1.5l-1.4-2.1l-1.9-0.7L723.2,81.4z"/>
	</g>
</g>
<g id="Munich">
	<g>
		<path fill="#CBCBCB" d="M587.3,235.6l-3-2.8c-1.1-0.7-2.3,1.2-2.4,2.5l-0.2,2.8l3.5,5.6l-0.8,2.7l-1.4,0.1h-4.6l4.5,5h-3h-3
			l-2.9,2h-4l-1.6-1.6l-2.9,1.6v4H563h-3.5v5h3.5l2.1,1.1l-1.4,1.7l1.4,4.3l-1.7,2.1l-2.6,1.4l0.5,5.5l-0.2,2.8h2l1.3,2.7l2.9,3.8
			l-1,3.1l1,2.1l1.9-2.1l2.6,0.9l2.5,1.6h2.7l3.6,2.2l2.1,1.8H579l0.1,1.4l2.4,3.6v5h1.5l0.2,6h5.8l1.8-1.2l2.1,1.1l2.4,1.1h2.6h3h2
			h3l1.9,2.3l1.6,1.4v3.2h2.5l2.4,3l-2.4,3.3l-2.4,1l-2.2,2.1v4.1l3.6-2.7l1,1.2l1.2,2.9l-0.5,4.2l1.7,1.9h2.6h3l5.4,1.1l3.6,3.3
			l2.9,2.4l3.6-2.1l2.4-0.7l1.4,1.8l1.7,1.3h2.1l1,3.5l3.6,2.5h3.4l2.1,2.4l2.3-1.9l2.1-0.2v3.3l2-3.3V352l2.9-0.8l-1.9-2.1l-1-1.7
			l2.9-3.6l-2.1-0.7l-3.3-2.9l-1-6.2l-0.5-5.7l-1.9-4.1l-0.2-2.6l3.8,0.5l-1-5.5l-1-4.8l-2.9-0.7l1.4-2.1l3.3-2.1l-1.9-6.3l1.7-2
			h5.1l1.8-1.9l1.7-0.2l3.6,1.2l1-2.6l2.9,1.7l2.6-1.4V293l2.6-0.3l3.3,0.2l1.7-1.9l1.2-1.4l2.6,1l1.4,0.7l4.8-3.6l3.1,2.4l2.6,0.7
			l2.1-2.4l1.4,0.5l2.4,1.3l1.4-2.7h3.7l1.6-2.6l1.9-2.1V280l-2.5,0.1l0.5-3.8V273l-2-1v-3l-2.3-1.3l-2.4,1.7l-1.2-1.9l-0.2-1.9
			l-2.6,1.2l-1.4-1.2V264l-0.8-2.3l-1.7,0.4l-1.7,1.4h-2l-0.6-3l-3.6,0.2l-1.9-1.7l-2.4-1l-1.9-1.7l-2.9-0.3l-1.4,3.3H676l-1.7-1.8
			l-2.4-0.5l-1.9-3.8l-1.7,1.9l-2.9-1.4l-2.6-1.9l-1.7-1.7l-1.7-2.4l-1.4-1.4l-1.9-4.3l1-3.6l1.2-3.3l-3.3-1.9l2.6-4.3l1.9-5l-0.2-5
			l-0.7-2.4l-0.1-3.9l-2.1-1.8l-1.7-2.6l0.2-3.4l2.5-2.4l-0.4-3.6l-3.6-1.3l-2,2.2l-0.9,1.1l-2.6-1.7l-0.4-5.7l-1.1-1.1l-2.9,1.5v5
			l-0.2,1.9l-3.9-1.1l-1,2l0.1,3.8l-1.1,2.9l-3,1.9l-2.3,0.8l-2.8,0.5l-3.8,1.4l-3-1h-3.1l-0.2,2.9l-1,4.2l-3.7,2.4l-4.1,0.1
			l-5.8,1.7l-2.9,0.8l-2.9-1.5l-2.7,1.2l-0.5,3.2l-3.3,1.5l-1.4,3.4l0.4,2.9l-2,0.2L587.3,235.6z"/>
		<path fill-opacity="0" stroke="#000000" stroke-miterlimit="10" d="M587.3,235.6l-3-2.8c-1.1-0.7-2.3,1.2-2.4,2.5l-0.2,2.8
			l3.5,5.6l-0.8,2.7l-1.4,0.1h-4.6l4.5,5h-3h-3l-2.9,2h-4l-1.6-1.6l-2.9,1.6v4H563h-3.5v5h3.5l2.1,1.1l-1.4,1.7l1.4,4.3l-1.7,2.1
			l-2.6,1.4l0.5,5.5l-0.2,2.8h2l1.3,2.7l2.9,3.8l-1,3.1l1,2.1l1.9-2.1l2.6,0.9l2.5,1.6h2.7l3.6,2.2l2.1,1.8H579l0.1,1.4l2.4,3.6v5
			h1.5l0.2,6h5.8l1.8-1.2l2.1,1.1l2.4,1.1h2.6h3h2h3l1.9,2.3l1.6,1.4v3.2h2.5l2.4,3l-2.4,3.3l-2.4,1l-2.2,2.1v4.1l3.6-2.7l1,1.2
			l1.2,2.9l-0.5,4.2l1.7,1.9h2.6h3l5.4,1.1l3.6,3.3l2.9,2.4l3.6-2.1l2.4-0.7l1.4,1.8l1.7,1.3h2.1l1,3.5l3.6,2.5h3.4l2.1,2.4l2.3-1.9
			l2.1-0.2v3.3l2-3.3V352l2.9-0.8l-1.9-2.1l-1-1.7l2.9-3.6l-2.1-0.7l-3.3-2.9l-1-6.2l-0.5-5.7l-1.9-4.1l-0.2-2.6l3.8,0.5l-1-5.5
			l-1-4.8l-2.9-0.7l1.4-2.1l3.3-2.1l-1.9-6.3l1.7-2h5.1l1.8-1.9l1.7-0.2l3.6,1.2l1-2.6l2.9,1.7l2.6-1.4V293l2.6-0.3l3.3,0.2l1.7-1.9
			l1.2-1.4l2.6,1l1.4,0.7l4.8-3.6l3.1,2.4l2.6,0.7l2.1-2.4l1.4,0.5l2.4,1.3l1.4-2.7h3.7l1.6-2.6l1.9-2.1V280l-2.5,0.1l0.5-3.8V273
			l-2-1v-3l-2.3-1.3l-2.4,1.7l-1.2-1.9l-0.2-1.9l-2.6,1.2l-1.4-1.2V264l-0.8-2.3l-1.7,0.4l-1.7,1.4h-2l-0.6-3l-3.6,0.2l-1.9-1.7
			l-2.4-1l-1.9-1.7l-2.9-0.3l-1.4,3.3H676l-1.7-1.8l-2.4-0.5l-1.9-3.8l-1.7,1.9l-2.9-1.4l-2.6-1.9l-1.7-1.7l-1.7-2.4l-1.4-1.4
			l-1.9-4.3l1-3.6l1.2-3.3l-3.3-1.9l2.6-4.3l1.9-5l-0.2-5l-0.7-2.4l-0.1-3.9l-2.1-1.8l-1.7-2.6l0.2-3.4l2.5-2.4l-0.4-3.6l-3.6-1.3
			l-2,2.2l-0.9,1.1l-2.6-1.7l-0.4-5.7l-1.1-1.1l-2.9,1.5v5l-0.2,1.9l-3.9-1.1l-1,2l0.1,3.8l-1.1,2.9l-3,1.9l-2.3,0.8l-2.8,0.5
			l-3.8,1.4l-3-1h-3.1l-0.2,2.9l-1,4.2l-3.7,2.4l-4.1,0.1l-5.8,1.7l-2.9,0.8l-2.9-1.5l-2.7,1.2l-0.5,3.2l-3.3,1.5l-1.4,3.4l0.4,2.9
			l-2,0.2L587.3,235.6z"/>
	</g>
</g>
<g id="Berlin">
	<g>
		<path fill="#B8B8B8" d="M822.9,128.5l-1.6-0.8l-1.4,1.4l-1,1.8l-1.6-1.9l-2.1,4.7c-0.1,1,0.5,2,1.5,2.3l1.7-0.3l2.2,2l-0.1,3.1
			h1.9l-0.4,3h-1.9l-2,0.6l-0.6,2.6l1,1l-0.4,2.1l-1.7,2l-1.5,0.8v2.7v2.2l-1.3,1.6l-2.2,1.1l-2.4,0.9l-1.1,0.8v2.1l-2.7,0.7
			l0.1,2.5l0.7,6l-1.9,0.6l-1.3,2.7l-0.7,1.7l0.7,1.7h2.6l2.2,0.6l0.8,1.7l-0.5,2.4l-3.3,0.4l-2.1,1.1l-2.2,4.7l-1.7,1l-1.4,2.5
			l1.4,0.9l3.4-0.6l3-1.8l2.6-3.5l2.8-0.1l3.3-1.3l0.1,2.5l0.7,3l2.5,1.1l-1.4,2.5l-2.5,1.9H811l-1,2.6l1.1,4l-0.6,3.4h2.8l6.5-3.5
			l1.8-3.8l3.7-2.5l4.7-2.3l1,1.5v2.6l-4.6,0.3l-2.6,0.9l-1.7,1.8l-4.9,4.7l-1.9,1.2h-2l0.7,3l3.2,0.8l4.8,1.3l2.8,3l2.5,2.9h3
			l2.7-4.3v-2.5l1.4-5.7l3-1l2.1,2.8l3.3-0.7l3.2-0.3v-3.8l1-3.1V200l1.4-1.6l1.8-1.2l1.8,0.2l1.4,1.5l1.2,1l0.9,1.1l1.2,0.8
			l2.1-0.1l0.3-4v-8.5l3.6-1.1l4.8-0.3l5.4-1.5l5-2.7l3.1-1.7v-2.4l-3.3-4.5l-3.7-2.9v-4.5l-1.1-5.8l-4.2,0.2l-1.7,1.4v3l-1.6,3.7
			l-3-3.1l-2.9,1.9l-1.9,2.2l-2.7,1.4l-1.5-2.5h-2.7l-2.3-0.9l-0.3-2.8l0.3-3.6l1.8-0.2l1.3-3.8l-0.3-2.4l-4,1v-2.6l2.7-1l3.2-2.9
			l-1.3-2.2l-3.5-3.8l-1.5-4.6l-5.2,1.4l-1.9,4.1l-3.2,2.2l-3.5-1l-1.3-4.3l-2.5-2.6l0.3-1.7l-0.8-3.4l-2.3-1.4l-3.3-1.2
			L822.9,128.5z"/>
		<path fill-opacity="0" stroke="#000000" stroke-miterlimit="10" d="M822.9,128.5l-1.6-0.8l-1.4,1.4l-1,1.8l-1.6-1.9l-2.1,4.7
			c-0.1,1,0.5,2,1.5,2.3l1.7-0.3l2.2,2l-0.1,3.1h1.9l-0.4,3h-1.9l-2,0.6l-0.6,2.6l1,1l-0.4,2.1l-1.7,2l-1.5,0.8v2.7v2.2l-1.3,1.6
			l-2.2,1.1l-2.4,0.9l-1.1,0.8v2.1l-2.7,0.7l0.1,2.5l0.7,6l-1.9,0.6l-1.3,2.7l-0.7,1.7l0.7,1.7h2.6l2.2,0.6l0.8,1.7l-0.5,2.4
			l-3.3,0.4l-2.1,1.1l-2.2,4.7l-1.7,1l-1.4,2.5l1.4,0.9l3.4-0.6l3-1.8l2.6-3.5l2.8-0.1l3.3-1.3l0.1,2.5l0.7,3l2.5,1.1l-1.4,2.5
			l-2.5,1.9H811l-1,2.6l1.1,4l-0.6,3.4h2.8l6.5-3.5l1.8-3.8l3.7-2.5l4.7-2.3l1,1.5v2.6l-4.6,0.3l-2.6,0.9l-1.7,1.8l-4.9,4.7
			l-1.9,1.2h-2l0.7,3l3.2,0.8l4.8,1.3l2.8,3l2.5,2.9h3l2.7-4.3v-2.5l1.4-5.7l3-1l2.1,2.8l3.3-0.7l3.2-0.3v-3.8l1-3.1V200l1.4-1.6
			l1.8-1.2l1.8,0.2l1.4,1.5l1.2,1l0.9,1.1l1.2,0.8l2.1-0.1l0.3-4v-8.5l3.6-1.1l4.8-0.3l5.4-1.5l5-2.7l3.1-1.7v-2.4l-3.3-4.5
			l-3.7-2.9v-4.5l-1.1-5.8l-4.2,0.2l-1.7,1.4v3l-1.6,3.7l-3-3.1l-2.9,1.9l-1.9,2.2l-2.7,1.4l-1.5-2.5h-2.7l-2.3-0.9l-0.3-2.8
			l0.3-3.6l1.8-0.2l1.3-3.8l-0.3-2.4l-4,1v-2.6l2.7-1l3.2-2.9l-1.3-2.2l-3.5-3.8l-1.5-4.6l-5.2,1.4l-1.9,4.1l-3.2,2.2l-3.5-1
			l-1.3-4.3l-2.5-2.6l0.3-1.7l-0.8-3.4l-2.3-1.4l-3.3-1.2L822.9,128.5z"/>
	</g>
</g>
<g id="Frankfurt">
	<g>
		<path fill="#CBCBCB" d="M762.5,162v-4l-2.2,0.4l-2.2-0.9l1-1.4l0.9-1.3l2-0.8l1.5-1.7l0.6-0.8h0.9l0.7,0.4l0.3,2.9l2.2,0.1
			l0.4-4.3l1.3-0.4l3.7,4.6l4.2-4.6h2.9l2.7,0.8l2.2-2.3l1.9-1.1V144l1.8,2.2l1.9-2.2l4.6-2.8l1.7-3.8v-2.9h3.5l2.8,1.2l2.4,1.8h1.8
			l1.9-0.7l4.1,1.9l2.5-1.2V136l1.9-0.2l2.1,1.5v3.7l2-0.3l-0.4,2.8H820l-1.7,1l-0.5,2.1l0.9,1.5l-0.4,2l-2.5,2.5l-0.3,2.2v3.2
			l-1.7,1.3l-2.2,1.1l-3,1.4l-0.5,1.9l-1.7,0.9l-0.9,0.3l0.1,3.3l0.6,4.6l-1.7,1l-1,1.7l-1,2.3l0.4,2l1.5,0.1l1.6,0.1l1.8,0.5l0.7,2
			l-0.2,1.4l-3.4,1.1l-2.2,0.4l-1.8,3.3l-0.9,1.6l-1.6,1.1l-1.5,2.6l0.5,1l0.5,0.9l2.3-0.5l1.3-0.2l3.8-1.6l2.8-3.7l2.7-0.8l2.4-0.3
			l0.3,1.3v1.9l0.3,1.4l2.2,1.3l-1.5,2.6l-2.3,1.2H811l-1.3,1.3l-0.3,1.5l0.3,1.1l0.1,1.3l0.5,1.2l0.1,0.8l-0.1,2l-0.6,1.2l-0.3,3.4
			l1.4,2.5l-0.3,3.5l-3.6,2.6l-3,2.3l-1.6,4.3l0.5,4.6l0.9,4.9l1.3,4.6l-2.4,9.4l-6.5,5.2l-5.8-4.9l-7.4-8.6L771,232.1l-3.2-8.9
			l-7.6-9.1l-9.2-7.6l-2.9-5.9l2.9-8.1l3-5.7l-0.5-4.6l2-7.9V169l4.7-3L762.5,162z"/>
		<path fill-opacity="0" stroke="#000000" stroke-miterlimit="10" d="M762.5,162v-4l-2.2,0.4l-2.2-0.9l1-1.4l0.9-1.3l2-0.8l1.5-1.7
			l0.6-0.8h0.9l0.7,0.4l0.3,2.9l2.2,0.1l0.4-4.3l1.3-0.4l3.7,4.6l4.2-4.6h2.9l2.7,0.8l2.2-2.3l1.9-1.1V144l1.8,2.2l1.9-2.2l4.6-2.8
			l1.7-3.8v-2.9h3.5l2.8,1.2l2.4,1.8h1.8l1.9-0.7l4.1,1.9l2.5-1.2V136l1.9-0.2l2.1,1.5v3.7l2-0.3l-0.4,2.8H820l-1.7,1l-0.5,2.1
			l0.9,1.5l-0.4,2l-2.5,2.5l-0.3,2.2v3.2l-1.7,1.3l-2.2,1.1l-3,1.4l-0.5,1.9l-1.7,0.9l-0.9,0.3l0.1,3.3l0.6,4.6l-1.7,1l-1,1.7
			l-1,2.3l0.4,2l1.5,0.1l1.6,0.1l1.8,0.5l0.7,2l-0.2,1.4l-3.4,1.1l-2.2,0.4l-1.8,3.3l-0.9,1.6l-1.6,1.1l-1.5,2.6l0.5,1l0.5,0.9
			l2.3-0.5l1.3-0.2l3.8-1.6l2.8-3.7l2.7-0.8l2.4-0.3l0.3,1.3v1.9l0.3,1.4l2.2,1.3l-1.5,2.6l-2.3,1.2H811l-1.3,1.3l-0.3,1.5l0.3,1.1
			l0.1,1.3l0.5,1.2l0.1,0.8l-0.1,2l-0.6,1.2l-0.3,3.4l1.4,2.5l-0.3,3.5l-3.6,2.6l-3,2.3l-1.6,4.3l0.5,4.6l0.9,4.9l1.3,4.6l-2.4,9.4
			l-6.5,5.2l-5.8-4.9l-7.4-8.6L771,232.1l-3.2-8.9l-7.6-9.1l-9.2-7.6l-2.9-5.9l2.9-8.1l3-5.7l-0.5-4.6l2-7.9V169l4.7-3L762.5,162z"
			/>
	</g>
</g>
<g id="Nuremberg">
	<g>
		<path fill="#CBCBCB" d="M700.5,179v-2.5H699l0.1-3h1.9l2.3-1.6l-2.7-8.7l-2.1-1.2l-3.1,0.6H694l0.3,3l-1.8-1.9V160l1.5-2l2.5-1.5
			h1.5l1-3l2.4,0.8l2.4-0.8l1.5-1h1.8l1.8,1.7l3.3-0.7l2.5,0.3v-3.9l-1-2.2l-0.9-3.2l1.4-2h3l1.6-1h2.9v5.5l2.6,1.2l0.7,0.1l5.8-1.6
			V144l4-0.8l0.2-5l3.5-2.2l1-4.2l2.9-2.7l0.7,0.4l1.2-0.9l0.3-1.1h0.7l0.6,1.6l1.9,1.5l0.3,0.5l1-0.8l1.5,1l3-2.1l1.9,0.3l0.3,4.3
			l1.9,1.1l0.8,1.8l-2.6-0.2l-2.2,3.6l-1.8,1.4l-0.3,0.3l3.8,5.3l-1.4,4.6l-4.1-0.4l0.1,2.7l0.2,0.4l1,0.3l-1.3,2.4l2.2,2.3l5.4,1.9
			l1.5-0.3l2.1,1.8l0.7,0.1l-1.7,2.9l-4.9,3l0.1,5.5l-2,7.8l0.6,4.5l-6.1,13.6l3.5,6.3l0.1,29.1c0,1.5-1.2,2.8-2.7,2.8l0,0
			c-1.5,0-2.8-1.1-3.1-2.6l-0.6-3.6l-7.3-7.4l-7.7-8.6l-8.2-1.7l-11.6-15l-6.9-14.7L700.5,179z"/>
		<path fill-opacity="0" stroke="#000000" stroke-miterlimit="10" d="M700.5,179v-2.5H699l0.1-3h1.9l2.3-1.6l-2.7-8.7l-2.1-1.2
			l-3.1,0.6H694l0.3,3l-1.8-1.9V160l1.5-2l2.5-1.5h1.5l1-3l2.4,0.8l2.4-0.8l1.5-1h1.8l1.8,1.7l3.3-0.7l2.5,0.3v-3.9l-1-2.2l-0.9-3.2
			l1.4-2h3l1.6-1h2.9v5.5l2.6,1.2l0.7,0.1l5.8-1.6V144l4-0.8l0.2-5l3.5-2.2l1-4.2l2.9-2.7l0.7,0.4l1.2-0.9l0.3-1.1h0.7l0.6,1.6
			l1.9,1.5l0.3,0.5l1-0.8l1.5,1l3-2.1l1.9,0.3l0.3,4.3l1.9,1.1l0.8,1.8l-2.6-0.2l-2.2,3.6l-1.8,1.4l-0.3,0.3l3.8,5.3l-1.4,4.6
			l-4.1-0.4l0.1,2.7l0.2,0.4l1,0.3l-1.3,2.4l2.2,2.3l5.4,1.9l1.5-0.3l2.1,1.8l0.7,0.1l-1.7,2.9l-4.9,3l0.1,5.5l-2,7.8l0.6,4.5
			l-6.1,13.6l3.5,6.3l0.1,29.1c0,1.5-1.2,2.8-2.7,2.8l0,0c-1.5,0-2.8-1.1-3.1-2.6l-0.6-3.6l-7.3-7.4l-7.7-8.6l-8.2-1.7l-11.6-15
			l-6.9-14.7L700.5,179z"/>
	</g>
</g>
<g id="Washington">
	<g>
		<path fill="#DDDDDD" d="M280,360.3l-1.4,2.5l0.5,2.5l1.4,3.8l-2,4.2v4.1l0.8,1.8l-0.3,2.3l-2.5,0.5l2.5,1.3v2.3l-1.9-0.8l-0.3,1.3
			l-0.3,1.8l1.4,1.5l2,1.6l2.2,1.6l1.4,1.5v2.6l0.3,2.1l0.6,2.3l0.8,2.3l0.5,1.7l1.5-0.3l1,1.3l2.7-0.4l2.1-0.3h2.2l1.9,0.4l0.9,0.6
			l0.9,1.1l0.9,1l2.4-0.8l2.1,0.1l1,0.7l1.6,0.7l0.9,0.4h1.5l2.2-0.8l1.6,0.4l2.2,0.4l1.2-1h1.8l1.1,1l1.3,0.1h2.2l1.8,0.7l1.3,0.3
			h1.5l1,0.7h1.6l1.8,0.8l2.1,0.3l1.3,0.7l1.3-0.3l1,0.6l1.2,0.1l1.8,0.1l0.2,0.7l1.2,0.3l1.2-0.7l1-2.8v-1.5V408l0.6-2.2l0.3-1.8
			l0.9-2.5l0.8-2.8l0.9-2.6l0.6-2.1l0.4-2.9l1.8-3.8l0.4-3.6l1.2-3.1l0.7-3.3l1.5-3.8l-2.4-1.4l-3.6-0.4l-3.3-1.8l-3.3-0.4l-5.4-1.3
			l-3.6-1.7l-4-1.1l-5.7-1.4l-3.3-1.3l-7.2-1.9l-4.5-1.7l-4.9-1.4l-2.7,0.7v0.8l0.9,1.8l0.1,1.9l0.3,2.4l-1-0.3l-0.8,0.8l-0.2,2.1
			v2.2l0.3,2.2v1.4l-0.6,1.4l-1.6-0.1l-1.6-0.1l-1.2-0.7l-0.3-1.7l1.8-1.5V369l-3.1-2.2l-3.7-1.4l-1.6-0.8l-1.6-1.3l-3-1.5l-1.2-2.4
			L280,360.3z"/>
		<path fill-opacity="0" stroke="#000000" d="M280,360.3l-1.4,2.5l0.5,2.5l1.4,3.8l-2,4.2v4.1l0.8,1.8l-0.3,2.3l-2.5,0.5l2.5,1.3
			v2.3l-1.9-0.8l-0.3,1.3l-0.3,1.8l1.4,1.5l2,1.6l2.2,1.6l1.4,1.5v2.6l0.3,2.1l0.6,2.3l0.8,2.3l0.5,1.7l1.5-0.3l1,1.3l2.7-0.4
			l2.1-0.3h2.2l1.9,0.4l0.9,0.6l0.9,1.1l0.9,1l2.4-0.8l2.1,0.1l1,0.7l1.6,0.7l0.9,0.4h1.5l2.2-0.8l1.6,0.4l2.2,0.4l1.2-1h1.8l1.1,1
			l1.3,0.1h2.2l1.8,0.7l1.3,0.3h1.5l1,0.7h1.6l1.8,0.8l2.1,0.3l1.3,0.7l1.3-0.3l1,0.6l1.2,0.1l1.8,0.1l0.2,0.7l1.2,0.3l1.2-0.7
			l1-2.8v-1.5V408l0.6-2.2l0.3-1.8l0.9-2.5l0.8-2.8l0.9-2.6l0.6-2.1l0.4-2.9l1.8-3.8l0.4-3.6l1.2-3.1l0.7-3.3l1.5-3.8l-2.4-1.4
			l-3.6-0.4l-3.3-1.8l-3.3-0.4l-5.4-1.3l-3.6-1.7l-4-1.1l-5.7-1.4l-3.3-1.3l-7.2-1.9l-4.5-1.7l-4.9-1.4l-2.7,0.7v0.8l0.9,1.8
			l0.1,1.9l0.3,2.4l-1-0.3l-0.8,0.8l-0.2,2.1v2.2l0.3,2.2v1.4l-0.6,1.4l-1.6-0.1l-1.6-0.1l-1.2-0.7l-0.3-1.7l1.8-1.5V369l-3.1-2.2
			l-3.7-1.4l-1.6-0.8l-1.6-1.3l-3-1.5l-1.2-2.4L280,360.3z"/>
	</g>
</g>
<g id="Oregon">
	<g>
		<path fill="#DDDDDD" d="M286.6,396.1l-2.5-1.5l-2.5-0.3l-1.8,1.2l-0.7,2.5v1.8l-2.1,2.1l-1.8,2.5l-0.4,3.4l-3.6,4.3l-1.1,2.8
			l-1.1,1.8l-1.1,2.1l-1.4,2.5l-1.1,1.8l-2.5,1.8l-1.1,2.5l-0.7,1.5v2.8l-0.4,3.4l-1.1,3.1v1.5l3.6,1.8l2.1,0.6l5,0.6l3.2,0.9
			l3.9,2.1l6.8,1.5l3.9,1.5l5.4,0.9l4.6,1.5l3.2,1.2l4.3,0.3l3.6,0.6l2.9,1.2h4.6l3.9,1.2l3.6,1.2h2.1l1.8-4.9l0.7-4.9l2.9-7.7
			l2.5-6.1L333,431l2.1-3.7l2.1-0.9l2.1-3.1l4.3-5.2l-0.4-4l-2.1-1.5l-3.9,0.6l-3.6-0.9l-3.6-2.5l-3.9,0.6l-2.9-0.3l-5.4-0.3h-4.6
			h-5l-3.9-1.2l-3.9-0.3l-4.3-1.8l-4.3-0.9l-2.5,0.6l-3.9-1.8L286.6,396.1z"/>
		<path fill-opacity="0" stroke="#000000" d="M286.6,396.1l-2.5-1.5l-2.5-0.3l-1.8,1.2l-0.7,2.5v1.8l-2.1,2.1l-1.8,2.5l-0.4,3.4
			l-3.6,4.3l-1.1,2.8l-1.1,1.8l-1.1,2.1l-1.4,2.5l-1.1,1.8l-2.5,1.8l-1.1,2.5l-0.7,1.5v2.8l-0.4,3.4l-1.1,3.1v1.5l3.6,1.8l2.1,0.6
			l5,0.6l3.2,0.9l3.9,2.1l6.8,1.5l3.9,1.5l5.4,0.9l4.6,1.5l3.2,1.2l4.3,0.3l3.6,0.6l2.9,1.2h4.6l3.9,1.2l3.6,1.2h2.1l1.8-4.9
			l0.7-4.9l2.9-7.7l2.5-6.1L333,431l2.1-3.7l2.1-0.9l2.1-3.1l4.3-5.2l-0.4-4l-2.1-1.5l-3.9,0.6l-3.6-0.9l-3.6-2.5l-3.9,0.6l-2.9-0.3
			l-5.4-0.3h-4.6h-5l-3.9-1.2l-3.9-0.3l-4.3-1.8l-4.3-0.9l-2.5,0.6l-3.9-1.8L286.6,396.1z"/>
	</g>
</g>
<g id="Nevada">
	<g>
		<path fill="#EEEEEE" d="M293.3,450.2l-6.5,25.5l-0.4,1.8l2,3l1.8,3.7l7.4,12.7l4.7,10.2l4.5,6.5l3.6,5.2l1.8,3.7l1.6,3l1.1-9.2
			l2.2-0.2l1.3,0.5l1.6-2.5l1.6-8.7l2.5-16.7l3.3-17l2.7-8.7l0.2-3L293.3,450.2z"/>
		<path fill-opacity="0" stroke="#000000" d="M293.3,450.2l-6.5,25.5l-0.4,1.8l2,3l1.8,3.7l7.4,12.7l4.7,10.2l4.5,6.5l3.6,5.2
			l1.8,3.7l1.6,3l1.1-9.2l2.2-0.2l1.3,0.5l1.6-2.5l1.6-8.7l2.5-16.7l3.3-17l2.7-8.7l0.2-3L293.3,450.2z"/>
	</g>
</g>
<g id="California">
	<g>
		<path fill="#929292" d="M294.2,448.7l-33.2-9.9l-1.6,5.4l-0.6,2.7l-1.9,3l-2.5,2.4l-0.3,2.4l1.2,4.6l0,1.9l0,2.7l-1,5.7l0,4.1
			l2.2,3l1.2,1.4l-1.6,2.2l0.6,1.9l1.6,1.1l2.8-2.2l4.1,2.2l-1.9,0.8l-0.9,1.4l0,2.2l-2.8-1.6l-1,2.7l0,1.4l0,3.5l2.8,0.8l1.2,3.3
			l-1.6,1.1l-1.3,1.6l0.9,1.6l1.5,3.8l0.6,2.2l1.9,2.5l1.2,3.3l0.6,2.2l1.2,2.5l-1.3,1.9l0,1.4l1.6,1.4l2.2,2.7l2.8,1.1l2.8,3
			l3.4,2.5l3.1,1.1l1.6,2.2l1.2,2.2l2.5,0.6l0.9,2.4l2.2,3l2.5,3l0,2.7l-0.6,1.9l2.5,0.6l3.1,0.6l5,1.1l4.4,0.8l2.8,0l4.4,0.3
			l1.9-1.1l0.6-2.4l-1.6-1.6l1.9-2.4l3.1-1.3l-0.6-2.4l1.3-2.4l2.8-0.5l0-4.3l-3.1-2.7l-2.8-1.1l2.8-2.4l-2.2-3.5l-2.2-1.6l-3.1-2.7
			l-1.5-4.6l-4.1-4.9l-3.7-3l-3.7-7.6l-3.4-4.6l-3.4-4.4l-2.2-4.6l-2.8-3.3l-4-6.5l1-3.3l2.9-10.6l2.2-5.7l3.2-6.8L294.2,448.7z"/>
		<path fill-opacity="0" stroke="#000000" d="M294.2,448.7l-33.2-9.9l-1.6,5.4l-0.6,2.7l-1.9,3l-2.5,2.4l-0.3,2.4l1.2,4.6l0,1.9
			l0,2.7l-1,5.7l0,4.1l2.2,3l1.2,1.4l-1.6,2.2l0.6,1.9l1.6,1.1l2.8-2.2l4.1,2.2l-1.9,0.8l-0.9,1.4l0,2.2l-2.8-1.6l-1,2.7l0,1.4
			l0,3.5l2.8,0.8l1.2,3.3l-1.6,1.1l-1.3,1.6l0.9,1.6l1.5,3.8l0.6,2.2l1.9,2.5l1.2,3.3l0.6,2.2l1.2,2.5l-1.3,1.9l0,1.4l1.6,1.4
			l2.2,2.7l2.8,1.1l2.8,3l3.4,2.5l3.1,1.1l1.6,2.2l1.2,2.2l2.5,0.6l0.9,2.4l2.2,3l2.5,3l0,2.7l-0.6,1.9l2.5,0.6l3.1,0.6l5,1.1
			l4.4,0.8l2.8,0l4.4,0.3l1.9-1.1l0.6-2.4l-1.6-1.6l1.9-2.4l3.1-1.3l-0.6-2.4l1.3-2.4l2.8-0.5l0-4.3l-3.1-2.7l-2.8-1.1l2.8-2.4
			l-2.2-3.5l-2.2-1.6l-3.1-2.7l-1.5-4.6l-4.1-4.9l-3.7-3l-3.7-7.6l-3.4-4.6l-3.4-4.4l-2.2-4.6l-2.8-3.3l-4-6.5l1-3.3l2.9-10.6
			l2.2-5.7l3.2-6.8L294.2,448.7z"/>
	</g>
</g>
<g id="Oklahoma">
	<g>
		<path fill="#CBCBCB" d="M460.8,537.6l0.9,4.6v4.5v4.3v2.4l-2.2,3.4v1.8h6h3.6h5.9h9.5h12.5h13.5h11.3h13.5h7.9h6.8h7h7l2.3-2
			l-1.2-1.7L564,550v-5.3l-4.5-4.1l-5.3-1h-2.4l-3.4,0h-4.2l-5.2,0.9h-7.2l-3.1-0.9l-7.1,0.6l-3.3-0.6h-3.9H507h-5.9h-3.7l-3.3-0.7
			l-3.2,0.7l-4.6-0.7H482l-6.5-1.3h-5.3H460.8z"/>
		<path fill-opacity="0" stroke="#000000" d="M460.8,537.6l0.9,4.6v4.5v4.3v2.4l-2.2,3.4v1.8h6h3.6h5.9h9.5h12.5h13.5h11.3h13.5h7.9
			h6.8h7h7l2.3-2l-1.2-1.7L564,550v-5.3l-4.5-4.1l-5.3-1h-2.4l-3.4,0h-4.2l-5.2,0.9h-7.2l-3.1-0.9l-7.1,0.6l-3.3-0.6h-3.9H507h-5.9
			h-3.7l-3.3-0.7l-3.2,0.7l-4.6-0.7H482l-6.5-1.3h-5.3H460.8z"/>
	</g>
</g>
<g id="Iowa">
	<g>
		<g filter="url(#Shadow_1)">
			<polygon points="559,470.3 559.7,470.5 564.1,471.9 570.1,471.2 570.3,471.2 574.5,471.9 577.6,471.2 581.7,470.7 587.3,471 
				595.3,471 599.9,471 601.7,471.1 605.2,471.9 605.6,472 605.6,477.4 608,484.2 609.8,490.4 609.8,490.6 610,496.6 612.4,504.6 
				612.4,504.8 612.2,509.7 612.2,509.8 611.5,512.5 611.4,512.7 611.3,512.8 607.8,515.3 606.5,516 604.2,517.7 604.1,517.8 
				603.9,517.8 602.4,518 597,518.3 595.2,519.1 594.2,520.8 594.1,521.1 593.8,521.1 590.7,521.1 585.5,520.1 579.6,519.2 
				574.5,518 569.6,517.6 569.5,517.6 569.4,517.5 567,516 566.8,515.9 565.9,514.6 565.9,514.4 565,510.3 564.5,508.5 563.5,503.9 
				563.5,503.8 563.5,500.5 561.6,498.2 561.5,498.1 560.2,494.8 558,494.3 557.6,494.3 557.6,493.8 557.8,489.4 558.3,487 
				558.2,484.7 557.6,480.7 557.6,480.6 557.7,480.4 559,477.7 			"/>
		</g>
		<path fill="#DDDDDD" d="M559.5,471v4.8v2l-1.4,2.8l0.5,4l0.1,2.4l-0.5,2.5l-0.2,4.3l2.4,0.5l1.5,3.5l2,2.5v3.5l0.9,4.5l0.5,1.8
			l0.9,4.2l0.9,1.3l2.4,1.5l4.9,0.3l5.2,1.2l5.8,0.9l5.3,1h2.9l1-1.9l2.1-0.9l5.4-0.3l1.6-0.2l2.3-1.7l1.4-0.8l3.4-2.4l0.8-2.7
			l0.2-4.9l-2.4-8.1l-0.2-6.1l-1.7-6.2l-2.5-6.9v-5l-3.5-0.8l-1.7-0.1h-4.5h-4.5h-3.5l-5.6-0.3l-4,0.5l-3.1,0.7l-4.4-0.7l-6.2,0.7
			L559.5,471z"/>
		<path fill-opacity="0" stroke="#000000" d="M559.5,471v4.8v2l-1.4,2.8l0.5,4l0.1,2.4l-0.5,2.5l-0.2,4.3l2.4,0.5l1.5,3.5l2,2.5v3.5
			l0.9,4.5l0.5,1.8l0.9,4.2l0.9,1.3l2.4,1.5l4.9,0.3l5.2,1.2l5.8,0.9l5.3,1h2.9l1-1.9l2.1-0.9l5.4-0.3l1.6-0.2l2.3-1.7l1.4-0.8
			l3.4-2.4l0.8-2.7l0.2-4.9l-2.4-8.1l-0.2-6.1l-1.7-6.2l-2.5-6.9v-5l-3.5-0.8l-1.7-0.1h-4.5h-4.5h-3.5l-5.6-0.3l-4,0.5l-3.1,0.7
			l-4.4-0.7l-6.2,0.7L559.5,471z"/>
	</g>
</g>
<g id="Missouri">
	<g>
		<g filter="url(#Shadow_2)">
			<polygon points="564.8,557.4 564.3,557.8 563.7,557 565.8,555.3 563.5,549.2 563.5,549 563.5,544 561.3,541.8 559.3,540.3 
				554.1,539.3 553.5,539.2 553.7,538.6 556.5,531.9 556.2,527.1 556.5,520.3 556.5,516 557,516.1 559.5,516.2 559.7,516.3 
				559.9,516.4 563.9,520.4 565.8,516.7 565.4,513.5 565.2,512.1 566.2,513 569.3,515.9 572.3,515.9 572.4,515.9 574.6,516.7 
				578.3,515.9 578.4,515.8 578.6,515.9 585.6,518.8 589.3,518.5 589.5,518.5 593.5,519.7 595.9,516.1 596,515.9 602.6,515.9 
				607.3,514.2 610.5,510.8 611.4,504.7 611.5,504 612.2,504.3 617.3,507 617.4,507.1 617.5,507.2 619.8,510.2 623,513.6 
				623.1,513.7 623.1,513.9 623.1,516.3 623.7,521.2 624.2,524.7 625.1,530 625.1,530.1 624.5,535.1 623.7,539.9 623.6,540.1 
				622.5,541.9 620.7,546.8 619.6,549.2 619.5,549.3 617.2,552.2 617.1,552.3 613.7,554.1 611.3,556.7 611.2,556.8 584.7,556.8 
				579.8,556.8 572.3,557.9 572.3,557.4 			"/>
		</g>
		<path fill="#929292" d="M564,557.4l2.3-2L564,549v-5.2l-2.4-2.5l-2.1-1.6l-5.3-1l2.8-6.8l-0.3-4.9l0.3-6.8v-3.8l2.5,0.2l4.5,4.5
			l2.3-4.5l-0.5-3.4l3.2,3h3.1l2.3,0.8l3.8-0.8l7.2,2.9l3.8-0.3l4.4,1.3l2.5-3.9h2.6h3.8l4.9-1.7l3.4-3.6l0.9-6.3l5.2,2.7l2.3,3.1
			l3.2,3.3v2.5l0.6,4.9l0.6,3.6l0.9,5.2L624,535l-0.9,4.8l-1.2,1.8l-1.7,4.9l-1.2,2.5l-2.3,2.8l-3.5,1.9l-2.4,2.6h-3.7h-4.9h-5.5
			h-12.1h-5l-7.5,1.1"/>
		<path fill-opacity="0" stroke="#000000" d="M564,557.4l2.3-2L564,549v-5.2l-2.4-2.5l-2.1-1.6l-5.3-1l2.8-6.8l-0.3-4.9l0.3-6.8
			v-3.8l2.5,0.2l4.5,4.5l2.3-4.5l-0.5-3.4l3.2,3h3.1l2.3,0.8l3.8-0.8l7.2,2.9l3.8-0.3l4.4,1.3l2.5-3.9h2.6h3.8l4.9-1.7l3.4-3.6
			l0.9-6.3l5.2,2.7l2.3,3.1l3.2,3.3v2.5l0.6,4.9l0.6,3.6l0.9,5.2L624,535l-0.9,4.8l-1.2,1.8l-1.7,4.9l-1.2,2.5l-2.3,2.8l-3.5,1.9
			l-2.4,2.6h-3.7h-4.9h-5.5h-12.1h-5l-7.5,1.1"/>
	</g>
</g>
<g id="Winsconsin">
	<g>
		<path fill="#929292" d="M589.3,447.1l-2.2-2.2l5.5-8.4l-0.7-5.5l5.1-4.3l2.4-3l5.6-8l5.9-5.3l2.9,11.7l7.7,2.9v2.9l8.7,2.4
			l4.8,0.5h2.4l2.9,0.5l5.8,1l2.9,2.4l1.9,3.9l1,2.9l1,4.8l1.4,2.4l-3.4,6.3l3.9-0.5l2.9-3.9l3.4-5.3l0.5,5.3l-2.4,2.9l-1.9,7.7
			l-1,11.6l-1,11.1l0.5,6.7l0.5,4.3h-6.3l-9.6,1H635l-9.1-1.4h-5.3l-2.9-1l-6.7,1.5l-3.4-10.5l-2.5-5.3v-1.6v-5l-4.7-5.5l-3.4-2.7
			l-4.6-2.7l-4.3-6L589.3,447.1z"/>
		<path fill-opacity="0" stroke="#000000" d="M589.3,447.1l-2.2-2.2l5.5-8.4l-0.7-5.5l5.1-4.3l2.4-3l5.6-8l5.9-5.3l2.9,11.7l7.7,2.9
			v2.9l8.7,2.4l4.8,0.5h2.4l2.9,0.5l5.8,1l2.9,2.4l1.9,3.9l1,2.9l1,4.8l1.4,2.4l-3.4,6.3l3.9-0.5l2.9-3.9l3.4-5.3l0.5,5.3l-2.4,2.9
			l-1.9,7.7l-1,11.6l-1,11.1l0.5,6.7l0.5,4.3h-6.3l-9.6,1H635l-9.1-1.4h-5.3l-2.9-1l-6.7,1.5l-3.4-10.5l-2.5-5.3v-1.6v-5l-4.7-5.5
			l-3.4-2.7l-4.6-2.7l-4.3-6L589.3,447.1z"/>
	</g>
</g>
<g id="Illinois">
	<g>
		<g filter="url(#Shadow_3)">
			<polygon points="609.7,491.2 610.3,491.4 613,492.3 615.3,492.3 617.6,492 617.7,492 619.1,492.1 619.2,492.2 622.8,493.5 
				627.1,493.5 627.3,493.5 630.3,494.4 646.1,494.4 648,493.5 648.2,493.5 652.8,493.5 655.6,493.5 656.2,493.4 656.3,493.4 
				656.5,493.5 657.8,494.4 659.5,494.4 662.2,493.5 663.3,492.2 663.4,492 663.6,492 666.8,491.4 667.1,491.3 667.2,491.5 
				669.2,493.6 669.3,493.8 670.7,497.9 672.1,502.9 672.7,510.5 673,513.8 673,518.9 672.8,523 672.5,526.7 673.1,534.1 
				673.1,534.3 673,534.4 670.9,538.2 670.6,543 670.6,543.1 669.4,546.6 668.7,550 668.2,551.6 668.2,551.8 668,551.9 664.2,554.1 
				664.1,554.2 662.5,554.6 662.3,554.6 660.5,554.6 659.3,555.2 659.1,555.2 654.8,555.2 652.3,555.9 652.2,556 647.4,556 
				647.2,555.9 644.8,555.2 629.8,555.2 629.6,555.2 627.1,554.6 623.5,555.2 623.3,555.3 623.1,555.1 620.7,552.9 619.1,552.2 
				617.3,551.8 616.6,551.6 617,551 618.7,548.7 619.8,546.2 620.9,543.4 621.5,541.3 621.6,541.2 622.7,539.4 623,538 623.5,534.6 
				624.1,529.7 623.5,526.7 623.5,523.7 622.4,520.2 622.4,520.1 622.1,515.8 622.1,513.6 619.6,512.7 619.5,512.6 619.4,512.4 
				616.7,507.1 611.7,504.5 611.5,504.4 611.4,504.2 610.5,500.6 609.8,497.1 609.1,496.2 609,496 609,495.8 609.6,491.8 			"/>
		</g>
		<path fill="#A6A6A6" d="M610.1,491.9l-0.6,4l0.8,1l0.7,3.7l0.9,3.5l5.2,2.7l2.7,5.4l2.8,1.1v2.5l0.3,4.3l1.2,3.5v3.1l0.6,2.9
			l-0.6,5l-0.6,3.4l-0.3,1.5l-1.2,1.9l-0.6,2.1l-1.1,2.9l-1.2,2.5l-1.7,2.4l1.8,0.4l1.8,0.7l2.5,2.2l3.7-0.6l2.6,0.6h2.2h1h1.8h2.3
			h1.9h2.5h1.5h1.9l2.5,0.7h1.7h3.2l2.5-0.7h2.9h1.5l1.3-0.6h1.9l1.6-0.4l3.8-2.2l0.4-1.6l0.7-3.4l1.2-3.6l0.3-4.9l2.2-3.9l-0.6-7.4
			l0.3-3.7l0.1-4.2v-5.1l-0.3-3.3l-0.6-7.6l-1.3-4.9l-1.5-4.1l-1.9-2.1l-3.2,0.6l-1.2,1.5l-2.9,0.9h-1.9l-1.4-1l-0.6,0h-2.8h-1.4
			h-3.1l-2.1,0.9h-3.4h-2.5h-4h-6.2l-3.1-0.9h-4.4l-3.7-1.3l-1.4-0.2l-2.3,0.3h-2.5L610.1,491.9z"/>
		<path fill-opacity="0" stroke="#000000" d="M610.1,491.9l-0.6,4l0.8,1l0.7,3.7l0.9,3.5l5.2,2.7l2.7,5.4l2.8,1.1v2.5l0.3,4.3
			l1.2,3.5v3.1l0.6,2.9l-0.6,5l-0.6,3.4l-0.3,1.5l-1.2,1.9l-0.6,2.1l-1.1,2.9l-1.2,2.5l-1.7,2.4l1.8,0.4l1.8,0.7l2.5,2.2l3.7-0.6
			l2.6,0.6h2.2h1h1.8h2.3h1.9h2.5h1.5h1.9l2.5,0.7h1.7h3.2l2.5-0.7h2.9h1.5l1.3-0.6h1.9l1.6-0.4l3.8-2.2l0.4-1.6l0.7-3.4l1.2-3.6
			l0.3-4.9l2.2-3.9l-0.6-7.4l0.3-3.7l0.1-4.2v-5.1l-0.3-3.3l-0.6-7.6l-1.3-4.9l-1.5-4.1l-1.9-2.1l-3.2,0.6l-1.2,1.5l-2.9,0.9h-1.9
			l-1.4-1l-0.6,0h-2.8h-1.4h-3.1l-2.1,0.9h-3.4h-2.5h-4h-6.2l-3.1-0.9h-4.4l-3.7-1.3l-1.4-0.2l-2.3,0.3h-2.5L610.1,491.9z"/>
	</g>
</g>
<g id="Idaho">
	<g>
		<g filter="url(#Shadow_4)">
			<polygon points="350,369.2 350.6,369.5 359,373.4 359.5,373.6 359.3,374 357.5,377.5 355.5,384.7 357.9,391.3 359.3,396.5 
				362.5,401.8 364.1,405.4 366.3,405.7 366.9,405.8 366.7,406.4 365,411.3 364.6,414.4 364,419 366.1,420.2 369.3,421.6 
				369.7,421.8 369.6,422.2 368.5,426.7 369.9,430.7 371.2,433.1 373.6,435.1 373.9,435.3 373.8,435.6 373.3,437.9 375.6,437.1 
				375.8,437.1 375.9,437.1 379.4,437.8 383.3,438.2 383.5,438.2 383.6,438.4 384.1,438.9 383.8,437.7 383.7,437.5 383.9,437.3 
				385.3,435.2 385.5,434.8 386,435.1 388.8,436.8 388.9,436.9 389,437.1 390.4,440.6 390.5,440.8 390.4,440.9 382.6,474.7 
				382.5,475.3 382,475.1 377.8,473.4 372.9,472.3 367.6,471.3 361.2,470.2 353.4,467.7 346.4,467.4 346.3,467.4 336.8,463.8 
				327.9,461 327.6,460.9 327.6,456.7 327.6,456.5 329,452.3 330.4,447.8 330.8,444.5 331.9,440.3 333.3,436.7 334.6,433.8 
				333,431.2 332.9,431 332.2,427.5 332.1,427.3 332.3,427.1 334.4,424.6 334.6,424.5 334.7,424.4 337.2,424.1 337.9,421.6 
				338,421.1 338.5,421.3 340,421.8 340,418 340.1,417.9 343.7,414 340.4,409 340.2,408.8 340.4,408.5 341.7,405.4 341.7,401 
				341.7,400.8 349.9,369.8 			"/>
		</g>
		<path fill="#B8B8B8" d="M350.4,369.9l-8.1,31v4.6l-1.4,3.2l3.5,5.3l-3.9,4.2v4.2l-2.1-0.7l-0.7,2.8l-2.8,0.4l-2.1,2.5l0.7,3.5
			l1.8,2.8l-1.4,3.2l-1.4,3.5l-1.1,4.2l-0.4,3.2l-1.4,4.6l-1.4,4.2v3.9l8.8,2.8l9.5,3.5l7.1,0.4l7.8,2.5l6.4,1.1l5.3,1.1l4.9,1.1
			l4.2,1.8l7.8-33.8l-1.4-3.5l-2.8-1.8l-1.4,2.1l0.7,3.2l-1.8-2.1l-3.9-0.4l-3.5-0.7l-3.2,1.1l0.7-3.2l-2.5-2.1l-1.4-2.5l-1.4-4.2
			l1.1-4.6l-3.2-1.4l-2.5-1.4l0.7-4.9l0.4-3.2l1.8-4.9l-2.5-0.4L362,402l-3.2-5.3l-1.4-5.3l-2.5-6.7l2.1-7.4l1.8-3.5L350.4,369.9z"
			/>
		<path fill-opacity="0" stroke="#000000" d="M350.4,369.9l-8.1,31v4.6l-1.4,3.2l3.5,5.3l-3.9,4.2v4.2l-2.1-0.7l-0.7,2.8l-2.8,0.4
			l-2.1,2.5l0.7,3.5l1.8,2.8l-1.4,3.2l-1.4,3.5l-1.1,4.2l-0.4,3.2l-1.4,4.6l-1.4,4.2v3.9l8.8,2.8l9.5,3.5l7.1,0.4l7.8,2.5l6.4,1.1
			l5.3,1.1l4.9,1.1l4.2,1.8l7.8-33.8l-1.4-3.5l-2.8-1.8l-1.4,2.1l0.7,3.2l-1.8-2.1l-3.9-0.4l-3.5-0.7l-3.2,1.1l0.7-3.2l-2.5-2.1
			l-1.4-2.5l-1.4-4.2l1.1-4.6l-3.2-1.4l-2.5-1.4l0.7-4.9l0.4-3.2l1.8-4.9l-2.5-0.4L362,402l-3.2-5.3l-1.4-5.3l-2.5-6.7l2.1-7.4
			l1.8-3.5L350.4,369.9z"/>
	</g>
</g>
<g id="Montana">
	<g>
		<g filter="url(#Shadow_5)">
			<polygon points="357.5,372.1 358.1,372.2 476.5,392.1 477,392.2 477,392.7 472.5,437 470.5,447.5 470.4,447.9 470,447.9 
				461.5,446.8 446.2,444.6 432.5,442.1 421.2,440.6 413.5,439.9 402.7,438.1 395.4,437.4 393.1,442.9 392.7,443.9 392.2,442.9 
				390.8,440.1 388.1,441.7 388,441.7 383.8,441.7 383.7,441.7 381.5,441.1 379.3,443 379,443.3 378.7,443.1 376.1,441.4 
				373.5,442.1 372.8,442.2 372.8,436.8 369.9,435.5 369.6,435.4 369.6,435 370,432.2 368.1,428.4 368,428.2 367.6,424 361.6,424 
				361.6,420.4 361.6,420.3 363.2,417.5 363.6,415.4 364.4,412.1 364.4,412 366.6,407.7 363,405.4 362.8,405.2 359.6,400.5 
				357.6,396.2 356,394 355.8,393.7 356,393.4 357.4,391.5 355.2,388.2 355.1,388.1 354.3,385.5 354.3,385.3 354.7,381.3 
				354.8,381.2 356.3,378 357.5,374.1 			"/>
		</g>
		<path fill="#A6A6A6" d="M358,372.7v1.4l-1.2,4l-1.6,3.3l-0.4,4l0.8,2.5l2.4,3.6l-1.6,2.2l1.6,2.2l2,4.4l3.2,4.7l4,2.5l-2.4,4.7
			l-0.8,3.3l-0.4,2.2l-1.6,2.9v2.9h3.6h2.4l0.4,4.7l2,4l-0.4,2.9l3.2,1.5v2.5v2.5l2.8-0.7l2.8,1.8l2.4-2.2l2.4,0.7h4l3.2-1.8
			l1.6,3.3l2.4-5.8l7.7,0.7l10.9,1.8l7.7,0.7l11.3,1.5l13.7,2.5l15.3,2.2l8.5,1.1l2-10.5l4.4-44.2L358,372.7z"/>
		<path fill-opacity="0" stroke="#000000" d="M358,372.7v1.4l-1.2,4l-1.6,3.3l-0.4,4l0.8,2.5l2.4,3.6l-1.6,2.2l1.6,2.2l2,4.4
			l3.2,4.7l4,2.5l-2.4,4.7l-0.8,3.3l-0.4,2.2l-1.6,2.9v2.9h3.6h2.4l0.4,4.7l2,4l-0.4,2.9l3.2,1.5v2.5v2.5l2.8-0.7l2.8,1.8l2.4-2.2
			l2.4,0.7h4l3.2-1.8l1.6,3.3l2.4-5.8l7.7,0.7l10.9,1.8l7.7,0.7l11.3,1.5l13.7,2.5l15.3,2.2l8.5,1.1l2-10.5l4.4-44.2L358,372.7z"/>
	</g>
</g>
<g id="North_Dakota">
	<g>
		<g filter="url(#Shadow_6)">
			<polygon points="474.7,393.6 475.2,393.7 552.2,399.6 552.5,399.6 552.6,399.8 555.3,403.4 555.5,403.7 555.4,404 553.2,407.9 
				554.1,411.5 554.5,417.8 555,422.8 556.3,430.5 558.6,436.4 558.7,436.6 558.6,436.8 556,441 558,443.1 558.1,443.2 560,447.3 
				560,447.5 560,447.6 559.1,451.7 559,452.1 558.6,452.1 552.2,452.1 544.9,452.6 541,452.6 537.4,454.8 537.1,454.9 536.9,454.8 
				531.1,450.7 520.7,450.7 510.2,449.8 500.2,449.4 469.2,447.1 468.7,447.1 468.7,446.5 474.7,394.1 			"/>
		</g>
		<path fill="#CBCBCB" d="M475.2,394.2l-5.9,52.4l31,2.3l10,0.5l10.5,0.9h10.5l5.9,4.1l3.6-2.3h4.1l7.3-0.5h6.4l0.9-4.1l-1.8-4.1
			l-2.3-2.3l2.7-4.6l-2.3-5.9l-1.4-7.8l-0.5-5l-0.5-6.4l-0.9-3.6l2.3-4.1l-2.7-3.6L475.2,394.2z"/>
		<path fill-opacity="0" stroke="#000000" d="M475.2,394.2l-5.9,52.4l31,2.3l10,0.5l10.5,0.9h10.5l5.9,4.1l3.6-2.3h4.1l7.3-0.5h6.4
			l0.9-4.1l-1.8-4.1l-2.3-2.3l2.7-4.6l-2.3-5.9l-1.4-7.8l-0.5-5l-0.5-6.4l-0.9-3.6l2.3-4.1l-2.7-3.6L475.2,394.2z"/>
	</g>
</g>
<g id="Minnesota">
	<g>
		<g filter="url(#Shadow_7)">
			<polygon points="569,392.7 569.4,392.8 570.9,393.1 571.1,393.2 571.2,393.4 572.5,396.4 574.1,400.6 576,401.8 579.7,401.5 
				579.9,401.5 580.1,401.7 582.2,405.1 584.5,403.5 586.7,402.4 587,402.2 587.2,402.4 591.2,405.3 595.7,406.1 595.9,406.2 
				596,406.4 598.1,410.4 599.3,409.3 599.5,409.1 599.7,409.1 601.8,409.1 605.7,408.6 607.1,408.6 607.3,408.6 611.1,410 
				611.7,410.2 611.4,410.7 608.3,415.8 608.1,416.1 607.8,416.1 606.4,415.9 603.9,418.6 601.5,421.3 599.8,424 597.3,427.1 
				592.5,431.3 592.5,438.3 592.3,438.5 589.2,441.9 587.8,444.8 589.7,446.7 589.8,446.9 589.8,452 589.8,452.1 588.7,455.4 
				590.2,457.7 592.7,461 593.8,461 595.2,460.7 595.6,460.7 595.8,461 597.4,463.9 599.2,466.4 600.7,466.4 600.8,466.6 603,469.9 
				603.1,470.1 603,470.4 602.1,472.8 601.9,473.1 589.1,473.1 581,473.1 575.3,473.9 567.9,473.7 556.8,472.8 556.3,472.8 
				556.3,472.3 556.6,469.3 557,465.2 557.5,458.5 557.5,449.9 555.7,446.9 554.3,445.6 554,445.3 554.2,444.9 555.2,443.4 
				556.3,439.4 556.3,436.9 554.6,432.5 554.2,430.1 554.1,429.9 554.2,429.7 555.5,427.4 553.6,426 553.3,425.8 553.5,425.5 
				554.4,422.9 553.9,421.1 553,417 552.7,413.2 552.5,409.9 552.5,409.8 552.5,409.7 553.4,408 551.3,404.4 551.1,404.1 
				551.5,403.8 552.8,402.7 551.3,398.9 551,398.2 551.8,398.3 567.2,400.1 567.9,396.7 568.9,393.2 			"/>
		</g>
		<path fill="#B8B8B8" d="M551.8,398.8l1.7,4.1l-1.7,1.4l2.2,3.8l-1,1.9l0.2,3.3l0.2,3.8l1,4.1l0.5,1.9l-1,2.7l2.2,1.6l-1.4,2.7
			l0.5,2.4l1.7,4.3v2.7l-1.2,4.1l-1,1.6l1.4,1.4l1.9,3.3v3.5v5.2l-0.5,6.8l-0.5,4.1l-0.2,3l11.1,0.8l7.5,0.3l5.5-0.8h8.2h5.5h7
			l1-2.4l-2.2-3.3h-1.4l-1.9-2.7l-1.7-3l-1.4,0.3h-1.4l-2.6-3.5l-1.7-2.4l1.2-3.5v-4.9l-2.2-2.2l1.7-3.3l3.1-3.5v-7.1l5.1-4.3l2.4-3
			l1.7-2.7l2.4-2.7l2.6-3l1.7,0.3l3.1-5.2l-3.9-1.4h-1.4l-3.9,0.5h-2.2l-1.7,1.6l-2.4-4.6l-4.6-0.8l-4.1-3l-2.2,1.1l-2.6,1.9
			l-2.4-3.8l-3.8,0.3l-2.2-1.4l-1.7-4.3l-1.2-3l-1.4-0.3l-1,3.5l-0.7,3.8L551.8,398.8z"/>
		<path fill-opacity="0" stroke="#000000" d="M551.8,398.8l1.7,4.1l-1.7,1.4l2.2,3.8l-1,1.9l0.2,3.3l0.2,3.8l1,4.1l0.5,1.9l-1,2.7
			l2.2,1.6l-1.4,2.7l0.5,2.4l1.7,4.3v2.7l-1.2,4.1l-1,1.6l1.4,1.4l1.9,3.3v3.5v5.2l-0.5,6.8l-0.5,4.1l-0.2,3l11.1,0.8l7.5,0.3
			l5.5-0.8h8.2h5.5h7l1-2.4l-2.2-3.3h-1.4l-1.9-2.7l-1.7-3l-1.4,0.3h-1.4l-2.6-3.5l-1.7-2.4l1.2-3.5v-4.9l-2.2-2.2l1.7-3.3l3.1-3.5
			v-7.1l5.1-4.3l2.4-3l1.7-2.7l2.4-2.7l2.6-3l1.7,0.3l3.1-5.2l-3.9-1.4h-1.4l-3.9,0.5h-2.2l-1.7,1.6l-2.4-4.6l-4.6-0.8l-4.1-3
			l-2.2,1.1l-2.6,1.9l-2.4-3.8l-3.8,0.3l-2.2-1.4l-1.7-4.3l-1.2-3l-1.4-0.3l-1,3.5l-0.7,3.8L551.8,398.8z"/>
	</g>
</g>
<g id="South_Dakota">
	<g>
		<g filter="url(#Shadow_8)">
			<polygon points="469.1,446.9 469.3,446.9 473.9,447.1 488.2,447.9 496.3,447.9 511.6,449.2 524.2,448.9 534,449.9 544.8,450.2 
				557.4,450.9 557.8,451 557.9,451.3 558.6,453 558.7,453.4 558.4,453.6 555.1,455.8 559.8,459.2 560,459.3 560,476.8 560,477 
				558.6,482.4 559.3,487.9 559.3,488.1 558.3,491.6 558.6,494.8 558.7,495.6 558,495.3 553,493.8 549.1,491.7 547.2,490.6 
				541.7,491.5 537.5,492.1 537.3,492.1 537.1,491.9 534.5,489 530.5,489.3 526.7,489.5 526.5,489.5 522,488.8 516.5,488.2 
				511,488.2 506.1,488.8 505.9,488.7 498.6,487.5 490.6,486.7 479.4,486.5 474.2,486.2 469.7,486.2 464.1,486.7 463.6,486.8 
				463.5,486.3 463.2,483.4 463.2,479.1 463.2,479 464.3,474.4 465.7,470.4 466,466.9 466,466.8 467,463.8 467.4,458 467.4,453.7 
				467.4,451.5 467,448.7 467,448.4 467.2,448.2 469,447 			"/>
		</g>
		<path fill="#CBCBCB" d="M469.3,447.4l-1.7,1.3l0.4,2.8v2.3v4.3l-0.4,5.8l-1,3l-0.3,3.6l-1.4,4.1l-1,4.6v4.3l0.4,2.8l5.6-0.5h4.5
			l5.2,0.3l11.2,0.3l8,0.8l7.3,1.3l4.9-0.5h5.6l5.6,0.5l4.5,0.8l3.8-0.3l4.2-0.3l2.8,3l4.2-0.5l5.6-1l2.1,1.3l3.8,2l4.9,1.5
			l-0.3-3.3l1-3.6l-0.7-5.6l1.4-5.6v-3.6v-8.6v-5.1l-5.2-3.8l3.8-2.5l-0.7-1.8l-12.6-0.8l-10.8-0.3l-9.8-1l-12.6,0.3l-15.4-1.3h-8
			l-14.3-0.8L469.3,447.4z"/>
		<path fill-opacity="0" stroke="#000000" d="M469.3,447.4l-1.7,1.3l0.4,2.8v2.3v4.3l-0.4,5.8l-1,3l-0.3,3.6l-1.4,4.1l-1,4.6v4.3
			l0.4,2.8l5.6-0.5h4.5l5.2,0.3l11.2,0.3l8,0.8l7.3,1.3l4.9-0.5h5.6l5.6,0.5l4.5,0.8l3.8-0.3l4.2-0.3l2.8,3l4.2-0.5l5.6-1l2.1,1.3
			l3.8,2l4.9,1.5l-0.3-3.3l1-3.6l-0.7-5.6l1.4-5.6v-3.6v-8.6v-5.1l-5.2-3.8l3.8-2.5l-0.7-1.8l-12.6-0.8l-10.8-0.3l-9.8-1l-12.6,0.3
			l-15.4-1.3h-8l-14.3-0.8L469.3,447.4z"/>
	</g>
</g>
<g id="Wyoming">
	<g>
		<g filter="url(#Shadow_9)">
			<polygon points="392.5,434.4 392.9,434.5 469.3,447.2 470.1,447.4 469.6,448 468,450.6 468.4,454.2 468.4,463 468,470.9 468,471 
				466.9,474.9 467.6,476.4 467.6,476.6 467.6,476.8 466.5,479.8 464,487.2 464,499.5 463.4,499.4 379.4,485 378.9,484.9 379,484.4 
				387,440 387.1,439.9 388.2,438 388.8,437.2 389.1,438.1 390.3,441.1 392.3,434.8 			"/>
		</g>
		<path fill="#DDDDDD" d="M379.5,484.5l8-44.3l1.2-1.8l1.7,4.3l2.5-7.6l76.4,12.7l-1.7,2.7l0.4,3.7v8.8l-0.4,7.8l-1.1,4.1l0.7,1.7
			l-1.1,3.1l-2.5,7.5v4v7.7L379.5,484.5z"/>
		<path fill-opacity="0" stroke="#000000" d="M379.5,484.5l8-44.3l1.2-1.8l1.7,4.3l2.5-7.6l76.4,12.7l-1.7,2.7l0.4,3.7v8.8l-0.4,7.8
			l-1.1,4.1l0.7,1.7l-1.1,3.1l-2.5,7.5v4v7.7L379.5,484.5z"/>
	</g>
</g>
<g id="Utah">
	<g>
		<g filter="url(#Shadow_10)">
			<path d="M327.7,459.9l0.5,0.1l54.1,13.8l0.5,0.1l-0.1,0.5l-2.5,9.3l6.4,1.1l0.5,0.1l-0.1,0.5c0,0.1,0,0.1-0.1,0.4
				c-0.1,0.3-0.1,0.7-0.2,1.1c-0.2,1.2-0.4,2.5-0.7,4c-0.7,4.1-1.4,8.3-2.1,12.1c-0.2,0.9-0.3,1.8-0.5,2.6
				c-2.1,11.5-3,15.4-3.9,15.4c-0.5,0-4.3-0.8-10.6-2.3c-0.2,0-0.2,0-0.4-0.1c-2.3-0.5-4.7-1.1-7-1.6c-0.8-0.2-1.6-0.4-2.3-0.5
				c-0.4-0.1-0.7-0.2-0.9-0.2l-5.1-1.4l-6.3-1l-3.3,1.3l-0.4,0.2l-0.2-0.4l-0.9-1.7l-3.9-0.2l-0.1,0l-16-5.2l-0.4-0.1l0.1-0.4
				l5.9-47L327.7,459.9z"/>
		</g>
		<path fill="#DDDDDD" d="M328.1,460.5l-5.9,47l16,5.2l4.2,0.2l1,1.9l3.4-1.4l6.4,1l5.2,1.4c0,0,20.1,4.7,21.1,4.7s7-35.2,7-35.2
			l-7-1.2l2.7-9.8L328.1,460.5z"/>
		<path fill-opacity="0" stroke="#000000" d="M328.1,460.5l-5.9,47l16,5.2l4.2,0.2l1,1.9l3.4-1.4l6.4,1l5.2,1.4
			c0,0,20.1,4.7,21.1,4.7s7-35.2,7-35.2l-7-1.2l2.7-9.8L328.1,460.5z"/>
	</g>
</g>
<g id="Colorado">
	<g>
		<g filter="url(#Shadow_11)">
			<polygon points="386.1,484.8 386.5,484.9 463.6,495.6 464,495.6 464,496 464.2,500.3 464.2,508.1 464.1,508.3 462.8,511.2 
				463.5,513.8 463.5,514 462.9,519.5 461.1,526.6 461,527 460.6,527 454.9,527.6 454.8,527.6 447.9,526.7 444.9,526.4 436.2,526.1 
				427.7,525.8 420.8,525 413.6,524.8 404.6,523.9 388.6,523.3 378,522 377.5,522 377.6,521.4 378.5,517.7 379.4,514.2 381.4,508.7 
				381.4,505.7 382,501 383.7,496 384.1,493.6 386,485.3 			"/>
		</g>
		<path fill="#B8B8B8" d="M386.5,485.4l-1.8,8.3l-0.5,2.4l-1.7,5.1l-0.6,4.7v3l-2,5.6l-0.9,3.4l-0.9,3.7l10.5,1.2l16,0.6l9,0.9
			l7.2,0.2l6.9,0.8l8.4,0.3l8.7,0.3l3,0.3l6.9,0.9l5.7-0.6l1.8-7.2l0.6-5.4l-0.7-2.8l1.4-3V503v-2.8l-0.2-4.2L386.5,485.4z"/>
		<path fill-opacity="0" stroke="#000000" d="M386.5,485.4l-1.8,8.3l-0.5,2.4l-1.7,5.1l-0.6,4.7v3l-2,5.6l-0.9,3.4l-0.9,3.7
			l10.5,1.2l16,0.6l9,0.9l7.2,0.2l6.9,0.8l8.4,0.3l8.7,0.3l3,0.3l6.9,0.9l5.7-0.6l1.8-7.2l0.6-5.4l-0.7-2.8l1.4-3V503v-2.8l-0.2-4.2
			L386.5,485.4z"/>
	</g>
</g>
<g id="Nebraska">
	<g>
		<g filter="url(#Shadow_12)">
			<polygon points="482.1,484 482.3,484.1 487.6,485.9 492.1,485.6 492.2,485.6 497.6,486.5 501.4,486.8 506.6,487.1 510.9,487.9 
				516.4,487.9 519,486.9 519.1,486.8 519.3,486.9 523.4,487.9 526.7,488.6 530.5,489.2 534.5,488.1 534.8,488 535,488.2 538.7,492 
				541.5,490.8 543.1,490.3 543.3,490.3 545.7,490.3 545.8,490.3 547.2,490.8 548.4,490.3 548.7,490.2 548.9,490.4 552,493.4 
				556.3,494.6 556.4,494.6 556.5,494.7 557.5,495.9 557.3,493.3 557.2,492.2 558,492.9 560.8,495 560.9,495 561,495.2 562.7,499.7 
				564.4,502.5 564.5,502.7 565.6,510.4 566.4,513.5 566.9,516.9 566.9,517.1 566.8,517.2 564.5,521.8 564.1,522.5 563.6,521.9 
				562.1,520.1 559.4,517.6 555.3,519 555.1,519.1 554.9,518.9 551.6,516.9 537.2,516.9 537,516.9 532.5,515.6 526.9,515.6 
				522.1,515 516.2,515 511.9,515 507.3,515.6 507.2,515.6 503.1,515.3 498.9,515.3 493.9,515 490.3,515 486.7,515.6 486.5,515.6 
				483.6,515 479.7,515 476.5,514.7 471.2,514.7 469.1,514.7 463.6,513.6 463.2,513.6 463.2,499.9 463.2,493.5 463.5,486.4 
				463.6,485.9 464,485.9 474.2,485.2 479.3,485.6 482,484.1 			"/>
		</g>
		<path fill="#EEEEEE" d="M464,486.4l-0.4,7.1v6.4v6.8v6.5l5.5,1h2h3.2h2.1l3.3,0.3h3.9l2.9,0.6l3.6-0.6h3.6l5.1,0.3h4.1l4.1,0.3
			l4.6-0.6h4.4h5.8l4.9,0.6h5.6l4.6,1.3h3.6h4.6h6.3l3.4,2.1l4.3-1.5l3,2.7l1.5,1.9l2.3-4.6l-0.5-3.4l-0.7-3.1l-1.1-7.7l-1.8-2.8
			l-1.7-4.6l-2.8-2.1l0.3,4.3l-2-2.5l-4.4-1.2l-3.2-3l-1.3,0.5l-1.6-0.5h-2.4l-1.6,0.5l-3,1.2l-4-4l-4.2,1.1l-3.8-0.6l-3.3-0.7
			l-4.1-1.1l-2.7,1h-5.6l-4.4-0.7l-5.1-0.3l-3.9-0.3l-5.4-0.9l-4.6,0.3l-5.4-1.8l-2.8,1.5l-5.2-0.3L464,486.4z"/>
		<path fill-opacity="0" stroke="#000000" d="M464,486.4l-0.4,7.1v6.4v6.8v6.5l5.5,1h2h3.2h2.1l3.3,0.3h3.9l2.9,0.6l3.6-0.6h3.6
			l5.1,0.3h4.1l4.1,0.3l4.6-0.6h4.4h5.8l4.9,0.6h5.6l4.6,1.3h3.6h4.6h6.3l3.4,2.1l4.3-1.5l3,2.7l1.5,1.9l2.3-4.6l-0.5-3.4l-0.7-3.1
			l-1.1-7.7l-1.8-2.8l-1.7-4.6l-2.8-2.1l0.3,4.3l-2-2.5l-4.4-1.2l-3.2-3l-1.3,0.5l-1.6-0.5h-2.4l-1.6,0.5l-3,1.2l-4-4l-4.2,1.1
			l-3.8-0.6l-3.3-0.7l-4.1-1.1l-2.7,1h-5.6l-4.4-0.7l-5.1-0.3l-3.9-0.3l-5.4-0.9l-4.6,0.3l-5.4-1.8l-2.8,1.5l-5.2-0.3L464,486.4z"/>
	</g>
</g>
<g id="Kansas">
	<g>
		<g filter="url(#Shadow_13)">
			<polygon points="471.9,510.2 472.1,510.2 477.4,511.7 480.2,511.7 480.3,511.7 489.3,513.7 495.7,513.7 502.1,514.1 506.2,514.4 
				512.2,513.7 515.2,513.7 521.1,513.7 525.9,514.4 531.5,514.4 531.6,514.4 534.5,515 538.1,516.3 542.9,516 546.9,515.3 
				550.6,514.4 550.9,514.3 551.1,514.5 554.3,517.8 556.8,516.4 557.5,515.9 557.5,516.8 557.5,520.7 557.2,527.7 554.7,539.7 
				554.6,540.1 554.2,540.1 551.8,540 547.1,540.7 538.9,541 521.5,540.7 511.2,541 502.5,540.4 494.1,539.4 486.3,539.4 
				481.9,539.4 475.5,538.1 460.4,538.1 460.3,537.6 459.7,532.7 459.1,527 459.1,526.9 460.3,520.6 460.4,520.4 462.2,517.7 
				462.2,512.4 462.5,512.3 468,510.2 468.2,510.2 			"/>
		</g>
		<path fill="#EEEEEE" d="M462.7,512.8v5l-1.9,2.9l-1.2,6.3l0.6,5.7l0.6,4.9h9.3h5.3l6.5,1.3h4.4h7.8l8.4,1l8.7,0.7l10.3-0.3
			l17.4,0.3l8.1-0.3l4.7-0.7h2.4l2.5-11.9l0.3-6.9v-3.9l-2.8,1.7l-3.4-3.6l-3.7,1l-4,0.7l-5,0.3l-3.7-1.3l-2.8-0.6h-5.6l-4.9-0.7
			h-5.8l-3.1,0l-5.9,0.7l-4.1-0.3l-6.4-0.4l-6.5,0l-9-2h-2.9l-5.4-1.5h-3.7L462.7,512.8z"/>
		<path fill-opacity="0" stroke="#000000" d="M462.7,512.8v5l-1.9,2.9l-1.2,6.3l0.6,5.7l0.6,4.9h9.3h5.3l6.5,1.3h4.4h7.8l8.4,1
			l8.7,0.7l10.3-0.3l17.4,0.3l8.1-0.3l4.7-0.7h2.4l2.5-11.9l0.3-6.9v-3.9l-2.8,1.7l-3.4-3.6l-3.7,1l-4,0.7l-5,0.3l-3.7-1.3l-2.8-0.6
			h-5.6l-4.9-0.7h-5.8l-3.1,0l-5.9,0.7l-4.1-0.3l-6.4-0.4l-6.5,0l-9-2h-2.9l-5.4-1.5h-3.7L462.7,512.8z"/>
	</g>
</g>
<g id="Arizona">
	<g>
		<g filter="url(#Shadow_14)">
			<polygon points="321.9,506.8 322.4,507 324.7,508 330.2,510.2 338.4,510.7 338.6,510.7 342.6,512.5 342.7,512.6 342.8,512.7 
				343.6,514.3 346.6,513.1 346.7,513 346.9,513 350.4,513.7 358.4,515.4 366.5,516.1 366.7,516.1 372,518.7 378.2,520.1 
				378.5,520.2 378.6,520.5 380,527 380,527.1 380,531.9 380,539.6 380,539.8 378.5,543.1 376.9,546.2 376.1,549.5 376,549.7 
				372.2,555 372.1,555.2 371.9,555.2 365.8,556.4 359.4,558 351.4,558.5 341.8,558.5 337.8,559 330,558.8 322.1,557.7 322,557.7 
				321.9,557.6 316.6,554.1 316.3,553.9 316.4,553.5 317,551.4 315.6,549.9 315.3,549.6 315.6,549.3 317.5,546.8 317.6,546.7 
				317.7,546.7 320.4,545.5 319.9,543.5 319.9,543.3 320,543.1 321.2,540.7 321.3,540.5 321.6,540.4 324,540 324,536.2 322.9,534.7 
				321.2,533.8 318.4,532.7 317.6,532.4 318.2,531.8 320.7,529.7 319.1,527.5 316.7,525 313.6,522.2 313.3,522 313.4,521.7 
				316,515.1 316.3,514.5 316.8,514.9 318.2,516 319.4,514 321.7,507.3 			"/>
		</g>
		<path fill="#A6A6A6" d="M316.9,553.7l0.6-2.4l-1.6-1.6l1.9-2.4l3.1-1.3l-0.6-2.4l1.3-2.4l2.8-0.5l0-4.3l-1.3-1.7l-1.9-1l-2.8-1.1
			l2.8-2.4l-1.9-2.6l-2.5-2.5l-3.1-2.7l2.6-6.6l1.8,1.4l1.6-2.5l2.4-6.7l2.3,1l5.6,2.2l8.3,0.5l4,1.8l1,1.9l3.4-1.4l3.6,0.7l8,1.6
			l8.1,0.7l5.3,2.6l6.3,1.4l1.4,6.6v4.8v7.7l-1.4,3.3l-1.7,3.1l-0.8,3.4l-3.8,5.3l-6.1,1.2l-6.4,1.6l-7.9,0.5h-9.7l-3.9,0.5
			l-7.7-0.3l-7.9-1L316.9,553.7z"/>
		<path fill-opacity="0" stroke="#000000" d="M316.9,553.7l0.6-2.4l-1.6-1.6l1.9-2.4l3.1-1.3l-0.6-2.4l1.3-2.4l2.8-0.5l0-4.3
			l-1.3-1.7l-1.9-1l-2.8-1.1l2.8-2.4l-1.9-2.6l-2.5-2.5l-3.1-2.7l2.6-6.6l1.8,1.4l1.6-2.5l2.4-6.7l2.3,1l5.6,2.2l8.3,0.5l4,1.8
			l1,1.9l3.4-1.4l3.6,0.7l8,1.6l8.1,0.7l5.3,2.6l6.3,1.4l1.4,6.6v4.8v7.7l-1.4,3.3l-1.7,3.1l-0.8,3.4l-3.8,5.3l-6.1,1.2l-6.4,1.6
			l-7.9,0.5h-9.7l-3.9,0.5l-7.7-0.3l-7.9-1L316.9,553.7z"/>
	</g>
</g>
<g id="New_Mexico">
	<g>
		<g filter="url(#Shadow_15)">
			<polygon points="377.4,520 378.2,520.1 383.3,521.1 388.7,522.3 399.2,522.7 410.5,522.7 420.9,524 427.8,524.8 448,525.7 
				459.6,526.5 460,526.5 460.1,526.9 460.7,532.6 461.8,540.5 462.2,551 462.2,551.1 460.1,558.7 459.9,559 386.5,559 386.2,559 
				378,555.2 372.5,555.2 372.5,552.8 372.6,552.6 375.2,549.2 377.6,542.7 379,539.5 379,527.2 377.6,520.7 			"/>
		</g>
		<path fill="#DDDDDD" d="M378.1,520.6l1.4,6.6v4.8v7.7l-1.4,3.3l-2.5,6.5l-2.7,3.5v1.8h5.1l8.4,3.8h4.7h8.9h6.5h18.1h6.3h5.4h8.6
			h6.1h8.6l2.2-7.5l-0.4-10.4l-1.2-7.9l-0.6-5.7l-11.6-0.7l-20.2-0.9l-6.9-0.8l-10.4-1.3h-11.2l-10.6-0.4l-5.4-1.2L378.1,520.6z"/>
		<path fill-opacity="0" stroke="#929292" d="M378.1,520.6l1.4,6.6v4.8v7.7l-1.4,3.3l-2.5,6.5l-2.7,3.5v1.8h5.1l8.4,3.8h4.7h8.9h6.5
			h18.1h6.3h5.4h8.6h6.1h8.6l2.2-7.5l-0.4-10.4l-1.2-7.9l-0.6-5.7l-11.6-0.7l-20.2-0.9l-6.9-0.8l-10.4-1.3h-11.2l-10.6-0.4l-5.4-1.2
			L378.1,520.6z"/>
	</g>
</g>
<g id="Heidelberg">
	<g>
		<path fill="#7D7D7D" d="M751.2,235.6l-0.1-29.2l10.4,9.2l6.3,7.6l2.6,7.4l13.5,13.3l4.3,4.7l8.3,7.6v1.8l-1.5,2.7l1.5,4l-1.5,1.4
			l-0.4,3.6l-0.4,3.7l-1.9,3.4l-1.9,2.5l-1.9,2.2l-1,2.9l-0.4,4.1H785l-2.3-4l-3.8,0.4l-2.2-3.8l-4-1.4l-5.2-4.2H764l-4.2-2.3
			l-4.8-2.9l-3.9-0.4l-3-3.4l-1.1-5.4l2.3-4.9l0.2-8.8l1.1-7.3L751.2,235.6z"/>
		<path fill-opacity="0" stroke="#000000" stroke-miterlimit="10" d="M751.2,235.6l-0.1-29.2l10.4,9.2l6.3,7.6l2.6,7.4l13.5,13.3
			l4.3,4.7l8.3,7.6v1.8l-1.5,2.7l1.5,4l-1.5,1.4l-0.4,3.6l-0.4,3.7l-1.9,3.4l-1.9,2.5l-1.9,2.2l-1,2.9l-0.4,4.1H785l-2.3-4l-3.8,0.4
			l-2.2-3.8l-4-1.4l-5.2-4.2H764l-4.2-2.3l-4.8-2.9l-3.9-0.4l-3-3.4l-1.1-5.4l2.3-4.9l0.2-8.8l1.1-7.3L751.2,235.6z"/>
	</g>
</g>
<g id="Essen">
	<g>
		<path fill="#EEEEEE" d="M712.9,279.8l-2.1,0.4l0.7-4V273l-2-0.9V269l-2.2-1.5l-2.4,2l-0.8-1.8l-0.3-2.7l-2.4,1.5l-1.3-1L700,264
			l-1-2.5l-2,0.6l-1.6,1l-2-0.2l-0.6-2.5l-3.4,0.3l-2.1-1.8l-2.4-0.9l-2.2-1.9l-3-0.2l-1.4,3.2h-2.1l-1.7-1.6l-2.3-0.6l-2-4
			l-1.9,1.9l-3-1.4l-2.2-1.9l-1.9-1.9l-1.3-2.1l-1.5-1.4l-1.8-3.9l2.2-7l-3.2-2l2.5-4.2l1.8-4.8l-0.1-5.3l-0.7-2.5v-0.6l1.9,1.3
			l1.5-1.2l1.7,1.2l1.8-1.3l0.1-1.7l1.5-1l-1.5-2.4l-1.1-2.9l0.5-1.1l1.7-0.6l6.8-7.1l1.4,2.5l3,0.4l1.7-0.7l2.2-3.7h0.7l1.4-2.4
			l1.3-1.3l0.8-2.3l1.8-2.5l1.4-3.1l-1.9-2.9l0.6-2.8l1-1.1l6.3-0.1l1.5,1.5l3.2-0.3l9.3,19.8l11.8,15.1l8.1,1.7l14.5,15.7l0.7,4.1
			l1.8,2.1l1.9,0.6l1.8-1l-1.7,9.1l0.3,8.8l-2.7,5.1l1.4,5.9l-0.6,2.9l-1.5,1l-2.1,2l-0.9,1.4l-0.9,2l-1.6,2.4l-0.3,3l-2.1,0.3
			l-2.1-0.7l-1.2,0.3l-2.6,0.7H729l-2.3,0.5l-1.6-1.5H723l-3.4-0.1l-1.9-2.1l-1.7,0.5H712.9z"/>
		<path fill-opacity="0" stroke="#000000" stroke-miterlimit="10" d="M712.9,279.8l-2.1,0.4l0.7-4V273l-2-0.9V269l-2.2-1.5l-2.4,2
			l-0.8-1.8l-0.3-2.7l-2.4,1.5l-1.3-1L700,264l-1-2.5l-2,0.6l-1.6,1l-2-0.2l-0.6-2.5l-3.4,0.3l-2.1-1.8l-2.4-0.9l-2.2-1.9l-3-0.2
			l-1.4,3.2h-2.1l-1.7-1.6l-2.3-0.6l-2-4l-1.9,1.9l-3-1.4l-2.2-1.9l-1.9-1.9l-1.3-2.1l-1.5-1.4l-1.8-3.9l2.2-7l-3.2-2l2.5-4.2
			l1.8-4.8l-0.1-5.3l-0.7-2.5v-0.6l1.9,1.3l1.5-1.2l1.7,1.2l1.8-1.3l0.1-1.7l1.5-1l-1.5-2.4l-1.1-2.9l0.5-1.1l1.7-0.6l6.8-7.1
			l1.4,2.5l3,0.4l1.7-0.7l2.2-3.7h0.7l1.4-2.4l1.3-1.3l0.8-2.3l1.8-2.5l1.4-3.1l-1.9-2.9l0.6-2.8l1-1.1l6.3-0.1l1.5,1.5l3.2-0.3
			l9.3,19.8l11.8,15.1l8.1,1.7l14.5,15.7l0.7,4.1l1.8,2.1l1.9,0.6l1.8-1l-1.7,9.1l0.3,8.8l-2.7,5.1l1.4,5.9l-0.6,2.9l-1.5,1l-2.1,2
			l-0.9,1.4l-0.9,2l-1.6,2.4l-0.3,3l-2.1,0.3l-2.1-0.7l-1.2,0.3l-2.6,0.7H729l-2.3,0.5l-1.6-1.5H723l-3.4-0.1l-1.9-2.1l-1.7,0.5
			H712.9z"/>
	</g>
</g>
<g id="Esmeralda">
	<g>
		<path fill="#EEEEEE" d="M366.6,19l-2.1,1.5V22v2l-1.3,0.9l-1.4,1.4l-2,1.9l-1.5,2.7l-0.6,1.6H357h-1l-2.9,3H352l-1.7,3.2l-1.8,1.3
			l-1.9,3l-2.9,3.4l-3.1,2.2l-3.4,0.6l-4,1.3H331h-4l-3.9,1.6l-2.6-1.6l-2.1,0.1l-1.3,1.9H315l-2.2,2l-3,0.8l-2.3,2.2H305h-4h-3
			l-1.6,2H294l-1.8,1H290l-1.5,1.4l-3.9,4.5l-5.1,3.1H278h-3l-1.4,1.5l-1.8,1.5H269l-4.8,1H263l-3.3,3.8l-0.9,2.5l0.8,2.3l-0.8,2.5
			l1.1,3.1l2.5,0.8h1.6l1.2,0.9l0.9,1.6l1.2,1.5l0.6,2l-1.4,1.1l-0.1,2.9l-0.8,3H264v1.9l-1.2,1.2l3,3.4l1.9,2.2l1.3,3.3l-0.9,1.7
			l1.2,2.4l-1,2.4l-0.6,2.3l1,1.6l2.4,2.1l0.2-2.5l3.1-2.1l1.7-1.6l0.3-3.3h4.6l4.7-0.2l2.3-3.4l2.5-1.4l2.3,2l0.5,2.9l-1.1,1.2
			l0.5,1.3l1.9,1.2l1.6,0.3l1.1,1.8l-1.7,2l-2,3.7l1.1,2.7l3-1.2l0.4,2.4l2.4-1.1l0.9,2.3l1.8,1.5h1.8l-0.5,1.3l-1.6,2.2l-1.5,1.8
			l-0.6,2.5l0.7,2l0.9,1.7l-1.1,1.7l1.8,2.9l1.9,2l3.7,5.5l0.9-3.6l2.4-0.6l0.5,0.2h0.6l2.8-0.2l2.3-0.3l1.9,0.5h0.8h1.8l1.4,0.4
			h0.9l-0.1-1.3l0.2-1.6l3-2.6l0.1-1.3l0.4-1.4l0.6-1.6l-0.4-1.8l-0.1-0.7l-0.3-1l-0.1-2.4v-5l-0.1-4.6l-1.2-2.4l-2.4-1.1l-0.4-2.5
			l3.5-0.6l3.6-4l0.1-3l8.9,0.6l5.4,0.6l4.4,1.2l3.6-0.6l5.4-3.6l4.2-0.6l1.7-1l2.5,0.3l2.8-1.1l1.8-2.1l8.6,0.5l2,1.7h1.3l1.2-0.1
			l2.4-1l1.9-2.1V107v-2l2-1.1l3-1V101l1.5-1.2l4.3-2.1l2.7,0.5l2.1-2.4l1.4-2.4V91l-3.1-1.2l-1.1-3l-2.1-2.8l-1.2-1.3l-1.7-2.5
			l-0.8-1.7l-0.3-1.4l2.3,0.3l2.7-0.3l1.8-1.3l0.1-4.5l-0.3-3.4l-2.2-0.4l-1.8-0.6l-1.5-2.4l-1.8-1.5v-2l0.5-0.6l0.6-2.1l-1.1-2.7
			V53l2.2-1.4L399,50l-0.3-1.3l-0.2-3.9V41l-1.4-1.5l-1.3-2.4l-3-0.9l-4.7-0.2l-0.6-1.7l-1.6-2l-2.3-3.6l-2.7-1.7l-5.2-4l-4.4-2.2
			L366.6,19z"/>
		<path fill-opacity="0" stroke="#000000" stroke-miterlimit="10" d="M366.6,19l-2.1,1.5V22v2l-1.3,0.9l-1.4,1.4l-2,1.9l-1.5,2.7
			l-0.6,1.6H357h-1l-2.9,3H352l-1.7,3.2l-1.8,1.3l-1.9,3l-2.9,3.4l-3.1,2.2l-3.4,0.6l-4,1.3H331h-4l-3.9,1.6l-2.6-1.6l-2.1,0.1
			l-1.3,1.9H315l-2.2,2l-3,0.8l-2.3,2.2H305h-4h-3l-1.6,2H294l-1.8,1H290l-1.5,1.4l-3.9,4.5l-5.1,3.1H278h-3l-1.4,1.5l-1.8,1.5H269
			l-4.8,1H263l-3.3,3.8l-0.9,2.5l0.8,2.3l-0.8,2.5l1.1,3.1l2.5,0.8h1.6l1.2,0.9l0.9,1.6l1.2,1.5l0.6,2l-1.4,1.1l-0.1,2.9l-0.8,3H264
			v1.9l-1.2,1.2l3,3.4l1.9,2.2l1.3,3.3l-0.9,1.7l1.2,2.4l-1,2.4l-0.6,2.3l1,1.6l2.4,2.1l0.2-2.5l3.1-2.1l1.7-1.6l0.3-3.3h4.6
			l4.7-0.2l2.3-3.4l2.5-1.4l2.3,2l0.5,2.9l-1.1,1.2l0.5,1.3l1.9,1.2l1.6,0.3l1.1,1.8l-1.7,2l-2,3.7l1.1,2.7l3-1.2l0.4,2.4l2.4-1.1
			l0.9,2.3l1.8,1.5h1.8l-0.5,1.3l-1.6,2.2l-1.5,1.8l-0.6,2.5l0.7,2l0.9,1.7l-1.1,1.7l1.8,2.9l1.9,2l3.7,5.5l0.9-3.6l2.4-0.6l0.5,0.2
			h0.6l2.8-0.2l2.3-0.3l1.9,0.5h0.8h1.8l1.4,0.4h0.9l-0.1-1.3l0.2-1.6l3-2.6l0.1-1.3l0.4-1.4l0.6-1.6l-0.4-1.8l-0.1-0.7l-0.3-1
			l-0.1-2.4v-5l-0.1-4.6l-1.2-2.4l-2.4-1.1l-0.4-2.5l3.5-0.6l3.6-4l0.1-3l8.9,0.6l5.4,0.6l4.4,1.2l3.6-0.6l5.4-3.6l4.2-0.6l1.7-1
			l2.5,0.3l2.8-1.1l1.8-2.1l8.6,0.5l2,1.7h1.3l1.2-0.1l2.4-1l1.9-2.1V107v-2l2-1.1l3-1V101l1.5-1.2l4.3-2.1l2.7,0.5l2.1-2.4l1.4-2.4
			V91l-3.1-1.2l-1.1-3l-2.1-2.8l-1.2-1.3l-1.7-2.5l-0.8-1.7l-0.3-1.4l2.3,0.3l2.7-0.3l1.8-1.3l0.1-4.5l-0.3-3.4l-2.2-0.4l-1.8-0.6
			l-1.5-2.4l-1.8-1.5v-2l0.5-0.6l0.6-2.1l-1.1-2.7V53l2.2-1.4L399,50l-0.3-1.3l-0.2-3.9V41l-1.4-1.5l-1.3-2.4l-3-0.9l-4.7-0.2
			l-0.6-1.7l-1.6-2l-2.3-3.6l-2.7-1.7l-5.2-4l-4.4-2.2L366.6,19z"/>
	</g>
</g>
<g id="Manabi">
	<g>
		<path fill="#EEEEEE" d="M265,114.3c-0.6-0.5-1.5-0.1-1.5,0.7v3v4v3l1,4.8l-1,3.4l-2,5.7l-0.8,1.8l-2.5,1.5l-2.9,6l-2.9,3.2l-5,4.5
			l-4,2.9l-2.9,3.2l-1.8-1.8l-1.2,1.2v1.6l-1.4,0.9l-1.6,1.6l-1,1.2v2.2l-0.8,1.5l-1.5,2.1l-2.3,2.3l-2.8,2.1l-1.5,0.6H223l0.8,1.7
			l0.1,2.1l0.1,1.2l1.8,1.7l2,3.2l0.2,2l-0.1,2.2l0.1,1.3l0.5,1.5l1.1,0.7l0.9,1.7l-0.8,0.8l-2.1,0.8l-1.4,1.7l-1.1,2.7l-0.8,3.2
			l-2.2,4.3l-1.5,3.2v3.4l-0.6,2.3l-0.6,2l-0.8,1.5l-1.2,2l-1.6,2.1l-1.7,0.5l-3.1,0.3l-1.5-0.6l-1.7,0.2l-1.3,0.8l-1.9-0.6
			l-1.4-0.8l-1.4,0.1l-1.8,1.4l-0.6,0.5l-1.2,1H197l-1.9-0.7l-1.2,0.3l-0.9,1.2l-1,1.6l-1.9,2.5l-0.8,1.4l-1.4,0.5l-0.5,2.3l0.5,1.2
			l0.3,1.5l0.5,1.5l0.8,1.5l0.2,1.7l1.7,2.5l1.6,2.6l3.5,5l3.2,2.5l2.6,2.9l-0.3,1.6l0.1,1.4l-1.5,1.5l-0.7,1.4l0.8,2.1l-0.5,1.1
			l-0.8,1l0.3,1.2l-0.5,1.1l-0.3,0.9l-0.7,0.7l-1.3,0.4l-0.8,0.8l-0.2,0.8l-0.1,1.2l-0.1,1.7l-0.1,1.3H193l-0.2,1.2l-0.4,2.1
			l0.4,1.9l1.5,1.4l0.8,2.4l0.6,1.5l1,0.2l1.2-0.8h3l1.3,0.4l2.8-0.3l2.7-0.1l2.7-0.3l1-1.2l1.4,0.2l0.2,1.4h2l1.6-0.2l-0.1,3.2
			l-0.3,2.8l0.6,2.4l0.1,3.8l1,2.6l1,1.7l1.5,1.9l0.3,1.9l0.1,1.1l3.5,0.4l3.5,1.3l1.1,1.5l-0.4-4.1v-5l2-1.4l-0.1-2.3l-0.6-0.7
			l1.6-1.4l4-5.2l2-0.8l1-1.9l0.9-0.6l1.8,0.7l1.2-0.9h2.7h2.2h0.8l0.2-1.6l-0.8-1l-0.1-1.5l-0.1-1.4l-2.4-1.3l-1.7-1.3l-1-1.6
			l0.8-1.2l3.4,0.1l1.4,0.4l2.8-1.5l1-2.3l-2.3-1.5l0.1-1.9l0.8-5.8l3.9-0.9l0.1-7.3l4.6-0.5l5.7-4.6V253l3-1.5V249v-3l3.2-0.7
			l1.1,0.4l1.9-0.4l1.9-2.3l3.9-2.6l2.5-3.2l2.6-6.1l4.2-5.6l2.1-2.1l2.6,0.3V221l-0.5-2.7l2.3-1.3l0.4-5.7l1.2-4.6l2.6-5.2l0.7-5.3
			l0.9-3.7l2.3,0.1l4.1-3.7l5.8-0.8l1.5-2.7l4.8-6.6V172l-0.9-8.4l-2.3-2.5l-3.6-0.8l-3.9-1.5l-2.7-4l-3.3-3.5l-1.1-1.8l-0.8-2.5
			l0.9-1.2l-0.3-6.7l1.6-2.3l0.7-1.6l-3.7-3.8l-2.3,1.1l-0.3-2.3l-3,0.8l-1.5-4.2l1.9-1.2l0.6-2.1l0.9-0.8l-0.9-1.5l-1.7-0.4l-2.8-3
			l1.6-1.8l-0.5-2.5l-2.1-1.3l-2.3,1l-0.7,1.1l-0.2,0.8l-1.2,1.4l-2,0.5l-2.5-0.1l-2,0.1l-2.1,0.2l-0.3,1.5l-0.6,1.6l-2.2,1.8
			l-2,1.5l0.2,2.7l-0.3,0.9l-2.2-1.5l-2.4-2.9l1.7-5.4L265,114.3z"/>
		<path fill-opacity="0" stroke="#000000" stroke-miterlimit="10" d="M265,114.3c-0.6-0.5-1.5-0.1-1.5,0.7v3v4v3l1,4.8l-1,3.4
			l-2,5.7l-0.8,1.8l-2.5,1.5l-2.9,6l-2.9,3.2l-5,4.5l-4,2.9l-2.9,3.2l-1.8-1.8l-1.2,1.2v1.6l-1.4,0.9l-1.6,1.6l-1,1.2v2.2l-0.8,1.5
			l-1.5,2.1l-2.3,2.3l-2.8,2.1l-1.5,0.6H223l0.8,1.7l0.1,2.1l0.1,1.2l1.8,1.7l2,3.2l0.2,2l-0.1,2.2l0.1,1.3l0.5,1.5l1.1,0.7l0.9,1.7
			l-0.8,0.8l-2.1,0.8l-1.4,1.7l-1.1,2.7l-0.8,3.2l-2.2,4.3l-1.5,3.2v3.4l-0.6,2.3l-0.6,2l-0.8,1.5l-1.2,2l-1.6,2.1l-1.7,0.5
			l-3.1,0.3l-1.5-0.6l-1.7,0.2l-1.3,0.8l-1.9-0.6l-1.4-0.8l-1.4,0.1l-1.8,1.4l-0.6,0.5l-1.2,1H197l-1.9-0.7l-1.2,0.3l-0.9,1.2
			l-1,1.6l-1.9,2.5l-0.8,1.4l-1.4,0.5l-0.5,2.3l0.5,1.2l0.3,1.5l0.5,1.5l0.8,1.5l0.2,1.7l1.7,2.5l1.6,2.6l3.5,5l3.2,2.5l2.6,2.9
			l-0.3,1.6l0.1,1.4l-1.5,1.5l-0.7,1.4l0.8,2.1l-0.5,1.1l-0.8,1l0.3,1.2l-0.5,1.1l-0.3,0.9l-0.7,0.7l-1.3,0.4l-0.8,0.8l-0.2,0.8
			l-0.1,1.2l-0.1,1.7l-0.1,1.3H193l-0.2,1.2l-0.4,2.1l0.4,1.9l1.5,1.4l0.8,2.4l0.6,1.5l1,0.2l1.2-0.8h3l1.3,0.4l2.8-0.3l2.7-0.1
			l2.7-0.3l1-1.2l1.4,0.2l0.2,1.4h2l1.6-0.2l-0.1,3.2l-0.3,2.8l0.6,2.4l0.1,3.8l1,2.6l1,1.7l1.5,1.9l0.3,1.9l0.1,1.1l3.5,0.4
			l3.5,1.3l1.1,1.5l-0.4-4.1v-5l2-1.4l-0.1-2.3l-0.6-0.7l1.6-1.4l4-5.2l2-0.8l1-1.9l0.9-0.6l1.8,0.7l1.2-0.9h2.7h2.2h0.8l0.2-1.6
			l-0.8-1l-0.1-1.5l-0.1-1.4l-2.4-1.3l-1.7-1.3l-1-1.6l0.8-1.2l3.4,0.1l1.4,0.4l2.8-1.5l1-2.3l-2.3-1.5l0.1-1.9l0.8-5.8l3.9-0.9
			l0.1-7.3l4.6-0.5l5.7-4.6V253l3-1.5V249v-3l3.2-0.7l1.1,0.4l1.9-0.4l1.9-2.3l3.9-2.6l2.5-3.2l2.6-6.1l4.2-5.6l2.1-2.1l2.6,0.3V221
			l-0.5-2.7l2.3-1.3l0.4-5.7l1.2-4.6l2.6-5.2l0.7-5.3l0.9-3.7l2.3,0.1l4.1-3.7l5.8-0.8l1.5-2.7l4.8-6.6V172l-0.9-8.4l-2.3-2.5
			l-3.6-0.8l-3.9-1.5l-2.7-4l-3.3-3.5l-1.1-1.8l-0.8-2.5l0.9-1.2l-0.3-6.7l1.6-2.3l0.7-1.6l-3.7-3.8l-2.3,1.1l-0.3-2.3l-3,0.8
			l-1.5-4.2l1.9-1.2l0.6-2.1l0.9-0.8l-0.9-1.5l-1.7-0.4l-2.8-3l1.6-1.8l-0.5-2.5l-2.1-1.3l-2.3,1l-0.7,1.1l-0.2,0.8l-1.2,1.4l-2,0.5
			l-2.5-0.1l-2,0.1l-2.1,0.2l-0.3,1.5l-0.6,1.6l-2.2,1.8l-2,1.5l0.2,2.7l-0.3,0.9l-2.2-1.5l-2.4-2.9l1.7-5.4L265,114.3z"/>
	</g>
</g>
<g id="Pichincha">
	<g>
		<path fill="#DDDDDD" d="M319.5,178.2v-7.3l-0.9-7.3l-1.8-2.8l-7.6-2.2l0.7-3.2c0.1-0.4,0.4-0.7,0.9-0.8l7.6-0.9l3.7,0.8l3.4,0.4
			l0.4-2.9l3.1-5.8l-0.3-15.7l7.6,7.5l9.3,2.2l7,5.5l4.7,1.1l6,0.1l2.2,4.2l5.2-0.1l3.2-1l2.9,1.3h2.2l6-0.7l5.2,1.6l6.8,0.6
			l2.7,1.3l1.7,0.7l0.9,0.5l0.4,0.6l0.2,0.3l0.5,0.3l0.2,0.6l0.8,1.4l2.4,2l1.7-0.5l1.5,1.3l0.1,0.7l0.2,0.2l1.2,0.3h2.4l0.9,3.2
			l2.6,1.7l3.3,0.2l3.5-0.2l3.9-2l2.8-1.1l2.2-1.1l6.5,0.4l3.9,1.1v3.4l1.5,1.6l3.3,2.6l3.9,0.9l2,4.2l-2.4,1.8l-5.9,2.5l0.4,5.7
			H443l0.5,2H442h-3l-2.9,1l-0.2,2.6l-2.4,1.4H430l-2.4-1.2l-1.3,1.2l-2.8,1.9V207l-2.9,3.1l-1.8,4.1l2,3.3l-2.4,4.4l-1.5,1.7
			l-0.2,5.4l-3.9,1.1l-0.6,3.5l-0.4,2.1l-1.5,1.3l-2.9,0.5l-1.7,1.3l-1.2,0.9H403l-0.9-1.7l-1.5-1.4l-1.7-0.4l-1.8-1.6l-0.1-2
			l-0.8-0.9H393l-2.5-0.2l-0.7,0.5l-1.6-0.4l-1.7-0.9l-3.4,4.2l-1.6,1.7H378l-1.1-2.4l-0.6-2.5l0.8-1.8l-0.3-2l-2.8-1.6l-3.5-0.4
			l-2-1.3l-0.8-2.5l-0.5-3.1l-2.3-2.4l-2-2.1l-2.9-1.8l-1.8-1.9l3-2.2l5.3,0.3l2.9-0.7l6.3-5.3l-1.4-3.3l-2.5-2.4l-4.1-1.7l-0.1-4.4
			l-2.9-1.7l-2.3-1.2l-2.4,0.4l-0.9,1l-2.1-1h-3l-4.3-0.5l-2.4-1.7l-4.4,0.2H340l4.1-5.3l-1.2-0.8l-4.5-0.6l-2.8-0.2l-5.7-2H327
			L319.5,178.2z"/>
		<path fill-opacity="0" stroke="#000000" stroke-miterlimit="10" d="M319.5,178.2v-7.3l-0.9-7.3l-1.8-2.8l-7.6-2.2l0.7-3.2
			c0.1-0.4,0.4-0.7,0.9-0.8l7.6-0.9l3.7,0.8l3.4,0.4l0.4-2.9l3.1-5.8l-0.3-15.7l7.6,7.5l9.3,2.2l7,5.5l4.7,1.1l6,0.1l2.2,4.2
			l5.2-0.1l3.2-1l2.9,1.3h2.2l6-0.7l5.2,1.6l6.8,0.6l2.7,1.3l1.7,0.7l0.9,0.5l0.4,0.6l0.2,0.3l0.5,0.3l0.2,0.6l0.8,1.4l2.4,2
			l1.7-0.5l1.5,1.3l0.1,0.7l0.2,0.2l1.2,0.3h2.4l0.9,3.2l2.6,1.7l3.3,0.2l3.5-0.2l3.9-2l2.8-1.1l2.2-1.1l6.5,0.4l3.9,1.1v3.4
			l1.5,1.6l3.3,2.6l3.9,0.9l2,4.2l-2.4,1.8l-5.9,2.5l0.4,5.7H443l0.5,2H442h-3l-2.9,1l-0.2,2.6l-2.4,1.4H430l-2.4-1.2l-1.3,1.2
			l-2.8,1.9V207l-2.9,3.1l-1.8,4.1l2,3.3l-2.4,4.4l-1.5,1.7l-0.2,5.4l-3.9,1.1l-0.6,3.5l-0.4,2.1l-1.5,1.3l-2.9,0.5l-1.7,1.3
			l-1.2,0.9H403l-0.9-1.7l-1.5-1.4l-1.7-0.4l-1.8-1.6l-0.1-2l-0.8-0.9H393l-2.5-0.2l-0.7,0.5l-1.6-0.4l-1.7-0.9l-3.4,4.2l-1.6,1.7
			H378l-1.1-2.4l-0.6-2.5l0.8-1.8l-0.3-2l-2.8-1.6l-3.5-0.4l-2-1.3l-0.8-2.5l-0.5-3.1l-2.3-2.4l-2-2.1l-2.9-1.8l-1.8-1.9l3-2.2
			l5.3,0.3l2.9-0.7l6.3-5.3l-1.4-3.3l-2.5-2.4l-4.1-1.7l-0.1-4.4l-2.9-1.7l-2.3-1.2l-2.4,0.4l-0.9,1l-2.1-1h-3l-4.3-0.5l-2.4-1.7
			l-4.4,0.2H340l4.1-5.3l-1.2-0.8l-4.5-0.6l-2.8-0.2l-5.7-2H327L319.5,178.2z"/>
	</g>
</g>
<g id="Imbabura">
	<g>
		<path fill="#A6A6A6" d="M350.7,117.3l3.5-0.6l4.6-2.9l4.7-0.4l1.6-0.8l2.3,0.4l3.1-1.2l1.7-2.1l8.3,0.5l1.9,1.5l3,0.2l2.3-1.1
			l1.8-2.5V105l5-1.9V101l5.8-2.9l2.5,0.5l3.7-5.1V91l-2.9-1.7l-1-3.2l-6-8.6h5.4l1.5-1.8l-0.7-8.2h2.2l2.5,1.7l4,1.8l1.8,3l2.6,3
			l1.5,3.2l3,2.1l1.2,2.4l0.8,2.8h4.6l1.8,0.6l2.9,2.4h3.3l6.1,1l1.5,1.9l2.4,1.8l1.2,0.6l2.6,0.4l2.2,2l-1.4,1.6l-3.8,1.2l-0.6,1.8
			l1.2,1.8l2.4,1.9l2.2,0.6l-1,1.8l-3.4,0.8l-2.4,1.6l-2.8,3.8l-0.3,2.2l-0.8,1.9l-0.4,2.8l-1.8,1.5H436h-2l-1.3,2.7l-1,1.6
			l-0.8,1.2l-1.8,2.7l-2.1,1.2l-2.2,2.6l-0.3,1.8v2.7l-0.7,2.6l-0.4,3.2l-1,2.1l-1.4,1.6h-3l-1.2,2.1l-1.5,1.2l-0.8,1.7v3.5
			l-2.2,3.5H411l-3.3-1l-2.4-2l-2.5-4l-5-2.3l-7.1-0.6l-6.2-1.4L377,151l-1.2-1l-2-0.7l-3,1.2H366l-2.2-4H360l-3.1-0.5l-3.2-0.6
			l-4.1-2.1l-3.4-3.4l-1.7-0.6l-6.1-1.5l-3.2-0.8l-4.1-5l-2.1-1.5l-0.8-1.2l-1.2-2.5l-2.5-1.5V123l3.2-0.4l4.2-3.9l-0.1-3l17.8,2.2
			L350.7,117.3z"/>
		<path fill-opacity="0" stroke="#000000" stroke-miterlimit="10" d="M350.7,117.3l3.5-0.6l4.6-2.9l4.7-0.4l1.6-0.8l2.3,0.4l3.1-1.2
			l1.7-2.1l8.3,0.5l1.9,1.5l3,0.2l2.3-1.1l1.8-2.5V105l5-1.9V101l5.8-2.9l2.5,0.5l3.7-5.1V91l-2.9-1.7l-1-3.2l-6-8.6h5.4l1.5-1.8
			l-0.7-8.2h2.2l2.5,1.7l4,1.8l1.8,3l2.6,3l1.5,3.2l3,2.1l1.2,2.4l0.8,2.8h4.6l1.8,0.6l2.9,2.4h3.3l6.1,1l1.5,1.9l2.4,1.8l1.2,0.6
			l2.6,0.4l2.2,2l-1.4,1.6l-3.8,1.2l-0.6,1.8l1.2,1.8l2.4,1.9l2.2,0.6l-1,1.8l-3.4,0.8l-2.4,1.6l-2.8,3.8l-0.3,2.2l-0.8,1.9
			l-0.4,2.8l-1.8,1.5H436h-2l-1.3,2.7l-1,1.6l-0.8,1.2l-1.8,2.7l-2.1,1.2l-2.2,2.6l-0.3,1.8v2.7l-0.7,2.6l-0.4,3.2l-1,2.1l-1.4,1.6
			h-3l-1.2,2.1l-1.5,1.2l-0.8,1.7v3.5l-2.2,3.5H411l-3.3-1l-2.4-2l-2.5-4l-5-2.3l-7.1-0.6l-6.2-1.4L377,151l-1.2-1l-2-0.7l-3,1.2
			H366l-2.2-4H360l-3.1-0.5l-3.2-0.6l-4.1-2.1l-3.4-3.4l-1.7-0.6l-6.1-1.5l-3.2-0.8l-4.1-5l-2.1-1.5l-0.8-1.2l-1.2-2.5l-2.5-1.5V123
			l3.2-0.4l4.2-3.9l-0.1-3l17.8,2.2L350.7,117.3z"/>
	</g>
</g>
<g id="Tsachilas">
	<g>
		<path fill="#B8B8B8" d="M293.5,224v-4v-1l2.2-1.7l0.6-6l1.1-4.3l2.5-5.5l1.5-8.6l2.1,0.4l4.2-4l5.7-0.7l6.5-9.7l9.8-0.6l5.1,1.6
			l7.8,1l1.2,0.8l-4.8,5l8,0.2l2,1.4l7.8,0.7l2.1,1l1.4-1.2l2-0.3l5.2,2.2v5.3l3.8,1.6l2.3,1.9l1.7,3.5l-6.2,4.5l-2.8,1.2l-5.5-0.9
			l-3.6,2.6l2.3,2.6l3.1,1.8l4.1,4.4l0.5,3.2l0.8,2.3l2.1,1.4l3.9,0.6l2.2,1.2l0.2,1.9l-0.7,1.9l0.7,2.4l1.4,3l1.7,1.6v1.3l-1.2,1.6
			l-1.8,1.7v3.7l-0.9,1.9l-1.4,0.8l-1.8,1.2l-0.9,1.6l-0.7,2.4l-2,2.3l-0.9,1.1l-0.1,2.5l-0.3,1.4v2.8l-1.5,0.7l-2.8,2.3l-1.2,1.7
			l-0.5,1.5v2.2v2.6l-1,1.5H358l-0.4-1l-0.8-2l-1.8-2.9l-3.7-0.4l-2.4-1l-3.9-5.1l-5.2-5l-3.3-3.9l-3.2-0.9l-3.7-3.5l-3.8-1.9
			l-6.3-1.8l-7.1-2.8l-5-7.1l-4.2-3l-4.3-2.4L295,230L293.5,224z"/>
		<path fill-opacity="0" stroke="#000000" stroke-miterlimit="10" d="M293.5,224v-4v-1l2.2-1.7l0.6-6l1.1-4.3l2.5-5.5l1.5-8.6
			l2.1,0.4l4.2-4l5.7-0.7l6.5-9.7l9.8-0.6l5.1,1.6l7.8,1l1.2,0.8l-4.8,5l8,0.2l2,1.4l7.8,0.7l2.1,1l1.4-1.2l2-0.3l5.2,2.2v5.3
			l3.8,1.6l2.3,1.9l1.7,3.5l-6.2,4.5l-2.8,1.2l-5.5-0.9l-3.6,2.6l2.3,2.6l3.1,1.8l4.1,4.4l0.5,3.2l0.8,2.3l2.1,1.4l3.9,0.6l2.2,1.2
			l0.2,1.9l-0.7,1.9l0.7,2.4l1.4,3l1.7,1.6v1.3l-1.2,1.6l-1.8,1.7v3.7l-0.9,1.9l-1.4,0.8l-1.8,1.2l-0.9,1.6l-0.7,2.4l-2,2.3
			l-0.9,1.1l-0.1,2.5l-0.3,1.4v2.8l-1.5,0.7l-2.8,2.3l-1.2,1.7l-0.5,1.5v2.2v2.6l-1,1.5H358l-0.4-1l-0.8-2l-1.8-2.9l-3.7-0.4l-2.4-1
			l-3.9-5.1l-5.2-5l-3.3-3.9l-3.2-0.9l-3.7-3.5l-3.8-1.9l-6.3-1.8l-7.1-2.8l-5-7.1l-4.2-3l-4.3-2.4L295,230L293.5,224z"/>
	</g>
</g>
<g id="Guayas">
	<g>
		<path fill="#EEEEEE" d="M247.1,292.6l0.8-2l-0.4-1.1V287l-3.7-2.9l-1.2-1.4l0.7-0.7l2.8,0.3l1.4,0.5l3.3-1.6l1.3-3l-2.5-1.6
			l0.9-7.2l3.9-0.9l0.3-7.2l4-0.5l5.8-4.9V253l3-1.4V246l3.2-0.4l0.9,0.6l2.5-0.6l1.9-2.3l3.8-2.4l2.6-3.3l2.7-6.1l4.1-5.6l1.9-1.9
			l1.8,0.4l1.6,5.8l8.3,5.3l4.3,3.1l5.4,6.5v1.9l0.6,2.7l0.2,1.5l1.2,2.5v0.3l1,2v1l1,3.3v1.7v3l-0.4,1.4l-0.3,2.8l-0.4,2.8
			l-0.1,2.5l-0.4,1l-0.4,2l-0.7,1.3l-0.5,2l0.2,2.7l-0.7,1.1l-1.5,1.5l-0.3,1.8l-1.1,1.6l-1.6,1.7l-1.5,1.2l-2.2,2.2l-0.7,2.7
			l-1.1,1.4l-1.7,1.8l-1.9,1.4l-1.8,1.5l-0.6,1.2l-0.3,1.4l-0.9,0.8l-1.3,0.6l-1.8,1.8l-0.1,2.5l-1.3,1.3l-1.3,1.4l-2.1,1.2
			l-0.4,1.9l-1.1,1.5l-1.6,1.4l-0.4,1.8l-0.6,1.3l-1.3,0.5l-2.2,0.7l-0.6-2.8l1.2-4.2l0.2-1.6l-0.4-2.7l-3-3.6l0.9-4.5l-0.7-3
			l-2.9-3l-2-3.6l-1.5-1l-3.4,0.4l-3,1l-2.3,1.3l-4-1.3l-2.8-1.6H253L247.1,292.6z"/>
		<path fill-opacity="0" stroke="#000000" stroke-miterlimit="10" d="M247.1,292.6l0.8-2l-0.4-1.1V287l-3.7-2.9l-1.2-1.4l0.7-0.7
			l2.8,0.3l1.4,0.5l3.3-1.6l1.3-3l-2.5-1.6l0.9-7.2l3.9-0.9l0.3-7.2l4-0.5l5.8-4.9V253l3-1.4V246l3.2-0.4l0.9,0.6l2.5-0.6l1.9-2.3
			l3.8-2.4l2.6-3.3l2.7-6.1l4.1-5.6l1.9-1.9l1.8,0.4l1.6,5.8l8.3,5.3l4.3,3.1l5.4,6.5v1.9l0.6,2.7l0.2,1.5l1.2,2.5v0.3l1,2v1l1,3.3
			v1.7v3l-0.4,1.4l-0.3,2.8l-0.4,2.8l-0.1,2.5l-0.4,1l-0.4,2l-0.7,1.3l-0.5,2l0.2,2.7l-0.7,1.1l-1.5,1.5l-0.3,1.8l-1.1,1.6l-1.6,1.7
			l-1.5,1.2l-2.2,2.2l-0.7,2.7l-1.1,1.4l-1.7,1.8l-1.9,1.4l-1.8,1.5l-0.6,1.2l-0.3,1.4l-0.9,0.8l-1.3,0.6l-1.8,1.8l-0.1,2.5
			l-1.3,1.3l-1.3,1.4l-2.1,1.2l-0.4,1.9l-1.1,1.5l-1.6,1.4l-0.4,1.8l-0.6,1.3l-1.3,0.5l-2.2,0.7l-0.6-2.8l1.2-4.2l0.2-1.6l-0.4-2.7
			l-3-3.6l0.9-4.5l-0.7-3l-2.9-3l-2-3.6l-1.5-1l-3.4,0.4l-3,1l-2.3,1.3l-4-1.3l-2.8-1.6H253L247.1,292.6z"/>
	</g>
</g>
<g id="LosRios">
	<g>
		<path fill="#DDDDDD" d="M283.7,323.5l1.5-2.7l2.6-3.4l0.4-1.5l2.1-1l2.5-2.9l0.2-2.6l1.7-1.5l1.2-0.6l1.1-0.9l0.4-1.7l0.5-1
			l3.6-2.8l2.9-3.4l0.7-2.7l2.1-2.1l3.2-2.9l1.2-1.7l0.2-1.8l1.6-1.3l0.7-1.4l-0.2-2.9l0.5-1.8l0.7-1.3l0.9-2.9l0.1-2.6l0.7-5.6
			l0.7-1.2l-0.4-5l-1-3.4l0.1-0.9v-0.2l-1-1.9l0.1-0.5L314,251l-0.3-2l-0.4-1.6l-0.1-0.6l-0.3-0.8l1.7,0.9l0.8,0.2l2.4,0.9l1.1,0.6
			l3.1,0.9l2.5,0.8l1,0.2l3.6,1.8l3.9,3.4l3.1,1l3.3,3.8l4.8,4.7l1,1.4l2.3,2.9l0.8,1.1l2.7,1.3l3.6,0.5l1.5,2.4l1.1,3.1l0.1,0.4
			l0.2,0.8v0.9v1l0.3,1.4l-0.2,0.6l-0.1,0.8v1.2l0.1,0.9l-0.3,0.5l0.1,0.8v1l0.1,0.6v1.2v0.6l-0.1,1.1l-0.6,0.8v0.8l-0.2,0.9
			l-0.3,1.1l-0.5,1.3v0.5l-0.4,0.4l-0.4,0.6l-0.5,0.6l-0.2,0.5l-0.6,0.5l-0.2,0.7l-0.3,0.5l-0.7,0.5l-0.7,1.2l-0.7,1.1l-0.3,1.5
			l-0.4,2.2l-0.4,0.9l-1.2,2.2l-1,2l-0.2,2.4l-2.7,2l-0.9,2.2l-0.8,1.7l-1,1.6l-1.1,1.4l-1.5,1.7l-0.7,1.9l-0.7,3.1l-1.7,1.4
			l-1.6,3.3l-1.3,3.4l-1.9,2.7l-2.1,3l-1.6,2.6l-0.8,2.4l-1.9,3.1l-4.6,1.9l-1.2-3.1V346l-1.8-4.2l-5-2.4l-1-4.5l-4.7,0.8l-1.4,3.6
			l-5.3-1.3l-1.1-3.1l-2.3-2.2l-5.4-4.7l-5.3-3.3L283.7,323.5z"/>
		<path fill-opacity="0" stroke="#000000" stroke-miterlimit="10" d="M283.7,323.5l1.5-2.7l2.6-3.4l0.4-1.5l2.1-1l2.5-2.9l0.2-2.6
			l1.7-1.5l1.2-0.6l1.1-0.9l0.4-1.7l0.5-1l3.6-2.8l2.9-3.4l0.7-2.7l2.1-2.1l3.2-2.9l1.2-1.7l0.2-1.8l1.6-1.3l0.7-1.4l-0.2-2.9
			l0.5-1.8l0.7-1.3l0.9-2.9l0.1-2.6l0.7-5.6l0.7-1.2l-0.4-5l-1-3.4l0.1-0.9v-0.2l-1-1.9l0.1-0.5L314,251l-0.3-2l-0.4-1.6l-0.1-0.6
			l-0.3-0.8l1.7,0.9l0.8,0.2l2.4,0.9l1.1,0.6l3.1,0.9l2.5,0.8l1,0.2l3.6,1.8l3.9,3.4l3.1,1l3.3,3.8l4.8,4.7l1,1.4l2.3,2.9l0.8,1.1
			l2.7,1.3l3.6,0.5l1.5,2.4l1.1,3.1l0.1,0.4l0.2,0.8v0.9v1l0.3,1.4l-0.2,0.6l-0.1,0.8v1.2l0.1,0.9l-0.3,0.5l0.1,0.8v1l0.1,0.6v1.2
			v0.6l-0.1,1.1l-0.6,0.8v0.8l-0.2,0.9l-0.3,1.1l-0.5,1.3v0.5l-0.4,0.4l-0.4,0.6l-0.5,0.6l-0.2,0.5l-0.6,0.5l-0.2,0.7l-0.3,0.5
			l-0.7,0.5l-0.7,1.2l-0.7,1.1l-0.3,1.5l-0.4,2.2l-0.4,0.9l-1.2,2.2l-1,2l-0.2,2.4l-2.7,2l-0.9,2.2l-0.8,1.7l-1,1.6l-1.1,1.4
			l-1.5,1.7l-0.7,1.9l-0.7,3.1l-1.7,1.4l-1.6,3.3l-1.3,3.4l-1.9,2.7l-2.1,3l-1.6,2.6l-0.8,2.4l-1.9,3.1l-4.6,1.9l-1.2-3.1V346
			l-1.8-4.2l-5-2.4l-1-4.5l-4.7,0.8l-1.4,3.6l-5.3-1.3l-1.1-3.1l-2.3-2.2l-5.4-4.7l-5.3-3.3L283.7,323.5z"/>
	</g>
</g>
<g id="SantaElena">
	<g>
		<path fill="#B8B8B8" d="M229.5,316.4l-0.5-1.9l0.5-7.5l2-1v-3l-1.1-0.7l5.3-6.8h1.3l1.8-2.4l1.8,0.5l2-0.5l4.2-0.6l6,2.5h2.8
			l2.3,0.7l4.8,2.2l5.5-2l3.3-0.6l1.1,1.1l1.7,3.4l3.5,3l0.5,3l-1,3.3l3.2,3.8v4.1l-1.7,4.8l1,3.5l-1.9,5.6l-1,6.8l-4.2,2.6l-2.4,4
			l-5.2,9l-3.7,2.4l-3.4,4.2l-2.1,8.4l-3.3,4.3l-4,2l-3.6,2.9l-4.1,2H238l-3.9,0.7l-1-3l3.2-4.6l4.1-3.7l-2.4-3.3l-2.8-5.5l-1.3-6.5
			l-1.9-9.2l-5.5-8.1V326l1.6-7.5L229.5,316.4z"/>
		<path fill-opacity="0" stroke="#000000" stroke-miterlimit="10" d="M229.5,316.4l-0.5-1.9l0.5-7.5l2-1v-3l-1.1-0.7l5.3-6.8h1.3
			l1.8-2.4l1.8,0.5l2-0.5l4.2-0.6l6,2.5h2.8l2.3,0.7l4.8,2.2l5.5-2l3.3-0.6l1.1,1.1l1.7,3.4l3.5,3l0.5,3l-1,3.3l3.2,3.8v4.1
			l-1.7,4.8l1,3.5l-1.9,5.6l-1,6.8l-4.2,2.6l-2.4,4l-5.2,9l-3.7,2.4l-3.4,4.2l-2.1,8.4l-3.3,4.3l-4,2l-3.6,2.9l-4.1,2H238l-3.9,0.7
			l-1-3l3.2-4.6l4.1-3.7l-2.4-3.3l-2.8-5.5l-1.3-6.5l-1.9-9.2l-5.5-8.1V326l1.6-7.5L229.5,316.4z"/>
	</g>
</g>
</svg>
