<svg x="0" y="0" width="1380" height="672" version="1.1" xmlns="http://www.w3.org/2000/svg" xmlns:xlink="http://www.w3.org/1999/xlink"><g fill="#acacac" id="NorthAmerica0"><path d="M424.59688,162.39378l-0.99375,1.275l2.025,1.0125l-0.50625,0.76875l-0.525,0.24375l3.5625,2.79375l-5.56875,-2.53125l1.7625,2.53125l-1.7625,-1.275l-1.03125,3.3l-0.99375,-1.03125l1.25625,-2.53125l-1.25625,-1.7625l-1.275,1.5375l-1.25625,-0.76875l-0.2625,4.03125l-1.25625,-1.5l0.75,-2.53125l-2.79375,3.28125l2.53125,1.5l-0.225,0l-2.79375,0.28125l0.75,1.25625l2.04375,-1.03125l1.25625,0.525l-3.01875,1.0125l2.75625,0l-0.76875,0.75l-0.99375,-0.4875l-1.275,0.4875l2.75625,0.24375l1.05,0.525l-4.55625,0.24375l3.28125,1.7625l-2.25,0l0.4875,1.25625l-2.025,-1.5l-1.25625,1.7625l0.2625,0.2625l2.75625,0.75l-2.53125,-0.50625l-0.75,0.50625l2.025,2.025l-1.275,0l1.275,1.03125l-1.275,-0.525l-0.225,2.79375l0.99375,0.75l1.5375,-1.03125l0.99375,3.3l-1.7625,1.03125l-1.03125,3.7875l4.05,1.0125l2.025,-1.5375l0.76875,1.03125l-2.2875,0.99375l2.2875,-0.4875l-3.54375,1.7625l3.28125,0l-0.76875,1.25625l1.5375,0.76875l2.025,-0.2625l-1.25625,-0.73125l1.7625,0l0.76875,-1.8l2.5125,-0.50625l1.275,0.50625l6.31875,1.8l0.24375,1.7625l0.4875,-1.03125l3.5625,3.05625l2.775,0.73125l-1.0125,0.76875l1.0125,-0.24375l0.61875,1.2375l0.13125,1.29375l2.30625,-0.525l-2.04375,-2.53125l2.04375,1.5375l1.25625,-1.275l-0.2625,1.7625l0.99375,-1.25625l0,1.7625l0.525,-0.99375l0,0.75l1.275,-0.4875l-0.76875,0.73125l3.0375,0.76875l-3.3,0.4875l-1.25625,1.5375l3.7875,0l1.7625,-1.5375l0.2625,0.28125l1.5375,2.775l0.99375,-0.75l0.50625,0.99375l-1.275,-0.24375l2.025,1.51875l0.2625,1.51875l1.78125,-0.2625l-3.80625,1.51875l2.025,-0.2625l-1.51875,0.76875l0.99375,1.7625l0.76875,-2.75625l0,0.73125l1.7625,-1.5l-2.26875,4.03125l2.53125,-1.7625l-2.025,2.53125l2.53125,-0.50625l-0.76875,1.51875l1.5375,-0.525l0.2625,-2.25l0.99375,-0.2625l-1.25625,4.81875l1.7625,-1.5375l-0.76875,2.025l1.8,0.50625l0.225,-2.26875l1.275,-0.2625l-1.275,2.79375l0.50625,-0.50625l1.25625,1.7625l0.525,-1.25625l-0.2625,1.5l1.5375,1.275l0,-2.775l-1.5375,-1.03125l3.80625,1.275l-2.025,0.525l1.25625,-0.2625l-0.99375,2.26875l1.7625,-1.51875l-1.275,1.78125l1.0125,-0.50625l0,1.5l1.25625,-0.99375l-0.24375,1.25625l1.275,-0.76875l-1.03125,1.03125l1.5375,-0.76875l0.99375,1.7625l0,-1.51875l0.76875,2.2875l1.7625,-0.4875l0.2625,1.25625l0.76875,-1.03125l0,1.275l0.225,-1.0125l0.525,1.0125l0.75,-0.24375l-0.50625,0.99375l1.25625,-1.25625l-0.4875,1.25625l1.51875,-0.99375l1.7625,1.25625l1.5,-3.7875l0.28125,2.53125l0.2625,-1.8l0.4875,2.04375l0.24375,-1.5l1.03125,0.99375l-0.2625,-1.5375l1.0125,2.30625l-0.2625,-2.04375l1.275,1.78125l-0.2625,-1.5l1.78125,-0.54375l-2.53125,0l1.51875,-1.5l-1.51875,0l0.24375,-1.51875l-1.25625,0.76875l1.0125,-1.0125l-1.25625,0l0.50625,-1.25625l-1.03125,0.4875l0.525,-1.25625l-0.76875,0.50625l0,-1.5375l-2.53125,-0.225l1.275,-0.50625l-2.025,0l0.99375,-1.8l-1.5,-0.73125l1.25625,-0.2625l-1.7625,-0.2625l1.275,-0.50625l-1.03125,0l0.50625,-1.25625l-1.5,0.2625l1.5,-0.76875l-1.5,-0.76875l-1.275,0.50625l0.76875,-1.5l-3.05625,-1.03125l1.25625,-0.73125l-1.25625,-1.275l-0.24375,-0.2625l1.275,-2.025l-2.53125,-2.025l0.99375,-0.50625l0.76875,1.5375l0.99375,-0.2625l-1.25625,-0.76875l1.03125,0.2625l0.225,-2.025l-1.25625,-0.24375l1.03125,-1.03125l-3.5625,-4.29375l-0.24375,-1.7625l-2.53125,-0.75l2.26875,0l0.76875,-1.5375l-0.99375,-0.73125l0.99375,0l-0.2625,-3.80625l-3.2625,-5.8125l-0.2625,-0.50625l-2.26875,2.26875l0.73125,2.53125l0,0.2625l-0.225,0.24375l-0.76875,0.4875l-0.50625,-2.53125l-0.46875,1.1625l0.46875,-2.41875l-1.7625,-0.50625l1.25625,3.01875l0,0.01872l-0.525,1.25625l-1.7625,-2.53125l1.03125,-0.4875l-0.525,-1.7625l-2.26875,2.25l0,-1.25625l-1.51875,0.2625l3.54375,-2.025l3.80625,0.2625l-1.275,-1.25625l1.5,0.4875l0,-0.99375l-2.26875,0l-1.25625,-1.03125l-0.2625,0.50625l-0.73125,-0.75l0,1.0125l-0.76875,-0.76875l-2.53125,0.76875l0.76875,1.25625l-0.76875,-0.4875l-0.50625,0.75l0.24375,-1.51875l-1.25625,0l0.4875,1.51875l-1.5,0.24375l0,-2.26875l-1.03125,2.025l0,-1.25625l-1.25625,0.24375l1.51875,-0.50625l-0.75,-1.5375l-2.04375,0.2625l2.04375,-0.4875l-1.0125,-0.50625l1.275,-1.25625l-0.76875,1.25625l2.025,-0.525l-0.2625,-2.00625l-1.5,-0.525l-1.03125,0.76875l1.5375,0.76875l-1.7625,0l-1.8,-1.0125l1.5375,-1.25625l0.2625,-0.2625l-0.76875,-0.76875l-0.50625,0.76875l-0.525,0.4875l-1.5,-0.75l-0.76875,1.25625l0.2625,-1.5l-1.78125,0.99375l2.025,-1.25625l0.2625,-0.24375l-2.2875,-0.75l-0.24375,0.225l-1.03125,1.03125l-0.4875,-1.5375l-0.50625,1.275l-2.025,0l0.2625,-1.7625l0,-1.275l-2.025,-0.4875l-0.76875,0.99375l-0.24375,0.50625l-0.2625,-0.75l-0.2625,-0.525l-0.73125,0.2625l-0.76875,0.2625l1.25625,1.0125l-1.7625,-0.50625l-2.79375,-2.025l-3.7875,-2.025l0.50625,1.25625l0,0.2625l-1.275,-0.2625l-0.225,-0.225l-1.03125,-2.30625l-0.50625,1.7625l0,0.54375l-0.2625,-0.54375l-0.4875,-2.5125l-3.3,-1.275z" data-paper-data="{&quot;id&quot;:&quot;NorthAmerica0&quot;}"/></g><g fill="#676767" stroke="#000000" id="NorthAmerica1"><path d="M394.67825,309.87155l-82.22513,-7.0778l-2.025,3.5625l0.2625,6.54375l1.25625,4.06875l2.26875,0.2625l0,2.53125l-0.99375,-1.5375l-0.2625,2.26875l3.54375,9.375l-0.525,2.26875l1.8,0.99375l4.29375,2.53125l2.75625,3.80625l3.3,13.40625l0.50625,1.0125l4.81875,6.075l-1.03125,1.7625l1.03125,1.25625l-3.80625,-0.99375l4.575,4.78125l1.5,-0.75l3.01875,3.7875l-0.225,4.81875l6.05625,5.56875l1.0125,2.5125l2.00625,-0.75l-0.99375,-3.3l-3.0375,-1.5l-2.025,-8.60625l-3.7875,-5.30625l-0.2625,-2.53125l-5.0625,-7.0875l-0.24375,-7.3125l5.56875,3.525l1.25625,5.0625l0.76875,3.01875l-0.01872,0.0375l-0.75,0.73125l0.76875,1.0125l0,-1.6875l0.24375,0.9375l3.28125,4.5375l2.025,0.525l-0.2625,2.00625l4.55625,4.55625l-0.99375,2.025l4.55625,2.79375l0,1.7625l7.06875,7.0875l2.5125,5.55l-1.25625,2.26875l1.03125,0.76875l-1.7625,0.50625l0.73125,1.51875l7.35,6.5625l5.8125,1.51875l3.28125,2.53125l4.05,1.275l13.14375,4.05l8.60625,-2.025l8.4,4.8375l1.55625,-5.5875l4.85625,-0.525l-0.1125,-1.3875l-3.50625,-1.9875l1.21875,-0.4125l-0.01872,-2.04375l6.80625,-1.06875l2.90625,-3.4875l1.66875,1.78125l1.25625,-5.2875l-1.25625,-0.2625l3.01875,-6.5625l-5.04375,-0.2625l-7.59375,3.28125l-1.275,6.05625l-3.01875,3.80625l-2.79375,-0.50625l-7.81875,2.79375l-2.79375,-2.2875l-2.53125,0.2625l-7.59375,-11.8875l-0.225,-2.025l-0.2625,-7.0875l0.2625,-2.79375l1.5,-0.73125l-0.50625,1.5l1.25625,-3.525l-0.99375,-4.81875l-1.25625,-0.24375l1.25625,0l0.73125,-3.3l2.79375,-1.25625l-0.99375,-0.99375l2.26875,0.225l-0.76875,0.50625l3.7875,-2.26875l0.2625,-2.53125l1.78125,0.50625l-1.0125,0.76875l3.2625,-1.5375l5.325,0.2625l1.5375,-1.25625l3.525,2.53125l1.25625,-1.275l1.275,0.76875l-0.50625,-1.7625l1.5,0.225l1.5375,2.04375l1.25625,-1.275l-2.53125,-0.99375l1.5375,-1.5375l-1.5375,-0.2625l-2.53125,-0.4875l7.59375,-1.51875l0.2625,-1.78125l0.73125,1.51875l-0.73125,0.76875l3.2625,-2.025l-0.4875,0.99375l3.28125,-0.99375l-0.99375,0.50625l3.01875,-0.24375l0.50625,0.99375l0.76875,1.275l2.53125,-1.7625l0.99375,-0.76875l1.25625,0.2625l0.50625,0.24375l4.05,3.28125l0,3.80625l1.275,-0.50625l-0.50625,2.025l1.275,1.7625l1.25625,-0.4875l1.5,3.7875l2.53125,0.73125l0,1.8l1.8,-0.76875l0,0.76875l0.73125,-7.0875l-5.56875,-11.1375l-2.25,-4.29375l2.25,-4.575l-0.75,-0.99375l1.03125,0.76875l1.5,-2.2875l3.05625,-4.8l6.31875,-6.58125l-2.025,0.2625l1.25625,-1.5375l-1.7625,-0.225l2.75625,-0.2625l1.03125,-1.51875l-0.76875,-1.25625l-0.2625,1.5l-0.225,-1.25625l-2.025,0.75l1.25625,-1.7625l1.25625,0.50625l-1.0125,-2.26875l2.025,3.0375l-2.26875,-3.80625l-3.3,-0.4875l1.78125,0.225l-1.51875,-1.5l1.275,1.0125l0.24375,-1.5375l-0.24375,-0.09375l0,-1.1625l-3.5625,-0.75l0,-1.25625z" data-paper-data="{&quot;id&quot;:&quot;NorthAmerica1&quot;}"/></g><g fill="#cccccc" stroke="#000000" id="NorthAmerica1"><path d="M394.67825,309.87155l-82.22513,-7.0778l-2.025,3.5625l0.2625,6.54375l1.25625,4.06875l2.26875,0.2625l0,2.53125l-0.99375,-1.5375l-0.2625,2.26875l3.54375,9.375l-0.525,2.26875l1.8,0.99375l4.29375,2.53125l2.75625,3.80625l3.3,13.40625l0.50625,1.0125l4.81875,6.075l-1.03125,1.7625l1.03125,1.25625l-3.80625,-0.99375l4.575,4.78125l1.5,-0.75l3.01875,3.7875l-0.225,4.81875l6.05625,5.56875l1.0125,2.5125l2.00625,-0.75l-0.99375,-3.3l-3.0375,-1.5l-2.025,-8.60625l-3.7875,-5.30625l-0.2625,-2.53125l-5.0625,-7.0875l-0.24375,-7.3125l5.56875,3.525l1.25625,5.0625l0.76875,3.01875l-0.01872,0.0375l-0.75,0.73125l0.76875,1.0125l0,-1.6875l0.24375,0.9375l3.28125,4.5375l2.025,0.525l-0.2625,2.00625l4.55625,4.55625l-0.99375,2.025l4.55625,2.79375l0,1.7625l7.06875,7.0875l2.5125,5.55l-1.25625,2.26875l1.03125,0.76875l-1.7625,0.50625l0.73125,1.51875l7.35,6.5625l5.8125,1.51875l3.28125,2.53125l4.05,1.275l13.14375,4.05l8.60625,-2.025l8.4,4.8375l1.55625,-5.5875l4.85625,-0.525l-0.1125,-1.3875l-3.50625,-1.9875l1.21875,-0.4125l-0.01872,-2.04375l6.80625,-1.06875l2.90625,-3.4875l1.66875,1.78125l1.25625,-5.2875l-1.25625,-0.2625l3.01875,-6.5625l-5.04375,-0.2625l-7.59375,3.28125l-1.275,6.05625l-3.01875,3.80625l-2.79375,-0.50625l-7.81875,2.79375l-2.79375,-2.2875l-2.53125,0.2625l-7.59375,-11.8875l-0.225,-2.025l-0.2625,-7.0875l0.2625,-2.79375l1.5,-0.73125l-0.50625,1.5l1.25625,-3.525l-0.99375,-4.81875l-1.25625,-0.24375l1.25625,0l0.73125,-3.3l2.79375,-1.25625l-0.99375,-0.99375l2.26875,0.225l-0.76875,0.50625l3.7875,-2.26875l0.2625,-2.53125l1.78125,0.50625l-1.0125,0.76875l3.2625,-1.5375l5.325,0.2625l1.5375,-1.25625l3.525,2.53125l1.25625,-1.275l1.275,0.76875l-0.50625,-1.7625l1.5,0.225l1.5375,2.04375l1.25625,-1.275l-2.53125,-0.99375l1.5375,-1.5375l-1.5375,-0.2625l-2.53125,-0.4875l7.59375,-1.51875l0.2625,-1.78125l0.73125,1.51875l-0.73125,0.76875l3.2625,-2.025l-0.4875,0.99375l3.28125,-0.99375l-0.99375,0.50625l3.01875,-0.24375l0.50625,0.99375l0.76875,1.275l2.53125,-1.7625l0.99375,-0.76875l1.25625,0.2625l0.50625,0.24375l4.05,3.28125l0,3.80625l1.275,-0.50625l-0.50625,2.025l1.275,1.7625l1.25625,-0.4875l1.5,3.7875l2.53125,0.73125l0,1.8l1.8,-0.76875l0,0.76875l0.73125,-7.0875l-5.56875,-11.1375l-2.25,-4.29375l2.25,-4.575l-0.75,-0.99375l1.03125,0.76875l1.5,-2.2875l3.05625,-4.8l6.31875,-6.58125l-2.025,0.2625l1.25625,-1.5375l-1.7625,-0.225l2.75625,-0.2625l1.03125,-1.51875l-0.76875,-1.25625l-0.2625,1.5l-0.225,-1.25625l-2.025,0.75l1.25625,-1.7625l1.25625,0.50625l-1.0125,-2.26875l2.025,3.0375l-2.26875,-3.80625l-3.3,-0.4875l1.78125,0.225l-1.51875,-1.5l1.275,1.0125l0.24375,-1.5375l-0.24375,-0.09375l0,-1.1625l-3.5625,-0.75l0,-1.25625z" data-paper-data="{&quot;id&quot;:&quot;NorthAmerica1&quot;}"/></g><g fill="#6c6c6c" stroke="#000000" id="NorthAmerica2"><path d="M450.77194,314.7l3.3,1.5l-0.6731,-1.27388z" data-paper-data="{&quot;id&quot;:&quot;NorthAmerica2&quot;}"/></g><g fill="#717171" stroke="#000000" id="NorthAmerica3"><path d="M455.13273,315.07537l-2.07329,-1.89412l0.75,-3.0375l-2.00625,1.7625l1.59565,3.01987z" data-paper-data="{&quot;id&quot;:&quot;NorthAmerica3&quot;}"/></g><g fill="#4c4c4c" stroke="#000000" id="NorthAmerica4"><path d="M455.13273,315.07537l0.96421,0.88088l-0.2625,3.54375l0.92309,-4.28477z" data-paper-data="{&quot;id&quot;:&quot;NorthAmerica4&quot;}"/></g><g fill="#999999" stroke="#000000" id="NorthAmerica5"><path d="M366.04696,277.52643l-41.44383,-1.28268l-1.5375,5.8125l0.2625,-2.75625l-2.025,1.7625l2.025,-2.79375l-4.55625,-2.26875l-0.4875,6.05625l0.99375,0l-1.5,2.53125l1.5,0.50625l-1.25625,-0.24375l-5.30625,12.39375l-0.2625,5.55l82.22513,7.0778l19.16267,-30.86591z" data-paper-data="{&quot;id&quot;:&quot;NorthAmerica5&quot;}"/></g><g fill="#989898" stroke="#000000" id="NorthAmerica6"><path d="M370.75273,214.23215l-0.90576,-0.44465l0.76875,2.2875z" data-paper-data="{&quot;id&quot;:&quot;NorthAmerica6&quot;}"/></g><g fill="#6b6b6b" stroke="#000000" id="NorthAmerica7"><path d="M370.61572,216.075l-1.7625,-2.79375l0.99375,-0.76875l-2.75625,-3.01875l-2.79375,0.99375l-4.8,-1.25625l0.24375,-1.5l2.025,-0.2625l-0.99375,-2.04375l-2.79375,-0.73125l-3.3,-2.79375l-2.025,-1.7625l-3.7875,0.50625l0.75,-2.26875l0.2625,-0.525l-0.4875,0.525l-2.025,2.00625l-0.50625,-3.0375l-0.525,-2.26875l0,1.7625l-1.0125,0l-4.55625,1.0125l2.30625,-1.7625l0.99375,-0.76875l-1.7625,0.525l-4.06875,0.73125l-1.5,-0.225l0.50625,-1.7625l-2.79375,0.73125l-0.225,2.2875l-3.3,-5.55l-1.5375,-3.05625l-0.4875,-0.73125l-6.58125,-6.09375l-0.50625,-1.5l1.03125,-0.525l-1.5375,-1.275l0.2625,-1.5l-1.78125,0.24375l1.51875,-0.73125l0.2625,-1.03125l-2.79375,0.2625l-1.25625,-1.275l-1.7625,0.76875l0.225,-0.525l0.525,-0.24375l-2.2875,-0.75l-1.25625,0.2625l-4.29375,0.73125l-1.7625,-1.7625l-0.00009,0l-2.025,0.50625l-0.76875,4.05l-1.5,1.51875l1.25625,2.26875l-1.51875,1.275l0.75,1.51875l-1.0125,-1.51875l1.0125,-2.025l-1.7625,3.28125l-2.2875,-2.53125l1.25625,-1.7625l-5.2875,-1.7625l0,3.0375l-1.03125,-0.76875l-1.5,2.26875l1.7625,3.54375l0.76875,-0.4875l-0.76875,0.99375l2.53125,0l0.50625,1.25625l-1.7625,0l-1.03125,2.04375l-1.5,0.4875l-0.76875,-1.25625l-2.53125,0.2625l-0.2625,-1.8l-6.825,2.04375l-0.75,1.51875l0.75,0.99375l-0.99375,0l0.24375,0.76875l0.525,1.7625l-1.275,-0.75l-2.025,2.025l2.775,1.7625l-2.53125,3.5625l-2.00625,0.225l3.0375,1.275l0,0.75l-0.50625,2.79375l2.53125,-1.51875l-1.03125,1.7625l2.53125,0.525l-2.53125,0.73125l-2.53125,2.79375l-5.8125,-0.4875l-0.75,0l-1.51875,1.5l-1.275,-2.26875l-2.53125,0.2625l0.2625,1.5l1.78125,-0.76875l-0.50625,1.03125l2.75625,0.50625l0.2625,0.2625l-0.4875,0.99375l10.85625,-1.25625l2.79375,0.75l3.01875,-1.0125l-0.76875,-1.5l1.03125,-1.03125l9.8625,-1.7625l2.025,1.0125l-2.025,0l0.4875,2.26875l-1.25625,-2.025l-2.00625,-0.24375l-3.3,2.26875l1.275,1.0125l-2.53125,1.0125l3.7875,0.76875l0.76875,-1.03125l-0.2625,1.03125l0.99375,-1.25625l1.03125,1.5l1.7625,-0.76875l0,-2.00625l2.53125,-0.525l-1.25625,1.275l1.25625,-0.50625l-0.4875,1.03125l2.025,0l-1.275,0.4875l0.75,0.76875l-1.0125,0l1.0125,0.24375l-0.75,1.03125l1.5,0.99375l-0.225,2.025l4.51875,2.26875l0.525,2.53125l0.75,-0.24375l1.25625,-0.2625l0.525,1.275l-1.25625,0.4875l0.73125,-1.5l-1.5,1.0125l2.26875,7.3125l1.25625,0l-0.225,-3.2625l0.73125,1.7625l0.76875,-1.03125l-1.0125,2.53125l1.275,1.275l2.025,-4.5375l-1.25625,4.29375l0.73125,0.99375l1.25625,-0.75l-1.5,1.51875l1.275,1.275l-1.03125,0l0.76875,1.51875l-0.76875,-1.25625l0.2625,1.5l-1.25625,0.2625l2.25,5.04375l-2.5125,1.78125l1.51875,-0.50625l1.51875,-0.50625l0,1.5l-1.78125,3.5625l2.2875,-1.5375l1.5,-2.025l-2.00625,3.0375l0.75,0.76875l-2.00625,0.4875l-0.525,1.03125l1.51875,1.275l-1.51875,0.4875l0.76875,2.79375l2.2875,-1.78125l-0.76875,1.51875l1.275,0.76875l-1.78125,-1.03125l1.275,4.05l-2.025,1.0125l1.25625,-0.50625l-0.2625,1.275l2.53125,-1.0125l-3.0375,2.53125l0,1.5l1.275,-0.50625l-1.7625,0.76875l1.5,0.50625l-1.7625,0.2625l2.53125,0.76875l-2.26875,0l3.01875,1.25625l-0.99375,0l0.50625,0.73125l2.025,-0.4875l-2.2875,0.75l1.0125,1.275l1.0125,-1.0125l-0.76875,1.0125l1.2375,0.50625l-0.20625,0.2625l2.00625,0l-1.78125,1.5l1.03125,1.25625l1.0125,-0.73125l0.4875,-0.525l0,0.75l0.2625,1.275l-1.25625,0.50625l2.025,-0.24375l-0.76875,2.53125l1.275,1.5l41.44383,1.28268z" data-paper-data="{&quot;id&quot;:&quot;NorthAmerica7&quot;}"/></g><g fill="#333333" stroke="#000000" id="NorthAmerica8"><path d="M366.04696,277.52643l47.79396,1.47921l9.87479,-15.90564l-2.25,-8.3625l-6.3375,1.03125l-13.40625,-6.31875l-4.29375,2.025l0.75,-1.78125l-2.26875,-5.0625l-2.025,0l0,1.25625l-1.5,-2.25l-0.28125,-5.56875l2.53125,-4.81875l-0.75,-0.73125l3.01875,-2.79375l-1.25625,-0.76875l2.025,0l1.03125,-1.5l-2.2875,-1.8l-1.0125,0.76875l0.24375,-0.99375l-3.0375,-0.2625l0,-1.275l5.83125,2.53125l0.75,-2.75625l3.3,-0.525l1.25625,-3.80625l-7.06875,-1.9875l1.7625,-0.54375l4.29375,1.8l1.7625,-3.3l-1.7625,-1.25625l5.04375,0.76875l-3.01875,-2.53125l2.025,-0.2625l1.25625,1.7625l2.04375,-4.55625l-3.05625,-3.0375l1.51875,-0.99375l-1.25625,-0.76875l0.4875,-1.25625l-2.75625,-0.50625l0.73125,-0.76875l-4.29375,0.2625l2.2875,3.54375l-1.25625,0.2625l0,5.2875l-1.25625,1.03125l-2.53125,-6.31875l-1.8,-1.03125l-0.4875,4.05l-2.53125,-4.05l1.51875,-0.50625l-3.5625,-0.50625l0.2625,-1.0125l0,-1.0125l1.275,0.2625l-4.55625,-6.075l-2.26875,4.29375l0.99375,0.2625l-0.225,2.53125l0,0.4875l4.03125,1.5375l-1.275,0.225l-0.225,2.04375l0.99375,-1.0125l0.50625,1.5l-2.53125,2.04375l0.50625,3.28125l-2.00625,-0.99375l0.73125,-3.05625l-0.99375,1.03125l0.2625,-1.03125l-1.275,-0.75l-2.025,0.50625l0.76875,1.7625l1.25625,-0.2625l0,1.8l-2.025,-2.2875l-0.2625,1.51875l-1.7625,0.24375l-3.3,0l-1.7625,-2.00625l-2.26875,0l-1.51875,-3.05625l-4.05,2.025l1.78125,0.76875l2.775,-1.5375l-3.80625,2.79375l1.275,2.53125l-0.24375,1.0125l-0.12549,-0.0616z" data-paper-data="{&quot;id&quot;:&quot;NorthAmerica8&quot;}"/></g><g fill="#e2e2e2" stroke="#000000" id="NorthAmerica9"><path d="M413.84092,279.00564l-19.16267,30.86591l62.07927,5.34368l0.33316,-1.54648l-2.5125,-4.55625l2.5125,2.2875l1.275,-3.7875l-1.275,-2.53125l1.275,-2.79375l5.325,-3.01875l-0.50625,-2.025l0.99375,1.25625l3.0375,-2.025l-0.76875,-1.275l-0.24375,1.5375l-2.775,-1.7625l0.2625,-5.83125l0.99375,-0.4875l-0.50625,-1.275l1.7625,0l-0.225,-3.28125l0.4875,1.51875l1.0125,-1.8l1.03125,0.76875l1.7625,-3.01875l-1.275,-1.275l2.04375,0l3.525,-5.325l-0.50625,2.53125l1.0125,-0.4875l2.5125,-1.275l-0.99375,2.025l-1.51875,-0.75l-2.26875,4.81875l0.99375,2.75625l2.025,0.50625l1.0125,-5.56875l1.78125,-0.225l-0.525,-1.03125l4.3125,-4.29375l0.75,-0.99375l-1.2375,-0.31875l2.00625,-2.98125l0.2625,-0.50625l-0.50625,-0.2625l-1.03125,-0.2625l0,2.79375l-0.76875,0.50625l0.525,-3.0375l-1.25625,-2.53125l-0.76875,4.8l1.425,1.44375l-1.6875,-0.4125l-2.75625,2.26875l-4.33125,-0.76875l-1.5,-2.53125l-1.25625,0.76875l0,-3.3l-1.5375,1.5375l-0.75,-1.0125l-2.26875,0.75l3.28125,-1.7625l1.275,-2.26875l-1.7625,-2.2875l-3.5625,1.25625l-3.3,4.05l-4.29375,9.61875l1.5375,-4.81875l-0.76875,-1.7625l4.05,-6.31875l0.24375,-3.0375l0.2625,-1.25625l13.14375,-6.825l0.2625,0l0.24375,-4.81875l2.79375,-2.53125l0.76875,-3.7875l-1.8,-0.50625l1.25625,-0.76875l-1.9875,0.525l1.25625,-0.76875l-1.25625,-0.2625l-0.2625,-2.25l-2.26875,-0.76875l-0.76875,2.26875l-0.76875,-2.00625l-2.25,0.24375l-1.8,4.29375l1.25625,-4.03125l-1.5,2.025l2.53125,-4.33125l-1.7625,0.2625l0,-0.75l-1.51875,1.25625l-0.76875,-0.99375l-0.24375,0.99375l-0.2625,-0.99375l-0.05622,0.54375l-0.9375,0.7125l0,-1.03125l-0.2625,0.525l-0.76875,1.51875l-0.99375,-3.0375l0,1.25625l-0.50625,-0.99375l-2.2875,0.50625l0.2625,-1.275l-1.275,0.76875l0.50625,-0.76875l-1.25625,0l0.75,-0.75l-2.025,0.2625l1.7625,-0.54375l-0.4875,-1.7625l-2.79375,-0.225l0.75,-1.03125l-1.7625,-0.50625l-0.2625,-0.99375l-0.99375,1.5l0.2625,-2.26875l-1.275,1.5l0.24375,-2.00625l-0.99375,-1.0125l-1.5375,0.75l0.76875,-0.99375l-3.7875,-1.8l0,-0.99375l-1.0125,0l0.24375,2.53125l1.51875,0.99375l-1.0125,1.03125l1.0125,0.24375l-0.75,1.51875l1.25625,1.7625l-1.7625,-1.7625l-0.76875,4.06875l-1.51875,-1.8l-0.24375,2.53125l-0.76875,-3.0375l-3.525,1.5375l0.24375,-1.275l1.03125,0.50625l-0.28125,-2.025l-0.99375,0.50625l-1.03125,-2.26875l-2.025,0.50625l2.025,-1.0125l-1.5,-3.5625l-0.2625,1.275l-3.525,-0.24375l-0.525,-1.51875l-1.275,0.4875l-3.7875,-2.25l-0.73125,1.7625l-5.5875,-0.24375l-0.73125,1.5l1.9875,2.2875l-0.225,3.0375l1.25625,-0.50625l1.5,2.775l-0.73125,5.8125l3.7875,1.5375l3.2625,5.55l0,-0.4875l1.5375,1.25625l-1.5375,0.24375l0,-1.0125l-0.99375,4.8l-3.7875,3.7875l2.26875,1.275l3.54375,6.825l-1.03125,2.2875l1.275,2.025l-1.7625,-1.5375l-0.50625,2.26875l-0.50625,0l-1.51875,0l-0.24375,-1.7625l-5.325,-3.7875z" data-paper-data="{&quot;id&quot;:&quot;NorthAmerica9&quot;}"/></g><g fill="#515151" stroke="#000000" id="Africa0"><path d="M596.42975,457.68037l-38.33287,22.89777l-2.00625,6.01875l0.35704,0.90699l0.6,0.6l0,0.6l0,0.6l-0.6,0l-0.35704,-0.08199l-0.61875,3.20625l-1.40625,0l3.0375,5.4375l6.6375,6.43125c0.41463,3.43882 0.01692,2.11644 1.59375,5.2125l3.61875,7.2375l-1.2,2.00625l1.3875,2.83125l1.40625,3.1875l-0.58125,3.84375l-3.45,3.6l-2.19375,7.4625l0.4125,6.43125l8.23125,13.44375l1.425,10.8375l6.4125,10.275l2.79375,4.6125l0.225,2.19375l-1.21875,0.825l1.425,3.80625l1.0125,-0.6l3,2.00625l6.825,-2.19375l5.83125,0.6l5.83125,-1.6125l8.6625,-6.01875l2.79375,-3.61875l1.21875,-1.425l3.1875,-2.625l2.625,-6.80625l-0.4125,0.58125l-0.80625,-0.99375l8.86875,-5.23125l0.7875,-5.60625l-1.8,-4.81875l0.1875,-2.625l0.61875,0.6l4.40625,-3.01875l1.81875,-3l9.05625,-4.21875l0.39375,-0.80625l2.79375,-4.0125l-0.58125,-5.83125l0.58125,-0.61875l-0.4125,-4.425l1.03125,-2.00625l-1.8,-1.3875l-0.825,-0.61875l0,-0.1875l-0.7875,-5.25l0.6,-1.3875l-0.80625,0l1.2,-2.625l-2.2125,-3l1.40625,-4.21875l2.41875,-5.04375l0.6,-1.2l2.41875,-1.3875l-0.61875,-0.99375l1.63125,0l6.43125,-8.475l6.80625,-5.41875l5.025,-6.43125l6.6375,-15.46875l0,-1.81875l-0.1875,-1.0125l1.3875,-0.375l-0.99375,0l0.1875,-4.21875l-1.40625,-0.6l-3.1875,2.00625l-5.45625,0.6l-2.4,1.40625l-1.81875,-0.61875l-3.20625,1.6125l-4.2,-3.825l-1.81875,0.20625l2.4,-1.3875l-0.39375,-1.425l-6.6375,-6.6375l-2.8125,-0.99377l-0.61875,-1.0125l-0.58125,-0.58125l-0.1875,1.2l-4.2375,-9.05625l-3.6375,-2.41875z" data-paper-data="{&quot;id&quot;:&quot;Africa0&quot;}"/></g><g fill="#b4b4b4" stroke="#000000" id="Africa1"><path d="M564.78676,390.7576l-2.28364,-1.00449l-0.39375,-1.2375l3.225,-2.56875l-1.59375,-2.4375l1.59375,-2.4l-1.59375,0.99375l-1.63125,-1.6125l-4.63125,1.425l-3.6,-0.80625l-2.83125,1.2l-3.39375,-0.80625l-7.25625,1.2l-3,1.6125l-2.19375,0.39375l-3.0375,1.6125l-2.00625,0l-0.20625,-0.99375l-4.2,0.61875l-1.425,-1.8375l-1.2,0.39375l-3.20625,4.63125l-7.05,3.825l-2.19375,3.01875l-0.61875,3.6l-0.20625,0.20625l-1.6125,2.00625l-4.0125,2.8125l-3.58125,0.825l-2.625,3.61875l-2.41875,1.3875l-2.00625,4.21875l-2.79375,2.25c-8.52961,10.76419 -1.54771,7.28405 -4.8375,13.425l0.375,4.8375l-2.4,6.225l-2.8125,2.83125l2.2125,2.56875l-0.20625,1.63125c2.53067,-0.40716 2.85206,-0.37159 0.11329,-0.51802l-0.50704,0.33052l-0.61875,2.60625l-0.07421,0.06323l0.07421,0.51802l0.52579,0.68198c0.35475,0.11621 0.41898,0.35461 0.6,0.6l0.69296,0.72427c0.40281,-0.02532 0.81216,-0.09785 1.2,-0.16875c-0.50178,1.56101 0.95182,2.48438 1.81875,2.19375l0.4125,2.83125l1.2,0.58125l1.2,0.61875l-0.61875,0.99375l1.0125,0.39375l0.20625,2.625c1.57678,-0.32102 0.59855,-0.07159 -0.39375,0.20625l2.2125,2.2125l-0.20625,1.2l3.4125,1.8l6.6375,6.225l3.43125,1.425l4.0125,-2.00625l6.225,-0.80625l5.8125,1.59375l6.0375,-2.79375l4.21875,-1.63125z" data-paper-data="{&quot;id&quot;:&quot;Africa1&quot;}"/></g><g fill="#b1b1b1" stroke="#000000" id="Africa1"><path d="M564.78676,390.7576l-2.28364,-1.00449l-0.39375,-1.2375l3.225,-2.56875l-1.59375,-2.4375l1.59375,-2.4l-1.59375,0.99375l-1.63125,-1.6125l-4.63125,1.425l-3.6,-0.80625l-2.83125,1.2l-3.39375,-0.80625l-7.25625,1.2l-3,1.6125l-2.19375,0.39375l-3.0375,1.6125l-2.00625,0l-0.20625,-0.99375l-4.2,0.61875l-1.425,-1.8375l-1.2,0.39375l-3.20625,4.63125l-7.05,3.825l-2.19375,3.01875l-0.61875,3.6l-0.20625,0.20625l-1.6125,2.00625l-4.0125,2.8125l-3.58125,0.825l-2.625,3.61875l-2.41875,1.3875l-2.00625,4.21875l-2.79375,2.25c-8.52961,10.76419 -1.54771,7.28405 -4.8375,13.425l0.375,4.8375l-2.4,6.225l-2.8125,2.83125l2.2125,2.56875l-0.20625,1.63125c2.53067,-0.40716 2.85206,-0.37159 0.11329,-0.51802l-0.50704,0.33052l-0.61875,2.60625l-0.07421,0.06323l0.07421,0.51802l0.52579,0.68198c0.35475,0.11621 0.41898,0.35461 0.6,0.6l0.69296,0.72427c0.40281,-0.02532 0.81216,-0.09785 1.2,-0.16875c-0.50178,1.56101 0.95182,2.48438 1.81875,2.19375l0.4125,2.83125l1.2,0.58125l1.2,0.61875l-0.61875,0.99375l1.0125,0.39375l0.20625,2.625c1.57678,-0.32102 0.59855,-0.07159 -0.39375,0.20625l2.2125,2.2125l-0.20625,1.2l3.4125,1.8l6.6375,6.225l3.43125,1.425l4.0125,-2.00625l6.225,-0.80625l5.8125,1.59375l6.0375,-2.79375l4.21875,-1.63125z" data-paper-data="{&quot;id&quot;:&quot;Africa1&quot;}"/></g><g fill="#e0e0e0" stroke="#000000" id="Africa2"><path d="M531.77188,470.92187l4.87579,-0.81802l1.34921,0.03054l3.01875,0.20625c0.6623,0.63685 1.62042,1.2787 2.00625,2.00625l0.22579,0.15698l0.16796,0.23677l0.43125,0.6l0.0006,0.36323l-0.0006,0.23677l2.00625,2.83125l2.19375,-0.20625l0.60079,0.13823l-0.18829,-0.13823l0.18829,0.13823l0.6,0l0.6,-0.6l1.2,0l1.83671,-0.15699l0.56329,0.15699l0.22421,0.04926l0.97579,0.55074l1.03046,1.06176l0.16954,0.13824l0.6,0l0.44921,0.25551l1.2,2.41875l38.33287,-22.89777l-7.78912,-60.1085l-0.20625,0l-2.83125,1.44375l-3,-1.63125l-5.625,-1.40625l-1.40625,-2.60625l-4.81875,-1.40625l-2.79375,0.1875l-3.17261,-1.39551z" data-paper-data="{&quot;id&quot;:&quot;Africa2&quot;}"/></g><g fill="#6b6b6b" stroke="#000000" id="Africa3"><path d="M596.42975,457.68037l43.43588,-25.946l-1.575,-6.80625l0.58125,0.375l-1.575,-3l-3.6375,-2.625l-0.99375,-2.8125l0.7875,0l-2.025,-1.6125l-5.4,-9.43125l-3.01875,-3.225l-0.73125,-2.4c-0.00804,-0.01225 -0.01128,-0.04363 -0.01872,-0.05625c-0.04062,-0.06823 -0.07272,-0.14089 -0.09375,-0.225c-0.13789,-0.55155 -0.46875,-1.13055 -0.46875,-1.8375l0,-0.3c0,-0.30252 -0.04728,-0.60691 -0.09375,-0.91875l-1.01253,0.13125l-0.58125,-1.21875l-2.41875,-0.20625l-4.8375,2.00625l-5.60625,-1.59375l-4.8375,-0.20625l-0.80625,-1.2l-4.40625,-0.6l-0.61875,-1.21875l-3.61875,-0.7875l-4.21875,2.00625l0,3.6z" data-paper-data="{&quot;id&quot;:&quot;Africa3&quot;}"/></g><g fill="#a3a3a3" id="Africa4"><path d="M490.80313,416.90312l0.16875,-0.24375l-0.6,0.61875z" data-paper-data="{&quot;id&quot;:&quot;Africa4&quot;}"/></g><g fill="#787878" id="Africa5"><path d="M524.10313,383.86562l0.0375,0.075l0.1125,-0.075c-0.04914,0.0026 -0.10072,-0.00202 -0.15,0z" data-paper-data="{&quot;id&quot;:&quot;Africa5&quot;}"/></g><g fill="#616161" id="Africa6"><path d="M648.13438,440.77187l0.1875,0.825l1.2,0.1875l-1.2,-1.0125z" data-paper-data="{&quot;id&quot;:&quot;Africa6&quot;}"/></g><g fill="#343434" id="Africa7"><path d="M674.85313,527.79062l-1.6125,1.40625l-0.20625,2.83125l-1.59375,1.3875l-0.825,-0.58125l0,2.00625l-0.6,0l-1.18125,2.4l0.1875,-1.2l-1.40625,1.6125l0.39375,0.80625l-0.7875,0.39375l0.20625,-1.2l-1.425,1.0125l0,1.3875l-0.7875,-0.80625l-4.81875,1.425l-2.00625,4.0125l0.39375,7.44375l-3.225,3.80625l-1.18125,3.01875l0.39375,7.8375l2.19375,1.18125l5.625,-1.3875l9.84375,-19.89375l0.6,-3l1.21875,-1.0125l0,-4.0125l0.7875,-0.20625l0.43125,1.59375l0.99375,-1.59375l-0.4125,-7.425l-1.59375,-2.23125z" data-paper-data="{&quot;id&quot;:&quot;Africa7&quot;}"/></g></svg>