<?xml version="1.0" encoding="UTF-8" standalone="no"?>
<!-- Created with Inkscape (http://www.inkscape.org/) -->

<svg
   xmlns:dc="http://purl.org/dc/elements/1.1/"
   xmlns:cc="http://creativecommons.org/ns#"
   xmlns:rdf="http://www.w3.org/1999/02/22-rdf-syntax-ns#"
   xmlns:svg="http://www.w3.org/2000/svg"
   xmlns="http://www.w3.org/2000/svg"
   xmlns:sodipodi="http://sodipodi.sourceforge.net/DTD/sodipodi-0.dtd"
   xmlns:inkscape="http://www.inkscape.org/namespaces/inkscape"
   width="350.00024"
   height="355.03799"
   id="svg2443"
   sodipodi:version="0.32"
   inkscape:version="0.48.4 r9939"
   version="1.0"
   sodipodi:docname="Africa.svg"
   inkscape:output_extension="org.inkscape.output.svg.inkscape">
  <defs
     id="defs2445">
    <linearGradient
       id="linearGradient15386">
      <stop
         style="stop-color:#35a5ec;stop-opacity:1"
         offset="0"
         id="stop15388" />
      <stop
         style="stop-color:#2681da;stop-opacity:1"
         offset="1"
         id="stop15390" />
    </linearGradient>
    <inkscape:perspective
       sodipodi:type="inkscape:persp3d"
       inkscape:vp_x="0 : 526.18109 : 1"
       inkscape:vp_y="0 : 1000 : 0"
       inkscape:vp_z="744.09448 : 526.18109 : 1"
       inkscape:persp3d-origin="372.04724 : 350.78739 : 1"
       id="perspective2451" />
  </defs>
  <sodipodi:namedview
     id="base"
     pagecolor="#ffffff"
     bordercolor="#666666"
     borderopacity="1.0"
     inkscape:pageopacity="0.0"
     inkscape:pageshadow="2"
     inkscape:zoom="1.0734923"
     inkscape:cx="59.842156"
     inkscape:cy="242.81884"
     inkscape:document-units="px"
     inkscape:current-layer="layer1"
     showgrid="true"
     inkscape:window-width="1301"
     inkscape:window-height="744"
     inkscape:window-x="65"
     inkscape:window-y="24"
     inkscape:window-maximized="1">
    <inkscape:grid
       type="xygrid"
       id="grid2453"
       visible="true"
       enabled="true" />
  </sodipodi:namedview>
  <metadata
     id="metadata2448">
    <rdf:RDF>
      <cc:Work
         rdf:about="">
        <dc:format>image/svg+xml</dc:format>
        <dc:type
           rdf:resource="http://purl.org/dc/dcmitype/StillImage" />
      </cc:Work>
    </rdf:RDF>
  </metadata>
  <g
     inkscape:label="Capa 1"
     inkscape:groupmode="layer"
     id="layer1"
     transform="translate(-137.17508,-2.79295)">
    <g
       id="g12"
       transform="translate(16.467439,-1.3173951)">
      <path
         style="fill:#008080;fill-opacity:1;fill-rule:nonzero;stroke:none"
         d="m 134.96875,0 -7.71875,2.375 -6,-1.34375 -4.71875,2 -5.65625,-1.34375 -12.09375,2 -5,2.6875 -3.65625,0.65625 -5.0625,2.6875 -3.34375,0 L 81.375,8.0625 74.375,9.09375 72,6.03125 70,6.6875 l -5.34375,7.71875 -11.75,6.375 -3.65625,5.03125 -1.03125,6 L 47.875,32.15625 45.1875,35.5 38.5,40.1875 l -5.96875,1.375 -4.375,6.03125 -4.03125,2.3125 -3.34375,7.03125 -4.65625,3.75 C 1.9089775,78.627814 13.54549,72.827586 8.0625,83.0625 l 0.625,8.0625 -4,10.375 L 0,106.21875 3.6875,110.5 3.34375,113.21875 c 4.2177812,-0.6786 4.7534299,-0.61931 0.188811,-0.86336 L 2.6875,112.90625 1.65625,117.25 l -0.123689,0.10539 0.123689,0.86336 0.876311,1.13664 c 0.5912525,0.19369 0.6983029,0.59101 1,1 L 4.6875,121.5625 c 0.6713502,-0.0422 1.3536042,-0.16309 2,-0.28125 -0.8362931,2.60168 1.5863728,4.14063 3.03125,3.65625 l 0.6875,4.71875 2,0.96875 2,1.03125 -1.03125,1.65625 1.6875,0.65625 0.34375,4.375 c 2.62796,-0.53503 0.997578,-0.11932 -0.65625,0.34375 l 3.6875,3.6875 -0.34375,2 5.6875,3 11.0625,10.375 5.71875,2.375 6.6875,-3.34375 10.375,-1.34375 9.6875,2.65625 10.0625,-4.65625 7.03125,-2.71875 8.126311,-1.36336 2.248689,0.0509 5.03125,0.34375 c 1.10384,1.06142 2.7007,2.13116 3.34375,3.34375 l 0.37631,0.26164 0.27994,0.39461 0.71875,1 0.001,0.60539 -0.001,0.39461 3.34375,4.71875 3.65625,-0.34375 1.00131,0.23039 -0.31381,-0.23039 0.31381,0.23039 1,0 1,-1 2,0 3.06119,-0.26165 0.93881,0.26165 0.37369,0.0821 1.62631,0.9179 1.71744,1.7696 0.28256,0.2304 1,0 0.74869,0.42585 2,4.03125 -3.34375,10.03125 0.59506,1.51165 1,1 0,1 0,1 -1,0 -0.59506,-0.13665 -1.03125,5.34375 -2.34375,0 5.0625,9.0625 11.0625,10.71875 c 0.69105,5.73137 0.0282,3.5274 2.65625,8.6875 l 6.03125,12.0625 -2,3.34375 2.3125,4.71875 2.34375,5.3125 -0.96875,6.40625 -5.75,6 -3.65625,12.4375 0.6875,10.71875 13.71875,22.40625 2.375,18.0625 10.6875,17.125 4.65625,7.6875 0.375,3.65625 -2.03125,1.375 2.375,6.34375 1.6875,-1 5,3.34375 11.375,-3.65625 9.71875,1 9.71875,-2.6875 14.4375,-10.03125 4.65625,-6.03125 2.03125,-2.375 5.3125,-4.375 4.375,-11.34375 -0.6875,0.96875 -1.34375,-1.65625 14.78125,-8.71875 1.3125,-9.34375 -3,-8.03125 0.3125,-4.375 1.03125,1 7.34375,-5.03125 3.03125,-5 15.09375,-7.03125 0.65625,-1.34375 4.65625,-6.6875 -0.96875,-9.71875 0.96875,-1.03125 -0.6875,-7.375 1.71875,-3.34375 -3,-2.3125 -1.375,-1.03125 0,-0.3125 -1.3125,-8.75 1,-2.3125 -1.34375,0 2,-4.375 -3.6875,-5 2.34375,-7.03125 4.03125,-8.40625 1,-2 4.03125,-2.3125 -1.03125,-1.65625 2.71875,0 10.71875,-14.125 11.34375,-9.03125 8.375,-10.71875 11.0625,-25.78125 0,-3.03125 -0.3125,-1.6875 2.3125,-0.625 -1.65625,0 0.3125,-7.03125 -2.34375,-1 -5.3125,3.34375 -9.09375,1 -4,2.34375 -3.03125,-1.03125 -5.34375,2.6875 -7,-6.375 -3.03125,0.34375 4,-2.3125 -0.65625,-2.375 -11.0625,-11.0625 L 280,105.1875 278.96875,103.5 278,102.53125 l -0.3125,2 -7.0625,-15.09375 -6.0625,-4.03125 -2.625,-11.34375 0.96875,0.625 -2.625,-5 -6.0625,-4.375 -1.65625,-4.6875 1.3125,0 -3.375,-2.6875 -9,-15.71875 -5.03125,-5.375 -1.21875,-4 c -0.0134,-0.02041 -0.0188,-0.07271 -0.0312,-0.09375 -0.0677,-0.113718 -0.1212,-0.234822 -0.15625,-0.375 -0.22982,-0.919254 -0.78125,-1.884258 -0.78125,-3.0625 l 0,-0.5 c 0,-0.504192 -0.0788,-1.011518 -0.15625,-1.53125 L 232.4375,27.5 231.46875,25.46875 227.4375,25.125 l -8.0625,3.34375 -9.34375,-2.65625 -8.0625,-0.34375 -1.34375,-2 -7.34375,-1 -1.03125,-2.03125 -6.03125,-1.3125 -7.03125,3.34375 0,6 -0.34375,0 -4.71875,2.40625 -5,-2.71875 -9.375,-2.34375 -2.34375,-4.34375 -8.03125,-2.34375 -4.65625,0.3125 -9.09375,-4 -0.65625,-2.0625 5.375,-4.28125 -2.65625,-4.0625 2.65625,-4 -2.65625,1.65625 z M 16.125,60.6875 l 0.28125,-0.40625 -1,1.03125 z M 71.625,5.625 71.6875,5.75 71.875,5.625 c -0.0819,0.00434 -0.16786,-0.00336 -0.25,0 z m 206.71875,94.84375 0.3125,1.375 2,0.3125 -2,-1.6875 z M 322.875,245.5 l -2.6875,2.34375 -0.34375,4.71875 -2.65625,2.3125 -1.375,-0.96875 0,3.34375 -1,0 -1.96875,4 0.3125,-2 -2.34375,2.6875 0.65625,1.34375 -1.3125,0.65625 0.34375,-2 -2.375,1.6875 0,2.3125 -1.3125,-1.34375 -8.03125,2.375 -3.34375,6.6875 0.65625,12.40625 -5.375,6.34375 -1.96875,5.03125 0.65625,13.0625 3.65625,1.96875 9.375,-2.3125 L 318.84375,277 l 1,-5 2.03125,-1.6875 0,-6.6875 1.3125,-0.34375 0.71875,2.65625 1.65625,-2.65625 -0.6875,-12.375 -2.65625,-3.71875 z"
         transform="translate(137.17508,2.79295)"
         id="path14267"
         inkscape:connector-curvature="0"
         sodipodi:nodetypes="ccccccccccccccccccccccccccccccccccccccccccccccccccccccccccccccccccccccccccccccccccccccccccccccccccccccccccccccccccccccccccccccccccccccccccccccccccccccccccccccccccccccccccccccccccccccccccccccsscccccccccccccccccccccccccccccccccccccccccccccccccccccccccccccccccccccccccc" />
    </g>
  </g>
</svg>
