<?xml version="1.0" encoding="utf-8"?>
<!-- Generator: Adobe Illustrator 18.0.0, SVG Export Plug-In . SVG Version: 6.00 Build 0)  -->
<!DOCTYPE svg PUBLIC "-//W3C//DTD SVG 1.1//EN" "http://www.w3.org/Graphics/SVG/1.1/DTD/svg11.dtd">
<svg version="1.1" id="Canon" xmlns="http://www.w3.org/2000/svg" xmlns:xlink="http://www.w3.org/1999/xlink" x="0px" y="0px"
	 viewBox="0 0 45 45" enable-background="new 0 0 45 45" xml:space="preserve">
<g>
	<path stroke="#000000" stroke-width="0.5" stroke-miterlimit="10" d="M3.2,16.8H4v0.7c0,0,1.1,0.1,1.3,0c0.2-0.1,0-0.7,0-0.7H13
		c0,0,0.5,10.7,4.7,11.1v1.1H9.6l-0.1,2.2H7.4l0,3.6l35.4,0.2l0.2-3l-3.6-3.7L36,28.3l0-0.8l1.3-0.1l0.7-0.1l2.2-0.7l0.5-0.3
		l0.9-0.4l0-1.6l-0.8,0L40,24.7l-1.3,0.4l-1.1,0.4l-1,0.4l0.1,0.6l-2.1,0l-4.2-4.5v-1L29.8,21l-0.1-3.4l2.1-0.2l0-1.5h1.4v0.9
		c0,0,0.6,0.3,0.7-0.1l0-0.8h0.6v-0.9h0.6L35.2,14l-0.6-0.3l-0.1-0.9h-2.1v0.7l-0.6,0.1l0-2.1h-4.9l0,0.8l-2.5-0.1l-1.6-2.3h-4.1
		l0,2.3l-0.7,0.1L17.8,13L5.6,13.1l-0.5-1.6H3.9l0,1.3l-0.7,0.1C3.2,12.8,2.7,14,3.2,16.8z"/>
	<rect x="15" y="19" fill="#FFFFFF" stroke="#000000" stroke-width="0.5" stroke-miterlimit="10" width="5" height="0.9"/>
	<path fill="#FFFFFF" stroke="#000000" stroke-width="0.5" stroke-miterlimit="10" d="M15,21.7c0,0,0,2.8,1.5,3.5h0.5
		c0,0,1.4-1.1,1.9-2.7l0.4-0.7l0.4-1L15,20.7L15,21.7z"/>
	<path fill="#FFFFFF" stroke="#000000" stroke-width="0.5" stroke-miterlimit="10" d="M22.4,21.1l-0.8,6.4h-2.2l-0.1-0.8l-1.2,0
		l0.4-1.1c0-0.1,0-0.1,0.1-0.2c0.3-0.5,2.1-3.9,2.4-4.3C21.3,20.8,22.4,21.1,22.4,21.1z"/>
	<path fill="#FFFFFF" stroke="#000000" stroke-width="0.5" stroke-miterlimit="10" d="M23.5,21l0.8,6.6h3.1v-1.1h1.4L25.1,21
		C25.1,21,24.3,20.4,23.5,21z"/>
	<polygon fill="#FFFFFF" stroke="#000000" stroke-width="0.5" stroke-miterlimit="10" points="27.1,20.7 30.6,26.2 31.5,26.2 
		28.1,20.7 	"/>
</g>
</svg>
