<?xml version="1.0" encoding="utf-8"?>
<!-- Generator: Adobe Illustrator 18.0.0, SVG Export Plug-In . SVG Version: 6.00 Build 0)  -->
<!DOCTYPE svg PUBLIC "-//W3C//DTD SVG 1.1//EN" "http://www.w3.org/Graphics/SVG/1.1/DTD/svg11.dtd">
<svg version="1.1" id="Canon" xmlns="http://www.w3.org/2000/svg" xmlns:xlink="http://www.w3.org/1999/xlink" x="0px" y="0px"
	 viewBox="0 0 30 30" enable-background="new 0 0 30 30" xml:space="preserve">
<path fill="none" stroke="#000000" stroke-width="0.5" stroke-miterlimit="10" d="M16,14c0,0.7,0,1.3,0,2c0,0.3,0,0.7,0,1
	c0,0.3,0,0.7,0,1v1c1,0,2,0,3,0c0-2-1-4-2-5H16z"/>
<path fill="none" stroke="#000000" stroke-width="0.5" stroke-miterlimit="10" d="M14,14c0,1-2,2-2,3c1,1,2-1,2,1c1-1,1-2,1-4H14z"
	/>
<path fill="none" stroke="#000000" stroke-width="0.5" stroke-miterlimit="10" d="M18,14c2,1,1,4,3,5v-1C20,17,21,14,18,14z"/>
<path stroke="#000000" stroke-width="0.5" stroke-miterlimit="10" d="M26.3,18.9H24v-0.5l0.9-0.1l0.5-0.1l1.5-0.5l0.3-0.2l0.6-0.3
	v-1.1h-0.5l-0.5,0.3l-0.9,0.3L25.1,17l-0.7,0.3l0.1,0.4h-1.4l-2.8-3V14h-0.4l-0.1-2.3l1.4-0.1v-1h0.9v0.6c0,0,0.4,0.2,0.5-0.1v-0.5
	H23V10h0.4l0.1-0.7l-0.4-0.2L23,8.5h-1.4V9l-0.4,0.1V7.7h-3.3v0.5l-1.7-0.1l-1.1-1.5h-2.7v1.5L12,8.2l-0.1,0.5L3.7,8.7L3.4,7.7H2.6
	v0.9L2.1,8.6c0-0.1-0.3,0.7,0,2.6h0.5v0.5c0,0,0.7,0.1,0.9,0c0.1-0.1,0-0.5,0-0.5h5.1c0,0,0.3,7.1,3.1,7.4v0.7H6.4l-0.1,1.5H4.9v2.4
	l23.6,0.1l0.1-2L26.3,18.9z M11,16c-1,0-1,0-1-1v-1c1,0,1,0,2,0h1C13,15,12,16,11,16z M14,18c0-2-1,0-2-1c0-1,2-2,2-3h1
	C15,16,15,17,14,18z M16,19.3v-1.1c0-0.4,0-0.7,0-1.1c0-0.4,0-0.7,0-1.1c0-0.7,0-1.4,0-2.1h1.1c1.1,1.1,2.2,3.2,2.2,5.3
	C18.2,19.3,17.1,19.3,16,19.3z M21,19c-2-1-1-4-3-5c3,0,2,3,3,4V19z"/>
<path fill="none" stroke="#000000" stroke-width="0.5" stroke-miterlimit="10" d="M13,14h-1c-1,0-1,0-2,0v1c0,1,0,1,1,1S13,15,13,14
	z"/>
<rect x="10" y="12.7" fill="#FFFFFF" stroke="#000000" stroke-width="0.5" stroke-miterlimit="10" width="3.3" height="0.6"/>
<path fill="#FFFFFF" stroke="#000000" stroke-width="0.5" stroke-miterlimit="10" d="M16.2,14.2l0,0.2"/>
<path fill="#FFFFFF" stroke="#000000" stroke-width="0.5" stroke-miterlimit="10" d="M18.8,17.8h0.9"/>
<path fill="#FFFFFF" stroke="#000000" stroke-width="0.5" stroke-miterlimit="10" d="M18.8,18.6v-0.7"/>
</svg>
