<?xml version="1.0" encoding="utf-8"?>
<!-- Generator: Adobe Illustrator 16.2.1, SVG Export Plug-In . SVG Version: 6.00 Build 0)  -->
<!DOCTYPE svg PUBLIC "-//W3C//DTD SVG 1.1//EN" "http://www.w3.org/Graphics/SVG/1.1/DTD/svg11.dtd">
<svg version="1.1" id="Ebene_1" xmlns="http://www.w3.org/2000/svg" xmlns:xlink="http://www.w3.org/1999/xlink" x="0px" y="0px"
	 width="188px" height="188px" viewBox="0 0 188 188" enable-background="new 0 0 188 188" xml:space="preserve">
<g>
	<path fill="#4C90CD" d="M138.479,133.723c-2.143,0.514-1.258-0.166-2.631,1.369l0.819,0.274l0.767,0.547l1.315,0.058l0.714-0.492
		l0.219-0.713l1.041-0.988l-0.604-0.438C138.874,133.339,139.484,133.432,138.479,133.723z"/>
	<path fill="#4C90CD" d="M157.557,120.454c0.077-0.235,0.228-1.388,0.166-1.646l-0.494-0.988c-0.129-0.147-0.83-0.551-1.039-0.547
		l-0.656,0.219c-0.479,0.959-0.605,1.421-0.605,2.688c0,1.072-0.113,1.156,0.275,1.975l0.382,0.714l0.604,0.548h0.713
		c0.216-1.064,0.018-0.959,0.058-1.37C157.014,121.436,157.521,120.562,157.557,120.454z"/>
	<path fill="#4C90CD" d="M158.16,157.023c-0.773-1.551-0.416-1.273-2.028-2.193l-0.878,0.656l-0.711,0.879l-0.273,1.371
		l-0.715,1.313l-0.384,0.491l-0.878,0.824l-1.314,0.656l-0.494,1.039l-0.713,2.306l-1.426,1.094l-1.919,0.166l-0.604,0.438
		c-0.062,1.088-0.14,0.742,0.219,1.533l-0.274,0.717l-0.603,0.656l-1.865,0.217c-0.112-0.002-1.663-0.336-2.084-0.164l-0.766,0.658
		l-0.273,0.932h-0.057c0.062,1.096-0.074,0.88,0.493,1.479c0.822,0.872,0.682,0.445,1.262,0.77l0.822,0.656
		c0.229,0.319,0.25,1.51,1.755,3.289h1.313l1.313-0.604h1.315l1.205,0.604l0.986-0.166l1.041-0.438l1.753,0.165l1.535,1.096
		l1.099-0.055c1.521-2.093,0.678-0.995,1.59-3.29c0.549-1.207,0.513-0.275,0.711-1.975l-0.767,0.272l-0.657-0.218l-0.713-0.658
		l0.713-0.604l1.262-0.713h0.658c0.254-0.356,0.34-0.359,0.273-1.152c-0.124-0.713-0.457-0.463-0.33-2.521
		c1.117-0.373,0.7-0.273,2.027-0.273v-0.657c-1.237-0.412-1.723-0.582-2.631-1.698c-1.074-1.316-0.864-2.059-0.988-2.303
		l0.166-0.822l0.384-0.604l0.767-0.33c0.459-0.106,1.393-0.002,1.863,0.055c-0.322-0.704-0.154-0.5-0.656-0.93l0.272-0.492
		l0.821-0.109v-0.658l-0.547-0.492C159.756,156.973,158.7,157.023,158.16,157.023z"/>
	<path fill="#4C90CD" d="M163.863,57.128l0.82-0.109l-0.055-0.44c-1.214-0.707-1.277-0.682-2.413-1.589l-2.521-2.302
		c-0.262-0.278-1.438-1.863-1.863-2.194c-0.664-0.428-0.734-0.383-1.264-0.383l-0.271,0.439l0.604,1.096l1.098,1.316l1.261,0.877
		l1.593,1.865c0.516,0.685,0.666,2.585,1.094,3.618c0.193,0.359,1.789,1.986,2.084,2.193l2.633,1.315h0.604l-0.549-0.822
		l-0.383-1.536l-0.82-0.932l-1.428-0.549l-0.822-0.657l0.219-0.822L163.863,57.128z"/>
	<path fill="#4C90CD" d="M135.9,180.816l0.218-0.821l-0.271-0.822l-0.771-0.823c-0.114-0.062-1.034-0.084-1.753-0.604
		c-0.002-0.002-0.721-1.291-1.315-1.811l-0.933-0.604l-0.329-1.262l-0.769-0.492c-0.004-0.001-1.127-0.051-1.646-0.33
		c-0.957-0.641-0.659-0.912-1.097-1.589l-0.766-0.88l-0.605-0.217l-0.932,0.164l-1.313-0.272l-1.097-1.097l-1.207-1.041v-0.059
		c-0.844-0.506-1.312-0.605-1.59-0.766c-0.871-0.501-0.992-1.12-1.259-1.369l-0.659-0.385l-1.371-0.059l-1.098-0.604l-0.932-0.109
		l-1.315,0.33l-1.204-0.107c0,0.39-0.046,0.526,0.217,0.934c0.313,0.477,1.233,1.266,1.703,1.533l3.894,1.533
		c0.397,0.228,2.319,1.908,2.575,2.248l0.767,1.429l0.493,0.821c0.152,0.465-0.111,1.096,0.438,1.646
		c0.396,0.395,0.778,0.132,1.043,0.218l0.657,0.493l0.604,0.383l0.656,1.1c0,0,0.325,1.945,0.604,2.468l1.312,1.479l3.785,1.205
		l1.479,1.428l0.604,0.984c0.986,0.115,0.746,0.167,1.646-0.055c0.566-0.141,0.889-0.186,1.316-0.439
		c0.184-2.039-0.695-2.279-0.22-3.123L135.9,180.816z"/>
	<path fill="#4C90CD" d="M153.172,186.137c0.266-0.486,0.383-0.553,0.329-1.098c-0.03-0.311-0.233-0.926-0.438-1.15l-0.658-0.438
		l-1.534,0.219l-1.205,0.438h-0.658l-0.714-0.549l-0.875-0.384l-0.166,0.108c-2.023-0.539-1.859,0.035-2.798,0.605l-0.822,0.383
		l-0.548,0.328l-1.977-0.057l-0.713-0.163h-1.15l-2.084-0.438c-0.771,0.576-0.307,0.184-0.715,1.427l-0.383,0.932l0.109,0.492
		l0.385,0.274l2.686,0.328l2.74-0.383c0.656-0.035,1.97,0.081,3.232,0c2.139-0.139,1.682-0.24,4.057,0
		c1.92,0.244,3.764,0.592,5.646,0.986C154.041,186.562,154.486,187.596,153.172,186.137z"/>
	<path fill="#4C90CD" d="M175.76,180.215v-0.056c-1.171,0.099-0.492,0.082-1.314,0.657l-1.262,0.658l-0.656,1.313l-1.977,1.976
		c0.84,0.838,0.371,0.656,1.977,0.656l3.896-3.945v-0.658l0.656-0.604L175.76,180.215L175.76,180.215z"/>
	<path fill="#4C90CD" d="M168.029,173.854l-0.768-0.272l-0.604-0.712c-0.069-0.209,0.177-1.736,0.272-1.979
		c0.312-0.763,1.33-1.482,1.428-1.645l0.272-0.93c-0.674,0.565-1.856,1.668-2.687,1.86l-1.26,0.058l-0.604-0.33l0.713-1.588
		l0.769-1.153l1.096-0.878c1.604-1.047,3.857-1.286,5.209-2.085l0.878-0.603l0.438-0.604l0.055-0.657l-0.219-0.932l-0.492-0.385
		h-0.656l-0.551,0.439l-0.326,0.712l-0.879,0.713l-1.152,0.552c-1.016,0.555-0.34,0.332-1.7,0.875h-1.92
		c-0.229,0.045-1.801,0.711-1.974,0.881c-0.346,0.442-0.623,1.254-0.657,1.809l0.108,1.316l-0.108,1.259l-0.659,1.372l-0.656,0.604
		l-0.383,0.658v0.932l0.549,1.7c0.066,0.327,0.209,2.255,0.438,2.632l0.716,0.656h1.312c0.473-0.523,0.545-0.48,0.656-1.314
		c0.041-0.646-0.309-1.996,0-3.232l0.657,0.658c0.347,0.471,0.271,0.99,1.315,1.699c0.42,0.222,1.52,0.254,1.975,0.272l0.219-0.821
		l-0.219-0.984L168.029,173.854z"/>
	<path fill="#4C90CD" d="M167.098,152.473c0.293,0.168,0.951,0.868,1.205,1.151l1.152-0.165l0.715-0.438l0.328-0.658
		c1.074-0.153,0.755-0.111,1.92,0c0.506-0.58,0.383-0.234,0.383-1.59c-0.994-0.578-0.892-0.443-2.193-0.768
		c-0.754-1.602-0.297-0.617-0.547-1.861l-0.33-1.152l-0.164,0.714l-0.492,0.821l-0.879,0.549l-0.656,0.49
		c-0.368,0.24-1.553,0.844-1.975,1.207c-0.642,0.625-0.496,0.562-0.604,1.646l1.206-0.272L167.098,152.473z"/>
	<polygon fill="#4C90CD" points="165.014,148.415 165.616,148.415 166.165,147.922 166.385,147.098 166.221,146.441 
		165.616,145.783 164.794,145.783 164.355,146.387 164.301,147.098 164.631,147.593 	"/>
	<path fill="#4C90CD" d="M162.984,146.441c0.062-0.991-0.037-0.688,0.332-1.426c-0.959-0.82-0.521-0.658-1.812-0.658l-0.604,0.33
		l0.328,0.877C162.213,145.973,162.057,146.02,162.984,146.441z"/>
	<path fill="#4C90CD" d="M166.934,141.232v-0.057c-0.636,0.492-0.451,0.195-0.713,1.314c1.077,0.137,0.762-0.035,1.314,0.656
		l0.658-0.107l0.164-0.549C167.383,141.805,167.617,142.07,166.934,141.232z"/>
	<path fill="#4C90CD" d="M159.697,138.654c-0.137-0.512,0.729-2.801,0.767-3.068c0.024-0.195-0.051-2.93-0.164-3.18
		c-0.182-0.398-1.364-1.078-1.756-1.315h-0.055c-0.94-0.538-0.558-0.426-1.591-0.495l-0.33,0.44l-0.055,0.878
		c0,0.001,0.604,1.193,0.713,1.919l0.057,1.755c-0.11,0.471-1.25,1.729-1.262,1.753l-0.108,0.714l0.712,0.877
		c0.482,0.373,2.562,0.814,2.576,0.822l0.988,0.934l0.984,0.164l-0.438-0.549l0.604-0.106
		C160.738,139.753,160.016,139.366,159.697,138.654z"/>
	<path fill="#4C90CD" d="M164.247,98.961l0.437,0.604c0.084,0.084,1.324,0.944,1.481,1.207l0.218,0.711l0.879,0.058l0.657-0.604
		c0-2.062,0-1.457-0.657-3.345l-0.33-1.042h-0.056c-1.815-0.171-1.896-0.164-3.729-0.164l0.492,1.863L164.247,98.961z"/>
	<path fill="#4C90CD" d="M169.729,71.931l-0.879,0.33l-0.822,0.658l0.605,1.152c0.857,1.495,1.092,1.498,1.754,3.344l0.822,3.071
		l0.165,1.755l-0.165,1.041l-0.658,0.603l-0.656,0.056l-1.262-0.878l-0.165,0.768l1.099,3.125v0.603l-0.821,0.768l-0.937,0.385
		l-0.711,0.107l-0.822,0.769l-0.491,1.042l-0.604,2.686l-0.604,1.097l0.219,0.493l1.589,0.548c0.282-0.341,1.265-1.482,1.427-1.863
		c0.074-0.174,0.367-1.819,0.821-2.467l0.604-0.604l0.986-0.055c0.313,0.996,0.172,0.884,0.656,1.371
		c0.364,0,1.275,0.106,1.537-0.22l0.492-1.918c0.246-0.622,2.326-1.132,2.849-2.468l0.22-1.096l-0.22-0.877l-0.657-0.658
		l-0.218-1.427l0.218-0.547l0.715-0.604l0.604-0.056c-0.187-1.3-0.042-0.526-0.657-1.314c-0.652-0.837-1.262-2.551-1.59-3.565
		l-0.384-1.26c-0.132-0.882,0.327-0.889-0.494-1.7c-0.144-0.117-1.425-0.601-2.301-1.316
		C170.753,72.617,170.166,71.924,169.729,71.931z"/>
	<path fill="#4C90CD" d="M169.236,95.782h0.656c0.408-0.585,0.271-0.503,0.656-0.658v-0.603l-0.219-0.935l-0.823-0.712l-1.479,1.096
		l-0.108,1.042l0.438,0.438L169.236,95.782z"/>
	<path fill="#4C90CD" d="M171.867,64.256l-1.975,0.603l-0.604,0.274l-0.822-0.056l-0.933-0.493l-0.657,0.385l-0.384,0.931v0.988
		l1.15,2.302l-0.164,1.206l-0.385,0.823c0.94,0.177,0.668,0.206,1.426,0.056l1.754-0.603l1.592-0.167
		c0.001,0,0.765-0.502,0.82-0.767l-0.105-0.987c-0.098-1.207-0.031-1.435,0.053-2.577C172.727,64.935,172.709,65.028,171.867,64.256
		z"/>
	<path fill="#4C90CD" d="M113.532,145.346c0.3-0.152,1.331-1.258,1.479-1.537c0.196-0.371,0.294-1.203,0.328-1.645
		c0.613,0.725,0.668,0.745,1.099,1.701c0.83,1.85,0.506,1.792,0.658,2.302l0.438,0.877l0.492,1.535l0.33,2.414l-0.058,1.313
		c0,1.92,0.147,1.334,0.438,2.356l0.219,1.206l-0.381,1.15l-0.275,0.385l-0.107,0.713l0.274,0.604
		c0.28,0.373,1.56,0.887,1.751,1.041l1.48,1.699l0.604,1.535l0.765,1.152l0.934,0.822h-0.057c0.646,1.055,0.522,0.783,0.988,1.918
		c0.45,1.104,0.803,2.228,1.861,2.904c0.643,0.411,3.154,1.273,3.672,1.591c1.084,0.656,0.334,0.666,1.646,0.769l0.33-0.332
		l-0.109-1.041c-0.055-0.137-1.014-1.238-1.205-1.918c-0.238-1.193-0.188-3.088-0.713-4.275c-0.262-0.449-1.241-1.146-1.701-1.372
		l-2.468-0.877c-1.503-1.504-1.152-0.856-1.646-2.413c-0.438-1.381-0.459-1.297-1.313-2.302c-0.294-0.34-1.052-1.351-1.153-1.755
		c-0.182-0.737,0.44-4.439,0.44-4.441c-0.005-0.025-0.921-1.35-0.933-1.59l0.327-1.039l0.55-0.273l0.494,0.057l0.603,0.55
		l0.057,0.822l-0.108,0.491l1.92,0.107h0.056l1.149,0.383l1.099,0.879l0.985,1.428l1.099,0.328l1.862,0.164
		c0.024-0.555,0.027-0.815,0.049-1.008l-0.049,1.008l0.769,0.658c0.149,0.223,0.513,1.758,0.493,1.976
		c-0.021,0.286-0.33,0.471-0.33,1.372c0.418,0.261,0.398,0.343,1.261,0.219c0.38-0.087,0.709-0.34,0.988-0.549l-0.549-2.303v-0.879
		l0.329-0.438c0.025-0.021,2.599-0.771,3.345-1.264l0.823-0.713l0.548-1.312l0.165-1.755l-0.165-1.755
		c-0.075-0.472-0.91-3.872-1.041-4.112l-1.097-1.206c-0.412-0.354-1.975-1.169-2.356-1.426l-1.265-0.983l-0.383-1.481l-1.149-0.493
		c-0.259-0.727-0.41-0.975-0.331-1.811c0.115-0.604,1.302-2.789,1.646-3.287l1.262-1.537l2.084-1.151l0.879,0.056l0.328,0.549
		l0.33,2.026l0.438,0.218l0.551-0.218l1.26-2.739l2.631-1.977l1.537,0.493l2.576-2.249l1.811-0.657l3.344-4.769l0.494-1.262
		l-0.057-2.523l0.822-1.314l0.274-1.313l-0.935-1.48l1.207-2.024l-0.438-1.371l-0.879,0.328l-0.604-1.041l0.654-1.699l-2.248-4.385
		l-2.521-1.153l-1.151-1.263v-1.479l1.372-2.468l1.753-1.918l0.492-0.823H149l-2.084,1.812l-2.466,0.271l-2.249-1.314l-0.165-0.604
		l0.384-0.438l1.372-0.548l0.877-0.933l0.386-2.576l0.93-1.153l1.152-0.164l1.15,3.618l2.688-3.068l1.313-0.715h0.655l0.221,0.658
		c0,0.007-0.355,1.14-0.331,1.48c0.146,0.75,0.308,0.788,0.715,1.151c0.638-0.353,0.425-0.213,0.987-0.711l0.548,0.055l0.491,0.657
		l0.109,1.152l-0.164,0.823l0.492,1.042l0.769,0.878l0.932,0.493l1.15-0.058c0.403,0.004,1.112,0.23,1.37-0.219l0.22-0.822
		l-0.22-1.535c-0.012-0.038-0.771-1.807-0.82-2.138c-0.061-0.396,0.186-1.326-0.091-2.406c0.014,0.018,0.021,0.029,0.034,0.047
		l-0.109-0.328c-0.009,0.057-0.018,0.101-0.021,0.143c-0.002,0-0.002,0-0.002-0.001c-0.029-0.039-0.056-0.07-0.08-0.1
		c-0.013-0.015-0.022-0.033-0.037-0.046c-0.021-0.025-0.047-0.047-0.068-0.066c-0.012-0.012-0.021-0.022-0.035-0.032
		c-0.021-0.018-0.044-0.031-0.062-0.044c-0.015-0.006-0.021-0.014-0.033-0.018c-0.023-0.011-0.049-0.02-0.071-0.026
		c-0.013-0.002-0.021-0.006-0.032-0.009c-0.027-0.007-0.06-0.013-0.09-0.018c-0.006-0.001-0.011-0.001-0.016-0.002
		c-0.072-0.008-0.152-0.016-0.256-0.025c-0.004,0-0.008-0.001-0.012-0.001c-0.066-0.006-0.142-0.016-0.226-0.028l-1.864-0.33
		l-0.818-0.439l-0.496-0.657l0.06-0.604l0.489-0.548l0.717-0.22c0.266-0.805,0.154-0.3-0.059-1.261
		c-0.139-0.626-0.463-2.999-0.383-3.619l0.33-1.096l0.438-1.316l0.714-0.494l2.247-0.821l1.207-1.042l1.26-4.002l0.438-2.467
		l0.111-2.577l-1.591-4.879l-1.644-3.344l-1.864-2.358l-2.575-2.797l-1.755-1.645l-0.438,0.493l0.438,2.139l-0.657,0.767
		l-1.535-1.097l-1.977,1.042l-0.602-0.385c0.194-1.314,1.192-8.625,1.147-8.827l-1.808-3.07l5.427-3.455l0.33-0.987l-0.33-1.262
		c1.819-0.714,1.2-0.669,2.633-0.383l0.547-1.096l-0.491-2.249l-1.588-2.412l-0.55-1.479l0.55-1.153l1.038-0.272l-0.489-1.152
		l-0.658-2.083l0.548-1.153l0.877,0.165l1.37,1.7l1.043,4.056l0.877,2.686l1.262,2.359c0.361,0.543,4.872,5.962,5.43,6.468
		l2.355,1.701l2.083,0.656h1.481l1.041-0.656l-0.77-1.317l-1.863-1.973l-0.271-1.426l0.056-0.766l-1.589-1.153l0.109-3.234
		l-2.359-1.81l-1.04-1.644l-2.082-0.493l-2.14-1.426l-1.646-4.44l1.646-0.932l0.713-2.194l-2.686-5.647l-0.109-1.755l1.207-1.7
		l-0.275-0.768l-2.411-0.823l-2.524,0.768l-1.532,1.097V8.771l-0.657-1.536l-1.479-0.659V5.538l2.025-0.878V3.016l1.207,0.219
		l0.385-0.932l-0.879-0.878h-2.025L148.841,0l-0.933,0.822l1.755,1.371l-0.548,1.042c-0.225,0.256-3.327,2.231-3.346,2.249
		l-2.028,2.466l-1.206,2.139l-0.823,2.468c-0.284,1.104-0.442,2.739-0.547,3.893h0.878l0.547,0.547l-1.203,0.056l-3.84-0.549
		l-0.878,0.166l-1.589,3.344l-1.04,0.604l-1.919-1.315l-0.714,0.712l0.329,1.262c-1.533,0.365-0.905,0.33-2.85-0.111l-0.934,1.042
		l1.863,2.412l-3.782,1.426l-0.493,0.879l-2.577,0.438v-1.426l-1.919-0.439l-2.191,0.494l0.166,1.81l-1.152,0.712l-2.083-0.603
		l-3.896,1.04l-2.303,2.523l-0.549-0.877l0.385-2.468l2.467-2.193V24.62l-1.261-0.822l-2.19,1.426l-0.549-1.975
		c-1.421-0.27-0.906-0.33-2.14,0.219l-0.22,1.096l0.822,1.811l-4.771,0.33l-1.425,1.151l-1.316,1.863l-3.232,1.479l1.371,1.918
		l-1.428,1.207l-2.413-2.632l-0.768-0.329l-0.656,0.494l-1.262,4.44l-0.108,2.029l1.753,1.644l0.714,4.387l-1.097,2.028
		l-1.096-0.658l0.272-2.686l-2.19,0.219l-3.51-0.166l0.657-1.041l1.919,0.165l0.933-0.878l-0.33-1.646l0.055-2.576l1.37-5.263
		l-0.492-0.714l-0.549,0.219l-2.907,3.235l-0.548,1.646l-0.439,2.301l-2.193-4.113l-1.041,0.11l-0.274,1.589l-3.07,5.208
		l-2.803,3.127l-4.605,4.386l-1.919,4.112l-0.383,2.631l0.438,1.865l-0.493,1.974l-2.687,2.137l-1.206,3.289l-3.508,2.303
		L59.8,69.407h-2.029l-1.262-2.576l-1.589-1.919l-2.577-0.987l-2.357,2.138l-0.604,4.002l1.919,2.083l2.577,0.441l-0.987,1.807
		l0.384,2.304l-2.358-1.097l-1.535,0.986l-1.589-1.205l-0.932,1.261l1.096,3.179l-1.589,2.961l1.042,0.492l2.029-1.096l1.206,1.754
		l-1.371,0.933l-2.412,0.383l0.877,1.864l-0.933,1.918L46.587,91.5l-0.219,0.658l-0.384,0.165l-1.48-0.274l-1.809-0.713l-1.59-0.986
		c-0.271-0.267-0.78-1.384-0.877-1.756l-0.22-2.027c0.093-0.782,0.759-1.1,0.878-1.315l0.329-2.028l-0.329-0.604l-0.548-0.438
		l-2.083,0.822l-1.262-0.384l-0.657-0.659l-0.439-1.151l-0.604-0.493l-0.055-0.493l-0.494-2.028
		c-0.167-0.787-0.127-1.287-0.712-2.083L33.1,74.726l-2.631-1.316l-1.425-1.205L28.39,71.11c-0.542-0.962-0.722-1.363-0.932-2.412
		l-0.823-0.439l-1.594-1.425c-1.329-0.951-2.935-0.766-3.398-0.933l-1.59-1.042l-0.712-0.109l-0.878,0.439l-0.603-0.113l-0.33-0.875
		l-0.712-0.768l-0.713-0.219L15.556,63.6c-0.161,1.019-0.164,0.804-0.164,1.81c-0.719,0.431-1.033,0.583-1.863,0.767l-0.11,0.329
		l0.273,3.071l-0.164,1.149l-0.659,1.371l1.754,0.11c0.335,0.753,0.292,0.795,0.495,1.645l1.096,0.109l0.823,0.492l0.767,1.426
		c0.222,0.318,0.993,1.156,1.37,1.316c0.952,0.286,1.959,0.04,2.139,0.164l0.658,0.658c0.173,0.334,0.038,1.307,0,1.645
		l-0.658,0.987l-1.645,1.425c-1.415,1.061-0.63,0.446-1.699,1.702l-1.262,1.37c-1.426,0.908-1.176,0.895-2.742,0.987
		c-1.646-0.581-0.539-0.214-1.699-0.877c-0.491,0.184-0.918,0.312-1.151,0.768c-0.426,0.831-0.008,2.788,0,3.728l-0.165,2.741
		l0.383-0.273l0.933-1.702c0.284-0.069,0.153-0.087,0.548,0.111l-0.658,2.96l-0.274,1.041c-0.352,1.988-0.023,5.013,0.33,7.019
		c0.452,2.566,1.198,5.139,0.109,7.621c-0.121,0.276-0.672,1.219-0.767,1.646c-0.081,0.359-0.08,1.086,0.109,1.425l1.699,1.976
		l0.329,2.139h-0.108l-0.165,1.699c-0.305,2.676-0.607,2.451,0.219,5.428c0.327,2.454-0.067,2.527-0.219,4.496l-0.056,1.261
		l0.439,0.714l0.548,0.493v0.054l0.552,0.453c-0.02-0.007-0.04-0.015-0.058-0.015l0.109,0.058l-0.051-0.043l0,0
		c0.096,0.028,0.213,0.115,0.368,0.188l0,0c0.041,0.021,0.083,0.034,0.13,0.054c0.01,0.004,0.021,0.007,0.032,0.014
		c0.04,0.01,0.083,0.021,0.13,0.026c0.017,0.004,0.032,0.008,0.05,0.011c0.045,0.006,0.095,0.006,0.145,0.006
		c0.02,0,0.039,0.002,0.059,0.002c0.071-0.006,0.148-0.019,0.231-0.037c0.734-0.184,1.391-0.078,1.919-0.217
		c0.622-0.168,0.705-0.318,1.535,0.057c1.35,0.604,2.308,1.154,3.948,1.312c1.565,0.155,0.998,0.017,2.083-0.384
		c2.996-0.921,2.874,0.303,4.386,0.059c0.333-0.058,0.766-0.24,1.042-0.438c0.448-0.326,0.429-0.177,0.767-0.331
		c0.771-0.355,0.131-0.178,0.877-0.549l0.109,0.048l-0.054,0.006h0.055l-0.001-0.006l0.933-0.104l1.371,0.605
		c0.277,0.201,0.354,0.684,0.987,0.604c0.391-0.05,0.873-0.535,0.986-0.604l1.316-0.549l1.919-0.109l0.548-0.604
		c0.131-0.274-0.098-0.619,0.492-1.262c0.404-0.438,2.254-1.811,2.852-2.139l1.316-0.604c0.426-0.295,0.905-0.981,1.041-1.479
		l0.11-1.099c-0.026-0.424-0.77-2.459-0.986-2.85c-0.731-1.16-0.889-1.128-1.481-1.812l-1.151-1.538h-0.001
		c-0.899-2.051-0.383-1.316-0.383-3.122h-0.385l-1.973,1.261l-1.261,0.275h-2.193c-0.729-0.092-1.066-0.205-1.644-0.494h0.001
		l-0.548-0.273c-0.234-0.816-0.318-0.668,0.11-1.479c0.263-0.498,0.477-0.729,0.822-1.152l-0.165-0.767l-0.438-0.058
		c-0.229,0.024-1.248,0.543-1.48,0.658c-0.005,0.01-0.01,0.018-0.016,0.023c-0.582-1.029-0.45-0.616-0.587-1.78l0.384-0.329
		l-0.11-0.822c-0.196-0.643-1.005-1.545-0.931-2.192c0.192-1.711,0.711-1.173,0.274-3.947c-0.901-0.209-0.813-0.2,0.054,0
		c-0.516-0.839-0.429-0.593-0.658-1.646c-0.124-0.566-0.124-0.449-0.054-0.93l0.274-0.166l0.713,0.219
		c0-0.02,0.002-0.033,0.004-0.051c0.692,0.42,2.308,1.389,2.846,1.969c0.191,0.275,0.919,3.103,1.042,3.455
		c0.403,1.158,2.136,4.459,2.906,5.373l1.151,1.151l1.59,0.438l1.261-0.164l0.438,0.332c0.102,0.146,0.304,1.627,1.042,2.686
		c0.373,0.533,1.901,2.08,2.413,2.411c0.56,0.362,3.926,1.692,4.873,2.06c0.002,0.008,0.004,0.017,0.006,0.021
		c2.047,0.382,1.99,0.324,3.947,0.934l0.878,0.272c0.621,0.132,1.387-0.601,2.632,0.657c0.118,0.146,0.886,1.938,1.152,2.191
		c0.685,0.514,0.225-0.103,1.426,1.096c-0.062,1.052-0.11,0.697,0.109,1.646c0.998,0.272,1.622,0.386,2.467,0.988
		c-0.141,0.517-0.083,0.907-1.26,1.039c-0.749,0.087-0.08-0.199-1.316,0.274c1.226,1.448,1.199,1.159,2.411,2.192l0.988,0.933
		l1.097,0.383l0.766-0.217l0.495-1.209l0.11-0.986l0.329-0.327c1.289,0,0.948,0.704,0.932,1.975
		c-0.012,0.938,0.215,2.122,0.22,2.357c0.01,0.688-0.319,2.032-0.385,2.521l-0.109,1.863l0.658,4.169l0.823,1.701l0.767,4.166
		c0.271,0.726,2.255,3.174,2.632,4.167l1.974,5.977l0.329,0.107c0.394-0.016,0.732-0.67,0.877-0.822l1.535-1.152l1.206-0.381
		c0.909-0.173,0.544,0.229,1.262-0.386c-0.031-0.521-0.069-1.673,0.054-2.137c0.206-0.771,1.12-1.558,1.262-1.81l0.493-1.479
		l-0.713-2.634c-0.261-1.262-0.146-1.896,0.274-3.068l1.262-0.166l2.138-0.768c1.924-0.803,3.456-3.264,4.386-4.221l1.645-1.592
		l1.151-0.715l2.029-0.383l0.49-0.604l0.273-1.646c0.238-0.544,1.27-1.045,1.536-0.933l0.655,0.438l1.041,0.167
		c1.137-0.209,1.062-0.293,1.92-1.701c1.477,0.147,0.807,0.386,2.138,0.272c0.138-0.497,0.235-0.672,0-1.37
		c-0.354-1.048-0.578-0.511-0.272-1.425h0.33c0.793,0.871,0.434,0.375,0.713,1.148l0.491,1.153c0.31,0.96-0.092,0.319,0.604,1.812
		h0.107l1.26,1.754c0.528,0.619,2.906,2.83,3.457,3.619c0.285,0.407,0.852,1.588,0.877,2.081l-0.271,1.646l-0.493,0.768
		l-0.821,0.549l0.656,0.219l0.658-0.219l0.604,0.219l1.369,0.164L113.532,145.346z M33.396,112.229
		c-0.128,0.213-0.212,0.336-0.261,0.479c0.046-0.139,0.123-0.266,0.24-0.479H33.396z M33.086,112.945
		c-0.017,0.177-0.009,0.42,0.015,0.818C33.076,113.363,33.068,113.125,33.086,112.945z M33.128,112.73
		c-0.003,0.013-0.008,0.024-0.012,0.039C33.12,112.757,33.123,112.743,33.128,112.73z"/>
	<path fill="#4C90CD" d="M86.118,160.367l-3.125-2.357c-0.622-0.464-0.49-0.384-1.042-0.986l-0.439,0.713
		c-0.02,0.082,0.35,4.369,0.439,4.604c0.208,0.407,1.025,1.567,1.425,1.863c0.497,0.267,1.508-0.11,1.918-0.44l0.932-1.039
		c0.137-0.26,0.282-1.281,0.219-1.59L86.118,160.367z"/>
</g>
</svg>
