<?xml version="1.0" encoding="utf-8"?>
<!-- Generator: Adobe Illustrator 18.0.0, SVG Export Plug-In . SVG Version: 6.00 Build 0)  -->
<!DOCTYPE svg PUBLIC "-//W3C//DTD SVG 1.1//EN" "http://www.w3.org/Graphics/SVG/1.1/DTD/svg11.dtd">
<svg version="1.1" id="Layer_2" xmlns="http://www.w3.org/2000/svg" xmlns:xlink="http://www.w3.org/1999/xlink" x="0px" y="0px"
	 viewBox="0 0 30 30" enable-background="new 0 0 30 30" xml:space="preserve">
<g>
	<polygon stroke="#000000" stroke-width="0.25" stroke-miterlimit="10" points="13.8,13.2 10.4,2.4 11.2,2 15,14.6 	"/>
	<path stroke="#000000" stroke-width="0.25" stroke-miterlimit="10" d="M11.6,9.8l-2.8,3.8c0,0-0.4,0,0,0.8c0.4,1,1.2,0.4,1.2,0.4
		l0.8-1.2l1.2,5.2H9.4c0,0-1.4,1.8-1.6,3v3h0.6v-2.6c0,0,0.4-2,1-2s2.6,0,2.6,0s-0.8,1.4-1,2.2S10.8,24,10.8,24l2.4,1.8
		c0,0,0.8-0.2,0.4-1.2l-1.6-1v-1.2l1.6-1.2l4.6-0.2c0,0-3,2.2-3.4,3.2c0,0.8,0,2.2,0,2.2s0.4,0.4,0.8,0c0.4-0.4-0.2-1.8-0.2-1.8l3-2
		h0.4v1.8l-3.6,4h2.2v-1.2l3.2-3.2v-1.4c0,0,2-0.8,2.2-2.6l1.6-0.2c0,0,1.4,1,4.4,0.4l-3.2-1.8l-3-0.2l-4-2c0,0,0.2-4.4-0.4-4.8
		c-0.6-0.2-1-0.6-1-0.6V8.2c0,0-1.2-1.2-1.4-0.6c-0.2,0.8-1-2.8-1-2.8L14.2,5l0.6,2.6v0.8c0,0,0,1.6,1.2,2.6l0.4,0.8L15,14.6
		L11.6,9.8z"/>
	<path stroke="#000000" stroke-width="0.25" stroke-miterlimit="10" d="M11.6,2.8c0,0,0.6,0.8,3,0.4c0,0-1.2,1.6-2.6,1.6L11.6,2.8z"
		/>
</g>
</svg>
