<?xml version="1.0" encoding="utf-8"?>
<!-- Generator: Adobe Illustrator 18.0.0, SVG Export Plug-In . SVG Version: 6.00 Build 0)  -->
<!DOCTYPE svg PUBLIC "-//W3C//DTD SVG 1.1//EN" "http://www.w3.org/Graphics/SVG/1.1/DTD/svg11.dtd">
<svg version="1.1" id="Layer_2" xmlns="http://www.w3.org/2000/svg" xmlns:xlink="http://www.w3.org/1999/xlink" x="0px" y="0px"
	 viewBox="0 0 15 15" enable-background="new 0 0 15 15" xml:space="preserve">
<g>
	<polygon stroke="#000000" stroke-width="0.25" stroke-miterlimit="10" points="6.9,6.6 5.2,1.2 5.6,1 7.5,7.3 	"/>
	<path stroke="#000000" stroke-width="0.25" stroke-miterlimit="10" d="M5.8,4.9L4.4,6.8c0,0-0.2,0,0,0.4C4.6,7.7,5,7.4,5,7.4
		l0.4-0.6L6,9.4H4.7c0,0-0.7,0.9-0.8,1.5v1.5h0.3v-1.3c0,0,0.2-1,0.5-1s1.3,0,1.3,0s-0.4,0.7-0.5,1.1S5.4,12,5.4,12l1.2,0.9
		c0,0,0.4-0.1,0.2-0.6L6,11.8v-0.6l0.8-0.6l2.3-0.1c0,0-1.5,1.1-1.7,1.6c0,0.4,0,1.1,0,1.1s0.2,0.2,0.4,0C8,13,7.7,12.3,7.7,12.3
		l1.5-1h0.2v0.9l-1.8,2h1.1v-0.6l1.6-1.6v-0.7c0,0,1-0.4,1.1-1.3l0.8-0.1c0,0,0.7,0.5,2.2,0.2l-1.6-0.9l-1.5-0.1l-2-1
		c0,0,0.1-2.2-0.2-2.4C8.8,5.6,8.6,5.4,8.6,5.4V4.1c0,0-0.6-0.6-0.7-0.3C7.8,4.2,7.4,2.4,7.4,2.4L7.1,2.5l0.3,1.3v0.4
		c0,0,0,0.8,0.6,1.3l0.2,0.4L7.5,7.3L5.8,4.9z"/>
	<path stroke="#000000" stroke-width="0.25" stroke-miterlimit="10" d="M5.8,1.4c0,0,0.3,0.4,1.5,0.2c0,0-0.6,0.8-1.3,0.8L5.8,1.4z"
		/>
</g>
</svg>
