<?xml version="1.0" encoding="utf-8"?>
<!-- Generator: Adobe Illustrator 18.0.0, SVG Export Plug-In . SVG Version: 6.00 Build 0)  -->
<!DOCTYPE svg PUBLIC "-//W3C//DTD SVG 1.1//EN" "http://www.w3.org/Graphics/SVG/1.1/DTD/svg11.dtd">
<svg version="1.1" id="Layer_1" xmlns="http://www.w3.org/2000/svg" xmlns:xlink="http://www.w3.org/1999/xlink" x="0px" y="0px"
	 viewBox="0 0 960 560" enable-background="new 0 0 960 560" xml:space="preserve">
<path fill="#F9F7F8" d="M685.5,418.1c-3.5,0-6.9,0.4-10.2-1.3c-0.7-0.4-1.3-0.6-1.3-1.5c0-1,0.7-1.3,1.3-1.5c1-0.4,2.1-0.7,3.1-1.1
	c2.8,0,5.7-0.2,8.4,0.8c1.1,0.4,2.5,0.7,2.7,2.1c0.2,1.6-1.6,1.5-2.5,2.1C686.5,417.9,686,417.9,685.5,418.1z"/>
<path fill="#F9F7F8" d="M685.5,418.1c-3.5,0-6.9,0.4-10.2-1.3c-0.7-0.4-1.3-0.6-1.3-1.5c0-1,0.7-1.3,1.3-1.5c1-0.4,2.1-0.7,3.1-1.1
	c2.8,0,5.7-0.2,8.4,0.8c1.1,0.4,2.5,0.7,2.7,2.1c0.2,1.6-1.6,1.5-2.5,2.1C686.5,417.9,686,417.9,685.5,418.1z"/>
<path fill="#CE3400" d="M468.1,257.9l75.4-1.4c4.9-0.1,8.9,3.8,9,8.6l1.6,61.8c0.1,4.9-3.8,9-8.7,9.1l-77.1,1.4c-5,0.1-9-3.9-9-8.9
	v-61.8C459.4,262,463.3,258,468.1,257.9z"/>
<ellipse fill="#FFFFFF" cx="505.7" cy="296" rx="10.3" ry="11.9"/>
</svg>
