<?xml version="1.0" encoding="utf-8"?>
<!-- Generator: Adobe Illustrator 18.0.0, SVG Export Plug-In . SVG Version: 6.00 Build 0)  -->
<!DOCTYPE svg PUBLIC "-//W3C//DTD SVG 1.1//EN" "http://www.w3.org/Graphics/SVG/1.1/DTD/svg11.dtd">
<svg version="1.1" xmlns="http://www.w3.org/2000/svg" xmlns:xlink="http://www.w3.org/1999/xlink" x="0px" y="0px"
	 viewBox="0 0 960 560" enable-background="new 0 0 960 560" xml:space="preserve">
<g id="Dortmund">
	<path fill="#D7C300" stroke="#000000" stroke-miterlimit="10" d="M643.5,201v-2v-5l2.9-1.5l1.1,1.1v2.4v3l3,2c0,0,2.2-2.8,3-3.3
		c0.7-0.6,3.2,0.2,3.2,0.2l0.8,2v1.1v2l-2.5,1.9l-0.2,3.4l1.5,2.2h0.7l1.5,2v2.5l2.4,1.5l1.7-1.3l1.7,1.3l1.3-0.9V214l1.5-1
		l-1.7-2.8l-0.7-2.4l0.4-1.3l2-0.7l5.9-6.7l1.1-0.9l1.1,1.7l0.7,1.1l2.6,0.4l1.3-0.4l1.3-1.9l0.9-1.6h1.1l0.8-2.4l1.3-1.5l0.9-2.4
		l1.8-2.6l1.3-2.6l-1.8-2.8l0.7-3.5l1.1-1.3h6.8l1.3,1.4l3.2-0.4v-3.1H699l0.1-3h1.9l2.4-1.5l-1.1-2.6l-0.6-2.4l-1.1-3.8l-1.7-0.7
		h-2l-2.7,0.8l-0.2,2.8l-1.7-1.7l-0.6-3.5l1.8-2.8l2.8-1.7h1.5l1-3h1l1.4,0.8l2-0.5l1.8-1.2h1.8l1.2,1.2l4.1-0.2l2.2-0.2V150
		l-1.5-2.2l-0.6-2.9l1.1-2.4h2.4l2.5-1h2.5h1.5v2.5v3l1.4,0.5h1.1l3.2-0.8l2.3-0.6V144l4-0.8V138l3.3-2.2l1.1-4.3l3.1-3l-2.2-2.4
		l1.1-3.9l-1.2-4.1l2.8-2.6V113l2.3-2.7l-1.1-0.9l-2.2-0.9H739h-3l1.6-3.2l-0.2-1.8l-3.1-1.7l0.6-3.5l-1.3-0.7H731h-3l0-1.5l1.5-1.8
		V92l-1-1.7l0.4-2l-1.1-2.6l-1.3-2l-2.2-1.4l-2-0.7H721l-1.2,1.2l-1.5-1.2l0.2-2.1l1.3-1.5l2-1.5l-1.5-1.8l1.5-2l1.1-1.3l-2.4-0.7
		l-3.1-1.1l-0.4-2.4l1.7-2.9l1.7-1.6h2.6l0.7-2.5l1.7-1.8l1.1-9.7l-2.8-1.6l-2.6,2l-2,1.5l-1.7,1.3l-1.3,4.1l-1.8,1.3l-2.2,0.6
		l-2.8-0.4l-2.2-0.4l-1.7,1.8l-2.8-0.7v-3l0-3.9l-0.2-3.3l-1.1-2.3H698h-2l-3.1,1.2l-1.7-0.4l-2.4-0.8l-0.9,2.7l-0.4,1.8l-1.3,0.2
		l-2.8,0.3H681l-1.5-0.7V53l0,3.1l2.2,1.1l0.7,1.7l3.2,2l2.7,3.6l-0.9,5.3l-1,2.6l1.3,2.2l2.7,4.2l-4.4,0.9l-0.7,3.1l-1.7,0.9H682
		l-2.3-1.1l-2-1.1l-1.7-0.4l-1.3,2.6l-1.5,1.8l-2.8,0.4l-2.8,0.9l-1.1,0.9H664l-2.2,0.2l-2.6,0.6l-2.6,0.6l-2.6-2.8l0.6-2l1.7-0.7
		l3.7-1.5l1.8-2.7l-0.2-2.6H660l-1.7,0.3l-2.4-1.3l-0.4-2l-0.1-3.1l2.1-1.8V66l-0.1-1.4l2.2-0.4l1.3-2.1l-1.7-2.5l-2.2-1.5l-1.8-0.6
		H653l-2.5,0.3l-3.9-2.2l-1.5-2.4l-2.8-3.7l-1.3-2.4l-2,0.6l-1.6,0.9V51v1l1.7,1.9l-1.7,2.6l-2.7,0.9l-2.6,2.2l-4.3,1.7l-2,0.7
		l-2.8,3.4l-2.6,1.1H618h-2h-2h-2.5h-2V68l-1.9,0.5H606h-1.3h-2.2V72l-0.8,1.1l-1.7,0.9l-2.2,0.2l-1.4,2V79l-2.2,1l-2-0.5H590
		l-1.5,1V82v1l-2.6,0.1l-1.4,1.9l0.8,2.5l1.1,1.5l1.1,2l1.3,0.4l1.1,0.1l2.8,1.6l-3.2,5.3H588l-0.9,1l-2.6,0.4l-2-0.4l-1.3,0.6
		l-2.4,0.9l-2.8,0.6l-2.4,0.4l-2.4,0.6l-3.3,0.4l-0.5,2.1l-1.8-0.3l-1.8-0.7l-2.2-1.7L560,101l-2.6-0.2l-1.8-1.1l-2.9-1.7l-2.1,0.2
		v1.8l2,1v2l-3.1-0.1l-2-1.1l-2.2-0.4l-2.4,0.4l0.9,1.5l0.4,1.3l-1.3-0.2l-3.5-0.4l1.5,3.3l0.2,2.8l-0.9,2.2l1.5,2.8l2.2,0.4
		l0.7,2.2l0.3,3.7l1.2,0.4l1.5,0.6l0.5,1.5l-0.4,1.8v1.4l0.4,1.4l2.2,2.6l1.3,3.1l3,3l0.6,3.3l-1.1,10.2l-2.6,0.9l-1.8-0.2l0.2,3
		l-1.8,3l-3.9,2.8l-0.4,2.4v2.6l1.5,2l1.8-1.5l2.4,0.6l1.1,2.2l-1.7,0.9l-3.1,0.6l-2.6,2.5l-0.2,2.3H539l-0.9,1.4l-1.1,3.3l-1.3-0.4
		l-1.3-2.2l-2,0.2l-2.4,1.3l1.5,3.1l1.1,3l1.5,0.7l2-0.4l3.5-0.6v2l-0.6,1.9l1.8,2l3.1,2l0.2,5l-3.5,0.6l-1.5,2.6l-1.7,1.1l0.2,3
		l1.1,3.7l0.9,2.4l2-1.7l2.6,0.4l0.7,2l2,3.5l-0.2,1.9l0.2,2.1h3h3l0.1,3l-3.7,0.7l-1.9,1.1v1.6l-0.1,2.1l1.1,3.1l1.7,2.3h1.8h2h2
		l1.4,2l0.7,4.8l-1.3,3l0.4,2.7l2,0.5h1.8l0.3-2.5l2.2,0.9v2.6h1.5l2.2-2.2l2.6-0.2l2.4-0.7l1.3,2l3.3-0.9l1.7,2l1.7-0.8l2.2-0.2
		h1.7l0.2-2.9l-0.9-2.4l-2.2-3.1l1.1-4.6h1.9l1.8,2h1.2l2,0.5l2.2-0.2l-0.7-2.8l1.8-3.6l3.2-0.9l0.6-3.9l2.7-1.2l2.9,1.5l4.6-1.3
		l2.2-1.1l5.9-0.2l3.7-2.4l1.3-5.5l-0.2-2.8l3.1,1.3l2.2,1.5l2.8-1.7l3.7-0.4l4.3-1.5l3-2.4V204l-0.2-4.5L643.5,201z"/>
	<g id="DescripcionCiudad">
		<text transform="matrix(1 0 0 1 590.8232 142.1714)" font-family="'MyriadPro-Regular'" font-size="12">DORTMUND</text>
	</g>
</g>
<g id="Hannover">
	<path fill="#FFA81B" stroke="#000000" stroke-miterlimit="10" d="M723.2,81.4h-1l-1.9,0.7l-0.8,0.7l-0.9-1.4v-1.5l1.1-1.9l1.1-1
		l1.2-0.9l-1.2-1.1L721,74l0.3-0.4l0.6-0.8l0.8-0.5l0.7-1l-1.8-0.7l-1.4-1l-1-0.1l-1-0.3l-0.2-0.5l-0.1-1.1l0.9-1.7l2.2-2.9l2.8-0.2
		l0.9-2.9c0.6-0.9,1.5-2.2,1.5-3.3l0.4-2.2l0.1-2.5l0.1-2.4l0-1l-1-0.9l-1-0.8l-0.9-0.3l0.1-1.3l0.8-0.5l0-0.5l-1.2-1.1l-0.4-1.7
		l0.9-1.4l1.5-0.9l2.4-0.6l1.8-2.9v-1.6v-1l-2-1.3l1.4-1.6l2.6-1.4v-1.7l-1.8-1.8l0.3-1.5c0.1-0.7,0.1-1.5-0.2-2.2v0h-0.9l-1.1-0.8
		l-0.4-0.6l0.6-1.6l1.2-0.9l0.9-1.9l0.7-1.2l-0.1-1.4l-1.2-1.1l-0.9-3.7l1.4-2.6l3.1,3.7l1.6,2.6l0.6,1.9v1.2l1.6,2.9l1.7,2.7
		l2.2,0.9l6.1,1.7l1-0.5l1.9,0.1l2.2,2l0.7,3.1l2,1.1l6.7,3.3l4.6,0h3.6l2.2,0.2l3.2,1.4l3.1,1.4l2.5,1.2l2.9,1.7l5.4,1.9l1.9,1.1
		l0.7,1.1l1.5,1.7l3,1.7l4.4,2l3.5,1.1l1.4-0.6h2.4l2.4,0.1L813,50l2.5,2.9l2.6,0.7l3.5-0.4l3.1-1l0.7-1.9l2.6,0.1l1.4,1.2l2,1.6
		l0.9,1l0.7,1.1l1.2,1.7l1.1,0.4l0.5,0.6l0.7,0.6v1v2l-1.4,0.1l-1.6,0.4v1.5l1.1,0.5h1.4l1.3,1.5l-0.8,1.5l-1,1.2v1.3l0.7,0.7
		l2.3,1.4v1.9l-1.6,1.7l-2,0.2l-0.2,1.6l1.4,0.6l2.4,0.7l-1.4,1l-1.1,1.7l-1.1,1.8h-1.8l-1.6,1.7l-0.4,1.4l0.6,1l0.7,0.9h-1.4h-3h-3
		l-0.4,2h-1.6l-4.2-0.6l-2-0.2l-1.5,0.1l-1,0.7l-0.9,1.2v2.8h-1.5l-1.6-0.6l-0.9,0.6v2.5l0.1,1.5h1.4l1.6,1h1.4l-0.9,1.5l-1.2,0.6
		l-0.4,0.9h1.5l0.6,2.3l0.5,2.1l-0.6,1.2l-1.1,1.4h-1.3l-1.1,0.9l0.2,2.6l0.9,1.6l-0.6,0.9v1.5l0.6,0.5h0.9l1.1,0.8l0.6,2l-0.2,0.7
		v1.5h0.5l1.8,0.9l0.1,1.6l-0.4,1.1l-0.7,1l1,1.4l0.7,1.2l-1,1.4l-1,2.1v1.8l1,1.2v0.8l-1.3,1l-2.2-0.6l-2.5-0.5l-1.5,0.6h-2
		l-1.9-0.9l-1.5-1.7l-1.6-1.2l-2.6,0.1l-1.2,0.1l-0.1,3.1l-1.7,3.7l-1.5,1.2l-1.2,0.9l-2,1.2l-1.1,1.9l-1.1-1.1l-1.4-0.9l-0.4,2v1
		l0,0.7l-1.6,0.7l-1.7,2.1h-1.1h-1l-1.5-0.5l-2-0.4l-0.7,0.9l-0.6,1.2l-1.1,1.4l-1.6,1.9l-0.7-1.4l-1.2-1.5l-1.6-1.7l-1.6,0.5
		l-0.2,1.4l-0.1,2.3h-0.8l-1.2,0.4l-0.1-2.5l-0.4-1.2l-0.7-0.1l-0.6,0.1l-0.9,1.5l-0.7,1.2l-2.5,1l-1.9,2.7l1.5,0.9h1.6h1l0.6,0.8
		l-0.2,3.2h-1.3l-2.3-1.9l-1.4,0.4l-2.1-1.1l-3-0.7l-2-1.7l1-1.6l0.2-1l-1.1-0.5l-0.4-2.1l2,0.4h2l0.9-2.3l0.6-3l-1.6-2l-2.2-3.4
		l1.7-1.5l0.9-2.3l0.7-1.5h1.9l-0.2,0.8l1.6-0.1l-0.2-1.6l-0.9-1.1l-1.5-0.6l-0.3-3.2v-1.6l-2.3-0.4l-1.5,1.6l-1.4,0.7l-1.5-1.4
		l-1.4,0.7L746,129l-0.6-2l-1.4,0.1l-0.5,1.3l-0.8,0.5l-1.1-0.5l-0.5-0.5l-0.5-1.3l-0.3-1.8l1-1.4l-0.7-1.9l-0.1-2.6l-0.6-0.7l1-0.7
		l1-1.6v-2.9l2-1.2v-1.8l-1.4-1.4l-2.9-0.2l-1-0.2l-1.3,0.2l1.2-3.3l-0.1-1.1L737,103l-2.1-1.6l0,0l0.6-2.4l-0.6-1.3l-1.6-0.4h-3.1
		l-1.5,0l0.6-1.6l0.1-0.6l0-0.6l0.1-1l-0.5-1.9l-0.5-1.1l0.4-2.2l-0.3-1.8l-1.1-1.5l-1.4-2.1l-1.9-0.7L723.2,81.4z"/>
	<g id="Descripcionciudad">
		<text transform="matrix(1 0 0 1 748.1123 73.3574)" font-family="'MyriadPro-Regular'" font-size="12">HANNOVER</text>
	</g>
</g>
<g id="Munich">
	<path fill="#CC2200" stroke="#000000" stroke-miterlimit="10" d="M587.3,235.6l-3-2.8c-1.1-0.7-2.3,1.2-2.4,2.5l-0.2,2.8l3.5,5.6
		l-0.8,2.7l-1.4,0.1h-4.6l4.5,5h-3h-3l-2.9,2H570l-1.6-1.6l-2.9,1.6v4H563h-3.5v5h3.5l2.1,1.1l-1.4,1.7l1.4,4.3l-1.7,2.1l-2.6,1.4
		l0.5,5.5l-0.2,2.8h2l1.3,2.7l2.9,3.8l-1,3.1l1,2.1l1.9-2.1l2.6,0.9l2.5,1.6h2.7l3.6,2.2l2.1,1.8H579l0.1,1.4l2.4,3.6v5h1.5l0.2,6
		h5.8l1.8-1.2l2.1,1.1l2.4,1.1h2.6h3h2h3l1.9,2.3l1.6,1.4v3.2h2.5l2.4,3l-2.4,3.3l-2.4,1l-2.2,2.1v4.1l3.6-2.7l1,1.2l1.2,2.9
		l-0.5,4.2l1.7,1.9h2.6h3l5.4,1.1l3.6,3.3l2.9,2.4l3.6-2.1l2.4-0.7l1.4,1.8l1.7,1.3h2.1l1,3.5l3.6,2.5h3.4l2.1,2.4l2.3-1.9l2.1-0.2
		v3.3l2-3.3V352l2.9-0.8l-1.9-2.1l-1-1.7l2.9-3.6l-2.1-0.7l-3.3-2.9l-1-6.2l-0.5-5.7l-1.9-4.1l-0.2-2.6l3.8,0.5l-1-5.5l-1-4.8
		l-2.9-0.7l1.4-2.1l3.3-2.1l-1.9-6.3l1.7-2h5.1l1.8-1.9l1.7-0.2l3.6,1.2l1-2.6l2.9,1.7l2.6-1.4V293l2.6-0.3l3.3,0.2l1.7-1.9l1.2-1.4
		l2.6,1l1.4,0.7l4.8-3.6l3.1,2.4l2.6,0.7l2.1-2.4l1.4,0.5l2.4,1.3l1.4-2.7h3.7l1.6-2.6l1.9-2.1V280l-2.5,0.1l0.5-3.8V273l-2-1v-3
		l-2.3-1.3l-2.4,1.7l-1.2-1.9l-0.2-1.9l-2.6,1.2l-1.4-1.2V264l-0.8-2.3l-1.7,0.4l-1.7,1.4H693l-0.6-3l-3.6,0.2l-1.9-1.7l-2.4-1
		l-1.9-1.7l-2.9-0.3l-1.4,3.3H676l-1.7-1.8l-2.4-0.5l-1.9-3.8l-1.7,1.9l-2.9-1.4l-2.6-1.9l-1.7-1.7l-1.7-2.4l-1.4-1.4l-1.9-4.3
		l1-3.6l1.2-3.3l-3.3-1.9l2.6-4.3l1.9-5l-0.2-5l-0.7-2.4l-0.1-3.9l-2.1-1.8l-1.7-2.6l0.2-3.4l2.5-2.4l-0.4-3.6l-3.6-1.3l-2,2.2
		l-0.9,1.1l-2.6-1.7l-0.4-5.7l-1.1-1.1l-2.9,1.5v5l-0.2,1.9l-3.9-1.1l-1,2l0.1,3.8l-1.1,2.9l-3,1.9l-2.3,0.8l-2.8,0.5l-3.8,1.4l-3-1
		l-3.1,0l-0.2,2.9l-1,4.2l-3.7,2.4l-4.1,0.1l-5.8,1.7l-2.9,0.8l-2.9-1.5l-2.7,1.2l-0.5,3.2l-3.3,1.5l-1.4,3.4l0.4,2.9l-2,0.2
		L587.3,235.6z"/>
	<g id="DescripcionCiudad_1_">
		<text transform="matrix(1 0 0 1 605.0586 275.1416)" fill="#FFFFFF" font-family="'MyriadPro-Regular'" font-size="12">MUNICH</text>
	</g>
</g>
<g id="Berlin">
	<path fill="#009936" stroke="#000000" stroke-miterlimit="10" d="M822.9,128.5l-1.6-0.8l-1.4,1.4l-1,1.8l-1.6-1.9l-2.1,4.7
		c-0.1,1,0.5,2,1.5,2.3l1.7-0.3l2.2,2l-0.1,3.1h1.9l-0.4,3h-1.9l-2,0.6l-0.6,2.6l1,1l-0.4,2.1l-1.7,2l-1.5,0.8v2.7v2.2l-1.3,1.6
		l-2.2,1.1l-2.4,0.9l-1.1,0.8v2.1l-2.7,0.7l0.1,2.5l0.7,6l-1.9,0.6l-1.3,2.7l-0.7,1.7l0.7,1.7h2.6l2.2,0.6l0.8,1.7l-0.5,2.4
		l-3.3,0.4l-2.1,1.1l-2.2,4.7l-1.7,1l-1.4,2.5l1.4,0.9l3.4-0.6l3-1.8l2.6-3.5l2.8-0.1l3.3-1.3l0.1,2.5l0.7,3l2.5,1.1l-1.4,2.5
		l-2.5,1.9h-2.1l-1,2.6l1.1,4l-0.6,3.4h2.8l6.5-3.5l1.8-3.8l3.7-2.5l4.7-2.3l1,1.5v2.6l-4.6,0.3l-2.6,0.9l-1.7,1.8l-4.9,4.7
		l-1.9,1.2h-2l0.7,3l3.2,0.8l4.8,1.3l2.8,3l2.5,2.9h3l2.7-4.3v-2.5l1.4-5.7l3-1l2.1,2.8l3.3-0.7l3.2-0.3v-3.8l1-3.1V200l1.4-1.6
		l1.8-1.2l1.8,0.2l1.4,1.5l1.2,1l0.9,1.1l1.2,0.8l2.1-0.1l0.3-4v-8.5l3.6-1.1l4.8-0.3l5.4-1.5l5-2.7l3.1-1.7v-2.4l-3.3-4.5l-3.7-2.9
		v-4.5l-1.1-5.8l-4.2,0.2l-1.7,1.4v3l-1.6,3.7l-3-3.1l-2.9,1.9l-1.9,2.2l-2.7,1.4l-1.5-2.5h-2.7l-2.3-0.9l-0.3-2.8l0.3-3.6l1.8-0.2
		l1.3-3.8l-0.3-2.4l-4,1v-2.6l2.7-1l3.2-2.9l-1.3-2.2l-3.5-3.8l-1.5-4.6l-5.2,1.4l-1.9,4.1l-3.2,2.2l-3.5-1l-1.3-4.3l-2.5-2.6
		l0.3-1.7l-0.8-3.4l-2.3-1.4l-3.3-1.2L822.9,128.5z"/>
	<g id="Layer_10">
		<text transform="matrix(1.0418 0 0 1 812.2111 184.897)" fill="#FFFFFF" font-family="'MyriadPro-Regular'" font-size="13.0018">BERLIN</text>
	</g>
</g>
<g id="Frankfurt">
	<polygon fill="#C6FF32" stroke="#000000" stroke-miterlimit="10" points="762.5,162 762.5,158 760.3,158.4 758.1,157.5 
		759.1,156.1 760,154.8 762,154 763.5,152.3 764.1,151.5 765,151.5 765.7,151.9 766,154.8 768.2,154.9 768.6,150.6 769.9,150.2 
		773.6,154.8 777.8,150.2 780.7,150.2 783.4,151 785.6,148.7 787.5,147.6 787.5,144 789.3,146.2 791.2,144 795.8,141.2 797.5,137.4 
		797.5,134.5 801,134.5 803.8,135.7 806.2,137.5 808,137.5 809.9,136.8 814,138.7 816.5,137.5 816.5,136 818.4,135.8 820.5,137.3 
		820.5,141 822.5,140.7 822.1,143.5 820,143.5 818.3,144.5 817.8,146.6 818.7,148.1 818.3,150.1 815.8,152.6 815.5,154.8 815.5,158 
		813.8,159.3 811.6,160.4 808.6,161.8 808.1,163.7 806.4,164.6 805.5,164.9 805.6,168.2 806.2,172.8 804.5,173.8 803.5,175.5 
		802.5,177.8 802.9,179.8 804.4,179.9 806,180 807.8,180.5 808.5,182.5 808.3,183.9 804.9,185 802.7,185.4 800.9,188.7 800,190.3 
		798.4,191.4 796.9,194 797.4,195 797.9,195.9 800.2,195.4 801.5,195.2 805.3,193.6 808.1,189.9 810.8,189.1 813.2,188.8 
		813.5,190.1 813.5,192 813.8,193.4 816,194.7 814.5,197.3 812.2,198.5 811,198.5 809.7,199.8 809.4,201.3 809.7,202.4 809.8,203.7 
		810.3,204.9 810.4,205.7 810.3,207.7 809.7,208.9 809.4,212.3 810.8,214.8 810.5,218.3 806.9,220.9 803.9,223.2 802.3,227.5 
		802.8,232.1 803.7,237 805,241.6 802.6,251 796.1,256.2 790.3,251.3 782.9,242.7 771,232.1 767.8,223.2 760.2,214.1 751,206.5 
		748.1,200.6 751,192.5 754,186.8 753.5,182.2 755.5,174.3 755.5,169 760.2,166 	"/>
	<text transform="matrix(0.6561 0 0 1 753.9062 199.5615)" font-family="'MyriadPro-Regular'" font-size="12.6633">FRANKFURT</text>
</g>
<g id="Nuremberg">
	<path fill="#FBFF7D" stroke="#000000" stroke-miterlimit="10" d="M700.5,179v-2.5H699l0.1-3h1.9l2.3-1.6l-2.7-8.7l-2.1-1.2
		l-3.1,0.6H694l0.3,3l-1.8-1.9V160l1.5-2l2.5-1.5h1.5l1-3l2.4,0.8l2.4-0.8l1.5-1h1.8l1.8,1.7l3.3-0.7l2.5,0.3l0-3.9l-1-2.2l-0.9-3.2
		l1.4-2h3l1.6-1h2.9v5.5l2.6,1.2l0.7,0.1l5.8-1.6V144l4-0.8l0.2-5l3.5-2.2l1-4.2l2.9-2.7l0.7,0.4l1.2-0.9l0.3-1.1h0.7l0.6,1.6
		l1.9,1.5l0.3,0.5l1-0.8l1.5,1l3-2.1l1.9,0.3l0.3,4.3l1.9,1.1l0.8,1.8l-2.6-0.2l-2.2,3.6l-1.8,1.4l-0.3,0.3l3.8,5.3l-1.4,4.6
		l-4.1-0.4l0.1,2.7l0.2,0.4l1,0.3l-1.3,2.4l2.2,2.3l5.4,1.9l1.5-0.3l2.1,1.8l0.7,0.1l-1.7,2.9l-4.9,3l0.1,5.5l-2,7.8l0.6,4.5
		l-6.1,13.6l3.5,6.3l0.1,29.1c0,1.5-1.2,2.8-2.7,2.8l0,0c-1.5,0-2.8-1.1-3.1-2.6l-0.6-3.6l-7.3-7.4l-7.7-8.6l-8.2-1.7l-11.6-15
		l-6.9-14.7L700.5,179z"/>
	<g id="Descripcion">
		<text transform="matrix(0.6835 0 0 1 709.1113 180.2088)" font-family="'MyriadPro-Regular'" font-size="12.7029">Nuremberg</text>
	</g>
</g>
<g id="Heidelberg">
	<polygon fill="#FFBD66" stroke="#000000" stroke-miterlimit="10" points="751.2,235.6 751.1,206.4 761.5,215.6 767.8,223.2 
		770.4,230.6 783.9,243.9 788.2,248.6 796.5,256.2 796.5,258 795,260.7 796.5,264.7 795,266.1 794.6,269.7 794.2,273.4 792.3,276.8 
		790.4,279.3 788.5,281.5 787.5,284.4 787.1,288.5 785,288.5 782.7,284.5 778.9,284.9 776.7,281.1 772.7,279.7 767.5,275.5 
		764,275.5 759.8,273.2 755,270.3 751.1,269.9 748.1,266.5 747,261.1 749.3,256.2 749.5,247.4 750.6,240.1 	"/>
	<text transform="matrix(0.8163 0 0 1 752.784 258.6943)" font-family="'MyriadPro-Regular'" font-size="8.7679">HEIDELVERG</text>
</g>
<g id="Essen">
	<polygon fill="#FFC86D" stroke="#000000" stroke-miterlimit="10" points="712.9,279.8 710.8,280.2 711.5,276.2 711.5,273 
		709.5,272.1 709.5,269 707.3,267.5 704.9,269.5 704.1,267.7 703.8,265 701.4,266.5 700.1,265.5 700,264 699,261.5 697,262.1 
		695.4,263.1 693.4,262.9 692.8,260.4 689.4,260.7 687.3,258.9 684.9,258 682.7,256.1 679.7,255.9 678.3,259.1 676.2,259.1 
		674.5,257.5 672.2,256.9 670.2,252.9 668.3,254.8 665.3,253.4 663.1,251.5 661.2,249.6 659.9,247.5 658.4,246.1 656.6,242.2 
		658.8,235.2 655.6,233.2 658.1,229 659.9,224.2 659.8,218.9 659.1,216.4 659.1,215.8 661,217.1 662.5,215.9 664.2,217.1 666,215.8 
		666.1,214.1 667.6,213.1 666.1,210.7 665,207.8 665.5,206.7 667.2,206.1 674,199 675.4,201.5 678.4,201.9 680.1,201.2 682.3,197.5 
		683,197.5 684.4,195.1 685.7,193.8 686.5,191.5 688.3,189 689.7,185.9 687.8,183 688.4,180.2 689.4,179.1 695.7,179 697.2,180.5 
		700.4,180.2 709.7,200 721.5,215.1 729.6,216.8 744.1,232.5 744.8,236.6 746.6,238.7 748.5,239.3 750.3,238.3 748.6,247.4 
		748.9,256.2 746.2,261.3 747.6,267.2 747,270.1 745.5,271.1 743.4,273.1 742.5,274.5 741.6,276.5 740,278.9 739.7,281.9 
		737.6,282.2 735.5,281.5 734.3,281.8 731.7,282.5 729,282.5 726.7,283 725.1,281.5 723,281.5 719.6,281.4 717.7,279.3 716,279.8 	
		"/>
	<g id="Layer_16">
		<text transform="matrix(1 0 0 1 684.3076 226.4907)" font-family="'MyriadPro-Regular'" font-size="12">ESSEN</text>
	</g>
</g>
<g id="Esmeralda">
	<polygon fill="#FFC218" stroke="#000000" stroke-miterlimit="10" points="366.6,19 364.5,20.5 364.5,22 364.5,24 363.2,24.9 
		361.8,26.3 359.8,28.2 358.3,30.9 357.7,32.5 357,32.5 356,32.5 353.1,35.5 352,35.5 350.3,38.7 348.5,40 346.6,43 343.7,46.4 
		340.6,48.6 337.2,49.2 333.2,50.5 331,50.5 327,50.5 323.1,52.1 320.5,50.5 318.4,50.6 317.1,52.5 315,52.5 312.8,54.5 309.8,55.3 
		307.5,57.5 305,57.5 301,57.5 298,57.5 296.4,59.5 294,59.5 292.2,60.5 290,60.5 288.5,61.9 284.6,66.4 279.5,69.5 278,69.5 
		275,69.5 273.6,71 271.8,72.5 269,72.5 264.2,73.5 263,73.5 259.7,77.3 258.8,79.8 259.6,82.1 258.8,84.6 259.9,87.7 262.4,88.5 
		264,88.5 265.2,89.4 266.1,91 267.3,92.5 267.9,94.5 266.5,95.6 266.4,98.5 265.6,101.5 264,101.5 264,103.4 262.8,104.6 
		265.8,108 267.7,110.2 269,113.5 268.1,115.2 269.3,117.6 268.3,120 267.7,122.3 268.7,123.9 271.1,126 271.3,123.5 274.4,121.4 
		276.1,119.8 276.4,116.5 281,116.5 285.7,116.3 288,112.9 290.5,111.5 292.8,113.5 293.3,116.4 292.2,117.6 292.7,118.9 
		294.6,120.1 296.2,120.4 297.3,122.2 295.6,124.2 293.6,127.9 294.7,130.6 297.7,129.4 298.1,131.8 300.5,130.7 301.4,133 
		303.2,134.5 305,134.5 304.5,135.8 302.9,138 301.4,139.8 300.8,142.3 301.5,144.3 302.4,146 301.3,147.7 303.1,150.6 305,152.6 
		308.7,158.1 309.6,154.5 312,153.9 312.5,154.1 313.1,154.1 315.9,153.9 318.2,153.6 320.1,154.1 320.9,154.1 322.7,154.1 
		324.1,154.5 325,154.5 324.9,153.2 325.1,151.6 328.1,149 328.2,147.7 328.6,146.3 329.2,144.7 328.8,142.9 328.7,142.2 
		328.4,141.2 328.3,138.8 328.3,133.8 328.2,129.2 327,126.8 324.6,125.7 324.2,123.2 327.7,122.6 331.3,118.6 331.4,115.6 
		340.3,116.2 345.7,116.8 350.1,118 353.7,117.4 359.1,113.8 363.3,113.2 365,112.2 367.5,112.5 370.3,111.4 372.1,109.3 
		380.7,109.8 382.7,111.5 384,111.5 385.2,111.4 387.6,110.4 389.5,108.3 389.5,107 389.5,105 391.5,103.9 394.5,102.9 394.5,101 
		396,99.8 400.3,97.7 403,98.2 405.1,95.8 406.5,93.4 406.5,91 403.4,89.8 402.3,86.8 400.2,84 399,82.7 397.3,80.2 396.5,78.5 
		396.2,77.1 398.5,77.4 401.2,77.1 403,75.8 403.1,71.3 402.8,67.9 400.6,67.5 398.8,66.9 397.3,64.5 395.5,63 395.5,61 396,60.4 
		396.6,58.3 395.5,55.6 395.5,53 397.7,51.6 399,50 398.7,48.7 398.5,44.8 398.5,41 397.1,39.5 395.8,37.1 392.8,36.2 388.1,36 
		387.5,34.3 385.9,32.3 383.6,28.7 380.9,27 375.7,23 371.3,20.8 	"/>
	<g id="Layer_17">
		<text transform="matrix(1 0 0 1 308.7403 89.6482)" font-family="'MyriadPro-Regular'" font-size="12">ESMERALDA</text>
	</g>
</g>
<g id="Manabi">
	<path fill="#00B506" stroke="#000000" stroke-miterlimit="10" d="M265,114.3c-0.6-0.5-1.5-0.1-1.5,0.7v3v4v3l1,4.8l-1,3.4l-2,5.7
		l-0.8,1.8l-2.5,1.5l-2.9,6l-2.9,3.2l-5,4.5l-4,2.9l-2.9,3.2l-1.8-1.8l-1.2,1.2v1.6l-1.4,0.9l-1.6,1.6l-1,1.2v2.2l-0.8,1.5l-1.5,2.1
		l-2.3,2.3l-2.8,2.1l-1.5,0.6H223l0.8,1.7l0.1,2.1l0.1,1.2l1.8,1.7l2,3.2l0.2,2l-0.1,2.2l0.1,1.3l0.5,1.5l1.1,0.7l0.9,1.7l-0.8,0.8
		l-2.1,0.8l-1.4,1.7l-1.1,2.7l-0.8,3.2l-2.2,4.3l-1.5,3.2v3.4l-0.6,2.3l-0.6,2l-0.8,1.5l-1.2,2l-1.6,2.1l-1.7,0.5l-3.1,0.3l-1.5-0.6
		l-1.7,0.2l-1.3,0.8l-1.9-0.6l-1.4-0.8l-1.4,0.1l-1.8,1.4l-0.6,0.5l-1.2,1H197l-1.9-0.7l-1.2,0.3l-0.9,1.2l-1,1.6l-1.9,2.5l-0.8,1.4
		l-1.4,0.5l-0.5,2.3l0.5,1.2l0.3,1.5l0.5,1.5l0.8,1.5l0.2,1.7l1.7,2.5l1.6,2.6l3.5,5l3.2,2.5l2.6,2.9l-0.3,1.6l0.1,1.4l-1.5,1.5
		l-0.7,1.4l0.8,2.1l-0.5,1.1l-0.8,1l0.3,1.2l-0.5,1.1l-0.3,0.9l-0.7,0.7l-1.3,0.4l-0.8,0.8l-0.2,0.8l-0.1,1.2l-0.1,1.7l-0.1,1.3H193
		l-0.2,1.2l-0.4,2.1l0.4,1.9l1.5,1.4l0.8,2.4l0.6,1.5l1,0.2l1.2-0.8h3l1.3,0.4l2.8-0.3l2.7-0.1l2.7-0.3l1-1.2l1.4,0.2l0.2,1.4h2
		l1.6-0.2l-0.1,3.2l-0.3,2.8l0.6,2.4l0.1,3.8l1,2.6l1,1.7l1.5,1.9l0.3,1.9l0.1,1.1l3.5,0.4l3.5,1.3l1.1,1.5l-0.4-4.1v-5l2-1.4
		l-0.1-2.3l-0.6-0.7l1.6-1.4l4-5.2l2-0.8l1-1.9l0.9-0.6l1.8,0.7l1.2-0.9h2.7h2.2h0.8l0.2-1.6l-0.8-1l-0.1-1.5l-0.1-1.4l-2.4-1.3
		l-1.7-1.3l-1-1.6l0.8-1.2l3.4,0.1l1.4,0.4l2.8-1.5l1-2.3l-2.3-1.5l0.1-1.9l0.8-5.8l3.9-0.9l0.1-7.3l4.6-0.5l5.7-4.6V253l3-1.5V249
		v-3l3.2-0.7l1.1,0.4l1.9-0.4l1.9-2.3l3.9-2.6l2.5-3.2l2.6-6.1l4.2-5.6l2.1-2.1l2.6,0.3V221l-0.5-2.7l2.3-1.3l0.4-5.7l1.2-4.6
		l2.6-5.2l0.7-5.3l0.9-3.7l2.3,0.1l4.1-3.7l5.8-0.8l1.5-2.7l4.8-6.6V172l-0.9-8.4l-2.3-2.5l-3.6-0.8l-3.9-1.5l-2.7-4l-3.3-3.5
		l-1.1-1.8l-0.8-2.5l0.9-1.2l-0.3-6.7l1.6-2.3l0.7-1.6l-3.7-3.8l-2.3,1.1l-0.3-2.3l-3,0.8l-1.5-4.2l1.9-1.2l0.6-2.1l0.9-0.8
		l-0.9-1.5l-1.7-0.4l-2.8-3l1.6-1.8l-0.5-2.5l-2.1-1.3l-2.3,1l-0.7,1.1l-0.2,0.8l-1.2,1.4l-2,0.5l-2.5-0.1l-2,0.1l-2.1,0.2l-0.3,1.5
		l-0.6,1.6l-2.2,1.8l-2,1.5l0.2,2.7l-0.3,0.9l-2.2-1.5l-2.4-2.9l1.7-5.4L265,114.3z"/>
	<g id="Layer_19">
		<text transform="matrix(1 0 0 1 237.0176 214.088)" font-family="'MyriadPro-Regular'" font-size="12">MANABI</text>
	</g>
</g>
<g id="Pichincha">
	<path fill="#E492FF" stroke="#000000" stroke-miterlimit="10" d="M319.5,178.2v-7.3l-0.9-7.3l-1.8-2.8l-7.6-2.2l0.7-3.2
		c0.1-0.4,0.4-0.7,0.9-0.8l7.6-0.9l3.7,0.8l3.4,0.4l0.4-2.9l3.1-5.8l-0.3-15.7l7.6,7.5l9.3,2.2l7,5.5l4.7,1.1l6,0.1l2.2,4.2l5.2-0.1
		l3.2-1l2.9,1.3l2.2,0l6-0.7l5.2,1.6l6.8,0.6l2.7,1.3l1.7,0.7l0.9,0.5l0.4,0.6l0.2,0.3l0.5,0.3l0.2,0.6l0.8,1.4l2.4,2l1.7-0.5
		l1.5,1.3l0.1,0.7l0.2,0.2l1.2,0.3h2.4l0.9,3.2l2.6,1.7l3.3,0.2l3.5-0.2l3.9-2l2.8-1.1l2.2-1.1l6.5,0.4l3.9,1.1v3.4l1.5,1.6l3.3,2.6
		l3.9,0.9l2,4.2l-2.4,1.8l-5.9,2.5l0.4,5.7H443l0.5,2H442h-3l-2.9,1l-0.2,2.6l-2.4,1.4H430l-2.4-1.2l-1.3,1.2l-2.8,1.9V207l-2.9,3.1
		l-1.8,4.1l2,3.3l-2.4,4.4l-1.5,1.7l-0.2,5.4l-3.9,1.1l-0.6,3.5l-0.4,2.1l-1.5,1.3l-2.9,0.5l-1.7,1.3l-1.2,0.9H403l-0.9-1.7
		l-1.5-1.4l-1.7-0.4l-1.8-1.6l-0.1-2l-0.8-0.9H393l-2.5-0.2l-0.7,0.5l-1.6-0.4l-1.7-0.9l-3.4,4.2l-1.6,1.7H378l-1.1-2.4l-0.6-2.5
		l0.8-1.8l-0.3-2l-2.8-1.6l-3.5-0.4l-2-1.3l-0.8-2.5l-0.5-3.1l-2.3-2.4l-2-2.1l-2.9-1.8l-1.8-1.9l3-2.2l5.3,0.3l2.9-0.7l6.3-5.3
		l-1.4-3.3l-2.5-2.4l-4.1-1.7l-0.1-4.4l-2.9-1.7l-2.3-1.2l-2.4,0.4l-0.9,1l-2.1-1h-3l-4.3-0.5l-2.4-1.7l-4.4,0.2H340l4.1-5.3
		l-1.2-0.8l-4.5-0.6l-2.8-0.2l-5.7-2H327L319.5,178.2z"/>
	<g id="Layer_21">
		<text transform="matrix(1 0 0 1 372.9653 187.5615)" font-family="'MyriadPro-Regular'" font-size="12">PICHINCHA</text>
	</g>
</g>
<g id="Imbabura">
	<polygon fill="#DAB2FF" stroke="#000000" stroke-miterlimit="10" points="350.7,117.3 354.2,116.7 358.8,113.8 363.5,113.4 
		365.1,112.6 367.4,113 370.5,111.8 372.2,109.7 380.5,110.2 382.4,111.7 385.4,111.9 387.7,110.8 389.5,108.3 389.5,105 
		394.5,103.1 394.5,101 400.3,98.1 402.8,98.6 406.5,93.5 406.5,91 403.6,89.3 402.6,86.1 396.6,77.5 402,77.5 403.5,75.7 
		402.8,67.5 405,67.5 407.5,69.2 411.5,71 413.3,74 415.9,77 417.4,80.2 420.4,82.3 421.6,84.7 422.4,87.5 427,87.5 428.8,88.1 
		431.7,90.5 435,90.5 441.1,91.5 442.6,93.4 445,95.2 446.2,95.8 448.8,96.2 451,98.2 449.6,99.8 445.8,101 445.2,102.8 
		446.4,104.6 448.8,106.5 451,107.1 450,108.9 446.6,109.7 444.2,111.3 441.4,115.1 441.1,117.3 440.3,119.2 439.9,122 438.1,123.5 
		436,123.5 434,123.5 432.7,126.2 431.7,127.8 430.9,129 429.1,131.7 427,132.9 424.8,135.5 424.5,137.3 424.5,140 423.8,142.6 
		423.4,145.8 422.4,147.9 421,149.5 418,149.5 416.8,151.6 415.3,152.8 414.5,154.5 414.5,158 412.3,161.5 411,161.5 407.7,160.5 
		405.3,158.5 402.8,154.5 397.8,152.2 390.7,151.6 384.5,150.2 377,151 375.8,150 373.8,149.3 370.8,150.5 366,150.5 363.8,146.5 
		360,146.5 356.9,146 353.7,145.4 349.6,143.3 346.2,139.9 344.5,139.3 338.4,137.8 335.2,137 331.1,132 329,130.5 328.2,129.3 
		327,126.8 324.5,125.3 324.5,123 327.7,122.6 331.9,118.7 331.8,115.7 349.6,117.9 	"/>
	<g id="Layer_23">
		<text transform="matrix(1 0 0 1 354.9512 128.3101)" font-family="'MyriadPro-Regular'" font-size="12">IMBABURA</text>
	</g>
</g>
<g id="Tsachilas">
	<polygon fill="#E5FFF6" stroke="#000000" stroke-miterlimit="10" points="293.5,224 293.5,220 293.5,219 295.7,217.3 296.3,211.3 
		297.4,207 299.9,201.5 301.4,192.9 303.5,193.3 307.7,189.3 313.4,188.6 319.9,178.9 329.7,178.3 334.8,179.9 342.6,180.9 
		343.8,181.7 339,186.7 347,186.9 349,188.3 356.8,189 358.9,190 360.3,188.8 362.3,188.5 367.5,190.7 367.5,196 371.3,197.6 
		373.6,199.5 375.3,203 369.1,207.5 366.3,208.7 360.8,207.8 357.2,210.4 359.5,213 362.6,214.8 366.7,219.2 367.2,222.4 368,224.7 
		370.1,226.1 374,226.7 376.2,227.9 376.4,229.8 375.7,231.7 376.4,234.1 377.8,237.1 379.5,238.7 379.5,240 378.3,241.6 
		376.5,243.3 376.5,247 375.6,248.9 374.2,249.7 372.4,250.9 371.5,252.5 370.8,254.9 368.8,257.2 367.9,258.3 367.8,260.8 
		367.5,262.2 367.5,265 366,265.7 363.2,268 362,269.7 361.5,271.2 361.5,273.4 361.5,276 360.5,277.5 358,277.5 357.6,276.5 
		356.8,274.5 355,271.6 351.3,271.2 348.9,270.2 345,265.1 339.8,260.1 336.5,256.2 333.3,255.3 329.6,251.8 325.8,249.9 
		319.5,248.1 312.4,245.3 307.4,238.2 303.2,235.2 298.9,232.8 295,230 	"/>
	<text transform="matrix(1 0 0 1 302.8129 226.5)" font-family="'MyriadPro-Regular'" font-size="12">TSACHILAS</text>
</g>
<g id="Guayas">
	<polygon fill="#FFEFB4" stroke="#000000" stroke-miterlimit="10" points="247.1,292.6 247.9,290.6 247.5,289.5 247.5,287 
		243.8,284.1 242.6,282.7 243.3,282 246.1,282.3 247.5,282.8 250.8,281.2 252.1,278.2 249.6,276.6 250.5,269.4 254.4,268.5 
		254.7,261.3 258.7,260.8 264.5,255.9 264.5,253 267.5,251.6 267.5,246 270.7,245.6 271.6,246.2 274.1,245.6 276,243.3 279.8,240.9 
		282.4,237.6 285.1,231.5 289.2,225.9 291.1,224 292.9,224.4 294.5,230.2 302.8,235.5 307.1,238.6 312.5,245.1 312.5,247 
		313.1,249.7 313.3,251.2 314.5,253.7 314.5,254 315.5,256 315.5,257 316.5,260.3 316.5,262 316.5,265 316.1,266.4 315.8,269.2 
		315.4,272 315.3,274.5 314.9,275.5 314.5,277.5 313.8,278.8 313.3,280.8 313.5,283.5 312.8,284.6 311.3,286.1 311,287.9 
		309.9,289.5 308.3,291.2 306.8,292.4 304.6,294.6 303.9,297.3 302.8,298.7 301.1,300.5 299.2,301.9 297.4,303.4 296.8,304.6 
		296.5,306 295.6,306.8 294.3,307.4 292.5,309.2 292.4,311.7 291.1,313 289.8,314.4 287.7,315.6 287.3,317.5 286.2,319 284.6,320.4 
		284.2,322.2 283.6,323.5 282.3,324 280.1,324.7 279.5,321.9 280.7,317.7 280.9,316.1 280.5,313.4 277.5,309.8 278.4,305.3 
		277.7,302.3 274.8,299.3 272.8,295.7 271.3,294.7 267.9,295.1 264.9,296.1 262.6,297.4 258.6,296.1 255.8,294.5 253,294.5 	"/>
	<text transform="matrix(1 0 0 1 259.4717 271.3115)" font-family="'MyriadPro-Regular'" font-size="12">GUAYAS</text>
</g>
<g id="LosRios">
	<polygon fill="#FFF364" stroke="#000000" stroke-miterlimit="10" points="283.7,323.5 285.2,320.8 287.8,317.4 288.2,315.9 
		290.3,314.9 292.8,312 293,309.4 294.7,307.9 295.9,307.3 297,306.4 297.4,304.7 297.9,303.7 301.5,300.9 304.4,297.5 305.1,294.8 
		307.2,292.7 310.4,289.8 311.6,288.1 311.8,286.3 313.4,285 314.1,283.6 313.9,280.7 314.4,278.9 315.1,277.6 316,274.7 
		316.1,272.1 316.8,266.5 317.5,265.3 317.1,260.3 316.1,256.9 316.2,256 316.2,255.8 315.2,253.9 315.3,253.4 314,251 313.7,249 
		313.3,247.4 313.2,246.8 312.9,246 314.6,246.9 315.4,247.1 317.8,248 318.9,248.6 322,249.5 324.5,250.3 325.5,250.5 329.1,252.3 
		333,255.7 336.1,256.7 339.4,260.5 344.2,265.2 345.2,266.6 347.5,269.5 348.3,270.6 351,271.9 354.6,272.4 356.1,274.8 
		357.2,277.9 357.3,278.3 357.5,279.1 357.5,280 357.5,281 357.8,282.4 357.6,283 357.5,283.8 357.5,285 357.6,285.9 357.3,286.4 
		357.4,287.2 357.4,288.2 357.5,288.8 357.5,290 357.5,290.6 357.4,291.7 356.8,292.5 356.8,293.3 356.6,294.2 356.3,295.3 
		355.8,296.6 355.8,297.1 355.4,297.5 355,298.1 354.5,298.7 354.3,299.2 353.7,299.7 353.5,300.4 353.2,300.9 352.5,301.4 
		351.8,302.6 351.1,303.7 350.8,305.2 350.4,307.4 350,308.3 348.8,310.5 347.8,312.5 347.6,314.9 344.9,316.9 344,319.1 
		343.2,320.8 342.2,322.4 341.1,323.8 339.6,325.5 338.9,327.4 338.2,330.5 336.5,331.9 334.9,335.2 333.6,338.6 331.7,341.3 
		329.6,344.3 328,346.9 327.2,349.3 325.3,352.4 320.7,354.3 319.5,351.2 319.5,346 317.7,341.8 312.7,339.4 311.7,334.9 307,335.7 
		305.6,339.3 300.3,338 299.2,334.9 296.9,332.7 291.5,328 286.2,324.7 	"/>
	<g id="Layer_27">
		<text transform="matrix(1 0 0 1 304.9893 304.3301)" font-family="'MyriadPro-Regular'" font-size="12">LOS RIOS</text>
	</g>
</g>
<g id="SantaElena">
	<polygon fill="#FFE79D" stroke="#000000" stroke-miterlimit="10" points="229.5,316.4 229,314.5 229.5,307 231.5,306 231.5,303 
		230.4,302.3 235.7,295.5 237,295.5 238.8,293.1 240.6,293.6 242.6,293.1 246.8,292.5 252.8,295 255.6,295 257.9,295.7 262.7,297.9 
		268.2,295.9 271.5,295.3 272.6,296.4 274.3,299.8 277.8,302.8 278.3,305.8 277.3,309.1 280.5,312.9 280.5,317 278.8,321.8 
		279.8,325.3 277.9,330.9 276.9,337.7 272.7,340.3 270.3,344.3 265.1,353.3 261.4,355.7 258,359.9 255.9,368.3 252.6,372.6 
		248.6,374.6 245,377.5 240.9,379.5 238,379.5 234.1,380.2 233.1,377.2 236.3,372.6 240.4,368.9 238,365.6 235.2,360.1 233.9,353.6 
		232,344.4 226.5,336.3 226.5,326 228.1,318.5 	"/>
	<g id="Layer_29">
		<text transform="matrix(1 0 0 1 231.3779 321.7578)"><tspan x="0" y="0" font-family="'MyriadPro-Regular'" font-size="12">SANTA</tspan><tspan x="0" y="14.4" font-family="'MyriadPro-Regular'" font-size="12">ELENA</tspan></text>
	</g>
</g>
</svg>
