<?xml version="1.0" encoding="UTF-8" standalone="no"?>
<!-- Created with Inkscape (http://www.inkscape.org/) -->

<svg
   xmlns:dc="http://purl.org/dc/elements/1.1/"
   xmlns:cc="http://creativecommons.org/ns#"
   xmlns:rdf="http://www.w3.org/1999/02/22-rdf-syntax-ns#"
   xmlns:svg="http://www.w3.org/2000/svg"
   xmlns="http://www.w3.org/2000/svg"
   xmlns:sodipodi="http://sodipodi.sourceforge.net/DTD/sodipodi-0.dtd"
   xmlns:inkscape="http://www.inkscape.org/namespaces/inkscape"
   width="350.00003"
   height="351.11401"
   id="svg6305"
   sodipodi:version="0.32"
   inkscape:version="0.48.4 r9939"
   version="1.0"
   sodipodi:docname="Europe.svg"
   inkscape:output_extension="org.inkscape.output.svg.inkscape">
  <defs
     id="defs6307">
    <linearGradient
       id="linearGradient15386">
      <stop
         style="stop-color:#35a5ec;stop-opacity:1"
         offset="0"
         id="stop15388" />
      <stop
         style="stop-color:#2681da;stop-opacity:1"
         offset="1"
         id="stop15390" />
    </linearGradient>
    <inkscape:perspective
       sodipodi:type="inkscape:persp3d"
       inkscape:vp_x="0 : 526.18109 : 1"
       inkscape:vp_y="0 : 1000 : 0"
       inkscape:vp_z="744.09448 : 526.18109 : 1"
       inkscape:persp3d-origin="372.04724 : 350.78739 : 1"
       id="perspective6313" />
  </defs>
  <sodipodi:namedview
     id="base"
     pagecolor="#ffffff"
     bordercolor="#666666"
     borderopacity="1.0"
     inkscape:pageopacity="0.0"
     inkscape:pageshadow="2"
     inkscape:zoom="5.3322309"
     inkscape:cx="169.03553"
     inkscape:cy="63.77205"
     inkscape:document-units="px"
     inkscape:current-layer="g11"
     showgrid="false"
     inkscape:window-width="1301"
     inkscape:window-height="744"
     inkscape:window-x="65"
     inkscape:window-y="24"
     inkscape:window-maximized="1" />
  <metadata
     id="metadata6310">
    <rdf:RDF>
      <cc:Work
         rdf:about="">
        <dc:format>image/svg+xml</dc:format>
        <dc:type
           rdf:resource="http://purl.org/dc/dcmitype/StillImage" />
      </cc:Work>
    </rdf:RDF>
  </metadata>
  <g
     inkscape:label="Capa 1"
     inkscape:groupmode="layer"
     id="layer1"
     transform="translate(426.42858,146.05196)">
    <g
       id="g11">
      <path
         style="fill:#003399;fill-opacity:1;fill-rule:evenodd;stroke:none"
         d="m -147.06656,-86.807166 -13.97573,3.392651 0,2.886285 5.31685,2.886285 -1.92418,2.430556 0.96208,2.37992 -4.35475,-2.886285 -1.41782,5.31684 -4.35475,2.886285 0,2.886284 -3.84838,1.924189 -1.46844,-4.354746 1.46844,-2.379917 -1.46844,0.962095 -0.96209,6.228299 -1.41784,-1.92419 -6.27892,8.709492 2.43053,1.417822 -3.39263,1.924191 1.46845,4.810471 -3.84839,1.924179 -4.35474,-2.886267 3.39265,-4.304111 -1.46845,-1.924192 -10.12732,-0.962093 3.84838,1.924189 6.27894,16.355609 -6.73466,-2.430548 -2.88629,5.316846 -1.46846,3.392619 -0.30381,1.215286 1.77227,2.633107 2.37992,3.342022 -1.41783,0 -5.31683,0 -0.9621,1.924178 0.9621,-2.379903 -5.26621,-0.962107 -0.50636,3.34201 5.77257,1.92419 -0.9621,4.354763 -9.62095,-3.392668 -3.39266,-6.228295 0.96211,-3.848368 -6.22831,-1.468466 1.9242,-1.417832 -6.27896,-4.354739 22.63457,2.430561 1.92418,-3.392656 2.43056,-5.772558 -6.12702,-4.658581 -0.15191,-0.151912 -0.96211,-0.962087 -13.97568,-4.810471 -4.3041,0.45573 -0.96211,3.392653 0.45572,-3.848383 -3.34199,0.45573 -0.96211,-2.379919 2.88627,0 -2.88627,-1.468461 -1.92419,3.39265 -2.93692,-1.924189 -1.41783,1.924189 -2.43055,-2.430556 -0.96208,-0.962094 4.35472,0 1.92419,-2.886287 -5.77257,-2.430554 -2.43056,3.39265 1.46847,-3.848381 -2.43055,-0.962094 -0.9621,4.810475 -1.41782,0.962096 0,-4.354746 -2.88631,6.785302 0.96212,-5.823207 -2.88627,-0.962095 -2.43056,7.747395 -4.75984,-2.987557 0.45571,2.987557 0.96211,1.924192 -2.43056,-1.924192 -3.39265,4.810479 -0.45573,0.455723 0.45573,-0.96209 0.96209,-4.304112 -0.96209,1.924192 -0.96209,2.37992 0,-2.886286 -1.92418,1.468459 1.46844,2.886282 -3.39264,-1.924192 -1.41783,5.772573 -3.39265,0.962091 3.84837,0.962108 -4.30409,0 0,4.304105 -0.96211,-3.342022 -2.43055,1.41782 1.9242,0.962107 -2.88631,0 2.43057,2.430548 -4.35474,1.924191 2.88628,1.417819 -5.77258,1.012741 1.41784,0.962083 -3.34202,4.304117 3.34202,-0.455724 -4.81048,1.41782 1.46846,1.92419 -1.46846,-0.962095 -2.37991,4.810463 2.88628,0 -5.77259,2.430548 2.88631,-0.506358 -2.88631,1.924203 1.41784,1.924178 -2.37992,0.962095 -0.50637,-2.379915 -5.77256,6.278941 2.88629,0.9620826 3.84836,-3.3926556 -1.92417,4.8104877 -3.8484,0.5063704 -0.45571,-2.4305606 -3.89904,0.9620829 -0.45571,4.3547508 -2.43056,-1.9242025 1.9242,2.8862976 -4.81047,-2.8862976 3.39263,2.3799396 -6.27894,-0.4557371 2.43058,4.30410526 -1.46848,-1.92417796 -0.9621,1.46845321 -1.92417,-0.96209511 0.96207,1.41781986 -3.84835,-1.92417796 0,1.92417796 5.31683,1.46846554 -5.31683,-0.96209516 -1.41784,1.92417796 2.88629,1.4178199 -3.39264,-0.4557125 2.43054,0.9620951 -2.48681,1.080266 c 1.35046,-0.2128486 1.51657,-0.2706635 1.59949,-0.2598692 0.0829,0.010794 -0.7144,0.090198 0.30329,0.151786 -0.004,0.1510854 0.2422,0.061777 -0.13529,0.1857428 -0.75497,0.2479278 -1.04094,0.012723 -1.16642,0.2278116 -0.12548,0.2150886 -0.0905,0.8804707 -1.32873,0.3040298 l 2.25238,2.1586015 -2.43057,0 0.96212,1.9242152 1.92419,-0.9621078 -2.88631,2.4305608 0.50638,1.924178 1.92419,-1.924178 -1.92419,3.848368 6.73465,-3.392643 -8.20313,5.77257 0.9621,1.924178 3.84839,-1.417832 -3.34201,2.88631 2.88628,0.962095 -1.46845,1.417845 -2.37993,-1.924215 -0.50638,3.392655 4.35476,5.266201 4.81048,0 6.2283,-6.734641 3.39265,0.96207 1.92419,-6.22832 0.35446,7.848698 -0.10128,0 0.25319,4.202826 1.82293,-0.405103 c 0,0 -0.30482,1.505663 -0.50639,2.481206 l -0.35446,1.26592 1.01275,-1.519112 c 0.41774,-0.62063 0.8102,-1.265932 0.81018,-1.265932 l -1.31657,4.152218 -0.0506,0.101267 3.79776,8.96268 -1.87357,1.721669 -0.45573,0.354434 0,0.05063 0.91147,7.190391 5.87383,0.557016 2.78502,-5.772583 4.9624,0.860816 3.79771,-10.076664 -0.20252,-2.430548 -0.0506,-0.455749 -0.2532,-4.759818 0.70893,-0.101279 1.21527,0 -1.5191,-0.759562 -1.16464,-0.658258 1.2659,-0.253191 3.79776,-0.708904 0.15191,-0.860828 0.45573,-1.721645 0.86082,2.582473 1.2659,-1.265932 2.12674,-1.924166 -0.1519,-0.101291 0.10128,-0.101279 -1.114,-0.658283 -0.20257,-0.1519 -0.0506,0 -0.91145,-0.658258 0.20253,-0.151912 0.20256,-0.101279 0.35445,-0.253179 2.98757,-1.873557 -2.27866,-3.645847 -0.20252,-0.354446 -1.31656,-2.228015 -3.39265,-1.012716 2.37991,-17.1658126 1.16465,1.0127408 0.75954,0.7595371 6.12702,-5.215567 0.10128,-0.101279 2.43055,-2.3799149 0.0506,-0.1519001 2.83565,-4.6585883 -0.0506,-0.101254 -1.31653,-6.481487 0.81016,0.506371 0.10128,0.05065 0.96211,0.708903 -0.20256,-1.772278 -0.25318,-2.481181 0.60764,0.354458 1.72164,1.063362 0,-0.05065 0.0506,0 0.0507,-0.354458 0.0506,-0.1519 0,-0.101291 0.50636,-2.278624 5.62067,0.50637 3.39265,5.772546 -13.46932,17.267079 -0.0506,0.050633 2.43055,9.6715848 -0.96209,6.7346662 4.35475,2.886273 0.35447,-0.253167 0.0506,-0.05065 0.0506,-0.05063 1.41782,-0.911461 -0.10125,0.911461 -0.35447,3.240756 0.10128,-0.05067 20.60909,-8.608186 0.50637,2.886273 6.73465,1.924203 -8.20312,2.379902 -0.45574,2.734398 0,0.05062 -4.35475,-0.354446 -0.86081,-0.101267 -0.0506,0 -3.44329,-0.405103 -6.88659,3.240731 -1.41784,0.65827 1.51912,6.785312 3.44328,0.101279 -0.50637,7.747394 -1.21526,1.063374 -1.46848,0.962083 -2.22801,-2.531815 -0.1519,-0.202546 -2.12674,-2.886285 -3.84838,1.92419 -0.35444,1.012729 -0.15193,0.3038 -0.10129,0.303837 -2.48117,6.076383 0.91145,6.785311 0.35448,2.228015 0.35444,3.038186 -2.88629,0 2.17737,-5.266201 -2.17737,4.304093 -2.43055,0.962108 0,2.430548 1.92419,-0.506358 -1.77227,1.417795 -0.0506,0 -0.30382,0 -0.0507,0.253204 -2.63308,1.721632 2.43054,-2.886273 -4.81048,1.924203 -3.84838,-3.848393 -14.48206,5.266225 -0.45574,3.392631 -6.73465,-6.734666 -9.67158,2.379915 1.46846,-3.34201 -4.35475,0 -2.37992,-4.354726 1.41784,-6.278966 6.73465,-4.810476 -3.34202,-2.379902 3.34202,-7.241037 -9.11458,3.392681 -4.35475,17.3177 1.9242,-0.455762 0.96207,2.88631 -1.92418,0.962083 4.81049,6.734678 -4.81049,-3.392668 -1.41782,3.84838 -1.92419,-2.886285 -3.84839,0 0.96211,2.886285 -6.78531,-2.379927 -2.88628,1.924215 1.46844,3.848368 -2.88628,1.41782 -1.46844,-5.266188 -4.81046,6.734666 2.43054,2.430548 -5.77258,0 3.34204,2.379903 -12.50724,0.50637 -0.9621,5.266213 -1.92421,0.506358 -7.69675,3.34201 -7.74741,-5.772571 0,8.658869 -6.22829,-0.962095 -0.96207,-3.342023 -8.65886,0 2.37989,2.886298 -2.37989,-0.962083 0,3.848356 8.65886,5.316834 0.96207,8.152509 2.8863,2.43054 -1.92419,4.3041 0.45571,1.01274 -6.73466,14.43143 -26.98929,-10.58304 -2.37993,-3.39266 -9.62094,1.46847 1.92419,6.73466 -6.27894,14.43141 -6.73465,7.69676 2.88627,0 -2.43055,2.8863 2.93691,1.46845 -0.96208,0 -3.89902,8.65886 11.59578,2.88627 4.30411,11.54515 8.20314,-2.3799 12.50721,4.81047 5.31684,-4.35474 4.30413,0.50635 2.43055,-4.81047 2.88627,-0.9621 1.92421,-0.50634 -0.96211,-1.41783 -1.41783,-1.92421 1.41783,-4.35474 1.46845,-0.96208 7.19041,-6.27895 13.01361,-2.88629 0,-7.1904 2.88627,-2.93691 4.35476,-0.9621 10.58303,6.27894 15.39352,-7.69676 7.24104,4.81047 3.39264,12.05151 24.55875,19.74826 2.88628,8.65886 -3.84838,5.77255 2.37991,0.96213 3.39267,-6.27895 3.84837,-1.41782 -3.84837,-5.31684 2.37991,-4.81049 5.31684,0.9621 2.88628,3.84839 0.9621,-2.37993 -14.43144,-10.63369 1.41783,-2.88627 -7.69676,-1.92418 -5.26619,-11.54515 -6.27895,-5.2662 -0.50636,-9.16522 7.24102,-1.92422 0.557,2.27866 0.91145,5.21559 3.79775,-3.5952 6.78532,13.87442 4.7092,0.91144 4.20284,3.69648 0.40509,0.91143 6.27895,2.88631 4.10154,4.60792 -1.97482,10.58306 3.49392,4.10156 0.91146,1.21527 0,-0.35444 4.10156,5.51938 2.48121,-0.65827 -2.02548,1.67098 2.02548,3.29139 12.5072,1.11401 -1.82289,1.31654 -9.06397,-1.21525 -1.41781,2.27863 3.29138,7.69674 2.78501,-1.77227 2.02547,4.50666 0.91144,-3.0382 3.29137,2.43056 -2.5318,-7.79802 4.50665,0.81018 -3.08883,-3.34202 3.19009,-1.3672 2.88629,2.58248 0.20255,-3.39265 -9.2665,-4.50665 2.68373,-1.46847 -0.20252,-2.43055 2.12672,0.81018 -4.60793,-8.91206 2.07609,-0.96207 5.82321,4.45603 -1.21525,-2.88631 3.69645,1.01274 -4.20284,-4.10155 8.20314,-2.27864 5.41811,1.06335 0,-0.0506 4.25347,0.8608 -0.74046,2.82135 4.58883,-5.70763 8.1525,-0.9621 -5.67128,-6.73465 -2.48122,-2.98759 -1.8229,0.45575 5.72194,-8.65884 0.20254,-5.5194 0.20252,-5.21556 0.86083,1.41782 0.10128,0.25318 3.39264,-1.92421 -0.96208,-7.24102 0.75955,1.51911 0,0.0506 0.20253,0.35445 0.65829,-1.26588 2.73438,-3.03821 0.96209,-3.8484 5.77257,-3.39263 2.88629,2.43056 -5.31685,0.45571 2.88629,0.50636 -0.96209,1.41783 9.62096,-0.96209 0.50636,2.43057 -5.31685,4.3041 3.39265,-0.9621 1.9242,6.27894 3.39263,0.45573 4.44308,-4.07543 -1.0841,-4.07706 0.48941,0 -3.39266,-3.39266 2.88631,-5.2662 -0.45573,3.34201 3.84837,-5.31684 15.39351,-8.65886 -1.92418,5.31685 -4.35476,0.96212 3.39268,2.43055 -2.43056,7.19037 -4.30412,2.8863 20.204,7.69676 9.1652,2.88628 2.17738,3.74712 0.2532,0 3.64581,-0.60766 3.03821,0.60766 2.83564,-1.2153 1.82293,-0.40508 7.34229,-0.20255 3.44329,1.82293 2.02547,0 2.6331,1.8229 5.51937,1.41781 1.41782,-0.40506 1.82294,-0.8102 5.873833,-0.20255 3.747102,1.51911 -0.860817,-5.16494 3.848393,-3.84838 -5.316858,0 -13.469323,-9.62094 -2.88629,-8.20312 -0.50636,2.93692 -6.22831,-6.27893 0.45575,-9.165225 6.27892,-3.342034 0.45573,-6.278929 6.73468,-7.696749 1.87355,-0.658295 0,-1.670999 -1.62037,-2.025457 -1.82291,-1.620365 -0.8102,-3.493935 -1.21529,-4.658563 -7.3423,-6.278929 -1.62036,-5.1143 0,-2.228003 3.4433,-3.240756 2.63308,-1.822899 2.68375,-2.228002 3.64584,-2.835652 4.65856,-1.620403 4.253462,-1.012716 2.43056,-1.468453 3.696481,-0.202546 1.417807,-1.620365 1.417832,-0.405116 0.607637,1.417832 2.228015,0.405091 2.228003,-1.620353 0.810183,1.012728 0.253167,-1.367198 -2.177345,-4.304093 2.177345,4.253459 0.35447,-2.025444 2.025469,0.405079 2.430548,-2.430561 1.063375,-1.417832 -1.671012,-3.645823 -1.012728,-0.607649 -1.215274,1.417832 -1.620378,-0.810183 -1.822911,1.012741 -0.810171,-0.810195 -1.822936,-0.202546 0.202546,-1.822911 -5.671292,-1.62039 -2.481169,-0.202533 -0.810208,-0.810183 0,-0.860816 -1.62039,-1.620378 -0.607624,-7.29167 -1.012729,-1.41782 -2.228003,-0.202545 -1.41782,1.215286 -1.62036,3.443277 -1.41785,2.430561 -1.62036,0 -0.8102,0.607624 -6.9372,-3.240743 -1.82291,-1.822911 0.60764,-2.02547 4.70921,-4.4560051 1.21525,-3.8990264 -1.21525,-2.6330817 -1.87357,-0.8101951 -3.44328,0 -2.02547,-1.62036557 -0.40509,-4.86112123 1.01273,-2.8356398 -4.05092,-10.7856041 -2.63312,-7.089111 -3.03817,-5.519392 -1.67102,-1.620365 0,-2.025457 0.40509,-0.810195 -11.74768,-16.254326 2.43054,-9.77286 1.82292,-10.734954 -1.01272,-7.949941 -1.01274,-0.60764 -6.32957,-4.962384 -3.94966,-0.557004 z m -118.48964,35.192421 -1.92416,3.848369 3.39264,-2.886279 z m -6.22826,3.848369 -2.43058,2.379916 1.41782,0.962099 z m 0.96208,0.455737 -1.97484,4.810468 2.43058,-1.92419 z m -83.34781,60.206882 -2.37992,5.772583 -2.9369,-1.417832 -0.45574,5.772558 -3.84839,1.417832 4.30413,1.92419 -6.73467,8.709478 3.39263,-2.886274 2.8863,-1.92419 0.45574,2.886286 -1.41785,-0.962096 -3.84838,7.190403 0.45575,1.924178 0.50635,-1.417832 7.69676,1.417832 -3.84837,2.886273 0.9621,3.848405 1.9242,-0.962107 -2.8863,4.861109 1.46847,1.924202 -6.78531,-1.468477 -3.34201,2.430548 3.34201,0 -0.45572,2.88631 -7.69677,2.886273 7.1904,6.228296 5.31682,-1.417808 -4.35473,3.341998 -5.26619,-1.92419 -9.16524,5.772595 9.62095,1.974811 1.92418,-2.936919 15.44417,4.354727 7.19039,-0.962083 0.50638,-1.41782 -4.81048,-2.430548 2.88628,0 5.2662,-5.316859 -0.96209,-3.84838 -5.26622,-1.41782 -0.50635,0 1.46846,-4.354751 0,-0.455725 -0.50637,-0.962107 -2.37991,-0.962071 3.34199,0.455713 0.50639,-2.379915 -3.84838,-4.861109 -0.50638,-11.038783 -6.2283,-3.848369 5.26622,0.962096 -2.8863,-1.924191 3.84838,-0.506345 5.31686,-6.278954 -10.12735,-2.886285 8.20315,-6.228308 z m -20.71036,19.292535 -4.81047,2.379915 2.88627,1.468454 -2.88627,2.379939 -6.27893,-2.886322 0.96211,3.848417 -3.8484,1.468454 4.81048,3.848368 -6.22831,2.886285 5.26623,1.41782 -8.1525,-0.455725 2.37991,1.924215 -3.34203,0.962083 3.34203,1.468465 -3.34203,0.455713 3.34203,0.506382 -2.37991,1.417833 8.65884,0.506345 8.20313,0.455725 4.3041,-13.013594 4.81049,-1.41782 -0.45574,-6.734678 -5.31682,0 2.43056,-0.962096 -1.46849,-1.924178 -2.37992,2.379915 z m 135.35158,144.466162 -2.43056,0.96209 9.16521,5.77255 -1.46845,-4.30411 z"
         id="path4103"
         inkscape:connector-curvature="0"
         sodipodi:nodetypes="cccccccccccccccccccccccccccccccccccccccccccccccccccccccccccccccccccccccccccccccccccccccccccccccccccccccccccccccccccccccccccccccccccccccccccccccccccscssccccccccccccccccccccccccccccccccccccccccccccccccccccccccccccccccccccccccccccccccccccccccccccccccccccccccccccccccccccccccccccccccccccccccccccccccccccccccccccccccccccccccccccccccccccccccccccccccccccccccccccccccccccccccccccccccccccccccccccccccccccccccccccccccccccccccccccccccccccccccccccccccccccccccccccccccccccccccccccccccccccccccccccccccccccccccccccccccccccccccccccccccccccccccccccccccccccccccccccccccccccccccccccccccccccccccccccccccccccccccccccccccccccccccccccccccccccccccccccccccccccccccccccccccccccccccccccccccccccccccccccccccccccccccccccccc" />
    </g>
  </g>
</svg>
