<?xml version="1.0" encoding="utf-8"?>
<!-- Generator: Adobe Illustrator 18.0.0, SVG Export Plug-In . SVG Version: 6.00 Build 0)  -->
<!DOCTYPE svg PUBLIC "-//W3C//DTD SVG 1.1//EN" "http://www.w3.org/Graphics/SVG/1.1/DTD/svg11.dtd">
<svg version="1.1" id="Layer_1" xmlns="http://www.w3.org/2000/svg" xmlns:xlink="http://www.w3.org/1999/xlink" x="0px" y="0px"
	 viewBox="0 0 960 560" enable-background="new 0 0 960 560" xml:space="preserve">
<g id="Greenland">
	<g id="path27138">
		<path fill="#B3B3B3" d="M298.8,75.9l7.8-7.8c0,0,0-3.3-0.9-3.6c-0.9-0.3,1.4-2,1.4-2l2.6-0.1l2.9-1.4l1.4-2c0,0,7.4-4,8.8-3.7
			S326,57,326,57l1.7-0.3l2.6-2l5.5-2.4l10.8-7.2l2-0.3l2.9,0.4l1.5,0.6l2.6,0.4h1.5l9.5,0.9l1.8,0.3l5.7,5.7L378,53l3.1-1.7
			l4.3-1.7l-2,3l-3.7,4.7c0,0-1.8,4.2-1.7,4.3c0.3,0.1,0.8,3.6,0.8,3.6s-0.6,5.3-0.3,5.6c0.3,0.3,1.8,2.9,1.8,2.9l-2.2,3l0.2,1.9
			l-2-0.1l-2.6,2.2l1.1,3.4l4.5,4.4l-3.7,1.3l-6.6,0.7l-4,1.7l-4.9,4.4l-5.7,5l-6.5,3c0,0-2.6,0.9-3.4,2.6s-4,8.8-4,8.8l-1.2,4.4
			c0,0-0.5,3.6,0,3.2c0.5-0.3-1.5,1-1.5,1l-2.6-1.4l-5.7-4.4l-4-3l-0.8-3.3l-2.2-6.7l-0.5-1.4l2-2l1.1-3.3l-3.1-4l0.2-0.4l0.5-0.1
			c0,0,0.6-1.3,0.3-2c-0.2-0.7-0.9-2.4-0.9-2.4l-1.8-3.4c0,0-2.8-4.4-5.4-5.5c-2.6-1-4.5-4.3-4.5-4.3l-2.3-1.4l-1.8,0.1l-1.2,0.7
			l-0.5,0.1l0.5-0.4l-2,0.1L298.8,75.9z"/>
		<path fill-opacity="0" stroke="#000000" stroke-width="2.000000e-03" d="M298.8,75.9l7.8-7.8c0,0,0-3.3-0.9-3.6
			c-0.9-0.3,1.4-2,1.4-2l2.6-0.1l2.9-1.4l1.4-2c0,0,7.4-4,8.8-3.7S326,57,326,57l1.7-0.3l2.6-2l5.5-2.4l10.8-7.2l2-0.3l2.9,0.4
			l1.5,0.6l2.6,0.4h1.5l9.5,0.9l1.8,0.3l5.7,5.7L378,53l3.1-1.7l4.3-1.7l-2,3l-3.7,4.7c0,0-1.8,4.2-1.7,4.3c0.3,0.1,0.8,3.6,0.8,3.6
			s-0.6,5.3-0.3,5.6c0.3,0.3,1.8,2.9,1.8,2.9l-2.2,3l0.2,1.9l-2-0.1l-2.6,2.2l1.1,3.4l4.5,4.4l-3.7,1.3l-6.6,0.7l-4,1.7l-4.9,4.4
			l-5.7,5l-6.5,3c0,0-2.6,0.9-3.4,2.6s-4,8.8-4,8.8l-1.2,4.4c0,0-0.5,3.6,0,3.2c0.5-0.3-1.5,1-1.5,1l-2.6-1.4l-5.7-4.4l-4-3
			l-0.8-3.3l-2.2-6.7l-0.5-1.4l2-2l1.1-3.3l-3.1-4l0.2-0.4l0.5-0.1c0,0,0.6-1.3,0.3-2c-0.2-0.7-0.9-2.4-0.9-2.4l-1.8-3.4
			c0,0-2.8-4.4-5.4-5.5c-2.6-1-4.5-4.3-4.5-4.3l-2.3-1.4l-1.8,0.1l-1.2,0.7l-0.5,0.1l0.5-0.4l-2,0.1L298.8,75.9z"/>
	</g>
</g>
<g id="NorthWestTerritory">
	<path id="path11771" fill="#999999" d="M279.7,141.9c1.4-2,5.4-6.2,6.9-6.7c1.7-0.9,2.8-0.7,1.2,0.1c-3.2,1.7-9.5,8.3-7.8,8.3
		c0.2,0,0.9-0.7,1.5-1.7c1.4-2,5.4-5.6,6.9-6.2c0.5-0.1,1.5-0.3,2.3-0.3s1.5-0.1,1.8-0.3c0.8-0.4,1.4-2,1.4-3.4c0-2.4,2.5-4,5.8-4
		c1.4,0,2-0.3,4.8-2.6c3.7-3,3.8-3.4,4.6-5.6l0.5-1.7l0.3,1.1l0.3,1.1l0.2-1c0-0.6,0.3-1.3,0.8-1.4c0.8-0.4,0.8-0.4,0-0.4
		c-0.5,0-0.9-0.1-1.2-0.1s-0.9-0.9-1.5-1.7c-1.5-2.4-3.2-2.6-8.2-0.3c-3.2,1.4-4.3,1.3-6-1.7c-0.6-1.1-1.7-5-2.2-7.8
		c-0.3-1.4,0.6-3.2,2.8-5.7c1.5-1.9,2.8-4,2.3-4.4c-0.5-0.4-4.5,0.3-5.8,1.1c-0.8,0.4-2.2,2-3.1,3.4c-0.9,1.4-2.3,3.2-3.1,3.9
		c-1.2,1.3-1.2,1.4-1.2,6.2c0,4.2-0.2,4.7-0.8,5.3c-1.1,0.9-1.8,0.4-3.4-1.7c-0.8-1-1.5-2.3-2-2.4c-1.2-1.1-2.5,0.4-2.3,2.6
		c0.2,1.6-0.9,3-2.5,3c-1.4,0-6.3-1.3-8-2.2c-0.9-0.4-1.2-0.4-2.5,0.3c-1.1,0.7-1.4,1.3-1.7,2.6c-0.2,0.9-0.5,1.9-0.8,2
		c-0.5,0.4-6,0.9-7.8,0.6c-0.8-0.1-2.2-0.9-3.1-1.6c-2.9-2.4-4.5-3.6-6.2-4.6c-1.4-0.9-1.7-0.9-2.2-0.4c-0.3,0.3-1.1,0.6-1.8,0.6
		c-1.8,0-3.2-1.6-4.3-4.7c-0.3-0.9-1.1-0.9-1.1-0.1c0,0.7-2,1.3-2.6,0.7c-0.9-0.9-2.2-0.4-4.6,1.4c-3.1,2.4-5.5,3.2-10.6,3
		c-2,0-4.5,0.1-5.2,0.3c-1.4,0.3-1.5,0.1-2.5-0.7c-0.5-0.6-0.9-1.3-0.9-1.4c-0.2-0.4-7.1,0.4-7.1,1c0,0.3,2.2,0.1,4.9-0.3
		c1.1-0.3,1.4-0.1,2.2,0.9c1.1,1.4,3.2,1.9,4.9,1.1c0.8-0.3,1.7-0.4,2.5-0.3c2.2,0.4,4.9,0.4,7.1-0.1c2.6-0.7,3.4-1.3,5.7-3
		c1.8-1.6,1.8-1.6,3.4-1.1c0.9,0.3,2,0.3,2.3,0.3c0.3-0.1,0.8-0.1,0.8,0.1c0,0.6-1.8,0.6-3.1,0c-0.9-0.4-1.2-0.3-3.1,1.3
		c-3.1,2.7-5.1,3.3-10.5,3.4c-2.6,0-5.5,0.1-6.8,0.3c-1.8,0.3-2.2,0.1-3.1-0.6c-0.5-0.4-0.9-1-1.1-1.3c-0.2-0.3-1.1-0.3-3.2-0.1
		c-3.4,0.3-3.4,0.3-3.4,4.9c0,2.2-0.2,3.2-0.8,3.9c-0.6,0.9-0.8,2-0.9,8.8c-0.2,7.5-0.2,7.9,0.8,8.8c0.9,0.9,0.9,0.9,14.9,0.9
		c12.8,0,14.2,0.1,15.2,0.7c0.9,0.7,2.9,0.7,23.8,0.9c18.5,0.1,22.9,0.3,23.8,0.7C278.1,143.8,278.3,143.7,279.7,141.9z"/>
</g>
<g id="Venezuela">
	<path id="path12167" fill="#C8BEB7" d="M283.5,326.7c0.8-1,0.9-3.2,0.5-4.4c-0.6-1.7-0.6-4.2,0.2-5.2s3.1-2,4.5-2
		c0.6,0,1.8,0.6,2.6,1.3c1.2,1,1.8,1.3,3.2,1.3c0.9,0,2.2-0.3,2.9-0.4c1.1-0.4,1.1-0.4,0.9-3c-0.3-3.4,0.2-4,3.2-3.3
		c2.2,0.4,2.2,0.4,3.8-0.9c2.5-1.9,3.5-2.2,4.8-0.9c0.5,0.6,1.1,1.9,1.2,2.6c0.6,3.4,3.4,4.6,10,3.9c4.9-0.4,7.2-1.3,10.5-3.6
		c2.2-1.6,4.5-4.6,4-5.3c-0.6-0.9-2.8-1.3-7.7-1.3s-5.1,0-7.2-1.3c-1.2-0.7-2.5-1.4-2.8-1.7c-1.2-0.9-7.1-6.3-7.8-7.3
		c-1.4-1.9-3.7-2.3-11.2-2.4l-6.8-0.1l-3.7-1.9c-2-1-4.5-2.3-5.4-3c-1.8-1.1-3.1-1.3-4.5-0.1c-0.3,0.3-1.8,1-3.1,1.7
		c-5.5,2.9-5.8,3-8.6,6.7c-1.4,2-3.4,4.2-4.3,4.7c-2,1.4-2.6,2.6-2,4.4c0.3,0.7,0.5,2.4,0.5,3.7c0,2-0.2,2.4-1.1,3.3
		c-0.6,0.6-1.5,1.3-2,1.4c-0.5,0.1-0.8,0.6-0.5,0.7c0.5,0.4,3.2-1.4,3.8-2.7c0.8-1.6,0.9-4.2,0.2-6.7c-0.3-1.4-0.3-1.9,0.3-2.7
		c0.3-0.6,1.2-1.3,1.8-1.7c0.6-0.4,2.3-2.2,3.7-4c2.3-3.2,2.6-3.4,6.3-5.5c2.2-1.1,4.6-2.4,5.4-3c1.8-1,2.3-1,3.8,0.1
		c1.1,0.9,6.8,3.6,9.7,4.9c0.9,0.4,0.9,0.4-0.5,0.3c-0.9-0.1-2.8-0.9-4.2-1.6s-2.6-1.3-2.8-1.3c-0.2,0-1.1-0.4-2-1.1
		c-1.8-1.1-2.9-1.4-3.2-0.9c-0.2,0.1-1.5,1-3.2,1.9c-5.1,2.4-6.3,3.3-8,6c-0.9,1.4-2.8,3.6-4.2,4.7l-2.5,2.3l0.5,3
		c0.3,1.7,0.3,3.6,0.2,4.3c-0.3,1.3-3.1,4.4-4,4.4s2.9,3.2,4.9,4.2c1.1,0.6,3.1,1.6,4.2,2.3c1.1,0.7,3.4,1.9,5.2,2.6
		c1.8,0.7,4.2,1.7,5.4,2.3C280.4,327.7,282.8,327.7,283.5,326.7z"/>
</g>
<g id="Peru">
	<path id="path12223" fill="#CCCCCC" d="M327.7,389.5c1.5-0.9,2.9-1.9,2.9-2.2c0-0.6-1.8-5-3.1-7.3c-0.8-1.6-1.2-2-2.9-2.4
		c-1.7-0.6-2-0.9-2.6-2.3c-0.3-0.9-0.6-2.6-0.6-4c0-2-0.3-2.9-1.8-5.9c-0.9-1.9-2.8-4.4-4-5.7c-1.1-1.3-2.5-2.9-2.8-3.4
		c-0.5-0.9-0.9-1-2.2-1c-2.3,0-7.4-2.7-11.1-5.7l-3.1-2.6l-2.5,0.9c-1.4,0.4-3.7,1.3-5.1,1.7c-2.9,1-6,0.9-7.4-0.4
		c-1.1-1-0.9-2.2,0.6-3.6c0.8-0.7,1.5-1.6,1.5-1.7c0-0.7-1.4-0.4-3.1,0.6c-0.9,0.4-1.8,0.9-2.2,0.7c-0.3-0.1-1.4-1-2.3-2.2
		c-0.9-1-2.5-2.3-3.4-2.9c-2.2-1.1-2.6-2.3-1.5-4.9c0.6-1.6,1.4-2.4,4.2-4.6c1.8-1.4,3.4-2.9,3.4-2.9s-1.4-0.9-3.1-1.4
		c-6-2.4-13.1-6.3-15.7-8.8l-1.7-1.4l-1.4,1.7c-0.8,1-1.4,1.7-1.5,1.7c-0.3,0,0.5-1.4,1.5-2.9c0.5-0.6,0.8-1.3,0.5-1.3
		c-0.3-0.3-0.9,0.3-1.7,1.4c-0.3,0.4-1.4,2.2-2.5,3.9l-2,3l-0.3,5.3c-0.2,3-0.3,5.9-0.2,6.6c0.3,1.3,1.7,2.9,5.5,6
		c2,1.7,2.6,2.6,5.5,8.8c1.1,2.3,2,3.4,5.1,6.3c2.5,2.3,5.1,4.2,7.2,5.3c2.5,1.3,4.6,2.9,7.2,5.5c2.2,2,3.7,3.3,3.5,2.9
		c-0.8-1.9-8-8-11.2-9.3c-0.9-0.4-1.5-0.9-1.5-1c0-0.1,0.2-0.3,0.2-0.3c0.5,0,4.9,2.6,6.8,4.2c5.1,4,6.5,5.5,6.5,7
		c0,0.6,8.5,7.8,9.7,8.3c0.2,0.1,0.8-0.6,1.2-1.4c0.9-1.7,2.2-2.4,3.4-2c0.3,0.1,1.4,0.6,2.2,1c0.8,0.4,2.5,1,3.8,1.1
		c4.3,0.4,4.5,0.6,5.7,2.3c1.4,2,4.3,3.3,7.4,3.3c1.2,0,2.2,0.3,2.5,0.6c0.9,1,1.2,5.2,0.5,6.7c-0.3,0.7-0.6,1.4-0.6,1.7
		C321.4,392.7,324.8,391.3,327.7,389.5z"/>
</g>
<g id="Argentina">
	<path id="path12297" fill="#B3B3B3" d="M307.8,477.7c1.2-0.4,2.8-1,3.4-1.3l1.1-0.6l-1.8-1c-2.6-1.6-5.4-4-5.8-5.6
		c-0.3-0.9-0.3-1.9,0-3.6c0.9-5,2.5-8.3,4.3-10.3l1.1-1l-2.2-1.1c-1.2-0.7-2.5-1.7-2.8-2.2c-0.5-0.9-0.3-1.3,1.4-3.4
		c0.9-1.3,2.2-3,2.8-3.6c0.9-1.1,0.9-1.3,0.3-4.3c-0.3-1.7-0.8-3.4-0.9-3.9c-0.5-1.1,0.8-2,2.8-2c2.8,0,3.7-0.6,4.3-2.6
		c0.6-2,0.9-2.3,3.7-2.6c2.6-0.3,5.8-2.2,7.8-4.4c2.8-3,2.8-3.2,1.5-5.6c-1.4-2.4-1.1-3.2,0.9-3.2c2.3,0,4.8-1.6,6.8-4.2
		c0.8-1,0.8-1.3,0.3-1.3c-0.3,0-0.6,0.1-0.6,0.4c0,0.3-0.8,1.1-1.8,2.2c-1.4,1.3-2.2,1.9-3.4,2c-4.2,0.6-4.8,1.3-2.9,4.2
		c0.9,1.4,0.9,1.9,0.5,2.9c-0.3,0.7-1.7,2.2-3.1,3.4c-2.5,2.2-4.8,3-7.4,3c-1.5,0-2.8,1-2.8,2.3c0,1.7-0.9,2.4-3.1,2.7
		c-0.9,0.1-2.3,0.4-2.8,0.7c-0.9,0.4-1.1,0.7-0.9,3l0.2,2.6l-0.5-2.2c-0.5-2-0.5-2.3,0.2-3.2c0.6-0.7,1.4-1,3.2-1.3
		c2.2-0.3,2.6-0.4,3.1-1.3c0.3-0.6,0.5-1.3,0.5-1.7c0-1,1.4-1.9,3.5-2c3.1-0.3,5.5-1.7,7.8-4.2l2.2-2.3l-0.9-2
		c-1.5-3-1.1-4.7,1.4-4.7c0.8,0,1.8-0.3,2.6-0.6c1.4-0.6,4.5-3.2,4.5-3.9c0-0.1-0.5-0.9-1.1-1.6c-0.8-0.9-1.1-1.7-1.1-2.7
		c0-1.3-0.2-1.6-1.1-1.9c-1.2-0.4-2.9-2.9-3.4-4.6c-0.3-1.1-0.3-1.3-1.5-1c-0.9,0.1-1.4,0.1-1.7-0.7c-0.6-1.3,0.2-2.6,2.8-5.3
		c1.1-1,1.8-2,1.8-2.2c0-0.1-0.8,0.1-1.5,0.7c-5.2,3-7.7,3.6-9.1,2.4l-0.9-0.9l0.9-2.2c0.6-1.6,0.8-2.6,0.6-4
		c-0.3-1.9-0.5-1.9-2.6-1.7c-0.5,0-2.3-0.4-3.8-1c-2.2-0.9-2.9-1.4-3.7-2.7c-0.9-1.4-1.1-1.6-4-1.9c-1.5-0.1-3.4-0.4-3.8-0.7
		c-0.5-0.3-1.4-0.9-2-1.1l-1.1-0.7l-0.8,1.4c-0.8,1.3-2.3,2.4-3.4,2.4c-0.2,0-2.3-1.6-4.8-3.4c-2.9-2.3-4.5-3.3-4.8-3
		c-0.2,0.3-0.3,0.1-0.3-0.4c0-1.3-0.8-1.4-0.9-0.3c-0.3,1.7,0.5,10.9,1.4,14.8c1.1,5,1.1,6-0.3,8.2c-1.4,2.4-1.4,5.6,0.3,8
		c1.1,1.4,1.1,1.9,1.1,5.6c0,3.9,0,4-1.2,5c-0.8,0.6-1.8,2-2.8,3.4c-1.5,2.6-1.8,4.2-0.9,6.7c0.3,0.9,1.1,4,1.8,6.9
		c1.1,4.6,1.4,5.5,2.2,5.7c0.5,0.1,1.4,0.9,1.8,1.4c1.1,1.3,1.2,5,0.2,7.2c-0.3,0.7-1.4,2.7-2.2,4.3c-0.8,1.6-1.4,3-1.1,3.2
		c0.2,0.3,0.9,0.7,1.5,0.9c2.5,0.9,2.6,1.4,2.6,4.6c0,4.7,0.8,6.9,3.2,10c1.2,1.4,2.8,3.2,3.4,3.6s2,1.9,3.1,3.2
		C302,478.4,303.5,479,307.8,477.7z"/>
</g>
<g id="Brazil">
	<g id="path27119">
		<path fill="#B3B3B3" d="M337.1,307.9l11.7,6.3c0,0,5.1,6,9.1,9.5c1.4,1.3,7.7,1,7.7,1l12.9,4.7c4.9,2.4,5.2,4.9,6.5,7.3
			c0.5,4-3.1,4.7-4.2,6.9c-4,4.6-5.7,9.6-5.7,9.6l-5.1,10l-8.2,15.4c0,0-14.3,5.6-14.2,7.2c0.3,1.6-11.8,23-11.8,23
			c-1.1-1.7-2.6-2.6-2.2-5.6c-0.9-0.7-4.3-2-4.3-6c-3.2-0.9-2.5-0.3-2.9-0.9c0.2-2.9,3.1-5,4.8-7.5c-1.4-9.5-5.7-11.5-6.9-12.8
			c-0.5-0.3-0.5-0.3-1.5-1.4c-0.9-0.3-0.9-6.5-0.9-6.5s-1.4-4-10.3-14.6c0.9,1.9-8.9,0.1-14.3-7.6c-1.1-1.7-11.4,5.6-15.8,2.4
			c-1.7-1.3,1.7-5,2.3-5c-0.2-1-0.8-0.7-1.1-0.7c-2.2,1-4.8,3-6.3,0.4l-6-5.3c0.3-2.6,2.8-6.7,8.6-10.3c1.4,0,3.7,1.4,5.1-1l-0.2-4
			c-0.6-1.7-0.5-3.2-0.2-4.7c1.8-2.3,3.8-2.4,4.9-2l4.3,2.2c0,0,2.5,0.6,5.5-1.4V311l4,0.9l2-0.9c0.9-1.4,1.8-2.9,3.5-2.3
			c0.5,0.4,0.9,0.9,1.4,1.4l1.7,4.3l1.7,1.3l3.5,0.9l3.1-0.1c5.8-0.4,8-0.9,10.6-2.4L337.1,307.9z"/>
		<path fill-opacity="0" stroke="#000000" stroke-width="2.000000e-03" d="M337.1,307.9l11.7,6.3c0,0,5.1,6,9.1,9.5
			c1.4,1.3,7.7,1,7.7,1l12.9,4.7c4.9,2.4,5.2,4.9,6.5,7.3c0.5,4-3.1,4.7-4.2,6.9c-4,4.6-5.7,9.6-5.7,9.6l-5.1,10l-8.2,15.4
			c0,0-14.3,5.6-14.2,7.2c0.3,1.6-11.8,23-11.8,23c-1.1-1.7-2.6-2.6-2.2-5.6c-0.9-0.7-4.3-2-4.3-6c-3.2-0.9-2.5-0.3-2.9-0.9
			c0.2-2.9,3.1-5,4.8-7.5c-1.4-9.5-5.7-11.5-6.9-12.8c-0.5-0.3-0.5-0.3-1.5-1.4c-0.9-0.3-0.9-6.5-0.9-6.5s-1.4-4-10.3-14.6
			c0.9,1.9-8.9,0.1-14.3-7.6c-1.1-1.7-11.4,5.6-15.8,2.4c-1.7-1.3,1.7-5,2.3-5c-0.2-1-0.8-0.7-1.1-0.7c-2.2,1-4.8,3-6.3,0.4l-6-5.3
			c0.3-2.6,2.8-6.7,8.6-10.3c1.4,0,3.7,1.4,5.1-1l-0.2-4c-0.6-1.7-0.5-3.2-0.2-4.7c1.8-2.3,3.8-2.4,4.9-2l4.3,2.2
			c0,0,2.5,0.6,5.5-1.4V311l4,0.9l2-0.9c0.9-1.4,1.8-2.9,3.5-2.3c0.5,0.4,0.9,0.9,1.4,1.4l1.7,4.3l1.7,1.3l3.5,0.9l3.1-0.1
			c5.8-0.4,8-0.9,10.6-2.4L337.1,307.9z"/>
	</g>
</g>
<g id="CentralAmerica">
	<path id="path12123" fill="#B3B3B3" d="M260.8,302.3c0.5-0.9,1.4-1.9,2.2-2.4c1.2-0.7,3.7-3.7,3.7-4.4c0-0.1-1.4-0.3-3.1-0.4
		c-4.2-0.3-4.5-0.4-4.5-2.2c0-1,0.3-1.9,1.2-2.9c0.8-0.7,1.5-2.2,2.2-3.2c0.5-1,1.4-2.3,2.2-2.9c0.8-0.6,1.2-1.4,1.2-1.9
		s-1.1-1.7-2.3-3c-3.5-3.3-3.5-4.6-0.2-6.2c0.9-0.4,2-1.1,2.5-1.6c0.6-0.7,0.8-3.6,0.3-5.6c-0.3-1.1-0.5-1.3-1.8-1.3
		c-1.8,0-4.3,1-5.4,2.3c-0.3,0.4-0.9,1.4-1.1,2.2c-0.3,0.9-0.8,1.4-0.9,1.6c-0.9,0.3-7.7-0.1-8-0.6c-0.3-0.1-0.6-1.3-0.8-2.4
		c-0.2-1.1-0.3-2.7-0.5-3.4c-0.2-1.1,0.2-2,1.1-3.9c1.1-1.9,1.2-2.6,0.9-3.4c-0.2-0.7-0.3-1.4-0.2-2c0.3-0.9-0.5-1-0.9-0.1
		c-0.2,0.3-0.3,0.6-0.5,0.4c-0.2-0.1,0-0.6,0.2-1c0.3-0.7,0.2-1.1-0.9-2.9c-0.8-1.1-1.5-2.4-1.7-2.7c-0.2-0.6,1.1,0.6-0.5-1l-2-2
		l-2.2-1.9c-2.2-1.9-0.2-1.9-9.1-1.4c-2.5,0.1-4.8-0.1-7.1,0c-0.9-0.6-4-3-3.1-2.2c0,0-2.3-2.3-4.2-2.6c-1.1-0.1-2.5-0.4-2.9-0.7
		c-0.5-0.3-1.8-0.4-1.8-0.3s0.3,0.1,0.2,0c-0.2-0.3-1.5-0.3-1.8-0.7c-0.5-0.3,0.5-0.1,1.4,1.4c0.9,1.7,1.2,3,1.4,5.7
		c0.5,6,1.4,8.8,3.7,12.5c3.2,4.9,3.4,5.5,4.3,7.5c0.5,1,1.2,2.6,1.8,3.4c2.6,4,2.3-1-0.5-7.3c-1.7-3.7-4.2-10-5.2-13.6
		c-0.5-1.4-0.2-2.3,1.1-2.3c0.9,0,2,1.4,2.6,3.3c0.2,0.7,0.8,2,1.5,2.9c0.6,1,2,3.4,2.9,5.6c1.1,2.3,2.5,4.4,3.4,5.5
		c2.8,2.9,3.4,4.6,3.2,8.9c-0.2,3.6,0,3.9,0.9,4.7c0.6,0.6,3.1,1.7,5.5,2.6c2.5,0.9,5.1,2.2,6,2.7c1.4,1,1.5,1.3,1.5,4.3
		c0.2,2.9,0.3,3.2,1.1,3.4c1.4,0.3,2.6,3,2.9,6.5c0.3,3,1.7,6.3,3.2,7.6c0.8,0.7,5.4,2.4,6.2,2.6C259.7,303.7,260.3,303,260.8,302.3
		z"/>
</g>
<g id="EasternUnitedStates">
	<path id="path12031" fill="#B3B3B3" d="M306.9,260.4c2.5-1.4,2.9-2.9,2.6-7.2c-0.2-2-0.5-4.6-0.9-5.7s-0.6-2.4-0.5-3.2
		c0.5-1.9,3.1-4.3,7.5-7.2c3.2-2,4.6-3.2,5.8-5c1.4-1.9,1.5-2.6,1.4-3.6c-0.9-4.7-0.9-4.4,2-7.6c0.8-0.9,2.2-2.3,3.1-3.3
		c1.8-1.7,5.1-7.8,5.1-9.3c0-1.7,2.9-5.7,4.2-5.7c0.3,0,0.5-0.1,0.5-0.4c0-0.7-1.2-0.4-2.5,0.7c-1.7,1.6-2.6,2.9-2.9,4.7
		c-0.5,2.2-3.7,8.3-4.8,9.2c-1.5,1.3-6,6.3-6.2,7.5c-0.2,0.6,0,1.9,0.3,3c0.5,1.9,0.5,2-0.8,4.2c-1.2,2-4.8,4.9-8.3,6.7
		c-2.5,1.3-5.7,5.2-5.7,6.7c0,0.4,0.3,1.6,0.6,2.4c0.8,2.2,1.4,5.3,0.9,5c-0.3-0.3-1.4-4-1.8-6.9c-0.2-1,0-2,0.6-3
		c0.9-1.6,4.5-5,5.2-5s6.8-4.4,7.8-5.9c1.1-1.4,1.1-2,0.8-6c-0.3-2.4-0.6-1.9,5.8-8.9c2.2-2.3,3.4-4.4,4.3-7.5
		c1.4-4.3,2-5.3,3.7-6.7c0.9-0.9,2.2-1.4,2.6-1.4c1.5,0,3.1-4,1.2-6.5s-5.1-1.4-6.8,0.7c0,0-2.2,2.4-5.1,2.9c-3.7,0.4-6.2,0-7.8-1.4
		c-1.8-1.6-2.6-1.9-5.1-1.4c-1.7,0.3-2.5,0.7-4.8,2.9c-1.5,1.4-3.4,3.2-4.2,4l-1.2,1.4l2-1c1.1-0.6,2.5-1.4,3.1-2
		c0.9-0.9,4.9-2.3,6.5-2.3c1.1,0,1.5,1.9,1.1,3.7c-0.5,1.9-0.8,2-3.8,2.6c-2.2,0.4-2.5,0.7-3.4,2c-1.4,2.3-4.3,4-7.4,4.2
		c-2,0.1-2.5,0.1-3.4-0.9c-1.5-1.6-1.1-2.9,1.5-4.3c2-1,2-1.1,1.2-1.4c-0.9-0.3-3.1-4-3.1-5.3c0-0.7-0.2-0.7-0.9-0.1
		c-0.8,0.6-0.9,0.7-0.6,3.6l0.3,3.2l-1.8,1c-0.9,0.6-2.3,1-3.1,1c-1.1,0-1.4-0.1-1.5-1.3c-0.2-0.7-0.2-2.7,0.2-4.4
		c0.3-2.6,0.8-3.6,2.2-5.9c0.9-1.4,1.7-3,1.7-3.4c-0.2-0.4-1.2-0.9-4.3-1.3c-2.3-0.3-4.5-0.7-4.9-0.9c-1.1-0.4-0.9-1.9,0.5-4
		c1.5-2.3,1.5-1.3-2-1.9l-3.2-0.4l0.2,15.4l0.2,15.4l-1.5,1.9c-0.8,1-2.8,0.9-3.4,1c-0.5,0.1-5.4-0.1-5.4-0.1l-5.4,0.4l-0.8,3.4
		c-0.8,2.4,1.1,3.2-1.5,3.9c-1.1,0.3-2.6-0.1-2.9,0.6c0,0-1.5,0.3-2,0.9c-0.6,0.7-3.4,4.7-3.5,6.7l-0.8,3.6l-3.4,1.7l-0.8,2.6l0.2,2
		c0.3,2.3,7.1,3.7,8.3,5.5c0.8,1.3,1.7,2.4,1.8,2.6s1.5-0.6,3.1-1.4c4.2-2.4,8.2-4,10.8-3.9c4.2,0.3,5.2,0.1,8.3-0.7
		c3.8-1,4.2-1,2.5-0.1c-1.8,0.9-7.4,1.7-9.8,1.4c-3.2-0.3-8.9,1.7-13.4,4.7c-2,1.4-0.2,1,2.2-0.4c4.5-3,6.2-3.4,11.2-3.6
		c3.4,0,5.5-0.3,7.8-1l3.2-0.9l2.5,1c3.8,1.6,4.6,1.7,6.9,0.7c4.2-1.9,5.5-0.4,5.1,4.7c-0.3,3.3,0.5,7.3,1.7,8.8
		C302.9,261.8,304.9,261.5,306.9,260.4z"/>
</g>
<g id="WesternUnitedStates">
	<path id="path11997" fill="#808080" d="M249.2,245.4c-0.8-4.6-0.5-5.5,2.3-7c2.2-1.3,2.5-1.6,2.5-3.2c0-2.4,0.8-4.7,1.8-5.6
		c0.5-0.4,0.9-1,0.9-1.4c0-0.9,2.2-2.3,4-2.9c2.3-0.6,3.1-1.4,3.1-3.9c0-1.3,0.3-2.6,0.9-3.2c0.8-0.9,1.2-0.9,6.8-0.9h6l1.4-1.4
		l1.4-1.4v-15.8V183h-36c-30.9,0-35.8,0.1-35.4,0.6c0.3,0.3,0.5,1.7,0.5,3c-0.2,2.4-0.3,2.4-2.5,3.7c-1.2,0.7-2.6,1.1-2.9,1
		c-0.3-0.1,0.5-0.7,1.8-1.3c1.4-0.7,2.6-1.6,2.9-2c0.5-1-0.2-3.9-0.9-4.6c-1.1-1-1.5-0.4-0.8,0.7c1.8,2.7,0.8,4.6-3.4,6
		c-1.5,0.4-1.5,0.6-1.5,3.6c0,1.7-0.2,4.6-0.2,6.5c0,1.9-0.2,4.2,0,5.2c0,1-0.5,2.4-1.1,3.4c-1.5,2.4-2.2,6-1.5,10.8
		c0.5,4.2,1.4,6.9,3.1,8.9c0.5,0.7,1.4,1.9,1.7,2.7c0.3,0.9,0.9,1.7,1.4,1.9c0.8,0.3,0.8,0.1-3.2-6.6c-1.5-2.4-2.5-5.7-1.5-5.3
		c0.3,0.1,0.6,1,0.9,1.9c0.2,0.9,1.1,2.9,2.2,4.4c1.1,1.6,2.2,3.6,2.6,4.6c0.8,2,3.4,3.4,8.2,4.2c2.5,0.4,3.7,1,6.5,3l3.4,2.4h7.2
		h7.2l1.8,1.4c0.9,0.9,2.2,2,2.8,2.7c0.9,1.3,1.5,1.4,4.8,1.6C249.7,247.6,249.7,247.6,249.2,245.4z"/>
</g>
<g id="Quebec">
	<g id="path26414">
		<path fill="#CCCCCC" d="M311.8,194.8l3.4,0.3l1.1,0.1l1.4,0.1l1.4,0.7l1.7,1l1.4,0.9l1.5,0.4l2-0.1l2.2-0.4l1.1-0.6l0.9-0.7
			l1.1-1.3l0.9-1.6l1.1-1l2.9-1.3l0.9,0.4l1.5,1l0.9,1l0.8,1.9l0.3,2v2l-0.3,2l-0.5,1.4l0.2,1.4l1.1,3.6l0.5,0.7l-0.5,0.1l-0.6-0.1
			l-0.5-1.4l-0.5-2.2l-0.3,0.4l0.2,1.6l0.3,1.4l0.3,0.4l0.5,0.3l0.8,0.3h0.8l1.2-0.6l0.8-0.9l0.9-1.7l1.1-2.7l0.5-1
			c0,0,0.5-0.4,0.9-0.6c0.3-0.1,1.1-0.4,1.1-0.4l0.9-0.7l1.8-3.9l-0.2-0.7l-0.3-0.3l-1.1-0.1l-3.8-0.3c0,0-0.5-0.1-0.9-0.3
			c-0.5-0.1-0.2-1.7-0.2-1.7l-0.3-3.4L344,189l-0.5-1c0,0-1.4-2.2-0.2-3c1.2-0.9,2.3-1.3,2.3-1.3s1.7-0.4,1.8-0.4c0.3,0,2.2,0,2.5,0
			c0.3,0.1,1.7-0.1,2.2-0.4c0.5-0.3,3.1-2.2,3.1-2.2l2.8-1.4l3.1-1.4l1.4-1l1.1-1.7l0.5-2l-0.2-1.3l-0.8-1.4l-1.5-1.9l-1.5-1.9
			l-0.8-1.6l-0.2-0.4l-0.5-0.9l-3.5-1.9c0,0-2.2-1.4-2-2c0.2-0.4-0.8-2-0.6-4.2c0.2-2.2-3.1-3.3-3.1-4.6c0-1.4-0.5-3.2-0.5-3.2
			s-0.8-1.3-2.3-0.6c-1.5,0.7-2.2,1.9-2.2,1.9l-1.1,1.4l-2,1.9c0,0,1.1-0.1,0,0c-1.1,0.1-1.4,0.6-2,0c-0.8-0.6-1.1-0.4-0.8-3
			c0.3-2.6,0.5-4.6,0.3-5c-0.2-0.4-0.8-2.4-0.8-2.4l-2-2.9l-0.8-1l0.3-0.3l1.4,0.9l1.1,0.7c0,0-2.8-2.6-2.6-3.2
			c0.2-0.6-0.5,1-1.1,0.3c-0.6-0.6,9.5-10.9,9.1-11.1c-0.3-0.1-0.2-0.9-0.2-0.9l-19.1,14.1l-1.1,7.2l-3.1,3.2l-0.5,3.3l1.7,5.9
			l-1.2,2.6l-2.8,2.3l-2.3,1l-1.2,2.4l0.2,2.6l0.3,5.3l-0.8,1.7L311.8,194.8z"/>
		<path fill-opacity="0" stroke="#000000" stroke-width="2.000000e-02" d="M311.8,194.8l3.4,0.3l1.1,0.1l1.4,0.1l1.4,0.7l1.7,1
			l1.4,0.9l1.5,0.4l2-0.1l2.2-0.4l1.1-0.6l0.9-0.7l1.1-1.3l0.9-1.6l1.1-1l2.9-1.3l0.9,0.4l1.5,1l0.9,1l0.8,1.9l0.3,2v2l-0.3,2
			l-0.5,1.4l0.2,1.4l1.1,3.6l0.5,0.7l-0.5,0.1l-0.6-0.1l-0.5-1.4l-0.5-2.2l-0.3,0.4l0.2,1.6l0.3,1.4l0.3,0.4l0.5,0.3l0.8,0.3h0.8
			l1.2-0.6l0.8-0.9l0.9-1.7l1.1-2.7l0.5-1c0,0,0.5-0.4,0.9-0.6c0.3-0.1,1.1-0.4,1.1-0.4l0.9-0.7l1.8-3.9l-0.2-0.7l-0.3-0.3l-1.1-0.1
			l-3.8-0.3c0,0-0.5-0.1-0.9-0.3c-0.5-0.1-0.2-1.7-0.2-1.7l-0.3-3.4L344,189l-0.5-1c0,0-1.4-2.2-0.2-3c1.2-0.9,2.3-1.3,2.3-1.3
			s1.7-0.4,1.8-0.4c0.3,0,2.2,0,2.5,0c0.3,0.1,1.7-0.1,2.2-0.4c0.5-0.3,3.1-2.2,3.1-2.2l2.8-1.4l3.1-1.4l1.4-1l1.1-1.7l0.5-2
			l-0.2-1.3l-0.8-1.4l-1.5-1.9l-1.5-1.9l-0.8-1.6l-0.2-0.4l-0.5-0.9l-3.5-1.9c0,0-2.2-1.4-2-2c0.2-0.4-0.8-2-0.6-4.2
			c0.2-2.2-3.1-3.3-3.1-4.6c0-1.4-0.5-3.2-0.5-3.2s-0.8-1.3-2.3-0.6c-1.5,0.7-2.2,1.9-2.2,1.9l-1.1,1.4l-2,1.9c0,0,1.1-0.1,0,0
			c-1.1,0.1-1.4,0.6-2,0c-0.8-0.6-1.1-0.4-0.8-3c0.3-2.6,0.5-4.6,0.3-5c-0.2-0.4-0.8-2.4-0.8-2.4l-2-2.9l-0.8-1l0.3-0.3l1.4,0.9
			l1.1,0.7c0,0-2.8-2.6-2.6-3.2c0.2-0.6-0.5,1-1.1,0.3c-0.6-0.6,9.5-10.9,9.1-11.1c-0.3-0.1-0.2-0.9-0.2-0.9l-19.1,14.1l-1.1,7.2
			l-3.1,3.2l-0.5,3.3l1.7,5.9l-1.2,2.6l-2.8,2.3l-2.3,1l-1.2,2.4l0.2,2.6l0.3,5.3l-0.8,1.7L311.8,194.8z"/>
	</g>
</g>
<g id="Alaska">
	<g id="path27016">
		<path fill="#999999" d="M172,104.5l3.7,2.2l5.4,2.3l5.7,0.7l5.5,2.3l6.9,2.7c-0.2,2.6,0.3,6-0.8,7.6l-0.9,3.3l-0.2,11.2
			c0.5,0.9-0.2,1.6,0.2,2.4c0.5,1,0,0.7,0.5,1c0.9,0.7,1.2,3.9,1.8,3.9l1.5,2.3l-0.8,8.2l3.1,3.2l-3.1,5.5l-3.8-6.7l2.8,6.7v0.4
			l-2.2-3.2l-2-4.4l-0.2-0.7l-0.2-0.9l-1.2-1.3l-2.3-1.1l-2-1l-1.8-2.9l-1.1-1.3l-1.7-0.7l-3.2-0.4l-2.5-1l-3.1-2.7l-0.9-0.1l-2,2.3
			l-2,2.4l-3.1,1.9l-0.9,0.3l-0.3-1.9l-0.9-0.6l-1.4,0.3l-1.4,1.4l-0.8,1.7l0.3,0.7l-6.6,6.2l-2.5,1.9l-2.6,0.6l-1.4-0.1l-0.9-1
			l0.9-1.7l5.8-2.9l-3.2-5l-4.2-1.9l-1.5-2.7v-2l-3.5-3.7l-0.3-5.2l3.7-3.6h8l1.5-3.3c0,0-1.1-1-2.6-0.9c-1.5,0.1-6.8-0.4-6.8-0.4
			l-1.4-4.2c0,0,2.2-2.3,2.9-2c0.8,0.3,4.9,0.9,4.9,0.9l2.5,0.3c0,0,2.6,0.4,0.9-2c-1.5-2.4-4.3-4.2-4.3-4.2s-2.8-1.3-1.5-2.6
			c1.2-1.1,6.9,1,6.9,1s1.8,1.3,2.6-2.6C160.9,105.2,172,104.5,172,104.5z"/>
		<path fill-opacity="0" stroke="#000000" stroke-width="2.000000e-03" d="M172,104.5l3.7,2.2l5.4,2.3l5.7,0.7l5.5,2.3l6.9,2.7
			c-0.2,2.6,0.3,6-0.8,7.6l-0.9,3.3l-0.2,11.2c0.5,0.9-0.2,1.6,0.2,2.4c0.5,1,0,0.7,0.5,1c0.9,0.7,1.2,3.9,1.8,3.9l1.5,2.3l-0.8,8.2
			l3.1,3.2l-3.1,5.5l-3.8-6.7l2.8,6.7v0.4l-2.2-3.2l-2-4.4l-0.2-0.7l-0.2-0.9l-1.2-1.3l-2.3-1.1l-2-1l-1.8-2.9l-1.1-1.3l-1.7-0.7
			l-3.2-0.4l-2.5-1l-3.1-2.7l-0.9-0.1l-2,2.3l-2,2.4l-3.1,1.9l-0.9,0.3l-0.3-1.9l-0.9-0.6l-1.4,0.3l-1.4,1.4l-0.8,1.7l0.3,0.7
			l-6.6,6.2l-2.5,1.9l-2.6,0.6l-1.4-0.1l-0.9-1l0.9-1.7l5.8-2.9l-3.2-5l-4.2-1.9l-1.5-2.7v-2l-3.5-3.7l-0.3-5.2l3.7-3.6h8l1.5-3.3
			c0,0-1.1-1-2.6-0.9c-1.5,0.1-6.8-0.4-6.8-0.4l-1.4-4.2c0,0,2.2-2.3,2.9-2c0.8,0.3,4.9,0.9,4.9,0.9l2.5,0.3c0,0,2.6,0.4,0.9-2
			c-1.5-2.4-4.3-4.2-4.3-4.2s-2.8-1.3-1.5-2.6c1.2-1.1,6.9,1,6.9,1s1.8,1.3,2.6-2.6C160.9,105.2,172,104.5,172,104.5z"/>
	</g>
</g>
<g id="Alberta">
	<path id="path11873" fill="#808080" d="M205.8,181.7c-0.3-0.4-0.6-1.1-0.5-1.4c0.2-0.3,0.6,0.1,1.1,1l0.9,1.4h21.8h21.8l0.3-5.6
		c0.2-3,0.5-8.9,0.5-13.1c0.3-6.7,0.3-7.5,1.2-8.9c0.9-1.3,0.9-2,0.9-7.3c0-4.4,1.1-5.6,0.8-5.6c0,0-5.7,0.1-13.1-0.1
		c-9.7-0.3-12.2-0.4-13.2-1c-1.1-0.4-9.8-0.7-18.8-0.7h-10.9l0.3,1.4c0.2,0.9,0.8,2,1.4,2.7c1.2,1.3,1.2,1.3,0.9,5.2l-0.3,3.9
		l1.2,1.3c2.5,2.4,2.5,2.4,1.4,4.2c-0.5,0.9-1.5,2.6-2.3,3.7c-1.4,2-1.4,2-0.8,3.6c0.9,2.4,1.8,3.9,3.8,6c1.5,1.7,1.8,2.3,1.8,3.6
		c0,0.9-0.2,2-0.5,2.6c-0.3,0.7-0.3,0.3-0.2-1c0.3-2.4-0.5-4-2.6-5.7c-0.9-0.7-1.8-2-2.6-3.9c-0.6-1.4-1.4-2.6-1.5-2.6
		c-0.3,0.3,0.9,3.6,2,5.2c0.3,0.4,1.2,1.4,1.8,1.9c1.8,1.4,2.2,2.6,1.5,5.3c-0.5,2.2-0.5,2.4,0.3,3.4c0.5,0.6,0.9,1,1.1,1
		C206.4,182.7,206.1,182.3,205.8,181.7z"/>
</g>
<g id="SouthAfrica">
	<g id="path7935">
		<path fill="#999999" d="M500.3,323.9h-1.2l-1.4,0.4l0.2,1.4l0.6,2.3l0.5,1.9l1.5,1.7l1.7,1.9v1.3l-0.8,0.9l-0.9,0.9l-0.3,0.4
			c0,0-0.2,0.3-0.3,0.6c-0.2,0.3,0.2,0.9,0.2,0.9l0.5,0.9l0.3,0.3l0.6,0.7l0.3,0.4l0.2,0.4l0.2,0.3v0.3v0.3v0.1l-0.2,0.3l-0.2,0.3
			v0.1l-0.2,0.1l-0.2,0.3l-0.2,0.1l-0.9,1.4l-0.5,0.6l-0.3,0.3l-0.3,0.4l-0.2,0.3l-0.3,0.4l-0.3,0.4l-0.2,0.4c0,0-0.2,0.1-0.2,0.4
			c0,0.3,0.2,0.6,0.2,0.6l0.2,0.4c0,0,0,0.3,0,0.4c0,0.1,0,0.1-0.2,0.4c-0.2,0.3-0.2,0.4-0.2,0.4l-0.3,0.4l-0.3,0.3l-0.3,0.3
			l-0.3,0.4l-0.3,0.3l-0.3,0.4l-0.3,0.4l-0.2,0.3l-0.2,0.3l-0.2,0.3v0.3v0.3v0.4v0.4v0.4l0.2,0.9l0.2,0.9l0.2,1.1l0.2,0.3l0.3,1
			l0.3,0.6l0.5,0.7l0.5,0.6l4.2,6l0.3,12.5c0,0,2.8,8,5.5,11.5c2.8,3.4,2.6,5.7,2.6,5.7l-1.2,2.4c0,0-1.5,6.3,7.4,5.3
			c9.1-1,12.5-2.7,12.5-2.7l6.6-5.9l3.4-2l1.5-2.4l1.4-2.7l1.8-1.4l1.5-5.5l3.2-2.4l2.8,0.4l2.6-2.9l17.7-11.8l-0.5-21.1l-6.6-6.7
			l-4,2.9l-4.3,0.1l-2.3,2.2l-0.9,8.6c0,0-7.7,1.3-6.8-2.4c0.8-3.7,0.9-4.2,0.9-4.2l-1.1-6.5c0,0-4.8-1.7-4.5-2.9
			c0.3-1,0.8-1.3,0.8-1.3s0.2-0.7-0.2-0.7c-0.3,0-1.8-1-1.8-1h-0.9l-0.5,0.3l-1.1,0.6c0,0-0.8,0.3-0.3,2c0.5,1.7,1.1,2.3,1.1,2.3
			l1.2,1.3c0,0.1,0.2,1.3,0,1.3s-0.3,2.3-0.3,2.3s-0.8,1.3-1.1,0.9c-0.3-0.4-2.9,0.3-3.4-0.4c-0.5-0.7-2.8-2.3-2.8-2.3l-4.8,0.3
			h-1.7l-1.7-1.3l-1.4-0.6c0,0-1.8-0.1-2.2-1.7c-0.3-1.7-0.3-4.2-0.3-4.2l-0.5-1.4l-3.2-2.4l-4.8,0.7c0,0-1.4,1.9-4.2-3.4
			C504.7,321.6,500.3,323.9,500.3,323.9L500.3,323.9z"/>
		<path fill-opacity="0" stroke="#000000" stroke-width="2.000000e-03" d="M500.3,323.9h-1.2l-1.4,0.4l0.2,1.4l0.6,2.3l0.5,1.9
			l1.5,1.7l1.7,1.9v1.3l-0.8,0.9l-0.9,0.9l-0.3,0.4c0,0-0.2,0.3-0.3,0.6c-0.2,0.3,0.2,0.9,0.2,0.9l0.5,0.9l0.3,0.3l0.6,0.7l0.3,0.4
			l0.2,0.4l0.2,0.3v0.3v0.3v0.1l-0.2,0.3l-0.2,0.3v0.1l-0.2,0.1l-0.2,0.3l-0.2,0.1l-0.9,1.4l-0.5,0.6l-0.3,0.3l-0.3,0.4l-0.2,0.3
			l-0.3,0.4l-0.3,0.4l-0.2,0.4c0,0-0.2,0.1-0.2,0.4c0,0.3,0.2,0.6,0.2,0.6l0.2,0.4c0,0,0,0.3,0,0.4c0,0.1,0,0.1-0.2,0.4
			c-0.2,0.3-0.2,0.4-0.2,0.4l-0.3,0.4l-0.3,0.3l-0.3,0.3l-0.3,0.4l-0.3,0.3l-0.3,0.4l-0.3,0.4l-0.2,0.3l-0.2,0.3l-0.2,0.3v0.3v0.3
			v0.4v0.4v0.4l0.2,0.9l0.2,0.9l0.2,1.1l0.2,0.3l0.3,1l0.3,0.6l0.5,0.7l0.5,0.6l4.2,6l0.3,12.5c0,0,2.8,8,5.5,11.5
			c2.8,3.4,2.6,5.7,2.6,5.7l-1.2,2.4c0,0-1.5,6.3,7.4,5.3c9.1-1,12.5-2.7,12.5-2.7l6.6-5.9l3.4-2l1.5-2.4l1.4-2.7l1.8-1.4l1.5-5.5
			l3.2-2.4l2.8,0.4l2.6-2.9l17.7-11.8l-0.5-21.1l-6.6-6.7l-4,2.9l-4.3,0.1l-2.3,2.2l-0.9,8.6c0,0-7.7,1.3-6.8-2.4
			c0.8-3.7,0.9-4.2,0.9-4.2l-1.1-6.5c0,0-4.8-1.7-4.5-2.9c0.3-1,0.8-1.3,0.8-1.3s0.2-0.7-0.2-0.7c-0.3,0-1.8-1-1.8-1h-0.9l-0.5,0.3
			l-1.1,0.6c0,0-0.8,0.3-0.3,2c0.5,1.7,1.1,2.3,1.1,2.3l1.2,1.3c0,0.1,0.2,1.3,0,1.3s-0.3,2.3-0.3,2.3s-0.8,1.3-1.1,0.9
			c-0.3-0.4-2.9,0.3-3.4-0.4c-0.5-0.7-2.8-2.3-2.8-2.3l-4.8,0.3h-1.7l-1.7-1.3l-1.4-0.6c0,0-1.8-0.1-2.2-1.7
			c-0.3-1.7-0.3-4.2-0.3-4.2l-0.5-1.4l-3.2-2.4l-4.8,0.7c0,0-1.4,1.9-4.2-3.4C504.7,321.6,500.3,323.9,500.3,323.9L500.3,323.9z"/>
	</g>
</g>
<g id="Congo">
	<path id="path14279" fill="#CCCCCC" d="M538.9,343.5c0.9,0.9,1.5-2,1.4-2.3c0.2-0.4,0.3-2.2-0.8-2.9c-1.1-0.9-1.7-3-1.5-4.2
		c0.2-0.6,2.2-1.1,2.2-1.7c1.5,0.1,0.5-0.4-0.2-1c-0.5-0.6-0.6-1.4-0.5-4.6l0.2-3.9l2.6-4.2c3.5-5.5,4.5-6.7,7.7-10.3
		c1.5-1.7,2.8-3.3,2.8-3.6c0-0.3-0.3-0.7-0.9-1.1c-0.8-0.7-1.7-0.7-7.2-0.9c-5.4-0.1-6.5-0.3-7.2-0.9c-0.5-0.4-2-1-3.2-1.6l-2.5-0.9
		v-2.2c0-2-0.2-2.3-1.5-3.7c-0.9-0.9-2.3-2.7-3.1-4.2c-2.5-4.2-3.1-5-3.2-5c-0.2,0.1-3.1,2.2-6.3,4.6l-6,4.6l-0.3,4.6
		c-0.3,7.8-1.5,9-7.2,9.2c-1.8,0-2.8,0.3-3.4,0.7c-1.1,0.9-3.2,1.4-5.2,1.4c-2.2,0-2.6,0.4-2.8,2.9c-0.2,2.3-0.3,2.2,3.4,7.3
		l1.7,4.3c0.8-0.3,3.1-0.4,2.6-0.4c0,0,1.1-0.3,1.2-0.3c0.5,0,1.5-0.4,3.7,0.6c2.2,0.7,3.1,4.6,4.3,5.2c0,0,0.9,1.4,1.8,1.3
		c0.2,0.1,2.3-0.4,3.1-0.9c0.5,0,0.8-0.1,1.1-0.3c1.8-0.3,4.2,1.9,4.3,2c1.2,1.1,0.6,6.2,1.1,6.6c0.3,0.3,2.6,1.7,3.1,1.7
		c0.2,0,0.8,1,1.8,1.3c1.4,0.4,6.5-0.4,6.8-0.3c0.6,0.1,1.1,0.9,2.8,2.3C536.7,343.9,538.6,343.2,538.9,343.5z"/>
</g>
<g id="EastAfrica">
	<path id="path14305" fill="#CCCCCC" d="M554.9,251.9L554.9,251.9c-0.2,0.1,0.6,1.1,1.7,2.3c2.5,2.6,1.7,2.6-0.9,0l-2-2l-6.8,0.7
		c-5.5,0.6-7.1,0.6-8.3,0.3c-4.2-1.3-10.2,0.7-12.9,4.3l-1.5,2l0.5,2c0.3,1.3,0.5,3.9,0.5,6.9c0,4.3-0.2,4.9-0.8,5.3
		c-0.8,0.4-0.8,1-0.8,3.6c0,2.9-1.7,3.4-0.2,5.3c0.9,1.1,0.9,1.3,1.5,2.6c0.8,1.4,3.2,6,4.3,6.9c1.8,1.6,2.8,2,2.8,3.6
		c0,2,0.2,3.6,1.4,3.6c0.2,0.7,3.1,1.3,3.4,1.7c0.3,0.4,2,1.3,5.7,1.3c6.2,0,9.1-0.4,10,1.3c0.5,1,0.8,1,0.5,1.6
		c-0.3,0.4-2,3.6-2.5,3.9c-2.5,2-4.9,4.9-5.5,6c-0.6,1-3.4,4.9-4.3,6.3c-1.5,2.3-1.1,3.6-1.1,3.6c-0.3,3.3-0.2,6.3,2.8,8.2
		c1.5,1,0.3,1.3,0.2,2.3c-0.2,1,2.3,2,3.2,2.4c1.5,0.4,0.9,1.6,1.4,3.2c0.2,0.6,0.5,2.7,0.5,2.9c0.5,1.9,0,2.2-0.2,3.2
		c-0.5,2-1.1,2.6,0.2,3.7c1.4,1.3,5.4,1.7,5.7,0.3c0.2-0.7,0.3-2.9,0.5-5c0.3-4.4,1.5-4.7,3.7-5.5c0.8-0.1,1.4,0.4,3.2-0.1
		c0.9,0.3,3.2-1.7,4.2-2.7c0.9-1-0.5-2.6-0.6-5.2c0-1.7-0.2-2.9-0.3-3.3c-0.9-1.7-2.5-3.2-0.6-5.7c1.7-2.4,7.7-8.2,13.5-12.9
		c1.7-1.4,3.8-3.4,4.8-4.4c2.3-2.6,5.7-7.3,5.4-7.3c-0.2,0,0-0.3,0.3-0.7c0.3-0.4,0.9-1.3,1.1-2c0.2-0.7,0.8-1.6,0.9-1.7
		c0.2-0.3,0.5-1,0.6-1.7c0.2-0.7,0.6-2,1.1-2.9c0.5-0.9,0.9-2,1.1-2.7c0.2-0.7,0.3-0.9,0.5-0.7c0.2,0.3-0.2,1.6-0.6,2.9
		c-1.1,3.2-1.5,5.3-0.9,4.7c0.3-0.3,0.8-1.7,1.4-3.3c1.5-4.7,2.2-6.7,1.8-7.6c-0.3,0.1-0.8,0.1-0.8,0.1c-0.8,0-1.1-0.3-1.5-0.4
		c-0.2,0-0.2,0-0.2,0c-1.4,0.1-4.2,0.7-6.5,1.1c-2.3,0.4-5.1,1-6.3,1.1c-2.2,0.3-2.5,0.1-3.5-0.9s-1.2-1.4-1.1-3.3
		c0.2-1.9-0.2-2.3-1.1-3.2c-3.7-3.2-5.5-4.6-6.6-4.9c-1.5-0.4-2.2-1.7-2.2-4.2c0-1.7-0.2-1.9-2.2-3.6l-2.2-1.7l0.9-0.7
		c0.9-0.7,1.1-1.4,0.5-2.2c-0.2-0.1-0.5-0.9-0.5-1.3c-0.2-0.9-0.2-0.7-0.3,0.3c-0.2,1-0.2,1.3-0.6,0.9c-0.5-0.4-0.6-0.3-0.8,0.1
		c-0.3,0.7-2,0.9-2,0.3s1.8-1.6,2.2-1.3c0.3,0.1,0.3-0.4,0.2-1.6c-0.2-1.6-0.5-2.2-2.5-3.9C556.1,252.7,555.2,251.9,554.9,251.9z"/>
</g>
<g id="Egypt">
	<path id="path13777" fill="#CCCCCC" d="M525.7,256.6c0.8-1,1.8-1.9,4.2-2.9c3.7-1.7,6.6-2,9.7-1.4c1.8,0.4,3.1,0.4,6.8,0
		c2.5-0.3,5.1-0.6,5.7-0.7c1.1-0.3,1.1-0.3,0.6-1.3c-0.3-0.4-1.1-2.2-2-3.6c-0.8-1.4-1.8-3-2.3-3.7c-0.5-0.7-1.1-1.7-1.4-2.3
		c-0.5-1.3-0.2-4.6,0.6-5.3c0.6-0.6,0.3-1.7-1.1-2.9c-0.5-0.4-1.2-1.3-1.5-1.9c-0.5-1-0.8-1-1.5-0.6c-1.1,0.7-4.9,1.3-4.9,0.9
		c0-0.1,0.8-0.3,1.7-0.4s2.3-0.4,3.1-0.9l1.4-0.7l0.9,1.3c2.3,2.9,3.2,4.4,3.1,4.9c-0.2,0.3-0.3,0.4-0.5,0.4c-0.2,0-0.5,0.9-0.8,2
		c-0.5,1.9-0.5,2,1.1,4.6c0.9,1.4,2.5,4,3.4,5.7c2,3.3,2.6,4.2,2.6,3.4c0-0.3-1.1-2.3-2.5-4.4c-4-6.7-4.3-7.2-4.2-8.6
		c0.2-0.7,0.6-1.6,1.1-1.9c0.9-0.7,0.9-0.7,0.2-2c-0.8-1.1-2.5-3.4-4-5.3c-0.6-0.7-0.6-0.7-2.8,0.3c-1.8,0.9-2.5,1-4.6,0.9
		c-3.5-0.3-5.7-1-10.9-4c-2.5-1.4-4.8-2.4-4.9-2.4c-0.8,0-1.5,0.7-1.7,1.4c-0.3,3.3-0.8,5.3-1.4,5.6c-0.9,0.7-3.7,0.1-6.2-1.3
		c-4.8-2.6-5.7-3.6-6.5-4.9c-0.8-1.4-0.9-1.4-4.5-1.9c-2.8-0.3-2,0.4,0.9,0.9c1.8,0.3,2.3,0.4,3.1,1.7c1.4,1.9,8.2,6.3,9.7,6.3
		c0.3,0,0.6,0.1,0.6,0.4c0,0.9-1.5,0.3-4.6-1.4c-3.8-2.3-6.2-4-6.6-5.3c-0.3-0.9-0.8-1-1.8-1c-0.8,0-2-0.1-2.6-0.4
		c-1.1-0.4-1.4-0.3-2.6,1c-0.8,0.9-1.4,1.7-1.4,1.9c0,0.3-0.8,1.3-1.5,2.3c-1.8,2.4-1.8,3.9-0.5,8.5c1.7,5.3,2.6,6.9,6,10.2l3.2,3
		l2.6-0.1c2.3-0.1,2.8,0.1,4.6,1.1c1.1,0.7,3.1,1.6,4.2,1.9c1.5,0.4,2.3,1,2.8,1.9c0.5,0.7,0.9,1.3,1.1,1.3s1.1,0.7,2.2,1.4
		c1.7,1.3,1.8,1.3,2.6,0.7C524.4,258.3,525.2,257.5,525.7,256.6z"/>
</g>
<g id="NorthAfrica">
	<g id="path8787">
		<path fill="#B3B3B3" d="M454.8,224.6l-1.8,2.9l-1.5,4l-2.2,4.6l-3.2,3.4l-2.8,9.2l-2.2,1.6l-1.1,2l2,6.6v1.9l-0.6,2.4l-1.5,2.4
			l-1.4,1.7l-0.3,5.2l1.5,5l2.6,4.7l2.9,2l1.7,4.2l0.3,2.3l2.6,2l5.7,5.6l5.5,0.3l2.6-1.7l2.5-0.1l3.1,2l2.2,0.6l1.4-0.9l2.9-1.4
			l2.6-0.4l2.6-0.7l1.8,0.4l1.1-0.3l2.2,2l1.1,2l2.9,0.7l2.8,0.4l1.8,0.9l1.1,2.2l-2.5,5.2l5.7-1l2.6-1.4l1.8-0.1l3.4-0.3l2-0.6
			l0.6-0.4l0.5-1.1l0.3-1.3l0.5-4.2l0.2-3.4l-0.2-2.2l2.2-1.7l2-1.7l8.5-5.6l-1.1-2.7l1.1-8.3c1.4,0.1,1.1-1.3,1.1-2.2l0.2-6.9
			l-0.9-3.6l-4.5-3.4l-2.6-2.4l-6-2.6c-0.9-1.4-4.5-0.9-6.8-1l-4.5-4c0,0-9.4-10.6-4.5-18.8c3.5-5.7,3.2-3.4,4.2-5.3
			c0.5-0.9,1.4-0.7,1.4-0.7s2.5,0.3,2-0.9c-0.5-1.1-1.5-1.6-1.5-1.6l-3.2,0.1c0,0-8.3-0.3-11.8-2.6c-3.5-2.3-10-1.7-10-1.7l-3.4,0.3
			l-2.6,1.6c0,0-4.3,0.6-7.8-0.6C458.6,215.9,454.8,224.6,454.8,224.6L454.8,224.6z"/>
		<path fill-opacity="0" stroke="#000000" stroke-width="2.000000e-03" d="M454.8,224.6l-1.8,2.9l-1.5,4l-2.2,4.6l-3.2,3.4l-2.8,9.2
			l-2.2,1.6l-1.1,2l2,6.6v1.9l-0.6,2.4l-1.5,2.4l-1.4,1.7l-0.3,5.2l1.5,5l2.6,4.7l2.9,2l1.7,4.2l0.3,2.3l2.6,2l5.7,5.6l5.5,0.3
			l2.6-1.7l2.5-0.1l3.1,2l2.2,0.6l1.4-0.9l2.9-1.4l2.6-0.4l2.6-0.7l1.8,0.4l1.1-0.3l2.2,2l1.1,2l2.9,0.7l2.8,0.4l1.8,0.9l1.1,2.2
			l-2.5,5.2l5.7-1l2.6-1.4l1.8-0.1l3.4-0.3l2-0.6l0.6-0.4l0.5-1.1l0.3-1.3l0.5-4.2l0.2-3.4l-0.2-2.2l2.2-1.7l2-1.7l8.5-5.6l-1.1-2.7
			l1.1-8.3c1.4,0.1,1.1-1.3,1.1-2.2l0.2-6.9l-0.9-3.6l-4.5-3.4l-2.6-2.4l-6-2.6c-0.9-1.4-4.5-0.9-6.8-1l-4.5-4
			c0,0-9.4-10.6-4.5-18.8c3.5-5.7,3.2-3.4,4.2-5.3c0.5-0.9,1.4-0.7,1.4-0.7s2.5,0.3,2-0.9c-0.5-1.1-1.5-1.6-1.5-1.6l-3.2,0.1
			c0,0-8.3-0.3-11.8-2.6c-3.5-2.3-10-1.7-10-1.7l-3.4,0.3l-2.6,1.6c0,0-4.3,0.6-7.8-0.6C458.6,215.9,454.8,224.6,454.8,224.6
			L454.8,224.6z"/>
	</g>
</g>
<g id="NewGuinea">
	<path id="path14065" fill="#CCCCCC" d="M739.2,259.2c-0.6,0-1.4,0.4-2.2,1.3c-0.5,0.7-1.4,1.7-2,2.3c-0.8,0.9-0.8,1.1-0.3,1.1
		c0.3,0,0.8-0.1,1.1-0.4c0.3-0.3,0.5-0.3,0.8,0c0.3,0.4-1.2,1.3-1.8,1c-0.9-0.6-1.1,0.9-0.2,1.7c0.5,0.4,1.1,1.6,1.2,2.3
		s0.8,1.6,1.2,1.9c0.5,0.3,1.1,1,1.2,1.7c0.2,0.7,0.5,1.3,0.8,1.4c0.3,0.1,0.6,0.7,0.8,1.1s0.9,1.1,1.8,1.4c1.1,0.4,1.2,0.6,0.5,0.6
		c-1.4,0.1-1.7,1.6-0.8,3c0.6,0.9,0.8,1,0.9,0.4c0.3-1.1,1.2-0.7,1.5,0.6c0.2,1,0.3,1.1,0.8,0.7c0.6-0.9,0.5-2-0.3-2.9
		c-0.5-0.6-0.5-0.7-0.2-0.7s0.3-0.1-0.3-0.6c-1.4-1-0.5-1,3.1,0c3.2,0.9,3.4,1,3.8,2.4c0.6,1.9,0.6,5.6,0,7.9c-0.5,2-0.3,2.4,2,2.4
		c0.8,0,1.4,0.3,1.5,0.6c0.2,0.4,0.8,0.6,2.2,0.3c1.5-0.1,2.2-0.1,2.8,0.4c1.7,1.4,3.1,2,5.4,2.3c1.4,0.1,3.1,0.3,3.8,0.4
		c1.2,0.1,1.4,0.1,2.2-1.3c2-3.6,6-2.4,7.8,2.2c0.6,1.4,0.9,1.7,2,1.7c0.8,0,2.2,0.3,3.2,0.7c2.2,0.9,2.8,0.7,3.5-0.7
		c0.3-0.6,0.6-1.9,0.6-2.6c0-1.3-0.3-1.7-1.7-2.6c-2.2-1.4-2.8-2.6-2.2-3.6c0.3-0.7,0.3-0.9-0.6-1.3c-0.5-0.3-1.2-0.9-1.5-1.4
		c-0.5-0.9-0.3-1.1,0.9-2.2c0.8-0.7,1.4-1.4,1.4-1.7c0-0.7-1.7-2.4-3.2-3.2c-2-1-3.1-2.9-3.1-5v-1.9l-2.6-0.7
		c-2.2-0.6-3.2-1.1-6.6-4c-5.7-4.7-9.2-6.3-13.2-5.7c-2.6,0.3-3.1,1-3.1,4c0,1.4-0.2,3-0.5,3.4c-0.3,0.9-0.6,1-1.8,0.9
		c-1.8-0.1-3.2-2.4-3.2-5.3v-2h-1.8c-1.8,0-3.7-0.9-4.8-2.3C739.8,259.5,739.5,259.2,739.2,259.2L739.2,259.2z"/>
</g>
<g id="Indonesia">
	<g id="path8904">
		<path fill="#CCCCCC" d="M718.4,309.4l-3.2-1.7l-1.5-0.9l-0.2,2.9l-1.1,0.3l2.5,2l1.7,3.3l-0.8,2.4l-10.8,1.1l-11.7-1.6l-0.3-4
			l-3.2,1.6c0,0-6.2-4.2-7.5-5.6c-1.4-1.4-1.4-4-8.2-9.3c-6.8-5.2-10.9-17.9-10.3-18.5s2-2.7,2-2.7l2.3-0.1l8.5,3.6l5.4,5l7.1,8.8
			l0.5-0.7c0,0-0.8-5.3-0.8-8.2c0.2-2.9,0.9-2,0.9-2s1.7,0.7,2.2,0.7c0.5-0.1,2.2-1.7,2.2-1.7l3.2-4.7l1.7-1.4l2.6-3.7l0.3-1.3
			l0.8-1l4.2-0.3l1.1-0.3l-0.5-1.7l-0.9-0.3l2.5,0.1l0.5,1.9l16,7.3l7.2,3.2v1.6l-0.5,0.9l-1.8,2.3l-2.8,20.5l-0.9,4.7l-1.5,0.3
			l-0.5-1l-1.5-1.4c0,0-3.2-2.4-2.8-1.4C721.1,308.9,718.4,309.4,718.4,309.4z"/>
		<path fill-opacity="0" stroke="#000000" stroke-width="2.000000e-03" d="M718.4,309.4l-3.2-1.7l-1.5-0.9l-0.2,2.9l-1.1,0.3l2.5,2
			l1.7,3.3l-0.8,2.4l-10.8,1.1l-11.7-1.6l-0.3-4l-3.2,1.6c0,0-6.2-4.2-7.5-5.6c-1.4-1.4-1.4-4-8.2-9.3c-6.8-5.2-10.9-17.9-10.3-18.5
			s2-2.7,2-2.7l2.3-0.1l8.5,3.6l5.4,5l7.1,8.8l0.5-0.7c0,0-0.8-5.3-0.8-8.2c0.2-2.9,0.9-2,0.9-2s1.7,0.7,2.2,0.7
			c0.5-0.1,2.2-1.7,2.2-1.7l3.2-4.7l1.7-1.4l2.6-3.7l0.3-1.3l0.8-1l4.2-0.3l1.1-0.3l-0.5-1.7l-0.9-0.3l2.5,0.1l0.5,1.9l16,7.3
			l7.2,3.2v1.6l-0.5,0.9l-1.8,2.3l-2.8,20.5l-0.9,4.7l-1.5,0.3l-0.5-1l-1.5-1.4c0,0-3.2-2.4-2.8-1.4
			C721.1,308.9,718.4,309.4,718.4,309.4z"/>
	</g>
</g>
<g id="Madagascar">
	<path id="path14441" fill="#666666" d="M574.3,415.5c1.4-1.1,3.2-1.3,4.3-0.4c0.5,0.4,1.1,0.9,1.4,0.9c0.8,0,2.9-3.6,2.9-4.9
		c0-1.4,0.9-2.7,2.2-3c0.9-0.3,1.5-1,4.8-6.9c5.1-9.3,5.7-10.9,6-14.5l0.3-3.4l2.2-2c1.8-1.9,2.2-2.4,2.8-4.7
		c0.3-1.4,0.6-3.2,0.6-3.6c0-1-3.8-8.3-4.9-9.3c-0.8-0.7-0.9-0.6-2,2.2c-1.1,2.9-1.5,3.4-2.8,3c-1.5-0.3-2,0.1-2.2,2.3
		c-0.2,1.6-0.3,2-1.1,2.3c-0.5,0.1-1.1,0.9-1.5,1.6c-0.3,0.7-1.4,1.7-2.5,2.3c-1.5,1-2.2,1.1-4.2,1c-1.7-0.1-2.6,0.1-3.7,0.7
		c-0.8,0.4-1.4,0.7-1.4,0.4s-0.3-0.4-0.6-0.4c-0.8,0-2,1.6-1.5,2.2c0.6,0.9,0.5,5-0.2,6c-0.8,1-0.8,3.4-0.2,3.9c1.1,0.7-0.5,6-1.7,6
		c-0.3,0-1.2,1-2.3,2.4c-2.2,2.7-2.5,4.3-0.9,6c0.9,1,0.9,2.2,0,4.3c-0.5,1-0.3,1.3,1.4,4C571.8,416.9,572.4,417.1,574.3,415.5z"/>
</g>
<g id="Slam">
	<path id="path13821" fill="#B3B3B3" d="M693.5,207.2c-0.3,0-0.5,0.1-0.9,0.3c-2.2,1-3.4,2.3-4.6,4.7c-0.8,1.3-2.5,4-4,6.2l-2.8,3.9
		l1.1,1.4c0.5,0.7,2.5,4,4.2,7.3c2.2,4.2,3.7,6.3,4.9,7.6l1.8,1.7l2.5-0.3c2.3-0.3,2.6-0.1,4.3,1c0.9,0.7,1.7,1.4,1.5,1.6
		c-0.2,0.3-0.2,0.4,0.2,0.4c0.6,0,2,2.9,2.8,5.5c0.5,2,0.5,2.9,0.2,5.3c-0.5,3.3-1.2,4.4-0.8,1.3c0.6-4.2,0.5-6.3-0.8-8.9
		c-1.2-2.6-3.4-4.9-4.9-5.3c-0.5-0.1-2-0.1-3.1-0.1c-2.2,0.1-2.2,0.1-4.5-1.9c-1.2-1.1-2.2-2.3-2.2-2.4c0-0.6-5.2-10.2-6.5-11.9
		c-1.4-1.9-1.7-1-0.3,0.7c0.6,0.9,2.5,4,3.8,7c4.3,7.9,6,9.6,9.7,9c1.5-0.1,2.3-0.1,3.1,0.3c3.1,1.9,5.2,5.7,5.2,9
		c0,1-0.2,3-0.5,4.4c-0.6,3.3-0.3,4.2,1.8,6.5c0.9,1,1.7,2,1.7,2.3c0,0.9,3.8,5.7,4.8,6.2c1.4,0.4,3.8,0.4,4.3-0.1
		c0.3-0.3,0.3-0.7-0.5-1.6c-0.5-0.7-1.1-1.4-1.1-1.9s-0.3-1-0.8-1.3c-1.4-0.9-1.8-2.3-1.7-5.2c0.2-2.6,0.2-2.9-0.8-3
		c-2.2-0.7-3.5-6.9-2-8.3c0.8-0.7,0.8-0.7,1.8-0.1c0.5,0.3,1.1,1,1.5,1.9c0.5,1.3,0.9,1.7,2.6,2.2c2.5,0.7,4.3,2.9,5.1,5.5
		c1.4,5,1.4,5,2.2,4.6c0.5-0.1,1.4-0.7,1.8-1.3c0.9-0.9,1.1-0.9,1.4-0.3c0.6,1,0.8,1,1.4,0.3s0.6-0.7,0.6,0.3c0,0.9,0.2,0.9,0.5,0.3
		c0.3-0.4,0.3-0.9,0.2-1s-0.2-0.4,0.2-0.6c0.6-0.3,0.5-1-0.2-1c-1.1,0-1.1-1.3-0.2-2.3c0.8-0.7,1.2-2.4,2-5.6
		c1.1-5.2,1.1-8.3-0.2-8.9c-1.5-0.9-2.6-2.3-3.5-4.7c-0.9-2.4-4-6.7-6.3-8.9c-1.5-1.3-2.5-3.4-2.5-5.2c0-1.7,0.3-2.3,2-4
		c0.8-0.9,1.2-1.6,1.1-1.7c-0.2-0.1-0.9,0.4-1.8,1.3c-2.8,2.9-2.6,6.6,0.5,9.6c2.6,2.6,5.7,7,6.5,9.3c0.5,1.4,1.4,2.6,2.6,3.7
		c1.7,1.6,1.8,1.7,1.8,3.7l-0.2,2l-0.2-2c-0.2-1.7-0.3-2.2-1.2-2.7c-1.7-1-2.5-2.2-3.2-4.3c-0.8-2.3-3.4-6.2-6.2-8.9
		c-2.2-2-2.8-3.7-2.8-6.3c0-1.9,0.3-2.7,2.5-5l1.4-1.6l-2.6-2.7l-2.6-2.7l-2.2,1.9c-1.2,1-2.8,2.6-3.4,3.3c-1.5,1.9-2.9,2.4-4.5,1.7
		c-2-1-4.9-3.9-6.3-6.2c-0.8-1.1-2-2.9-2.8-3.9C694.1,207.7,693.8,207.2,693.5,207.2z"/>
</g>
<g id="Afghanistan">
	<path id="path13415" fill="#CCCCCC" d="M616.4,185.1c1.2-2.4,2.5-3.6,4-3.6c2,0,3.4-0.9,4.6-2.7c1.7-2.4,3.1-2.6,6.5-0.9
		c1.4,0.7,2.6,1.4,3.1,1.9c0.6,0.4,0.9,0.3,3.1-1c3.8-2.6,4.2-4.2,1.5-6.6c-2.2-2-2.9-3.6-2.9-6.3c0-1.9,0.2-2.4,1.2-3.6
		c0.8-0.7,1.8-1.7,2.5-1.9c0.8-0.3,2.5-2.2,4.2-4.3c2.5-3.3,2.8-4,3.1-6c0.2-1.7,0-2.6-0.5-3.6c-0.9-1.6-0.9-2.6-0.2-4
		c0.8-1.3,0.5-1.9-2.9-5.3c-2-2-2.3-2.2-2.9-1.7c-1.1,0.9-2.2,0.7-3.7-0.7c-1.1-1.1-1.4-1.1-3.4-1c-2,0.3-2.6,0.1-4.8-1
		c-2.3-1-2.6-1.4-3.1-3c-0.5-1.9-0.6-1.9-2-1.6c-2.2,0.3-3.4-0.9-4.6-3.9c-0.8-2-1.5-3-4.2-5.5c-1.7-1.7-3.1-3.3-3.1-3.7
		s-0.3-1-0.6-1.3c-0.5-0.4-0.8-0.3-1.8,0.4c-0.6,0.6-1.8,1.3-2.6,1.6s-2.2,1.1-3.1,1.9c-2.6,2-4.9,2.7-7.2,2.2c-4.2-1-4.2-1-5.5,0.6
		c-1.4,1.4-2,1.6-5.5,1.4c-1.2-0.1-1.8,0.1-2.8,1c-0.8,0.7-1.8,1.1-3.2,1.3c-1.1,0.1-2,0.4-2,0.7c-0.2,0.3-0.3,1.3-0.6,2.4
		c-0.3,1-0.9,2.4-1.5,3.2c-1.4,1.6-1.4,4.7,0,7.2c0.5,1,1.5,2.6,2,3.6c0.5,1,1.4,2.3,1.8,2.9l0.8,0.9l0.9-0.9c0.5-0.4,1.4-1,1.8-1
		c0.5-0.1,0.9-0.4,0.9-0.6c0-0.4,2-0.9,3.2-0.6c1.2,0.3,2.9,2.9,3.2,5c0.3,1.9-0.3,3.4-2.2,5.2c-1.4,1.4-1.5,1.6-1.1,3.3
		c0.2,1,0.2,1.9-0.2,1.9c-0.2,0-0.5-1-0.5-2.3c-0.2-2,0-2.3,1.4-3.4c1.8-1.4,2.3-3.3,1.5-5.6c-1.1-3.6-3.2-4.4-6.2-2.6
		c-0.9,0.6-1.7,1-1.8,1c-0.2,0-0.6,0.3-1.1,0.7c-0.8,0.7-0.8,0.7-1.5-0.1c-0.3-0.4-1.1-1.7-1.8-2.9c-0.5-1-1.5-2.6-2-3.3
		c-0.8-1-1.1-2-1.2-4.4c-0.2-3-0.2-3,1.1-4.3c1.1-1.1,1.5-2.2,1.8-5c0.2-0.9,0.3-1,2.2-1.3c1.4-0.1,2.6-0.7,3.7-1.6
		c1.5-1.1,1.8-1.3,3.7-1c2.8,0.4,3.8,0,4.9-1.7c0.9-1.7,1.7-1.7,4.9-0.7c2.8,0.9,4.9,0.3,7.2-1.6c0.9-0.7,2.8-1.9,4.2-2.4
		c1.4-0.6,2.5-1.3,2.5-1.4c0-0.4-5.2,2-6.6,3.2c-2.3,2-5.4,2.6-7.8,1.3c-1.8-0.9-4.2-0.3-4.9,1.4l-0.5,1.3l-2.6-0.1
		c-2.2-0.1-2.9-0.1-4.2,0.7c-0.9,0.4-1.7,1-1.8,1.3c-0.2,0.3-1.1,0.4-2,0.4s-2,0.1-2.2,0.3c-0.2,0.1-0.8,1.4-0.9,2.9
		c-0.3,1.7-0.8,2.9-1.5,3.6c-0.9,0.9-1.1,1.4-1.1,4s0.2,3.2,1.1,4.6c0.6,0.9,1.5,2.3,2,3.4c0.5,1,1.7,2.6,2.5,3.6
		c1.4,1.4,1.5,1.7,1.8,1c0.8-1.9,4.8-4,6.2-3.3c1.1,0.6,2,2.9,2,4.9c0,1.3-0.3,1.9-1.7,3l-1.7,1.4l0.3,3.4c0.3,3.2,0.3,3.4,1.4,3.9
		c0.5,0.3,1.4,0.4,1.5,0.4c0.3,0,0.9,0.4,1.4,1c0.6,0.9,0.6,1.3,0.3,2.6c-0.6,2.3,0,4.2,1.4,4.4c0.6,0.1,1.4,0.6,1.8,1
		c0.8,0.7,0.8,0.9,0.2,2.3c-0.9,2-0.8,2.9,0.5,3.6c1.2,0.6,1.7,2,1.8,4.7c0,0.6,0.2,1,0.5,1c0.5,0,0.5-2.6,0-4.4
		c-0.3-0.9-0.8-1.6-1.5-1.9c-1.2-0.4-1.4-1-0.5-3c0.5-1.3,0.5-1.4-0.2-2.3c-0.3-0.4-1.4-1.1-2.2-1.4c-1.5-0.6-1.7-1.3-0.9-4.4
		c0.3-1.4,0.3-1.4,0.3,0.7c-0.2,2,0.2,2.4,0.8,2.9c2.6,1.3,3.1,1.9,3.1,3.4c-0.2,0.9-0.3,1.9-0.5,2.3c-0.3,0.7-0.3,0.9,0.8,1.4
		c1.1,0.7,1.7,2.2,1.7,5c0,1.3,0.2,1.3,1.5,1c3.2-0.4,8.9,1.9,10.2,4.2c1.1,1.9,2.9,3,4.9,2.9C615.2,187.4,615.4,187.3,616.4,185.1
		L616.4,185.1z"/>
</g>
<g id="China">
	<path id="path13599" fill="#CCCCCC" d="M656.3,127.7L656.3,127.7c-0.3,0.1-0.3,0.9-0.2,1.9c0.3,1.6,0.2,1.6-1.7,2.4
		c-1.1,0.4-2,1-2,1.3s-0.3,1.1-0.8,1.9c-0.5,0.9-1.1,2.3-1.2,3.3c-0.3,1-0.8,2.2-0.9,2.4c-0.3,0.3-0.9,1.3-1.4,2
		c-0.9,1.4-0.9,1.6-0.2,2.6c0.9,1.3,0.9,6,0.2,7.5c-1.5,2.6-6.2,8.2-7.2,8.5c-0.6,0.3-1.5,0.9-2.2,1.4c-1.2,1.3-1.2,3.9,0.2,5.7
		c1.4,2,3.8,3.7,4.9,3.4c1.4-0.3,2.9,0.9,3.4,2.6l0.5,1.4l3.1,0.3l3.1,0.3l0.2,5.2c0.2,5.2,0.2,5.2-1.1,7c-0.8,1-1.2,2-1.2,2.3
		c0,0.3,0.9,0.9,2,1.1c1.1,0.4,3.2,1.6,4.9,2.6c2.5,1.6,3.2,1.9,4.9,1.9c1.4,0,2.8,0.3,4.5,1.3c1.4,0.7,3.2,1.3,4.3,1.4
		c1.4,0.1,2,0.4,3.1,1.7c1.5,1.7,2.5,1.9,5.4,0.9c4-1.3,7.8,0.3,9.4,4c0.8,1.9,1.2,2,2.5,1.1c1.4-1,3.2-0.7,4.6,0.7
		c1.1,1.1,3.5,4.4,4.6,6.2c0.2,0.3,1.4,1.4,2.6,2.4l2.2,1.9l1.2-1.3c2.8-3.2,6.5-6.2,7.4-6.2c0.8,0,2,1,4.5,3.3
		c2.5,2.4,3.7,3.2,4.2,3c0.9-0.3,2.6,0.7,3.2,2.2l0.5,1.3l1.1-1c0.6-0.6,1.2-1.4,1.2-1.9s0.3-1.4,0.8-2c0.8-1,1.1-1.3,2.2-1.3
		l1.4,0.1l-1.5,0.4c-1.4,0.3-1.5,0.6-2,2.3c-0.5,1.9-2.2,4-3.2,4c-0.3,0-0.6-0.3-0.8-0.7c-0.2-0.4-0.8-1.3-1.5-1.9
		c-0.9-0.9-1.4-1-1.8-0.7c-0.3,0.3-0.3,0.4,0.2,0.4c0.3,0,1.4,1,2.2,2.2c1.4,2,2.6,2.9,2.6,1.7c0-0.3,0.5-1,1.2-1.7
		c0.8-0.9,1.4-1.9,1.5-3l0.3-1.7l2-0.1l2-0.1l0.6-2c0.5-1.9,0.9-2.3,2.5-3c4.5-2.2,6.3-4.4,6.8-8c0.2-1.3,0.5-2.7,0.9-3.2
		c0.5-0.7,0.5-1.3,0.2-3.2c-0.5-2-0.5-2.4,0.2-3.7c0.3-0.7,0.9-1.4,1.4-1.6c0.9-0.3,0.8-0.9-0.8-2.6c-1.7-1.7-1.8-2.9-0.6-4.2
		c0.9-1.1,1.1-2.9,0.2-3.6c-0.5-0.3-0.6-1-0.5-2c0.2-2.2-1.8-5.7-3.7-6.9c-1.8-1.1-3.8-3.3-3.8-4.3c0-0.4-0.2-0.7-0.5-0.7
		c-0.6,0-0.5,1.1,0.2,2.3c0.3,0.4,1.5,1.7,2.8,2.6c2.6,1.9,4.2,4.4,4.2,6.9c0,1,0.3,2.2,0.6,2.6c0.8,1,0.8,2.2-0.2,3.3
		c-0.5,0.4-0.8,1.3-0.8,1.7c0,0.9,1.1,2.6,2,3c0.6,0.3,0.8,1.7,0.2,2c-0.3,0.1-0.8,0.9-1.2,1.7c-0.8,1.4-0.8,1.6-0.2,3.4
		c0.6,1.9,0.6,2-0.2,3.4c-0.5,0.9-0.9,1.3-0.9,0.9c0-0.4,0.3-1,0.6-1.4c0.6-0.7,0.5-1-0.2-2.9c-0.8-2.2-0.5-3.6,1.1-5.3
		c0.8-0.9,0.8-0.9-0.5-2c-1.5-1.6-1.8-3.7-0.3-5.5c0.9-1,0.9-1.1,0.2-1.9c-0.5-0.4-0.8-1.6-0.9-3.2c-0.2-2.9-1.2-4.4-4.2-6.5
		c-2.2-1.6-3.1-2.6-3.4-4.4c-0.2-0.7-0.5-1.3-0.6-1.4s-2.6-0.6-5.5-1c-4-0.7-5.4-0.7-6.2-0.4c-1.5,0.7-2.9,0.4-5.5-0.7l-2.5-1.1
		l-1.8,0.9c-1.1,0.4-2.6,0.9-3.4,0.9c-1.2,0-1.7-0.1-2.2-1s-0.9-1-3.4-1.1c-1.5-0.1-4.2-0.1-5.7-0.1c-4.2,0.1-6.8-0.7-7.5-1.9
		c-0.5-0.9-3.4-2.6-5.7-3.3c-0.3-0.1-1.8-1.4-3.1-3c-1.2-1.6-3.1-3.4-4-4l-1.7-1.1v-3c0-2.4-0.2-3.2-0.9-4c-0.5-0.6-1.1-1-1.5-1
		c-0.5,0-1.7-0.4-2.9-1c-2.2-1-2.3-1-3.1-3.4c-1.2-3.9-2.5-5.7-3.2-5.5c-1.1,0.4-3.4,0.7-4.5,0.4c-0.5-0.1-2-0.9-3.1-1.9
		C657.8,128.3,656.7,127.7,656.3,127.7z"/>
</g>
<g id="Mongolia">
	<path id="path13231" fill="#B3B3B3" d="M725.1,105.9c-0.2,0-0.2,0.1-0.3,0.1c-0.3,0.3-1.4,0.6-2.6,0.9c-1.1,0.3-2.5,0.4-2.9,0.6
		c-0.8,0.1-0.9,0.6-1.1,3.4c-0.3,4-1.5,8-3.1,9.6c-1.1,1.3-1.1,1.3-3.7,1c-2.6-0.3-3.1-0.1-7.1,1.9c-1.8,0.9-10,0.4-13.1-0.7
		c-2.2-0.7-2.3-0.9-3.4-0.1c-1.7,0.9-4.8,0.9-6-0.1c-0.5-0.4-1.5-0.9-2.3-1c-3.1-0.6-3.1-0.6-2.8,0c0.2,0.3-1.5,1-2.2,2
		c-0.9,2.3-1.5,3.2,0.3,7l1.7,3l-1.1,2c-0.9,3-0.8,4,1.8,5.2c0.8,0.9,1.4,2.3,1.4,4.6c0.2,2.9,0.2,3,1.5,3.9
		c0.8,0.4,2.5,2.2,3.7,3.6c2,2.3,2.6,2.9,4.5,3.6c2.2,0.7,4,2,4.8,3.4c0.3,0.6,1.1,0.7,4.5,0.9c11.1,0.3,10.6,0.3,11.7,1.4
		c0.8,0.9,1.1,1,2.5,0.9c0.9-0.1,1.7-0.4,1.8-0.6c0.5-0.7,3.7-0.3,5.7,0.7c1.8,1,2.2,1,3.7,0.4c1.8-0.6,3.5-0.3,10.3,1l2.8,0.6
		l1.5-1c2.2-1.6,2-2.9-0.3-1.9c-2,1-3.8,0.6-4.6-1c-0.3-0.7-1.1-1.4-1.5-1.7c-2.5-1.3-2.5-3.2,0.2-6.7c1.8-2.4,4.5-4.6,4.9-4
		c0.2,0.1-0.3,0.4-0.9,0.9c-1.5,0.7-5.2,5.7-5.2,7.2c0,0.9,0.9,2,2.2,2.6c0.2,0.1,0.6,0.7,0.9,1.3c0.8,1.3,2.2,1.7,4.2,1
		c2.5-0.9,3.2,1,1.1,2.7c-0.8,0.6-1.1,1-0.9,1c0.8,0,3.1-2.3,3.1-3c0-0.4-0.5-1-1.1-1.4c-1.1-0.7-1.2-0.7-2.6-0.1
		c-2,0.9-2.6,0.9-3.2-0.7c-0.3-0.7-1.1-1.7-1.8-2c-1.5-0.7-1.5-1.4-0.3-3.3c0.5-0.7,1.4-2,2-2.9c2.5-3.4,5.5-2.9,4.5,1
		c-0.6,2.3,0.2,2.7,1.8,1.1c2.3-2.3,5.1-1.3,5.1,2c0,1.9,0.3,2,2.2,1.4c1.4-0.4,1.7-0.3,2.5,0.3c0.5,0.4,0.9,1.3,0.9,1.9
		s0.2,2.3,0.5,3.6c0.5,2.3,0.5,2.4,1.5,2.4c0.9,0,1.2-0.3,1.8-2c0.5-1,0.9-2,1.1-2.3c0.3-0.1,0.8-0.9,0.9-1.6c0.5-1.1,0.5-1.4,0-2.6
		c-0.3-0.7-0.9-1.4-1.2-1.4c-0.3,0-2.2-1.4-4-3.3c-2.2-2.2-3.4-3-3.4-2.6c0,0.7,3.7,4.2,7.1,6.9c1.5,1.3,1.5,2.3-0.2,4.6
		c-0.5,0.7-1.1,1.9-1.4,2.4c-0.3,0.6-0.6,1-0.8,1c-0.5,0-1.4-4-1.2-5.3c0.2-0.7,0.3,0,0.8,2l0.5,3l0.5-1.3c0.3-0.7,0.9-1.9,1.4-2.6
		c1.2-1.6,1.1-3,0-3.6c-1.5-0.9-5.7-4.7-7.4-6.9c-1.7-2.3-2.5-5.3-1.8-7c0.3-0.6,0.9-1.6,1.5-2.3c0.6-0.7,1.4-2,1.5-2.9
		c0.3-1,0.6-2,0.8-2.4c0.2-0.4,0.2-0.7-0.5-0.7c-1.1,0-3.4-2.3-3.4-3.3c0-1.6-0.5-2-2.9-2.9c-3.7-1.3-4.2-2.9-1.8-5.7
		c1.4-1.7,1.1-2.3-1.2-2.6c-1.4-0.1-2.2-0.6-2.8-1.3c-0.5-0.6-1.5-1.7-2.3-2.4c-0.8-0.7-2.6-3.2-4.2-5.3
		C726.9,107.2,725.8,105.8,725.1,105.9L725.1,105.9z"/>
</g>
<g id="Irkutsk">
	<path id="path12951" fill="#B3B3B3" d="M705.2,122.4c2.8-1.3,3.2-1.4,5.5-1.1l2.6,0.3l1.5-1.4c2-1.7,2-4.9,2.8-7.8
		c0.8-2.7-1.1-4.6,3.1-5.3c1.5-0.3,3.2-0.7,3.7-1c0.8-0.3,1.2,0.1,1.8,0.4c1.1,0.4,2.6,3.2,4.8,6.2c3.2,4.9,8.2,9,8.8,7.8
		c0.5-0.9,1.1,0,0.9-3.9c-0.2-3.3,0-4,0.9-5.3c0.6-1,0.9-2.2,0.9-3.4c0-2-0.5-2.7-4.5-6.6c-2.5-2.4-3.2-2.4-6.6-1
		c-3.8,1.7-5.1,1.1-5.1-2.3c0-1.6-0.3-1.9-3.7-5.2c-2-1.9-4.2-4.2-4.8-5l-1.1-1.6l0.2-8.3l0.2-8.3H712c-4.6,0-5.1,0.1-6.3,1
		c-1.7,1.1-2.3,1.3-3.4,0.1l-0.9-0.9l-0.3,2.4c-0.3,3-2,5.2-3.5,5c-0.6-0.1-1.2,0.1-1.7,0.6c-0.5,0.4-2.5-2.6-3.2-2.6
		c-1.4,0-2.5,3.2-3.1,4.6c-0.5,0.9-1.1,2.4-1.1,3c0,0.7,0,1-0.3,1.4c-0.8,0.7,0,1,1.1,3c0.9,1.7,0.8,1.4,0.5,2.7
		c-0.2,0.9-0.5,0.1-0.5,1.4c-0.8,1.6,0.8,3.4-0.5,4.7c-0.9,0.9-0.5,1-1.1,1c-1.2,0-1.8-1.6-2.8-2.7c-1.1-3.4-5.5-4.4-8-0.3
		c-1.8,1.4-3.1,3.2-3.1,3.6c0,1.3-0.2,2.4-0.9,2.6c-0.3,0.1-0.9,0-1.8-0.1c-3.4-0.3-3.2,2.6-1.8,4c0.2,0.7,0.6,2.2,1.1,3.2
		c0.9,1.9-0.2,3.4-0.8,3.7c-0.3,0.1-2.5,5-2.5,5.3c0,0.1,2.5,1.6,4,2.4c2.3,1.4,3.2,1.7,5.1,1.9c1.5,0.1,3.4,0.4,5.1,1.3l1.7,0.9
		c0.8-0.3,2.3-0.1,3.5-0.4c2-0.6,1.5-0.9,3.7-0.1c2,0.6,6.2,1,10.2,1.3C701.7,123.7,703.1,123.4,705.2,122.4z"/>
</g>
<g id="Yakutsk">
	<path id="path12701" fill="#999999" d="M695.4,77.4c0.3,0.1,2.5-0.3,2.8-0.4c1.2-0.4,1.8-1.1,2.2-2.3c0.5-1.4,0.3-1.6,0.5-1.9
		l0.3-3.2c0.8,0.4,1.1,1.4,2.5,1.4c0.5,0,0.9,0,2-0.7c1.2-0.9,0.5-0.9,4.9-1l6.2,0.1v-5.3c0-3,3.1-3.6,3.1-5.9
		c0-1.6,1.1-3.2,2.5-3.7c0.8-0.3,2-1.1,2.8-2c1.5-1.6,4-2.4,5.2-1.7c0.5,0.3,2.2,2.7,2.6,4c0.2,0.1,0.9,0.1,1.8-0.1
		c1.5-0.4,1.8-0.3,2.6,0.3c0.8,0.7,2,0.9,2.5,0.3c0.2-0.1,0.5-1.7,0.9-3.4l0.8-3l-3.1-2.6l-3.1-2.6l0.2-3.6c0.2-3.9,0.5-4.4,3.2-5.7
		c2-0.9,4.5-3.4,5.1-5.2c0.5-1.1,0.5-1.4-0.2-2c-0.9-1-0.8-1.4,0.3-0.7c1.2,0.7,1.4,0.4,0.3-0.6c-0.5-0.4-1.4-0.7-2.6-0.7
		c-2.2,0-2.6-0.3-3.2-2.6c-0.3-1-0.9-1.9-1.5-2.2c-0.9-0.4-1.1-0.4-2.5,0.7c-1.8,1.6-2.8,1.6-3.2,0.1c-0.6-1.7-1.4-2-5.8-2h-3.8
		l0.3,1.3c0.2,0.7,0.3,1.7,0.5,2.2c0.2,0.7,0,1-0.8,1.4c-0.8,0.4-1.5,0.6-4.2,0.3c-1.7-0.1-3.2-0.3-3.5-0.1
		c-0.3,0.1-0.9,0.9-1.4,1.7c-1.2,2.2-2.5,2.2-4.8-0.1c-1.1-1-2.2-1.7-2.6-1.7c-1.1,0-2-1.6-2-3.6c0-2.4-0.8-3.2-3.1-3.4
		c-1.5-0.1-1.7-0.1-3.2,1.4c-3.4,3.3-4,4-3.7,4.2c0.2,0.1,1.4-0.9,2.8-2.3c1.4-1.4,2.8-2.4,2.9-2.4c0.5,0.3-4.3,4.9-5.4,5.3
		c-1.5,0.4-1.8,1.9-0.6,3.2c1.1,1,2.8,1.7,3.5,3.2c0.5,1-0.6,1.4-1.5,2.4c-0.5,0.7-0.8,1-0.8,1s0.3,3,0.2,5.3s-0.5,4.4-0.6,5.2
		c0,0-0.5,0.9-3.5,0.7c-2.2-0.1-2.2-1-3.1-0.9c-1.1-0.6-2.5,1.4-3.2,2.3c-0.5,0.4-2,1.3-3.1,2c-1.8,1.4-1.5,2.6-0.8,3
		c0,0.4,1.4,1.3,2.2,1.3c1.4-0.1,2.6-0.1,4.2,2.2c1.1,1.7-0.5,1.1-0.8,2.6c-0.3,1.1,0.8,3,0.8,3c0.3,0.7,1.4,2.9,1.4,4.6
		c0,1.9,0.3,3.2,1.1,3.3c1.4,0.4,1.4,0.4,0.9,1.9c-0.3,1-0.2,2.3,0.8,3.4c0.5,0.9,0.8,2,1.1,1.9C692.7,74.2,694.7,77.2,695.4,77.4
		L695.4,77.4z"/>
</g>
<g id="Japan">
	<path id="path13309" fill="#CCCCCC" d="M800.1,69.9c-0.6,0-0.8,0.3-1.2,1c-0.8,1.3-0.5,1.7,0.8,2.3c1.8,0.9,3.1,5,1.7,6
		c-0.5,0.4-1.4,2.6-2,5.5c-0.2,0.7,0.2,1.3,1.4,2.7c2.5,2.4,2.5,3.2,0.8,4.9c-0.8,0.7-1.7,1.9-2,2.4c-0.5,1-0.5,1.3,0.8,2.3
		c0.9,0.9,1.4,1.4,1.4,2.4c0,1.6-0.8,2.7-1.5,2.7c-0.5,0-0.6,0.3-0.5,0.7c0.2,0.6,0,0.7-0.8,0.9c-0.8,0-0.8,0.1-0.3,0.3
		c0.3,0.1,0.9,0.3,1.4,0.1c0.8-0.1,0.8,0,0.5,1.7c-0.3,2-1.1,3.3-2.2,3.3c-0.3,0-0.5,0.1-0.5,0.4s-0.2,0.3-0.3,0.3
		c-0.2-0.1-1.1,0.7-2,1.7c-1.2,1.6-1.7,2.4-1.8,4.3c-0.2,1.3-0.5,2.4-0.8,2.6c-0.2,0.1-1.4,0.7-2.6,1c-2.2,0.7-2.6,1.1-2.6,2.9
		c0,0.7-0.8,1.9-2.2,3.4c-2,2.3-2.2,2.4-2,4c0.2,1.4,0,1.9-1.4,3.2c-2,2-2,2.9,0.2,3.9c0.9,0.4,1.8,1.3,2,1.7
		c0.8,1.7,2.5,4.2,3.1,4.2c0.3,0,1.2-0.7,1.8-1.7c0.9-1.3,1.4-2.2,1.4-4.2c0.2-2.6,0.5-3,2.5-3.4c1.4-0.3,5.1-3.2,5.1-4
		c0-0.3,0.3-1,0.6-1.4c0.6-0.9,0.8-0.9,2.2-0.3c1.4,0.6,1.5,0.6,2,0c0.3-0.3,0.6-1.3,0.8-2.3c0.2-1.3,0.8-2.3,2.2-3.7
		c1.8-2,2.2-2.2,4.2-2.3s2.3-0.3,3.2-1.7c0.5-0.9,1.5-1.9,2.3-2.3c0.9-0.6,1.2-1.1,1.2-2c0-2-1.2-7.9-2.2-9.9
		c-0.8-1.6-0.8-2.2-0.5-3.4c0.6-2.3,0-6.6-1.2-7.8c-2-2.2-3.8-3.7-5.5-4.7c-3.1-1.7-1.8-3.3,3.2-4.2l2.9-0.4v-1.4
		c0-1,0.3-1.7,1.4-2.9c0.8-0.7,1.5-1.4,1.8-1.4c0.2,0,0.9-0.7,1.5-1.4l1.1-1.4l-0.9-0.6c-0.5-0.3-1.4-1-2-1.7c-1.1-1-1.1-1-2.2-0.4
		c-1.5,1-7.5,0.6-10.3-0.7c-1.2-0.6-2.6-1-3.4-1.3C800.6,70,800.3,69.9,800.1,69.9z"/>
</g>
<g id="Lamchatka">
	<g id="path6802">
		<path fill="#999999" d="M746,27.3l-1.4,2l-4.3,4.3l-3.2,1.9l-0.6,1l-0.6,2.4l-0.2,4.4l6.2,5l-1.5,6.9c0,0-0.5,1.1-1.2,1.3
			c-1.8-3-5.5-1.4-5.7-1.4l-0.9-0.3c-0.3-1.4-1.1-2.9-1.8-3.3c-0.9-0.7-1.2-0.7-1.8-0.6c-0.3-0.4-5.2,3.2-5.2,3.2s-2,1-2.3,1.6
			c-0.8,1.1-0.9,2.6-0.9,2.6l-1.5,2.4c-0.8,0.7-1.5,1.4-1.5,2c0,0-0.2,0.4-0.3,3c0,0.7,0.2,3.6,0.2,3.6v14.1l-0.2,2.4
			c0,0,0.6,1,1.5,1.9c0.8,0.9,7.1,7.3,7.1,7.3s1.2,1.6,1.4,3.2c0.2,1.6,0.9,2,0.9,2c0.3,1.1,4.9-1,5.7-1.7c0.8-0.7,1.2-0.9,2-0.1
			c0.8,0.9,4.3,3.2,4.3,3.2l3.1,4.2c1.4,0.1-1.1,3.2-1.5,11.2c-0.2,3.7-0.9,2.9-0.6,3c0,0,2.2,2.3,1.1,2.2c-1.4-0.1-2,2.7-2,2.9
			c0,0-0.3,2.3,0.9,2.6c0.8,0.1,4.3,2,4.3,2s0.6,2.6,1.8,3.4c1.8,1.3,3.2,1.6,3.2,1.6l1.4-0.9l1.5-2.6l0.2-0.3l2.2-12.1v-5l-0.9-2.4
			l-0.8-4.3l-1.8-4.7l-0.3-4.2l-0.3-2.6l-1.5-1.6l-1.5-2.2l-2.6-0.7l-2.5,1.3l-2.2-0.1l-1.1-2l-1.5-1.3l-1.5-0.9l-1.1-1l0.6-2.3
			l0.5-2.4l0.8-0.9l1.1-0.7l1.4-2l0.6-1.7l1.4-2.4l2.6-0.6l1.2-0.9l2.2-0.9l2.9-0.3l2,0.4l0.8,0.7l0.9-0.3l1.1-1.1l0.5-1.1l3.2-0.3
			l1.1,2l0.9,2l2.5-0.4l0.6-1.7l-2.5-4.2l-0.5-2.6c0,0,1.5-2.4,3.5-2.6c2-0.3,3.4,2,3.4,2l0.9,2.4l1.4,0.1l0.8-1.9l0.5-4.7l2.2-0.4
			l2.9,1.3l-2.5,6.2l-2,6.2l-2.5,5.3l-0.9,9.2l3.1,7.2l3.2,5.5l4.5,3l3.4-4.3l0.5-6.9l-1.4-3.2l0.2-7.6l-2-4.6l-1.7-3.4l0.9-2.6
			l2.5-0.9l0.8-2.2h2.8l1.5,2.3l1.5-0.4c0,0,1.4-3,1.8-3c0.5,0,2.9-3.6,2.9-3.6l3.5-4.2l3.1-3.4l-2.2-3.3l-2.5-2.6l-0.8-2.9l2.8,0.7
			l3.4,2l2.5,1.3l0.6,2.9l4.3-0.6l2.9-1.9l1.8-2.6l-0.5-1.3l2.5-0.6l-0.9-2l-2.2-2.3c0,0-6-3-6.6-3c-0.8,0-4.9-1.4-4.9-1.4
			s-18-10.8-17.1-11.2c0.9-0.6-8.8-0.3-8.8-0.3l-3.4,3.6l-7.2-1l-7.2-0.6l-6.5-3.2L746,27.3z"/>
		<path fill-opacity="0" stroke="#000000" stroke-width="2.000000e-03" d="M746,27.3l-1.4,2l-4.3,4.3l-3.2,1.9l-0.6,1l-0.6,2.4
			l-0.2,4.4l6.2,5l-1.5,6.9c0,0-0.5,1.1-1.2,1.3c-1.8-3-5.5-1.4-5.7-1.4l-0.9-0.3c-0.3-1.4-1.1-2.9-1.8-3.3
			c-0.9-0.7-1.2-0.7-1.8-0.6c-0.3-0.4-5.2,3.2-5.2,3.2s-2,1-2.3,1.6c-0.8,1.1-0.9,2.6-0.9,2.6l-1.5,2.4c-0.8,0.7-1.5,1.4-1.5,2
			c0,0-0.2,0.4-0.3,3c0,0.7,0.2,3.6,0.2,3.6v14.1l-0.2,2.4c0,0,0.6,1,1.5,1.9c0.8,0.9,7.1,7.3,7.1,7.3s1.2,1.6,1.4,3.2
			c0.2,1.6,0.9,2,0.9,2c0.3,1.1,4.9-1,5.7-1.7c0.8-0.7,1.2-0.9,2-0.1c0.8,0.9,4.3,3.2,4.3,3.2l3.1,4.2c1.4,0.1-1.1,3.2-1.5,11.2
			c-0.2,3.7-0.9,2.9-0.6,3c0,0,2.2,2.3,1.1,2.2c-1.4-0.1-2,2.7-2,2.9c0,0-0.3,2.3,0.9,2.6c0.8,0.1,4.3,2,4.3,2s0.6,2.6,1.8,3.4
			c1.8,1.3,3.2,1.6,3.2,1.6l1.4-0.9l1.5-2.6l0.2-0.3l2.2-12.1v-5l-0.9-2.4l-0.8-4.3l-1.8-4.7l-0.3-4.2l-0.3-2.6l-1.5-1.6l-1.5-2.2
			l-2.6-0.7l-2.5,1.3l-2.2-0.1l-1.1-2l-1.5-1.3l-1.5-0.9l-1.1-1l0.6-2.3l0.5-2.4l0.8-0.9l1.1-0.7l1.4-2l0.6-1.7l1.4-2.4l2.6-0.6
			l1.2-0.9l2.2-0.9l2.9-0.3l2,0.4l0.8,0.7l0.9-0.3l1.1-1.1l0.5-1.1l3.2-0.3l1.1,2l0.9,2l2.5-0.4l0.6-1.7l-2.5-4.2l-0.5-2.6
			c0,0,1.5-2.4,3.5-2.6c2-0.3,3.4,2,3.4,2l0.9,2.4l1.4,0.1l0.8-1.9l0.5-4.7l2.2-0.4l2.9,1.3l-2.5,6.2l-2,6.2l-2.5,5.3l-0.9,9.2
			l3.1,7.2l3.2,5.5l4.5,3l3.4-4.3l0.5-6.9l-1.4-3.2l0.2-7.6l-2-4.6l-1.7-3.4l0.9-2.6l2.5-0.9l0.8-2.2h2.8l1.5,2.3l1.5-0.4
			c0,0,1.4-3,1.8-3c0.5,0,2.9-3.6,2.9-3.6l3.5-4.2l3.1-3.4l-2.2-3.3l-2.5-2.6l-0.8-2.9l2.8,0.7l3.4,2l2.5,1.3l0.6,2.9l4.3-0.6
			l2.9-1.9l1.8-2.6l-0.5-1.3l2.5-0.6l-0.9-2l-2.2-2.3c0,0-6-3-6.6-3c-0.8,0-4.9-1.4-4.9-1.4s-18-10.8-17.1-11.2
			c0.9-0.6-8.8-0.3-8.8-0.3l-3.4,3.6l-7.2-1l-7.2-0.6l-6.5-3.2L746,27.3z"/>
	</g>
</g>
<g id="WesternAustralia">
	<g id="path8926">
		<path fill="#CCCCCC" d="M672.6,336.4l-2,8.5l-7.7-4l-6.9,7.3l-0.3,1l-0.2,1.9l-1.1,2.9l-2.5-0.9c0,0-1.4-2-1.8-1.3
			c-0.6,0.9-0.5,3-0.5,3s-0.2,3.6-0.3,3.7c-0.2,0.1-1.4,1.9-1.4,1.9l-4.8,3.2l-5.8,3.2l-3.1,1.7l-2,1.1l-3.4,2l-1.2,0.4l-1.4,0.7
			l-0.8,0.7l-0.2,0.4l-0.2,0.9l0.3,0.6l0.6,0.1l0.5,0.1l0.3,0.6l0.3,1.1l0.3,1.9l0.3,1.4l0.8,2.4l0.5,0.7l0.8,1.4l0.2,1l0.2,1.3
			l0.2,2.4v2.3v1.3l1.4,1.3l1.5,1.7l0.9,1.3l0.3,0.7l0.8,2.2l1.8,3.2l0.5,0.4l0.3,0.1l0.9,0.6l1.1,1.1l0.6,1.3l-0.5,1.4l-0.3,1.1
			l-1.5,1.7l-0.3,1.9l0.9,1.7l2.3,0.3h4.8l2.9-1.3l2.2-3l3.5-0.7l4.5-0.7l2.2-0.9l9.4-7.5c0,0,8.5-2.4,9.4-1.9
			c0.8,0.6,4.6,0.4,4.6,0.4l1.7,0.1l0.9,0.3l1.7,1.6l1.1,1.4l0.5,0.9l0.3,1.6l0.6,2l0.5,0.1l1.5-1l0.3-0.7l0.5-0.3l2,0.6l0.2,1.6
			h2.2l0.9,1.7l2,1.3l2-2.9l0.6-6l-0.8-5.5l1.4-20.4l-27.8-1l-0.6-4l-0.6-21.4l-1.4-1.3L672.6,336.4z"/>
		<path fill-opacity="0" stroke="#000000" stroke-width="3.000000e-03" d="M672.6,336.4l-2,8.5l-7.7-4l-6.9,7.3l-0.3,1l-0.2,1.9
			l-1.1,2.9l-2.5-0.9c0,0-1.4-2-1.8-1.3c-0.6,0.9-0.5,3-0.5,3s-0.2,3.6-0.3,3.7c-0.2,0.1-1.4,1.9-1.4,1.9l-4.8,3.2l-5.8,3.2
			l-3.1,1.7l-2,1.1l-3.4,2l-1.2,0.4l-1.4,0.7l-0.8,0.7l-0.2,0.4l-0.2,0.9l0.3,0.6l0.6,0.1l0.5,0.1l0.3,0.6l0.3,1.1l0.3,1.9l0.3,1.4
			l0.8,2.4l0.5,0.7l0.8,1.4l0.2,1l0.2,1.3l0.2,2.4v2.3v1.3l1.4,1.3l1.5,1.7l0.9,1.3l0.3,0.7l0.8,2.2l1.8,3.2l0.5,0.4l0.3,0.1
			l0.9,0.6l1.1,1.1l0.6,1.3l-0.5,1.4l-0.3,1.1l-1.5,1.7l-0.3,1.9l0.9,1.7l2.3,0.3h4.8l2.9-1.3l2.2-3l3.5-0.7l4.5-0.7l2.2-0.9
			l9.4-7.5c0,0,8.5-2.4,9.4-1.9c0.8,0.6,4.6,0.4,4.6,0.4l1.7,0.1l0.9,0.3l1.7,1.6l1.1,1.4l0.5,0.9l0.3,1.6l0.6,2l0.5,0.1l1.5-1
			l0.3-0.7l0.5-0.3l2,0.6l0.2,1.6h2.2l0.9,1.7l2,1.3l2-2.9l0.6-6l-0.8-5.5l1.4-20.4l-27.8-1l-0.6-4l-0.6-21.4l-1.4-1.3L672.6,336.4z
			"/>
	</g>
</g>
<g id="MiddleEast">
	<path id="path13859" fill="#B3B3B3" d="M547.4,179.5c-0.2,0-0.3,0-0.3,0c-1.7,0-3.7,0.4-5.8,1.3c-4.9,1.9-9.2,3.2-10.6,3.2
		s-2-0.4-4.3-3l-1.1-1.3l-0.9,0.9c-2.2,1.9-3.1,3.6-3.8,8l-0.9,4.4l0.9,1.3c0.8,0.9,0.9,2,1.1,4.3c0.2,2.3,0.3,3.2,0.9,3.3
		c4.5,1.7,6.6,2.2,11.1,2.2c4.5,0,4.5,0,5.4,1c0.8,0.9,1.2,1,2.8,1c1.8,0,2-0.1,3.4-1.7c1.5-1.7,2.6-2,4.2-0.9
		c1.5,1.1,1.7,2,1.2,5.7c-0.3,2.4-0.3,3.9,0.2,5.2c0.5,1.9,0.2,5-0.9,7.3c-0.3,0.7-1.5,2.3-2.8,3.4l-2.2,2l1.5,2
		c2.9,3.9,3.5,4.7,4,6.2c0.5,1.3,0.8,1.6,2.8,2.4c1.5,0.7,2.5,1.3,2.9,2c0.3,0.7,1.4,1.9,2.2,2.4c0.9,0.9,2,2.6,3.1,4.7
		c1.8,3.9,3.4,6,6.3,8.5c1.8,1.4,2.6,3.2,1.5,3.2c-0.2,0-0.5,0.3-0.6,0.7s-0.2,0.7,0.2,0.6c0.2-0.1,0.5,0.1,0.9,0.4
		c0.5,0.4,0.6,0.4,0.9,0.1c0.8-1,2.3,1.4,4,6.5c0.5,1.3,1.4,2.9,2.2,3.7c1.1,1.3,1.5,1.4,4,1.7c4.2,0.4,8.5,0,9.1-0.9
		c0.3-0.4,1.5-1,2.5-1.6c1.1-0.4,3.1-1.7,4.5-2.6s3.8-2.3,5.4-2.9c2.2-0.9,2.9-1.4,3.8-3c0.8-1,2.2-2.9,3.4-4.2
		c2.5-2.6,5.5-8,6.5-10.9c0.6-2.3-0.2-6.6-1.4-8.3c-0.5-0.7-1.5-1.6-2.5-2c-0.9-0.4-1.8-1.4-2.5-2.3c-0.6-1.1-1.2-1.7-2.3-1.9
		c-1.2-0.3-1.7-0.1-3.1,0.7c-3.1,1.9-7.2,1.1-7.2-1.1c0-0.7-0.3-1-1.2-1.3c-0.6-0.3-2-1.3-3.1-2.4c-0.9-1-2.3-2.4-2.9-2.9
		c-0.9-0.7-1.1-1.4-1.5-4.4c-0.5-3.4-0.5-3.6,0.5-4.4c0.5-0.4,1.4-0.9,1.8-0.9s1.4-0.4,2-1.1c0.6-0.7,1.5-1.1,1.8-1.1
		c1.1,0,2.6,4.4,2.8,8c0,2.2,0.3,2.4,2.6,4.4c1.8,1.4,2.9,1.6,6,0.9c2-0.4,2.9-0.1,3.7,1.4c0.3,0.7,0.8,0.9,2.3,0.9
		c1.8,0,2-0.1,5.1-3c1.7-1.7,3.4-3.4,3.7-4.2c0.3-0.6,0.8-1,0.9-1c0.3,0,0.5-0.1,0.5-0.4c0-1-1.1-0.1-3.5,2.9
		c-2.6,3.2-5.1,5.2-5.5,4.7c-0.2-0.1-0.2-0.3-0.2-0.3c1.7-1.1,3.2-2.7,5.7-5.3l2.8-3.2l-1.1-1.9c-1.1-1.7-1.1-2.3-0.9-4.7
		c0.2-2,0-3.2-0.3-3.6c-0.3-0.4-1.4-2.4-2.5-4.4l-2-3.7l-0.3-6c-0.3-5.7-0.5-6.2-1.4-6.6c-0.8-0.4-2-1.6-4.9-4.6
		c-1.1-1.1-5.4-2.3-7.2-2c-1.4,0.3-1.4,0.3-1.7,2.4c-0.3,3.9-2.2,4.6-8.3,3.4c-4.8-1-6.5-1.7-7.7-3.4l-1.1-1.3l-1.8,0.9
		c-0.9,0.4-3.1,1.3-4.6,1.9c-2.5,0.7-3.4,0.9-5.7,0.7c-1.5-0.1-3.2-0.4-3.4-0.6c-0.3-0.3-1.1-0.3-2.2,0c-1.8,0.4-3.4,0.4-3.1,0.1
		c0.2-0.1,1.2-0.4,2.5-0.6c1.7-0.3,3.1-0.3,5.4,0.1c2.9,0.4,3.2,0.4,5.7-0.3c1.4-0.4,3.5-1.3,4.8-1.9c2-1,3.4-1.1,3.4-0.3
		c0,0.1,0.8,0.9,1.5,1.7c1.2,1.1,2.2,1.4,5.5,2.3c4.8,1,6.2,1,7.4-0.1c1.1-0.9,1.7-3.4,1.1-4c-0.3-0.3-0.5,0.3-0.8,1.4
		c-0.2,1-0.5,2-0.9,2.3c-0.8,0.6-3.2,0.6-5.2,0.1c-0.8-0.3-2.2-0.4-2.9-0.7c-2-0.3-4.2-1.7-5.1-3.4l-0.8-1.4l-3.1,1.4
		c-4.8,2.3-6.9,2.9-9.5,2.4c-1.2-0.1-2.8-0.4-3.2-0.7c-0.8-0.3-1.4-0.3-3.1,0.1c-1.1,0.3-3.5,0.6-5.2,0.7c-2.8,0.1-3.4,0.1-4.5-0.6
		c-0.8-0.4-1.5-1.3-1.8-2C550.7,180.3,549.4,179.7,547.4,179.5z"/>
</g>
<g id="SouthernEurope">
	<path id="path13549" fill="#CCCCCC" d="M515.8,210.4c-0.2-0.1,0.2-0.4,0.5-0.6c0.3-0.1,0.5-0.4,0.5-0.6c-0.2-0.1,0.3-0.7,0.8-1.1
		c1.4-1,1.4-1.4,0-2.4s-1.4-1.7,0.2-3.2l1.1-1l-0.9-0.7c-2-1.4-3.4-2.9-3.7-3.9c-0.2-0.6-0.3-1.3-0.3-1.4c-0.2-0.3,0.2-0.7,0.3-1
		c0.3-0.6,0.8-0.7,2.2-0.4c1.2,0.1-2-0.1-1.5-0.6c0.3-0.3,1.2-2.3,2-5.2c0.8-2.9,0.8-3.2,1.1-3.6c1.2-1.4,2.2-2.7,3.7-4.4
		c1.5-1.6-3.2-4-2.8-6c0.3-0.9,8.3-6.3,8-7.2c-0.3-1.9-1.4-6.2-1.4-11.1c0-2.3-0.5-3.2-5.5-8.8c-0.3-0.3-0.8-0.4-1.1-0.4
		c-0.9,0-4.8,4-6,6.5c-1.1,2-1.2,2.6-0.9,4.2c0.2,1,0.3,2.4,0.3,3.4v1.7h-5.1c-4.8,0-5.1-0.1-5.5-0.9c-1.1-1.6-1.2-4.4-0.5-6.3
		c0.9-2.3,0.6-2.4-3.7-2.4c-4.8,0-6.6,1.1-6.6,4.2c0,1.4-2.5,2.9-4.8,2.9c-1.1,0-2.5,0.3-3.1,0.7c-0.8,0.4-1.5,0.6-2.9,0.4
		c-1.1-0.1-2.6-0.3-3.7-0.4c-1.4-0.1-2-0.1-2.9,0.6c-1.1,0.9-1.1,1-1.1,3.9c0,2.7-0.2,3.2-1.1,4.2l-1.1,1.1l1.1,1.4
		c0.9,1.3,1.1,1.7,0.9,3.9c-0.2,2.2-0.2,2.4,0.8,3.2c0.5,0.4,1.2,0.7,1.4,0.6c0.8-0.4,3.4,0.6,3.8,1.4c0.3,0.4,0.3,1.7,0.3,2.7
		c-0.2,1,0,2,0.2,2c0.2,0,0.6,0.3,1.1,0.4c1.7,0.7,7.7,8.5,7.7,9.9c0,0.7-0.6,0.3-0.8-0.4c0-0.4-1.2-2.3-2.6-4
		c-3.5-4.3-4.2-5-5.4-5.3c-0.9-0.3-0.9-0.4-0.8-2.3c0.3-1.9,0.2-2-0.8-2.9c-1.1-0.9-2.9-1.3-2.5-0.6c0.2,0.3,0.5,0.4,0.8,0.4
		c1.1,0,1.5,1.1,1.5,3.6c-0.2,2.3-0.2,2.3,1.1,2.6c0.8,0.1,1.8,0.9,2.8,2.3c0.9,1,1.8,2.3,2.2,2.6c2,1.9,2.6,3.2,2.6,4.7
		c0,0.9-0.3,2.4-0.5,3.3l-0.5,1.6l-4.2,0.3c-2.3,0.1-4.3,0.4-4.8,0.7c-0.5,0.4-0.5,0.7,0.9,1.9c1.5,1.3,1.7,1.3,3.8,1
		c2.6-0.3,3.8,0,3.4,0.7c-0.2,0.3,0,0.7,0.3,0.7c0.3,0.1,0.5,0.1,0.5-0.1s0.3-0.4,0.9-0.6c0.5-0.1,0.8-0.3,0.8-0.4
		c-0.2-0.9,0.2-1.3,1.2-1.4c0.8-0.1,2.2-1.1,3.7-2.9l2.5-2.6l-0.6-1.4c-0.3-0.7-0.5-2-0.5-2.9c0.2-1.3,0.3-1.4,1.2-1.6
		c0.8-0.1,1.5,0.3,2.5,0.9c1.5,1.3,2.2,1.3,2.2,0.1c0-1.7-2.6-5.7-5.1-8c-2.6-2.4-3.1-3.4-1.8-4.7c1.1-1.1,3.2-0.9,6,0.9
		c3.2,2,3.7,2.6,4,4.7c0.5,3.6,1.2,5.7,2.3,7.2c3.1,4.2,3.4,5,3.4,8.2c0,2.6,0.2,3,1.1,3.9c0.5,0.4,1.1,1.3,1.1,1.7
		c0,0.6,0.5,0.7,2.2,1c2.6,0.3,3.1,0.9,0.9,1l-1.5,0.1l1.8,0.3c0.9,0.1,2,0.4,2.3,0.7C515.8,210.8,516.1,211,515.8,210.4z"/>
</g>
<g id="Ukraine">
	<path id="path13349" fill="#CCCCCC" d="M576.6,181.3c4.5-2,4.8-2.4,4.8-6c0.2-4,0-3.9,1.2-4.4c1.4-0.6,1.4-1.1-0.6-2.9
		c-1.8-1.7-7.1-9.8-7.4-11.6c-0.3-1.9,0-2.6,2.6-5l2.3-2.2l-1.5-2c-3.8-5.5-5.4-8.5-5.7-11.1c-0.3-3.6,0.2-5.7,1.5-7.2
		c0.8-0.7,1.2-1.7,1.2-2.3c0-1.9,0.9-4,1.8-4.4c0.5-0.3,1.5-0.3,2.2-0.3c0.9,0.1,1.5,0,1.8-0.4c1.1-1.3,3.8-2.2,6.2-2
		c2,0.1,2.2,0.1,2.2-0.4c0-1.9,6-3,8.8-1.7c1.5,0.7,1.5,0.7,4.3-1.3c1.1-0.7,2.8-1.7,3.8-2l1.8-0.6v-2.3c0-1.7-0.2-2.4-0.9-3.2
		c-1.1-1-1.5-3.6-0.9-4.6c0.3-0.4,0.9-0.9,1.7-1c0.8-0.1,1.2-0.4,1.2-0.9c0-1-0.5-1.6-2.5-2.3c-2.5-0.9-3.8-2.2-4.2-4
		c-0.2-1.3,0-1.7,0.8-2.4c0.5-0.4,1.2-1.4,1.5-2.3c0.5-1.3,0.5-1.4-0.2-2c-0.9-1-1.7-5.3-1.1-6.6c0.9-2,0.9-5.9,0.2-9.8
		c-0.5-2-0.9-5-0.9-6.6c0-2.7,0.2-3,1.4-4.2c2.9-2.9,3.4-4,3.7-7.9c0.2-2.9,0-3.7-0.5-4.2c-0.3-0.3-0.8-0.9-0.8-1
		c0-0.4-4.5-3.6-6.2-4.2c-2.5-1-4.9-0.7-7.4,0.9c-2.8,1.7-4.9,2-8.5,1.1l-2.6-0.7l-1.2,1c-0.8,0.6-1.4,1-1.5,1s-1.1,0.9-2.3,1.7
		c-2.3,2-6.6,4.7-8.3,5c-1.8,0.4-2.8-0.3-2.9-2.3c-0.2-1.4-0.3-1.7-1.7-2.4c-0.9-0.4-2.2-0.7-2.9-0.9l-1.4-0.1l0.2,2.7
		c0.2,2,0.5,3.2,1.1,4.4c1.2,2,1.1,3.2-0.3,3.9c-0.6,0.3-1.7,0.7-2.3,1s-1.5,1.3-2.2,2.3c-0.5,1-1.4,2-2,2.3
		c-0.9,0.4-1.2,0.4-3.2-0.4c-2.8-1.3-4-1.4-3.5-0.1c0.2,0.4,0.3,1.4,0.3,2c0.2,1,0,1.1-1.7,1.3c-2.3,0.1-3.4-0.4-3.7-2
		c-0.2-0.9-1.4-2.3-3.4-4.2c-1.7-1.7-3.1-3.2-3.1-3.6c0.2-0.4,0.9-0.6,5.4-0.4c4.8,0.1,5.4,0.1,6.5-0.7c0.6-0.4,2.2-0.9,3.2-1
		c2.5-0.3,3.2-1,3.2-3.2c0-1.7-1.4-4.4-2.5-4.9c-1.5-0.7-8.6-1.7-14.8-2.3c-1.7-0.1-4.2-0.3-5.2-0.4c-1.5-0.1-2-0.1-1.7,0.1
		c0.3,0.3,3.2,0.7,6.8,1c3.4,0.3,7.4,0.7,8.8,1c1.4,0.3,3.2,0.4,4.2,0.7c1.8,0.3,2.6,0.9,3.4,3c0.9,2,0.2,1.9-0.8-0.3
		c-0.5-1-1.1-1.9-1.5-1.9c-1.4-0.4-11.7-1.7-14.9-2c-1.8-0.1-4.2-0.3-4.9-0.4c-1.5-0.3-1.5-0.3-2.5,2c-0.8,1.9-0.9,3-0.9,8.5
		c0,8.2,1.1,18.7,2.2,21.7c1.5,4,0.9,5.5-2.2,7.2c-0.8,0.4-1.1,1-1.1,1.6c0,1.4-1.1,3.4-2.2,4.2c-0.5,0.3-2.3,0.7-3.8,0.9
		c-1.5,0.1-2.8,0.4-2.8,0.6c0,0.6,1.8,2.2,2.8,2.4c1.8,0.4,2.2,4.6,0.8,6.7c-0.9,1.3-3.4,1.3-5.4-0.3c-1.1-0.9-1.5-1-1.7-0.7
		c-0.2,0.3-0.3,1.3-0.8,2.2c-0.5,1.7-0.3,4.6,0.5,5.3c0.2,0.3,0.5,1,0.5,1.7c0.2,1.1,0.5,1.6,2.8,3c4.2,2.6,4.2,2.4,4.3,5.7
		c0.3,3.7,1.5,6.7,3.2,8.5c1.5,1.7,1.5,2.3,0.3,4.7c-0.5,1-1.5,3.4-2.2,5.3c-1.5,4-2.5,4.9-5.4,5.2c-1.5,0.1-2,0.3-2,1
		c-0.2,0.7,0,0.9,1.5,1c2,0.3,3.1,1.3,6.5,5.9c2,2.6,2,2.7,2,6c0.2,5.3,1.4,10.3,2.6,10.3c0.3,0,1.1-1.1,1.8-2.6
		c1.5-2.9,3.1-3.9,4.8-3.3c0.5,0.1,2.5,1.7,4.3,3.3c1.8,1.6,3.4,3,3.7,3s0.9-0.3,1.4-0.9c0.8-0.9,0.8-0.9-0.2-1.4
		c-1.7-1.3-2.3-4.2-1.1-5.2c0.3-0.3,1.4-0.6,2.3-0.6c0.9,0,2.8-0.4,4.3-1c1.4-0.4,3.1-1,3.7-1c1.1,0,2.9,1,2.9,1.6
		c0,0.3-0.5,0.1-0.9-0.3c-1.2-0.9-3.4-0.7-5.5,0.1c-0.9,0.4-2.5,0.9-3.2,1c-2.8,0.3-3.2,0.6-3.5,1.3s0.8,3.2,1.4,3.2
		c0.2,0,0.5,0.3,0.8,0.7c0.5,0.6,0.3,0.9-0.3,1.7c-1.4,1.6-2.8,1.3-5.1-0.9c-3.8-3.9-4.9-4.4-6-4.2c-0.5,0.1-1.5,0.9-2,1.4
		c-1.4,1.7-2.5,4.2-2,4.2c0.3,0,0.6-0.4,0.9-1c1.2-2.6,2.5-4,3.4-4c0.6,0,1.1,0.3,1.1,0.6c0,0.3,0.5,0.7,0.9,0.9
		c0.5,0.1,1.8,1.3,3.1,2.6c1.7,1.7,2.3,2.3,3.4,2.2c1.4,0,2.8-0.9,3.5-2.3c0.5-0.9,0.3-1-1.1-2.4c-2.2-2-1.8-2.7,1.4-3.4
		c1.5-0.3,3.1-0.9,3.7-1.1c1.1-0.7,3.8-0.9,4.8-0.3c0.8,0.4,0.5,1.6-0.5,2.4c-1.2,1.3-0.6,1.4,0.8,0.3c0.6-0.6,0.9-1.3,0.9-1.6
		c-0.2-0.3-0.2-0.6,0.2-0.6c0.9,0,0.2,2.3-1.4,3.9c-2,1.9-2,2-0.9,2.6c0.6,0.3,1.5,1.3,2.2,2.2c0.6,0.9,1.2,1.7,1.4,1.7
		c0.5,0,10.3,9,11.1,10.3c0.5,0.9,0.9,1,2.2,1c2,0,8.9-3,9.2-4c0.2-0.4,0.3-1.9,0.2-3.3c-0.2-2,0.2-2.7,0.8-3.6
		c0.5-0.7,1.1-1.1,1.4-1.1c0.3,0,0,0.4-0.5,1c-0.9,0.9-0.9,1.3-0.9,4c0.2,1.7-0.2,3.3-0.3,3.7c-0.5,1-7.1,4-8.5,4
		c-3.2,0-3.4-0.1-3.8-1.1c-0.5-1-5.5-5.9-9.5-9c-1.2-1-2.6-2.4-3.1-3.2c-0.5-0.9-1.2-1.6-1.8-1.7c-1.2-0.3-1.4-1.1-0.2-2.4
		c0.6-0.7,0.8-0.9,0.3-0.9c-0.3,0-1.1,0.7-1.8,1.4c-1.1,1.3-1.1,1.4-0.5,1.9c0.5,0.3,1.1,0.4,1.5,0.4c0.5,0,1.1,0.4,1.5,1.3
		c0.8,1.4,1.4,2,4.9,4.7c3.7,3,7.7,6.9,8,7.9c0.3,1,0.9,1.3,3.8,1.1C572.7,182.7,574.4,182.3,576.6,181.3z"/>
</g>
<g id="WesternEurope">
	<g id="path9072">
		<path fill="#999999" d="M463.8,147.4l-5.8,2.3l-1.2,3l-0.9,0.3l-6.6,0.4l-3.4,3.9l-2.8,1.3l-7.1,0.6l-0.5,0.6l-0.3,1l2.9,3.6
			l3.4,3.9l1.4,2.9l-0.2,6.5l-0.9,1.7l-2.9,1.4l-8.9,0.9l-1.4-1.7l-3.1-0.3l-4.3,2.4l0.5,4l2,2.3l2.2,3l0.6,3.4l-2,4.4l-2.3,5.9
			c0,0-0.8,2,0.3,1.7c0.9-0.3,4.2,4.2,4.2,4.2l4.3,0.9l5.7,0.7l5.4,1.1c0,0,0.8,0.7,2.2,1.6c1.5,0.7,2.3,1,2.3,1l4.5,0.4l0.8-0.4
			l0.2-1.1l0.8-0.9l2.9-1.9l2.3-0.7l0.8-0.9v-1.1l1.4-1.7l1.8-1.7l1.4-2l1.2-3l0.9-2l-2.2-5.9l-0.2-0.9l0.5-0.7l0.8-0.7l0.8-0.9v-1
			l-1.4-2.4c0,0-1.4-3.2-0.3-4.6c1.1-1.4,1.7-2,1.7-2l-0.2-0.3c0,0,1.5-0.3,2.2-0.1s1.7,1.7,1.7,1.7l0.8,0.7c0,0,0.5,0.7,0.9,0.3
			c0.6-0.3,2-1.9,2-1.9l0.3-1.4c-0.2-0.1-0.8-1-1.1-1c0-0.7,0.2-3.2,0.2-3.2c0.2,0.1-0.2-2.6-0.5-2.9c-0.5-1.1-1.4-1.4-1.4-1.9
			c-0.2-0.7,0.5-1.3,0.5-1.3l0.9-1c0,0,0.6-1.4,0.6-1.9c-0.2-0.4-0.2-1.4-0.2-1.4l0.2-1l0.2-1.4c0.2-0.3,0.3-1.3,0.8-1.4l0.9-0.9
			l-2-0.6l-0.3-0.3l-0.5-1l-0.6-1.6l-0.8-1.7l-0.8-1.3c0,0-1.8-2.4-2.3-2.9s-2.2-2.9-2.2-2.9L463.8,147.4z"/>
		<path fill-opacity="0" stroke="#000000" d="M463.8,147.4l-5.8,2.3l-1.2,3l-0.9,0.3l-6.6,0.4l-3.4,3.9l-2.8,1.3l-7.1,0.6l-0.5,0.6
			l-0.3,1l2.9,3.6l3.4,3.9l1.4,2.9l-0.2,6.5l-0.9,1.7l-2.9,1.4l-8.9,0.9l-1.4-1.7l-3.1-0.3l-4.3,2.4l0.5,4l2,2.3l2.2,3l0.6,3.4
			l-2,4.4l-2.3,5.9c0,0-0.8,2,0.3,1.7c0.9-0.3,4.2,4.2,4.2,4.2l4.3,0.9l5.7,0.7l5.4,1.1c0,0,0.8,0.7,2.2,1.6c1.5,0.7,2.3,1,2.3,1
			l4.5,0.4l0.8-0.4l0.2-1.1l0.8-0.9l2.9-1.9l2.3-0.7l0.8-0.9v-1.1l1.4-1.7l1.8-1.7l1.4-2l1.2-3l0.9-2l-2.2-5.9l-0.2-0.9l0.5-0.7
			l0.8-0.7l0.8-0.9v-1l-1.4-2.4c0,0-1.4-3.2-0.3-4.6c1.1-1.4,1.7-2,1.7-2l-0.2-0.3c0,0,1.5-0.3,2.2-0.1s1.7,1.7,1.7,1.7l0.8,0.7
			c0,0,0.5,0.7,0.9,0.3c0.6-0.3,2-1.9,2-1.9l0.3-1.4c-0.2-0.1-0.8-1-1.1-1c0-0.7,0.2-3.2,0.2-3.2c0.2,0.1-0.2-2.6-0.5-2.9
			c-0.5-1.1-1.4-1.4-1.4-1.9c-0.2-0.7,0.5-1.3,0.5-1.3l0.9-1c0,0,0.6-1.4,0.6-1.9c-0.2-0.4-0.2-1.4-0.2-1.4l0.2-1l0.2-1.4
			c0.2-0.3,0.3-1.3,0.8-1.4l0.9-0.9l-2-0.6l-0.3-0.3l-0.5-1l-0.6-1.6l-0.8-1.7l-0.8-1.3c0,0-1.8-2.4-2.3-2.9s-2.2-2.9-2.2-2.9
			L463.8,147.4z"/>
	</g>
</g>
<g id="Iceland">
	<g id="path9094">
		<path fill="#CCCCCC" d="M424.4,114.2l4.5-4.4l0.8-0.1l1.1,1l0.9,1.9l2.3,1l2-0.3l1.1-0.9l0.8-0.6h1.2l2.2-0.1l4.5-1.1l4.2-2.4h1.4
			l2.2,1.1l2.3,2.2l2.2,1.7l1.8,1.4l0.8,1.9l0.5,1.1l-1.5,3.4l-1.5,2.2l-0.2,1l-1.8,0.6l-2.6,0.9l-1.7,0.7l-8.8,4.7l-0.9,0.6
			l-1.1-0.1l-1.7-0.4l-2.2-0.4l-2.6-0.9l-0.9-0.1l-4-0.7l-1.1-0.4l0.5-0.9l0.5-2.6l-0.3-1.9l-0.5-0.4l-1.5-1.3l-1.7-0.4l0.3-0.9
			l0.9-1l0.2-1.3l-0.5-1.3l-1.1-0.7l-0.8-0.3l-0.3-0.4l1.4-1l0.8-0.7L424.4,114.2z"/>
		<path fill-opacity="0" stroke="#000000" stroke-width="2.000000e-03" d="M424.4,114.2l4.5-4.4l0.8-0.1l1.1,1l0.9,1.9l2.3,1l2-0.3
			l1.1-0.9l0.8-0.6h1.2l2.2-0.1l4.5-1.1l4.2-2.4h1.4l2.2,1.1l2.3,2.2l2.2,1.7l1.8,1.4l0.8,1.9l0.5,1.1l-1.5,3.4l-1.5,2.2l-0.2,1
			l-1.8,0.6l-2.6,0.9l-1.7,0.7l-8.8,4.7l-0.9,0.6l-1.1-0.1l-1.7-0.4l-2.2-0.4l-2.6-0.9l-0.9-0.1l-4-0.7l-1.1-0.4l0.5-0.9l0.5-2.6
			l-0.3-1.9l-0.5-0.4l-1.5-1.3l-1.7-0.4l0.3-0.9l0.9-1l0.2-1.3l-0.5-1.3l-1.1-0.7l-0.8-0.3l-0.3-0.4l1.4-1l0.8-0.7L424.4,114.2z"/>
	</g>
</g>
<g id="GreatBritain">
	<path id="path13133" fill="#B3B3B3" d="M403.4,161.2c0.8-0.6,1.4-0.7,1.8-0.6c1.2,0.4,2.3,0.1,3.2-1.4c0.3-0.7,0.6-0.7,2.5-0.7
		c1.5,0.1,2,0.3,2,0.6s0.3,0.4,1.1,0.4c0.8,0,1.1-0.1,0.9-0.6c-0.2-0.4,0.2-0.6,0.9-0.6c0.5,0,2.9-0.4,5.4-0.9
		c4.2-0.9,4.3-0.9,4.9-1.9s0.6-1-0.2-1.7c-0.9-0.9-0.9-1.7,0.2-3.2c0.5-0.7,1.1-1.7,1.4-2.3c0.5-1,0.5-1-0.5-2
		c-0.5-0.6-1.5-1-2.5-1.3c-2.5-0.6-4.8-2.6-5.4-4.7c-0.2-0.7-0.6-1.4-0.8-1.4c-0.3-0.1-0.3-0.6-0.3-1.3c0.2-0.7,0.3-1,0.3-0.7
		c0.2,0.4,0.3,0.4,0.6,0.1c0.3-0.3,0.3-0.4,0.2-0.4c-0.2,0-0.3-0.3-0.3-0.4c0-0.4-0.2-0.4-0.5-0.1c-0.6,0.4-1.4,0-1.1-0.7
		c0.2-0.4,0.2-0.4-0.2-0.1c-0.2,0.3-0.6,0.3-0.9,0.3c-0.6-0.1-0.6-0.1,0,0.3c0.5,0.3,0.5,0.4,0.2,0.7c-0.3,0.1-0.9-0.3-1.7-0.9
		c-0.8-0.7-1.8-1.6-2.6-2.2c-1.8-1.3-1.7-2,0.5-4.2c1.8-1.9,2.2-2.4,2.8-4.6c0.2-0.9,0.2-1.3-0.2-1.3c-0.2,0-1.1-0.3-2.2-0.7
		c-1.7-0.7-1.8-0.9-2.6-3c-0.5-1.3-0.9-2.3-1.1-2.4c-0.2-0.1-1.4,0.1-2.9,0.4c-3.4,0.7-4.2,1.4-5.4,5.3c-0.5,1.7-1.1,3.4-1.4,3.9
		c-0.3,0.7-0.3,1.1,0.3,2.2c0.6,1.1,0.6,2.3,0,3.6c-0.2,0.4,0,0.7,1.1,1c2,0.7,2.8,2.7,1.5,3.6c-0.5,0.3-1.1,0.3-3.7-0.4
		c-1.8-0.4-3.4-0.9-3.5-0.9s-0.8,0.4-1.2,1c-0.9,1.1-4,3.6-6,4.7c-2,1.1-2.2,2.2-1.5,5.7c0.8,3.6,0.6,3.9-2.3,4.6
		c-2,0.6-2.8,1.4-3.2,3.3c-0.3,1,0.3,2.9,0.8,2.9c0.2,0,0.9,0.4,1.5,1c0.9,0.7,1.8,1.1,2.5,1.1c2.6,0.1,5.7,0,7.4-0.1l1.8-0.3l1.1-2
		c0.5-1.1,1.4-3.7,1.8-5.7c0.9-4.3,1.1-4.7,2.5-5.3c1.4-0.7,2.6-0.1,3.5,1.6c1.1,2.2,0.9,3.4-0.6,3.4c-0.8,0-1.7,1.1-1.7,2
		c0,0.4,0.3,0.6,1.7,0.6c3.4,0,3.4,2.3-0.2,3.9c-1.1,0.4-4,3.4-4,4C399.7,162.8,402.1,162.2,403.4,161.2z"/>
</g>
<g id="Scandinavia">
	<g id="path5813">
		<path fill="#B3B3B3" d="M476.1,93.1l-3.4-11.8c0,0-0.5-1.9,2.8-5.2c3.4-3.3,13.7-8.9,13.7-8.9l3.5-7.3l2.6-3.9
			c0,0,3.8-1.3,3.5-2.4c-0.3-1-1.7-2.3-1.7-2.3l1.4-1.9l6.2,2.4c0,0,2.8-1.9,4.2-2.9c1.1-1,1.4-4.7,1.4-4.7l4.3-1.6l6.2,1l3.1-1.6
			l5.4,2.9c-0.6,1.9-1.2,4.9-1.8,6.6c0.2,8.5,0.3,9.9,1.1,23.4c1.1,1.9,2,9,1.2,8.8c-0.5-0.1-2,2.6-3.2,2.3L514.7,87l-1.8-1.9
			l0.5-5.2l0.5-7.5l-2.5-0.9l-4.5,10l1.4,8.3l-6.9,6.6l0.8,6.6c0.2,2.6-2.5,3.7-5.4,4.6c-1.7,0-9.4-11.8-10.3-11.6
			c-2,0.3-4.2,2.9-4.2,2.9l-6.3-1.6L476.1,93.1z"/>
		<path fill-opacity="0" stroke="#000000" stroke-width="2.000000e-02" d="M476.1,93.1l-3.4-11.8c0,0-0.5-1.9,2.8-5.2
			c3.4-3.3,13.7-8.9,13.7-8.9l3.5-7.3l2.6-3.9c0,0,3.8-1.3,3.5-2.4c-0.3-1-1.7-2.3-1.7-2.3l1.4-1.9l6.2,2.4c0,0,2.8-1.9,4.2-2.9
			c1.1-1,1.4-4.7,1.4-4.7l4.3-1.6l6.2,1l3.1-1.6l5.4,2.9c-0.6,1.9-1.2,4.9-1.8,6.6c0.2,8.5,0.3,9.9,1.1,23.4c1.1,1.9,2,9,1.2,8.8
			c-0.5-0.1-2,2.6-3.2,2.3L514.7,87l-1.8-1.9l0.5-5.2l0.5-7.5l-2.5-0.9l-4.5,10l1.4,8.3l-6.9,6.6l0.8,6.6c0.2,2.6-2.5,3.7-5.4,4.6
			c-1.7,0-9.4-11.8-10.3-11.6c-2,0.3-4.2,2.9-4.2,2.9l-6.3-1.6L476.1,93.1z"/>
	</g>
</g>
<g id="India">
	<path id="path13895" fill="#CCCCCC" d="M644.1,174.1c-0.5,0-0.9,0.4-1.2,1.1c-1.5,2.9-7.4,6.9-8.6,6c-2-1.4-4.8-3-5.7-3.2
		c-0.8-0.1-1.1,0-1.7,0.7c-1.5,2.3-2.8,3.2-5.1,3.6c-2.2,0.4-2.3,0.6-3.7,3c-1.1,2-1.8,2.6-2.8,2.9l-1.4,0.4l0.3,5.5
		c0.3,6.2,0.8,7.3,3.4,11.6c1.8,2.9,1.8,3.2,1.8,6.2c0,2.7,0.2,3.4,1.1,4.9c0.6,0.9,1.2,1.6,1.5,1.4c0.8-0.4,3.4,0.7,5.1,2.2
		c0.9,0.7,2,2.3,2.6,3.3c1.5,2.6,1.8,3,3.1,3c2,0,2.8,0.9,2.8,3c0,1,0.3,2.3,0.6,2.6c0.5,0.6,0.8,0.4,1.8-0.7c0.9-1,1.7-1.4,3.1-1.7
		c1.5-0.1,1.8-0.1,2.5,0.9c0.5,0.7,0.6,1.4,0.5,2.6c-0.3,2-1.8,5.6-1.8,4.4c0-0.4,0.3-1.4,0.6-2.3c0.8-1.4,0.8-3.6,0.3-4.4
		c-0.8-1.1-3.4-0.6-4.5,1c-1.5,2.3-3.4,1.1-3.4-2c0-2.2-0.3-2.6-2.3-2.9c-1.8-0.3-2.3-0.7-3.4-2.6c-1.5-2.9-4.9-5.7-6.6-5.7
		c-1.4,0-1.1,0.7,0.3,0.9c1.5,0.3,5.4,3.9,5.7,5.5c0.3,1.4,2,2.6,3.4,2.6c1.7,0,2.3,0.9,1.8,2.6c-0.3,1.4-0.3,1.4,1.4,3l1.7,1.4
		l0.6-0.9c1.1-1.7,2.9-3.2,3.7-3c0.9,0.1,1.1,2.3,0.3,4.3c-0.5,1-0.6,2.6-0.6,5c0,1.9-0.2,4.4-0.3,5.7c-0.3,2.3-0.3,2.4,0.9,3.4
		c1.1,1,1.4,1.4,1.4,3.2c0.2,3.3,0.5,4,2.6,5.3c1.8,1,2,1.3,2,2.9c0,0.9,0.5,3.2,1.2,5.2c0.8,1.9,1.2,3.6,1.2,3.9
		c0,0.3,0.8,1.4,1.8,2.9c0.9,1.4,2.2,3.4,2.5,4.7c0.9,3,2,3,4.2,0.1c1.1-1.4,1.5-2.4,1.5-3.4c0-0.7,0.6-3,1.5-5
		c1.4-3.3,1.5-3.9,1.2-6.2c-0.3-2.2-0.2-3,1.1-6c0.8-1.9,1.5-5.2,2-7.3c0.9-5.6,0.9-5.6,2.2-6.5c1.7-1.4,2.6-4,2.6-6.9
		c0-2.3,0.2-2.7,1.1-3.6c0.9-0.9,1.4-1,3.7-1h2.5l-0.3-1.7c-0.8-4.2-0.8-5-0.3-5.7c0.3-0.7,0.8-0.9,1.5-0.7c1.1,0.1,1.4-0.3,0.3-0.7
		c-2.5-0.9-4,2.6-2.5,5.7c0.8,1.6,0.3,2.2-1.8,2.2c-2.6,0-4.5,1.4-5.1,3.9c-0.3,1.4-0.6,0.9-0.5-0.9c0.2-1,2.8-3.3,3.8-3.4
		c0.5,0,1.4-0.1,2-0.1c0.8,0,0.9-0.3,0.9-0.6c-0.5-1.4-0.5-5.3,0.2-6.2c0.5-0.9,0.9-1,2.5-1c1.8,0,1.8-0.1,4.2-3
		c1.2-1.7,3.1-4.4,4.2-6.3c1.8-3.2,1.8-3.4,1.4-4.9c-1.1-3.6-4.2-5-8-3.7c-2.9,1-4.5,0.9-6-0.6c-0.8-0.7-1.2-1.3-1.2-1.4
		s-1.1-0.4-2.5-0.7c-1.4-0.3-3.2-0.9-4-1.4c-1.1-0.7-2-1-3.8-1c-2,0-2.6-0.1-5.5-2c-1.8-1.1-3.8-2.3-4.8-2.6c-3.7-1.1-4.2-2.4-2-5.6
		c1.4-2.2,1.8-4.2,1.4-7.9l-0.3-2.4l-2.5-0.3c-2.8-0.3-3.2-0.4-3.8-2.6C645.2,174.7,644.7,174.1,644.1,174.1z"/>
</g>
<g id="Ural">
	<path id="path13061" fill="#999999" d="M650.6,137.3c0.3-1,0-1.7,0.3-2.2c0.3-0.4,1.2-1.4,1.2-1.9c0,0,0.3-1.4,2-1.7
		c0.9-0.3,1.8-1.1,1.5-2c0-1.6-0.8-1.7,0.9-2.6c1.4-0.7,0.5-1.4,0.5-3.7s-0.2-2.4-2.2-4.6c-1.2-1.3-2.5-2.9-2.8-3.6
		c-0.5-0.9-0.9-1.3-2.5-1.7c-0.9-0.3-1.8-0.7-1.8-0.9c0-0.1-0.2-0.4-0.2-0.7c-0.2-0.3-0.2-1-0.2-1.9c0-0.9-0.5-1.9-0.8-2.4
		c-0.8-0.9-0.9-0.9-2.2-0.4c-1.8,0.6-2.5,0.3-3.2-1.7c-0.6-1.6-0.6-1.9,0-2.6c0.3-0.4,1.1-1,1.5-1.1c0.6-0.1,0.9-0.7,0.9-2.2
		c0.2-1.3,0.5-2.3,1.1-2.9c0.8-0.9,0.9-1.3,0.8-3.7c-0.2-2.7-0.2-2.9-2-4.2c-2-1.6-2.2-2.2-0.9-4.4c1.1-2.2,0.8-4-1.1-5.6
		c-0.8-0.7-2.6-2.7-4-4.6s-2.8-3.6-3.1-3.9c-0.5-0.3-0.6-1.4-0.6-3.7c0-3.2,0-3.3-0.9-3.3c-0.5,0-1.4-0.3-1.8-0.6
		c-0.8-0.4-0.8-0.7-0.3-1.9c0.5-1,0.5-1.3-0.3-1.6c-0.5-0.1-1.1-0.9-1.4-1.7c-0.3-0.7-0.8-1.3-0.9-1.3c-1.8,0.4-4.9-3.7-4.3-5.6
		c0.2-0.4,0-0.9-0.2-1c-0.5-0.3-1.4,1-1.5,2.9c-0.2,0.9-0.3,1.9-0.5,2.4c-0.3,1.3-2.5,3.4-3.8,4c-1.5,0.6-4.8,0.6-5.7,0
		c-0.9-0.4-1.7-2-0.9-2c0.2,0,0.3,0.3,0.3,0.4c0,0.7,1.8,1.4,3.2,1.4c1.5,0,3.8-1,5.2-2.3c0.9-0.9,1.4-1.7,1.5-3.9
		c0.5-2.7,1.2-4.2,2.3-3.9c0.3,0.1,0.6,0.9,0.6,1.9c0,1.9,1.5,4.3,2.9,4.7c1.4,0.4,1.4-0.1,0-0.9c-1.5-0.9-2.2-2-2.2-4.7
		c0-2.6-0.6-3-2.5-1.7c-0.9,0.7-1.4,1.3-1.7,3c-0.3,1.3-0.5,2.6-0.6,3c-0.3,1-2,2.9-3.4,3.3c-2.2,0.9-5.2,0.3-5.2-1
		c0-0.3,0.8-1.4,1.8-2.6c2.2-2.4,4.5-6.3,4.5-7.5c0-1.3-1.5-3.7-3.5-5.7c-1.1-1-2-2.3-2.2-2.6c-0.2-0.4,0.3-1.9,0.8-3.2
		c0.6-1.3,1.1-2.7,1.1-3.2c0-0.7-1.5-1.6-4.2-2.3c-0.5-0.1-1.5-1-2.5-2.2c-0.8-1-1.7-1.9-1.8-1.9s-0.3,0.9-0.3,1.9
		c0,1.4-0.3,2.2-0.9,2.9c-0.8,0.7-0.9,1.3-0.8,3.2c0.2,2.3-0.8,4.4-1.7,4.7c-0.6,0.3,1.1,2,2.2,2.4c0.5,0.1,1.1,0.9,1.4,1.7
		c0.5,1,1.1,1.7,2,2c1.1,0.4,1.4,0.9,1.4,1.9c0.2,1,0,1.3-0.8,1.4s-0.8,0.4-0.5,1.3c0.5,1.7,0.3,7.2-0.3,9.2
		c-0.3,1.1-1.2,2.6-2.5,3.9c-1.8,2-2,2-1.8,4.6c0,1.4,0.3,3.6,0.8,4.9c0.9,3.6,1.1,5.7,0.8,8c-0.9,4.7-0.9,5.7,0,7.2
		c1.5,2.3,1.1,5.5-0.9,7.2c-0.6,0.4-0.9,1.1-0.8,1.4c0.3,0.7,3.1,2.2,4.3,2.2c2,0,2.9,4.7,1.2,6.3c-0.5,0.4-1.1,0.7-1.5,0.7
		c-0.9,0-0.8,0.4,0.5,2.2c0.8,0.9,1.1,2,1.1,3c0,0.9,0.2,1.9,0.5,2.2c0.3,0.4,0.3-0.1,0.2-2c-0.2-1.7-0.5-2.9-1.1-3.6
		c-0.8-0.9-0.8-1.1-0.3-1.4c0.3-0.1,0.8-0.3,0.9-0.3c0.8,0,1.7-2.6,1.4-4c-0.5-2.4-1.2-3.3-3.7-3.9c-2.8-0.7-3.2-1.3-2-2.7
		c0.6-0.7,1.4-2.2,1.5-3.3c0.5-1.9,0.5-2.3-0.3-3.4c-1.2-2-1.4-3-0.8-5.3c0.8-2.9,0.8-6.5,0-9.3c-0.3-1.3-0.8-3.6-0.9-5.3l-0.3-3
		l1.5-1.6c0.8-0.9,1.8-2,2.2-2.6c1.1-2,1.8-6,1.7-8.6c-0.2-1.9-0.2-2.6,0.5-3.4c1.1-1.4,0.5-3.6-1.1-4.4c-0.6-0.3-1.5-1-1.8-1.7
		c-0.3-0.7-1.4-1.6-2.2-2s-1.4-0.9-1.4-0.9s0.3-0.9,0.9-1.9c0.5-1.3,0.8-2.4,0.8-3.7c-0.2-1,0.2-2.2,0.3-2.4
		c0.3-0.3,0.8-1.1,1.1-1.9l0.8-1.3l0.9,1c0.5,0.6,2,1.4,3.2,1.9c1.2,0.4,2.5,1,2.5,1.3c0,0.9-2.2,5.9-2.5,5.3
		c-0.2-0.3,0.3-1.6,0.9-2.9s0.9-2.4,0.9-2.6c0-0.1-0.9-0.4-1.5-0.7c-1.8-0.3-4-1.7-4.2-2.4c-0.2-0.4-0.2-0.3-0.3,0.3
		c0,0.6-0.5,1.3-0.8,1.7c-0.6,0.4-0.8,1.3-0.9,3.6c-0.2,2-0.3,3.2-0.9,3.6c-0.6,0.7-0.6,0.7,0.9,1.7c0.9,0.6,1.8,1.4,2,2.3
		c0.3,0.9,0.8,1.3,1.5,1.4c1.7,0.4,2.6,3.7,1.5,5c-0.3,0.3-0.5,2.3-0.6,4.7c-0.2,3.6-0.3,4.6-1.1,6.3c-0.6,1.1-1.7,2.7-2.5,3.4
		c-1.1,1.1-1.4,1.6-1.4,3.3c0,1,0.3,3.4,0.8,5.3c0.9,4,1.1,8.2,0.2,10c-0.8,1.9-0.8,2.4,0.2,4.2c1.1,2,1.1,5.2-0.2,7.5l-0.9,1.9
		l0.9,0.6c0.5,0.3,1.2,0.6,1.7,0.6s1.1,0.1,1.4,0.3c0.8,0.4,2.2,3.6,2.2,4.7c0,1.3-1.1,3-2.2,3.9c-0.5,0.3-0.8,0.6-0.5,0.6
		c0.6,0,1.8,3.6,1.8,5.5c0,1.1,0.3,1.6,1.4,2.2c0.8,0.4,1.5,1.4,1.8,2.3c0.3,0.9,0.8,1.7,0.9,1.7c1.8,0.6,5.4,5,6.6,8.2l0.6,1.9
		l2-0.3c2.3-0.3,2.6-0.1,3.4,2.4c0.5,1.4,0.8,1.7,2.6,2.4c1.7,0.7,2.5,0.7,4.5,0.6c2.5-0.3,2.5-0.3,3.2,1c0.9,1.4,1.1,1.4,2.6,0.4
		c1.1-0.7,2.6-0.7,2.6,0c0,0.4,4.9,6.9,5.4,6.9c0.3,0,1.7-1,2-2L650.6,137.3z"/>
</g>
<g id="NorthernEurope">
	<g id="path9050">
		<path fill="#999999" d="M472,159.2l-2.2-5.3l-5.7-6.9c0,0,2.6-6.9,2.8-9.3c0.3-2.3,4.5-4.6,4.5-4.6l5.5-6.2l4.9-6.6l1.8-5.5
			c0,0-0.8-5-1.2-5c-0.5,0.1-0.2-3.2,1.5-3.7c1.5-0.6,1.4-0.9,1.4-0.9l1.4,1.6l0.8,2l-0.8,1.9l-0.3,2.9c0,0,0.3,2.6,2.6,2.4
			c2.3-0.3,6.5-1.3,6.5-1.3l11.2-1.9l4.9,0.4l3.4-1.3l6.3,4.4c0.2,2,0.9,5.2,0.9,7.3l2.6,4.4l1.1,1.9l-0.5,1.9l-1.4,3.3l-1.8,4.6
			l-1.4,1.9l-1.1,0.4l-2,0.6h-1.4c0,0-0.9,0-0.9,2.4c0,0.9,3.1,0.7,3.1,0.7l-1.2,1.6l-2.3,1.3c0,0-1.7,2.4-2.2,2.9
			c-0.2,0.1-1.7,3.7-1.7,3.7c0.2,0.3,0.6,3.2,0.5,3.6l0.2,2.9l-0.6-0.1l-2.2-0.3l-2.6,0.3h-4c0,0-1.5-2.3-1.2-3.2
			c0.3-0.7,0.8-3.3,0.8-3.3l0.2-0.4v-1.3c0,0,0.3-0.9-1.1-1.3c-1.4-0.4-6.6,0.1-6.6,0.1l-1.4,0.1l-2.3,1.7c-0.2,0.9-0.2,1.7-0.9,2.6
			l-0.9,1.4l-1.1,0.4c0,0-0.2,0.3-1.2,0.3c-1.1,0.1-2.5,0.4-2.5,0.4C482.1,160.5,476.8,159.7,472,159.2z"/>
		<path fill-opacity="0" stroke="#000000" stroke-width="2.000000e-03" d="M472,159.2l-2.2-5.3l-5.7-6.9c0,0,2.6-6.9,2.8-9.3
			c0.3-2.3,4.5-4.6,4.5-4.6l5.5-6.2l4.9-6.6l1.8-5.5c0,0-0.8-5-1.2-5c-0.5,0.1-0.2-3.2,1.5-3.7c1.5-0.6,1.4-0.9,1.4-0.9l1.4,1.6
			l0.8,2l-0.8,1.9l-0.3,2.9c0,0,0.3,2.6,2.6,2.4c2.3-0.3,6.5-1.3,6.5-1.3l11.2-1.9l4.9,0.4l3.4-1.3l6.3,4.4c0.2,2,0.9,5.2,0.9,7.3
			l2.6,4.4l1.1,1.9l-0.5,1.9l-1.4,3.3l-1.8,4.6l-1.4,1.9l-1.1,0.4l-2,0.6h-1.4c0,0-0.9,0-0.9,2.4c0,0.9,3.1,0.7,3.1,0.7l-1.2,1.6
			l-2.3,1.3c0,0-1.7,2.4-2.2,2.9c-0.2,0.1-1.7,3.7-1.7,3.7c0.2,0.3,0.6,3.2,0.5,3.6l0.2,2.9l-0.6-0.1l-2.2-0.3l-2.6,0.3h-4
			c0,0-1.5-2.3-1.2-3.2c0.3-0.7,0.8-3.3,0.8-3.3l0.2-0.4v-1.3c0,0,0.3-0.9-1.1-1.3c-1.4-0.4-6.6,0.1-6.6,0.1l-1.4,0.1l-2.3,1.7
			c-0.2,0.9-0.2,1.7-0.9,2.6l-0.9,1.4l-1.1,0.4c0,0-0.2,0.3-1.2,0.3c-1.1,0.1-2.5,0.4-2.5,0.4C482.1,160.5,476.8,159.7,472,159.2z"
			/>
	</g>
</g>
<g id="EasternAustralia">
	<g id="path8950">
		<path fill="#B3B3B3" d="M674.6,336.4l0.8,11.2l0.5,10L676,373l1.8,1.6l26.5,0.1l-0.8,23.1l0.3,6.6l-1.2,5.6l-2.5,2l0.9,4.6l1.1,3
			l4.5,0.6l0.8,0.3l1.4,1.7l4.8,1l1.1-1.9h0.3l1.4,2.2l3.8,0.3c0,0,2-2,2.2-2.7s7.1-0.9,7.1-0.9s1.2-0.6,1.5-2c0.2-1.4,0.3-2,0.3-2
			l0.3-0.1l0.3,0.6h0.2l-0.2-0.7l-0.3-0.4l-0.3-0.1h-0.5c0,0-0.3,0-0.2-0.4c0.2-0.4,0.9-1.1,0.9-1.1l0.8-0.6l0.3-0.1h0.2l0.2-0.1
			l0.2-0.3l0.2-0.4c0,0,0-1,0.3-1c0.3-0.1,0.5,0,0.5,0l0.3,0.1h0.2h0.2h0.2l0.2-0.1l0.2-0.1v-0.1v-0.3v-0.1v-0.1l0,0l0,0h-0.2
			l-0.3,0.3l-0.2,0.1l-0.2,0.1c0,0-0.2,0.1-0.2,0c0,0-0.3-0.3-0.2-0.9c0.2-0.7,0.5-1.6,0.5-1.6l0.9-1.9l0.9-1.9l1.4-2.6l0.9-1.3
			l0.3-0.1l0.2-0.1c0,0-0.2-0.1-0.2-0.4c0-0.3,0.5-0.7,0.5-0.7l0.3-0.3l0.2-0.4l0.2-0.1v-0.3c0,0,0-0.3,0.5-0.3
			c0.5-0.1,0.5-0.1,0.5-0.1l0.2-0.1c0-0.1-0.2-0.1-0.2-0.1s0-0.1,0-0.3c0-0.1,0.2-0.4,0.3-0.4c0.2,0,0.2-0.1,0.3-0.3
			c0.2-0.1,1.5-1.4,1.5-1.4l-0.8-16.2l-0.8-2.3l-2.8-3l0.2-0.3l-0.9-0.1l-0.5-2.9l-0.5-0.7l-2.8-2.9l-0.5-1.4l-0.2-2.4l-0.3-1.3
			l-0.3-0.6l0.2-0.1l0.8,0.3l0.2-0.1v-0.3l-0.9-0.7l-1.2-0.3l-5.1-3l-2-2.3l-0.5-3.6c0,0-5.4-5.2-5.5-6.2c-0.2-0.9-1.4-4.4-1.4-4.4
			l-0.2-1.6l0.3-0.3c0,0-1.8-5-3.1-7c-1.1-2-3.5-4.6-3.5-4.6l-2-0.3l-1.4,1.3l-0.5,2.4c0,0-0.2,1.1-0.3,1.3c-0.2,0-0.3,0-0.3,0v0.3
			c0,0-1.1,6.2-1.8,6.2c-0.8-0.1,0.2,2.9,0.3,4.2c0.2,1.3-0.9,6.9-0.9,6.9l-1.2,0.6l-1.5-0.7l-3.2-3l-3.4-1.3l-0.6-0.6
			c0,0-3.1-0.3-2-1.7c1.1-1.4,3.7-4.6,3.7-4.6l0.3-1.3l-0.2-3.2l-12.6-0.4L674.6,336.4z"/>
		<path fill-opacity="0" stroke="#000000" stroke-width="2.000000e-03" d="M674.6,336.4l0.8,11.2l0.5,10L676,373l1.8,1.6l26.5,0.1
			l-0.8,23.1l0.3,6.6l-1.2,5.6l-2.5,2l0.9,4.6l1.1,3l4.5,0.6l0.8,0.3l1.4,1.7l4.8,1l1.1-1.9h0.3l1.4,2.2l3.8,0.3c0,0,2-2,2.2-2.7
			s7.1-0.9,7.1-0.9s1.2-0.6,1.5-2c0.2-1.4,0.3-2,0.3-2l0.3-0.1l0.3,0.6h0.2l-0.2-0.7l-0.3-0.4l-0.3-0.1h-0.5c0,0-0.3,0-0.2-0.4
			c0.2-0.4,0.9-1.1,0.9-1.1l0.8-0.6l0.3-0.1h0.2l0.2-0.1l0.2-0.3l0.2-0.4c0,0,0-1,0.3-1c0.3-0.1,0.5,0,0.5,0l0.3,0.1h0.2h0.2h0.2
			l0.2-0.1l0.2-0.1v-0.1v-0.3v-0.1v-0.1l0,0l0,0h-0.2l-0.3,0.3l-0.2,0.1l-0.2,0.1c0,0-0.2,0.1-0.2,0c0,0-0.3-0.3-0.2-0.9
			c0.2-0.7,0.5-1.6,0.5-1.6l0.9-1.9l0.9-1.9l1.4-2.6l0.9-1.3l0.3-0.1l0.2-0.1c0,0-0.2-0.1-0.2-0.4c0-0.3,0.5-0.7,0.5-0.7l0.3-0.3
			l0.2-0.4l0.2-0.1v-0.3c0,0,0-0.3,0.5-0.3c0.5-0.1,0.5-0.1,0.5-0.1l0.2-0.1c0-0.1-0.2-0.1-0.2-0.1s0-0.1,0-0.3
			c0-0.1,0.2-0.4,0.3-0.4c0.2,0,0.2-0.1,0.3-0.3c0.2-0.1,1.5-1.4,1.5-1.4l-0.8-16.2l-0.8-2.3l-2.8-3l0.2-0.3l-0.9-0.1l-0.5-2.9
			l-0.5-0.7l-2.8-2.9l-0.5-1.4l-0.2-2.4l-0.3-1.3l-0.3-0.6l0.2-0.1l0.8,0.3l0.2-0.1v-0.3l-0.9-0.7l-1.2-0.3l-5.1-3l-2-2.3l-0.5-3.6
			c0,0-5.4-5.2-5.5-6.2c-0.2-0.9-1.4-4.4-1.4-4.4l-0.2-1.6l0.3-0.3c0,0-1.8-5-3.1-7c-1.1-2-3.5-4.6-3.5-4.6l-2-0.3l-1.4,1.3
			l-0.5,2.4c0,0-0.2,1.1-0.3,1.3c-0.2,0-0.3,0-0.3,0v0.3c0,0-1.1,6.2-1.8,6.2c-0.8-0.1,0.2,2.9,0.3,4.2c0.2,1.3-0.9,6.9-0.9,6.9
			l-1.2,0.6l-1.5-0.7l-3.2-3l-3.4-1.3l-0.6-0.6c0,0-3.1-0.3-2-1.7c1.1-1.4,3.7-4.6,3.7-4.6l0.3-1.3l-0.2-3.2l-12.6-0.4L674.6,336.4z
			"/>
	</g>
</g>
<g id="Ontario">
	<g id="path26397">
		<path fill="#666666" d="M255.2,142.5c-0.8-1.1-1.1,8.2-0.9,11.2c-0.8,1.4-0.9,1.3-1.7,4c-0.5,9.5-1.1,16.6-1.4,25l25.5,0.3
			l5.5,1.9l11.1-1.6l5.1,1.6l2,5l11.1,5.6l1.5-18.1l-3.1-0.3l-4.5-10.3l3.1-2.2l-7.1-0.7l-3.4-2l-5.5-1l-3.4-0.9l-5.7-3.6l-1.1-1.3
			h2.3l0.8-1.3l-1.1-1.6l-0.8-1.3l-1.1,1.4l-1.2,0.1l-1.2-1l0.3-3.7l0.3-3l-0.5-0.6l-1.5,4.4l0.8-4.7c-1.5,0.6-2.2-0.4-3.4-0.9
			l-7.4-0.4l-7.7-0.1H255.2z"/>
		<path fill-opacity="0" stroke="#000000" stroke-width="0.119" d="M255.2,142.5c-0.8-1.1-1.1,8.2-0.9,11.2c-0.8,1.4-0.9,1.3-1.7,4
			c-0.5,9.5-1.1,16.6-1.4,25l25.5,0.3l5.5,1.9l11.1-1.6l5.1,1.6l2,5l11.1,5.6l1.5-18.1l-3.1-0.3l-4.5-10.3l3.1-2.2l-7.1-0.7l-3.4-2
			l-5.5-1l-3.4-0.9l-5.7-3.6l-1.1-1.3h2.3l0.8-1.3l-1.1-1.6l-0.8-1.3l-1.1,1.4l-1.2,0.1l-1.2-1l0.3-3.7l0.3-3l-0.5-0.6l-1.5,4.4
			l0.8-4.7c-1.5,0.6-2.2-0.4-3.4-0.9l-7.4-0.4l-7.7-0.1H255.2z"/>
	</g>
</g>
<g id="Siberia">
	<path id="path13055" fill="#999999" d="M674.4,138.2c0-0.4,0.3-1.7,0.8-2.7c0.8-1.9,0.8-1.9-0.6-4.4c-1.4-3-1.4-6.2-0.3-8.2
		c5.1-2.4-0.2-1.4-3.1-3.2c-2.8-1.7-4.2-2.7-4.2-3.4c0-0.3,0.8-2,1.7-3.9l1.7-3.3l-1.1-3c-0.6-1.7-1.1-3.4-1.1-4
		c0-1,1.4-1.9,3.4-1.9c0.9,0,1.2-0.1,1.5-1c0.5-2.3,1.2-3.4,3.2-4.7c1.1-0.9,2.5-1.9,2.6-2.3c1.1-1.7,4.6-0.3,6,2.4
		c1.2,2.4,1.8,2.9,3.1,1.9c0.8-0.7,0.9-1.3,0.8-3.2c-0.2-1.3,0.2-2.4,0.3-2.6c0.8-0.4,0.5-2.3-0.3-3c-0.8-0.9-1.2-4.4-0.8-5.2
		c0.3-0.3,0.5-1,0.8-1.9c0.2-0.7,0.8-2.3,1.4-3.6l1.1-2.3l-1.1-1.9c-1.1-1.7-1.1-2-0.8-3.3c0.3-1.3,0.3-1.4-0.3-1.7
		c-1.1-0.3-1.5-1.7-1.5-3.9c0-1-0.3-2.4-1.1-3.6c-1.2-2.3-1.4-3.7-0.3-4.7c0.6-0.7,0.6-0.7-0.3-1.9c-0.5-0.7-1.4-1.1-2-1.1
		c-0.5,0-1.7-0.3-2.6-0.7c-2.6-1-2.8-3-0.3-4.4c0.8-0.4,2.2-1.6,3.2-2.6c2-1.9,2.6-2.2,4.2-1.1c0.6,0.4,1.4,0.4,2.6,0.3
		c2.8-0.4,3.1-0.7,3.2-5c0.2-2-0.2-3.9,0.2-4.2c-0.3-0.3,0.2-0.9,0-1.3c-0.5-0.7-0.3-1,0.9-2.2c1.2-1.3,1.4-1.4,0.9-2.4
		c-0.3-0.6-0.9-1.1-1.7-1.4c-1.8-0.7-2.6-1.4-2.6-2.9c0-1-0.3-1.3-1.2-1.7c-0.8-0.3-1.4-0.9-1.5-1.3c-0.3-0.7-0.5-0.7-2.5-0.4
		c-1.1,0.1-2.6,0.6-3.2,1c-1.4,1-2.8,0.9-4.5-0.3l-1.4-1l-1.5,1.3c-0.8,0.7-1.5,1.3-1.8,1.3c-0.2,0-0.8,0.4-1.4,0.9
		c-2.2,1.9-4.3,3-5.8,3c-1.8,0-2.5-0.6-2.5-2.3c0-2.3,2.6-5.3,6-7.3c1.5-0.9,3.2-1.7,3.4-1.7c1.1,0,0.5,0.7-1.5,1.4
		c-4.3,1.9-7.8,6.3-7.1,8.5c0.3,0.9,0.6,1,1.8,0.9c1.2-0.1,5.1-2.6,5.5-3.4c0.2-0.1,0.5-0.3,0.8-0.3c0.3,0,1.2-0.4,2-1.1
		c1.7-1.4,2.2-1.4,3.5-0.4c1.4,0.9,2.9,1,4.3,0.1c0.5-0.3,2-0.7,3.2-0.9c2-0.1,2.5-0.1,3.2,0.9c0.5,0.6,1.4,1,1.8,1
		c0.6,0,0.5-0.1-0.3-0.7c-0.6-0.3-1.2-1-1.4-1.4c-0.2-0.7-0.5-0.7-3.1-0.6c-2,0.1-3.2,0.3-3.7,0.9c-1.2,1-2.8,0.9-4.2-0.6l-1.4-1.3
		l-1.8,1.6c-0.9,0.9-2,1.6-2.2,1.6c-0.2,0-1.5,0.9-3.1,2c-3.1,2.2-4.8,2.6-4.8,1c0-2.2,4-6,8.2-7.8c1.1-0.4,1.2-0.7,1.5-3.2
		c0.2-1.4,0.3-3,0.2-3.2c-0.2-0.3-1.4-0.4-3.8-0.6l-3.7-0.1l-0.6-1.7c-0.3-0.9-0.9-2-1.4-2.4l-0.8-0.9l-1.8,1.3
		c-1.1,0.7-2.2,1.6-2.5,1.9c-0.6,0.9-2.5,0.9-3.2,0.1c-0.5-0.3-1.2-0.4-3.5-0.3c-2.6,0.1-3.1,0.3-4.3,1.4c-1.4,1.1-1.5,1.3-3.4,1
		c-3.1-0.3-4.9,0.3-7.2,2.7c-1.1,1.1-2.6,2.3-3.2,2.4c-1.1,0.4-1.4,0.7-1.5,2.4c-0.2,1.1-0.5,2-0.9,2.2s-1.4,0-2.5-0.3
		c-2.3-0.6-3.4-0.3-3.7,0.9c-0.3,1.3,0.3,2.6,2.3,4.9c1.8,1.9,2,2.6,1.2,3c-0.8,0.4-4.2-0.7-4.3-1.3c-0.2-0.3-0.8-1.3-1.5-2
		c-1.2-1.3-1.4-1.3-1.8-0.6c-1.1,1.4-0.3,4.3,1.8,6.5c1.8,1.7,2.8,4.2,2.2,5.6c-0.6,1.4-1.5,1.7-2.9,0.4c-0.8-0.6-1.8-1.1-2.6-1.4
		c-1.1-0.3-1.5-0.7-2-2c-0.5-1.6-1.7-2.6-2.2-2.2c-0.2,0.1-0.3,1-0.5,1.9c-0.2,1.3,0.2,2.6,1.4,5.6c0.8,2.2,1.8,4,2,4.2
		c0.3,0.1,1.5,0.3,2.8,0.3c1.8,0,2.5,0.1,3.2,0.9c1.1,1.1,2.9,6.2,2.8,7.9c-0.2,1.9,0.3,2.2,0.8,0.4c0.3-1.3,0.5-1.3,0.5-0.3
		c0,0.6-0.5,1.7-0.8,2.2c-0.5,0.9,0.6,3.6,1.4,3.6c0.9,0,1.1,0.7,0.8,1.7c-0.2,0.9,0,1.4,1.1,2l1.5,0.3l0.2,2.9l0.3,3l2.6,3.4
		c1.5,1.9,3.5,4.4,4.6,5.6c2.6,2.6,3.1,4.6,1.5,7.2l-0.9,1.7l1.8,1.7l1.5,1.7l0.2,3.4c0.2,3.3-0.3,2.6-1.4,3.4
		c-0.9,0.7-0.8,1.6-0.8,3c0,1.7-1.1,0.9-2.3,2.9c-0.5,0.9-0.2,1.6,0,1.9s0.3,0.7,0.3,0.9c0,0.1,0.8,1.3,1.2,1c0,0,1.5,0,2-0.3
		c1.4-0.7,3.1,1.9,3.1,3.9c0,1.4,0.2,1.6,1.2,1.9c1.2,0.3,2,0.9,3.8,3.6c0.5,0.7,1.7,2.2,2.6,3.2l1.8,2v4v3.4l2,1.1
		c2.5,1.4,2.6,1.4,4,0.3c0.8-0.4,1.4-0.7,2-0.6c1.2,0.3,3.2,3.4,4.2,6.6c0.8,2.4,0.9,2.6,2.5,3.2C674,139.6,674.4,139.4,674.4,138.2
		z"/>
</g>
</svg>
