<?xml version="1.0" encoding="utf-8"?>
<!-- Generator: Adobe Illustrator 18.0.0, SVG Export Plug-In . SVG Version: 6.00 Build 0)  -->
<!DOCTYPE svg PUBLIC "-//W3C//DTD SVG 1.1//EN" "http://www.w3.org/Graphics/SVG/1.1/DTD/svg11.dtd">
<svg version="1.1" id="Layer_1" xmlns="http://www.w3.org/2000/svg" xmlns:xlink="http://www.w3.org/1999/xlink" x="0px" y="0px"
	 viewBox="0 0 1616.4 970.7" enable-background="new 0 0 1616.4 970.7" xml:space="preserve">
<g id="Greenland">
	<g id="path27138">
		<path fill="#B3B3B3" d="M335.6,85.1l8.9-9.4c0,0,0-4-1.1-4.4c-1.1-0.4,1.6-2.5,1.6-2.5l2.9-0.1l3.3-1.7l1.5-2.4
			c0,0,8.4-4.8,9.9-4.5c1.5,0.3,3.7,2.1,3.7,2.1l1.9-0.4l2.9-2.5l6.3-2.9l12.1-8.6l2.3-0.4l3.3,0.5l1.7,0.7l2.9,0.5h1.7l10.8,1.1
			l2.1,0.3l6.5,6.9l4.1-0.1l3.5-2l4.9-2L431,57l-4.1,5.7c0,0-2.1,5-1.9,5.2c0.3,0.2,0.9,4.3,0.9,4.3s-0.7,6.4-0.3,6.8
			c0.4,0.4,2.1,3.5,2.1,3.5l-2.4,3.7l0.1,2.3l-2.2-0.1l-2.9,2.6l1.3,4.1l5.1,5.4l-4.2,1.6l-7.5,0.9l-4.5,2.1l-5.5,5.4l-6.5,6.1
			l-7.3,3.7c0,0-2.9,1.1-3.9,3.1c-1,2-4.5,10.6-4.5,10.6l-1.4,5.3c0,0-0.6,4.3,0,3.9c0.6-0.4-1.7,1.3-1.7,1.3l-2.9-1.7l-6.4-5.3
			l-4.5-3.6l-0.8-4l-2.4-8.1l-0.6-1.7l2.2-2.5l1.2-4l-3.4-4.8l0.1-0.5l0.6-0.2c0,0,0.7-1.6,0.4-2.5c-0.2-0.8-1.1-2.9-1.1-2.9l-2-4.1
			c0,0-3.1-5.4-6-6.6c-2.9-1.2-5.1-5.2-5.1-5.2l-2.6-1.8l-2,0.2L343,86l-0.6,0.1l0.5-0.5l-2.3,0.2L335.6,85.1z"/>
		<path fill-opacity="0" stroke="#000000" stroke-width="2.000000e-03" d="M335.6,85.1l8.9-9.4c0,0,0-4-1.1-4.4
			c-1.1-0.4,1.6-2.5,1.6-2.5l2.9-0.1l3.3-1.7l1.5-2.4c0,0,8.4-4.8,9.9-4.5c1.5,0.3,3.7,2.1,3.7,2.1l1.9-0.4l2.9-2.5l6.3-2.9
			l12.1-8.6l2.3-0.4l3.3,0.5l1.7,0.7l2.9,0.5h1.7l10.8,1.1l2.1,0.3l6.5,6.9l4.1-0.1l3.5-2l4.9-2L431,57l-4.1,5.7c0,0-2.1,5-1.9,5.2
			c0.3,0.2,0.9,4.3,0.9,4.3s-0.7,6.4-0.3,6.8c0.4,0.4,2.1,3.5,2.1,3.5l-2.4,3.7l0.1,2.3l-2.2-0.1l-2.9,2.6l1.3,4.1l5.1,5.4l-4.2,1.6
			l-7.5,0.9l-4.5,2.1l-5.5,5.4l-6.5,6.1l-7.3,3.7c0,0-2.9,1.1-3.9,3.1c-1,2-4.5,10.6-4.5,10.6l-1.4,5.3c0,0-0.6,4.3,0,3.9
			c0.6-0.4-1.7,1.3-1.7,1.3l-2.9-1.7l-6.4-5.3l-4.5-3.6l-0.8-4l-2.4-8.1l-0.6-1.7l2.2-2.5l1.2-4l-3.4-4.8l0.1-0.5l0.6-0.2
			c0,0,0.7-1.6,0.4-2.5c-0.2-0.8-1.1-2.9-1.1-2.9l-2-4.1c0,0-3.1-5.4-6-6.6c-2.9-1.2-5.1-5.2-5.1-5.2l-2.6-1.8l-2,0.2L343,86
			l-0.6,0.1l0.5-0.5l-2.3,0.2L335.6,85.1z"/>
	</g>
</g>
<g id="NorthWestTerritory">
	<path id="path11771" fill="#999999" d="M314.1,164.8c1.6-2.5,6.1-7.4,7.8-8.2c1.9-1,3.2-0.8,1.4,0.2c-3.6,2-10.7,10-8.8,10
		c0.2,0,1-0.9,1.7-2.1c1.5-2.4,6.1-6.7,7.8-7.4c0.6-0.2,1.8-0.4,2.6-0.4c0.8,0,1.7-0.2,2-0.4c0.9-0.6,1.6-2.4,1.6-4.2
		c0-2.9,2.7-4.8,6.6-4.8c1.6,0,2.3-0.4,5.3-3.1c4.1-3.7,4.4-4.1,5.2-6.8l0.6-2.1l0.3,1.4l0.3,1.4l0.1-1.3c0-0.7,0.4-1.5,0.9-1.8
		c0.8-0.5,0.8-0.5,0-0.6c-0.5,0-1.1-0.1-1.4-0.1c-0.3,0-1.1-1-1.7-2.1c-1.7-3-3.6-3.1-9.2-0.3c-3.7,1.8-4.9,1.5-6.7-2.1
		c-0.7-1.4-1.9-6-2.5-9.4c-0.3-1.8,0.7-3.8,3.2-6.9c1.8-2.2,3.1-4.9,2.6-5.4c-0.5-0.5-5.1,0.4-6.6,1.4c-0.8,0.6-2.4,2.4-3.5,4.1
		c-1.1,1.7-2.6,3.8-3.4,4.7c-1.4,1.6-1.4,1.7-1.4,7.4c0,5-0.1,5.8-0.9,6.5c-1.2,1.1-2.1,0.6-3.9-2.1c-0.8-1.3-1.8-2.7-2.2-3
		c-1.4-1.4-2.8,0.5-2.6,3.2c0.2,1.9-1.1,3.6-2.7,3.6c-1.5,0-7.1-1.6-9.1-2.6c-1.1-0.6-1.4-0.5-2.8,0.4c-1.3,0.8-1.6,1.5-1.9,3.1
		c-0.1,1.1-0.5,2.2-0.8,2.5c-0.6,0.6-6.7,1.1-8.8,0.7c-0.9-0.2-2.5-1-3.5-1.9c-3.3-2.9-5.1-4.4-6.9-5.6c-1.6-1.1-1.9-1.1-2.5-0.5
		c-0.4,0.4-1.3,0.7-2.1,0.7c-2,0-3.6-1.9-4.9-5.8c-0.3-1-1.2-1.1-1.2-0.1c0,0.9-2.3,1.5-3,0.8c-1-1-2.5-0.5-5.2,1.8
		c-3.5,3-6.2,3.8-11.9,3.7c-2.3,0-5,0.1-5.9,0.3c-1.5,0.3-1.8,0.2-2.7-0.9c-0.5-0.7-1.1-1.5-1.1-1.7c-0.2-0.6-7.9,0.5-7.9,1.2
		c0,0.4,2.5,0.2,5.5-0.4c1.3-0.3,1.6-0.1,2.5,1.1c1.3,1.8,3.6,2.3,5.5,1.4c0.9-0.4,1.9-0.5,2.8-0.3c2.4,0.6,5.6,0.5,7.9-0.2
		c3-0.9,3.9-1.5,6.4-3.7c2-1.9,2.1-1.9,3.9-1.4c1,0.3,2.2,0.4,2.6,0.3c0.4-0.2,0.8-0.1,0.8,0.2c0,0.7-2,0.7-3.5,0
		c-1.1-0.5-1.4-0.4-3.4,1.5c-3.5,3.3-5.7,4-11.8,4.1c-2.9,0-6.3,0.2-7.6,0.4c-2,0.3-2.5,0.2-3.4-0.7c-0.6-0.5-1.1-1.2-1.2-1.5
		c-0.1-0.3-1.3-0.4-3.6-0.2c-3.9,0.4-3.9,0.3-3.9,5.9c0,2.6-0.2,3.9-0.8,4.7c-0.7,1-0.8,2.5-1,10.6c-0.1,9.1-0.1,9.5,0.8,10.5
		c1,1.1,1,1.1,16.9,1.1c14.4,0,16,0.1,17.1,0.8c1.1,0.8,3.3,0.8,26.8,1c20.8,0.1,25.9,0.3,26.9,0.8
		C312.5,167.1,312.7,167,314.1,164.8z"/>
</g>
<g id="Venezuela">
	<path id="path12167" fill="#C8BEB7" d="M318.5,387.9c0.8-1.2,1-3.9,0.5-5.3c-0.7-2.1-0.7-5,0.2-6.2c0.9-1.2,3.5-2.5,5.1-2.5
		c0.7,0,2,0.7,3,1.5c1.4,1.2,2.1,1.5,3.7,1.5c1.1,0,2.5-0.3,3.3-0.6c1.3-0.5,1.3-0.5,1-3.7c-0.4-4.2,0.1-4.8,3.6-4
		c2.4,0.5,2.4,0.5,4.3-1.1c2.7-2.3,4-2.6,5.4-1c0.6,0.7,1.2,2.2,1.4,3.2c0.7,4.2,3.9,5.5,11.3,4.7c5.5-0.6,8.1-1.6,11.8-4.3
		c2.5-1.9,5.1-5.6,4.5-6.5c-0.7-1.1-3.2-1.5-8.6-1.5c-5.5,0-5.7,0-8.1-1.5c-1.4-0.8-2.8-1.7-3.1-2c-1.4-1.1-8-7.7-8.8-8.9
		c-1.5-2.2-4.2-2.8-12.7-3l-7.6-0.2l-4.2-2.2c-2.3-1.2-5.1-2.8-6.1-3.6c-2-1.4-3.5-1.5-5-0.2c-0.4,0.3-2,1.3-3.5,2.1
		c-6.3,3.4-6.6,3.7-9.7,8.2c-1.6,2.4-3.8,5-4.8,5.8c-2.3,1.7-2.9,3.1-2.3,5.4c0.3,0.9,0.5,3,0.5,4.5c0,2.4-0.2,2.9-1.3,4
		c-0.7,0.7-1.7,1.5-2.2,1.8c-0.5,0.3-0.8,0.7-0.6,0.8c0.6,0.6,3.6-1.7,4.3-3.3c0.9-1.9,1-5.1,0.2-8.1c-0.4-1.8-0.4-2.3,0.3-3.3
		c0.4-0.7,1.4-1.6,2.1-2c0.7-0.4,2.6-2.6,4.1-4.8c2.6-3.8,3-4.2,7.1-6.6c2.4-1.4,5.2-3,6.1-3.6c2.1-1.3,2.6-1.3,4.3,0.1
		c1.2,1,7.6,4.4,11,5.9c1.1,0.5,1,0.5-0.6,0.3c-1-0.1-3.1-1-4.6-1.9c-1.6-0.9-3-1.6-3.1-1.6c-0.1,0-1.2-0.6-2.3-1.4
		c-2.1-1.4-3.3-1.8-3.7-1c-0.1,0.2-1.8,1.2-3.7,2.2c-5.7,2.9-7.1,4-9.1,7.3c-1,1.7-3.1,4.3-4.7,5.8l-2.8,2.7l0.5,3.7
		c0.3,2,0.4,4.4,0.2,5.2c-0.3,1.5-3.5,5.3-4.5,5.3c-1,0,3.3,3.9,5.6,5.1c1.3,0.7,3.4,1.9,4.6,2.8c1.2,0.9,3.9,2.3,5.9,3.2
		s4.7,2.1,6,2.8C315,389.1,317.7,389.2,318.5,387.9z"/>
</g>
<g id="Peru">
	<path id="path12223" fill="#CCCCCC" d="M368.3,463.9c1.8-1.1,3.3-2.3,3.3-2.6c0-0.7-2-6.1-3.4-8.8c-0.9-1.9-1.4-2.4-3.3-3
		c-1.9-0.7-2.3-1.1-3-2.7c-0.4-1.1-0.7-3.2-0.7-4.9c0-2.5-0.3-3.5-2.1-7.1c-1.1-2.3-3.2-5.4-4.5-7c-1.3-1.6-2.8-3.4-3.2-4.1
		c-0.6-1-1.1-1.3-2.4-1.3c-2.6,0-8.4-3.3-12.4-7l-3.5-3.2l-2.8,1.1c-1.6,0.6-4.1,1.5-5.7,2.1c-3.3,1.2-6.8,1-8.3-0.5
		c-1.3-1.3-1.1-2.6,0.7-4.4c0.9-0.9,1.7-1.9,1.7-2.1c0-0.9-1.6-0.5-3.4,0.7c-1,0.6-2,1.1-2.4,0.9c-0.4-0.1-1.6-1.3-2.6-2.6
		c-1.1-1.3-2.8-2.8-3.9-3.4c-2.5-1.4-2.9-2.7-1.7-5.9c0.7-1.9,1.6-3,4.7-5.6c2.1-1.8,3.8-3.4,3.8-3.5s-1.5-1-3.4-1.8
		c-6.8-3-14.7-7.7-17.6-10.5l-1.9-1.8l-1.5,2.1c-0.8,1.2-1.6,2.1-1.8,2.1c-0.3,0,0.6-1.8,1.8-3.5c0.5-0.7,0.8-1.5,0.6-1.6
		c-0.3-0.3-1.1,0.3-1.9,1.7c-0.3,0.5-1.6,2.6-2.8,4.6l-2.3,3.6l-0.4,6.5c-0.2,3.6-0.3,7.1-0.2,7.9c0.3,1.5,1.9,3.4,6.2,7.3
		c2.3,2.1,3,3.2,6.3,10.6c1.2,2.7,2.3,4.1,5.8,7.6c2.8,2.7,5.7,5,8.2,6.4c2.7,1.5,5.2,3.5,8.2,6.6c2.4,2.4,4.2,4,4,3.5
		c-0.8-2.2-9.1-9.7-12.6-11.3c-1-0.5-1.8-1-1.8-1.2c0-0.2,0.1-0.4,0.2-0.4c0.6,0,5.5,3.2,7.7,5c5.7,4.8,7.2,6.6,7.2,8.5
		c0,0.7,9.5,9.4,10.9,10c0.2,0.1,0.8-0.7,1.4-1.8c1-2,2.5-2.9,3.8-2.5c0.4,0.1,1.5,0.7,2.4,1.3c0.9,0.6,2.8,1.2,4.3,1.4
		c4.8,0.6,5.1,0.7,6.4,2.8c1.5,2.4,4.8,4,8.3,4c1.4,0,2.4,0.3,2.8,0.7c1,1.2,1.4,6.3,0.6,8.2c-0.4,0.9-0.7,1.8-0.7,2
		C361.2,467.6,364.9,466,368.3,463.9z"/>
</g>
<g id="Argentina">
	<path id="path12297" fill="#B3B3B3" d="M345.9,570.2c1.4-0.5,3.2-1.2,3.9-1.6l1.3-0.7l-2.1-1.3c-3-1.9-6-4.9-6.6-6.7
		c-0.4-1.1-0.4-2.3,0-4.4c1.1-6.1,2.7-10.1,4.9-12.5l1.2-1.3l-2.5-1.4c-1.4-0.8-2.8-2-3.1-2.6c-0.5-1-0.3-1.5,1.5-4.1
		c1.1-1.6,2.5-3.6,3.1-4.4c1.1-1.4,1.1-1.5,0.4-5.2c-0.4-2.1-0.8-4.2-1-4.7c-0.5-1.4,0.9-2.5,3.1-2.5c3.1,0,4.2-0.7,4.8-3.1
		c0.7-2.4,1.1-2.8,4.1-3.2c2.9-0.4,6.6-2.6,8.8-5.3c3.1-3.7,3.1-3.9,1.7-6.7c-1.5-3-1.3-3.9,1.1-3.9c2.6,0,5.4-1.9,7.6-5.1
		c0.9-1.2,0.9-1.5,0.3-1.5c-0.4,0-0.7,0.2-0.7,0.5s-0.9,1.4-2,2.6c-1.5,1.5-2.5,2.2-3.9,2.4c-4.7,0.7-5.3,1.6-3.3,5
		c1,1.8,1.1,2.2,0.6,3.5c-0.3,0.8-1.9,2.6-3.5,4.1c-2.8,2.6-5.3,3.7-8.3,3.7c-1.7,0-3.2,1.3-3.2,2.7c0,2-1.1,3-3.4,3.3
		c-1.1,0.1-2.6,0.5-3.2,0.8c-1.1,0.5-1.2,0.8-1.1,3.6l0.1,3.1l-0.6-2.6c-0.6-2.4-0.6-2.7,0.2-3.8c0.7-0.9,1.5-1.3,3.7-1.6
		c2.4-0.3,2.9-0.6,3.4-1.6c0.3-0.7,0.6-1.6,0.6-2c0-1.3,1.5-2.2,4-2.5c3.4-0.4,6.2-2,8.9-5.1l2.4-2.7L368,499
		c-1.8-3.6-1.2-5.8,1.5-5.8c0.8,0,2.1-0.3,2.9-0.7c1.6-0.7,5-3.9,5-4.7c0-0.2-0.5-1.1-1.2-1.9c-0.8-1-1.2-2-1.2-3.3
		c0-1.5-0.2-1.9-1.2-2.3c-1.4-0.5-3.3-3.4-3.8-5.5c-0.3-1.4-0.4-1.5-1.7-1.2c-1.1,0.2-1.5,0.1-1.9-0.9c-0.7-1.5,0.1-3.1,3.1-6.5
		c1.2-1.3,2.1-2.5,2.1-2.6c0-0.1-0.8,0.2-1.8,0.8c-5.9,3.6-8.6,4.4-10.2,2.9l-1-1l1-2.6c0.7-1.9,0.9-3.2,0.7-4.8
		c-0.3-2.2-0.5-2.3-3-2.1c-0.6,0-2.6-0.6-4.3-1.3c-2.4-1.1-3.3-1.8-4.2-3.3c-1.1-1.8-1.2-1.9-4.5-2.2c-1.8-0.2-3.8-0.6-4.3-0.9
		c-0.5-0.3-1.5-1-2.2-1.4l-1.3-0.8l-0.9,1.8c-0.8,1.6-2.6,3-3.8,3c-0.2,0-2.6-1.9-5.3-4.2c-3.3-2.8-5.1-4-5.3-3.7
		c-0.2,0.3-0.4,0.2-0.4-0.5c0-1.5-0.8-1.8-1.1-0.4c-0.4,2.1,0.5,13.1,1.5,17.9c1.2,6,1.2,7.3-0.3,9.9c-1.6,2.9-1.5,6.8,0.4,9.7
		c1.2,1.8,1.3,2.3,1.3,6.7c0,4.7,0,4.8-1.4,6c-0.8,0.7-2.1,2.5-3.1,4.1c-1.8,3.1-2.1,5-1.1,8.1c0.3,1,1.2,4.8,2,8.4
		c1.2,5.6,1.5,6.6,2.4,6.9c0.6,0.2,1.5,1,2,1.7c1.3,1.6,1.4,6.1,0.2,8.6c-0.4,0.9-1.5,3.3-2.4,5.2c-0.9,1.9-1.5,3.6-1.3,3.9
		c0.2,0.3,1,0.8,1.8,1.1c2.7,1.1,3,1.8,3,5.6c0,5.8,0.8,8.4,3.6,12.2c1.4,1.8,3.1,3.8,3.8,4.3c0.7,0.6,2.2,2.3,3.4,3.9
		C339.3,571.2,341.1,571.8,345.9,570.2z"/>
</g>
<g id="Brazil">
	<g id="path27119">
		<path fill="#B3B3B3" d="M378.9,365.3l13.2,7.6c0,0,5.8,7.2,10.2,11.5c1.6,1.6,8.6,1.3,8.6,1.3l14.6,5.7c5.6,3,5.9,5.9,7.3,8.9
			c0.6,4.9-3.5,5.8-4.6,8.3c-4.5,5.5-6.4,11.7-6.4,11.7l-5.8,12.1l-9.2,18.6c0,0-16.2,6.7-15.9,8.6c0.3,1.9-13.3,27.8-13.3,27.8
			c-1.2-2.1-2.9-3.1-2.4-6.8c-1-0.9-4.9-2.5-4.8-7.3c-3.6-1-2.7-0.3-3.3-1.1c0.1-3.5,3.5-6,5.4-9c-1.5-11.4-6.4-13.8-7.8-15.4
			c-0.5-0.4-0.6-0.3-1.7-1.8c-1-0.4-1-7.8-1-7.8s-1.6-4.8-11.6-17.7c1,2.2-10,0.1-16.1-9.2c-1.3-2-12.8,6.8-17.8,2.9
			c-1.9-1.5,1.9-6.1,2.6-6.1c-0.2-1.2-0.8-0.9-1.3-0.9c-2.5,1.2-5.3,3.7-7.1,0.5l-6.7-6.5c0.4-3.1,3.2-8.1,9.7-12.4
			c1.5,0,4.2,1.8,5.8-1.3l-0.1-4.9c-0.7-2-0.6-3.9-0.2-5.7c2-2.7,4.3-2.9,5.6-2.4l4.8,2.6c0,0,2.7,0.7,6.3-1.8l0-6.5l4.5,1.1l2.3-1
			c1-1.7,2-3.5,4-2.7c0.6,0.5,1.1,1,1.5,1.8l1.9,5.2l1.9,1.6l4,1l3.5-0.2c6.6-0.5,9.1-1.1,12-2.9L378.9,365.3z"/>
		<path fill-opacity="0" stroke="#000000" stroke-width="2.000000e-03" d="M378.9,365.3l13.2,7.6c0,0,5.8,7.2,10.2,11.5
			c1.6,1.6,8.6,1.3,8.6,1.3l14.6,5.7c5.6,3,5.9,5.9,7.3,8.9c0.6,4.9-3.5,5.8-4.6,8.3c-4.5,5.5-6.4,11.7-6.4,11.7l-5.8,12.1
			l-9.2,18.6c0,0-16.2,6.7-15.9,8.6c0.3,1.9-13.3,27.8-13.3,27.8c-1.2-2.1-2.9-3.1-2.4-6.8c-1-0.9-4.9-2.5-4.8-7.3
			c-3.6-1-2.7-0.3-3.3-1.1c0.1-3.5,3.5-6,5.4-9c-1.5-11.4-6.4-13.8-7.8-15.4c-0.5-0.4-0.6-0.3-1.7-1.8c-1-0.4-1-7.8-1-7.8
			s-1.6-4.8-11.6-17.7c1,2.2-10,0.1-16.1-9.2c-1.3-2-12.8,6.8-17.8,2.9c-1.9-1.5,1.9-6.1,2.6-6.1c-0.2-1.2-0.8-0.9-1.3-0.9
			c-2.5,1.2-5.3,3.7-7.1,0.5l-6.7-6.5c0.4-3.1,3.2-8.1,9.7-12.4c1.5,0,4.2,1.8,5.8-1.3l-0.1-4.9c-0.7-2-0.6-3.9-0.2-5.7
			c2-2.7,4.3-2.9,5.6-2.4l4.8,2.6c0,0,2.7,0.7,6.3-1.8l0-6.5l4.5,1.1l2.3-1c1-1.7,2-3.5,4-2.7c0.6,0.5,1.1,1,1.5,1.8l1.9,5.2
			l1.9,1.6l4,1l3.5-0.2c6.6-0.5,9.1-1.1,12-2.9L378.9,365.3z"/>
	</g>
</g>
<g id="CentralAmerica">
	<path id="path12123" fill="#B3B3B3" d="M292.9,358.4c0.5-1,1.6-2.3,2.5-2.9c1.4-0.9,4.1-4.5,4.1-5.3c0-0.1-1.5-0.4-3.4-0.5
		c-4.7-0.4-5.1-0.6-5.1-2.6c0-1.2,0.4-2.2,1.4-3.4c0.8-0.9,1.8-2.6,2.4-3.8c0.6-1.2,1.6-2.8,2.4-3.5c0.8-0.7,1.4-1.8,1.4-2.3
		c0-0.5-1.2-2.1-2.6-3.6c-4-4-4-5.6-0.2-7.4c1.1-0.5,2.3-1.4,2.7-1.9c0.7-0.9,0.9-4.3,0.4-6.8c-0.3-1.4-0.5-1.5-2.1-1.5
		c-2,0-4.9,1.3-6.1,2.7c-0.4,0.5-1,1.7-1.3,2.6c-0.3,1-0.8,1.8-1.1,1.9c-1,0.3-8.6-0.2-9.1-0.7c-0.3-0.2-0.7-1.5-0.9-2.9
		c-0.2-1.4-0.4-3.3-0.6-4.2c-0.2-1.4,0.1-2.4,1.2-4.6c1.2-2.3,1.4-3.1,1-4.2c-0.2-0.8-0.3-1.8-0.2-2.4c0.3-1.1-0.6-1.3-1-0.2
		c-0.2,0.4-0.4,0.7-0.6,0.5c-0.1-0.1,0-0.7,0.2-1.2c0.4-0.8,0.2-1.4-1.1-3.5c-0.9-1.4-1.8-2.9-1.9-3.3c-0.2-0.7,1.2,0.7-0.6-1.2
		l-2.3-2.5l-2.5-2.2c-2.5-2.2-0.1-2.2-10.3-1.8c-2.7,0.1-5.4-0.1-7.9,0c-1.1-0.7-4.5-3.7-3.4-2.6c0,0-2.6-2.8-4.6-3.1
		c-1.2-0.2-2.7-0.5-3.3-0.8c-0.6-0.3-2.1-0.6-2.1-0.4c0,0.2,0.3,0.2,0.1,0c-0.2-0.3-1.7-0.4-2.1-0.8c-0.5-0.4,0.6-0.1,1.5,1.8
		c1,2.1,1.4,3.7,1.6,7c0.5,7.2,1.5,10.6,4.1,15c3.6,5.9,3.9,6.6,4.9,9.1c0.5,1.3,1.4,3.2,2,4.1c3,4.9,2.6-1.3-0.6-8.9
		c-1.9-4.5-4.7-12.2-5.9-16.4c-0.5-1.8-0.1-2.7,1.2-2.7c1.1,0,2.3,1.7,2.9,4c0.2,0.8,0.9,2.4,1.7,3.5c0.7,1.2,2.2,4.2,3.3,6.7
		c1.2,2.7,2.8,5.4,3.9,6.6c3.1,3.4,3.8,5.5,3.7,10.8c-0.1,4.3,0,4.6,1.1,5.7c0.7,0.7,3.5,2.1,6.3,3.1s5.8,2.6,6.7,3.3
		c1.6,1.3,1.7,1.5,1.8,5.2c0.2,3.5,0.3,3.8,1.3,4.1c1.6,0.4,2.9,3.6,3.3,7.8c0.3,3.6,1.9,7.7,3.6,9.2c0.8,0.8,6,3,7,3.1
		C291.7,360.2,292.4,359.4,292.9,358.4z"/>
</g>
<g id="EasternUnitedStates">
	<path id="path12031" fill="#B3B3B3" d="M344.8,307.8c2.7-1.7,3.3-3.4,3-8.6c-0.1-2.5-0.6-5.5-1.1-6.9c-0.5-1.4-0.7-3-0.5-3.8
		c0.5-2.2,3.4-5.2,8.5-8.7c3.7-2.5,5.2-3.9,6.6-6.1c1.5-2.3,1.8-3.1,1.6-4.4c-1-5.7-1.1-5.3,2.2-9.2c0.9-1.1,2.5-2.8,3.5-4
		c2-2.1,5.7-9.4,5.7-11.2c0-2.1,3.3-6.9,4.7-6.9c0.4,0,0.6-0.2,0.6-0.5c0-0.9-1.4-0.5-2.8,0.9c-1.9,1.9-2.9,3.5-3.3,5.7
		c-0.5,2.6-4.1,10-5.4,11.1c-1.8,1.5-6.7,7.7-7,9c-0.2,0.7,0,2.3,0.3,3.6c0.6,2.3,0.5,2.5-0.8,5c-1.4,2.5-5.3,5.9-9.4,8.2
		c-2.8,1.6-6.4,6.2-6.4,8.2c0,0.5,0.3,1.9,0.7,3c0.9,2.6,1.5,6.5,1,6c-0.4-0.4-1.5-4.8-2-8.3c-0.2-1.2,0-2.4,0.7-3.7
		c1-1.9,5-6.1,5.9-6.1c0.9,0,7.6-5.4,8.8-7.1c1.2-1.8,1.3-2.4,0.8-7.2c-0.3-3-0.7-2.3,6.6-10.8c2.4-2.8,3.9-5.4,4.9-9
		c1.5-5.2,2.2-6.5,4.1-8.1c1.1-1,2.4-1.7,2.9-1.7c1.8,0,3.4-4.9,1.4-7.8c-2.1-3-5.7-1.8-7.6,0.8c0,0-2.5,3-5.8,3.5
		c-4.1,0.6-6.9,0-8.8-1.8c-2-1.9-3-2.2-5.7-1.8c-1.9,0.3-2.8,0.8-5.4,3.4c-1.7,1.7-3.8,3.8-4.6,4.8l-1.4,1.8l2.3-1.3
		c1.3-0.7,2.8-1.8,3.4-2.4c1-1,5.6-2.7,7.3-2.7c1.2,0,1.8,2.2,1.3,4.5c-0.6,2.3-0.9,2.5-4.3,3.2c-2.4,0.5-2.8,0.8-3.8,2.5
		c-1.5,2.7-4.9,4.8-8.3,5.1c-2.3,0.2-2.8,0.1-3.8-1c-1.8-1.9-1.3-3.5,1.7-5.2c2.2-1.2,2.3-1.4,1.4-1.7c-1.1-0.4-3.4-4.9-3.4-6.5
		c0-0.8-0.1-0.8-1-0.2c-0.9,0.6-1,0.9-0.7,4.4l0.3,3.8l-2,1.3c-1.1,0.7-2.6,1.3-3.4,1.3c-1.2,0-1.5-0.2-1.7-1.6
		c-0.1-0.9-0.1-3.3,0.2-5.4c0.3-3.1,0.8-4.4,2.4-7.1c1.1-1.8,1.9-3.7,1.9-4.1c-0.1-0.5-1.4-1-4.8-1.5c-2.6-0.4-5-0.9-5.5-1.1
		c-1.3-0.5-1-2.3,0.6-4.8c1.8-2.7,1.7-1.6-2.3-2.2l-3.7-0.5l0.1,18.6l0.1,18.6l-1.7,2.3c-0.9,1.3-3.2,1.1-3.8,1.3
		c-0.6,0.2-6.1-0.2-6.1-0.2l-6.1,0.6l-0.8,4.1c-0.9,3,1.3,3.8-1.7,4.7c-1.3,0.4-3-0.2-3.3,0.7c0,0-1.7,0.3-2.2,1
		c-0.7,0.9-3.8,5.8-4,8.2l-0.8,4.3l-3.8,2.1l-0.8,3.1l0.2,2.5c0.4,2.8,8,4.5,9.3,6.6c0.9,1.6,1.9,3,2.1,3.1c0.2,0.1,1.7-0.7,3.4-1.7
		c4.6-3,9.2-4.8,12.1-4.6c4.6,0.3,5.9,0.2,9.4-0.8c4.3-1.2,4.7-1.2,2.8-0.2c-2.1,1.1-8.4,2.1-11.1,1.8c-3.7-0.4-10,2-15,5.8
		c-2.3,1.8-0.2,1.3,2.5-0.5c5.1-3.6,6.9-4.2,12.7-4.3c3.8,0,6.2-0.4,8.9-1.2l3.7-1.1l2.8,1.2c4.3,1.9,5.2,2,7.8,0.9
		c4.7-2.2,6.3-0.6,5.8,5.7c-0.3,4,0.6,8.9,1.9,10.5C340.4,309.6,342.6,309.2,344.8,307.8z"/>
</g>
<g id="WesternUnitedStates">
	<path id="path11997" fill="#808080" d="M279.9,289.9c-0.9-5.6-0.6-6.6,2.6-8.5c2.5-1.5,2.8-1.9,2.8-3.8c0-3,0.9-5.8,2.1-6.8
		c0.5-0.5,1-1.3,1-1.8c0-1,2.4-2.8,4.5-3.4c2.6-0.7,3.5-1.8,3.5-4.6c0-1.6,0.4-3.1,1-3.8c0.9-1.1,1.4-1.1,7.7-1.1h6.7l1.6-1.7
		l1.6-1.7v-19.1v-19.1h-40.5c-34.9,0-40.4,0.1-39.8,0.7c0.4,0.4,0.6,2,0.5,3.7c-0.2,2.9-0.3,3-2.8,4.5c-1.4,0.8-3,1.4-3.3,1.3
		c-0.4-0.1,0.6-0.8,2.1-1.6c1.6-0.8,3-1.9,3.3-2.5c0.5-1.3-0.2-4.6-1.1-5.5c-1.2-1.2-1.8-0.6-0.8,0.9c2,3.3,0.8,5.6-3.8,7.2
		c-1.7,0.6-1.7,0.7-1.8,4.3c0,2-0.1,5.6-0.1,7.8c0,2.3-0.1,5,0,6.2c0,1.2-0.5,3-1.3,4.2c-1.8,2.9-2.4,7.2-1.8,13
		c0.5,5.1,1.6,8.4,3.5,10.7c0.6,0.8,1.5,2.2,1.9,3.3c0.4,1,1.1,2,1.6,2.2c0.9,0.3,0.8,0.1-3.6-7.9c-1.7-3-2.8-7-1.8-6.5
		c0.3,0.2,0.7,1.2,1,2.3c0.2,1.1,1.3,3.5,2.5,5.4c1.2,1.9,2.5,4.4,2.9,5.5c0.9,2.5,3.8,4.1,9.2,5.1c2.8,0.5,4.1,1.2,7.2,3.7l3.8,3
		h8.2h8.2l2.1,1.8c1.1,1,2.5,2.5,3.1,3.3c1,1.5,1.8,1.8,5.3,1.9C280.4,292.5,280.4,292.5,279.9,289.9z"/>
</g>
<g id="Quebec">
	<g id="path26414">
		<path fill="#CCCCCC" d="M350.4,228.7l3.9,0.3l1.2,0.1l1.5,0.2l1.5,0.9l1.9,1.3l1.6,1l1.7,0.5l2.2-0.1l2.5-0.5l1.3-0.7l1.1-0.9
			l1.2-1.5l1.1-1.9l1.3-1.2l3.3-1.6l1.1,0.5l1.8,1.2l1.1,1.2l0.9,2.3l0.3,2.4l0,2.5l-0.4,2.5l-0.6,1.8l0.1,1.8l1.3,4.3l0.6,0.8
			l-0.5,0.1l-0.7-0.2l-0.5-1.8l-0.6-2.6l-0.4,0.6l0.2,1.9l0.3,1.8l0.4,0.6l0.6,0.4l0.9,0.3l0.8,0l1.4-0.7l0.9-1l1-2l1.3-3.3l0.6-1.2
			c0,0,0.6-0.5,1-0.7c0.4-0.2,1.2-0.6,1.2-0.6l1-0.9l2.1-4.7l-0.1-0.9l-0.3-0.4l-1.2-0.2L389,230c0,0-0.5-0.1-1-0.3
			c-0.5-0.2-0.2-2.1-0.2-2.1l-0.4-4.1l-0.2-1.5l-0.5-1.2c0,0-1.5-2.6-0.2-3.6c1.3-1,2.6-1.5,2.6-1.5s1.9-0.6,2.1-0.5
			c0.3,0,2.5,0,2.8,0c0.3,0.1,1.9-0.2,2.5-0.5c0.6-0.3,3.4-2.6,3.4-2.6l3.2-1.8l3.4-1.8l1.5-1.2l1.3-2l0.6-2.5l-0.2-1.5l-0.9-1.7
			l-1.7-2.2l-1.7-2.2l-0.9-1.9l-0.1-0.6l-0.6-1l-4-2.2c0,0-2.4-1.8-2.3-2.4c0.1-0.6-0.9-2.5-0.7-5.1c0.1-2.6-3.5-4-3.5-5.6
			c0-1.7-0.5-3.9-0.5-3.9s-0.9-1.6-2.6-0.7c-1.7,0.9-2.5,2.2-2.5,2.2l-1.3,1.8l-2.2,2.3c0,0,1.3-0.2,0,0c-1.3,0.2-1.5,0.7-2.2,0
			c-0.8-0.7-1.3-0.5-0.9-3.6c0.4-3.1,0.5-5.5,0.4-6.1c-0.1-0.6-0.9-3-0.9-3l-2.3-3.4l-0.8-1.3l0.3-0.3l1.5,1l1.2,0.9
			c0,0-3.1-3.2-2.9-3.8c0.2-0.6-0.5,1.2-1.2,0.4c-0.7-0.7,10.8-13.2,10.3-13.3c-0.4-0.1-0.2-1-0.2-1l-22.1,16.4l-1.3,8.6l-3.4,3.8
			l-0.5,4l1.9,7.1l-1.4,3.1l-3.2,2.7l-2.6,1.3l-1.4,2.9l0.1,3.1l0.3,6.4l-0.6,2.2L350.4,228.7z"/>
		<path fill-opacity="0" stroke="#000000" stroke-width="2.000000e-02" d="M350.4,228.7l3.9,0.3l1.2,0.1l1.5,0.2l1.5,0.9l1.9,1.3
			l1.6,1l1.7,0.5l2.2-0.1l2.5-0.5l1.3-0.7l1.1-0.9l1.2-1.5l1.1-1.9l1.3-1.2l3.3-1.6l1.1,0.5l1.8,1.2l1.1,1.2l0.9,2.3l0.3,2.4l0,2.5
			l-0.4,2.5l-0.6,1.8l0.1,1.8l1.3,4.3l0.6,0.8l-0.5,0.1l-0.7-0.2l-0.5-1.8l-0.6-2.6l-0.4,0.6l0.2,1.9l0.3,1.8l0.4,0.6l0.6,0.4
			l0.9,0.3l0.8,0l1.4-0.7l0.9-1l1-2l1.3-3.3l0.6-1.2c0,0,0.6-0.5,1-0.7c0.4-0.2,1.2-0.6,1.2-0.6l1-0.9l2.1-4.7l-0.1-0.9l-0.3-0.4
			l-1.2-0.2L389,230c0,0-0.5-0.1-1-0.3c-0.5-0.2-0.2-2.1-0.2-2.1l-0.4-4.1l-0.2-1.5l-0.5-1.2c0,0-1.5-2.6-0.2-3.6
			c1.3-1,2.6-1.5,2.6-1.5s1.9-0.6,2.1-0.5c0.3,0,2.5,0,2.8,0c0.3,0.1,1.9-0.2,2.5-0.5c0.6-0.3,3.4-2.6,3.4-2.6l3.2-1.8l3.4-1.8
			l1.5-1.2l1.3-2l0.6-2.5l-0.2-1.5l-0.9-1.7l-1.7-2.2l-1.7-2.2l-0.9-1.9l-0.1-0.6l-0.6-1l-4-2.2c0,0-2.4-1.8-2.3-2.4
			c0.1-0.6-0.9-2.5-0.7-5.1c0.1-2.6-3.5-4-3.5-5.6c0-1.7-0.5-3.9-0.5-3.9s-0.9-1.6-2.6-0.7c-1.7,0.9-2.5,2.2-2.5,2.2l-1.3,1.8
			l-2.2,2.3c0,0,1.3-0.2,0,0c-1.3,0.2-1.5,0.7-2.2,0c-0.8-0.7-1.3-0.5-0.9-3.6c0.4-3.1,0.5-5.5,0.4-6.1c-0.1-0.6-0.9-3-0.9-3
			l-2.3-3.4l-0.8-1.3l0.3-0.3l1.5,1l1.2,0.9c0,0-3.1-3.2-2.9-3.8c0.2-0.6-0.5,1.2-1.2,0.4c-0.7-0.7,10.8-13.2,10.3-13.3
			c-0.4-0.1-0.2-1-0.2-1l-22.1,16.4l-1.3,8.6l-3.4,3.8l-0.5,4l1.9,7.1l-1.4,3.1l-3.2,2.7l-2.6,1.3l-1.4,2.9l0.1,3.1l0.3,6.4
			l-0.6,2.2L350.4,228.7z"/>
	</g>
</g>
<g id="Alaska">
	<g id="path27016">
		<path fill="#999999" d="M192.9,119.6l4.2,2.6l6.1,2.7l6.5,0.9l6.2,2.7l7.8,3.3c-0.2,3.1,0.4,7.3-0.9,9.2l-1.1,4l-0.2,13.6
			c0.6,1-0.2,1.9,0.2,2.9c0.6,1.3,0,0.9,0.6,1.3c1.1,0.9,1.4,4.6,2,4.6l1.8,2.8l-0.8,9.9l3.4,3.9l-3.4,6.6l-4.4-8.1l3.2,8.2v0.6
			l-2.4-3.9l-2.3-5.4l-0.1-0.9l-0.1-1.1l-1.4-1.6l-2.6-1.4l-2.2-1.3l-2.1-3.4l-1.3-1.5l-1.9-0.9l-3.7-0.6l-2.7-1.3l-3.5-3.3l-1-0.1
			l-2.2,2.8l-2.2,3l-3.4,2.2l-1.1,0.3l-0.4-2.3l-1.1-0.7l-1.5,0.4l-1.5,1.8l-0.9,2.1l-0.1,0.8l-7.4,7.4l-2.8,2.2l-3,0.7l-1.6-0.1
			l-1.1-1.2l1.1-2.1l6.6-3.5l-3.7-6.1l-4.7-2.2l-1.8-3.3v-2.4l-4-4.5l-0.3-6.3l4.1-4.3h9.1l1.7-4c0,0-1.2-1.2-2.9-1
			s-7.6-0.5-7.6-0.5l-1.5-5c0,0,2.5-2.8,3.3-2.4c0.9,0.4,5.5,1,5.5,1l2.7,0.4c0,0,3,0.6,1.1-2.4c-1.8-3-4.9-5-4.9-5
			s-3.1-1.6-1.7-3.1c1.4-1.4,7.8,1.3,7.8,1.3s2,1.6,2.9-3.2C180.3,120.5,192.9,119.6,192.9,119.6z"/>
		<path fill-opacity="0" stroke="#000000" stroke-width="2.000000e-03" d="M192.9,119.6l4.2,2.6l6.1,2.7l6.5,0.9l6.2,2.7l7.8,3.3
			c-0.2,3.1,0.4,7.3-0.9,9.2l-1.1,4l-0.2,13.6c0.6,1-0.2,1.9,0.2,2.9c0.6,1.3,0,0.9,0.6,1.3c1.1,0.9,1.4,4.6,2,4.6l1.8,2.8l-0.8,9.9
			l3.4,3.9l-3.4,6.6l-4.4-8.1l3.2,8.2v0.6l-2.4-3.9l-2.3-5.4l-0.1-0.9l-0.1-1.1l-1.4-1.6l-2.6-1.4l-2.2-1.3l-2.1-3.4l-1.3-1.5
			l-1.9-0.9l-3.7-0.6l-2.7-1.3l-3.5-3.3l-1-0.1l-2.2,2.8l-2.2,3l-3.4,2.2l-1.1,0.3l-0.4-2.3l-1.1-0.7l-1.5,0.4l-1.5,1.8l-0.9,2.1
			l-0.1,0.8l-7.4,7.4l-2.8,2.2l-3,0.7l-1.6-0.1l-1.1-1.2l1.1-2.1l6.6-3.5l-3.7-6.1l-4.7-2.2l-1.8-3.3v-2.4l-4-4.5l-0.3-6.3l4.1-4.3
			h9.1l1.7-4c0,0-1.2-1.2-2.9-1s-7.6-0.5-7.6-0.5l-1.5-5c0,0,2.5-2.8,3.3-2.4c0.9,0.4,5.5,1,5.5,1l2.7,0.4c0,0,3,0.6,1.1-2.4
			c-1.8-3-4.9-5-4.9-5s-3.1-1.6-1.7-3.1c1.4-1.4,7.8,1.3,7.8,1.3s2,1.6,2.9-3.2C180.3,120.5,192.9,119.6,192.9,119.6z"/>
	</g>
</g>
<g id="Alberta">
	<path id="path11873" fill="#808080" d="M231,212.9c-0.4-0.6-0.7-1.4-0.6-1.7c0.1-0.3,0.7,0.2,1.2,1.2l1,1.7h24.7H282l0.3-6.7
		c0.2-3.7,0.5-10.8,0.6-15.7c0.3-8.1,0.4-9.1,1.4-10.8c1-1.6,1.1-2.4,1.1-8.9c0-5.3,1.2-6.8,0.8-6.8c0,0-6.4,0.2-14.7-0.1
		c-10.9-0.4-13.7-0.6-14.9-1.2c-1.2-0.6-11.1-0.9-21.2-0.9h-12.3l0.3,1.8c0.2,1,0.9,2.5,1.6,3.3c1.4,1.5,1.4,1.6,1,6.3l-0.3,4.7
		l1.4,1.5c2.7,2.9,2.7,2.9,1.6,5.1c-0.6,1.1-1.8,3.2-2.6,4.5c-1.5,2.4-1.6,2.5-0.9,4.3c1.1,3,2.1,4.6,4.3,7.2
		c1.8,2.1,2.1,2.7,2.1,4.4c0,1.1-0.2,2.5-0.5,3.2c-0.3,0.8-0.3,0.4-0.2-1.2c0.3-2.9-0.6-4.9-2.9-6.9c-1-0.8-2-2.4-2.9-4.6
		c-0.7-1.8-1.5-3.2-1.7-3.1c-0.4,0.3,1.1,4.4,2.3,6.3c0.4,0.6,1.4,1.7,2.1,2.3c2.1,1.7,2.4,3.1,1.8,6.5c-0.5,2.6-0.5,3,0.3,4.1
		c0.5,0.7,1,1.3,1.3,1.3C231.6,214.1,231.4,213.5,231,212.9z"/>
</g>
<g id="SouthAfrica">
	<g id="path7935">
		<path fill="#999999" d="M562.8,384.6l-1.4,0l-1.6,0.5l0.2,1.7l0.7,2.7l0.6,2.3l1.8,2l1.9,2.3v1.5l-0.8,1l-1,1l-0.3,0.5
			c0,0-0.2,0.4-0.3,0.7c-0.1,0.3,0.2,1.1,0.2,1.1l0.6,1l0.3,0.4l0.7,0.8l0.3,0.6l0.2,0.6l0.1,0.3l0,0.4l0,0.3l0,0.2l-0.1,0.3
			l-0.1,0.3l0,0.1l-0.1,0.1l-0.1,0.3l-0.1,0.2l-1.1,1.8l-0.5,0.7l-0.3,0.4l-0.4,0.5l-0.2,0.3l-0.4,0.5l-0.4,0.6l-0.2,0.6
			c0,0-0.1,0.2-0.1,0.5c0,0.3,0.1,0.7,0.1,0.7l0.1,0.6c0,0,0,0.4,0,0.5c0,0.1,0,0.2-0.1,0.5c-0.1,0.4-0.2,0.5-0.2,0.5l-0.3,0.6
			l-0.3,0.4l-0.3,0.4l-0.4,0.6l-0.4,0.4l-0.4,0.6l-0.3,0.5l-0.2,0.4l-0.1,0.3l-0.1,0.3l0,0.3l0,0.3l0,0.5l0,0.5l0,0.6l0.1,1l0.1,1
			l0.2,1.4l0.1,0.4l0.4,1.3l0.4,0.7l0.5,0.9l0.6,0.7l4.7,7.2l0.3,15.1c0,0,3.2,9.7,6.3,13.9c3.1,4.2,3,7,3,7l-1.4,2.9
			c0,0-1.8,7.7,8.4,6.5c10.2-1.2,14.1-3.3,14.1-3.3l7.5-7.1l3.9-2.5l1.8-3l1.5-3.3l2-1.8l1.7-6.6l3.7-3l3.1,0.5l3-3.5l20-14.2
			l-0.5-25.4l-7.4-8.2l-4.5,3.5l-4.9,0.1l-2.6,2.6l-1.1,10.4c0,0-8.6,1.5-7.7-3c0.9-4.5,1.1-5.1,1.1-5.1l-1.3-7.8
			c0,0-5.3-2.1-5.1-3.4c0.3-1.3,0.8-1.6,0.8-1.6s0.1-0.8-0.2-0.9c-0.3-0.1-2-1.2-2-1.2l-1,0l-0.6,0.3l-1.2,0.7c0,0-0.9,0.3-0.3,2.5
			s1.2,2.7,1.2,2.7s1.4,1.5,1.4,1.6c0,0.2,0.1,1.5,0,1.6c-0.1,0.1-0.4,2.7-0.4,2.7s-0.8,1.6-1.3,1.1c-0.5-0.5-3.3,0.4-3.9-0.5
			c-0.6-0.9-3.1-2.8-3.1-2.8l-5.4,0.4l-2.4,0l-1.9-1.5l-1.5-0.7c0,0-2-0.1-2.5-2.1c-0.4-2-0.4-5-0.4-5l-0.5-1.7l-3.7-2.9l-5.4,0.9
			c0,0-1.5,2.3-4.7-4.1C567.7,381.9,562.8,384.6,562.8,384.6L562.8,384.6z"/>
		<path fill-opacity="0" stroke="#000000" stroke-width="2.000000e-03" d="M562.8,384.6l-1.4,0l-1.6,0.5l0.2,1.7l0.7,2.7l0.6,2.3
			l1.8,2l1.9,2.3v1.5l-0.8,1l-1,1l-0.3,0.5c0,0-0.2,0.4-0.3,0.7c-0.1,0.3,0.2,1.1,0.2,1.1l0.6,1l0.3,0.4l0.7,0.8l0.3,0.6l0.2,0.6
			l0.1,0.3l0,0.4l0,0.3l0,0.2l-0.1,0.3l-0.1,0.3l0,0.1l-0.1,0.1l-0.1,0.3l-0.1,0.2l-1.1,1.8l-0.5,0.7l-0.3,0.4l-0.4,0.5l-0.2,0.3
			l-0.4,0.5l-0.4,0.6l-0.2,0.6c0,0-0.1,0.2-0.1,0.5c0,0.3,0.1,0.7,0.1,0.7l0.1,0.6c0,0,0,0.4,0,0.5c0,0.1,0,0.2-0.1,0.5
			c-0.1,0.4-0.2,0.5-0.2,0.5l-0.3,0.6l-0.3,0.4l-0.3,0.4l-0.4,0.6l-0.4,0.4l-0.4,0.6l-0.3,0.5l-0.2,0.4l-0.1,0.3l-0.1,0.3l0,0.3
			l0,0.3l0,0.5l0,0.5l0,0.6l0.1,1l0.1,1l0.2,1.4l0.1,0.4l0.4,1.3l0.4,0.7l0.5,0.9l0.6,0.7l4.7,7.2l0.3,15.1c0,0,3.2,9.7,6.3,13.9
			c3.1,4.2,3,7,3,7l-1.4,2.9c0,0-1.8,7.7,8.4,6.5c10.2-1.2,14.1-3.3,14.1-3.3l7.5-7.1l3.9-2.5l1.8-3l1.5-3.3l2-1.8l1.7-6.6l3.7-3
			l3.1,0.5l3-3.5l20-14.2l-0.5-25.4l-7.4-8.2l-4.5,3.5l-4.9,0.1l-2.6,2.6l-1.1,10.4c0,0-8.6,1.5-7.7-3c0.9-4.5,1.1-5.1,1.1-5.1
			l-1.3-7.8c0,0-5.3-2.1-5.1-3.4c0.3-1.3,0.8-1.6,0.8-1.6s0.1-0.8-0.2-0.9c-0.3-0.1-2-1.2-2-1.2l-1,0l-0.6,0.3l-1.2,0.7
			c0,0-0.9,0.3-0.3,2.5s1.2,2.7,1.2,2.7s1.4,1.5,1.4,1.6c0,0.2,0.1,1.5,0,1.6c-0.1,0.1-0.4,2.7-0.4,2.7s-0.8,1.6-1.3,1.1
			c-0.5-0.5-3.3,0.4-3.9-0.5c-0.6-0.9-3.1-2.8-3.1-2.8l-5.4,0.4l-2.4,0l-1.9-1.5l-1.5-0.7c0,0-2-0.1-2.5-2.1c-0.4-2-0.4-5-0.4-5
			l-0.5-1.7l-3.7-2.9l-5.4,0.9c0,0-1.5,2.3-4.7-4.1C567.7,381.9,562.8,384.6,562.8,384.6L562.8,384.6z"/>
	</g>
</g>
<g id="Congo">
	<path id="path14279" fill="#CCCCCC" d="M606.3,408.2c1.1,1.1,1.7-2.5,1.5-2.8c0.2-0.5,0.4-2.6-0.8-3.5c-1.3-1-1.9-3.7-1.8-5
		c0.1-0.7,2.4-1.4,2.4-2.1c1.8,0.2,0.5-0.5-0.2-1.3c-0.6-0.7-0.7-1.7-0.6-5.5l0.2-4.6l3-5c4-6.6,5-8.1,8.7-12.5
		c1.7-2.1,3.1-4,3.1-4.3c0-0.3-0.4-0.9-1-1.4c-0.9-0.8-1.9-0.9-8.1-1.1c-6-0.1-7.3-0.3-8.1-1c-0.5-0.5-2.2-1.3-3.7-1.9l-2.7-1.1
		v-2.6c0-2.4-0.1-2.8-1.8-4.5c-1-1-2.6-3.3-3.5-5c-2.7-5-3.4-6.1-3.7-6c-0.2,0.1-3.4,2.6-7.1,5.6l-6.8,5.5l-0.3,5.6
		c-0.4,9.3-1.7,11-8.2,11.1c-2,0-3.1,0.3-3.8,0.9c-1.2,1.1-3.6,1.8-5.9,1.8c-2.5,0-3,0.5-3.2,3.4c-0.2,2.8-0.3,2.6,3.9,8.8l1.9,5.2
		c0.9-0.3,3.4-0.5,2.9-0.5c0,0,1.3-0.3,1.4-0.3c0.5,0,1.7-0.5,4.1,0.7c2.4,0.8,3.4,5.5,4.9,6.3c0,0,1,1.8,2.1,1.5
		c0.1,0.1,2.6-0.6,3.4-1c0.5,0,0.9-0.2,1.3-0.3c2-0.3,4.7,2.3,4.9,2.5c1.4,1.4,0.7,7.4,1.3,7.9c0.4,0.4,3,2,3.5,2
		c0.2,0,0.9,1.2,2,1.5c1.6,0.5,7.2-0.6,7.7-0.4c0.7,0.2,1.2,1.1,3.2,2.8C603.8,408.8,605.9,407.9,606.3,408.2z"/>
</g>
<g id="EastAfrica">
	<path id="path14305" fill="#CCCCCC" d="M624.3,297.6C624.3,297.6,624.3,297.6,624.3,297.6c-0.2,0.1,0.7,1.4,1.9,2.7
		c2.8,3.2,1.9,3.2-1,0l-2.3-2.4l-7.7,0.8c-6.3,0.7-8,0.7-9.4,0.3c-4.6-1.5-11.4,0.9-14.5,5.2l-1.8,2.4l0.6,2.5
		c0.4,1.5,0.6,4.7,0.6,8.3c0,5.2-0.1,5.9-0.9,6.5c-0.8,0.6-0.9,1.2-0.9,4.4c0,3.5-1.9,4.2-0.2,6.5c1,1.4,1,1.5,1.8,3.2
		c0.9,1.7,3.6,7.2,4.8,8.3c2,1.9,3.1,2.4,3.1,4.4c0,2.4,0.2,4.3,1.6,4.3c0.2,0.8,3.5,1.6,3.8,2c0.4,0.5,2.3,1.5,6.4,1.5
		c7,0,10.3-0.5,11.3,1.6c0.6,1.2,0.8,1.3,0.6,1.9c-0.3,0.6-2.3,4.3-2.7,4.7c-2.8,2.4-5.6,5.9-6.3,7.2c-0.7,1.3-3.8,5.9-4.8,7.6
		c-1.7,2.7-1.2,4.3-1.2,4.4c-0.3,4-0.2,7.6,3.2,9.9c1.8,1.2,0.4,1.6,0.1,2.7c-0.2,1.2,2.6,2.5,3.7,2.9c1.7,0.6,1.1,1.9,1.6,3.8
		c0.2,0.7,0.6,3.3,0.6,3.5c0.5,2.3,0,2.6-0.2,3.9c-0.5,2.4-1.3,3.1,0.1,4.5c1.5,1.5,6.1,2.1,6.5,0.3c0.2-0.8,0.4-3.5,0.6-6
		c0.4-5.3,1.8-5.8,4.1-6.6c0.8-0.2,1.5,0.5,3.6-0.2c1.1,0.4,3.7-2.1,4.6-3.3c1-1.2-0.6-3.1-0.7-6.3c0-2-0.1-3.5-0.4-4
		c-1.1-2.1-2.7-3.8-0.7-6.9c1.9-2.9,8.7-9.9,15.2-15.6c1.9-1.7,4.3-4.1,5.4-5.4c2.6-3.1,6.4-8.8,6-8.8c-0.2,0,0-0.4,0.4-0.8
		c0.4-0.5,1-1.6,1.3-2.5c0.3-0.9,0.8-1.9,1-2.1c0.2-0.3,0.5-1.2,0.7-2.1c0.2-0.9,0.7-2.5,1.2-3.5c0.5-1,1-2.5,1.2-3.3
		c0.2-0.8,0.4-1.1,0.6-0.8c0.1,0.3-0.2,1.9-0.7,3.5c-1.3,3.8-1.8,6.4-1.1,5.7c0.3-0.3,0.9-2.1,1.5-4c1.7-5.7,2.4-8.2,2.1-9.2
		c-0.4,0.1-0.8,0.1-0.9,0.1c-0.8,0-1.3-0.3-1.8-0.6c-0.1,0-0.1,0-0.2,0c-1.5,0.2-4.7,0.8-7.2,1.4c-2.5,0.6-5.7,1.2-7.1,1.4
		c-2.5,0.3-2.7,0.2-4-1.1c-1.2-1.3-1.4-1.8-1.3-4c0.1-2.3-0.1-2.7-1.2-3.8c-4.1-3.8-6.2-5.5-7.5-5.9c-1.8-0.6-2.5-2.1-2.5-5.1
		c0-2.1-0.1-2.3-2.4-4.3l-2.4-2.1l1-0.8c1.1-0.9,1.3-1.8,0.6-2.6c-0.2-0.2-0.5-1-0.6-1.6c-0.2-1-0.2-0.9-0.3,0.4
		c-0.1,1.3-0.2,1.5-0.7,1.1c-0.5-0.4-0.7-0.4-0.9,0.2c-0.3,0.8-2.2,1-2.2,0.3c0-0.7,2-1.9,2.5-1.6c0.3,0.2,0.4-0.5,0.2-1.9
		c-0.2-1.9-0.6-2.6-2.7-4.7C625.7,298.6,624.6,297.6,624.3,297.6z"/>
</g>
<g id="Egypt">
	<path id="path13777" fill="#CCCCCC" d="M591.4,303.4c0.8-1.3,2-2.2,4.6-3.4c4.2-2,7.4-2.5,10.9-1.7c2.1,0.5,3.5,0.5,7.6,0
		c2.8-0.3,5.7-0.7,6.4-0.9c1.2-0.3,1.3-0.4,0.7-1.5c-0.3-0.6-1.3-2.6-2.2-4.3c-0.9-1.7-2.1-3.7-2.6-4.5c-0.6-0.8-1.3-2.1-1.6-2.8
		c-0.6-1.6-0.2-5.6,0.7-6.5c0.7-0.7,0.3-2.1-1.2-3.4c-0.6-0.5-1.4-1.5-1.7-2.3c-0.6-1.2-0.8-1.3-1.7-0.7c-1.2,0.8-5.5,1.5-5.5,1
		c0-0.2,0.8-0.4,1.9-0.5c1-0.1,2.6-0.5,3.5-1.1l1.6-0.9l1.1,1.5c2.6,3.5,3.6,5.3,3.4,5.9c-0.1,0.3-0.4,0.6-0.6,0.6
		c-0.2,0-0.6,1.1-0.9,2.4c-0.6,2.3-0.6,2.4,1.2,5.5c1,1.8,2.7,4.9,3.8,7c2.2,4,3,5.1,3,4.1c0-0.3-1.2-2.8-2.7-5.4
		c-4.5-8.1-4.8-8.7-4.6-10.4c0.1-0.8,0.7-1.9,1.3-2.3c1-0.8,1-0.8,0.1-2.4c-0.8-1.4-2.7-4.2-4.5-6.5c-0.7-0.9-0.7-0.9-3.1,0.3
		c-2,1.1-2.8,1.2-5.2,1c-4-0.4-6.4-1.3-12.3-4.8c-2.8-1.7-5.4-3-5.6-3c-0.9,0-1.8,0.8-1.9,1.7c-0.4,4-0.9,6.4-1.5,6.8
		c-1.1,0.9-4.1,0.2-6.9-1.5c-5.3-3.2-6.5-4.3-7.3-5.9c-0.8-1.7-1.1-1.8-5.1-2.3c-3.2-0.4-2.2,0.6,1,1.1c2.1,0.3,2.6,0.6,3.5,2
		c1.6,2.3,9.2,7.6,11,7.6c0.4,0,0.7,0.2,0.7,0.5c0,1-1.8,0.4-5.2-1.8c-4.4-2.7-6.9-4.9-7.5-6.5c-0.4-1-0.8-1.2-2.1-1.2
		c-0.9,0-2.2-0.2-3-0.5c-1.2-0.5-1.5-0.4-2.9,1.3c-0.8,1-1.5,2-1.5,2.3c0,0.3-0.8,1.5-1.7,2.8c-2,2.9-2.1,4.7-0.5,10.3
		c1.9,6.5,2.9,8.3,6.8,12.3l3.6,3.7l2.9-0.1c2.6-0.1,3.2,0.1,5.2,1.4c1.3,0.8,3.4,1.9,4.6,2.3c1.7,0.6,2.6,1.2,3.2,2.3
		c0.5,0.8,1.1,1.5,1.3,1.5c0.2,0,1.3,0.8,2.4,1.7c1.9,1.6,2,1.6,2.9,0.8C589.9,305.5,590.8,304.3,591.4,303.4z"/>
</g>
<g id="NorthAfrica">
	<g id="path8787">
		<path fill="#B3B3B3" d="M511.5,264.7l-2.1,3.4l-1.7,4.9l-2.5,5.5l-3.6,4.1l-3.2,11.1l-2.5,1.9l-1.2,2.5l2.2,7.9l0,2.2l-0.7,3
			l-1.8,2.9l-1.5,2.1l-0.3,6.3l1.8,6l3,5.7l3.3,2.4l1.9,5l0.4,2.8l2.9,2.4l6.4,6.7l6.2,0.4l3-2l2.7-0.1l3.5,2.5l2.5,0.7l1.5-1.1
			l3.3-1.7l3-0.6l3-0.8l2.1,0.6l1.3-0.3l2.4,2.5l1.3,2.5l3.3,0.8l3.2,0.6l2,1l1.2,2.6l-2.7,6.2l6.4-1.3l2.9-1.7l2-0.1l3.8-0.4
			l2.3-0.7l0.7-0.6l0.6-1.4l0.4-1.6l0.6-5l0.2-4.1l-0.2-2.6l2.5-2l2.2-2l9.5-6.8l-1.3-3.3l1.3-10.1c1.5,0.2,1.2-1.5,1.3-2.6l0.2-8.4
			l-1-4.4l-5.1-4.1l-3-2.9l-6.7-3.1c-1-1.7-5.1-1.1-7.7-1.3l-5-4.8c0,0-10.6-12.9-5-22.7c4-6.9,3.7-4.1,4.7-6.4
			c0.6-1.1,1.6-0.8,1.6-0.8s2.7,0.3,2.2-1c-0.5-1.3-1.8-1.9-1.8-1.9l-3.6,0.1c0,0-9.4-0.4-13.4-3.1c-4-2.7-11.3-2-11.3-2l-3.8,0.3
			l-3,1.9c0,0-4.9,0.7-8.8-0.7C515.7,254.2,511.5,264.7,511.5,264.7L511.5,264.7z"/>
		<path fill-opacity="0" stroke="#000000" stroke-width="2.000000e-03" d="M511.5,264.7l-2.1,3.4l-1.7,4.9l-2.5,5.5l-3.6,4.1
			l-3.2,11.1l-2.5,1.9l-1.2,2.5l2.2,7.9l0,2.2l-0.7,3l-1.8,2.9l-1.5,2.1l-0.3,6.3l1.8,6l3,5.7l3.3,2.4l1.9,5l0.4,2.8l2.9,2.4
			l6.4,6.7l6.2,0.4l3-2l2.7-0.1l3.5,2.5l2.5,0.7l1.5-1.1l3.3-1.7l3-0.6l3-0.8l2.1,0.6l1.3-0.3l2.4,2.5l1.3,2.5l3.3,0.8l3.2,0.6l2,1
			l1.2,2.6l-2.7,6.2l6.4-1.3l2.9-1.7l2-0.1l3.8-0.4l2.3-0.7l0.7-0.6l0.6-1.4l0.4-1.6l0.6-5l0.2-4.1l-0.2-2.6l2.5-2l2.2-2l9.5-6.8
			l-1.3-3.3l1.3-10.1c1.5,0.2,1.2-1.5,1.3-2.6l0.2-8.4l-1-4.4l-5.1-4.1l-3-2.9l-6.7-3.1c-1-1.7-5.1-1.1-7.7-1.3l-5-4.8
			c0,0-10.6-12.9-5-22.7c4-6.9,3.7-4.1,4.7-6.4c0.6-1.1,1.6-0.8,1.6-0.8s2.7,0.3,2.2-1c-0.5-1.3-1.8-1.9-1.8-1.9l-3.6,0.1
			c0,0-9.4-0.4-13.4-3.1c-4-2.7-11.3-2-11.3-2l-3.8,0.3l-3,1.9c0,0-4.9,0.7-8.8-0.7C515.7,254.2,511.5,264.7,511.5,264.7
			L511.5,264.7z"/>
	</g>
</g>
<g id="NewGuinea">
	<path id="path14065" fill="#CCCCCC" d="M831.9,306.5c-0.7,0-1.6,0.5-2.5,1.6c-0.6,0.8-1.5,2-2.2,2.8c-0.8,1-0.9,1.4-0.4,1.4
		c0.4,0,0.9-0.2,1.2-0.5c0.4-0.4,0.6-0.4,0.8,0c0.4,0.6-1.4,1.6-2.1,1.2c-1.1-0.7-1.3,1-0.2,2.1c0.6,0.6,1.3,1.9,1.4,2.8
		c0.2,0.9,0.8,1.9,1.4,2.3c0.6,0.4,1.2,1.3,1.4,2.1c0.2,0.8,0.5,1.5,0.8,1.7c0.3,0.2,0.7,0.8,0.9,1.4c0.2,0.6,1.1,1.4,2,1.8
		c1.3,0.6,1.4,0.7,0.5,0.7c-1.5,0.1-1.9,1.9-0.8,3.6c0.7,1,0.9,1.2,1,0.5c0.3-1.4,1.4-0.9,1.7,0.7c0.2,1.2,0.4,1.4,0.8,0.8
		c0.7-1.1,0.6-2.4-0.3-3.4c-0.6-0.7-0.6-0.9-0.1-0.9c0.4,0,0.3-0.2-0.3-0.7c-1.6-1.2-0.5-1.2,3.4,0c3.7,1.1,3.9,1.3,4.4,2.9
		c0.7,2.2,0.7,6.8,0,9.5c-0.6,2.4-0.3,2.9,2.2,2.9c0.9,0,1.6,0.3,1.8,0.7c0.2,0.6,0.8,0.7,2.5,0.4c1.8-0.2,2.4-0.1,3.2,0.6
		c1.9,1.7,3.4,2.4,6.1,2.7c1.6,0.2,3.5,0.4,4.3,0.6c1.4,0.2,1.6,0.1,2.5-1.6c2.2-4.3,6.7-3,8.8,2.6c0.7,1.8,1,2.1,2.3,2.1
		c0.8,0,2.5,0.4,3.6,0.9c2.5,1,3.1,0.9,4-0.9c0.4-0.7,0.7-2.2,0.7-3.2c0-1.6-0.3-2-1.9-3.2c-2.4-1.8-3.1-3.1-2.5-4.3
		c0.4-0.8,0.3-1-0.7-1.5c-0.6-0.3-1.4-1.1-1.7-1.8c-0.5-1.1-0.4-1.4,1-2.6c0.8-0.8,1.5-1.7,1.5-2c0-0.8-1.9-2.9-3.7-3.9
		c-2.2-1.3-3.4-3.4-3.4-6v-2.2l-3-0.8c-2.5-0.7-3.6-1.4-7.4-4.8c-6.4-5.7-10.4-7.6-14.9-6.9c-3,0.4-3.5,1.2-3.5,4.8
		c0,1.7-0.2,3.6-0.5,4.2c-0.4,1-0.7,1.2-2,1.1c-2.1-0.2-3.7-2.9-3.7-6.4l0-2.5l-2,0c-2.1,0-4.2-1.1-5.3-2.7
		C832.7,306.8,832.3,306.5,831.9,306.5L831.9,306.5z"/>
</g>
<g id="Indonesia">
	<g id="path8904">
		<path fill="#CCCCCC" d="M808.6,367.1L805,365l-1.7-1.1l-0.2,3.5l-1.2,0.3l2.8,2.4l1.9,4l-0.8,2.9l-12.2,1.4l-13.1-1.9l-0.3-4.9
			l-3.6,1.9c0,0-6.9-5.1-8.5-6.8c-1.6-1.7-1.6-4.9-9.2-11.2c-7.6-6.3-12.3-21.6-11.6-22.4c0.7-0.8,2.2-3.3,2.2-3.3l2.6-0.2l9.6,4.4
			l6,6.1l8,10.5l0.6-0.8c0,0-0.9-6.5-0.9-9.9c0.1-3.4,1-2.5,1-2.5s1.9,0.9,2.4,0.8c0.5-0.2,2.4-2,2.4-2l3.7-5.7l1.9-1.8l3-4.5
			l0.4-1.5l0.9-1.2l4.7-0.3l1.2-0.3l-0.5-2l-1.1-0.3l2.8,0.2l0.6,2.2l18,8.8l8.1,3.8v1.9l-0.6,1l-2,2.8l-3.1,24.8l-1,5.8l-1.7,0.3
			l-0.6-1.2l-1.7-1.7c0,0-3.6-2.9-3.2-1.8C811.5,366.4,808.6,367.1,808.6,367.1z"/>
		<path fill-opacity="0" stroke="#000000" stroke-width="2.000000e-03" d="M808.6,367.1L805,365l-1.7-1.1l-0.2,3.5l-1.2,0.3l2.8,2.4
			l1.9,4l-0.8,2.9l-12.2,1.4l-13.1-1.9l-0.3-4.9l-3.6,1.9c0,0-6.9-5.1-8.5-6.8c-1.6-1.7-1.6-4.9-9.2-11.2
			c-7.6-6.3-12.3-21.6-11.6-22.4c0.7-0.8,2.2-3.3,2.2-3.3l2.6-0.2l9.6,4.4l6,6.1l8,10.5l0.6-0.8c0,0-0.9-6.5-0.9-9.9
			c0.1-3.4,1-2.5,1-2.5s1.9,0.9,2.4,0.8c0.5-0.2,2.4-2,2.4-2l3.7-5.7l1.9-1.8l3-4.5l0.4-1.5l0.9-1.2l4.7-0.3l1.2-0.3l-0.5-2
			l-1.1-0.3l2.8,0.2l0.6,2.2l18,8.8l8.1,3.8v1.9l-0.6,1l-2,2.8l-3.1,24.8l-1,5.8l-1.7,0.3l-0.6-1.2l-1.7-1.7c0,0-3.6-2.9-3.2-1.8
			C811.5,366.4,808.6,367.1,808.6,367.1z"/>
	</g>
</g>
<g id="Madagascar">
	<path id="path14441" fill="#666666" d="M646.2,495.3c1.6-1.4,3.7-1.6,4.9-0.5c0.5,0.5,1.2,1,1.5,1c0.8,0,3.3-4.4,3.3-5.9
		c0-1.8,1.1-3.3,2.5-3.7c1.1-0.3,1.7-1.2,5.3-8.3c5.8-11.3,6.5-13.2,6.8-17.5l0.3-4.1l2.4-2.5c2.1-2.2,2.5-2.9,3.2-5.7
		c0.4-1.8,0.7-3.8,0.7-4.4c0-1.2-4.3-10-5.5-11.2c-0.9-0.9-1-0.7-2.2,2.6c-1.2,3.5-1.7,4.1-3.2,3.7c-1.8-0.4-2.3,0.2-2.5,2.8
		c-0.1,1.9-0.4,2.4-1.2,2.8c-0.6,0.2-1.3,1.1-1.7,1.9c-0.3,0.8-1.6,2.1-2.7,2.8c-1.8,1.2-2.5,1.4-4.7,1.3c-1.9-0.1-3,0.1-4.2,0.9
		c-0.9,0.5-1.6,0.8-1.6,0.5c0-0.3-0.3-0.5-0.7-0.5c-0.9,0-2.2,1.9-1.8,2.6c0.7,1.1,0.6,6.1-0.1,7.2c-0.8,1.2-0.9,4.2-0.2,4.6
		c1.2,0.8-0.5,7.3-1.9,7.3c-0.3,0-1.4,1.3-2.6,2.9c-2.4,3.3-2.7,5.2-1.1,7.2c1,1.3,1,2.6,0,5.2c-0.5,1.3-0.4,1.6,1.6,4.8
		C643.4,496.9,644.1,497.2,646.2,495.3z"/>
</g>
<g id="Slam">
	<path id="path13821" fill="#B3B3B3" d="M780.4,243.7c-0.3,0-0.6,0.1-1,0.4c-2.4,1.3-3.8,2.8-5.2,5.7c-0.8,1.6-2.8,4.9-4.5,7.5
		l-3.1,4.6l1.2,1.7c0.6,0.9,2.8,4.9,4.7,8.8c2.5,5.1,4.1,7.7,5.6,9.2l2.1,2l2.8-0.3c2.6-0.3,2.9-0.2,4.8,1.2
		c1.1,0.8,1.9,1.7,1.7,1.9c-0.2,0.3-0.1,0.5,0.2,0.5c0.7,0,2.3,3.4,3.1,6.6c0.6,2.4,0.6,3.4,0.2,6.4c-0.6,4-1.4,5.3-0.9,1.5
		c0.7-5,0.5-7.6-0.9-10.8c-1.4-3.2-3.8-5.9-5.6-6.4c-0.6-0.1-2.2-0.2-3.5-0.1c-2.4,0.2-2.5,0.1-5-2.3c-1.4-1.4-2.5-2.7-2.5-3
		c0-0.7-5.9-12.3-7.3-14.4c-1.5-2.2-1.9-1.3-0.4,0.9c0.7,1,2.7,4.8,4.4,8.5c4.8,9.6,6.7,11.6,10.9,11c1.7-0.2,2.6-0.1,3.5,0.4
		c3.4,2.2,5.9,7,5.9,11c0,1.2-0.2,3.6-0.5,5.3c-0.7,4-0.4,5.1,2,7.8c1,1.2,1.9,2.4,1.9,2.7c0,1,4.3,7,5.4,7.4
		c1.5,0.6,4.3,0.6,4.9-0.1c0.4-0.4,0.3-0.9-0.6-1.9c-0.6-0.8-1.2-1.8-1.2-2.3s-0.4-1.2-0.9-1.5c-1.6-1.1-2.1-2.7-1.9-6.2
		c0.1-3.1,0.1-3.4-0.9-3.7c-2.4-0.9-4-8.3-2.2-10.1c0.9-0.9,0.9-0.9,2.1-0.2c0.5,0.3,1.3,1.3,1.7,2.3c0.6,1.6,1.1,2,3,2.6
		c2.7,0.9,4.9,3.5,5.7,6.6c1.5,6,1.5,6,2.5,5.6c0.5-0.2,1.5-0.8,2.1-1.5c1.1-1.1,1.2-1.1,1.6-0.3c0.7,1.3,0.8,1.3,1.5,0.4
		c0.7-0.9,0.7-0.9,0.7,0.3c0,1,0.1,1.1,0.5,0.4c0.3-0.5,0.4-1,0.2-1.3c-0.1-0.2-0.1-0.6,0.2-0.7c0.7-0.4,0.6-1.2-0.2-1.2
		c-1.2,0-1.3-1.5-0.1-2.8c0.8-0.9,1.4-2.9,2.2-6.8c1.2-6.3,1.2-10-0.2-10.8c-1.7-1-3-2.8-4-5.8c-1-3-4.5-8.2-7.1-10.7
		c-1.7-1.5-2.8-4.1-2.7-6.2c0-2.1,0.4-2.8,2.3-4.9c0.9-1,1.4-1.9,1.3-2c-0.2-0.2-1.1,0.6-2.1,1.6c-3.2,3.4-3,7.9,0.5,11.6
		c2.9,3.1,6.4,8.5,7.3,11.3c0.6,1.7,1.5,3.2,2.9,4.5c1.9,1.9,2,2.1,2,4.5l-0.1,2.5l-0.2-2.4c-0.1-2-0.4-2.6-1.4-3.3
		c-1.9-1.3-2.8-2.6-3.6-5.2c-0.8-2.8-3.8-7.4-7-10.8c-2.4-2.5-3.2-4.5-3.2-7.7c0-2.3,0.4-3.3,2.7-6l1.6-1.9l-3-3.3l-3-3.3l-2.5,2.3
		c-1.4,1.3-3.1,3.1-3.8,4c-1.8,2.3-3.3,3-5,2.1c-2.2-1.2-5.6-4.7-7.1-7.4c-0.8-1.4-2.2-3.5-3.2-4.6
		C781.2,244.2,780.8,243.7,780.4,243.7z"/>
</g>
<g id="Afghanistan">
	<path id="path13415" fill="#CCCCCC" d="M693.6,217.1c1.4-2.9,2.8-4.3,4.5-4.3c2.2,0,3.8-1,5.2-3.3c1.9-3,3.4-3.2,7.3-1.1
		c1.5,0.8,3,1.8,3.5,2.2c0.7,0.6,1.1,0.4,3.4-1.3c4.4-3.2,4.7-5,1.7-8c-2.5-2.4-3.3-4.3-3.3-7.7c0-2.3,0.2-2.9,1.4-4.3
		c0.8-0.9,2-2,2.8-2.3c0.8-0.4,2.8-2.6,4.6-5.2c2.8-4,3.2-4.8,3.4-7.3c0.2-2,0-3.2-0.5-4.3c-1-1.9-1-3.2-0.1-4.9
		c0.8-1.6,0.5-2.2-3.3-6.4c-2.2-2.4-2.6-2.6-3.3-2.1c-1.3,1-2.5,0.8-4.1-0.8c-1.3-1.4-1.6-1.4-3.9-1.2c-2.2,0.3-2.9,0.1-5.4-1.2
		c-2.6-1.3-2.9-1.7-3.5-3.7c-0.6-2.2-0.7-2.2-2.3-1.9c-2.4,0.4-3.9-1-5.2-4.7c-0.9-2.4-1.8-3.7-4.6-6.6c-1.9-2-3.5-4-3.5-4.5
		c0-0.5-0.3-1.2-0.7-1.5c-0.6-0.5-0.9-0.4-2,0.6c-0.7,0.7-2,1.5-2.9,1.9c-0.9,0.4-2.4,1.4-3.4,2.2c-2.9,2.4-5.5,3.3-8.1,2.6
		c-4.6-1.2-4.6-1.2-6.3,0.7c-1.6,1.8-2.2,1.9-6.2,1.8c-1.4-0.1-2.1,0.2-3.2,1.2c-0.9,0.9-2,1.4-3.6,1.6c-1.2,0.1-2.3,0.5-2.3,0.8
		c-0.1,0.3-0.4,1.6-0.7,2.9c-0.3,1.3-1.1,3-1.7,3.8c-1.6,1.9-1.6,5.7,0,8.7c0.6,1.2,1.7,3.1,2.3,4.4c0.6,1.2,1.5,2.7,2,3.4l0.8,1.1
		l1.1-1c0.6-0.6,1.6-1.2,2.1-1.3c0.6-0.2,1.1-0.5,1.1-0.7c0-0.6,2.2-1,3.6-0.7c1.4,0.4,3.3,3.4,3.7,6.1c0.4,2.3-0.3,4.1-2.4,6.3
		c-1.6,1.7-1.7,1.9-1.3,4c0.2,1.3,0.1,2.2-0.1,2.2c-0.2,0-0.5-1.2-0.6-2.7c-0.1-2.5,0-2.8,1.6-4.2c2-1.8,2.6-4,1.8-6.7
		c-1.3-4.3-3.6-5.4-6.9-3.2c-1,0.7-1.9,1.2-2,1.2c-0.2,0-0.7,0.4-1.2,0.8c-0.9,0.8-0.9,0.8-1.7-0.2c-0.4-0.6-1.3-2.1-2-3.4
		c-0.6-1.3-1.7-3.1-2.3-4c-0.9-1.3-1.2-2.4-1.4-5.3c-0.2-3.6-0.2-3.7,1.2-5.2c1.3-1.4,1.7-2.6,2.1-6c0.1-1,0.4-1.3,2.4-1.5
		c1.5-0.2,2.9-0.9,4.1-1.9c1.7-1.4,2.1-1.5,4.1-1.2c3.1,0.5,4.3,0,5.5-2c1.1-2,1.9-2.1,5.5-0.9c3.1,1,5.5,0.4,8.1-1.9
		c1-0.9,3.1-2.2,4.6-3c1.5-0.7,2.7-1.5,2.7-1.7c0-0.6-5.9,2.4-7.4,3.9c-2.6,2.5-6.1,3.1-8.9,1.6c-2.1-1.1-4.7-0.3-5.5,1.8l-0.6,1.5
		l-3-0.2c-2.5-0.2-3.3-0.1-4.7,0.9c-1,0.6-1.9,1.3-2,1.6c-0.2,0.3-1.2,0.5-2.3,0.5c-1.1,0-2.2,0.2-2.5,0.4c-0.3,0.2-0.8,1.8-1.1,3.5
		c-0.4,2.1-0.9,3.5-1.8,4.4c-1.1,1.1-1.2,1.7-1.2,4.9c0,3.1,0.2,3.9,1.2,5.5c0.7,1,1.7,2.8,2.3,4.1c0.6,1.3,1.9,3.2,2.8,4.4
		c1.5,1.8,1.7,2,2,1.2c0.8-2.2,5.3-4.9,6.9-4c1.2,0.7,2.3,3.5,2.3,5.9c0,1.6-0.3,2.2-1.9,3.7l-1.9,1.8l0.3,4.2
		c0.3,3.8,0.4,4.2,1.5,4.7c0.6,0.3,1.5,0.5,1.8,0.5c0.4,0,1,0.6,1.5,1.3c0.7,1,0.7,1.6,0.3,3.2c-0.7,2.7,0,5,1.5,5.4
		c0.7,0.2,1.6,0.7,2.1,1.3c0.9,0.9,0.9,1.1,0.2,2.7c-1,2.5-0.9,3.5,0.6,4.3c1.4,0.7,1.9,2.4,2,5.7c0,0.7,0.2,1.3,0.5,1.3
		c0.6,0,0.6-3.1,0-5.4c-0.3-1.1-0.9-1.9-1.7-2.3c-1.4-0.6-1.5-1.3-0.5-3.6c0.6-1.5,0.6-1.8-0.1-2.8c-0.4-0.6-1.5-1.4-2.4-1.8
		c-1.8-0.7-1.9-1.6-1.1-5.3c0.4-1.8,0.4-1.8,0.3,0.9c-0.1,2.4,0.1,3,0.9,3.4c3,1.6,3.5,2.2,3.4,4.1c-0.1,1-0.4,2.2-0.6,2.7
		c-0.4,0.8-0.3,1.1,0.8,1.7c1.3,0.8,1.9,2.6,1.9,6.1c0,1.5,0.1,1.5,1.7,1.3c3.6-0.6,10,2.2,11.5,5c1.2,2.3,3.3,3.6,5.6,3.4
		C692.2,219.8,692.4,219.7,693.6,217.1L693.6,217.1z"/>
</g>
<g id="China">
	<path id="path13599" fill="#CCCCCC" d="M738.6,147.7C738.6,147.7,738.6,147.7,738.6,147.7c-0.3,0.2-0.4,1.1-0.2,2.2
		c0.3,1.9,0.2,1.9-1.9,2.9c-1.2,0.5-2.2,1.2-2.2,1.5c0,0.3-0.4,1.4-0.9,2.3c-0.5,1-1.2,2.8-1.4,4c-0.3,1.2-0.8,2.6-1.1,3
		c-0.3,0.4-1.1,1.5-1.6,2.5c-1,1.8-1,1.9-0.2,3.1c1.1,1.6,1.1,7.2,0.1,9.1c-1.7,3.2-6.9,9.8-8.1,10.3c-0.7,0.3-1.8,1.1-2.4,1.7
		c-1.4,1.5-1.4,4.6,0.1,7c1.5,2.4,4.3,4.5,5.6,4.2c1.5-0.4,3.3,1,3.8,3.1l0.5,1.8l3.4,0.4l3.4,0.4l0.1,6.2c0.1,6.2,0.1,6.2-1.3,8.5
		c-0.8,1.2-1.4,2.5-1.4,2.8c0,0.3,1,1,2.2,1.4c1.2,0.5,3.7,1.9,5.5,3.1c2.8,1.9,3.7,2.3,5.6,2.3c1.6,0,3.1,0.4,5,1.5
		c1.5,0.8,3.7,1.6,4.8,1.7c1.6,0.2,2.3,0.6,3.5,2.1c1.7,2.1,2.8,2.3,6.1,1.1c4.5-1.6,8.8,0.4,10.6,4.8c0.9,2.3,1.4,2.5,2.8,1.4
		c1.6-1.2,3.6-0.9,5.2,0.8c1.3,1.4,4,5.3,5.2,7.5c0.2,0.4,1.6,1.8,3,3l2.5,2.3l1.4-1.6c3.2-3.9,7.3-7.5,8.4-7.5c0.8,0,2.3,1.2,5,4
		c2.8,2.9,4.1,3.9,4.7,3.7c1.1-0.4,2.9,0.9,3.6,2.6l0.6,1.5l1.3-1.3c0.7-0.7,1.4-1.7,1.4-2.3c0-0.5,0.4-1.7,0.9-2.5
		c0.8-1.3,1.2-1.5,2.5-1.5l1.5,0.1l-1.7,0.5c-1.5,0.4-1.8,0.7-2.3,2.7c-0.5,2.2-2.5,4.8-3.6,4.8c-0.3,0-0.7-0.4-0.9-0.9
		c-0.2-0.5-0.9-1.5-1.7-2.2c-1.1-1-1.5-1.2-2-0.8c-0.4,0.4-0.4,0.6,0.2,0.6c0.4,0,1.6,1.2,2.5,2.6c1.6,2.4,3,3.4,3,2
		c0-0.3,0.6-1.2,1.4-2c0.9-1,1.6-2.2,1.8-3.6l0.4-2.1l2.2-0.1l2.2-0.1l0.7-2.5c0.6-2.2,1-2.7,2.7-3.6c5-2.6,7.1-5.3,7.7-9.7
		c0.2-1.6,0.6-3.3,1-3.9c0.6-0.9,0.6-1.5,0.1-3.9c-0.5-2.5-0.5-3,0.2-4.5c0.4-0.9,1.1-1.8,1.5-1.9c1.1-0.4,0.9-1.1-0.9-3.1
		c-1.9-2.1-2.1-3.4-0.7-5.1c1.1-1.4,1.2-3.4,0.2-4.3c-0.5-0.4-0.7-1.2-0.6-2.5c0.2-2.6-2-7-4.1-8.3c-2.1-1.3-4.4-4-4.4-5.2
		c0-0.5-0.2-0.9-0.5-0.9c-0.7,0-0.6,1.4,0.2,2.8c0.4,0.6,1.8,2,3.1,3.1c3,2.3,4.7,5.3,4.7,8.3c0,1.2,0.3,2.6,0.7,3.1
		c0.9,1.3,0.9,2.6-0.2,4c-0.5,0.6-0.9,1.6-0.9,2.1c0,1,1.2,3.1,2.2,3.7c0.7,0.4,0.8,2,0.1,2.5c-0.3,0.2-0.9,1.1-1.4,2.1
		c-0.9,1.7-0.9,1.9-0.2,4.1c0.7,2.2,0.7,2.4-0.2,4.2c-0.5,1-1,1.5-1,1.1c0-0.4,0.3-1.2,0.7-1.8c0.7-0.9,0.6-1.3-0.1-3.4
		c-0.9-2.6-0.5-4.4,1.3-6.4c0.9-1,0.9-1-0.5-2.5c-1.8-1.9-2-4.5-0.4-6.6c1-1.3,1-1.4,0.2-2.3c-0.5-0.6-0.9-1.9-1-3.8
		c-0.2-3.4-1.4-5.4-4.6-7.8c-2.5-1.9-3.4-3.2-3.9-5.4c-0.2-0.8-0.5-1.6-0.7-1.7c-0.2-0.1-3-0.7-6.2-1.2c-4.5-0.8-6-0.9-6.9-0.5
		c-1.8,0.8-3.3,0.6-6.2-0.9l-2.7-1.4l-2.1,1c-1.2,0.5-2.9,1-3.9,1c-1.4,0-1.9-0.2-2.4-1.2c-0.6-1.1-1-1.3-3.9-1.4
		c-1.8-0.1-4.7-0.2-6.5-0.1c-4.7,0.1-7.7-0.8-8.5-2.3c-0.6-1.1-3.8-3.1-6.5-4c-0.4-0.1-2-1.8-3.4-3.7c-1.4-1.9-3.4-4.1-4.5-4.8
		l-1.9-1.4v-3.7c0-3-0.2-3.9-1-4.9c-0.5-0.7-1.3-1.2-1.7-1.2c-0.4,0-1.9-0.5-3.3-1.2c-2.5-1.2-2.6-1.3-3.5-4.2
		c-1.4-4.6-2.8-7-3.7-6.6c-1.3,0.6-3.8,0.8-5,0.5c-0.6-0.2-2.2-1.1-3.5-2.2C740.2,148.4,739,147.7,738.6,147.7z"/>
</g>
<g id="Mongolia">
	<path id="path13231" fill="#B3B3B3" d="M816,121.3c-0.1,0-0.2,0.1-0.3,0.1c-0.3,0.3-1.6,0.7-2.9,1c-1.3,0.3-2.8,0.6-3.3,0.7
		c-0.9,0.2-1,0.7-1.3,4.1c-0.3,4.8-1.8,9.7-3.5,11.7c-1.2,1.5-1.3,1.5-4.2,1.2c-3-0.3-3.5-0.2-8,2.3c-2,1.1-11.3,0.6-14.8-0.8
		c-2.4-0.9-2.6-1-3.9-0.2c-1.9,1.1-5.3,1-6.8-0.1c-0.6-0.5-1.8-1-2.6-1.2c-3.5-0.7-3.5-0.7-3.2,0c0.2,0.4-1.8,1.2-2.4,2.5
		c-1.1,2.7-1.7,3.8,0.4,8.5l1.9,3.6l-1.3,2.4c-1,3.7-0.8,4.9,2.1,6.2c0.8,1.1,1.5,2.8,1.6,5.6c0.2,3.5,0.2,3.7,1.7,4.7
		c0.8,0.6,2.7,2.6,4.1,4.4c2.2,2.8,3,3.5,5,4.3c2.4,0.9,4.5,2.5,5.4,4.1c0.4,0.7,1.3,0.9,5.1,1c12.5,0.4,12,0.3,13.1,1.7
		c0.9,1.1,1.2,1.3,2.8,1c1-0.2,1.9-0.5,2-0.7c0.6-0.9,4.1-0.4,6.4,0.9c2.1,1.2,2.4,1.2,4.2,0.6c2-0.7,4-0.4,11.6,1.2l3.2,0.7
		l1.7-1.3c2.4-1.9,2.2-3.5-0.3-2.2c-2.3,1.2-4.3,0.7-5.2-1.2c-0.4-0.9-1.2-1.8-1.7-2.1c-2.7-1.5-2.7-3.8,0.2-8.1c2-3,5-5.5,5.6-4.8
		c0.1,0.1-0.4,0.6-1.1,1c-1.8,0.9-5.9,7-5.9,8.7c0,1.1,1.1,2.5,2.4,3.1c0.2,0.1,0.7,0.8,1.1,1.6c0.8,1.6,2.5,2,4.7,1.3
		c2.8-1,3.7,1.3,1.3,3.3c-0.8,0.7-1.3,1.3-1,1.3c0.9,0,3.5-2.7,3.5-3.7c0-0.5-0.6-1.3-1.3-1.7c-1.2-0.8-1.4-0.8-2.9-0.1
		c-2.3,1.1-3,1-3.7-0.9c-0.4-0.9-1.3-2-2.1-2.4c-1.7-0.9-1.8-1.8-0.3-4c0.6-0.9,1.6-2.5,2.2-3.4c2.7-4.2,6.2-3.4,5,1.2
		c-0.7,2.7,0.2,3.3,2,1.4c2.6-2.8,5.8-1.5,5.8,2.4c0,2.2,0.3,2.4,2.5,1.7c1.5-0.5,1.9-0.4,2.7,0.3c0.5,0.5,1,1.5,1,2.3
		c0,0.8,0.2,2.8,0.6,4.4c0.5,2.8,0.6,3,1.8,3c1.1,0,1.4-0.3,2.1-2.4c0.5-1.3,1.1-2.5,1.3-2.7c0.3-0.2,0.8-1,1.1-1.9
		c0.6-1.4,0.6-1.8,0-3.2c-0.4-0.9-1-1.7-1.4-1.7c-0.4,0-2.4-1.8-4.5-4c-2.4-2.6-3.8-3.7-3.8-3.2c0,0.8,4.2,5.1,8,8.3
		c1.8,1.5,1.7,2.7-0.2,5.5c-0.6,0.9-1.3,2.2-1.6,3c-0.3,0.7-0.7,1.3-0.9,1.3c-0.6,0-1.6-4.8-1.4-6.5c0.1-0.8,0.4,0,0.8,2.4l0.6,3.7
		l0.6-1.6c0.3-0.9,1-2.3,1.6-3.1c1.4-1.9,1.3-3.7,0-4.4c-1.8-1-6.5-5.7-8.3-8.4c-1.9-2.8-2.7-6.4-2-8.5c0.3-0.7,1.1-1.9,1.8-2.7
		c0.7-0.8,1.5-2.4,1.8-3.5c0.3-1.2,0.7-2.5,0.9-3c0.2-0.6,0.1-0.8-0.6-0.8c-1.3,0-3.9-2.7-3.9-4c0-1.9-0.5-2.5-3.3-3.5
		c-4.1-1.5-4.7-3.5-2.1-7c1.5-2,1.2-2.7-1.4-3.1c-1.5-0.2-2.4-0.7-3.2-1.6c-0.6-0.7-1.8-2.1-2.6-3c-0.8-0.9-2.9-3.8-4.6-6.4
		C818.1,122.9,816.8,121.2,816,121.3L816,121.3z"/>
</g>
<g id="Irkutsk">
	<path id="path12951" fill="#B3B3B3" d="M793.6,141.2c3.1-1.6,3.6-1.7,6.3-1.4l2.9,0.3l1.8-1.7c2.2-2.1,2.3-5.9,3.1-9.4
		c0.8-3.3-1.3-5.6,3.4-6.5c1.7-0.4,3.6-0.9,4.2-1.2c0.8-0.4,1.4,0.1,2,0.5c1.2,0.6,3,3.8,5.3,7.5c3.7,5.9,9.2,10.9,9.9,9.4
		c0.5-1,1.2,0,1-4.6c-0.1-4,0-4.8,1-6.4c0.7-1.2,1.1-2.6,1.1-4.1c0-2.5-0.5-3.3-5-7.9c-2.8-2.9-3.6-3-7.4-1.3
		c-4.4,2-5.8,1.4-5.8-2.7c0-1.9-0.3-2.3-4.1-6.3c-2.3-2.3-4.7-5.1-5.4-6.1l-1.3-1.9l0.1-10.1l0.1-10.1h-5.6c-5.2,0-5.7,0.1-7.1,1.2
		c-1.9,1.4-2.6,1.5-3.9,0.2l-1-1l-0.3,2.9c-0.4,3.6-2.2,6.3-4,6c-0.7-0.1-1.4,0.1-1.9,0.7c-0.5,0.5-2.7-3.2-3.7-3.2
		c-1.5,0-2.7,3.8-3.5,5.6c-0.5,1.1-1.3,2.9-1.3,3.7c0,0.8,0,1.2-0.4,1.7c-0.8,0.9,0,1.3,1.3,3.7c1.1,2,0.9,1.8,0.6,3.3
		c-0.2,1-0.6,0.1-0.6,1.7c-0.8,1.9,0.9,4.2-0.5,5.7c-1,1-0.6,1.2-1.3,1.2c-1.4,0-2.1-1.9-3.1-3.3c-1.2-4.2-6.2-5.4-9-0.3
		c-2.1,1.8-3.4,3.8-3.4,4.4c0,1.5-0.1,2.9-1,3.2c-0.4,0.1-1.1,0-2-0.1c-3.8-0.3-3.6,3.1-2.1,4.8c0.2,0.8,0.7,2.6,1.2,3.8
		c1,2.2-0.1,4.1-0.8,4.5c-0.4,0.2-2.7,6-2.7,6.5c0,0.1,2.8,1.9,4.5,3c2.6,1.7,3.6,2,5.8,2.2c1.8,0.1,3.8,0.5,5.8,1.6l1.9,1.1
		c0.9-0.3,2.6-0.1,4-0.5c2.3-0.7,1.8-1,4.2-0.2c2.2,0.7,6.9,1.3,11.5,1.5C789.6,142.9,791.2,142.4,793.6,141.2z"/>
</g>
<g id="Yakutsk">
	<path id="path12701" fill="#999999" d="M782.6,86.8c0.3,0.1,2.8-0.4,3.1-0.5c1.4-0.5,2.1-1.4,2.5-2.8c0.5-1.7,0.3-1.9,0.5-2.2
		l0.3-3.8c0.9,0.6,1.3,1.8,2.8,1.8c0.6,0,1.1,0,2.2-0.9c1.4-1.1,0.6-1.1,5.6-1.2l7,0.1l0-6.5c0-3.6,3.5-4.3,3.5-7.1
		c0-1.9,1.2-3.9,2.7-4.5c0.8-0.3,2.2-1.4,3.1-2.4c1.8-1.9,4.5-2.9,5.9-2c0.6,0.4,2.4,3.3,3,4.9c0.1,0.2,1,0.1,2.1-0.2
		c1.7-0.5,2.1-0.4,2.9,0.3c0.9,0.9,2.3,1.1,2.7,0.4c0.1-0.2,0.6-2.1,1-4.1l0.8-3.7l-3.4-3.2l-3.4-3.2l0.2-4.3
		c0.2-4.7,0.6-5.4,3.6-6.9c2.3-1.1,5-4.1,5.7-6.2c0.5-1.4,0.5-1.8-0.2-2.5c-1.1-1.2-0.9-1.7,0.4-0.8c1.4,0.9,1.5,0.5,0.4-0.7
		c-0.5-0.6-1.5-0.9-3-0.9c-2.5,0-2.9-0.3-3.7-3.1c-0.3-1.2-1-2.2-1.7-2.6c-1.1-0.6-1.3-0.5-2.7,0.9c-2,1.9-3.1,1.9-3.7,0.1
		c-0.7-2-1.6-2.4-6.6-2.4h-4.3l0.3,1.5c0.2,0.8,0.4,2,0.6,2.6c0.2,0.8,0,1.2-0.8,1.8c-0.9,0.6-1.7,0.7-4.6,0.3
		c-1.9-0.2-3.7-0.3-4-0.2c-0.3,0.1-1,1-1.5,2c-1.4,2.6-2.8,2.6-5.4-0.1c-1.2-1.2-2.5-2.1-2.9-2.1c-1.3,0-2.3-1.9-2.3-4.3
		c0-2.9-0.8-3.8-3.4-4.1c-2-0.2-2.3-0.1-4,1.7c-3.8,4-4.5,4.9-4.2,5.1c0.2,0.2,1.6-1.1,3.2-2.8c1.6-1.7,3.1-3,3.3-2.9
		c0.5,0.3-4.8,5.9-6,6.4c-1.7,0.6-2.1,2.3-0.7,3.8c1.2,1.2,3.2,2,4,3.8c0.6,1.3-0.7,1.8-1.7,2.9c-0.6,0.8-0.9,1.3-0.9,1.3
		s0.4,3.7,0.2,6.4c-0.1,2.7-0.5,5.3-0.7,6.2c0,0-0.6,1.1-4,0.9c-2.4-0.1-2.4-1.3-3.5-1.1c-1.3-0.7-2.8,1.8-3.6,2.7
		c-0.5,0.5-2.2,1.5-3.4,2.5c-2.1,1.7-1.7,3.2-0.8,3.6c0,0.5,1.6,1.6,2.5,1.5c1.6-0.1,3-0.1,4.6,2.6c1.3,2.1-0.5,1.4-0.8,3.1
		c-0.3,1.4,0.8,3.6,0.9,3.7c0.3,0.8,1.5,3.5,1.5,5.5c0,2.2,0.4,3.8,1.2,4c1.5,0.5,1.6,0.6,1,2.3c-0.4,1.3-0.1,2.7,0.8,4.2
		c0.6,1,0.8,2.4,1.3,2.2C779.6,83.1,781.9,86.7,782.6,86.8L782.6,86.8z"/>
</g>
<g id="Japan">
	<path id="path13309" fill="#CCCCCC" d="M900.6,77.9c-0.7,0-0.9,0.3-1.4,1.2c-0.8,1.5-0.6,2,0.9,2.8c2.1,1.1,3.4,6,1.9,7.3
		c-0.6,0.5-1.5,3.1-2.3,6.6c-0.2,0.9,0.1,1.6,1.6,3.3c2.7,3,2.8,3.9,0.8,5.9c-0.9,0.9-1.9,2.3-2.2,3c-0.5,1.3-0.5,1.5,0.9,2.8
		c1,1,1.5,1.8,1.5,2.9c0,1.9-0.8,3.3-1.7,3.3c-0.5,0-0.7,0.3-0.5,0.9c0.2,0.7,0,0.9-0.8,1c-0.8,0-0.9,0.1-0.4,0.4
		c0.4,0.2,1,0.3,1.5,0.2c0.8-0.2,0.9,0,0.6,2.1c-0.3,2.4-1.3,4-2.4,4c-0.3,0-0.6,0.2-0.6,0.5c0,0.3-0.2,0.4-0.4,0.3
		c-0.2-0.1-1.2,0.8-2.2,2.1c-1.4,1.9-1.9,2.9-2.1,5.2c-0.2,1.6-0.5,3-0.8,3.2c-0.2,0.2-1.5,0.8-2.9,1.2c-2.5,0.8-3,1.4-3,3.4
		c0,0.8-0.9,2.2-2.5,4.1c-2.3,2.7-2.5,3-2.3,4.9c0.2,1.8,0,2.2-1.5,3.9c-2.2,2.5-2.2,3.5,0.2,4.7c1,0.5,2.1,1.5,2.3,2.1
		c0.8,2,2.8,5,3.5,5c0.3,0,1.3-0.9,2.1-2c1.1-1.6,1.5-2.6,1.6-5c0.2-3.1,0.6-3.6,2.7-4.2c1.6-0.4,5.7-3.9,5.7-4.8
		c0-0.4,0.3-1.3,0.7-1.8c0.7-1,0.8-1,2.5-0.3c1.6,0.7,1.8,0.7,2.3,0c0.3-0.4,0.7-1.6,0.8-2.7c0.2-1.5,0.9-2.7,2.5-4.5
		c2.1-2.4,2.4-2.6,4.7-2.8c2.3-0.2,2.6-0.4,3.6-2c0.6-1,1.8-2.2,2.6-2.8c1-0.7,1.4-1.4,1.4-2.4c0-2.5-1.4-9.6-2.4-11.9
		c-0.8-1.9-0.9-2.6-0.5-4.1c0.7-2.8,0-7.9-1.3-9.4c-2.3-2.6-4.4-4.5-6.2-5.7c-3.4-2.1-2-4,3.7-5l3.3-0.6v-1.7c0-1.3,0.4-2.1,1.6-3.4
		c0.9-0.9,1.7-1.7,2-1.7c0.2,0,1-0.8,1.7-1.7l1.3-1.7l-1.1-0.7c-0.6-0.4-1.6-1.3-2.3-2.1c-1.2-1.3-1.2-1.3-2.4-0.6
		c-1.8,1.2-8.5,0.7-11.7-0.9c-1.3-0.7-3-1.3-3.9-1.5C901.1,78,900.8,77.9,900.6,77.9z"/>
</g>
<g id="Lamchatka">
	<g id="path6802">
		<path fill="#999999" d="M839.6,26.4l-1.5,2.4l-4.9,5.2l-3.6,2.3l-0.7,1.2l-0.7,2.9l-0.1,5.4l6.9,6.1l-1.8,8.4c0,0-0.6,1.4-1.4,1.5
			c-2.1-3.6-6.2-1.7-6.4-1.7l-1-0.3c-0.3-1.7-1.2-3.4-2-4c-1-0.8-1.4-0.9-2.1-0.7c-0.3-0.6-5.9,3.9-5.9,3.9s-2.2,1.2-2.6,1.9
			c-0.8,1.4-1,3.1-1,3.1l-1.7,2.9c-0.9,0.9-1.8,1.8-1.8,2.4c0,0-0.2,0.6-0.4,3.7c0,0.9,0.1,4.3,0.1,4.3L807,94.3l-0.1,3
			c0,0,0.7,1.3,1.7,2.3c0.9,1,8,8.8,8,8.8s1.4,1.9,1.5,3.8c0.1,1.9,1.1,2.5,1.1,2.5c0.3,1.4,5.5-1.2,6.5-2.1
			c0.9-0.8,1.4-1.1,2.3-0.1c0.9,1,4.9,3.9,4.9,3.9l3.4,5c1.6,0.2-1.3,3.9-1.8,13.5c-0.2,4.5-1,3.4-0.7,3.7c0,0,2.5,2.7,1.2,2.6
			c-1.6-0.1-2.3,3.3-2.2,3.4c0,0-0.3,2.8,1,3.2c0.9,0.2,4.8,2.4,4.8,2.4s0.7,3.2,2,4.2c2,1.5,3.6,1.9,3.6,1.9l1.6-1l1.8-3.1l0.1-0.3
			l2.4-14.5v-6l-1.1-2.9l-0.8-5.2l-2-5.7l-0.4-5.1l-0.4-3.2l-1.7-1.9l-1.7-2.6L839,104l-2.8,1.5l-2.5-0.1l-1.3-2.4l-1.8-1.5l-1.7-1
			l-1.2-1.3l0.7-2.8l0.6-3l0.8-1.1l1.2-0.9l1.6-2.5l0.7-2l1.5-3l3-0.7l1.4-1l2.5-1.1l3.3-0.4l2.2,0.5l0.9,0.9l1-0.4l1.2-1.4l0.6-1.4
			l3.7-0.3l1.3,2.4l1,2.5l2.8-0.6l0.7-2.1l-2.7-5l-0.5-3.2c0,0,1.8-3,4-3.2c2.2-0.3,3.9,2.5,3.9,2.5l1,2.9l1.5,0.2l0.9-2.2l0.6-5.8
			l2.5-0.6l3.3,1.6l-2.8,7.4l-2.3,7.4l-2.7,6.5l-1.1,11.1l3.5,8.6l3.7,6.6l5,3.7l3.9-5.2l0.5-8.3l-1.5-3.9l0.1-9.2l-2.2-5.6
			l-1.9-4.1l1.1-3.1l2.7-1.1l0.9-2.6h3.2l1.8,2.7l1.7-0.5c0,0,1.6-3.6,2.1-3.7c0.5-0.1,3.3-4.3,3.3-4.3l4-5.1l3.4-4.2l-2.4-4
			l-2.8-3.2l-0.9-3.5l3.1,0.9l3.8,2.5l2.8,1.5l0.7,3.5l4.8-0.7l3.3-2.2l2.1-3.1l-0.5-1.5l2.7-0.7l-1-2.4l-2.5-2.7
			c0,0-6.7-3.6-7.4-3.6c-0.8,0-5.6-1.8-5.6-1.8s-20.3-13-19.3-13.6c1-0.7-9.9-0.4-9.9-0.4l-3.9,4.3l-8.1-1.2l-8.2-0.7l-7.3-3.9
			L839.6,26.4z"/>
		<path fill-opacity="0" stroke="#000000" stroke-width="2.000000e-03" d="M839.6,26.4l-1.5,2.4l-4.9,5.2l-3.6,2.3l-0.7,1.2
			l-0.7,2.9l-0.1,5.4l6.9,6.1l-1.8,8.4c0,0-0.6,1.4-1.4,1.5c-2.1-3.6-6.2-1.7-6.4-1.7l-1-0.3c-0.3-1.7-1.2-3.4-2-4
			c-1-0.8-1.4-0.9-2.1-0.7c-0.3-0.6-5.9,3.9-5.9,3.9s-2.2,1.2-2.6,1.9c-0.8,1.4-1,3.1-1,3.1l-1.7,2.9c-0.9,0.9-1.8,1.8-1.8,2.4
			c0,0-0.2,0.6-0.4,3.7c0,0.9,0.1,4.3,0.1,4.3L807,94.3l-0.1,3c0,0,0.7,1.3,1.7,2.3c0.9,1,8,8.8,8,8.8s1.4,1.9,1.5,3.8
			c0.1,1.9,1.1,2.5,1.1,2.5c0.3,1.4,5.5-1.2,6.5-2.1c0.9-0.8,1.4-1.1,2.3-0.1c0.9,1,4.9,3.9,4.9,3.9l3.4,5c1.6,0.2-1.3,3.9-1.8,13.5
			c-0.2,4.5-1,3.4-0.7,3.7c0,0,2.5,2.7,1.2,2.6c-1.6-0.1-2.3,3.3-2.2,3.4c0,0-0.3,2.8,1,3.2c0.9,0.2,4.8,2.4,4.8,2.4s0.7,3.2,2,4.2
			c2,1.5,3.6,1.9,3.6,1.9l1.6-1l1.8-3.1l0.1-0.3l2.4-14.5v-6l-1.1-2.9l-0.8-5.2l-2-5.7l-0.4-5.1l-0.4-3.2l-1.7-1.9l-1.7-2.6L839,104
			l-2.8,1.5l-2.5-0.1l-1.3-2.4l-1.8-1.5l-1.7-1l-1.2-1.3l0.7-2.8l0.6-3l0.8-1.1l1.2-0.9l1.6-2.5l0.7-2l1.5-3l3-0.7l1.4-1l2.5-1.1
			l3.3-0.4l2.2,0.5l0.9,0.9l1-0.4l1.2-1.4l0.6-1.4l3.7-0.3l1.3,2.4l1,2.5l2.8-0.6l0.7-2.1l-2.7-5l-0.5-3.2c0,0,1.8-3,4-3.2
			c2.2-0.3,3.9,2.5,3.9,2.5l1,2.9l1.5,0.2l0.9-2.2l0.6-5.8l2.5-0.6l3.3,1.6l-2.8,7.4l-2.3,7.4l-2.7,6.5l-1.1,11.1l3.5,8.6l3.7,6.6
			l5,3.7l3.9-5.2l0.5-8.3l-1.5-3.9l0.1-9.2l-2.2-5.6l-1.9-4.1l1.1-3.1l2.7-1.1l0.9-2.6h3.2l1.8,2.7l1.7-0.5c0,0,1.6-3.6,2.1-3.7
			c0.5-0.1,3.3-4.3,3.3-4.3l4-5.1l3.4-4.2l-2.4-4l-2.8-3.2l-0.9-3.5l3.1,0.9l3.8,2.5l2.8,1.5l0.7,3.5l4.8-0.7l3.3-2.2l2.1-3.1
			l-0.5-1.5l2.7-0.7l-1-2.4l-2.5-2.7c0,0-6.7-3.6-7.4-3.6c-0.8,0-5.6-1.8-5.6-1.8s-20.3-13-19.3-13.6c1-0.7-9.9-0.4-9.9-0.4
			l-3.9,4.3l-8.1-1.2l-8.2-0.7l-7.3-3.9L839.6,26.4z"/>
	</g>
</g>
<g id="WesternAustralia">
	<g id="path8926">
		<path fill="#CCCCCC" d="M756.9,399.7l-2.3,10.3l-8.6-4.8l-7.8,8.8l-0.4,1.3l-0.1,2.2l-1.2,3.4l-2.7-1c0,0-1.5-2.5-2.1-1.5
			c-0.7,1-0.5,3.7-0.5,3.7s-0.1,4.4-0.3,4.5c-0.2,0.1-1.5,2.2-1.5,2.2l-5.3,3.9l-6.6,3.8l-3.5,2.1l-2.2,1.4l-3.9,2.4l-1.4,0.6
			l-1.5,0.9l-0.8,0.9l-0.2,0.6l-0.1,1l0.3,0.7l0.7,0.2l0.6,0.1l0.4,0.7l0.3,1.4l0.3,2.2l0.3,1.7l0.8,2.9l0.5,0.9l0.8,1.7l0.2,1.2
			l0.1,1.5l0.1,2.9l0,2.8l0,1.5l1.5,1.5l1.8,2.1l1,1.5l0.4,0.9l0.8,2.6l2.1,3.8l0.6,0.5l0.4,0.1l1,0.7l1.2,1.4l0.7,1.5l-0.5,1.7
			l-0.4,1.4l-1.7,2.1l-0.4,2.2l1,2.1l2.6,0.4h5.4l3.3-1.5l2.4-3.7l4-0.9l5-0.9l2.4-1.1l10.5-9c0,0,9.6-2.9,10.6-2.2
			c0.9,0.7,5.2,0.6,5.2,0.6l1.9,0.2l1,0.4l1.9,1.9l1.2,1.7l0.5,1.1l0.3,1.9l0.7,2.5l0.6,0.1l1.8-1.3l0.4-0.8l0.5-0.3l2.3,0.7
			l0.1,1.9h2.4l1.1,2l2.2,1.6l2.3-3.4l0.7-7.3l-0.9-6.6l1.5-24.7l-31.4-1.3l-0.7-4.9l-0.7-25.8l-1.6-1.6L756.9,399.7z"/>
		<path fill-opacity="0" stroke="#000000" stroke-width="3.000000e-03" d="M756.9,399.7l-2.3,10.3l-8.6-4.8l-7.8,8.8l-0.4,1.3
			l-0.1,2.2l-1.2,3.4l-2.7-1c0,0-1.5-2.5-2.1-1.5c-0.7,1-0.5,3.7-0.5,3.7s-0.1,4.4-0.3,4.5c-0.2,0.1-1.5,2.2-1.5,2.2l-5.3,3.9
			l-6.6,3.8l-3.5,2.1l-2.2,1.4l-3.9,2.4l-1.4,0.6l-1.5,0.9l-0.8,0.9l-0.2,0.6l-0.1,1l0.3,0.7l0.7,0.2l0.6,0.1l0.4,0.7l0.3,1.4
			l0.3,2.2l0.3,1.7l0.8,2.9l0.5,0.9l0.8,1.7l0.2,1.2l0.1,1.5l0.1,2.9l0,2.8l0,1.5l1.5,1.5l1.8,2.1l1,1.5l0.4,0.9l0.8,2.6l2.1,3.8
			l0.6,0.5l0.4,0.1l1,0.7l1.2,1.4l0.7,1.5l-0.5,1.7l-0.4,1.4l-1.7,2.1l-0.4,2.2l1,2.1l2.6,0.4h5.4l3.3-1.5l2.4-3.7l4-0.9l5-0.9
			l2.4-1.1l10.5-9c0,0,9.6-2.9,10.6-2.2c0.9,0.7,5.2,0.6,5.2,0.6l1.9,0.2l1,0.4l1.9,1.9l1.2,1.7l0.5,1.1l0.3,1.9l0.7,2.5l0.6,0.1
			l1.8-1.3l0.4-0.8l0.5-0.3l2.3,0.7l0.1,1.9h2.4l1.1,2l2.2,1.6l2.3-3.4l0.7-7.3l-0.9-6.6l1.5-24.7l-31.4-1.3l-0.7-4.9l-0.7-25.8
			l-1.6-1.6L756.9,399.7z"/>
	</g>
</g>
<g id="MiddleEast">
	<path id="path13859" fill="#B3B3B3" d="M615.8,210.3c-0.1,0-0.3,0-0.4,0c-1.9,0-4.2,0.6-6.6,1.6c-5.5,2.3-10.4,3.9-11.9,3.9
		c-1.6,0-2.3-0.5-4.8-3.7l-1.2-1.5l-1.1,1c-2.4,2.2-3.4,4.4-4.4,9.7l-1.1,5.3l1.1,1.5c0.8,1.1,1.1,2.4,1.3,5.2c0.2,2.8,0.4,3.8,1,4
		c5,2.1,7.5,2.6,12.4,2.6c4.9,0,5.1,0,6.1,1.2c0.8,1,1.4,1.2,3.2,1.2c2,0,2.3-0.2,3.8-2c1.8-2.1,3-2.4,4.7-1.1
		c1.7,1.4,1.9,2.4,1.4,6.9c-0.3,3-0.3,4.7,0.1,6.2c0.6,2.2,0.2,6-1,8.8c-0.4,0.9-1.8,2.7-3.1,4.1l-2.5,2.5l1.8,2.5
		c3.3,4.6,4,5.7,4.5,7.5c0.5,1.5,0.9,1.9,3.1,2.9c1.8,0.8,2.8,1.5,3.3,2.5c0.4,0.8,1.5,2.2,2.4,3c1.1,1,2.3,3.1,3.5,5.8
		c2,4.7,3.8,7.3,7.1,10.3c2,1.8,2.9,3.8,1.8,3.8c-0.2,0-0.5,0.4-0.7,0.9c-0.1,0.5-0.1,0.8,0.1,0.7c0.2-0.1,0.6,0.1,1,0.5
		c0.5,0.6,0.7,0.6,1,0.1c0.8-1.3,2.6,1.8,4.5,7.8c0.5,1.5,1.5,3.5,2.4,4.5c1.3,1.5,1.8,1.7,4.5,2c4.7,0.5,9.5,0,10.3-1
		c0.4-0.5,1.7-1.3,2.8-1.9c1.2-0.6,3.4-2,5.1-3.1c1.6-1.1,4.3-2.7,6-3.4c2.5-1.1,3.3-1.8,4.4-3.6c0.8-1.2,2.5-3.5,3.9-5.1
		c2.7-3.1,6.3-9.7,7.2-13.2c0.7-2.8-0.1-7.9-1.5-10c-0.6-0.8-1.8-1.9-2.7-2.4c-1-0.5-2.1-1.7-2.7-2.8c-0.7-1.4-1.4-2-2.6-2.3
		c-1.4-0.4-1.9-0.2-3.5,0.8c-3.4,2.3-8.2,1.4-8.2-1.4c0-0.8-0.4-1.3-1.4-1.6c-0.7-0.3-2.3-1.6-3.4-2.9c-1.1-1.3-2.6-2.9-3.3-3.5
		c-1-0.9-1.3-1.8-1.8-5.4c-0.6-4.2-0.6-4.3,0.5-5.4c0.6-0.6,1.5-1.1,2-1.1s1.5-0.6,2.3-1.4c0.8-0.8,1.7-1.4,2-1.4
		c1.3,0,3,5.4,3.1,9.7c0,2.6,0.3,3,3,5.3c2,1.7,3.3,1.9,6.7,1c2.3-0.6,3.3-0.2,4.1,1.8c0.3,0.9,0.8,1.1,2.6,1.1
		c2.1,0,2.3-0.1,5.7-3.6c1.9-2,3.8-4.2,4.2-5c0.4-0.7,0.9-1.3,1.1-1.3c0.3,0,0.5-0.2,0.5-0.5c0-1.2-1.2-0.2-4,3.5
		c-3,3.9-5.7,6.3-6.3,5.8c-0.2-0.2-0.2-0.3-0.1-0.4c1.9-1.4,3.7-3.3,6.4-6.5l3.2-3.9l-1.3-2.3c-1.2-2.1-1.3-2.7-1.1-5.8
		c0.2-2.4,0-3.8-0.4-4.3c-0.3-0.5-1.6-2.9-2.8-5.3l-2.2-4.5l-0.4-7.3c-0.4-6.9-0.5-7.4-1.5-8c-0.9-0.6-2.3-1.9-5.6-5.5
		c-1.3-1.4-6.1-2.8-8.1-2.4c-1.6,0.3-1.6,0.4-1.9,2.9c-0.4,4.7-2.5,5.6-9.4,4.1c-5.4-1.2-7.2-2.1-8.7-4.1l-1.2-1.6l-2,1.1
		c-1.1,0.6-3.4,1.6-5.2,2.2c-2.7,0.9-3.8,1.1-6.5,0.8c-1.8-0.2-3.6-0.5-3.9-0.7c-0.4-0.3-1.2-0.3-2.4,0c-2.1,0.5-3.8,0.6-3.4,0.2
		c0.1-0.1,1.4-0.5,2.8-0.7c1.9-0.4,3.4-0.3,6.1,0.2c3.3,0.6,3.7,0.6,6.4-0.3c1.6-0.5,4-1.6,5.3-2.3c2.3-1.2,3.9-1.4,3.9-0.4
		c0,0.2,0.8,1.1,1.7,2c1.4,1.4,2.4,1.8,6.3,2.7c5.4,1.3,6.9,1.2,8.4-0.1c1.2-1.1,1.9-4.1,1.2-4.8c-0.3-0.3-0.6,0.3-0.8,1.7
		c-0.2,1.2-0.6,2.4-1,2.7c-0.9,0.7-3.7,0.7-5.9,0.1c-0.9-0.3-2.4-0.6-3.3-0.8c-2.3-0.4-4.7-2-5.8-4.1l-0.9-1.7l-3.5,1.7
		c-5.3,2.7-7.8,3.4-10.7,3c-1.4-0.2-3.1-0.6-3.7-0.9c-0.9-0.4-1.6-0.4-3.5,0.1c-1.3,0.3-4,0.7-5.9,0.9c-3.1,0.2-3.8,0.1-5.1-0.7
		c-0.9-0.6-1.8-1.6-2.1-2.4C619.6,211.1,618,210.4,615.8,210.3z"/>
</g>
<g id="SouthernEurope">
	<path id="path13549" fill="#CCCCCC" d="M580.2,247.6c-0.1-0.2,0.1-0.5,0.5-0.7c0.4-0.2,0.6-0.5,0.5-0.7c-0.1-0.2,0.3-0.9,0.9-1.4
		c1.5-1.3,1.5-1.7,0-3c-1.5-1.3-1.5-2.1,0.1-3.8l1.3-1.3l-1.1-0.8c-2.3-1.7-3.8-3.5-4.1-4.7c-0.2-0.7-0.3-1.5-0.4-1.8
		c-0.1-0.3,0.1-0.9,0.3-1.3c0.4-0.7,0.8-0.8,2.5-0.6c1.4,0.2-2.2-0.2-1.8-0.7c0.3-0.4,1.4-2.7,2.2-6.2c0.8-3.5,0.9-3.9,1.3-4.4
		c1.4-1.7,2.4-3.3,4.2-5.3c1.8-1.9-3.7-4.8-3.1-7.2c0.3-1,9.3-7.7,9.1-8.6c-0.4-2.3-1.5-7.5-1.5-13.3c0-2.8-0.5-3.8-6.2-10.6
		c-0.3-0.3-0.9-0.5-1.2-0.5c-1,0-5.3,4.9-6.8,7.8c-1.3,2.5-1.4,3.1-1.1,5c0.2,1.2,0.4,3,0.4,4.1l0,2h-5.7c-5.4,0-5.7-0.1-6.3-1.1
		c-1.2-1.9-1.4-5.3-0.5-7.7c1-2.7,0.7-3-4.2-3c-5.4,0-7.4,1.4-7.4,5c0,1.8-2.7,3.5-5.4,3.5c-1.2,0-2.7,0.3-3.4,0.8
		c-0.8,0.5-1.7,0.7-3.3,0.5c-1.2-0.2-3-0.4-4.1-0.6c-1.6-0.2-2.3-0.1-3.3,0.7c-1.2,1-1.3,1.2-1.3,4.7c0,3.3-0.1,3.9-1.2,5.1
		l-1.2,1.4l1.2,1.8c1.1,1.6,1.2,2.1,1,4.7c-0.2,2.6-0.2,3,0.9,3.9c0.6,0.6,1.4,0.9,1.6,0.7c0.8-0.5,3.8,0.7,4.3,1.7
		c0.3,0.5,0.4,2,0.4,3.3c-0.1,1.3,0,2.4,0.1,2.5c0.1,0.1,0.7,0.3,1.2,0.6c1.9,0.8,8.7,10.2,8.7,12c0,0.9-0.7,0.4-0.8-0.5
		c0-0.5-1.4-2.7-3-4.8c-4-5.2-4.7-6-6-6.5c-1-0.4-1.1-0.6-0.8-2.8c0.3-2.2,0.2-2.5-0.9-3.5c-1.2-1.1-3.3-1.6-2.7-0.7
		c0.2,0.3,0.6,0.5,0.9,0.5c1.3,0,1.8,1.4,1.7,4.3c-0.1,2.8-0.1,2.8,1.3,3.1c0.9,0.2,2,1.1,3.2,2.7c1,1.3,2.1,2.7,2.4,3.1
		c2.2,2.3,2.9,3.8,2.9,5.8c0,1.1-0.3,2.9-0.6,4l-0.6,1.9l-4.6,0.3c-2.6,0.2-4.9,0.5-5.3,0.9c-0.6,0.5-0.5,0.8,1,2.2
		c1.7,1.5,1.9,1.6,4.4,1.3c3-0.3,4.3,0,3.9,0.9c-0.1,0.3,0,0.8,0.3,0.9c0.3,0.2,0.5,0.1,0.5-0.1c0-0.2,0.4-0.6,1-0.7
		c0.5-0.1,0.9-0.4,0.9-0.6c-0.2-1.1,0.2-1.5,1.4-1.8c0.9-0.2,2.4-1.4,4.2-3.4l2.8-3.1l-0.7-1.7c-0.4-0.9-0.6-2.4-0.5-3.4
		c0.1-1.5,0.3-1.7,1.4-1.9c0.8-0.1,1.7,0.3,2.7,1.1c1.8,1.5,2.5,1.5,2.5,0.1c0-2-2.9-6.9-5.7-9.7c-2.9-2.9-3.4-4.2-2-5.8
		c1.3-1.4,3.7-1.1,6.7,1c3.6,2.4,4.2,3.2,4.5,5.7c0.6,4.4,1.4,6.9,2.6,8.7c3.4,5.1,3.8,6.1,3.8,9.8c0,3.1,0.1,3.6,1.2,4.6
		c0.6,0.6,1.2,1.5,1.2,2c0,0.7,0.5,0.9,2.4,1.2c2.9,0.4,3.5,1.1,1.1,1.2l-1.8,0.1l2,0.3c1.1,0.2,2.3,0.6,2.6,0.9
		C580.3,248.1,580.6,248.2,580.2,247.6z"/>
</g>
<g id="Ukraine">
	<path id="path13349" fill="#CCCCCC" d="M648.8,212.3c5-2.4,5.4-2.9,5.4-7.3c0.1-4.8,0-4.7,1.4-5.3c1.6-0.7,1.5-1.4-0.7-3.5
		c-2.1-2-7.9-11.8-8.3-14.1c-0.4-2.2,0-3.2,3-6l2.6-2.6l-1.7-2.5c-4.4-6.6-6.1-10.2-6.4-13.3c-0.4-4.4,0.2-6.9,1.8-8.7
		c0.8-0.9,1.4-2.1,1.4-2.8c0-2.2,1-4.8,2-5.3c0.5-0.3,1.7-0.4,2.5-0.3c1.1,0.2,1.7,0,2.1-0.5c1.3-1.6,4.3-2.6,6.9-2.4
		c2.2,0.2,2.5,0.1,2.5-0.6c0-2.2,6.8-3.7,9.8-2.1c1.7,0.9,1.7,0.9,4.9-1.6c1.2-0.9,3.1-2,4.3-2.4l2-0.7l0-2.7c0-2-0.2-2.9-1-3.8
		c-1.2-1.3-1.8-4.3-1.1-5.5c0.3-0.5,1.1-1.1,1.9-1.2c0.9-0.2,1.4-0.6,1.4-1.1c0-1.3-0.6-1.9-2.8-2.7c-2.8-1-4.3-2.6-4.6-4.9
		c-0.2-1.5,0-2.1,0.8-2.9c0.6-0.6,1.4-1.8,1.7-2.7c0.6-1.5,0.6-1.8-0.1-2.5c-1.1-1.3-1.9-6.4-1.2-8c1.1-2.4,1.1-7.1,0.1-11.8
		c-0.5-2.4-1-6-1-7.9c0-3.3,0.1-3.6,1.5-5.1c3.3-3.4,3.9-4.8,4.1-9.5c0.2-3.5,0-4.5-0.6-5.1c-0.4-0.4-0.8-1-0.8-1.2
		c0-0.6-5.1-4.4-6.9-5.1c-2.8-1.2-5.5-0.8-8.4,1.1c-3.1,2.1-5.6,2.4-9.6,1.4l-3-0.8l-1.4,1.2c-0.8,0.7-1.6,1.2-1.7,1.2
		c-0.2,0-1.3,1-2.6,2.1c-2.6,2.4-7.5,5.7-9.4,6.1c-2,0.5-3.2-0.4-3.3-2.7c-0.1-1.7-0.4-2.1-1.9-2.9c-1-0.5-2.5-0.9-3.3-1l-1.5-0.1
		l0.2,3.3c0.1,2.5,0.5,3.8,1.3,5.3c1.4,2.5,1.3,3.9-0.4,4.7c-0.7,0.3-1.9,0.9-2.6,1.2c-0.7,0.3-1.8,1.5-2.4,2.8
		c-0.6,1.2-1.6,2.5-2.3,2.8c-1,0.5-1.4,0.5-3.6-0.6c-3.1-1.6-4.5-1.7-4-0.2c0.2,0.6,0.4,1.7,0.4,2.5c0.1,1.3,0,1.4-1.9,1.6
		c-2.6,0.2-3.8-0.5-4.2-2.4c-0.2-1-1.6-2.8-3.8-5.1c-1.9-2-3.4-3.9-3.4-4.3c0.1-0.6,1.1-0.7,6.1-0.5c5.4,0.2,6.1,0.1,7.3-0.8
		c0.7-0.5,2.4-1,3.7-1.2c2.7-0.3,3.6-1.2,3.6-3.8c0-2.1-1.5-5.3-2.7-5.9c-1.7-0.9-9.7-2.1-16.6-2.7c-1.9-0.2-4.6-0.4-5.9-0.5
		c-1.7-0.2-2.2-0.1-1.9,0.2c0.3,0.3,3.7,0.8,7.6,1.2c3.9,0.4,8.4,0.9,9.9,1.2c1.6,0.3,3.6,0.6,4.6,0.8c2,0.3,2.9,1.1,3.9,3.6
		c1.1,2.5,0.2,2.2-0.9-0.4c-0.5-1.2-1.3-2.2-1.7-2.3c-1.5-0.5-13.2-2.1-16.8-2.4c-2.1-0.2-4.6-0.4-5.5-0.5c-1.7-0.3-1.7-0.3-2.7,2.4
		c-0.9,2.3-1,3.7-1,10.2c0,9.9,1.2,22.5,2.4,26.1c1.7,4.8,1.1,6.6-2.5,8.7c-0.8,0.5-1.3,1.2-1.3,1.9c0,1.7-1.2,4.2-2.5,5.1
		c-0.6,0.4-2.6,0.9-4.3,1c-1.7,0.2-3.1,0.5-3.1,0.7c0,0.7,2.1,2.6,3.2,3c2.1,0.6,2.5,5.5,0.8,8.2c-1,1.6-3.8,1.5-6-0.4
		c-1.2-1-1.8-1.3-1.9-0.8c-0.1,0.3-0.4,1.5-0.8,2.6c-0.6,2-0.3,5.5,0.5,6.5c0.2,0.3,0.5,1.2,0.6,2.1c0.1,1.4,0.5,1.9,3.2,3.7
		c4.6,3.1,4.6,3,4.9,7c0.4,4.5,1.7,8.2,3.6,10.3c1.7,2,1.8,2.7,0.4,5.7c-0.6,1.3-1.7,4.2-2.5,6.5c-1.7,4.8-2.7,5.9-6.1,6.3
		c-1.8,0.2-2.2,0.4-2.3,1.3c-0.2,0.9,0,1.1,1.7,1.3c2.2,0.3,3.5,1.6,7.2,7.1c2.2,3.2,2.2,3.3,2.3,7.3c0.1,6.5,1.5,12.4,2.9,12.4
		c0.3,0,1.2-1.4,2.1-3.1c1.7-3.5,3.4-4.7,5.3-4c0.6,0.2,2.8,2,4.8,4c2,2,3.9,3.6,4.2,3.6c0.3,0,1-0.4,1.5-1c0.9-1,0.9-1-0.2-1.8
		c-1.9-1.6-2.6-5-1.3-6.3c0.4-0.4,1.5-0.7,2.6-0.7c1,0,3.2-0.5,4.8-1.2c1.6-0.6,3.5-1.2,4.1-1.2c1.3,0,3.3,1.2,3.3,1.9
		c0,0.3-0.5,0.1-1-0.3c-1.4-1-3.8-0.9-6.2,0.2c-1.1,0.5-2.7,1.1-3.6,1.2c-3.1,0.4-3.7,0.7-4,1.5c-0.3,0.9,0.9,3.9,1.5,3.9
		c0.2,0,0.6,0.4,0.9,0.9c0.5,0.7,0.4,1.1-0.4,2.1c-1.5,1.9-3.2,1.6-5.7-1c-4.4-4.6-5.5-5.4-6.7-5.1c-0.6,0.2-1.7,1-2.3,1.8
		c-1.5,2.1-2.8,5.1-2.2,5.1c0.3,0,0.7-0.6,1-1.3c1.4-3.2,2.7-4.8,3.9-4.8c0.7,0,1.2,0.3,1.2,0.7c0,0.4,0.5,0.9,1.1,1.1
		c0.6,0.2,2.1,1.6,3.4,3.1c1.9,2.1,2.6,2.7,3.8,2.6c1.6,0,3.2-1.1,4-2.8c0.5-1,0.4-1.3-1.2-2.9c-2.4-2.5-2.1-3.3,1.6-4.1
		c1.7-0.3,3.5-1,4.2-1.4c1.2-0.8,4.4-1,5.3-0.4c0.8,0.5,0.5,1.9-0.5,3c-1.4,1.5-0.7,1.8,0.8,0.3c0.7-0.7,1.1-1.6,1-1.9
		c-0.1-0.4-0.1-0.7,0.2-0.7c1.1,0,0.2,2.7-1.6,4.6c-2.3,2.3-2.3,2.5-1,3.1c0.7,0.3,1.7,1.5,2.4,2.6c0.7,1.1,1.4,2,1.6,2
		c0.6,0,11.6,10.9,12.5,12.4c0.6,1,1.1,1.3,2.5,1.3c2.3,0,10-3.6,10.4-4.9c0.2-0.5,0.3-2.3,0.2-4c-0.1-2.4,0.1-3.3,0.9-4.4
		c0.5-0.8,1.2-1.4,1.5-1.4c0.3,0,0,0.6-0.6,1.2c-1,1.1-1.1,1.6-1,4.8c0.1,2-0.1,4-0.4,4.5c-0.6,1.2-7.9,4.8-9.6,4.8
		c-3.7,0-3.9-0.1-4.4-1.4c-0.5-1.3-6.2-7.1-10.8-11c-1.4-1.2-2.9-2.9-3.4-3.9c-0.6-1.1-1.4-1.9-2.1-2.1c-1.4-0.4-1.5-1.4-0.1-2.9
		c0.7-0.8,0.8-1.1,0.4-1.1c-0.4,0-1.3,0.8-2,1.8c-1.2,1.6-1.3,1.8-0.5,2.3c0.5,0.3,1.2,0.6,1.7,0.6c0.5,0,1.2,0.6,1.7,1.5
		c0.9,1.7,1.6,2.4,5.6,5.8c4.2,3.6,8.7,8.4,9,9.5c0.3,1.3,1.1,1.5,4.4,1.4C644.4,214.1,646.3,213.5,648.8,212.3z"/>
</g>
<g id="WesternEurope">
	<g id="path9072">
		<path fill="#999999" d="M521.7,171.4l-6.6,2.8l-1.4,3.7l-1,0.4l-7.5,0.5l-3.9,4.7l-3.1,1.6l-8,0.7l-0.6,0.7l-0.3,1.3l3.3,4.3
			l3.9,4.7l1.5,3.5l-0.1,7.8l-1,2.1l-3.3,1.8l-10,1l-1.6-2l-3.5-0.4l-4.9,2.6l0.6,4.9l2.3,2.8l2.4,3.6l0.7,4.1l-2.2,5.4l-2.6,7.1
			c0,0-0.9,2.4,0.3,2c1.1-0.4,4.7,5.1,4.7,5.1l4.8,1l6.5,0.8l6,1.4c0,0,0.8,0.9,2.5,1.9c1.7,0.9,2.6,1.3,2.6,1.3l5.1,0.5l0.9-0.5
			l0.2-1.4l0.8-1l3.3-2.3l2.6-0.8l0.8-1v-1.4l1.5-2.1l2.1-2l1.6-2.4l1.4-3.6l1-2.4l-2.5-7.1l-0.1-1l0.5-0.8l0.9-0.8l0.9-1l0-1.2
			l-1.5-2.9c0,0-1.5-3.8-0.3-5.6c1.2-1.8,1.9-2.4,1.9-2.4l-0.2-0.3c0,0,1.7-0.3,2.5-0.1c0.8,0.2,1.9,2.1,1.9,2.1l0.9,0.8
			c0,0,0.5,0.8,1.1,0.3c0.7-0.4,2.3-2.2,2.3-2.2l0.4-1.8c-0.2-0.2-0.8-1.2-1.3-1.2c0-0.9,0.1-3.9,0.1-3.9c0.2,0.2-0.2-3.2-0.6-3.5
			c-0.5-1.4-1.5-1.8-1.5-2.2c-0.2-0.9,0.5-1.5,0.5-1.5l1-1.2c0,0,0.7-1.8,0.7-2.3c-0.1-0.6-0.2-1.8-0.2-1.8l0.2-1.3l0.1-1.8
			c0.2-0.3,0.4-1.6,0.8-1.7l1-1l-2.2-0.7l-0.3-0.3l-0.5-1.3l-0.7-1.9l-0.8-2.1l-0.8-1.5c0,0-2.1-2.9-2.6-3.5
			c-0.5-0.5-2.5-3.4-2.5-3.4L521.7,171.4z"/>
		<path fill-opacity="0" stroke="#000000" d="M521.7,171.4l-6.6,2.8l-1.4,3.7l-1,0.4l-7.5,0.5l-3.9,4.7l-3.1,1.6l-8,0.7l-0.6,0.7
			l-0.3,1.3l3.3,4.3l3.9,4.7l1.5,3.5l-0.1,7.8l-1,2.1l-3.3,1.8l-10,1l-1.6-2l-3.5-0.4l-4.9,2.6l0.6,4.9l2.3,2.8l2.4,3.6l0.7,4.1
			l-2.2,5.4l-2.6,7.1c0,0-0.9,2.4,0.3,2c1.1-0.4,4.7,5.1,4.7,5.1l4.8,1l6.5,0.8l6,1.4c0,0,0.8,0.9,2.5,1.9c1.7,0.9,2.6,1.3,2.6,1.3
			l5.1,0.5l0.9-0.5l0.2-1.4l0.8-1l3.3-2.3l2.6-0.8l0.8-1v-1.4l1.5-2.1l2.1-2l1.6-2.4l1.4-3.6l1-2.4l-2.5-7.1l-0.1-1l0.5-0.8l0.9-0.8
			l0.9-1l0-1.2l-1.5-2.9c0,0-1.5-3.8-0.3-5.6c1.2-1.8,1.9-2.4,1.9-2.4l-0.2-0.3c0,0,1.7-0.3,2.5-0.1c0.8,0.2,1.9,2.1,1.9,2.1
			l0.9,0.8c0,0,0.5,0.8,1.1,0.3c0.7-0.4,2.3-2.2,2.3-2.2l0.4-1.8c-0.2-0.2-0.8-1.2-1.3-1.2c0-0.9,0.1-3.9,0.1-3.9
			c0.2,0.2-0.2-3.2-0.6-3.5c-0.5-1.4-1.5-1.8-1.5-2.2c-0.2-0.9,0.5-1.5,0.5-1.5l1-1.2c0,0,0.7-1.8,0.7-2.3c-0.1-0.6-0.2-1.8-0.2-1.8
			l0.2-1.3l0.1-1.8c0.2-0.3,0.4-1.6,0.8-1.7l1-1l-2.2-0.7l-0.3-0.3l-0.5-1.3l-0.7-1.9l-0.8-2.1l-0.8-1.5c0,0-2.1-2.9-2.6-3.5
			c-0.5-0.5-2.5-3.4-2.5-3.4L521.7,171.4z"/>
	</g>
</g>
<g id="Iceland">
	<g id="path9094">
		<path fill="#CCCCCC" d="M477.3,131.4l5-5.4l0.9-0.1l1.2,1.2l1.1,2.2l2.6,1.2l2.2-0.4l1.3-1.1l0.8-0.7l1.4,0l2.4-0.1l5-1.4l4.6-3
			h1.6l2.4,1.4l2.6,2.6l2.5,2.1l2.1,1.7l0.8,2.2l0.5,1.4l-1.7,4.2l-1.8,2.6l-0.2,1.3l-2.1,0.7l-2.9,1l-1.9,0.9l-9.8,5.7l-1.1,0.7
			l-1.2-0.2l-1.9-0.5l-2.4-0.6l-3-1l-1.1-0.2l-4.5-0.9l-1.3-0.6l0.5-1.1l0.5-3.1l-0.3-2.3l-0.5-0.6l-1.7-1.6L478,139l0.3-1.1l1-1.2
			l0.2-1.5l-0.5-1.5l-1.2-0.8l-0.8-0.4l-0.3-0.6l1.5-1.2l0.8-0.8L477.3,131.4z"/>
		<path fill-opacity="0" stroke="#000000" stroke-width="2.000000e-03" d="M477.3,131.4l5-5.4l0.9-0.1l1.2,1.2l1.1,2.2l2.6,1.2
			l2.2-0.4l1.3-1.1l0.8-0.7l1.4,0l2.4-0.1l5-1.4l4.6-3h1.6l2.4,1.4l2.6,2.6l2.5,2.1l2.1,1.7l0.8,2.2l0.5,1.4l-1.7,4.2l-1.8,2.6
			l-0.2,1.3l-2.1,0.7l-2.9,1l-1.9,0.9l-9.8,5.7l-1.1,0.7l-1.2-0.2l-1.9-0.5l-2.4-0.6l-3-1l-1.1-0.2l-4.5-0.9l-1.3-0.6l0.5-1.1
			l0.5-3.1l-0.3-2.3l-0.5-0.6l-1.7-1.6L478,139l0.3-1.1l1-1.2l0.2-1.5l-0.5-1.5l-1.2-0.8l-0.8-0.4l-0.3-0.6l1.5-1.2l0.8-0.8
			L477.3,131.4z"/>
	</g>
</g>
<g id="GreatBritain">
	<path id="path13133" fill="#B3B3B3" d="M453.6,188.1c0.9-0.7,1.6-0.9,2.1-0.7c1.4,0.6,2.6,0.1,3.6-1.7c0.4-0.8,0.7-0.9,2.7-0.8
		c1.7,0.1,2.2,0.3,2.2,0.7c0,0.4,0.4,0.6,1.2,0.6c0.9,0,1.2-0.2,1.1-0.7c-0.1-0.5,0.2-0.7,1-0.7c0.6,0,3.3-0.5,6-1.1
		c4.7-1,4.9-1.1,5.6-2.3c0.7-1.3,0.7-1.3-0.1-2.1c-1.1-1.1-1-2,0.2-3.8c0.6-0.8,1.3-2,1.6-2.7c0.5-1.2,0.5-1.3-0.5-2.4
		c-0.6-0.7-1.8-1.3-2.7-1.6c-2.8-0.7-5.3-3.1-6-5.7c-0.2-0.9-0.7-1.7-0.9-1.8c-0.3-0.1-0.4-0.7-0.3-1.6c0.1-0.9,0.3-1.2,0.4-0.8
		c0.2,0.5,0.3,0.6,0.7,0.1c0.3-0.3,0.3-0.5,0.1-0.5c-0.2,0-0.4-0.3-0.4-0.6c0-0.5-0.1-0.5-0.5-0.2c-0.7,0.6-1.5,0-1.2-0.9
		c0.2-0.6,0.2-0.6-0.1-0.2c-0.2,0.3-0.7,0.4-1.1,0.3c-0.7-0.2-0.7-0.2,0,0.3c0.5,0.4,0.6,0.6,0.2,0.8c-0.3,0.2-1-0.3-1.9-1.1
		c-0.8-0.8-2.1-1.9-2.9-2.6c-2-1.6-1.9-2.5,0.5-5.1c2-2.2,2.5-3,3.1-5.6c0.2-1.1,0.2-1.5-0.1-1.5c-0.2,0-1.3-0.4-2.4-0.9
		c-1.9-0.9-2-1-2.9-3.6c-0.5-1.5-1.1-2.8-1.2-2.9c-0.2-0.1-1.6,0.1-3.3,0.5c-3.8,0.9-4.6,1.7-6,6.5c-0.6,2-1.2,4.1-1.5,4.7
		c-0.3,0.8-0.3,1.4,0.3,2.6c0.7,1.4,0.7,2.8,0,4.3c-0.2,0.6,0,0.8,1.3,1.3c2.2,0.8,3.2,3.3,1.8,4.4c-0.5,0.4-1.2,0.3-4.2-0.5
		c-2-0.6-3.8-1-4-1c-0.2,0-0.8,0.6-1.4,1.3c-1.1,1.4-4.5,4.4-6.7,5.8c-2.2,1.4-2.5,2.6-1.7,6.9c0.8,4.3,0.7,4.6-2.6,5.6
		c-2.2,0.7-3.1,1.7-3.6,4c-0.3,1.2,0.3,3.5,0.9,3.5c0.1,0,1,0.6,1.8,1.3c1,0.8,2,1.4,2.7,1.4c2.9,0.1,6.5,0,8.4-0.2l2.1-0.3l1.2-2.5
		c0.6-1.4,1.6-4.5,2.1-7c1.1-5.2,1.3-5.7,2.7-6.4c1.6-0.8,3-0.2,4,1.9c1.3,2.6,1,4.2-0.7,4.2c-0.8,0-1.9,1.4-1.9,2.4
		c0,0.6,0.3,0.7,1.9,0.7c3.9,0,3.8,2.8-0.2,4.7c-1.2,0.6-4.5,4.1-4.5,4.8C449.4,190,452.1,189.2,453.6,188.1z"/>
</g>
<g id="Scandinavia">
	<g id="path5813">
		<path fill="#B3B3B3" d="M535.6,105.9l-3.8-14.3c0,0-0.5-2.2,3.2-6.2c3.8-4,15.4-10.8,15.4-10.8l4-8.9l3-4.6c0,0,4.3-1.6,4-3
			c-0.3-1.3-1.9-2.7-1.9-2.7l1.6-2.2l7,3c0,0,3.2-2.2,4.6-3.5c1.3-1.3,1.6-5.7,1.6-5.7l4.9-1.9l7,1.3l3.5-1.9l6.1,3.5
			c-0.7,2.3-1.4,5.9-2.1,7.9c0.1,10.2,0.3,12,1.2,28.2c1.3,2.2,2.3,10.9,1.4,10.6c-0.6-0.2-2.2,3.1-3.7,2.7l-13.2,1l-2-2.2l0.6-6.3
			l0.6-9l-2.7-1L570.8,92l1.5,10.1l-7.8,8l0.8,8c0.2,3.2-2.8,4.5-6.1,5.5c-1.9,0-10.6-14.3-11.6-14.1c-2.3,0.4-4.6,3.4-4.6,3.4
			l-7.1-1.9L535.6,105.9z"/>
		<path fill-opacity="0" stroke="#000000" stroke-width="2.000000e-02" d="M535.6,105.9l-3.8-14.3c0,0-0.5-2.2,3.2-6.2
			c3.8-4,15.4-10.8,15.4-10.8l4-8.9l3-4.6c0,0,4.3-1.6,4-3c-0.3-1.3-1.9-2.7-1.9-2.7l1.6-2.2l7,3c0,0,3.2-2.2,4.6-3.5
			c1.3-1.3,1.6-5.7,1.6-5.7l4.9-1.9l7,1.3l3.5-1.9l6.1,3.5c-0.7,2.3-1.4,5.9-2.1,7.9c0.1,10.2,0.3,12,1.2,28.2
			c1.3,2.2,2.3,10.9,1.4,10.6c-0.6-0.2-2.2,3.1-3.7,2.7l-13.2,1l-2-2.2l0.6-6.3l0.6-9l-2.7-1L570.8,92l1.5,10.1l-7.8,8l0.8,8
			c0.2,3.2-2.8,4.5-6.1,5.5c-1.9,0-10.6-14.3-11.6-14.1c-2.3,0.4-4.6,3.4-4.6,3.4l-7.1-1.9L535.6,105.9z"/>
	</g>
</g>
<g id="India">
	<path id="path13895" fill="#CCCCCC" d="M724.9,203.7c-0.5,0-1,0.5-1.4,1.4c-1.8,3.4-8.4,8.3-9.7,7.2c-2.2-1.7-5.4-3.6-6.4-3.9
		c-0.9-0.2-1.3,0-1.9,0.8c-1.8,2.8-3.1,3.8-5.7,4.4c-2.5,0.6-2.6,0.7-4.2,3.6c-1.3,2.5-2,3.1-3.2,3.5l-1.6,0.5l0.3,6.6
		c0.4,7.4,0.8,8.8,3.8,14c2,3.5,2.1,3.8,2.1,7.5c0,3.3,0.2,4.2,1.2,5.9c0.7,1.1,1.4,1.9,1.7,1.8c0.8-0.5,3.8,0.8,5.7,2.6
		c1,0.9,2.3,2.8,3,4c1.7,3.2,2.1,3.6,3.5,3.6c2.2,0,3.1,1.1,3.1,3.7c0,1.3,0.3,2.7,0.7,3.2c0.6,0.7,0.8,0.6,2.1-0.9
		c1.1-1.3,1.9-1.8,3.4-2c1.7-0.2,2-0.1,2.7,1c0.6,0.9,0.7,1.7,0.5,3.2c-0.4,2.5-2.1,6.7-2.1,5.3c0-0.6,0.3-1.8,0.7-2.7
		c0.8-1.8,0.9-4.4,0.3-5.3c-0.9-1.4-3.8-0.7-5.1,1.2c-1.8,2.7-3.8,1.4-3.8-2.4c0-2.6-0.3-3.1-2.6-3.5c-2.1-0.4-2.6-0.8-3.8-3.2
		c-1.7-3.4-5.5-6.9-7.5-6.9c-1.5,0-1.2,0.8,0.4,1.1c1.8,0.4,6.1,4.7,6.5,6.6c0.3,1.7,2.2,3.2,3.9,3.2c1.9,0,2.6,1.1,2.1,3.2
		c-0.4,1.7-0.4,1.8,1.5,3.6l1.9,1.8l0.7-1.1c1.3-2,3.3-3.8,4.1-3.6c1.1,0.2,1.3,2.8,0.4,5.2c-0.5,1.3-0.7,3.2-0.7,6
		c0,2.3-0.1,5.4-0.3,7c-0.3,2.7-0.3,2.9,1.1,4.2c1.2,1.2,1.5,1.8,1.5,3.8c0.1,4,0.5,4.8,2.9,6.4c2.1,1.3,2.2,1.5,2.2,3.4
		c0,1.1,0.6,3.9,1.4,6.2c0.8,2.3,1.4,4.4,1.4,4.6c0,0.2,0.9,1.8,2.1,3.4c1.1,1.7,2.4,4.2,2.8,5.7c1,3.6,2.3,3.6,4.7,0.1
		c1.2-1.8,1.7-3,1.7-4.1c0-0.9,0.7-3.6,1.7-6c1.6-4,1.7-4.7,1.4-7.4c-0.3-2.6-0.1-3.6,1.2-7.3c0.8-2.3,1.8-6.3,2.2-8.9
		c1.1-6.7,1.1-6.7,2.4-7.8c1.9-1.7,3-4.8,3-8.4c0-2.8,0.1-3.3,1.2-4.4c1.1-1.1,1.6-1.2,4.1-1.2h2.8l-0.3-2c-0.8-5.1-0.8-6-0.3-7
		c0.4-0.8,0.9-1,1.7-0.8c1.3,0.2,1.6-0.3,0.4-0.8c-2.8-1.1-4.5,3.1-2.8,7c0.8,1.9,0.3,2.6-2,2.6c-2.9,0-5.1,1.7-5.7,4.6
		c-0.4,1.7-0.7,1.1-0.5-1c0.1-1.2,3.1-4,4.4-4.1c0.6,0,1.6-0.1,2.2-0.2c0.8,0,1.1-0.3,1-0.7c-0.5-1.7-0.5-6.4,0.1-7.5
		c0.5-1,1-1.2,2.7-1.2c2.1,0,2.1-0.1,4.7-3.7c1.4-2,3.5-5.4,4.7-7.7c2-3.8,2-4.1,1.5-5.9c-1.3-4.4-4.7-6.1-9-4.5
		c-3.3,1.2-5.1,1-6.7-0.7c-0.8-0.8-1.4-1.6-1.4-1.8c0-0.2-1.3-0.6-2.8-0.9c-1.5-0.3-3.6-1.1-4.5-1.7c-1.3-0.9-2.3-1.2-4.3-1.2
		c-2.3,0-2.9-0.2-6.2-2.5c-2-1.4-4.4-2.8-5.3-3.1c-4.2-1.4-4.7-2.9-2.3-6.8c1.6-2.6,2-5.1,1.6-9.6l-0.3-2.9l-2.8-0.3
		c-3.2-0.3-3.7-0.6-4.4-3.1C726,204.3,725.5,203.7,724.9,203.7z"/>
</g>
<g id="Ural">
	<path id="path13061" fill="#999999" d="M732.1,159.3c0.3-1.3,0-2.1,0.4-2.6c0.4-0.5,1.4-1.8,1.4-2.3c0,0,0.4-1.7,2.2-2.1
		c1.1-0.3,2-1.4,1.7-2.4c0-1.9-0.8-2,1-3.1c1.6-0.9,0.6-1.8,0.6-4.5c0-2.7-0.1-2.9-2.5-5.6c-1.4-1.5-2.8-3.5-3.1-4.3
		c-0.5-1.1-1.1-1.6-2.7-2c-1.1-0.3-2.1-0.8-2.1-1c0-0.2-0.1-0.6-0.2-0.9c-0.1-0.3-0.1-1.3-0.2-2.2c0-1-0.5-2.3-0.9-2.9
		c-0.8-1-1-1.1-2.4-0.6c-2.1,0.7-2.7,0.3-3.6-2.1c-0.7-1.9-0.7-2.2,0-3.2c0.4-0.6,1.2-1.3,1.7-1.4c0.7-0.2,1-0.9,1.1-2.6
		c0.2-1.6,0.6-2.7,1.3-3.5c0.9-1,1-1.5,0.9-4.5c-0.2-3.3-0.2-3.4-2.2-5.1c-2.3-1.9-2.4-2.6-1-5.3c1.3-2.6,0.9-4.8-1.3-6.7
		c-0.9-0.8-2.9-3.3-4.5-5.6c-1.5-2.3-3.1-4.4-3.5-4.7c-0.5-0.4-0.7-1.7-0.7-4.5c0-3.8,0-4-1.1-4c-0.6,0-1.5-0.3-2-0.7
		c-0.8-0.6-0.8-0.9-0.4-2.2c0.5-1.3,0.5-1.5-0.4-1.9c-0.6-0.2-1.3-1.1-1.6-2c-0.3-0.9-0.8-1.6-1.1-1.5c-2,0.5-5.5-4.5-4.9-6.8
		c0.1-0.5,0-1.1-0.2-1.3c-0.6-0.4-1.5,1.2-1.7,3.4c-0.1,1-0.3,2.3-0.5,2.9c-0.3,1.5-2.8,4.2-4.4,4.8c-1.7,0.7-5.3,0.7-6.5,0
		c-1-0.5-1.9-2.5-1.1-2.5c0.2,0,0.4,0.3,0.4,0.6c0,0.8,2,1.7,3.6,1.7c1.7,0,4.4-1.2,5.9-2.8c1.1-1.1,1.5-2,1.8-4.6
		c0.5-3.3,1.4-5.1,2.6-4.6c0.4,0.2,0.7,1,0.7,2.2c0,2.2,1.7,5.2,3.3,5.7c1.6,0.5,1.6-0.1,0-1c-1.8-1.1-2.4-2.5-2.4-5.7
		c0-3.1-0.7-3.6-2.8-2.1c-1.1,0.8-1.5,1.6-1.9,3.7c-0.3,1.5-0.6,3.1-0.7,3.7c-0.3,1.3-2.3,3.4-3.8,4c-2.5,1-5.9,0.3-5.9-1.2
		c0-0.4,0.9-1.8,2.1-3.2c2.4-2.9,5-7.7,5-9c0-1.5-1.8-4.5-4-6.9c-1.2-1.2-2.2-2.7-2.4-3.2c-0.1-0.6,0.3-2.3,0.9-3.9
		c0.7-1.6,1.2-3.3,1.2-3.8c0-0.8-1.8-1.9-4.6-2.7c-0.6-0.2-1.8-1.3-2.8-2.6c-0.9-1.3-1.9-2.3-2.1-2.3c-0.2,0-0.4,1-0.4,2.3
		c0,1.7-0.3,2.6-1,3.4c-0.8,0.9-1,1.6-0.9,3.8c0.1,2.8-0.8,5.3-1.9,5.8c-0.7,0.3,1.2,2.5,2.5,3c0.5,0.1,1.2,1.1,1.6,2.1
		c0.5,1.2,1.3,2,2.3,2.5c1.2,0.5,1.5,1,1.6,2.2c0.1,1.3,0,1.6-0.8,1.8c-0.8,0.2-0.9,0.5-0.6,1.5c0.6,2,0.4,8.6-0.3,11.1
		c-0.4,1.4-1.4,3.1-2.8,4.7c-2.1,2.4-2.2,2.5-2.1,5.5c0,1.7,0.4,4.4,0.8,5.9c1.1,4.4,1.3,6.9,0.8,9.7c-1.1,5.8-1.1,6.9,0,8.6
		c1.7,2.7,1.2,6.6-1.1,8.7c-0.7,0.6-1,1.4-0.9,1.8c0.3,0.9,3.5,2.6,4.9,2.6c2.2,0,3.3,5.7,1.4,7.6c-0.5,0.5-1.3,0.9-1.7,0.9
		c-1,0-0.9,0.6,0.5,2.6c0.8,1.1,1.2,2.4,1.2,3.7c0,1.1,0.2,2.3,0.5,2.6c0.4,0.5,0.4-0.1,0.2-2.4c-0.2-2-0.6-3.5-1.3-4.4
		c-0.8-1.1-0.9-1.4-0.4-1.8c0.4-0.2,0.8-0.4,1-0.4c0.9,0,1.9-3.1,1.6-4.8c-0.5-2.9-1.4-4-4.1-4.6c-3.2-0.8-3.7-1.5-2.2-3.3
		c0.7-0.8,1.5-2.6,1.8-4c0.5-2.3,0.5-2.7-0.4-4.1c-1.4-2.4-1.6-3.6-0.8-6.5c0.9-3.4,0.9-7.8,0-11.3c-0.4-1.5-0.9-4.4-1-6.4l-0.3-3.6
		l1.7-1.9c0.9-1,2-2.5,2.4-3.2c1.3-2.4,2.1-7.3,1.9-10.4c-0.2-2.2-0.1-3.1,0.5-4.1c1.2-1.8,0.5-4.4-1.2-5.3
		c-0.7-0.4-1.7-1.3-2.1-2.1c-0.4-0.8-1.5-1.9-2.4-2.4c-0.9-0.5-1.6-1-1.6-1.1c0-0.1,0.4-1.1,1-2.3c0.6-1.5,0.9-3,0.9-4.5
		c-0.1-1.3,0.1-2.6,0.4-2.9c0.3-0.3,0.9-1.4,1.3-2.3l0.8-1.6l1,1.2c0.6,0.7,2.2,1.7,3.7,2.3c1.5,0.6,2.7,1.3,2.7,1.6
		c0,1.1-2.5,7.1-2.7,6.5c-0.1-0.3,0.4-1.9,1.1-3.4c0.7-1.5,1.1-3,1-3.2c-0.1-0.2-1-0.6-1.8-0.8c-2-0.4-4.5-2-4.7-3
		c-0.1-0.5-0.2-0.3-0.3,0.4c0,0.7-0.5,1.6-0.9,2c-0.7,0.6-0.9,1.6-1.1,4.3c-0.1,2.4-0.4,3.8-1,4.3c-0.7,0.8-0.7,0.9,1.1,2
		c1.1,0.7,2,1.7,2.3,2.7c0.3,1,0.9,1.6,1.7,1.8c1.9,0.5,3,4.5,1.7,6.1c-0.3,0.4-0.6,2.7-0.7,5.8c-0.1,4.4-0.3,5.5-1.3,7.7
		c-0.7,1.4-1.9,3.3-2.7,4.2c-1.3,1.4-1.5,1.9-1.5,4c0,1.3,0.4,4.2,0.9,6.4c1.1,4.8,1.2,9.8,0.2,12.1c-0.9,2.2-0.9,2.9,0.2,5
		c1.3,2.5,1.3,6.2-0.2,9l-1.1,2.2l1,0.7c0.5,0.4,1.4,0.7,1.9,0.7c0.5,0,1.2,0.2,1.5,0.4c0.8,0.5,2.5,4.4,2.5,5.7
		c0,1.5-1.2,3.6-2.5,4.6c-0.6,0.4-0.8,0.7-0.5,0.7c0.7,0,2,4.3,2,6.6c0,1.4,0.3,1.9,1.5,2.6c0.9,0.6,1.7,1.7,2.1,2.8
		c0.3,1,0.9,2,1.1,2.1c2.1,0.7,6.1,6.1,7.4,9.8l0.7,2.2l2.2-0.3c2.6-0.4,2.9-0.1,3.8,2.9c0.5,1.7,0.9,2.1,2.9,3
		c1.9,0.8,2.8,0.9,5.1,0.7c2.8-0.3,2.8-0.3,3.6,1.2c1,1.7,1.2,1.8,2.9,0.5c1.2-0.9,2.9-0.9,2.9,0c0,0.6,5.5,8.4,6.1,8.4
		c0.3,0,1.9-1.2,2.2-2.5L732.1,159.3z"/>
</g>
<g id="NuthernEurope">
	<g id="path9050">
		<path fill="#999999" d="M530.8,185.7l-2.5-6.4l-6.4-8.3c0,0,2.9-8.4,3.2-11.2s5.1-5.5,5.1-5.5l6.2-7.4l5.6-8l2-6.6
			c0,0-0.8-6.1-1.4-6s-0.1-3.8,1.7-4.5c1.7-0.7,1.6-1,1.6-1l1.5,1.9l0.9,2.5l-0.9,2.3l-0.4,3.4c0,0,0.4,3.2,3,2.9
			c2.6-0.3,7.2-1.6,7.2-1.6l12.7-2.2l5.5,0.5l3.9-1.5l7.1,5.3c0.2,2.5,1,6.2,1.1,8.8l2.9,5.3l1.2,2.2l-0.5,2.3l-1.5,4l-2,5.6
			l-1.6,2.3l-1.3,0.6l-2.2,0.7l-1.5,0c0,0-1,0-1,2.9c0,1.1,3.5,0.8,3.5,0.8l-1.4,1.9l-2.6,1.6c0,0-1.9,3-2.4,3.5
			c-0.1,0.1-1.9,4.5-1.9,4.5c0.1,0.3,0.7,3.9,0.6,4.3l0.2,3.5l-0.7-0.2l-2.5-0.3l-3,0.3l-4.5,0c0,0-1.8-2.8-1.4-3.8
			c0.3-0.9,0.8-4,0.8-4l0.2-0.5l0-1.5c0,0,0.3-1.1-1.3-1.6c-1.6-0.5-7.5,0.2-7.5,0.2l-1.6,0.2l-2.6,2c-0.2,1.1-0.1,2.1-1.1,3.2
			l-1.1,1.8l-1.3,0.6c0,0-0.2,0.3-1.4,0.4c-1.2,0.1-2.8,0.5-2.8,0.5C542.3,187.2,536.3,186.4,530.8,185.7z"/>
		<path fill-opacity="0" stroke="#000000" stroke-width="2.000000e-03" d="M530.8,185.7l-2.5-6.4l-6.4-8.3c0,0,2.9-8.4,3.2-11.2
			s5.1-5.5,5.1-5.5l6.2-7.4l5.6-8l2-6.6c0,0-0.8-6.1-1.4-6s-0.1-3.8,1.7-4.5c1.7-0.7,1.6-1,1.6-1l1.5,1.9l0.9,2.5l-0.9,2.3l-0.4,3.4
			c0,0,0.4,3.2,3,2.9c2.6-0.3,7.2-1.6,7.2-1.6l12.7-2.2l5.5,0.5l3.9-1.5l7.1,5.3c0.2,2.5,1,6.2,1.1,8.8l2.9,5.3l1.2,2.2l-0.5,2.3
			l-1.5,4l-2,5.6l-1.6,2.3l-1.3,0.6l-2.2,0.7l-1.5,0c0,0-1,0-1,2.9c0,1.1,3.5,0.8,3.5,0.8l-1.4,1.9l-2.6,1.6c0,0-1.9,3-2.4,3.5
			c-0.1,0.1-1.9,4.5-1.9,4.5c0.1,0.3,0.7,3.9,0.6,4.3l0.2,3.5l-0.7-0.2l-2.5-0.3l-3,0.3l-4.5,0c0,0-1.8-2.8-1.4-3.8
			c0.3-0.9,0.8-4,0.8-4l0.2-0.5l0-1.5c0,0,0.3-1.1-1.3-1.6c-1.6-0.5-7.5,0.2-7.5,0.2l-1.6,0.2l-2.6,2c-0.2,1.1-0.1,2.1-1.1,3.2
			l-1.1,1.8l-1.3,0.6c0,0-0.2,0.3-1.4,0.4c-1.2,0.1-2.8,0.5-2.8,0.5C542.3,187.2,536.3,186.4,530.8,185.7z"/>
	</g>
</g>
<g id="EasternAustralia">
	<g id="path8950">
		<path fill="#B3B3B3" d="M759.2,399.7l0.9,13.5l0.6,12.2l0.2,18.5l2.1,1.9l29.8,0.2l-0.8,27.9l0.3,7.9l-1.4,6.8l-2.7,2.4l1,5.5
			l1.3,3.6l5,0.7l0.8,0.3l1.6,2l5.4,1.2l1.3-2.2h0.3l1.5,2.6l4.4,0.3c0,0,2.3-2.4,2.5-3.3c0.2-0.9,7.9-1.1,7.9-1.1s1.4-0.7,1.7-2.4
			c0.2-1.7,0.4-2.4,0.4-2.4l0.4-0.1l0.4,0.7l0.2,0l-0.1-0.8l-0.3-0.5l-0.3-0.2l-0.5,0c0,0-0.3,0-0.2-0.5c0.1-0.6,1.1-1.4,1.1-1.4
			l0.8-0.7l0.3-0.1h0.1l0.1-0.1l0.2-0.3l0.1-0.5c0,0,0-1.2,0.3-1.3c0.3-0.1,0.6,0,0.6,0l0.4,0.1l0.2,0l0.1,0l0.1,0l0.1-0.1l0.1-0.1
			l0-0.2l0-0.3l0-0.2l0-0.2l0,0l0,0l-0.1,0l-0.3,0.4l-0.2,0.2l-0.1,0.1c0,0-0.2,0.1-0.2,0c0,0-0.3-0.3-0.1-1.1
			c0.2-0.8,0.6-1.9,0.6-1.9l1.1-2.3l1-2.2l1.6-3.1l1-1.5l0.3-0.1l0.1-0.2c0,0-0.1-0.2-0.1-0.5c0-0.3,0.6-0.8,0.6-0.8l0.4-0.4
			l0.2-0.5l0.1-0.2l0-0.3c0,0,0-0.3,0.5-0.4c0.6-0.1,0.5-0.1,0.5-0.1s0.2-0.1,0.2-0.2c0-0.1-0.1-0.2-0.1-0.2s0-0.2,0-0.3
			c0-0.1,0.2-0.6,0.3-0.6c0.1,0,0.1-0.1,0.3-0.3c0.2-0.2,1.7-1.8,1.7-1.8l-0.8-19.6l-0.8-2.7l-3.1-3.7l0.1-0.3l-1.1-0.2l-0.6-3.4
			l-0.5-0.9l-3.2-3.4l-0.6-1.8l-0.1-3l-0.3-1.5l-0.3-0.7l0.1-0.2l0.8,0.3l0.2-0.1l0-0.3l-1-0.9l-1.4-0.4l-5.8-3.7l-2.3-2.8l-0.5-4.3
			c0,0-6-6.2-6.2-7.4c-0.2-1.1-1.6-5.4-1.6-5.4l-0.1-1.9l0.3-0.3c0,0-2.1-6.1-3.4-8.5c-1.3-2.4-4-5.5-4-5.5l-2.2-0.3l-1.5,1.6
			l-0.6,3c0,0-0.2,1.4-0.3,1.5c-0.1,0-0.3,0-0.3,0l0,0.3c0,0-1.3,7.4-2.1,7.4c-0.8-0.1,0.2,3.4,0.3,5c0.1,1.6-1.1,8.4-1.1,8.4
			l-1.4,0.7l-1.7-0.8l-3.6-3.6l-3.9-1.5l-0.7-0.7c0,0-3.5-0.3-2.2-2.1c1.3-1.8,4.1-5.6,4.1-5.6l0.4-1.5l-0.2-3.8l-14.3-0.6
			L759.2,399.7z"/>
		<path fill-opacity="0" stroke="#000000" stroke-width="2.000000e-03" d="M759.2,399.7l0.9,13.5l0.6,12.2l0.2,18.5l2.1,1.9
			l29.8,0.2l-0.8,27.9l0.3,7.9l-1.4,6.8l-2.7,2.4l1,5.5l1.3,3.6l5,0.7l0.8,0.3l1.6,2l5.4,1.2l1.3-2.2h0.3l1.5,2.6l4.4,0.3
			c0,0,2.3-2.4,2.5-3.3c0.2-0.9,7.9-1.1,7.9-1.1s1.4-0.7,1.7-2.4c0.2-1.7,0.4-2.4,0.4-2.4l0.4-0.1l0.4,0.7l0.2,0l-0.1-0.8l-0.3-0.5
			l-0.3-0.2l-0.5,0c0,0-0.3,0-0.2-0.5c0.1-0.6,1.1-1.4,1.1-1.4l0.8-0.7l0.3-0.1h0.1l0.1-0.1l0.2-0.3l0.1-0.5c0,0,0-1.2,0.3-1.3
			c0.3-0.1,0.6,0,0.6,0l0.4,0.1l0.2,0l0.1,0l0.1,0l0.1-0.1l0.1-0.1l0-0.2l0-0.3l0-0.2l0-0.2l0,0l0,0l-0.1,0l-0.3,0.4l-0.2,0.2
			l-0.1,0.1c0,0-0.2,0.1-0.2,0c0,0-0.3-0.3-0.1-1.1c0.2-0.8,0.6-1.9,0.6-1.9l1.1-2.3l1-2.2l1.6-3.1l1-1.5l0.3-0.1l0.1-0.2
			c0,0-0.1-0.2-0.1-0.5c0-0.3,0.6-0.8,0.6-0.8l0.4-0.4l0.2-0.5l0.1-0.2l0-0.3c0,0,0-0.3,0.5-0.4c0.6-0.1,0.5-0.1,0.5-0.1
			s0.2-0.1,0.2-0.2c0-0.1-0.1-0.2-0.1-0.2s0-0.2,0-0.3c0-0.1,0.2-0.6,0.3-0.6c0.1,0,0.1-0.1,0.3-0.3c0.2-0.2,1.7-1.8,1.7-1.8
			l-0.8-19.6l-0.8-2.7l-3.1-3.7l0.1-0.3l-1.1-0.2l-0.6-3.4l-0.5-0.9l-3.2-3.4l-0.6-1.8l-0.1-3l-0.3-1.5l-0.3-0.7l0.1-0.2l0.8,0.3
			l0.2-0.1l0-0.3l-1-0.9l-1.4-0.4l-5.8-3.7l-2.3-2.8l-0.5-4.3c0,0-6-6.2-6.2-7.4c-0.2-1.1-1.6-5.4-1.6-5.4l-0.1-1.9l0.3-0.3
			c0,0-2.1-6.1-3.4-8.5c-1.3-2.4-4-5.5-4-5.5l-2.2-0.3l-1.5,1.6l-0.6,3c0,0-0.2,1.4-0.3,1.5c-0.1,0-0.3,0-0.3,0l0,0.3
			c0,0-1.3,7.4-2.1,7.4c-0.8-0.1,0.2,3.4,0.3,5c0.1,1.6-1.1,8.4-1.1,8.4l-1.4,0.7l-1.7-0.8l-3.6-3.6l-3.9-1.5l-0.7-0.7
			c0,0-3.5-0.3-2.2-2.1c1.3-1.8,4.1-5.6,4.1-5.6l0.4-1.5l-0.2-3.8l-14.3-0.6L759.2,399.7z"/>
	</g>
</g>
<g id="Ontario">
	<g id="path26397">
		<path fill="#666666" d="M286.7,165.5c-0.8-1.4-1.2,9.9-1,13.5c-0.9,1.7-1.1,1.6-1.9,4.8c-0.6,11.5-1.3,20.1-1.5,30.2l28.7,0.3
			l6.3,2.3l12.5-1.9l5.7,1.9l2.3,6l12.5,6.8l1.7-21.8l-3.4-0.4l-5.1-12.4l3.4-2.6l-8-0.8l-4-2.4l-6.3-1.3l-3.8-1.1l-6.5-4.4
			l-1.2-1.5h2.6l0.8-1.5l-1.2-1.9l-0.8-1.5l-1.2,1.7l-1.4,0.1l-1.4-1.3l0.4-4.5l0.3-3.7l-0.5-0.7l-1.7,5.4l0.8-5.7
			c-1.8,0.7-2.4-0.5-3.9-1.1l-8.4-0.5l-8.7-0.1L286.7,165.5z"/>
		<path fill-opacity="0" stroke="#000000" stroke-width="0.119" d="M286.7,165.5c-0.8-1.4-1.2,9.9-1,13.5c-0.9,1.7-1.1,1.6-1.9,4.8
			c-0.6,11.5-1.3,20.1-1.5,30.2l28.7,0.3l6.3,2.3l12.5-1.9l5.7,1.9l2.3,6l12.5,6.8l1.7-21.8l-3.4-0.4l-5.1-12.4l3.4-2.6l-8-0.8
			l-4-2.4l-6.3-1.3l-3.8-1.1l-6.5-4.4l-1.2-1.5h2.6l0.8-1.5l-1.2-1.9l-0.8-1.5l-1.2,1.7l-1.4,0.1l-1.4-1.3l0.4-4.5l0.3-3.7l-0.5-0.7
			l-1.7,5.4l0.8-5.7c-1.8,0.7-2.4-0.5-3.9-1.1l-8.4-0.5l-8.7-0.1L286.7,165.5z"/>
	</g>
</g>
<g id="Siberia">
	<path id="path13055" fill="#999999" d="M758.9,160.4c0-0.6,0.3-2.1,0.8-3.3c0.8-2.2,0.8-2.3-0.7-5.4c-1.6-3.6-1.5-7.4-0.4-9.9
		c5.7-3-0.1-1.7-3.5-3.9c-3.2-2-4.6-3.3-4.6-4.2c0-0.4,0.9-2.5,1.9-4.7l1.9-4l-1.2-3.7c-0.7-2-1.2-4.2-1.2-4.8
		c0-1.3,1.6-2.2,3.8-2.2c1.1,0,1.4-0.2,1.7-1.3c0.6-2.8,1.4-4.1,3.7-5.8c1.3-1,2.7-2.3,3-2.8c1.3-2.1,5.2-0.4,6.8,3
		c1.4,3,2.1,3.5,3.4,2.2c0.9-0.9,1-1.5,0.9-3.8c-0.1-1.6,0.1-2.9,0.4-3.1c0.8-0.5,0.6-2.7-0.3-3.6c-0.9-1-1.4-5.3-0.8-6.2
		c0.3-0.3,0.6-1.3,0.8-2.2c0.2-0.9,0.9-2.8,1.5-4.3l1.2-2.8l-1.3-2.2c-1.2-2-1.3-2.4-0.8-4c0.4-1.6,0.4-1.8-0.4-2.1
		c-1.2-0.4-1.8-2.1-1.8-4.7c0-1.3-0.4-3-1.2-4.4c-1.4-2.7-1.5-4.5-0.4-5.7c0.7-0.8,0.7-0.9-0.4-2.3c-0.6-0.8-1.6-1.4-2.2-1.4
		c-0.6,0-1.9-0.4-2.9-0.8c-3-1.2-3.1-3.6-0.4-5.3c0.8-0.5,2.5-1.9,3.6-3.1c2.3-2.3,3-2.6,4.6-1.4c0.7,0.5,1.6,0.6,2.9,0.4
		c3.2-0.5,3.4-0.8,3.6-6c0.1-2.5-0.1-4.7,0.1-5c-0.3-0.3,0.1-1,0-1.5c-0.5-0.8-0.3-1.2,1.1-2.6c1.4-1.5,1.5-1.8,1.1-2.9
		c-0.3-0.7-1.1-1.4-1.9-1.8c-2.1-0.9-3-1.8-3-3.4c0-1.2-0.3-1.6-1.4-2.1c-0.8-0.3-1.5-1-1.7-1.6c-0.3-0.9-0.6-0.9-2.7-0.6
		c-1.3,0.2-2.9,0.7-3.6,1.2c-1.5,1.2-3.2,1.1-5.1-0.3l-1.6-1.2l-1.7,1.5c-0.9,0.8-1.8,1.5-2,1.5c-0.2,0-0.9,0.5-1.5,1.1
		c-2.5,2.3-4.9,3.6-6.6,3.6c-2.1,0-2.8-0.7-2.8-2.8c0-2.7,2.9-6.4,6.8-8.8c1.8-1.1,3.6-2,3.9-2c1.3,0,0.5,0.8-1.8,1.8
		c-4.8,2.2-8.9,7.6-7.9,10.3c0.4,1.1,0.7,1.2,2.1,1c1.4-0.2,5.8-3.2,6.3-4.2c0.1-0.2,0.5-0.4,0.8-0.4s1.4-0.6,2.3-1.4
		c1.9-1.7,2.4-1.7,4-0.5c1.5,1.1,3.3,1.2,4.8,0.2c0.6-0.4,2.2-0.9,3.7-1c2.3-0.2,2.7-0.1,3.7,1c0.6,0.7,1.5,1.2,2,1.2
		c0.7,0,0.6-0.2-0.4-0.8c-0.7-0.4-1.4-1.2-1.5-1.7c-0.2-0.8-0.6-0.9-3.5-0.7c-2.3,0.1-3.6,0.4-4.2,1c-1.4,1.2-3.1,1-4.7-0.7
		l-1.5-1.5l-2,1.9c-1.1,1.1-2.2,1.9-2.4,1.9c-0.2,0-1.8,1.1-3.5,2.4c-3.4,2.6-5.4,3.1-5.4,1.3c0-2.6,4.5-7.2,9.2-9.4
		c1.3-0.6,1.4-0.9,1.8-3.9c0.2-1.8,0.3-3.6,0.1-3.9c-0.1-0.4-1.6-0.6-4.4-0.7l-4.1-0.1l-0.7-2c-0.4-1.1-1.1-2.4-1.6-2.9l-0.9-1
		l-2.1,1.5c-1.2,0.8-2.4,1.9-2.7,2.3c-0.7,1-2.8,1.1-3.6,0.1c-0.5-0.6-1.3-0.7-3.9-0.5c-2.9,0.2-3.4,0.4-4.8,1.8
		c-1.5,1.4-1.8,1.5-3.9,1.3c-3.5-0.4-5.6,0.4-8.1,3.3c-1.2,1.4-2.9,2.7-3.7,3c-1.3,0.5-1.5,0.8-1.8,2.9c-0.2,1.4-0.6,2.5-1,2.6
		c-0.4,0.1-1.6,0-2.8-0.3c-2.6-0.7-3.8-0.4-4.2,1.1c-0.4,1.6,0.3,3.2,2.6,5.9c2,2.3,2.2,3.1,1.4,3.6c-0.8,0.5-4.6-0.8-4.9-1.6
		c-0.1-0.4-0.9-1.5-1.7-2.4c-1.4-1.5-1.5-1.5-2.1-0.7c-1.3,1.8-0.4,5.2,2.1,7.8c2,2.1,3.1,5.1,2.5,6.7c-0.7,1.8-1.7,2-3.3,0.6
		c-0.8-0.7-2.1-1.4-3-1.7c-1.3-0.4-1.7-0.9-2.3-2.5c-0.6-1.9-1.9-3.2-2.5-2.6c-0.2,0.2-0.4,1.2-0.5,2.3c-0.2,1.5,0.2,3.2,1.5,6.7
		c0.9,2.6,2,4.9,2.3,5.1c0.3,0.2,1.7,0.4,3.1,0.4c2,0,2.7,0.2,3.6,1.1c1.3,1.4,3.3,7.4,3.1,9.5c-0.2,2.2,0.4,2.6,0.9,0.6
		c0.4-1.6,0.5-1.6,0.5-0.3c0,0.7-0.6,2.1-0.9,2.6c-0.6,1.1,0.7,4.4,1.6,4.4c1.1,0,1.2,0.9,0.9,2.1c-0.2,1,0,1.8,1.3,2.4l1.7,0.3
		l0.2,3.5l0.3,3.7l3,4.2c1.7,2.3,4,5.3,5.2,6.7c2.9,3.2,3.4,5.6,1.8,8.7l-1,2l2,2.1l1.7,2.1l0.2,4.1c0.2,4-0.3,3.1-1.5,4.2
		c-1,0.9-0.9,1.9-0.9,3.7c0,2.1-1.3,1.1-2.6,3.4c-0.6,1.1-0.2,1.9,0,2.3c0.1,0.4,0.3,0.9,0.3,1.1c0,0.2,0.8,1.6,1.4,1.3
		c0,0,1.8,0,2.3-0.3c1.5-0.9,3.4,2.2,3.4,4.6c0,1.7,0.1,1.9,1.4,2.2c1.4,0.3,2.2,1.1,4.4,4.3c0.6,0.8,1.9,2.6,3,3.9l2,2.4v4.2v4.2
		l2.2,1.4c2.7,1.7,2.9,1.7,4.5,0.4c0.8-0.6,1.6-0.9,2.2-0.7c1.4,0.4,3.6,4.1,4.7,7.9c0.9,2.9,1.1,3.2,2.7,3.8
		C758.5,162,758.9,161.8,758.9,160.4z"/>
</g>
</svg>
