<?xml version="1.0" encoding="utf-8"?>
<!-- Generator: Adobe Illustrator 18.0.0, SVG Export Plug-In . SVG Version: 6.00 Build 0)  -->
<!DOCTYPE svg PUBLIC "-//W3C//DTD SVG 1.1//EN" "http://www.w3.org/Graphics/SVG/1.1/DTD/svg11.dtd">
<svg version="1.1" id="Layer_1" xmlns="http://www.w3.org/2000/svg" xmlns:xlink="http://www.w3.org/1999/xlink" x="0px" y="0px"
	 viewBox="0 0 960 560" enable-background="new 0 0 960 560" xml:space="preserve">
<g id="Greenland">
	<g id="path27138">
		<path fill="#B3B3B3" d="M263.4,85.1l9.7-9c0,0,0-3.8-1.1-4.2c-1.1-0.3,1.7-2.3,1.7-2.3l3.2-0.1l3.6-1.6l1.7-2.3
			c0,0,9.2-4.6,10.9-4.3c1.7,0.3,4,2,4,2l2.1-0.3l3.2-2.3l6.8-2.8l13.4-8.3l2.5-0.3l3.6,0.5l1.9,0.7l3.2,0.5h1.9l11.8,1l2.2,0.3
			l7.1,6.6l4.8-0.1l3.8-2l5.3-2l-2.5,3.5l-4.6,5.4c0,0-2.2,4.9-2.1,5c0.4,0.1,1,4.2,1,4.2s-0.7,6.1-0.4,6.5c0.4,0.3,2.2,3.4,2.2,3.4
			l-2.7,3.5l0.2,2.2l-2.5-0.1l-3.2,2.6l1.4,3.9l5.6,5.1l-4.6,1.5l-8.2,0.8l-5,2l-6.1,5.1l-7.1,5.8l-8.1,3.5c0,0-3.2,1-4.2,3
			c-1,2-5,10.2-5,10.2l-1.5,5.1c0,0-0.6,4.2,0,3.7c0.6-0.3-1.9,1.2-1.9,1.2l-3.2-1.6l-7.1-5.1l-5-3.5l-1-3.8l-2.7-7.8l-0.6-1.6
			l2.5-2.3l1.4-3.8l-3.8-4.6l0.2-0.5l0.6-0.1c0,0,0.7-1.5,0.4-2.3c-0.2-0.8-1.1-2.8-1.1-2.8l-2.2-3.9c0,0-3.5-5.1-6.7-6.4
			c-3.2-1.2-5.6-5-5.6-5l-2.9-1.6l-2.2,0.1l-1.5,0.8l-0.6,0.1l0.6-0.5l-2.5,0.1L263.4,85.1z"/>
		<path fill-opacity="0" stroke="#000000" stroke-width="2.000000e-03" d="M263.4,85.1l9.7-9c0,0,0-3.8-1.1-4.2
			c-1.1-0.3,1.7-2.3,1.7-2.3l3.2-0.1l3.6-1.6l1.7-2.3c0,0,9.2-4.6,10.9-4.3c1.7,0.3,4,2,4,2l2.1-0.3l3.2-2.3l6.8-2.8l13.4-8.3
			l2.5-0.3l3.6,0.5l1.9,0.7l3.2,0.5h1.9l11.8,1l2.2,0.3l7.1,6.6l4.8-0.1l3.8-2l5.3-2l-2.5,3.5l-4.6,5.4c0,0-2.2,4.9-2.1,5
			c0.4,0.1,1,4.2,1,4.2s-0.7,6.1-0.4,6.5c0.4,0.3,2.2,3.4,2.2,3.4l-2.7,3.5l0.2,2.2l-2.5-0.1l-3.2,2.6l1.4,3.9l5.6,5.1l-4.6,1.5
			l-8.2,0.8l-5,2l-6.1,5.1l-7.1,5.8l-8.1,3.5c0,0-3.2,1-4.2,3c-1,2-5,10.2-5,10.2l-1.5,5.1c0,0-0.6,4.2,0,3.7
			c0.6-0.3-1.9,1.2-1.9,1.2l-3.2-1.6l-7.1-5.1l-5-3.5l-1-3.8l-2.7-7.8l-0.6-1.6l2.5-2.3l1.4-3.8l-3.8-4.6l0.2-0.5l0.6-0.1
			c0,0,0.7-1.5,0.4-2.3c-0.2-0.8-1.1-2.8-1.1-2.8l-2.2-3.9c0,0-3.5-5.1-6.7-6.4c-3.2-1.2-5.6-5-5.6-5l-2.9-1.6l-2.2,0.1l-1.5,0.8
			l-0.6,0.1l0.6-0.5l-2.5,0.1L263.4,85.1z"/>
	</g>
</g>
<g id="NorthWestTerritory">
	<path id="path11771" fill="#999999" d="M239.7,161.6c1.7-2.3,6.7-7.2,8.6-7.8c2.1-1,3.5-0.8,1.5,0.1c-4,2-11.8,9.6-9.7,9.6
		c0.2,0,1.1-0.8,1.9-2c1.7-2.3,6.7-6.5,8.6-7.2c0.6-0.1,1.9-0.3,2.9-0.3s1.9-0.1,2.2-0.3c1-0.5,1.7-2.3,1.7-3.9
		c0-2.8,3.1-4.6,7.2-4.6c1.7,0,2.5-0.3,6-3c4.6-3.5,4.7-3.9,5.7-6.5l0.6-2l0.4,1.3l0.4,1.3l0.2-1.2c0-0.7,0.4-1.5,1-1.6
		c1-0.5,1-0.5,0-0.5c-0.6,0-1.1-0.1-1.5-0.1s-1.1-1-1.9-2c-1.9-2.8-4-3-10.2-0.3c-4,1.6-5.3,1.5-7.4-2c-0.7-1.3-2.1-5.8-2.7-9
		c-0.4-1.6,0.7-3.7,3.5-6.6c1.9-2.2,3.5-4.6,2.9-5.1s-5.6,0.3-7.2,1.3c-1,0.5-2.7,2.3-3.8,3.9s-2.9,3.7-3.8,4.5
		c-1.5,1.5-1.5,1.6-1.5,7.2c0,4.9-0.2,5.4-1,6.1c-1.4,1-2.2,0.5-4.2-2c-1-1.2-1.9-2.7-2.5-2.8c-1.5-1.3-3.1,0.5-2.9,3
		c0.2,1.9-1.1,3.5-3.1,3.5c-1.7,0-7.8-1.5-9.9-2.6c-1.1-0.5-1.5-0.5-3.1,0.3c-1.4,0.8-1.7,1.5-2.1,3c-0.2,1-0.6,2.2-1,2.3
		c-0.6,0.5-7.4,1-9.7,0.7c-1-0.1-2.7-1-3.8-1.9c-3.6-2.8-5.6-4.2-7.7-5.3c-1.7-1-2.1-1-2.7-0.5c-0.4,0.3-1.4,0.7-2.2,0.7
		c-2.2,0-4-1.9-5.3-5.4c-0.4-1-1.4-1-1.4-0.1c0,0.8-2.5,1.5-3.2,0.8c-1.1-1-2.7-0.5-5.7,1.6c-3.8,2.8-6.8,3.7-13.2,3.5
		c-2.5,0-5.6,0.1-6.5,0.3c-1.7,0.3-1.9,0.1-3.1-0.8c-0.6-0.7-1.1-1.5-1.1-1.6c-0.2-0.5-8.8,0.5-8.8,1.2c0,0.3,2.7,0.1,6.1-0.3
		c1.4-0.3,1.7-0.1,2.7,1c1.4,1.6,4,2.2,6.1,1.3c1-0.3,2.1-0.5,3.1-0.3c2.7,0.5,6.1,0.5,8.8-0.1c3.2-0.8,4.2-1.5,7.1-3.5
		c2.2-1.9,2.2-1.9,4.2-1.3c1.1,0.3,2.5,0.3,2.9,0.3c0.4-0.1,1-0.1,1,0.1c0,0.7-2.2,0.7-3.8,0c-1.1-0.5-1.5-0.3-3.8,1.5
		c-3.8,3.1-6.3,3.8-13,3.9c-3.2,0-6.8,0.1-8.4,0.3c-2.2,0.3-2.7,0.1-3.8-0.7c-0.6-0.5-1.1-1.2-1.4-1.5c-0.2-0.3-1.4-0.3-4-0.1
		c-4.2,0.3-4.2,0.3-4.2,5.7c0,2.6-0.2,3.7-1,4.5c-0.7,1-1,2.3-1.1,10.2c-0.2,8.7-0.2,9.2,1,10.2c1.1,1,1.1,1,18.5,1
		c15.9,0,17.6,0.1,18.9,0.8c1.1,0.8,3.6,0.8,29.5,1c23,0.1,28.4,0.3,29.5,0.8C237.7,163.8,238,163.7,239.7,161.6z"/>
</g>
<g id="Venezuela">
	<path id="path12167" fill="#C8BEB7" d="M244.4,375.9c1-1.2,1.1-3.7,0.6-5.1c-0.7-2-0.7-4.9,0.2-6c1-1.2,3.8-2.3,5.6-2.3
		c0.7,0,2.2,0.7,3.2,1.5c1.5,1.2,2.2,1.5,4,1.5c1.1,0,2.7-0.3,3.6-0.5c1.4-0.5,1.4-0.5,1.1-3.5c-0.4-3.9,0.2-4.6,4-3.8
		c2.7,0.5,2.7,0.5,4.7-1c3.1-2.2,4.3-2.6,6-1c0.6,0.7,1.4,2.2,1.5,3c0.7,3.9,4.2,5.3,12.4,4.5c6.1-0.5,8.9-1.5,13-4.2
		c2.7-1.9,5.6-5.3,5-6.1c-0.7-1-3.5-1.5-9.6-1.5c-6.1,0-6.3,0-8.9-1.5c-1.5-0.8-3.1-1.6-3.5-2c-1.5-1-8.8-7.3-9.7-8.5
		c-1.7-2.2-4.6-2.7-13.9-2.8l-8.4-0.1l-4.6-2.2c-2.5-1.2-5.6-2.7-6.7-3.5c-2.2-1.3-3.8-1.5-5.6-0.1c-0.4,0.3-2.2,1.2-3.8,2
		c-6.8,3.4-7.2,3.5-10.7,7.8c-1.7,2.3-4.2,4.9-5.3,5.4c-2.5,1.6-3.2,3-2.5,5.1c0.4,0.8,0.6,2.8,0.6,4.3c0,2.3-0.2,2.8-1.4,3.8
		c-0.7,0.7-1.9,1.5-2.5,1.6c-0.6,0.1-1,0.7-0.6,0.8c0.6,0.5,4-1.6,4.7-3.1c1-1.9,1.1-4.9,0.2-7.8c-0.4-1.6-0.4-2.2,0.4-3.1
		c0.4-0.7,1.5-1.5,2.2-2c0.7-0.5,2.9-2.6,4.6-4.6c2.9-3.7,3.2-3.9,7.8-6.4c2.7-1.3,5.7-2.8,6.7-3.5c2.2-1.2,2.9-1.2,4.7,0.1
		c1.4,1,8.4,4.2,12,5.7c1.1,0.5,1.1,0.5-0.6,0.3c-1.1-0.1-3.5-1-5.2-1.9c-1.7-0.8-3.2-1.5-3.5-1.5c-0.2,0-1.4-0.5-2.5-1.3
		c-2.2-1.3-3.6-1.6-4-1c-0.2,0.1-1.9,1.2-4,2.2c-6.3,2.8-7.8,3.8-9.9,7c-1.1,1.6-3.5,4.2-5.2,5.4l-3.1,2.7l0.6,3.5
		c0.4,2,0.4,4.2,0.2,5c-0.4,1.5-3.8,5.1-5,5.1s3.6,3.7,6.1,4.9c1.4,0.7,3.8,1.9,5.2,2.7c1.4,0.8,4.2,2.2,6.5,3
		c2.2,0.8,5.2,2,6.7,2.7C240.6,377,243.6,377,244.4,375.9z"/>
</g>
<g id="Peru">
	<path id="path12223" fill="#CCCCCC" d="M299.3,448.7c1.9-1,3.6-2.2,3.6-2.6c0-0.7-2.2-5.8-3.8-8.5c-1-1.9-1.5-2.3-3.6-2.8
		c-2.1-0.7-2.5-1-3.2-2.7c-0.4-1-0.7-3-0.7-4.6c0-2.3-0.4-3.4-2.2-6.8c-1.1-2.2-3.5-5.1-5-6.6c-1.4-1.5-3.1-3.4-3.5-3.9
		c-0.6-1-1.1-1.2-2.7-1.2c-2.9,0-9.2-3.1-13.8-6.6l-3.8-3l-3.1,1c-1.7,0.5-4.6,1.5-6.3,2c-3.6,1.2-7.4,1-9.2-0.5
		c-1.4-1.2-1.1-2.6,0.7-4.2c1-0.8,1.9-1.9,1.9-2c0-0.8-1.7-0.5-3.8,0.7c-1.1,0.5-2.2,1-2.7,0.8c-0.4-0.1-1.7-1.2-2.9-2.6
		c-1.1-1.2-3.1-2.7-4.2-3.4c-2.7-1.3-3.2-2.7-1.9-5.7c0.7-1.9,1.7-2.8,5.2-5.3c2.2-1.6,4.2-3.4,4.2-3.4s-1.7-1-3.8-1.6
		c-7.4-2.8-16.3-7.3-19.5-10.2l-2.1-1.6l-1.7,2c-1,1.2-1.7,2-1.9,2c-0.4,0,0.6-1.6,1.9-3.4c0.6-0.7,1-1.5,0.6-1.5
		c-0.4-0.3-1.1,0.3-2.1,1.6c-0.4,0.5-1.7,2.6-3.1,4.5l-2.5,3.5l-0.4,6.1c-0.2,3.5-0.4,6.8-0.2,7.7c0.4,1.5,2.1,3.4,6.8,7
		c2.5,2,3.2,3,6.8,10.2c1.4,2.7,2.5,3.9,6.3,7.3c3.1,2.7,6.3,4.9,8.9,6.1c3.1,1.5,5.7,3.4,8.9,6.4c2.7,2.3,4.6,3.8,4.3,3.4
		c-1-2.2-9.9-9.3-13.9-10.8c-1.1-0.5-1.9-1-1.9-1.2s0.2-0.3,0.2-0.3c0.6,0,6.1,3,8.4,4.9c6.3,4.6,8.1,6.4,8.1,8.1
		c0,0.7,10.5,9,12,9.6c0.2,0.1,1-0.7,1.5-1.6c1.1-2,2.7-2.8,4.2-2.3c0.4,0.1,1.7,0.7,2.7,1.2s3.1,1.2,4.7,1.3
		c5.3,0.5,5.6,0.7,7.1,2.7c1.7,2.3,5.3,3.8,9.2,3.8c1.5,0,2.7,0.3,3.1,0.7c1.1,1.2,1.5,6,0.6,7.8c-0.4,0.8-0.7,1.6-0.7,2
		C291.5,452.4,295.7,450.8,299.3,448.7z"/>
</g>
<g id="Argentina">
	<path id="path12297" fill="#B3B3B3" d="M274.6,550.9c1.5-0.5,3.5-1.2,4.2-1.5l1.4-0.7l-2.2-1.2c-3.2-1.9-6.7-4.6-7.2-6.5
		c-0.4-1-0.4-2.2,0-4.2c1.1-5.8,3.1-9.6,5.3-11.9l1.4-1.2l-2.7-1.3c-1.5-0.8-3.1-2-3.5-2.6c-0.6-1-0.4-1.5,1.7-3.9
		c1.1-1.5,2.7-3.5,3.5-4.2c1.1-1.3,1.1-1.5,0.4-5c-0.4-2-1-3.9-1.1-4.5c-0.6-1.3,1-2.3,3.5-2.3c3.5,0,4.6-0.7,5.3-3
		c0.7-2.3,1.1-2.7,4.6-3c3.2-0.3,7.2-2.6,9.7-5.1c3.5-3.5,3.5-3.7,1.9-6.5c-1.7-2.8-1.4-3.7,1.1-3.7c2.9,0,6-1.9,8.4-4.9
		c1-1.2,1-1.5,0.4-1.5c-0.4,0-0.7,0.1-0.7,0.5c0,0.3-1,1.3-2.2,2.6c-1.7,1.5-2.7,2.2-4.2,2.3c-5.2,0.7-6,1.5-3.6,4.9
		c1.1,1.6,1.1,2.2,0.6,3.4c-0.4,0.8-2.1,2.6-3.8,3.9c-3.1,2.6-6,3.5-9.2,3.5c-1.9,0-3.5,1.2-3.5,2.7c0,2-1.1,2.8-3.8,3.1
		c-1.1,0.1-2.9,0.5-3.5,0.8c-1.1,0.5-1.4,0.8-1.1,3.5l0.2,3l-0.6-2.6c-0.6-2.3-0.6-2.7,0.2-3.7c0.7-0.8,1.7-1.2,4-1.5
		c2.7-0.3,3.2-0.5,3.8-1.5c0.4-0.7,0.6-1.5,0.6-2c0-1.2,1.7-2.2,4.3-2.3c3.8-0.3,6.8-2,9.7-4.9l2.7-2.7l-1.1-2.3
		c-1.9-3.5-1.4-5.4,1.7-5.4c1,0,2.2-0.3,3.2-0.7c1.7-0.7,5.6-3.7,5.6-4.5c0-0.1-0.6-1-1.4-1.9c-1-1-1.4-2-1.4-3.1
		c0-1.5-0.2-1.9-1.4-2.2c-1.5-0.5-3.6-3.4-4.2-5.3c-0.4-1.3-0.4-1.5-1.9-1.2c-1.1,0.1-1.7,0.1-2.1-0.8c-0.7-1.5,0.2-3,3.5-6.1
		c1.4-1.2,2.2-2.3,2.2-2.6c0-0.1-1,0.1-1.9,0.8c-6.5,3.5-9.6,4.2-11.3,2.8l-1.1-1l1.1-2.6c0.7-1.9,1-3,0.7-4.6
		c-0.4-2.2-0.6-2.2-3.2-2c-0.6,0-2.9-0.5-4.7-1.2c-2.7-1-3.6-1.6-4.6-3.1c-1.1-1.6-1.4-1.9-5-2.2c-1.9-0.1-4.2-0.5-4.7-0.8
		c-0.6-0.3-1.7-1-2.5-1.3l-1.4-0.8l-1,1.6c-1,1.5-2.9,2.8-4.2,2.8c-0.2,0-2.9-1.9-6-3.9c-3.6-2.7-5.6-3.8-6-3.5
		c-0.2,0.3-0.4,0.1-0.4-0.5c0-1.5-1-1.6-1.1-0.3c-0.4,2,0.6,12.6,1.7,17.2c1.4,5.8,1.4,7-0.4,9.5c-1.7,2.8-1.7,6.5,0.4,9.3
		c1.4,1.6,1.4,2.2,1.4,6.5c0,4.5,0,4.6-1.5,5.8c-1,0.7-2.2,2.3-3.5,3.9c-1.9,3-2.2,4.9-1.1,7.8c0.4,1,1.4,4.6,2.2,8
		c1.4,5.3,1.7,6.4,2.7,6.6c0.6,0.1,1.7,1,2.2,1.6c1.4,1.5,1.5,5.8,0.2,8.3c-0.4,0.8-1.7,3.1-2.7,5c-1,1.9-1.7,3.5-1.4,3.7
		c0.2,0.3,1.1,0.8,1.9,1c3.1,1,3.2,1.6,3.2,5.3c0,5.4,1,8,4,11.6c1.5,1.6,3.5,3.7,4.2,4.2c0.7,0.5,2.5,2.2,3.8,3.7
		C267.4,551.8,269.2,552.5,274.6,550.9z"/>
</g>
<g id="Brazil">
	<g id="path27119">
		<path fill="#B3B3B3" d="M310.9,354.1l14.5,7.3c0,0,6.3,7,11.3,11c1.7,1.5,9.6,1.2,9.6,1.2l16,5.4c6.1,2.8,6.5,5.7,8.1,8.5
			c0.6,4.6-3.8,5.4-5.2,8c-5,5.3-7.1,11.1-7.1,11.1l-6.3,11.6l-10.2,17.9c0,0-17.7,6.5-17.6,8.3c0.4,1.9-14.6,26.7-14.6,26.7
			c-1.4-2-3.2-3-2.7-6.5c-1.1-0.8-5.3-2.3-5.3-7c-4-1-3.1-0.3-3.6-1c0.2-3.4,3.8-5.8,6-8.7c-1.7-11-7.1-13.3-8.6-14.8
			c-0.6-0.3-0.6-0.3-1.9-1.6c-1.1-0.3-1.1-7.5-1.1-7.5s-1.7-4.6-12.8-16.9c1.1,2.2-11,0.1-17.7-8.8c-1.4-2-14.1,6.5-19.6,2.8
			c-2.1-1.5,2.1-5.8,2.9-5.8c-0.2-1.2-1-0.8-1.4-0.8c-2.7,1.2-6,3.5-7.8,0.5l-7.4-6.1c0.4-3,3.5-7.8,10.7-11.9
			c1.7,0,4.6,1.6,6.3-1.2l-0.2-4.6c-0.7-2-0.6-3.7-0.2-5.4c2.2-2.7,4.7-2.8,6.1-2.3l5.3,2.6c0,0,3.1,0.7,6.8-1.6v-6.4l5,1l2.5-1
			c1.1-1.6,2.2-3.4,4.3-2.7c0.6,0.5,1.1,1,1.7,1.6l2.1,5l2.1,1.5l4.3,1l3.8-0.1c7.2-0.5,9.9-1,13.2-2.8L310.9,354.1z"/>
		<path fill-opacity="0" stroke="#000000" stroke-width="2.000000e-03" d="M310.9,354.1l14.5,7.3c0,0,6.3,7,11.3,11
			c1.7,1.5,9.6,1.2,9.6,1.2l16,5.4c6.1,2.8,6.5,5.7,8.1,8.5c0.6,4.6-3.8,5.4-5.2,8c-5,5.3-7.1,11.1-7.1,11.1l-6.3,11.6l-10.2,17.9
			c0,0-17.7,6.5-17.6,8.3c0.4,1.9-14.6,26.7-14.6,26.7c-1.4-2-3.2-3-2.7-6.5c-1.1-0.8-5.3-2.3-5.3-7c-4-1-3.1-0.3-3.6-1
			c0.2-3.4,3.8-5.8,6-8.7c-1.7-11-7.1-13.3-8.6-14.8c-0.6-0.3-0.6-0.3-1.9-1.6c-1.1-0.3-1.1-7.5-1.1-7.5s-1.7-4.6-12.8-16.9
			c1.1,2.2-11,0.1-17.7-8.8c-1.4-2-14.1,6.5-19.6,2.8c-2.1-1.5,2.1-5.8,2.9-5.8c-0.2-1.2-1-0.8-1.4-0.8c-2.7,1.2-6,3.5-7.8,0.5
			l-7.4-6.1c0.4-3,3.5-7.8,10.7-11.9c1.7,0,4.6,1.6,6.3-1.2l-0.2-4.6c-0.7-2-0.6-3.7-0.2-5.4c2.2-2.7,4.7-2.8,6.1-2.3l5.3,2.6
			c0,0,3.1,0.7,6.8-1.6v-6.4l5,1l2.5-1c1.1-1.6,2.2-3.4,4.3-2.7c0.6,0.5,1.1,1,1.7,1.6l2.1,5l2.1,1.5l4.3,1l3.8-0.1
			c7.2-0.5,9.9-1,13.2-2.8L310.9,354.1z"/>
	</g>
</g>
<g id="CentralAmerica">
	<path id="path12123" fill="#B3B3B3" d="M216.3,347.6c0.6-1,1.7-2.2,2.7-2.8c1.5-0.8,4.6-4.3,4.6-5.1c0-0.1-1.7-0.3-3.8-0.5
		c-5.2-0.3-5.6-0.5-5.6-2.6c0-1.2,0.4-2.2,1.5-3.4c1-0.8,1.9-2.6,2.7-3.7c0.6-1.2,1.7-2.7,2.7-3.4c1-0.7,1.5-1.6,1.5-2.2
		c0-0.6-1.4-2-2.9-3.5c-4.3-3.8-4.3-5.3-0.2-7.2c1.1-0.5,2.5-1.3,3.1-1.9c0.7-0.8,1-4.2,0.4-6.5c-0.4-1.3-0.6-1.5-2.2-1.5
		c-2.2,0-5.3,1.2-6.7,2.7c-0.4,0.5-1.1,1.6-1.4,2.6c-0.4,1-1,1.6-1.1,1.9c-1.1,0.3-9.6-0.1-9.9-0.7c-0.4-0.1-0.7-1.5-1-2.8
		s-0.4-3.1-0.6-3.9c-0.2-1.3,0.2-2.3,1.4-4.5c1.4-2.2,1.5-3,1.1-3.9c-0.2-0.8-0.4-1.6-0.2-2.3c0.4-1-0.6-1.2-1.1-0.1
		c-0.2,0.3-0.4,0.7-0.6,0.5c-0.2-0.1,0-0.7,0.2-1.2c0.4-0.8,0.2-1.3-1.1-3.4c-1-1.3-1.9-2.8-2.1-3.1c-0.2-0.7,1.4,0.7-0.6-1.2
		l-2.5-2.3l-2.7-2.2c-2.7-2.2-0.2-2.2-11.3-1.6c-3.1,0.1-6-0.1-8.8,0c-1.1-0.7-5-3.5-3.8-2.6c0,0-2.9-2.7-5.2-3
		c-1.4-0.1-3.1-0.5-3.6-0.8c-0.6-0.3-2.2-0.5-2.2-0.3s0.4,0.1,0.2,0c-0.2-0.3-1.9-0.3-2.2-0.8c-0.6-0.3,0.6-0.1,1.7,1.6
		c1.1,2,1.5,3.5,1.7,6.6c0.6,7,1.7,10.2,4.6,14.5c4,5.7,4.2,6.4,5.3,8.7c0.6,1.2,1.5,3,2.2,3.9c3.2,4.6,2.9-1.2-0.6-8.5
		c-2.1-4.3-5.2-11.6-6.5-15.8c-0.6-1.6-0.2-2.7,1.4-2.7c1.1,0,2.5,1.6,3.2,3.8c0.2,0.8,1,2.3,1.9,3.4c0.7,1.2,2.5,3.9,3.6,6.5
		c1.4,2.7,3.1,5.1,4.2,6.4c3.5,3.4,4.2,5.3,4,10.3c-0.2,4.2,0,4.5,1.1,5.4c0.7,0.7,3.8,2,6.8,3c3.1,1,6.3,2.6,7.4,3.1
		c1.7,1.2,1.9,1.5,1.9,5c0.2,3.4,0.4,3.7,1.4,3.9c1.7,0.3,3.2,3.5,3.6,7.5c0.4,3.5,2.1,7.3,4,8.8c1,0.8,6.7,2.8,7.7,3
		C214.9,349.2,215.6,348.4,216.3,347.6z"/>
</g>
<g id="EasternUnitedStates">
	<path id="path12031" fill="#B3B3B3" d="M273.5,299c3.1-1.6,3.6-3.4,3.2-8.3c-0.2-2.3-0.6-5.3-1.1-6.6c-0.5-1.3-0.7-2.8-0.6-3.7
		c0.6-2.2,3.8-5,9.3-8.3c4-2.3,5.7-3.7,7.2-5.8c1.7-2.2,1.9-3,1.7-4.2c-1.1-5.4-1.1-5.1,2.5-8.8c1-1,2.7-2.7,3.8-3.8
		c2.2-2,6.3-9,6.3-10.8c0-2,3.6-6.6,5.2-6.6c0.4,0,0.6-0.1,0.6-0.5c0-0.8-1.5-0.5-3.1,0.8c-2.1,1.9-3.2,3.4-3.6,5.4
		c-0.6,2.6-4.6,9.6-6,10.7c-1.9,1.5-7.4,7.3-7.7,8.7c-0.2,0.7,0,2.2,0.4,3.5c0.6,2.2,0.6,2.3-1,4.9c-1.5,2.3-6,5.7-10.3,7.8
		c-3.1,1.5-7.1,6-7.1,7.8c0,0.5,0.4,1.9,0.7,2.8c1,2.6,1.7,6.1,1.1,5.8c-0.4-0.3-1.7-4.6-2.2-8c-0.2-1.2,0-2.3,0.7-3.5
		c1.1-1.9,5.6-5.8,6.5-5.8c0.9,0,8.4-5.1,9.7-6.8c1.4-1.6,1.4-2.3,1-7c-0.4-2.8-0.7-2.2,7.2-10.3c2.7-2.7,4.2-5.1,5.3-8.7
		c1.7-5,2.5-6.1,4.6-7.8c1.1-1,2.7-1.6,3.2-1.6c1.9,0,3.8-4.6,1.5-7.5s-6.3-1.6-8.4,0.8c0,0-2.7,2.8-6.3,3.4c-4.6,0.5-7.7,0-9.7-1.6
		c-2.2-1.9-3.2-2.2-6.3-1.6c-2.1,0.3-3.1,0.8-6,3.4c-1.9,1.6-4.2,3.7-5.2,4.6l-1.5,1.6l2.5-1.2c1.4-0.7,3.1-1.6,3.8-2.3
		c1.1-1,6.1-2.7,8.1-2.7c1.4,0,1.9,2.2,1.4,4.3c-0.6,2.2-1,2.3-4.7,3c-2.7,0.5-3.1,0.8-4.2,2.3c-1.7,2.7-5.3,4.6-9.2,4.9
		c-2.5,0.1-3.1,0.1-4.2-1c-1.9-1.9-1.4-3.4,1.9-5c2.5-1.2,2.5-1.3,1.5-1.6c-1.1-0.3-3.8-4.6-3.8-6.1c0-0.8-0.2-0.8-1.1-0.1
		c-1,0.7-1.1,0.8-0.7,4.2l0.4,3.7l-2.2,1.2c-1.1,0.7-2.9,1.2-3.8,1.2c-1.4,0-1.7-0.1-1.9-1.5c-0.2-0.8-0.2-3.1,0.2-5.1
		c0.4-3,1-4.2,2.7-6.8c1.1-1.6,2.1-3.5,2.1-3.9c-0.2-0.5-1.5-1-5.3-1.5c-2.9-0.3-5.6-0.8-6.1-1c-1.4-0.5-1.1-2.2,0.6-4.6
		c1.9-2.7,1.9-1.5-2.5-2.2l-4-0.5l0.2,17.9l0.2,17.9l-1.9,2.2c-1,1.2-3.5,1-4.2,1.2c-0.6,0.1-6.7-0.1-6.7-0.1l-6.7,0.5l-1,3.9
		c-1,2.8,1.4,3.7-1.9,4.5c-1.4,0.3-3.2-0.1-3.6,0.7c0,0-1.9,0.3-2.5,1c-0.7,0.8-4.2,5.4-4.3,7.8l-1,4.2l-4.2,2l-1,3l0.2,2.3
		c0.4,2.7,8.8,4.3,10.3,6.4c1,1.5,2.1,2.8,2.2,3c0.1,0.2,1.9-0.7,3.8-1.6c5.2-2.8,10.2-4.6,13.4-4.5c5.2,0.3,6.5,0.1,10.3-0.8
		c4.7-1.2,5.2-1.2,3.1-0.1c-2.2,1-9.2,2-12.2,1.6c-4-0.3-11,2-16.6,5.4c-2.5,1.6-0.2,1.2,2.7-0.5c5.6-3.5,7.7-3.9,13.9-4.2
		c4.2,0,6.8-0.3,9.7-1.2l4-1l3.1,1.2c4.7,1.9,5.7,2,8.6,0.8c5.2-2.2,6.8-0.5,6.3,5.4c-0.4,3.8,0.6,8.5,2.1,10.2
		C268.5,300.6,271,300.3,273.5,299z"/>
</g>
<g id="WesternUnitedStates">
	<path id="path11997" fill="#808080" d="M201.9,281.6c-1-5.3-0.6-6.4,2.9-8.1c2.7-1.5,3.1-1.9,3.1-3.7c0-2.8,1-5.4,2.2-6.5
		c0.6-0.5,1.1-1.2,1.1-1.6c0-1,2.7-2.7,5-3.4c2.9-0.7,3.8-1.6,3.8-4.5c0-1.5,0.4-3,1.1-3.7c1-1,1.5-1,8.4-1h7.4l1.7-1.6l1.7-1.6
		v-18.3v-18.2h-44.7c-38.3,0-44.4,0.1-43.9,0.7c0.4,0.3,0.6,2,0.6,3.5c-0.2,2.8-0.4,2.8-3.1,4.3c-1.5,0.8-3.2,1.3-3.6,1.2
		c-0.4-0.1,0.6-0.8,2.2-1.5c1.7-0.8,3.2-1.9,3.6-2.3c0.6-1.2-0.2-4.5-1.1-5.3c-1.4-1.2-1.9-0.5-1,0.8c2.2,3.1,1,5.3-4.2,7
		c-1.9,0.5-1.9,0.7-1.9,4.2c0,2-0.2,5.3-0.2,7.5s-0.2,4.9,0,6c0,1.2-0.6,2.8-1.4,3.9c-1.9,2.8-2.7,7-1.9,12.5
		c0.6,4.9,1.7,8,3.8,10.3c0.6,0.8,1.7,2.2,2.1,3.1c0.4,1,1.1,2,1.7,2.2c1,0.3,1,0.1-4-7.7c-1.9-2.8-3.1-6.6-1.9-6.1
		c0.4,0.1,0.7,1.2,1.1,2.2c0.2,1,1.4,3.4,2.7,5.1c1.4,1.9,2.7,4.2,3.2,5.3c1,2.3,4.2,3.9,10.2,4.9c3.1,0.5,4.6,1.2,8.1,3.5l4.2,2.8
		h8.9h8.9l2.2,1.6c1.1,1,2.7,2.3,3.5,3.1c1.1,1.5,1.9,1.6,6,1.9C202.5,284.2,202.5,284.2,201.9,281.6z"/>
</g>
<g id="Quebec">
	<g id="path26414">
		<path fill="#CCCCCC" d="M279.5,223l4.2,0.3l1.4,0.1l1.7,0.1l1.7,0.8l2.1,1.2l1.7,1l1.9,0.5l2.5-0.1l2.7-0.5l1.4-0.7l1.1-0.8
			l1.4-1.5l1.1-1.9l1.4-1.2l3.6-1.5l1.1,0.5l1.9,1.2l1.1,1.2l1,2.2l0.4,2.3v2.3l-0.4,2.3l-0.6,1.6l0.2,1.6l1.4,4.2l0.6,0.8l-0.6,0.1
			l-0.7-0.1l-0.6-1.6l-0.6-2.6l-0.4,0.5l0.2,1.9l0.4,1.6l0.4,0.5l0.6,0.3l1,0.3h1l1.5-0.7l1-1l1.1-2l1.4-3.1l0.6-1.2
			c0,0,0.6-0.5,1.1-0.7c0.4-0.1,1.4-0.5,1.4-0.5l1.1-0.8l2.2-4.5l-0.2-0.8l-0.4-0.3l-1.4-0.1l-4.7-0.3c0,0-0.6-0.1-1.1-0.3
			c-0.6-0.1-0.2-2-0.2-2l-0.4-3.9l-0.2-1.4l-0.6-1.2c0,0-1.7-2.6-0.2-3.5c1.5-1,2.9-1.5,2.9-1.5s2.1-0.5,2.2-0.5c0.4,0,2.7,0,3.1,0
			c0.4,0.1,2.1-0.1,2.7-0.5c0.6-0.3,3.8-2.6,3.8-2.6l3.5-1.6l3.8-1.6l1.7-1.2l1.4-2l0.6-2.3l-0.2-1.5l-1-1.6l-1.9-2.2l-1.9-2.2
			l-1-1.9l-0.2-0.5l-0.6-1l-4.3-2.2c0,0-2.7-1.6-2.5-2.3c0.2-0.5-1-2.3-0.7-4.9c0.2-2.6-3.8-3.8-3.8-5.3c0-1.6-0.6-3.7-0.6-3.7
			s-1-1.5-2.9-0.7c-1.9,0.8-2.7,2.2-2.7,2.2l-1.4,1.6l-2.5,2.2c0,0,1.4-0.1,0,0c-1.4,0.1-1.7,0.7-2.5,0c-1-0.7-1.4-0.5-1-3.5
			c0.4-3,0.6-5.3,0.4-5.8c-0.2-0.5-1-2.8-1-2.8l-2.5-3.4l-1-1.2l0.4-0.3l1.7,1l1.4,0.8c0,0-3.5-3-3.2-3.7c0.2-0.7-0.6,1.2-1.4,0.3
			c-0.7-0.7,11.8-12.6,11.3-12.9c-0.4-0.1-0.2-1-0.2-1l-23.7,16.3l-1.4,8.3l-3.8,3.7l-0.6,3.8l2.1,6.8l-1.5,3l-3.5,2.7l-2.9,1.2
			l-1.5,2.8l0.2,3l0.4,6.1l-1,2L279.5,223z"/>
		<path fill-opacity="0" stroke="#000000" stroke-width="2.000000e-02" d="M279.5,223l4.2,0.3l1.4,0.1l1.7,0.1l1.7,0.8l2.1,1.2
			l1.7,1l1.9,0.5l2.5-0.1l2.7-0.5l1.4-0.7l1.1-0.8l1.4-1.5l1.1-1.9l1.4-1.2l3.6-1.5l1.1,0.5l1.9,1.2l1.1,1.2l1,2.2l0.4,2.3v2.3
			l-0.4,2.3l-0.6,1.6l0.2,1.6l1.4,4.2l0.6,0.8l-0.6,0.1l-0.7-0.1l-0.6-1.6l-0.6-2.6l-0.4,0.5l0.2,1.9l0.4,1.6l0.4,0.5l0.6,0.3l1,0.3
			h1l1.5-0.7l1-1l1.1-2l1.4-3.1l0.6-1.2c0,0,0.6-0.5,1.1-0.7c0.4-0.1,1.4-0.5,1.4-0.5l1.1-0.8l2.2-4.5l-0.2-0.8l-0.4-0.3l-1.4-0.1
			l-4.7-0.3c0,0-0.6-0.1-1.1-0.3c-0.6-0.1-0.2-2-0.2-2l-0.4-3.9l-0.2-1.4l-0.6-1.2c0,0-1.7-2.6-0.2-3.5c1.5-1,2.9-1.5,2.9-1.5
			s2.1-0.5,2.2-0.5c0.4,0,2.7,0,3.1,0c0.4,0.1,2.1-0.1,2.7-0.5c0.6-0.3,3.8-2.6,3.8-2.6l3.5-1.6l3.8-1.6l1.7-1.2l1.4-2l0.6-2.3
			l-0.2-1.5l-1-1.6l-1.9-2.2l-1.9-2.2l-1-1.9l-0.2-0.5l-0.6-1l-4.3-2.2c0,0-2.7-1.6-2.5-2.3c0.2-0.5-1-2.3-0.7-4.9
			c0.2-2.6-3.8-3.8-3.8-5.3c0-1.6-0.6-3.7-0.6-3.7s-1-1.5-2.9-0.7c-1.9,0.8-2.7,2.2-2.7,2.2l-1.4,1.6l-2.5,2.2c0,0,1.4-0.1,0,0
			c-1.4,0.1-1.7,0.7-2.5,0c-1-0.7-1.4-0.5-1-3.5c0.4-3,0.6-5.3,0.4-5.8c-0.2-0.5-1-2.8-1-2.8l-2.5-3.4l-1-1.2l0.4-0.3l1.7,1l1.4,0.8
			c0,0-3.5-3-3.2-3.7c0.2-0.7-0.6,1.2-1.4,0.3c-0.7-0.7,11.8-12.6,11.3-12.9c-0.4-0.1-0.2-1-0.2-1l-23.7,16.3l-1.4,8.3l-3.8,3.7
			l-0.6,3.8l2.1,6.8l-1.5,3l-3.5,2.7l-2.9,1.2l-1.5,2.8l0.2,3l0.4,6.1l-1,2L279.5,223z"/>
	</g>
</g>
<g id="Alaska">
	<g id="path27016">
		<path fill="#999999" d="M106.1,118.3l4.6,2.6l6.7,2.7l7.1,0.8l6.8,2.7l8.6,3.1c-0.2,3,0.4,7-1,8.8l-1.1,3.8l-0.2,13
			c0.6,1-0.2,1.9,0.2,2.8c0.6,1.2,0,0.8,0.6,1.2c1.1,0.8,1.5,4.5,2.2,4.5l1.9,2.7l-1,9.5l3.8,3.7l-3.8,6.4l-4.7-7.8l3.5,7.8v0.5
			l-2.7-3.7l-2.5-5.1l-0.2-0.8l-0.2-1l-1.5-1.5l-2.9-1.3l-2.5-1.2l-2.2-3.4l-1.4-1.5l-2.1-0.8l-4-0.5l-3.1-1.2l-3.8-3.1l-1.1-0.1
			l-2.5,2.7l-2.5,2.8l-3.8,2.2l-1.1,0.3l-0.4-2.2l-1.1-0.7l-1.7,0.3l-1.7,1.6l-1,2l0.4,0.8l-8.2,7.2l-3.1,2.2l-3.2,0.7l-1.7-0.1
			l-1.1-1.2l1.1-2l7.2-3.4l-4-5.8l-5.2-2.2l-1.9-3.1v-2.3l-4.3-4.3l-0.4-6l4.6-4.2h9.9l1.9-3.8c0,0-1.4-1.2-3.2-1
			c-1.9,0.1-8.4-0.5-8.4-0.5l-1.7-4.9c0,0,2.7-2.7,3.6-2.3c1,0.3,6.1,1,6.1,1l3.1,0.3c0,0,3.2,0.5,1.1-2.3c-1.9-2.8-5.3-4.9-5.3-4.9
			s-3.5-1.5-1.9-3c1.5-1.3,8.6,1.2,8.6,1.2s2.2,1.5,3.2-3C92.3,119.1,106.1,118.3,106.1,118.3z"/>
		<path fill-opacity="0" stroke="#000000" stroke-width="2.000000e-03" d="M106.1,118.3l4.6,2.6l6.7,2.7l7.1,0.8l6.8,2.7l8.6,3.1
			c-0.2,3,0.4,7-1,8.8l-1.1,3.8l-0.2,13c0.6,1-0.2,1.9,0.2,2.8c0.6,1.2,0,0.8,0.6,1.2c1.1,0.8,1.5,4.5,2.2,4.5l1.9,2.7l-1,9.5
			l3.8,3.7l-3.8,6.4l-4.7-7.8l3.5,7.8v0.5l-2.7-3.7l-2.5-5.1l-0.2-0.8l-0.2-1l-1.5-1.5l-2.9-1.3l-2.5-1.2l-2.2-3.4l-1.4-1.5
			l-2.1-0.8l-4-0.5l-3.1-1.2l-3.8-3.1l-1.1-0.1l-2.5,2.7l-2.5,2.8l-3.8,2.2l-1.1,0.3l-0.4-2.2l-1.1-0.7l-1.7,0.3l-1.7,1.6l-1,2
			l0.4,0.8l-8.2,7.2l-3.1,2.2l-3.2,0.7l-1.7-0.1l-1.1-1.2l1.1-2l7.2-3.4l-4-5.8l-5.2-2.2l-1.9-3.1v-2.3l-4.3-4.3l-0.4-6l4.6-4.2h9.9
			l1.9-3.8c0,0-1.4-1.2-3.2-1c-1.9,0.1-8.4-0.5-8.4-0.5l-1.7-4.9c0,0,2.7-2.7,3.6-2.3c1,0.3,6.1,1,6.1,1l3.1,0.3
			c0,0,3.2,0.5,1.1-2.3c-1.9-2.8-5.3-4.9-5.3-4.9s-3.5-1.5-1.9-3c1.5-1.3,8.6,1.2,8.6,1.2s2.2,1.5,3.2-3
			C92.3,119.1,106.1,118.3,106.1,118.3z"/>
	</g>
</g>
<g id="Alberta">
	<path id="path11873" fill="#808080" d="M148,207.8c-0.4-0.5-0.7-1.3-0.6-1.6c0.2-0.3,0.7,0.1,1.4,1.2l1.1,1.6h27h27l0.4-6.5
		c0.2-3.5,0.6-10.3,0.6-15.2c0.4-7.8,0.4-8.7,1.5-10.3c1.1-1.5,1.1-2.3,1.1-8.5c0-5.1,1.4-6.5,1-6.5c0,0-7.1,0.1-16.3-0.1
		c-12-0.3-15.1-0.5-16.4-1.2c-1.4-0.5-12.2-0.8-23.3-0.8h-13.5l0.4,1.6c0.2,1,1,2.3,1.7,3.1c1.5,1.5,1.5,1.5,1.1,6l-0.4,4.5l1.5,1.5
		c3.1,2.8,3.1,2.8,1.7,4.9c-0.6,1-1.9,3-2.9,4.3c-1.7,2.3-1.7,2.3-1,4.2c1.1,2.8,2.2,4.5,4.7,7c1.9,2,2.2,2.7,2.2,4.2
		c0,1-0.2,2.3-0.6,3c-0.4,0.8-0.4,0.3-0.2-1.2c0.4-2.8-0.6-4.6-3.2-6.6c-1.1-0.8-2.2-2.3-3.2-4.5c-0.7-1.6-1.7-3-1.9-3
		c-0.4,0.3,1.1,4.2,2.5,6c0.4,0.5,1.5,1.6,2.2,2.2c2.2,1.6,2.7,3,1.9,6.1c-0.6,2.6-0.6,2.8,0.4,3.9c0.6,0.7,1.1,1.2,1.4,1.2
		C148.8,208.9,148.4,208.5,148,207.8z"/>
</g>
<g id="SouthAfrica">
	<g id="path7935">
		<path fill="#999999" d="M513.4,372.6h-1.5l-1.7,0.5l0.2,1.6l0.7,2.7l0.6,2.2l1.9,2l2.1,2.2v1.5l-1,1l-1.1,1l-0.4,0.5
			c0,0-0.2,0.3-0.4,0.7c-0.2,0.3,0.2,1,0.2,1l0.6,1l0.4,0.3l0.7,0.8l0.4,0.5l0.2,0.5l0.2,0.3v0.3v0.3v0.1l-0.2,0.3l-0.2,0.3v0.1
			l-0.2,0.1l-0.2,0.3l-0.2,0.1l-1.1,1.6l-0.6,0.7l-0.4,0.3l-0.4,0.5l-0.2,0.3l-0.4,0.5l-0.4,0.5l-0.2,0.5c0,0-0.2,0.1-0.2,0.5
			c0,0.3,0.2,0.7,0.2,0.7l0.2,0.5c0,0,0,0.3,0,0.5s0,0.1-0.2,0.5c-0.2,0.3-0.2,0.5-0.2,0.5l-0.4,0.5l-0.4,0.3l-0.4,0.3l-0.4,0.5
			l-0.4,0.3l-0.4,0.5L508,406l-0.2,0.3l-0.2,0.3l-0.2,0.3v0.3v0.3v0.5v0.5v0.5l0.2,1l0.2,1l0.2,1.3l0.2,0.3l0.4,1.2l0.4,0.7l0.6,0.8
			l0.6,0.7l5.2,7l0.4,14.5c0,0,3.5,9.3,6.8,13.3c3.5,3.9,3.2,6.6,3.2,6.6l-1.5,2.8c0,0-1.9,7.3,9.2,6.1c11.3-1.2,15.5-3.1,15.5-3.1
			l8.2-6.8l4.2-2.3l1.9-2.8l1.7-3.1l2.2-1.6l1.9-6.4l4-2.8l3.5,0.5l3.2-3.4l22-13.7l-0.6-24.5l-8.2-7.8l-5,3.4l-5.3,0.1l-2.9,2.6
			l-1.1,10c0,0-9.6,1.5-8.4-2.8c1-4.3,1.1-4.9,1.1-4.9l-1.4-7.5c0,0-6-2-5.6-3.4c0.4-1.2,1-1.5,1-1.5s0.2-0.8-0.2-0.8
			c-0.4,0-2.2-1.2-2.2-1.2h-1.1l-0.6,0.3l-1.4,0.7c0,0-1,0.3-0.4,2.3s1.4,2.7,1.4,2.7l1.5,1.5c0,0.1,0.2,1.5,0,1.5s-0.4,2.7-0.4,2.7
			s-1,1.5-1.4,1c-0.4-0.5-3.6,0.3-4.2-0.5c-0.6-0.8-3.5-2.7-3.5-2.7l-6,0.3h-2.1l-2.1-1.5l-1.7-0.7c0,0-2.2-0.1-2.7-2
			c-0.4-2-0.4-4.9-0.4-4.9l-0.6-1.6l-4-2.8l-6,0.8c0,0-1.7,2.2-5.2-3.9C518.9,370,513.4,372.6,513.4,372.6L513.4,372.6z"/>
		<path fill-opacity="0" stroke="#000000" stroke-width="2.000000e-03" d="M513.4,372.6h-1.5l-1.7,0.5l0.2,1.6l0.7,2.7l0.6,2.2
			l1.9,2l2.1,2.2v1.5l-1,1l-1.1,1l-0.4,0.5c0,0-0.2,0.3-0.4,0.7c-0.2,0.3,0.2,1,0.2,1l0.6,1l0.4,0.3l0.7,0.8l0.4,0.5l0.2,0.5
			l0.2,0.3v0.3v0.3v0.1l-0.2,0.3l-0.2,0.3v0.1l-0.2,0.1l-0.2,0.3l-0.2,0.1l-1.1,1.6l-0.6,0.7l-0.4,0.3l-0.4,0.5l-0.2,0.3l-0.4,0.5
			l-0.4,0.5l-0.2,0.5c0,0-0.2,0.1-0.2,0.5c0,0.3,0.2,0.7,0.2,0.7l0.2,0.5c0,0,0,0.3,0,0.5s0,0.1-0.2,0.5c-0.2,0.3-0.2,0.5-0.2,0.5
			l-0.4,0.5l-0.4,0.3l-0.4,0.3l-0.4,0.5l-0.4,0.3l-0.4,0.5L508,406l-0.2,0.3l-0.2,0.3l-0.2,0.3v0.3v0.3v0.5v0.5v0.5l0.2,1l0.2,1
			l0.2,1.3l0.2,0.3l0.4,1.2l0.4,0.7l0.6,0.8l0.6,0.7l5.2,7l0.4,14.5c0,0,3.5,9.3,6.8,13.3c3.5,3.9,3.2,6.6,3.2,6.6l-1.5,2.8
			c0,0-1.9,7.3,9.2,6.1c11.3-1.2,15.5-3.1,15.5-3.1l8.2-6.8l4.2-2.3l1.9-2.8l1.7-3.1l2.2-1.6l1.9-6.4l4-2.8l3.5,0.5l3.2-3.4l22-13.7
			l-0.6-24.5l-8.2-7.8l-5,3.4l-5.3,0.1l-2.9,2.6l-1.1,10c0,0-9.6,1.5-8.4-2.8c1-4.3,1.1-4.9,1.1-4.9l-1.4-7.5c0,0-6-2-5.6-3.4
			c0.4-1.2,1-1.5,1-1.5s0.2-0.8-0.2-0.8c-0.4,0-2.2-1.2-2.2-1.2h-1.1l-0.6,0.3l-1.4,0.7c0,0-1,0.3-0.4,2.3s1.4,2.7,1.4,2.7l1.5,1.5
			c0,0.1,0.2,1.5,0,1.5s-0.4,2.7-0.4,2.7s-1,1.5-1.4,1c-0.4-0.5-3.6,0.3-4.2-0.5c-0.6-0.8-3.5-2.7-3.5-2.7l-6,0.3h-2.1l-2.1-1.5
			l-1.7-0.7c0,0-2.2-0.1-2.7-2c-0.4-2-0.4-4.9-0.4-4.9l-0.6-1.6l-4-2.8l-6,0.8c0,0-1.7,2.2-5.2-3.9
			C518.9,370,513.4,372.6,513.4,372.6L513.4,372.6z"/>
	</g>
</g>
<g id="Congo">
	<path id="path14279" fill="#CCCCCC" d="M561.3,395.4c1.1,1,1.9-2.3,1.7-2.7c0.2-0.5,0.4-2.6-1-3.4c-1.4-1-2.1-3.5-1.9-4.9
		c0.2-0.7,2.7-1.3,2.7-2c1.9,0.1,0.6-0.5-0.2-1.2c-0.6-0.7-0.7-1.6-0.6-5.3l0.2-4.5l3.2-4.9c4.3-6.4,5.6-7.8,9.6-11.9
		c1.9-2,3.5-3.8,3.5-4.2c0-0.3-0.4-0.8-1.1-1.3c-1-0.8-2.1-0.8-8.9-1c-6.7-0.1-8.1-0.3-8.9-1c-0.6-0.5-2.5-1.2-4-1.9l-3.1-1v-2.6
		c0-2.3-0.2-2.7-1.9-4.3c-1.1-1-2.9-3.1-3.8-4.9c-3.1-4.9-3.8-5.8-4-5.8c-0.2,0.1-3.8,2.6-7.8,5.3l-7.4,5.3l-0.4,5.3
		c-0.4,9-1.9,10.4-8.9,10.7c-2.2,0-3.5,0.3-4.2,0.8c-1.4,1-4,1.6-6.5,1.6c-2.7,0-3.2,0.5-3.5,3.4c-0.2,2.7-0.4,2.6,4.2,8.5l2.1,5
		c1-0.3,3.8-0.5,3.2-0.5c0,0,1.4-0.3,1.5-0.3c0.6,0,1.9-0.5,4.6,0.7c2.7,0.8,3.8,5.3,5.3,6c0,0,1.1,1.6,2.2,1.5
		c0.2,0.1,2.9-0.5,3.8-1c0.6,0,1-0.1,1.4-0.3c2.2-0.3,5.2,2.2,5.3,2.3c1.5,1.3,0.7,7.2,1.4,7.7c0.4,0.3,3.2,2,3.8,2
		c0.2,0,1,1.2,2.2,1.5c1.7,0.5,8.1-0.5,8.4-0.3c0.7,0.1,1.4,1,3.5,2.7C558.6,395.8,561,395,561.3,395.4z"/>
</g>
<g id="EastAfrica">
	<path id="path14305" fill="#CCCCCC" d="M581.2,289.2L581.2,289.2c-0.2,0.1,0.7,1.3,2.1,2.7c3.1,3,2.1,3-1.1,0l-2.5-2.3l-8.4,0.8
		c-6.8,0.7-8.8,0.7-10.3,0.3c-5.2-1.5-12.7,0.8-16,5l-1.9,2.3l0.6,2.3c0.4,1.5,0.6,4.5,0.6,8c0,5-0.2,5.7-1,6.1c-1,0.5-1,1.2-1,4.2
		c0,3.4-2.1,3.9-0.2,6.1c1.1,1.3,1.1,1.5,1.9,3c1,1.6,4,7,5.3,8c2.2,1.9,3.5,2.3,3.5,4.2c0,2.3,0.2,4.2,1.7,4.2
		c0.2,0.8,3.8,1.5,4.2,2c0.4,0.5,2.5,1.5,7.1,1.5c7.7,0,11.3-0.5,12.4,1.5c0.6,1.2,1,1.2,0.6,1.9c-0.4,0.5-2.5,4.2-3.1,4.5
		c-3.1,2.3-6.1,5.7-6.8,7c-0.7,1.2-4.2,5.7-5.3,7.3c-1.9,2.7-1.4,4.2-1.4,4.2c-0.4,3.8-0.2,7.3,3.5,9.5c1.9,1.2,0.4,1.5,0.2,2.7
		c-0.2,1.2,2.9,2.3,4,2.8c1.9,0.5,1.1,1.9,1.7,3.7c0.2,0.7,0.6,3.1,0.6,3.4c0.6,2.2,0,2.6-0.2,3.7c-0.6,2.3-1.4,3,0.2,4.3
		c1.7,1.5,6.7,2,7.1,0.3c0.2-0.8,0.4-3.4,0.6-5.8c0.4-5.1,1.9-5.4,4.6-6.4c1-0.1,1.7,0.5,4-0.1c1.1,0.3,4-2,5.2-3.1
		c1.1-1.2-0.6-3-0.7-6c0-2-0.2-3.4-0.4-3.8c-1.1-2-3.1-3.7-0.7-6.6c2.1-2.8,9.6-9.5,16.8-15c2.1-1.6,4.7-3.9,6-5.1
		c2.9-3,7.1-8.5,6.7-8.5c-0.2,0,0-0.3,0.4-0.8c0.4-0.5,1.1-1.5,1.4-2.3c0.2-0.8,1-1.9,1.1-2c0.2-0.3,0.6-1.2,0.7-2
		c0.2-0.8,0.7-2.3,1.4-3.4c0.6-1,1.1-2.3,1.4-3.1c0.2-0.8,0.4-1,0.6-0.8c0.2,0.3-0.2,1.9-0.7,3.4c-1.4,3.7-1.9,6.1-1.1,5.4
		c0.4-0.3,1-2,1.7-3.8c1.9-5.4,2.7-7.8,2.2-8.8c-0.4,0.1-1,0.1-1,0.1c-1,0-1.4-0.3-1.9-0.5c-0.2,0-0.2,0-0.2,0
		c-1.7,0.1-5.2,0.8-8.1,1.3c-2.9,0.5-6.3,1.2-7.8,1.3c-2.7,0.3-3.1,0.1-4.3-1c-1.2-1.2-1.5-1.6-1.4-3.8c0.2-2.2-0.2-2.7-1.4-3.7
		c-4.6-3.7-6.8-5.3-8.2-5.7c-1.9-0.5-2.7-2-2.7-4.9c0-2-0.2-2.2-2.7-4.2l-2.7-2l1.1-0.8c1.1-0.8,1.4-1.6,0.6-2.6
		c-0.2-0.1-0.6-1-0.6-1.5c-0.2-1-0.2-0.8-0.4,0.3c-0.2,1.2-0.2,1.5-0.7,1c-0.6-0.5-0.7-0.3-1,0.1c-0.4,0.8-2.5,1-2.5,0.3
		s2.2-1.9,2.7-1.5c0.4,0.1,0.4-0.5,0.2-1.9c-0.2-1.9-0.6-2.6-3.1-4.5C582.7,290.1,581.6,289.2,581.2,289.2z"/>
</g>
<g id="Egypt">
	<path id="path13777" fill="#CCCCCC" d="M545,294.6c1-1.2,2.2-2.2,5.2-3.4c4.6-2,8.2-2.3,12-1.6c2.2,0.5,3.8,0.5,8.4,0
		c3.1-0.3,6.3-0.7,7.1-0.8c1.4-0.3,1.4-0.3,0.7-1.5c-0.4-0.5-1.4-2.6-2.5-4.2c-1-1.6-2.2-3.5-2.9-4.3c-0.6-0.8-1.4-2-1.7-2.7
		c-0.6-1.5-0.2-5.3,0.7-6.1c0.7-0.7,0.4-2-1.4-3.4c-0.6-0.5-1.5-1.5-1.9-2.2c-0.6-1.2-1-1.2-1.9-0.7c-1.4,0.8-6.1,1.5-6.1,1
		c0-0.1,1-0.3,2.1-0.5c1.1-0.1,2.9-0.5,3.8-1l1.7-0.8l1.1,1.5c2.9,3.4,4,5.1,3.8,5.7c-0.2,0.3-0.4,0.5-0.6,0.5s-0.6,1-1,2.3
		c-0.6,2.2-0.6,2.3,1.4,5.3c1.1,1.6,3.1,4.6,4.2,6.6c2.5,3.8,3.2,4.9,3.2,3.9c0-0.3-1.4-2.7-3.1-5.1c-5-7.8-5.3-8.3-5.2-10
		c0.2-0.8,0.7-1.9,1.4-2.2c1.1-0.8,1.1-0.8,0.2-2.3c-1-1.3-3.1-3.9-5-6.1c-0.7-0.8-0.7-0.8-3.5,0.3c-2.2,1-3.1,1.2-5.7,1
		c-4.3-0.3-7.1-1.2-13.5-4.6c-3.1-1.6-6-2.8-6.1-2.8c-1,0-1.9,0.8-2.1,1.6c-0.4,3.8-1,6.1-1.7,6.5c-1.1,0.8-4.6,0.1-7.7-1.5
		c-6-3-7.1-4.2-8.1-5.7c-1-1.6-1.1-1.6-5.6-2.2c-3.5-0.3-2.5,0.5,1.1,1c2.2,0.3,2.9,0.5,3.8,2c1.7,2.2,10.2,7.3,12,7.3
		c0.4,0,0.7,0.1,0.7,0.5c0,1-1.9,0.3-5.7-1.6c-4.7-2.7-7.7-4.6-8.2-6.1c-0.4-1-1-1.2-2.2-1.2c-1,0-2.5-0.1-3.2-0.5
		c-1.4-0.5-1.7-0.3-3.2,1.2c-1,1-1.7,2-1.7,2.2c0,0.3-1,1.5-1.9,2.7c-2.2,2.8-2.2,4.5-0.6,9.9c2.1,6.1,3.2,8,7.4,11.8l4,3.5l3.2-0.1
		c2.9-0.1,3.5,0.1,5.7,1.3c1.4,0.8,3.8,1.9,5.2,2.2c1.9,0.5,2.9,1.2,3.5,2.2c0.6,0.8,1.1,1.5,1.4,1.5s1.4,0.8,2.7,1.6
		c2.1,1.5,2.2,1.5,3.2,0.8C543.3,296.6,544.3,295.7,545,294.6z"/>
</g>
<g id="NorthAfrica">
	<g id="path8787">
		<path fill="#B3B3B3" d="M457,257.5l-2.2,3.4l-1.9,4.6l-2.7,5.3l-4,3.9l-3.5,10.7l-2.7,1.9l-1.4,2.3l2.5,7.7v2.2l-0.7,2.8l-1.9,2.8
			l-1.7,2l-0.4,6l1.9,5.8l3.2,5.4l3.6,2.3l2.1,4.9l0.4,2.7l3.2,2.3l7.1,6.5l6.8,0.3l3.2-2l3.1-0.1l3.8,2.3l2.7,0.7l1.7-1l3.6-1.6
			l3.2-0.5l3.2-0.8l2.2,0.5l1.4-0.3l2.7,2.3l1.4,2.3l3.6,0.8l3.5,0.5l2.2,1l1.4,2.6l-3.1,6l7.1-1.2l3.2-1.6l2.2-0.1l4.2-0.3l2.5-0.7
			l0.7-0.5l0.6-1.3l0.4-1.5l0.6-4.9l0.2-3.9l-0.2-2.6l2.7-2l2.5-2L542,327l-1.4-3.1l1.4-9.6c1.7,0.1,1.4-1.5,1.4-2.6l0.2-8l-1.1-4.2
			l-5.6-3.9l-3.2-2.8l-7.4-3c-1.1-1.6-5.6-1-8.4-1.2l-5.6-4.6c0,0-11.7-12.3-5.6-21.8c4.3-6.6,4-3.9,5.2-6.1c0.6-1,1.7-0.8,1.7-0.8
			s3.1,0.3,2.5-1c-0.6-1.3-1.9-1.9-1.9-1.9l-4,0.1c0,0-10.3-0.3-14.6-3c-4.3-2.7-12.4-2-12.4-2l-4.2,0.3l-3.2,1.9
			c0,0-5.3,0.7-9.7-0.7C461.7,247.4,457,257.5,457,257.5L457,257.5z"/>
		<path fill-opacity="0" stroke="#000000" stroke-width="2.000000e-03" d="M457,257.5l-2.2,3.4l-1.9,4.6l-2.7,5.3l-4,3.9l-3.5,10.7
			l-2.7,1.9l-1.4,2.3l2.5,7.7v2.2l-0.7,2.8l-1.9,2.8l-1.7,2l-0.4,6l1.9,5.8l3.2,5.4l3.6,2.3l2.1,4.9l0.4,2.7l3.2,2.3l7.1,6.5
			l6.8,0.3l3.2-2l3.1-0.1l3.8,2.3l2.7,0.7l1.7-1l3.6-1.6l3.2-0.5l3.2-0.8l2.2,0.5l1.4-0.3l2.7,2.3l1.4,2.3l3.6,0.8l3.5,0.5l2.2,1
			l1.4,2.6l-3.1,6l7.1-1.2l3.2-1.6l2.2-0.1l4.2-0.3l2.5-0.7l0.7-0.5l0.6-1.3l0.4-1.5l0.6-4.9l0.2-3.9l-0.2-2.6l2.7-2l2.5-2L542,327
			l-1.4-3.1l1.4-9.6c1.7,0.1,1.4-1.5,1.4-2.6l0.2-8l-1.1-4.2l-5.6-3.9l-3.2-2.8l-7.4-3c-1.1-1.6-5.6-1-8.4-1.2l-5.6-4.6
			c0,0-11.7-12.3-5.6-21.8c4.3-6.6,4-3.9,5.2-6.1c0.6-1,1.7-0.8,1.7-0.8s3.1,0.3,2.5-1c-0.6-1.3-1.9-1.9-1.9-1.9l-4,0.1
			c0,0-10.3-0.3-14.6-3c-4.3-2.7-12.4-2-12.4-2l-4.2,0.3l-3.2,1.9c0,0-5.3,0.7-9.7-0.7C461.7,247.4,457,257.5,457,257.5L457,257.5z"
			/>
	</g>
</g>
<g id="NewGuinea">
	<path id="path14065" fill="#CCCCCC" d="M809.9,297.6c-0.7,0-1.7,0.5-2.7,1.5c-0.6,0.8-1.7,2-2.5,2.7c-1,1-1,1.3-0.4,1.3
		c0.4,0,1-0.1,1.4-0.5c0.4-0.3,0.6-0.3,1,0c0.4,0.5-1.5,1.5-2.2,1.2c-1.1-0.7-1.4,1-0.2,2c0.6,0.5,1.4,1.9,1.5,2.7
		c0.1,0.8,1,1.9,1.5,2.2c0.6,0.3,1.4,1.2,1.5,2c0.2,0.8,0.6,1.5,1,1.6c0.4,0.1,0.7,0.8,1,1.3c0.2,0.5,1.1,1.3,2.2,1.6
		c1.4,0.5,1.5,0.7,0.6,0.7c-1.7,0.1-2.1,1.9-1,3.5c0.7,1,1,1.2,1.1,0.5c0.4-1.3,1.5-0.8,1.9,0.7c0.2,1.2,0.4,1.3,1,0.8
		c0.7-1,0.6-2.3-0.4-3.4c-0.6-0.7-0.6-0.8-0.2-0.8c0.4,0,0.4-0.1-0.4-0.7c-1.7-1.2-0.6-1.2,3.8,0c4,1,4.2,1.2,4.7,2.8
		c0.7,2.2,0.7,6.5,0,9.2c-0.6,2.3-0.4,2.8,2.5,2.8c1,0,1.7,0.3,1.9,0.7c0.2,0.5,1,0.7,2.7,0.3c1.9-0.1,2.7-0.1,3.5,0.5
		c2.1,1.6,3.8,2.3,6.7,2.7c1.7,0.1,3.8,0.3,4.7,0.5c1.5,0.1,1.7,0.1,2.7-1.5c2.5-4.2,7.4-2.8,9.7,2.6c0.7,1.6,1.1,2,2.5,2
		c1,0,2.7,0.3,4,0.8c2.7,1,3.5,0.8,4.3-0.8c0.4-0.7,0.7-2.2,0.7-3c0-1.5-0.4-2-2.1-3c-2.7-1.6-3.5-3-2.7-4.2c0.4-0.8,0.4-1-0.7-1.5
		c-0.6-0.3-1.5-1-1.9-1.6c-0.6-1-0.4-1.3,1.1-2.6c1-0.8,1.7-1.6,1.7-2c0-0.8-2.1-2.8-4-3.7c-2.5-1.2-3.8-3.4-3.8-5.8v-2.2l-3.2-0.8
		c-2.7-0.7-4-1.3-8.2-4.6c-7.1-5.4-11.4-7.3-16.4-6.6c-3.2,0.3-3.8,1.2-3.8,4.6c0,1.6-0.2,3.5-0.6,3.9c-0.4,1-0.7,1.2-2.2,1
		c-2.2-0.1-4-2.8-4-6.1v-2.3h-2.2c-2.2,0-4.6-1-6-2.7C810.6,298,810.2,297.6,809.9,297.6L809.9,297.6z"/>
</g>
<g id="Indonesia">
	<g id="path8904">
		<path fill="#CCCCCC" d="M784.1,355.8l-4-2l-1.9-1l-0.2,3.4l-1.4,0.3l3.1,2.3l2.1,3.8l-1,2.8l-13.4,1.3l-14.5-1.9l-0.4-4.6l-4,1.9
			c0,0-7.7-4.9-9.3-6.5c-1.7-1.6-1.7-4.6-10.2-10.8c-8.4-6-13.5-20.8-12.8-21.4c0.7-0.7,2.5-3.1,2.5-3.1l2.9-0.1l10.5,4.2l6.7,5.8
			l8.8,10.2l0.6-0.8c0,0-1-6.1-1-9.5c0.2-3.4,1.1-2.3,1.1-2.3s2.1,0.8,2.7,0.8c0.6-0.1,2.7-2,2.7-2l4-5.4l2.1-1.6l3.2-4.3l0.4-1.5
			l1-1.2l5.2-0.3l1.4-0.3l-0.6-2l-1.1-0.3l3.1,0.1l0.6,2.2l19.9,8.5l8.9,3.7v1.9l-0.6,1l-2.2,2.7l-3.5,23.8l-1.1,5.4l-1.9,0.3
			l-0.6-1.2l-1.9-1.6c0,0-4-2.8-3.5-1.6C787.4,355.2,784.1,355.8,784.1,355.8z"/>
		<path fill-opacity="0" stroke="#000000" stroke-width="2.000000e-03" d="M784.1,355.8l-4-2l-1.9-1l-0.2,3.4l-1.4,0.3l3.1,2.3
			l2.1,3.8l-1,2.8l-13.4,1.3l-14.5-1.9l-0.4-4.6l-4,1.9c0,0-7.7-4.9-9.3-6.5c-1.7-1.6-1.7-4.6-10.2-10.8c-8.4-6-13.5-20.8-12.8-21.4
			c0.7-0.7,2.5-3.1,2.5-3.1l2.9-0.1l10.5,4.2l6.7,5.8l8.8,10.2l0.6-0.8c0,0-1-6.1-1-9.5c0.2-3.4,1.1-2.3,1.1-2.3s2.1,0.8,2.7,0.8
			c0.6-0.1,2.7-2,2.7-2l4-5.4l2.1-1.6l3.2-4.3l0.4-1.5l1-1.2l5.2-0.3l1.4-0.3l-0.6-2l-1.1-0.3l3.1,0.1l0.6,2.2l19.9,8.5l8.9,3.7v1.9
			l-0.6,1l-2.2,2.7l-3.5,23.8l-1.1,5.4l-1.9,0.3l-0.6-1.2l-1.9-1.6c0,0-4-2.8-3.5-1.6C787.4,355.2,784.1,355.8,784.1,355.8z"/>
	</g>
</g>
<g id="Madagascar">
	<path id="path14441" fill="#666666" d="M605.3,478.8c1.7-1.3,4-1.5,5.3-0.5c0.6,0.5,1.4,1,1.7,1c1,0,3.6-4.2,3.6-5.7
		c0-1.6,1.1-3.1,2.7-3.5c1.1-0.3,1.9-1.2,6-8c6.3-10.8,7.1-12.6,7.4-16.8l0.4-3.9l2.7-2.3c2.2-2.2,2.7-2.8,3.5-5.4
		c0.4-1.6,0.7-3.7,0.7-4.2c0-1.2-4.7-9.6-6.1-10.8c-1-0.8-1.1-0.7-2.5,2.6c-1.4,3.4-1.9,3.9-3.5,3.5c-1.9-0.3-2.5,0.1-2.7,2.7
		c-0.2,1.9-0.4,2.3-1.4,2.7c-0.6,0.1-1.4,1-1.9,1.9c-0.4,0.8-1.7,2-3.1,2.7c-1.9,1.2-2.7,1.3-5.2,1.2c-2.1-0.1-3.2,0.1-4.6,0.8
		c-1,0.5-1.7,0.8-1.7,0.5c0-0.3-0.4-0.5-0.7-0.5c-1,0-2.5,1.9-1.9,2.6c0.7,1,0.6,5.8-0.2,7c-1,1.2-1,3.9-0.2,4.5
		c1.4,0.8-0.6,7-2.1,7c-0.4,0-1.5,1.2-2.9,2.8c-2.7,3.1-3.1,5-1.1,7c1.1,1.2,1.1,2.6,0,5c-0.6,1.2-0.4,1.5,1.7,4.6
		C602.2,480.5,602.9,480.7,605.3,478.8z"/>
</g>
<g id="Slam">
	<path id="path13821" fill="#B3B3B3" d="M753.2,237.3c-0.4,0-0.6,0.1-1.1,0.3c-2.7,1.2-4.2,2.7-5.7,5.4c-1,1.5-3.1,4.6-5,7.2
		l-3.5,4.5l1.4,1.6c0.6,0.8,3.1,4.6,5.2,8.5c2.7,4.9,4.6,7.3,6.1,8.8l2.2,2l3.1-0.3c2.9-0.3,3.2-0.1,5.3,1.2
		c1.1,0.8,2.1,1.6,1.9,1.9c-0.2,0.3-0.2,0.5,0.2,0.5c0.7,0,2.5,3.4,3.5,6.4c0.6,2.3,0.6,3.4,0.2,6.1c-0.6,3.8-1.5,5.1-1,1.5
		c0.7-4.9,0.6-7.3-1-10.3c-1.5-3-4.2-5.7-6.1-6.1c-0.6-0.1-2.5-0.1-3.8-0.1c-2.7,0.1-2.7,0.1-5.6-2.2c-1.5-1.3-2.7-2.7-2.7-2.8
		c0-0.7-6.5-11.8-8.1-13.8c-1.7-2.2-2.1-1.2-0.4,0.8c0.7,1,3.1,4.6,4.7,8.1c5.3,9.2,7.4,11.1,12,10.4c1.9-0.1,2.9-0.1,3.8,0.3
		c3.8,2.2,6.5,6.6,6.5,10.4c0,1.2-0.2,3.5-0.6,5.1c-0.7,3.8-0.4,4.9,2.2,7.5c1.1,1.2,2.1,2.3,2.1,2.7c0,1,4.7,6.6,6,7.2
		c1.7,0.5,4.7,0.5,5.3-0.1c0.4-0.3,0.4-0.8-0.6-1.9c-0.6-0.8-1.4-1.6-1.4-2.2s-0.4-1.2-1-1.5c-1.7-1-2.2-2.7-2.1-6
		c0.2-3,0.2-3.4-1-3.5c-2.7-0.8-4.3-8-2.5-9.6c1-0.8,1-0.8,2.2-0.1c0.6,0.3,1.4,1.2,1.9,2.2c0.6,1.5,1.1,2,3.2,2.6
		c3.1,0.8,5.3,3.4,6.3,6.4c1.7,5.8,1.7,5.8,2.7,5.3c0.6-0.1,1.7-0.8,2.2-1.5c1.1-1,1.4-1,1.7-0.3c0.7,1.2,1,1.2,1.7,0.3
		c0.7-0.8,0.7-0.8,0.7,0.3c0,1,0.2,1,0.6,0.3c0.4-0.5,0.4-1,0.2-1.2c-0.1-0.1-0.2-0.5,0.2-0.7c0.7-0.3,0.6-1.2-0.2-1.2
		c-1.4,0-1.4-1.5-0.2-2.7c1-0.8,1.5-2.8,2.5-6.5c1.4-6,1.4-9.6-0.2-10.3c-1.9-1-3.2-2.7-4.3-5.4c-1.1-2.8-5-7.8-7.8-10.3
		c-1.9-1.5-3.1-3.9-3.1-6c0-2,0.4-2.7,2.5-4.6c1-1,1.5-1.9,1.4-2c-0.2-0.1-1.1,0.5-2.2,1.5c-3.5,3.4-3.2,7.7,0.6,11.1
		c3.2,3,7.1,8.1,8.1,10.8c0.6,1.6,1.7,3,3.2,4.3c2.1,1.9,2.2,2,2.2,4.3l-0.2,2.3l-0.2-2.3c-0.2-2-0.4-2.6-1.5-3.1
		c-2.1-1.2-3.1-2.6-4-5c-1-2.7-4.2-7.2-7.7-10.3c-2.7-2.3-3.5-4.3-3.5-7.3c0-2.2,0.4-3.1,3.1-5.8l1.7-1.9l-3.2-3.1l-3.2-3.1
		l-2.7,2.2c-1.5,1.2-3.5,3-4.2,3.8c-1.9,2.2-3.6,2.8-5.6,2c-2.5-1.2-6.1-4.5-7.8-7.2c-1-1.3-2.5-3.4-3.5-4.5
		C753.9,237.9,753.5,237.3,753.2,237.3z"/>
</g>
<g id="Afghanistan">
	<path id="path13415" fill="#CCCCCC" d="M657.5,211.7c1.5-2.8,3.1-4.2,5-4.2c2.5,0,4.2-1,5.7-3.1c2.1-2.8,3.8-3,8.1-1
		c1.7,0.8,3.2,1.6,3.8,2.2c0.7,0.5,1.1,0.3,3.8-1.2c4.7-3,5.2-4.9,1.9-7.7c-2.7-2.3-3.6-4.2-3.6-7.3c0-2.2,0.2-2.8,1.5-4.2
		c1-0.8,2.2-2,3.1-2.2c1-0.3,3.1-2.6,5.2-5c3.1-3.8,3.5-4.6,3.8-7c0.2-2,0-3-0.6-4.2c-1.1-1.9-1.1-3-0.2-4.6c1-1.5,0.6-2.2-3.6-6.1
		c-2.5-2.3-2.9-2.6-3.6-2c-1.4,1-2.7,0.8-4.6-0.8c-1.4-1.3-1.7-1.3-4.2-1.2c-2.5,0.3-3.2,0.1-6-1.2c-2.9-1.2-3.2-1.6-3.8-3.5
		c-0.6-2.2-0.7-2.2-2.5-1.9c-2.7,0.3-4.2-1-5.7-4.5c-1-2.3-1.9-3.5-5.2-6.4c-2.1-2-3.8-3.8-3.8-4.3c0-0.5-0.4-1.2-0.7-1.5
		c-0.6-0.5-1-0.3-2.2,0.5c-0.7,0.7-2.2,1.5-3.2,1.9s-2.7,1.3-3.8,2.2c-3.2,2.3-6.1,3.1-8.9,2.6c-5.2-1.2-5.2-1.2-6.8,0.7
		c-1.7,1.6-2.5,1.9-6.8,1.6c-1.5-0.1-2.2,0.1-3.5,1.2c-1,0.8-2.2,1.3-4,1.5c-1.4,0.1-2.5,0.5-2.5,0.8c-0.2,0.3-0.4,1.5-0.7,2.8
		c-0.4,1.2-1.1,2.8-1.9,3.7c-1.7,1.9-1.7,5.4,0,8.3c0.6,1.2,1.9,3,2.5,4.2c0.6,1.2,1.7,2.7,2.2,3.4l1,1l1.1-1
		c0.6-0.5,1.7-1.2,2.2-1.2c0.6-0.1,1.1-0.5,1.1-0.7c0-0.5,2.5-1,4-0.7c1.5,0.3,3.6,3.4,4,5.8c0.4,2.2-0.4,3.9-2.7,6
		c-1.7,1.6-1.9,1.9-1.4,3.8c0.2,1.2,0.2,2.2-0.2,2.2c-0.2,0-0.6-1.2-0.6-2.7c-0.2-2.3,0-2.7,1.7-3.9c2.2-1.6,2.9-3.8,1.9-6.5
		c-1.4-4.2-4-5.1-7.7-3c-1.1,0.7-2.1,1.2-2.2,1.2c-0.2,0-0.7,0.3-1.4,0.8c-1,0.8-1,0.8-1.9-0.1c-0.4-0.5-1.4-2-2.2-3.4
		c-0.6-1.2-1.9-3-2.5-3.8c-1-1.2-1.4-2.3-1.5-5.1c-0.2-3.5-0.2-3.5,1.4-5c1.4-1.3,1.9-2.6,2.2-5.8c0.2-1,0.4-1.2,2.7-1.5
		c1.7-0.1,3.2-0.8,4.6-1.9c1.9-1.3,2.2-1.5,4.6-1.2c3.5,0.5,4.7,0,6.1-2c1.1-2,2.1-2,6.1-0.8c3.5,1,6.1,0.3,8.9-1.9
		c1.1-0.8,3.5-2.2,5.2-2.8c1.7-0.7,3.1-1.5,3.1-1.6c0-0.5-6.5,2.3-8.2,3.7c-2.9,2.3-6.7,3-9.7,1.5c-2.2-1-5.2-0.3-6.1,1.6l-0.6,1.5
		l-3.2-0.1c-2.7-0.1-3.6-0.1-5.2,0.8c-1.1,0.5-2.1,1.2-2.2,1.5c-0.2,0.3-1.4,0.5-2.5,0.5c-1.1,0-2.5,0.1-2.7,0.3
		c-0.2,0.1-1,1.6-1.1,3.4c-0.4,2-1,3.4-1.9,4.2c-1.1,1-1.4,1.6-1.4,4.6c0,3,0.2,3.7,1.4,5.3c0.7,1,1.9,2.7,2.5,3.9
		c0.6,1.2,2.1,3,3.1,4.2c1.7,1.6,1.9,2,2.2,1.2c1-2.2,6-4.6,7.7-3.8c1.4,0.7,2.5,3.4,2.5,5.7c0,1.5-0.4,2.2-2.1,3.5l-2.1,1.6
		l0.4,3.9c0.4,3.7,0.4,3.9,1.7,4.5c0.6,0.3,1.7,0.5,1.9,0.5c0.4,0,1.1,0.5,1.7,1.2c0.7,1,0.7,1.5,0.4,3c-0.7,2.7,0,4.9,1.7,5.1
		c0.7,0.1,1.7,0.7,2.2,1.2c1,0.8,1,1,0.2,2.7c-1.1,2.3-1,3.4,0.6,4.2c1.5,0.7,2.1,2.3,2.2,5.4c0,0.7,0.2,1.2,0.6,1.2
		c0.6,0,0.6-3,0-5.1c-0.4-1-1-1.9-1.9-2.2c-1.5-0.5-1.7-1.2-0.6-3.5c0.6-1.5,0.6-1.6-0.2-2.7c-0.4-0.5-1.7-1.3-2.7-1.6
		c-1.9-0.7-2.1-1.5-1.1-5.1c0.4-1.6,0.4-1.6,0.4,0.8c-0.2,2.3,0.2,2.8,1,3.4c3.2,1.5,3.8,2.2,3.8,3.9c-0.2,1-0.4,2.2-0.6,2.7
		c-0.4,0.8-0.4,1,1,1.6c1.4,0.8,2.1,2.6,2.1,5.8c0,1.5,0.2,1.5,1.9,1.2c4-0.5,11,2.2,12.7,4.9c1.4,2.2,3.6,3.5,6.1,3.4
		C656,214.4,656.3,214.3,657.5,211.7L657.5,211.7z"/>
</g>
<g id="China">
	<path id="path13599" fill="#CCCCCC" d="M707,145.2L707,145.2c-0.4,0.1-0.4,1-0.2,2.2c0.4,1.9,0.2,1.9-2.1,2.8
		c-1.4,0.5-2.5,1.2-2.5,1.5s-0.4,1.3-1,2.2c-0.6,1-1.4,2.7-1.5,3.8c-0.4,1.2-1,2.6-1.1,2.8c-0.4,0.3-1.1,1.5-1.7,2.3
		c-1.1,1.6-1.1,1.9-0.2,3c1.1,1.5,1.1,7,0.2,8.7c-1.9,3-7.7,9.5-8.9,9.9c-0.7,0.3-1.9,1-2.7,1.6c-1.5,1.5-1.5,4.5,0.2,6.6
		c1.7,2.3,4.7,4.3,6.1,3.9c1.7-0.3,3.6,1,4.2,3l0.6,1.6l3.8,0.3l3.8,0.3l0.2,6c0.2,6,0.2,6-1.4,8.1c-1,1.2-1.5,2.3-1.5,2.7
		s1.1,1,2.5,1.3c1.4,0.5,4,1.9,6.1,3c3.1,1.9,4,2.2,6.1,2.2c1.7,0,3.5,0.3,5.6,1.5c1.7,0.8,4,1.5,5.3,1.6c1.7,0.1,2.5,0.5,3.8,2
		c1.9,2,3.1,2.2,6.7,1c5-1.5,9.7,0.3,11.7,4.6c1,2.2,1.5,2.3,3.1,1.3c1.7-1.2,4-0.8,5.7,0.8c1.4,1.3,4.3,5.1,5.7,7.2
		c0.2,0.3,1.7,1.6,3.2,2.8l2.7,2.2l1.5-1.5c3.5-3.7,8.1-7.2,9.2-7.2c1,0,2.5,1.2,5.6,3.8c3.1,2.8,4.6,3.7,5.2,3.5
		c1.1-0.3,3.2,0.8,4,2.6l0.6,1.5l1.4-1.2c0.7-0.7,1.5-1.6,1.5-2.2s0.4-1.6,1-2.3c1-1.2,1.4-1.5,2.7-1.5l1.7,0.1l-1.9,0.5
		c-1.7,0.3-1.9,0.7-2.5,2.7c-0.6,2.2-2.7,4.6-4,4.6c-0.4,0-0.7-0.3-1-0.8c-0.2-0.5-1-1.5-1.9-2.2c-1.1-1-1.7-1.2-2.2-0.8
		c-0.4,0.3-0.4,0.5,0.2,0.5c0.4,0,1.7,1.2,2.7,2.6c1.7,2.3,3.2,3.4,3.2,2c0-0.3,0.6-1.2,1.5-2c1-1,1.7-2.2,1.9-3.5l0.4-2l2.5-0.1
		l2.5-0.1l0.7-2.3c0.6-2.2,1.1-2.7,3.1-3.5c5.6-2.6,7.8-5.1,8.4-9.3c0.2-1.5,0.6-3.1,1.1-3.7c0.6-0.8,0.6-1.5,0.2-3.7
		c-0.6-2.3-0.6-2.8,0.2-4.3c0.4-0.8,1.1-1.6,1.7-1.9c1.1-0.3,1-1-1-3c-2.1-2-2.2-3.4-0.7-4.9c1.1-1.3,1.4-3.4,0.2-4.2
		c-0.6-0.3-0.7-1.2-0.6-2.3c0.2-2.6-2.2-6.6-4.6-8c-2.2-1.3-4.7-3.8-4.7-5c0-0.5-0.2-0.8-0.6-0.8c-0.7,0-0.6,1.3,0.2,2.7
		c0.4,0.5,1.9,2,3.5,3c3.2,2.2,5.2,5.1,5.2,8c0,1.2,0.4,2.6,0.7,3c1,1.2,1,2.6-0.2,3.8c-0.6,0.5-1,1.5-1,2c0,1,1.4,3,2.5,3.5
		c0.7,0.3,1,2,0.2,2.3c-0.4,0.1-1,1-1.5,2c-1,1.6-1,1.9-0.2,3.9c0.7,2.2,0.7,2.3-0.2,3.9c-0.6,1-1.1,1.5-1.1,1
		c0-0.5,0.4-1.2,0.7-1.6c0.7-0.8,0.6-1.2-0.2-3.4c-1-2.6-0.6-4.2,1.4-6.1c1-1,1-1-0.6-2.3c-1.9-1.9-2.2-4.3-0.4-6.4
		c1.1-1.2,1.1-1.3,0.2-2.2c-0.6-0.5-1-1.9-1.1-3.7c-0.2-3.4-1.5-5.1-5.2-7.5c-2.7-1.9-3.8-3-4.2-5.1c-0.2-0.8-0.6-1.5-0.7-1.6
		c-0.1-0.1-3.2-0.7-6.8-1.2c-5-0.8-6.7-0.8-7.7-0.5c-1.9,0.8-3.6,0.5-6.8-0.8l-3.1-1.3l-2.2,1c-1.4,0.5-3.2,1-4.2,1
		c-1.5,0-2.1-0.1-2.7-1.2s-1.1-1.2-4.2-1.3c-1.9-0.1-5.2-0.1-7.1-0.1c-5.2,0.1-8.4-0.8-9.3-2.2c-0.6-1-4.2-3-7.1-3.8
		c-0.4-0.1-2.2-1.6-3.8-3.5c-1.5-1.9-3.8-3.9-5-4.6l-2.1-1.3v-3.5c0-2.8-0.2-3.7-1.1-4.6c-0.6-0.7-1.4-1.2-1.9-1.2
		c-0.6,0-2.1-0.5-3.6-1.2c-2.7-1.2-2.9-1.2-3.8-3.9c-1.5-4.5-3.1-6.6-4-6.4c-1.4,0.5-4.2,0.8-5.6,0.5c-0.6-0.1-2.5-1-3.8-2.2
		C708.9,145.9,707.5,145.2,707,145.2z"/>
</g>
<g id="Mongolia">
	<path id="path13231" fill="#B3B3B3" d="M792.4,119.9c-0.2,0-0.2,0.1-0.4,0.1c-0.4,0.3-1.7,0.7-3.2,1c-1.4,0.3-3.1,0.5-3.6,0.7
		c-1,0.1-1.1,0.7-1.4,3.9c-0.4,4.6-1.9,9.3-3.8,11.1c-1.4,1.5-1.4,1.5-4.6,1.2c-3.2-0.3-3.8-0.1-8.8,2.2c-2.2,1-12.4,0.5-16.3-0.8
		c-2.7-0.8-2.9-1-4.2-0.1c-2.1,1-6,1-7.4-0.1c-0.6-0.5-1.9-1-2.9-1.2c-3.8-0.7-3.8-0.7-3.5,0c0.2,0.3-1.9,1.2-2.7,2.3
		c-1.1,2.7-1.9,3.7,0.4,8.1l2.1,3.5l-1.4,2.3c-1.1,3.5-1,4.6,2.2,6c1,1,1.7,2.7,1.7,5.3c0.2,3.4,0.2,3.5,1.9,4.5
		c1,0.5,3.1,2.6,4.6,4.2c2.5,2.7,3.2,3.4,5.6,4.2c2.7,0.8,5,2.3,6,3.9c0.4,0.7,1.4,0.8,5.6,1c13.8,0.3,13.2,0.3,14.5,1.6
		c1,1,1.4,1.2,3.1,1c1.1-0.1,2.1-0.5,2.2-0.7c0.6-0.8,4.6-0.3,7.1,0.8c2.2,1.2,2.7,1.2,4.6,0.5c2.2-0.7,4.3-0.3,12.8,1.2l3.5,0.7
		l1.9-1.2c2.7-1.9,2.5-3.4-0.4-2.2c-2.5,1.2-4.7,0.7-5.7-1.2c-0.4-0.8-1.4-1.6-1.9-2c-3.1-1.5-3.1-3.7,0.2-7.8
		c2.2-2.8,5.6-5.3,6.1-4.6c0.2,0.1-0.4,0.5-1.1,1c-1.9,0.8-6.5,6.6-6.5,8.3c0,1,1.1,2.3,2.7,3c0.2,0.1,0.7,0.8,1.1,1.5
		c1,1.5,2.7,2,5.2,1.2c3.1-1,4,1.2,1.4,3.1c-1,0.7-1.4,1.2-1.1,1.2c1,0,3.8-2.7,3.8-3.5c0-0.5-0.6-1.2-1.4-1.6
		c-1.4-0.8-1.5-0.8-3.2-0.1c-2.5,1-3.2,1-4-0.8c-0.4-0.8-1.4-2-2.2-2.3c-1.9-0.8-1.9-1.6-0.4-3.8c0.6-0.8,1.7-2.3,2.5-3.4
		c3.1-3.9,6.8-3.4,5.6,1.2c-0.7,2.7,0.2,3.1,2.2,1.3c2.9-2.7,6.3-1.5,6.3,2.3c0,2.2,0.4,2.3,2.7,1.6c1.7-0.5,2.1-0.3,3.1,0.3
		c0.6,0.5,1.1,1.5,1.1,2.2s0.2,2.7,0.6,4.2c0.6,2.7,0.6,2.8,1.9,2.8c1.1,0,1.5-0.3,2.2-2.3c0.6-1.2,1.1-2.3,1.4-2.7
		c0.4-0.1,1-1,1.1-1.9c0.6-1.3,0.6-1.6,0-3c-0.4-0.8-1.1-1.6-1.5-1.6c-0.4,0-2.7-1.6-5-3.8c-2.7-2.6-4.2-3.5-4.2-3
		c0,0.8,4.6,4.9,8.8,8c1.9,1.5,1.9,2.7-0.2,5.3c-0.6,0.8-1.4,2.2-1.7,2.8c-0.4,0.7-0.7,1.2-1,1.2c-0.6,0-1.7-4.6-1.5-6.1
		c0.2-0.8,0.4,0,1,2.3l0.6,3.5l0.6-1.5c0.4-0.8,1.1-2.2,1.7-3c1.5-1.9,1.4-3.5,0-4.2c-1.9-1-7.1-5.4-9.2-8c-2.1-2.7-3.1-6.1-2.2-8.1
		c0.4-0.7,1.1-1.9,1.9-2.7c0.7-0.8,1.7-2.3,1.9-3.4c0.4-1.2,0.7-2.3,1-2.8s0.2-0.8-0.6-0.8c-1.4,0-4.2-2.7-4.2-3.8
		c0-1.9-0.6-2.3-3.6-3.4c-4.6-1.5-5.2-3.4-2.2-6.6c1.7-2,1.4-2.7-1.5-3c-1.7-0.1-2.7-0.7-3.5-1.5c-0.6-0.7-1.9-2-2.9-2.8
		c-1-0.8-3.2-3.7-5.2-6.1C794.6,121.4,793.2,119.8,792.4,119.9L792.4,119.9z"/>
</g>
<g id="Irkutsk">
	<path id="path12951" fill="#B3B3B3" d="M767.7,139c3.5-1.5,4-1.6,6.8-1.3l3.2,0.3l1.9-1.6c2.5-2,2.5-5.7,3.5-9
		c1-3.1-1.4-5.3,3.8-6.1c1.9-0.3,4-0.8,4.6-1.2c1-0.3,1.5,0.1,2.2,0.5c1.4,0.5,3.2,3.7,6,7.2c4,5.7,10.2,10.4,10.9,9
		c0.6-1,1.4,0,1.1-4.5c-0.2-3.8,0-4.6,1.1-6.1c0.7-1.2,1.1-2.6,1.1-3.9c0-2.3-0.6-3.1-5.6-7.7c-3.1-2.8-4-2.8-8.2-1.2
		c-4.7,2-6.3,1.3-6.3-2.7c0-1.9-0.4-2.2-4.6-6c-2.5-2.2-5.2-4.9-6-5.8l-1.4-1.9l0.2-9.6l0.2-9.6h-6.3c-5.7,0-6.3,0.1-7.8,1.2
		c-2.1,1.3-2.9,1.5-4.2,0.1l-1.1-1l-0.4,2.8c-0.4,3.5-2.5,6-4.3,5.8c-0.7-0.1-1.5,0.1-2.1,0.7c-0.6,0.5-3.1-3-4-3
		c-1.7,0-3.1,3.7-3.8,5.3c-0.6,1-1.4,2.8-1.4,3.5c0,0.8,0,1.2-0.4,1.6c-1,0.8,0,1.2,1.4,3.5c1.1,2,1,1.6,0.6,3.1
		c-0.2,1-0.6,0.1-0.6,1.6c-1,1.9,1,3.9-0.6,5.4c-1.1,1-0.6,1.2-1.4,1.2c-1.5,0-2.2-1.9-3.5-3.1c-1.4-3.9-6.8-5.1-9.9-0.3
		c-2.2,1.6-3.8,3.7-3.8,4.2c0,1.5-0.2,2.8-1.1,3c-0.4,0.1-1.1,0-2.2-0.1c-4.2-0.3-4,3-2.2,4.6c0.2,0.8,0.7,2.6,1.4,3.7
		c1.1,2.2-0.2,3.9-1,4.3c-0.4,0.1-3.1,5.8-3.1,6.1c0,0.1,3.1,1.9,5,2.8c2.9,1.6,4,2,6.3,2.2c1.9,0.1,4.2,0.5,6.3,1.5l2.1,1
		c1-0.3,2.9-0.1,4.3-0.5c2.5-0.7,1.9-1,4.6-0.1c2.5,0.7,7.7,1.2,12.7,1.5C763.3,140.5,765.1,140.2,767.7,139z"/>
</g>
<g id="Yakutsk">
	<path id="path12701" fill="#999999" d="M755.5,86.9c0.4,0.1,3.1-0.3,3.5-0.5c1.5-0.5,2.2-1.3,2.7-2.7c0.6-1.6,0.4-1.9,0.6-2.2
		l0.4-3.7c1,0.5,1.4,1.6,3.1,1.6c0.6,0,1.1,0,2.5-0.8c1.5-1,0.6-1,6.1-1.2l7.7,0.1v-6.1c0-3.5,3.8-4.2,3.8-6.8
		c0-1.9,1.4-3.7,3.1-4.3c1-0.3,2.5-1.3,3.5-2.3c1.9-1.9,5-2.8,6.5-2c0.6,0.3,2.7,3.1,3.2,4.6c0.2,0.1,1.1,0.1,2.2-0.1
		c1.9-0.5,2.2-0.3,3.2,0.3c1,0.8,2.5,1,3.1,0.3c0.2-0.1,0.6-2,1.1-3.9l1-3.5l-3.8-3l-3.8-3l0.2-4.2c0.2-4.5,0.6-5.1,4-6.6
		c2.5-1,5.6-3.9,6.3-6c0.6-1.3,0.6-1.6-0.2-2.3c-1.1-1.2-1-1.6,0.4-0.8c1.5,0.8,1.7,0.5,0.4-0.7c-0.6-0.5-1.7-0.8-3.2-0.8
		c-2.7,0-3.2-0.3-4-3c-0.4-1.2-1.1-2.2-1.9-2.6c-1.1-0.5-1.4-0.5-3.1,0.8c-2.2,1.9-3.5,1.9-4,0.1c-0.7-2-1.7-2.3-7.2-2.3h-4.7
		l0.4,1.5c0.2,0.8,0.4,2,0.6,2.6c0.2,0.8,0,1.2-1,1.6s-1.9,0.7-5.2,0.3c-2.1-0.1-4-0.3-4.3-0.1c-0.4,0.1-1.1,1-1.7,2
		c-1.5,2.6-3.1,2.6-6-0.1c-1.4-1.2-2.7-2-3.2-2c-1.4,0-2.5-1.9-2.5-4.2c0-2.8-1-3.7-3.8-3.9c-1.9-0.1-2.1-0.1-4,1.6
		c-4.2,3.8-5,4.6-4.6,4.9c0.2,0.1,1.7-1,3.5-2.7c1.7-1.6,3.5-2.8,3.6-2.8c0.6,0.3-5.3,5.7-6.7,6.1c-1.9,0.5-2.2,2.2-0.7,3.7
		c1.4,1.2,3.5,2,4.3,3.7c0.6,1.2-0.7,1.6-1.9,2.8c-0.6,0.8-1,1.2-1,1.2s0.4,3.5,0.2,6.1s-0.6,5.1-0.7,6c0,0-0.6,1-4.3,0.8
		c-2.7-0.1-2.7-1.2-3.8-1c-1.4-0.7-3.1,1.6-4,2.7c-0.6,0.5-2.5,1.5-3.8,2.3c-2.2,1.6-1.9,3-1,3.5c0,0.5,1.7,1.5,2.7,1.5
		c1.7-0.1,3.2-0.1,5.2,2.6c1.4,2-0.6,1.3-1,3c-0.4,1.3,1,3.5,1,3.5c0.4,0.8,1.7,3.4,1.7,5.3c0,2.2,0.4,3.7,1.4,3.8
		c1.7,0.5,1.7,0.5,1.1,2.2c-0.4,1.2-0.2,2.7,1,3.9c0.6,1,1,2.3,1.4,2.2C752.2,83.1,754.6,86.6,755.5,86.9L755.5,86.9z"/>
</g>
<g id="Japan">
	<path id="path13309" fill="#CCCCCC" d="M885.4,78.2c-0.7,0-1,0.3-1.5,1.2c-1,1.5-0.6,2,1,2.7c2.2,1,3.8,5.8,2.1,7
		c-0.6,0.5-1.7,3-2.5,6.4c-0.2,0.8,0.2,1.5,1.7,3.1c3.1,2.8,3.1,3.7,1,5.7c-1,0.8-2.1,2.2-2.5,2.8c-0.6,1.2-0.6,1.5,1,2.7
		c1.1,1,1.7,1.6,1.7,2.8c0,1.9-1,3.1-1.9,3.1c-0.6,0-0.7,0.3-0.6,0.8c0.2,0.7,0,0.8-1,1c-1,0-1,0.1-0.4,0.3c0.4,0.1,1.1,0.3,1.7,0.1
		c1-0.1,1,0,0.6,2c-0.4,2.3-1.4,3.8-2.7,3.8c-0.4,0-0.6,0.1-0.6,0.5c0,0.3-0.2,0.3-0.4,0.3c-0.2-0.1-1.4,0.8-2.5,2
		c-1.5,1.9-2.1,2.8-2.2,5c-0.2,1.5-0.6,2.8-1,3c-0.2,0.1-1.7,0.8-3.2,1.2c-2.7,0.8-3.2,1.3-3.2,3.4c0,0.8-1,2.2-2.7,3.9
		c-2.5,2.7-2.7,2.8-2.5,4.6c0.2,1.6,0,2.2-1.7,3.7c-2.5,2.3-2.5,3.4,0.2,4.5c1.1,0.5,2.2,1.5,2.5,2c1,2,3.1,4.9,3.8,4.9
		c0.4,0,1.5-0.8,2.2-2c1.1-1.5,1.7-2.6,1.7-4.9c0.2-3,0.6-3.5,3.1-3.9c1.7-0.3,6.3-3.7,6.3-4.6c0-0.3,0.4-1.2,0.7-1.6
		c0.7-1,1-1,2.7-0.3c1.7,0.7,1.9,0.7,2.5,0c0.4-0.3,0.7-1.5,1-2.7c0.2-1.5,1-2.7,2.7-4.3c2.2-2.3,2.7-2.6,5.2-2.7
		c2.5-0.1,2.9-0.3,4-2c0.6-1,1.9-2.2,2.9-2.7c1.1-0.7,1.5-1.3,1.5-2.3c0-2.3-1.5-9.2-2.7-11.5c-1-1.9-1-2.6-0.6-3.9
		c0.7-2.7,0-7.7-1.5-9c-2.5-2.6-4.7-4.3-6.8-5.4c-3.8-2-2.2-3.8,4-4.9l3.6-0.5v-1.6c0-1.2,0.4-2,1.7-3.4c1-0.8,1.9-1.6,2.2-1.6
		c0.2,0,1.1-0.8,1.9-1.6l1.4-1.6l-1.1-0.7c-0.6-0.3-1.7-1.2-2.5-2c-1.4-1.2-1.4-1.2-2.7-0.5c-1.9,1.2-9.3,0.7-12.8-0.8
		c-1.5-0.7-3.2-1.2-4.2-1.5C886,78.3,885.7,78.2,885.4,78.2z"/>
</g>
<g id="Lamchatka">
	<g id="path6802">
		<path fill="#999999" d="M818.3,28.8l-1.7,2.3l-5.3,5l-4,2.2l-0.7,1.2l-0.7,2.8l-0.2,5.1l7.7,5.8l-1.9,8c0,0-0.6,1.3-1.5,1.5
			c-2.2-3.5-6.8-1.6-7.1-1.6l-1.1-0.3c-0.4-1.6-1.4-3.4-2.2-3.8c-1.1-0.8-1.5-0.8-2.2-0.7c-0.4-0.5-6.5,3.7-6.5,3.7
			s-2.5,1.2-2.9,1.9c-1,1.3-1.1,3-1.1,3l-1.9,2.8c-1,0.8-1.9,1.6-1.9,2.3c0,0-0.2,0.5-0.4,3.5c0,0.8,0.2,4.2,0.2,4.2v16.3l-0.2,2.8
			c0,0,0.7,1.2,1.9,2.2c1,1,8.8,8.5,8.8,8.5s1.5,1.9,1.7,3.7c0.2,1.9,1.1,2.3,1.1,2.3c0.4,1.3,6.1-1.2,7.1-2s1.5-1,2.5-0.1
			c1,1,5.3,3.7,5.3,3.7l3.8,4.9c1.7,0.1-1.4,3.7-1.9,13c-0.2,4.3-1.1,3.4-0.7,3.5c0,0,2.7,2.7,1.4,2.6c-1.7-0.1-2.5,3.1-2.5,3.4
			c0,0-0.4,2.7,1.1,3c1,0.1,5.3,2.3,5.3,2.3s0.7,3,2.2,3.9c2.2,1.5,4,1.9,4,1.9l1.7-1l1.9-3l0.2-0.3l2.7-14v-5.8l-1.1-2.8l-1-5
			l-2.2-5.4l-0.4-4.9l-0.4-3l-1.9-1.9l-1.9-2.6l-3.2-0.8l-3.1,1.5l-2.7-0.1l-1.4-2.3l-1.9-1.5l-1.9-1l-1.4-1.2l0.7-2.7l0.6-2.8l1-1
			l1.4-0.8l1.7-2.3l0.7-2l1.7-2.8l3.2-0.7l1.5-1l2.7-1l3.6-0.3l2.5,0.5l1,0.8l1.1-0.3l1.4-1.3l0.6-1.3l4-0.3l1.4,2.3l1.1,2.3
			l3.1-0.5l0.7-2l-3.1-4.9l-0.6-3c0,0,1.9-2.8,4.3-3c2.5-0.3,4.2,2.3,4.2,2.3L848,75l1.7,0.1l1-2.2l0.6-5.4L854,67l3.6,1.5l-3.1,7.2
			l-2.5,7.2l-3.1,6.1l-1.1,10.7l3.8,8.3l4,6.4l5.6,3.5l4.2-5l0.6-8l-1.7-3.7l0.2-8.8l-2.5-5.3l-2.1-3.9l1.1-3l3.1-1l1-2.6h3.5
			l1.9,2.7l1.9-0.5c0,0,1.7-3.5,2.2-3.5c0.6,0,3.6-4.2,3.6-4.2l4.3-4.9l3.8-3.9l-2.7-3.8l-3.1-3l-1-3.4l3.5,0.8l4.2,2.3l3.1,1.5
			l0.7,3.4l5.3-0.7l3.6-2.2l2.2-3l-0.6-1.5l3.1-0.7l-1.1-2.3l-2.7-2.7c0,0-7.4-3.5-8.2-3.5c-1,0-6.1-1.6-6.1-1.6s-22.3-12.5-21.2-13
			c1.1-0.7-10.9-0.3-10.9-0.3l-4.2,4.2l-8.9-1.2l-8.9-0.7l-8.1-3.7L818.3,28.8z"/>
		<path fill-opacity="0" stroke="#000000" stroke-width="2.000000e-03" d="M818.3,28.8l-1.7,2.3l-5.3,5l-4,2.2l-0.7,1.2l-0.7,2.8
			l-0.2,5.1l7.7,5.8l-1.9,8c0,0-0.6,1.3-1.5,1.5c-2.2-3.5-6.8-1.6-7.1-1.6l-1.1-0.3c-0.4-1.6-1.4-3.4-2.2-3.8
			c-1.1-0.8-1.5-0.8-2.2-0.7c-0.4-0.5-6.5,3.7-6.5,3.7s-2.5,1.2-2.9,1.9c-1,1.3-1.1,3-1.1,3l-1.9,2.8c-1,0.8-1.9,1.6-1.9,2.3
			c0,0-0.2,0.5-0.4,3.5c0,0.8,0.2,4.2,0.2,4.2v16.3l-0.2,2.8c0,0,0.7,1.2,1.9,2.2c1,1,8.8,8.5,8.8,8.5s1.5,1.9,1.7,3.7
			c0.2,1.9,1.1,2.3,1.1,2.3c0.4,1.3,6.1-1.2,7.1-2s1.5-1,2.5-0.1c1,1,5.3,3.7,5.3,3.7l3.8,4.9c1.7,0.1-1.4,3.7-1.9,13
			c-0.2,4.3-1.1,3.4-0.7,3.5c0,0,2.7,2.7,1.4,2.6c-1.7-0.1-2.5,3.1-2.5,3.4c0,0-0.4,2.7,1.1,3c1,0.1,5.3,2.3,5.3,2.3s0.7,3,2.2,3.9
			c2.2,1.5,4,1.9,4,1.9l1.7-1l1.9-3l0.2-0.3l2.7-14v-5.8l-1.1-2.8l-1-5l-2.2-5.4l-0.4-4.9l-0.4-3l-1.9-1.9l-1.9-2.6l-3.2-0.8
			l-3.1,1.5l-2.7-0.1l-1.4-2.3l-1.9-1.5l-1.9-1l-1.4-1.2l0.7-2.7l0.6-2.8l1-1l1.4-0.8l1.7-2.3l0.7-2l1.7-2.8l3.2-0.7l1.5-1l2.7-1
			l3.6-0.3l2.5,0.5l1,0.8l1.1-0.3l1.4-1.3l0.6-1.3l4-0.3l1.4,2.3l1.1,2.3l3.1-0.5l0.7-2l-3.1-4.9l-0.6-3c0,0,1.9-2.8,4.3-3
			c2.5-0.3,4.2,2.3,4.2,2.3L848,75l1.7,0.1l1-2.2l0.6-5.4L854,67l3.6,1.5l-3.1,7.2l-2.5,7.2l-3.1,6.1l-1.1,10.7l3.8,8.3l4,6.4
			l5.6,3.5l4.2-5l0.6-8l-1.7-3.7l0.2-8.8l-2.5-5.3l-2.1-3.9l1.1-3l3.1-1l1-2.6h3.5l1.9,2.7l1.9-0.5c0,0,1.7-3.5,2.2-3.5
			c0.6,0,3.6-4.2,3.6-4.2l4.3-4.9l3.8-3.9l-2.7-3.8l-3.1-3l-1-3.4l3.5,0.8l4.2,2.3l3.1,1.5l0.7,3.4l5.3-0.7l3.6-2.2l2.2-3l-0.6-1.5
			l3.1-0.7l-1.1-2.3l-2.7-2.7c0,0-7.4-3.5-8.2-3.5c-1,0-6.1-1.6-6.1-1.6s-22.3-12.5-21.2-13c1.1-0.7-10.9-0.3-10.9-0.3l-4.2,4.2
			l-8.9-1.2l-8.9-0.7l-8.1-3.7L818.3,28.8z"/>
	</g>
</g>
<g id="WesternAustralia">
	<g id="path8926">
		<path fill="#CCCCCC" d="M727.2,387.1l-2.5,9.9l-9.6-4.6l-8.6,8.5l-0.4,1.2l-0.2,2.2l-1.4,3.4l-3.1-1c0,0-1.7-2.3-2.2-1.5
			c-0.7,1-0.6,3.5-0.6,3.5s-0.2,4.2-0.4,4.3c-0.2,0.1-1.7,2.2-1.7,2.2l-6,3.7l-7.2,3.7l-3.8,2l-2.5,1.3l-4.2,2.3l-1.5,0.5l-1.7,0.8
			l-1,0.8l-0.2,0.5l-0.2,1l0.4,0.7l0.7,0.1l0.6,0.1l0.4,0.7l0.4,1.3l0.4,2.2l0.4,1.6l1,2.8l0.6,0.8l1,1.6l0.2,1.2l0.2,1.5l0.2,2.8
			v2.7v1.5l1.7,1.5l1.9,2l1.1,1.5l0.4,0.8l1,2.6l2.2,3.7l0.6,0.5l0.4,0.1l1.1,0.7l1.4,1.3l0.7,1.5l-0.6,1.6l-0.4,1.3l-1.9,2
			l-0.4,2.2l1.1,2l2.9,0.3h6l3.6-1.5l2.7-3.5l4.3-0.8l5.6-0.8l2.7-1l11.7-8.7c0,0,10.5-2.8,11.7-2.2c1,0.7,5.7,0.5,5.7,0.5l2.1,0.1
			l1.1,0.3l2.1,1.9l1.4,1.6l0.6,1l0.4,1.9l0.7,2.3l0.6,0.1l1.9-1.2l0.4-0.8l0.6-0.3l2.5,0.7l0.2,1.9h2.7l1.1,2l2.5,1.5l2.5-3.4
			l0.7-7l-1-6.4l1.7-23.7l-34.5-1.2l-0.7-4.6l-0.7-24.8l-1.7-1.5L727.2,387.1z"/>
		<path fill-opacity="0" stroke="#000000" stroke-width="3.000000e-03" d="M727.2,387.1l-2.5,9.9l-9.6-4.6l-8.6,8.5l-0.4,1.2
			l-0.2,2.2l-1.4,3.4l-3.1-1c0,0-1.7-2.3-2.2-1.5c-0.7,1-0.6,3.5-0.6,3.5s-0.2,4.2-0.4,4.3c-0.2,0.1-1.7,2.2-1.7,2.2l-6,3.7
			l-7.2,3.7l-3.8,2l-2.5,1.3l-4.2,2.3l-1.5,0.5l-1.7,0.8l-1,0.8l-0.2,0.5l-0.2,1l0.4,0.7l0.7,0.1l0.6,0.1l0.4,0.7l0.4,1.3l0.4,2.2
			l0.4,1.6l1,2.8l0.6,0.8l1,1.6l0.2,1.2l0.2,1.5l0.2,2.8v2.7v1.5l1.7,1.5l1.9,2l1.1,1.5l0.4,0.8l1,2.6l2.2,3.7l0.6,0.5l0.4,0.1
			l1.1,0.7l1.4,1.3l0.7,1.5l-0.6,1.6l-0.4,1.3l-1.9,2l-0.4,2.2l1.1,2l2.9,0.3h6l3.6-1.5l2.7-3.5l4.3-0.8l5.6-0.8l2.7-1l11.7-8.7
			c0,0,10.5-2.8,11.7-2.2c1,0.7,5.7,0.5,5.7,0.5l2.1,0.1l1.1,0.3l2.1,1.9l1.4,1.6l0.6,1l0.4,1.9l0.7,2.3l0.6,0.1l1.9-1.2l0.4-0.8
			l0.6-0.3l2.5,0.7l0.2,1.9h2.7l1.1,2l2.5,1.5l2.5-3.4l0.7-7l-1-6.4l1.7-23.7l-34.5-1.2l-0.7-4.6l-0.7-24.8l-1.7-1.5L727.2,387.1z"
			/>
	</g>
</g>
<g id="MiddleEast">
	<path id="path13859" fill="#B3B3B3" d="M571.9,205.2c-0.2,0-0.4,0-0.4,0c-2.1,0-4.6,0.5-7.2,1.5c-6.1,2.2-11.4,3.7-13.2,3.7
		c-1.7,0-2.5-0.5-5.3-3.5l-1.4-1.5l-1.1,1c-2.7,2.2-3.8,4.2-4.7,9.3l-1.1,5.1l1.1,1.5c1,1,1.1,2.3,1.4,5c0.2,2.7,0.4,3.7,1.1,3.8
		c5.6,2,8.2,2.6,13.8,2.6s5.6,0,6.7,1.2c1,1,1.5,1.2,3.5,1.2c2.2,0,2.5-0.1,4.2-2c1.9-2,3.2-2.3,5.2-1c1.9,1.3,2.1,2.3,1.5,6.6
		c-0.4,2.8-0.4,4.5,0.2,6c0.6,2.2,0.2,5.8-1.1,8.5c-0.4,0.8-1.9,2.7-3.5,3.9l-2.7,2.3l1.9,2.3c3.6,4.5,4.3,5.4,5,7.2
		c0.6,1.5,1,1.9,3.5,2.8c1.9,0.8,3.1,1.5,3.6,2.3c0.4,0.8,1.7,2.2,2.7,2.8c1.1,1,2.5,3,3.8,5.4c2.2,4.5,4.2,7,7.8,9.9
		c2.2,1.6,3.2,3.7,1.9,3.7c-0.2,0-0.6,0.3-0.7,0.8c-0.1,0.5-0.2,0.8,0.2,0.7c0.2-0.1,0.6,0.1,1.1,0.5c0.6,0.5,0.7,0.5,1.1,0.1
		c1-1.2,2.9,1.6,5,7.5c0.6,1.5,1.7,3.4,2.7,4.3c1.4,1.5,1.9,1.6,5,2c5.2,0.5,10.5,0,11.3-1c0.4-0.5,1.9-1.2,3.1-1.9
		c1.4-0.5,3.8-2,5.6-3c1.7-1,4.7-2.7,6.7-3.4c2.7-1,3.6-1.6,4.7-3.5c1-1.2,2.7-3.4,4.2-4.9c3.1-3,6.8-9.3,8.1-12.6
		c0.7-2.7-0.2-7.7-1.7-9.6c-0.6-0.8-1.9-1.9-3.1-2.3c-1.1-0.5-2.2-1.6-3.1-2.7c-0.7-1.3-1.5-2-2.9-2.2c-1.5-0.3-2.1-0.1-3.8,0.8
		c-3.8,2.2-8.9,1.3-8.9-1.3c0-0.8-0.4-1.2-1.5-1.5c-0.7-0.3-2.5-1.5-3.8-2.8c-1.1-1.2-2.9-2.8-3.6-3.4c-1.1-0.8-1.4-1.6-1.9-5.1
		c-0.6-3.9-0.6-4.2,0.6-5.1c0.6-0.5,1.7-1,2.2-1s1.7-0.5,2.5-1.3s1.9-1.3,2.2-1.3c1.4,0,3.2,5.1,3.5,9.3c0,2.6,0.4,2.8,3.2,5.1
		c2.2,1.6,3.6,1.9,7.4,1c2.5-0.5,3.6-0.1,4.6,1.6c0.4,0.8,1,1,2.9,1c2.2,0,2.5-0.1,6.3-3.5c2.1-2,4.2-3.9,4.6-4.9
		c0.4-0.7,1-1.2,1.1-1.2c0.4,0,0.6-0.1,0.6-0.5c0-1.2-1.4-0.1-4.3,3.4c-3.2,3.7-6.3,6-6.8,5.4c-0.2-0.1-0.2-0.3-0.2-0.3
		c2.1-1.3,4-3.1,7.1-6.1l3.5-3.7l-1.4-2.2c-1.4-2-1.4-2.7-1.1-5.4c0.2-2.3,0-3.7-0.4-4.2c-0.4-0.5-1.7-2.8-3.1-5.1l-2.5-4.3l-0.4-7
		c-0.4-6.6-0.6-7.2-1.7-7.7c-1-0.5-2.5-1.9-6.1-5.3c-1.4-1.3-6.7-2.7-8.9-2.3c-1.7,0.3-1.7,0.3-2.1,2.8c-0.4,4.5-2.7,5.3-10.3,3.9
		c-6-1.2-8.1-2-9.6-3.9l-1.4-1.5l-2.2,1c-1.1,0.5-3.8,1.5-5.7,2.2c-3.1,0.8-4.2,1-7.1,0.8c-1.9-0.1-4-0.5-4.2-0.7
		c-0.4-0.3-1.4-0.3-2.7,0c-2.2,0.5-4.2,0.5-3.8,0.1c0.2-0.1,1.5-0.5,3.1-0.7c2.1-0.3,3.8-0.3,6.7,0.1c3.6,0.5,4,0.5,7.1-0.3
		c1.7-0.5,4.3-1.5,6-2.2c2.5-1.2,4.2-1.3,4.2-0.3c0,0.1,1,1,1.9,2c1.5,1.3,2.7,1.6,6.8,2.7c6,1.2,7.7,1.2,9.2-0.1
		c1.4-1,2.1-3.9,1.4-4.6c-0.4-0.3-0.6,0.3-1,1.6c-0.2,1.2-0.6,2.3-1.1,2.7c-1,0.7-4,0.7-6.5,0.1c-1-0.3-2.7-0.5-3.6-0.8
		c-2.5-0.3-5.2-2-6.3-3.9l-1-1.6l-3.8,1.6c-6,2.7-8.6,3.4-11.8,2.8c-1.5-0.1-3.5-0.5-4-0.8c-1-0.3-1.7-0.3-3.8,0.1
		c-1.4,0.3-4.3,0.7-6.5,0.8c-3.5,0.1-4.2,0.1-5.6-0.7c-1-0.5-1.9-1.5-2.2-2.3C576,206.2,574.4,205.5,571.9,205.2z"/>
</g>
<g id="SouthernEurope">
	<path id="path13549" fill="#CCCCCC" d="M532.7,241.1c-0.2-0.1,0.2-0.5,0.6-0.7c0.4-0.1,0.6-0.5,0.6-0.7c-0.2-0.1,0.4-0.8,1-1.3
		c1.7-1.2,1.7-1.6,0-2.8c-1.7-1.2-1.7-2,0.2-3.7l1.4-1.2l-1.1-0.8c-2.5-1.6-4.2-3.4-4.6-4.5c-0.2-0.7-0.4-1.5-0.4-1.6
		c-0.2-0.3,0.2-0.8,0.4-1.2c0.4-0.7,1-0.8,2.7-0.5c1.5,0.1-2.5-0.1-1.9-0.7c0.4-0.3,1.5-2.7,2.5-6c1-3.4,1-3.7,1.4-4.2
		c1.5-1.6,2.7-3.1,4.6-5.1c1.9-1.9-4-4.6-3.5-7c0.4-1,10.3-7.3,9.9-8.3c-0.4-2.2-1.7-7.2-1.7-12.9c0-2.7-0.6-3.7-6.8-10.2
		c-0.4-0.3-1-0.5-1.4-0.5c-1.1,0-6,4.6-7.4,7.5c-1.4,2.3-1.5,3-1.1,4.9c0.2,1.2,0.4,2.8,0.4,3.9v2h-6.3c-6,0-6.3-0.1-6.8-1
		c-1.4-1.9-1.5-5.1-0.6-7.3c1.1-2.7,0.7-2.8-4.6-2.8c-6,0-8.2,1.3-8.2,4.9c0,1.6-3.1,3.4-6,3.4c-1.4,0-3.1,0.3-3.8,0.8
		c-1,0.5-1.9,0.7-3.6,0.5c-1.4-0.1-3.2-0.3-4.6-0.5c-1.7-0.1-2.5-0.1-3.6,0.7c-1.4,1-1.4,1.2-1.4,4.5c0,3.1-0.2,3.7-1.4,4.9
		l-1.4,1.3l1.4,1.6c1.1,1.5,1.4,2,1.1,4.5c-0.2,2.6-0.2,2.8,1,3.7c0.6,0.5,1.5,0.8,1.7,0.7c1-0.5,4.2,0.7,4.7,1.6
		c0.4,0.5,0.4,2,0.4,3.1c-0.2,1.2,0,2.3,0.2,2.3c0.2,0,0.7,0.3,1.4,0.5c2.1,0.8,9.6,9.9,9.6,11.5c0,0.8-0.7,0.3-1-0.5
		c0-0.5-1.5-2.7-3.2-4.6c-4.3-5-5.2-5.8-6.7-6.1c-1.1-0.3-1.1-0.5-1-2.7c0.4-2.2,0.2-2.3-1-3.4c-1.4-1-3.6-1.5-3.1-0.7
		c0.2,0.3,0.6,0.5,1,0.5c1.4,0,1.9,1.3,1.9,4.2c-0.2,2.7-0.2,2.7,1.4,3c1,0.1,2.2,1,3.5,2.7c1.1,1.2,2.2,2.7,2.7,3
		c2.5,2.2,3.2,3.7,3.2,5.4c0,1-0.4,2.8-0.6,3.8l-0.6,1.9l-5.2,0.3c-2.9,0.1-5.3,0.5-6,0.8c-0.6,0.5-0.6,0.8,1.1,2.2
		c1.9,1.5,2.1,1.5,4.7,1.2c3.2-0.3,4.7,0,4.2,0.8c-0.2,0.3,0,0.8,0.4,0.8c0.4,0.1,0.6,0.1,0.6-0.1c0-0.2,0.4-0.5,1.1-0.7
		c0.6-0.1,1-0.3,1-0.5c-0.2-1,0.2-1.5,1.5-1.6c1-0.1,2.7-1.3,4.6-3.4l3.1-3l-0.7-1.6c-0.4-0.8-0.6-2.3-0.6-3.4
		c0.2-1.5,0.4-1.6,1.5-1.9c1-0.1,1.9,0.3,3.1,1c1.9,1.5,2.7,1.5,2.7,0.1c0-2-3.2-6.6-6.3-9.3c-3.2-2.8-3.8-3.9-2.2-5.4
		c1.4-1.3,4-1,7.4,1c4,2.3,4.6,3,5,5.4c0.6,4.2,1.5,6.6,2.9,8.3c3.8,4.9,4.2,5.8,4.2,9.5c0,3,0.2,3.5,1.4,4.5c0.6,0.5,1.4,1.5,1.4,2
		c0,0.7,0.6,0.8,2.7,1.2c3.2,0.3,3.8,1,1.1,1.2l-1.9,0.1l2.2,0.3c1.1,0.1,2.5,0.5,2.9,0.8C532.7,241.5,533,241.7,532.7,241.1z"/>
</g>
<g id="Ukraine">
	<path id="path13349" fill="#CCCCCC" d="M608.1,207.3c5.6-2.3,6-2.8,6-7c0.2-4.6,0-4.5,1.5-5.1c1.7-0.7,1.7-1.3-0.7-3.4
		c-2.2-2-8.8-11.4-9.2-13.4c-0.4-2.2,0-3,3.2-5.8l2.9-2.6l-1.9-2.3c-4.7-6.4-6.7-9.9-7.1-12.9c-0.4-4.2,0.2-6.6,1.9-8.3
		c1-0.8,1.5-2,1.5-2.7c0-2.2,1.1-4.6,2.2-5.1c0.6-0.3,1.9-0.3,2.7-0.3c1.1,0.1,1.9,0,2.2-0.5c1.4-1.5,4.7-2.6,7.7-2.3
		c2.5,0.1,2.7,0.1,2.7-0.5c0-2.2,7.4-3.5,10.9-2c1.9,0.8,1.9,0.8,5.3-1.5c1.4-0.8,3.5-2,4.7-2.3l2.2-0.7V126c0-2-0.2-2.8-1.1-3.7
		c-1.4-1.2-1.9-4.2-1.1-5.3c0.4-0.5,1.1-1,2.1-1.2c1-0.1,1.5-0.5,1.5-1c0-1.2-0.6-1.9-3.1-2.7c-3.1-1-4.7-2.6-5.2-4.6
		c-0.2-1.5,0-2,1-2.8c0.6-0.5,1.5-1.6,1.9-2.7c0.6-1.5,0.6-1.6-0.2-2.3c-1.1-1.2-2.1-6.1-1.4-7.7c1.1-2.3,1.1-6.8,0.2-11.4
		c-0.6-2.3-1.1-5.8-1.1-7.7c0-3.1,0.2-3.5,1.7-4.9c3.6-3.4,4.2-4.6,4.6-9.2c0.2-3.4,0-4.3-0.6-4.9c-0.4-0.3-1-1-1-1.2
		c0-0.5-5.6-4.2-7.7-4.9c-3.1-1.2-6.1-0.8-9.2,1c-3.5,2-6.1,2.3-10.5,1.3l-3.2-0.8l-1.5,1.2c-1,0.7-1.7,1.2-1.9,1.2
		c-0.1,0-1.4,1-2.9,2c-2.9,2.3-8.2,5.4-10.3,5.8c-2.2,0.5-3.5-0.3-3.6-2.7c-0.2-1.6-0.4-2-2.1-2.8c-1.1-0.5-2.7-0.8-3.6-1l-1.7-0.1
		l0.2,3.1c0.2,2.3,0.6,3.7,1.4,5.1c1.5,2.3,1.4,3.7-0.4,4.5c-0.7,0.3-2.1,0.8-2.9,1.2c-0.7,0.3-1.9,1.5-2.7,2.7
		c-0.6,1.2-1.7,2.3-2.5,2.7c-1.1,0.5-1.5,0.5-4-0.5c-3.5-1.5-5-1.6-4.3-0.1c0.2,0.5,0.4,1.6,0.4,2.3c0.2,1.2,0,1.3-2.1,1.5
		c-2.9,0.1-4.2-0.5-4.6-2.3c-0.2-1-1.7-2.7-4.2-4.9c-2.1-2-3.8-3.7-3.8-4.2c0.2-0.5,1.1-0.7,6.7-0.5c6,0.1,6.7,0.1,8.1-0.8
		c0.7-0.5,2.7-1,4-1.2c3.1-0.3,4-1.2,4-3.7c0-2-1.7-5.1-3.1-5.7c-1.9-0.8-10.7-2-18.4-2.7c-2.1-0.1-5.2-0.3-6.5-0.5
		c-1.9-0.1-2.5-0.1-2.1,0.1c0.4,0.3,4,0.8,8.4,1.2c4.2,0.3,9.2,0.8,10.9,1.2c1.7,0.3,4,0.5,5.2,0.8c2.2,0.3,3.2,1,4.2,3.5
		c1.1,2.3,0.2,2.2-1-0.3c-0.6-1.2-1.4-2.2-1.9-2.2c-1.7-0.5-14.5-2-18.5-2.3c-2.2-0.1-5.2-0.3-6.1-0.5c-1.9-0.3-1.9-0.3-3.1,2.3
		c-1,2.2-1.1,3.5-1.1,9.9c0,9.5,1.4,21.7,2.7,25.2c1.9,4.6,1.1,6.4-2.7,8.3c-1,0.5-1.4,1.2-1.4,1.9c0,1.6-1.4,3.9-2.7,4.9
		c-0.6,0.3-2.9,0.8-4.7,1c-1.9,0.1-3.5,0.5-3.5,0.7c0,0.7,2.2,2.6,3.5,2.8c2.2,0.5,2.7,5.3,1,7.8c-1.1,1.5-4.2,1.5-6.7-0.3
		c-1.4-1-1.9-1.2-2.1-0.8c-0.2,0.3-0.4,1.5-1,2.6c-0.6,2-0.4,5.3,0.6,6.1c0.2,0.3,0.6,1.2,0.6,2c0.2,1.3,0.6,1.9,3.5,3.5
		c5.2,3,5.2,2.8,5.3,6.6c0.4,4.3,1.9,7.8,4,9.9c1.9,2,1.9,2.7,0.4,5.4c-0.6,1.2-1.9,3.9-2.7,6.1c-1.9,4.6-3.1,5.7-6.7,6
		c-1.9,0.1-2.5,0.3-2.5,1.2c-0.2,0.8,0,1,1.9,1.2c2.5,0.3,3.8,1.5,8.1,6.8c2.5,3,2.5,3.1,2.5,7c0.2,6.1,1.7,11.9,3.2,11.9
		c0.4,0,1.4-1.3,2.2-3c1.9-3.4,3.8-4.5,6-3.8c0.6,0.1,3.1,2,5.3,3.8s4.2,3.5,4.6,3.5c0.4,0,1.1-0.3,1.7-1c1-1,1-1-0.2-1.6
		c-2.1-1.5-2.9-4.9-1.4-6c0.4-0.3,1.7-0.7,2.9-0.7c1.1,0,3.5-0.5,5.3-1.2c1.7-0.5,3.8-1.2,4.6-1.2c1.4,0,3.6,1.2,3.6,1.9
		c0,0.3-0.6,0.1-1.1-0.3c-1.5-1-4.2-0.8-6.8,0.1c-1.1,0.5-3.1,1-4,1.2c-3.5,0.3-4,0.7-4.3,1.5c-0.4,0.8,1,3.7,1.7,3.7
		c0.2,0,0.6,0.3,1,0.8c0.6,0.7,0.4,1-0.4,2c-1.7,1.9-3.5,1.5-6.3-1c-4.7-4.5-6.1-5.1-7.4-4.9c-0.6,0.1-1.9,1-2.5,1.6
		c-1.7,2-3.1,4.9-2.5,4.9c0.4,0,0.7-0.5,1.1-1.2c1.5-3,3.1-4.6,4.2-4.6c0.7,0,1.4,0.3,1.4,0.7s0.6,0.8,1.1,1c0.6,0.1,2.2,1.5,3.8,3
		c2.1,2,2.9,2.7,4.2,2.6c1.7,0,3.5-1,4.3-2.7c0.6-1,0.4-1.2-1.4-2.8c-2.7-2.3-2.2-3.1,1.7-3.9c1.9-0.3,3.8-1,4.6-1.3
		c1.4-0.8,4.7-1,6-0.3c1,0.5,0.6,1.9-0.6,2.8c-1.5,1.5-0.7,1.6,1,0.3c0.7-0.7,1.1-1.5,1.1-1.9c-0.2-0.3-0.2-0.7,0.2-0.7
		c1.1,0,0.2,2.7-1.7,4.5c-2.5,2.2-2.5,2.3-1.1,3c0.7,0.3,1.9,1.5,2.7,2.6c0.7,1,1.5,2,1.7,2c0.6,0,12.8,10.4,13.8,11.9
		c0.6,1,1.1,1.2,2.7,1.2c2.5,0,11-3.5,11.4-4.6c0.2-0.5,0.4-2.2,0.2-3.8c-0.2-2.3,0.2-3.1,1-4.2c0.6-0.8,1.4-1.3,1.7-1.3
		c0.4,0,0,0.5-0.6,1.2c-1.1,1-1.1,1.5-1.1,4.6c0.2,2-0.2,3.8-0.4,4.3c-0.6,1.2-8.8,4.6-10.5,4.6c-4,0-4.2-0.1-4.7-1.3
		c-0.6-1.2-6.8-6.8-11.8-10.4c-1.5-1.2-3.2-2.8-3.8-3.7c-0.6-1-1.5-1.9-2.2-2c-1.5-0.3-1.7-1.3-0.2-2.8c0.7-0.8,1-1,0.4-1
		c-0.4,0-1.4,0.8-2.2,1.6c-1.4,1.5-1.4,1.6-0.6,2.2c0.6,0.3,1.4,0.5,1.9,0.5c0.6,0,1.4,0.5,1.9,1.5c1,1.6,1.7,2.3,6.1,5.4
		c4.6,3.5,9.6,8,9.9,9.2c0.4,1.2,1.1,1.5,4.7,1.3C603.3,208.9,605.4,208.5,608.1,207.3z"/>
</g>
<g id="WesternEurope">
	<g id="path9072">
		<path fill="#999999" d="M468.1,168l-7.2,2.7l-1.5,3.5l-1.1,0.3l-8.2,0.5l-4.2,4.5l-3.5,1.5l-8.8,0.7l-0.6,0.7l-0.4,1.2l3.6,4.2
			l4.2,4.5l1.7,3.4l-0.2,7.5l-1.1,2l-3.6,1.6l-11,1l-1.7-2l-3.8-0.3l-5.3,2.8l0.6,4.6l2.5,2.7l2.7,3.5l0.7,3.9l-2.5,5.1l-2.9,6.8
			c0,0-1,2.3,0.4,2c1.1-0.3,5.2,4.9,5.2,4.9l5.3,1l7.1,0.8l6.7,1.3c0,0,1,0.8,2.7,1.9c1.9,0.8,2.9,1.2,2.9,1.2l5.6,0.5l1-0.5
			l0.2-1.3l1-1l3.6-2.2l2.9-0.8l1-1v-1.3l1.7-2l2.2-2l1.7-2.3l1.5-3.5l1.1-2.3l-2.7-6.8l-0.2-1l0.6-0.8l1-0.8l1-1v-1.2l-1.7-2.8
			c0,0-1.7-3.7-0.4-5.3c1.4-1.6,2.1-2.3,2.1-2.3l-0.2-0.3c0,0,1.9-0.3,2.7-0.1c0.9,0.2,2.1,2,2.1,2l1,0.8c0,0,0.6,0.8,1.1,0.3
			c0.7-0.3,2.5-2.2,2.5-2.2l0.4-1.6c-0.2-0.1-1-1.2-1.4-1.2c0-0.8,0.2-3.7,0.2-3.7c0.2,0.1-0.2-3-0.6-3.4c-0.6-1.3-1.7-1.6-1.7-2.2
			c-0.2-0.8,0.6-1.5,0.6-1.5l1.1-1.2c0,0,0.7-1.6,0.7-2.2c-0.2-0.5-0.2-1.6-0.2-1.6l0.2-1.2l0.2-1.6c0.2-0.3,0.4-1.5,1-1.6l1.1-1
			l-2.5-0.7l-0.4-0.3l-0.6-1.2l-0.7-1.9l-1-2l-1-1.5c0,0-2.2-2.8-2.9-3.4c-0.6-0.6-2.7-3.4-2.7-3.4L468.1,168z"/>
		<path fill-opacity="0" stroke="#000000" d="M468.1,168l-7.2,2.7l-1.5,3.5l-1.1,0.3l-8.2,0.5l-4.2,4.5l-3.5,1.5l-8.8,0.7l-0.6,0.7
			l-0.4,1.2l3.6,4.2l4.2,4.5l1.7,3.4l-0.2,7.5l-1.1,2l-3.6,1.6l-11,1l-1.7-2l-3.8-0.3l-5.3,2.8l0.6,4.6l2.5,2.7l2.7,3.5l0.7,3.9
			l-2.5,5.1l-2.9,6.8c0,0-1,2.3,0.4,2c1.1-0.3,5.2,4.9,5.2,4.9l5.3,1l7.1,0.8l6.7,1.3c0,0,1,0.8,2.7,1.9c1.9,0.8,2.9,1.2,2.9,1.2
			l5.6,0.5l1-0.5l0.2-1.3l1-1l3.6-2.2l2.9-0.8l1-1v-1.3l1.7-2l2.2-2l1.7-2.3l1.5-3.5l1.1-2.3l-2.7-6.8l-0.2-1l0.6-0.8l1-0.8l1-1
			v-1.2l-1.7-2.8c0,0-1.7-3.7-0.4-5.3c1.4-1.6,2.1-2.3,2.1-2.3l-0.2-0.3c0,0,1.9-0.3,2.7-0.1c0.9,0.2,2.1,2,2.1,2l1,0.8
			c0,0,0.6,0.8,1.1,0.3c0.7-0.3,2.5-2.2,2.5-2.2l0.4-1.6c-0.2-0.1-1-1.2-1.4-1.2c0-0.8,0.2-3.7,0.2-3.7c0.2,0.1-0.2-3-0.6-3.4
			c-0.6-1.3-1.7-1.6-1.7-2.2c-0.2-0.8,0.6-1.5,0.6-1.5l1.1-1.2c0,0,0.7-1.6,0.7-2.2c-0.2-0.5-0.2-1.6-0.2-1.6l0.2-1.2l0.2-1.6
			c0.2-0.3,0.4-1.5,1-1.6l1.1-1l-2.5-0.7l-0.4-0.3l-0.6-1.2l-0.7-1.9l-1-2l-1-1.5c0,0-2.2-2.8-2.9-3.4c-0.6-0.6-2.7-3.4-2.7-3.4
			L468.1,168z"/>
	</g>
</g>
<g id="Iceland">
	<g id="path9094">
		<path fill="#CCCCCC" d="M419.3,129.5l5.6-5.1l1-0.1l1.4,1.2l1.1,2.2l2.9,1.2l2.5-0.3l1.4-1l1-0.7h1.5l2.7-0.1l5.6-1.3l5.2-2.8h1.7
			l2.7,1.3l2.9,2.6l2.7,2l2.2,1.6l1,2.2l0.6,1.3l-1.9,3.9l-1.9,2.6l-0.2,1.2l-2.2,0.7l-3.2,1l-2.1,0.8l-10.9,5.4l-1.1,0.7l-1.4-0.1
			l-2.1-0.5l-2.7-0.5l-3.2-1l-1.1-0.1l-5-0.8l-1.4-0.5l0.6-1l0.6-3l-0.4-2.2l-0.6-0.5l-1.9-1.5l-2.1-0.5l0.4-1l1.1-1.2l0.2-1.5
			l-0.6-1.5l-1.4-0.8l-1-0.3l-0.4-0.5l1.7-1.2l1-0.8L419.3,129.5z"/>
		<path fill-opacity="0" stroke="#000000" stroke-width="2.000000e-03" d="M419.3,129.5l5.6-5.1l1-0.1l1.4,1.2l1.1,2.2l2.9,1.2
			l2.5-0.3l1.4-1l1-0.7h1.5l2.7-0.1l5.6-1.3l5.2-2.8h1.7l2.7,1.3l2.9,2.6l2.7,2l2.2,1.6l1,2.2l0.6,1.3l-1.9,3.9l-1.9,2.6l-0.2,1.2
			l-2.2,0.7l-3.2,1l-2.1,0.8l-10.9,5.4l-1.1,0.7l-1.4-0.1l-2.1-0.5l-2.7-0.5l-3.2-1l-1.1-0.1l-5-0.8l-1.4-0.5l0.6-1l0.6-3l-0.4-2.2
			l-0.6-0.5l-1.9-1.5l-2.1-0.5l0.4-1l1.1-1.2l0.2-1.5l-0.6-1.5l-1.4-0.8l-1-0.3l-0.4-0.5l1.7-1.2l1-0.8L419.3,129.5z"/>
	</g>
</g>
<g id="GreatBritain">
	<path id="path13133" fill="#B3B3B3" d="M393.2,184c1-0.7,1.7-0.8,2.2-0.7c1.5,0.5,2.9,0.1,4-1.6c0.4-0.8,0.7-0.8,3.1-0.8
		c1.9,0.1,2.5,0.3,2.5,0.7s0.4,0.5,1.4,0.5s1.4-0.1,1.1-0.7c-0.2-0.5,0.2-0.7,1.1-0.7c0.6,0,3.6-0.5,6.7-1c5.2-1,5.3-1,6.1-2.2
		c0.7-1.2,0.7-1.2-0.2-2c-1.1-1-1.1-2,0.2-3.7c0.6-0.8,1.4-2,1.7-2.7c0.6-1.2,0.6-1.2-0.6-2.3c-0.6-0.7-1.9-1.2-3.1-1.5
		c-3.1-0.7-6-3-6.7-5.4c-0.2-0.8-0.7-1.6-1-1.6c-0.4-0.1-0.4-0.7-0.4-1.5c0.2-0.8,0.4-1.2,0.4-0.8c0.2,0.5,0.4,0.5,0.7,0.1
		c0.4-0.3,0.4-0.5,0.2-0.5c-0.2,0-0.4-0.3-0.4-0.5c0-0.5-0.2-0.5-0.6-0.1c-0.7,0.5-1.7,0-1.4-0.8c0.2-0.5,0.2-0.5-0.2-0.1
		c-0.2,0.3-0.7,0.3-1.1,0.3c-0.7-0.1-0.7-0.1,0,0.3c0.6,0.3,0.6,0.5,0.2,0.8c-0.4,0.1-1.1-0.3-2.1-1c-1-0.8-2.2-1.9-3.2-2.6
		c-2.2-1.5-2.1-2.3,0.6-4.9c2.2-2.2,2.7-2.8,3.5-5.3c0.2-1,0.2-1.5-0.2-1.5c-0.2,0-1.4-0.3-2.7-0.8c-2.1-0.8-2.2-1-3.2-3.5
		c-0.6-1.5-1.1-2.7-1.4-2.8c-0.2-0.1-1.7,0.1-3.6,0.5c-4.2,0.8-5.2,1.6-6.7,6.1c-0.6,2-1.4,3.9-1.7,4.5c-0.4,0.8-0.4,1.3,0.4,2.6
		c0.7,1.3,0.7,2.7,0,4.2c-0.2,0.5,0,0.8,1.4,1.2c2.5,0.8,3.5,3.1,1.9,4.2c-0.6,0.3-1.4,0.3-4.6-0.5c-2.2-0.5-4.2-1-4.3-1
		s-1,0.5-1.5,1.2c-1.1,1.3-5,4.2-7.4,5.4c-2.5,1.3-2.7,2.6-1.9,6.6c1,4.2,0.7,4.5-2.9,5.3c-2.5,0.7-3.5,1.6-4,3.8
		c-0.4,1.2,0.4,3.4,1,3.4c0.2,0,1.1,0.5,1.9,1.2c1.1,0.8,2.2,1.3,3.1,1.3c3.2,0.1,7.1,0,9.2-0.1l2.2-0.3l1.4-2.3
		c0.6-1.3,1.7-4.3,2.2-6.6c1.1-5,1.4-5.4,3.1-6.1c1.7-0.8,3.2-0.1,4.3,1.9c1.4,2.6,1.1,3.9-0.7,3.9c-1,0-2.1,1.3-2.1,2.3
		c0,0.5,0.4,0.7,2.1,0.7c4.2,0,4.2,2.7-0.2,4.5c-1.4,0.5-5,3.9-5,4.6C388.6,185.9,391.6,185.2,393.2,184z"/>
</g>
<g id="Scandinavia">
	<g id="path5813">
		<path fill="#B3B3B3" d="M483.4,105.1l-4.2-13.7c0,0-0.6-2.2,3.5-6c4.2-3.8,17-10.3,17-10.3l4.3-8.5l3.2-4.5c0,0,4.7-1.5,4.3-2.8
			c-0.4-1.2-2.1-2.7-2.1-2.7l1.7-2.2l7.7,2.8c0,0,3.5-2.2,5.2-3.4c1.4-1.2,1.7-5.4,1.7-5.4l5.3-1.9l7.7,1.2l3.8-1.9l6.7,3.4
			c-0.7,2.2-1.5,5.7-2.2,7.7c0.2,9.9,0.4,11.5,1.4,27.1c1.4,2.2,2.5,10.4,1.5,10.2c-0.6-0.1-2.5,3-4,2.7L531.3,98l-2.2-2.2l0.6-6
			l0.6-8.7l-3.1-1l-5.6,11.6l1.7,9.6l-8.6,7.7l1,7.7c0.2,3-3.1,4.3-6.7,5.3c-2.1,0-11.7-13.7-12.8-13.4c-2.5,0.3-5.2,3.4-5.2,3.4
			l-7.8-1.9L483.4,105.1z"/>
		<path fill-opacity="0" stroke="#000000" stroke-width="2.000000e-02" d="M483.4,105.1l-4.2-13.7c0,0-0.6-2.2,3.5-6
			c4.2-3.8,17-10.3,17-10.3l4.3-8.5l3.2-4.5c0,0,4.7-1.5,4.3-2.8c-0.4-1.2-2.1-2.7-2.1-2.7l1.7-2.2l7.7,2.8c0,0,3.5-2.2,5.2-3.4
			c1.4-1.2,1.7-5.4,1.7-5.4l5.3-1.9l7.7,1.2l3.8-1.9l6.7,3.4c-0.7,2.2-1.5,5.7-2.2,7.7c0.2,9.9,0.4,11.5,1.4,27.1
			c1.4,2.2,2.5,10.4,1.5,10.2c-0.6-0.1-2.5,3-4,2.7L531.3,98l-2.2-2.2l0.6-6l0.6-8.7l-3.1-1l-5.6,11.6l1.7,9.6l-8.6,7.7l1,7.7
			c0.2,3-3.1,4.3-6.7,5.3c-2.1,0-11.7-13.7-12.8-13.4c-2.5,0.3-5.2,3.4-5.2,3.4l-7.8-1.9L483.4,105.1z"/>
	</g>
</g>
<g id="India">
	<path id="path13895" fill="#CCCCCC" d="M691.9,199c-0.6,0-1.1,0.5-1.5,1.3c-1.9,3.4-9.2,8-10.7,7c-2.5-1.6-6-3.5-7.1-3.7
		c-1-0.1-1.4,0-2.1,0.8c-1.9,2.7-3.5,3.7-6.3,4.2c-2.7,0.5-2.9,0.7-4.6,3.5c-1.4,2.3-2.2,3-3.5,3.4l-1.7,0.5l0.4,6.4
		c0.4,7.2,1,8.5,4.2,13.4c2.2,3.4,2.2,3.7,2.2,7.2c0,3.1,0.2,3.9,1.4,5.7c0.7,1,1.5,1.9,1.9,1.6c1-0.5,4.2,0.8,6.3,2.6
		c1.1,0.8,2.5,2.7,3.2,3.8c1.9,3,2.2,3.5,3.8,3.5c2.5,0,3.5,1,3.5,3.5c0,1.2,0.4,2.7,0.7,3c0.6,0.7,1,0.5,2.2-0.8
		c1.1-1.2,2.1-1.6,3.8-2c1.9-0.1,2.2-0.1,3.1,1c0.6,0.8,0.7,1.6,0.6,3c-0.4,2.3-2.2,6.5-2.2,5.1c0-0.5,0.4-1.6,0.7-2.7
		c1-1.6,1-4.2,0.4-5.1c-1-1.3-4.2-0.7-5.6,1.2c-1.9,2.7-4.2,1.3-4.2-2.3c0-2.6-0.4-3-2.9-3.4c-2.2-0.3-2.9-0.8-4.2-3
		c-1.9-3.4-6.1-6.6-8.2-6.6c-1.7,0-1.4,0.8,0.4,1c1.9,0.3,6.7,4.5,7.1,6.4c0.4,1.6,2.5,3,4.2,3c2.1,0,2.9,1,2.2,3
		c-0.4,1.6-0.4,1.6,1.7,3.5l2.1,1.6l0.7-1c1.4-2,3.6-3.7,4.6-3.5c1.1,0.1,1.4,2.7,0.4,5c-0.6,1.2-0.7,3-0.7,5.8
		c0,2.2-0.2,5.1-0.4,6.6c-0.4,2.7-0.4,2.8,1.1,3.9c1.4,1.2,1.7,1.6,1.7,3.7c0.2,3.8,0.6,4.6,3.2,6.1c2.2,1.2,2.5,1.5,2.5,3.4
		c0,1,0.6,3.7,1.5,6c1,2.2,1.5,4.2,1.5,4.5c0,0.3,1,1.6,2.2,3.4c1.1,1.6,2.7,3.9,3.1,5.4c1.1,3.5,2.5,3.5,5.2,0.1
		c1.4-1.6,1.9-2.8,1.9-3.9c0-0.8,0.7-3.5,1.9-5.8c1.7-3.8,1.9-4.5,1.5-7.2c-0.4-2.6-0.2-3.5,1.4-7c1-2.2,1.9-6,2.5-8.5
		c1.1-6.5,1.1-6.5,2.7-7.5c2.1-1.6,3.2-4.6,3.2-8c0-2.7,0.2-3.1,1.4-4.2c1.1-1,1.7-1.2,4.6-1.2h3.1l-0.4-2c-1-4.9-1-5.8-0.4-6.6
		c0.4-0.8,1-1,1.9-0.8c1.4,0.1,1.7-0.3,0.4-0.8c-3.1-1-5,3-3.1,6.6c1,1.9,0.4,2.6-2.2,2.6c-3.2,0-5.6,1.6-6.3,4.5
		c-0.4,1.6-0.7,1-0.6-1c0.2-1.2,3.5-3.8,4.7-3.9c0.6,0,1.7-0.1,2.5-0.1c1,0,1.1-0.3,1.1-0.7c-0.6-1.6-0.6-6.1,0.2-7.2
		c0.6-1,1.1-1.2,3.1-1.2c2.2,0,2.2-0.1,5.2-3.5c1.5-2,3.8-5.1,5.2-7.3c2.2-3.7,2.2-3.9,1.7-5.7c-1.4-4.2-5.2-5.8-9.9-4.3
		c-3.6,1.2-5.6,1-7.4-0.7c-1-0.8-1.5-1.5-1.5-1.6c0-0.1-1.4-0.5-3.1-0.8c-1.7-0.3-4-1-5-1.6c-1.4-0.8-2.5-1.2-4.7-1.2
		c-2.5,0-3.2-0.1-6.8-2.3c-2.2-1.3-4.7-2.7-6-3c-4.6-1.3-5.2-2.8-2.5-6.5c1.7-2.6,2.2-4.9,1.7-9.2l-0.4-2.8l-3.1-0.3
		c-3.5-0.3-4-0.5-4.7-3C693.2,199.7,692.6,199,691.9,199z"/>
</g>
<g id="Ural">
	<path id="path13061" fill="#999999" d="M699.9,156.3c0.4-1.2,0-2,0.4-2.6c0.4-0.5,1.5-1.6,1.5-2.2c0,0,0.4-1.6,2.5-2
		c1.1-0.3,2.2-1.3,1.9-2.3c0-1.9-1-2,1.1-3c1.7-0.8,0.6-1.6,0.6-4.3s-0.2-2.8-2.7-5.3c-1.5-1.5-3.1-3.4-3.5-4.2
		c-0.6-1-1.1-1.5-3.1-2c-1.1-0.3-2.2-0.8-2.2-1c0-0.1-0.2-0.5-0.2-0.8c-0.2-0.3-0.2-1.2-0.2-2.2c0-1-0.6-2.2-1-2.8
		c-1-1-1.1-1-2.7-0.5c-2.2,0.7-3.1,0.3-4-2c-0.7-1.9-0.7-2.2,0-3c0.4-0.5,1.4-1.2,1.9-1.3c0.7-0.1,1.1-0.8,1.1-2.6
		c0.2-1.5,0.6-2.7,1.4-3.4c1-1,1.1-1.5,1-4.3c-0.2-3.1-0.2-3.4-2.5-4.9c-2.5-1.9-2.7-2.6-1.1-5.1c1.4-2.6,1-4.6-1.4-6.5
		c-1-0.8-3.2-3.1-5-5.3c-1.7-2.2-3.5-4.2-3.8-4.5c-0.6-0.3-0.7-1.6-0.7-4.3c0-3.7,0-3.8-1.1-3.8c-0.6,0-1.7-0.3-2.2-0.7
		c-1-0.5-1-0.8-0.4-2.2c0.6-1.2,0.6-1.5-0.4-1.9c-0.6-0.1-1.4-1-1.7-2c-0.4-0.8-1-1.5-1.1-1.5c-2.2,0.5-6.1-4.3-5.3-6.5
		c0.2-0.5,0-1-0.2-1.2c-0.6-0.3-1.7,1.2-1.9,3.4c-0.2,1-0.4,2.2-0.6,2.8c-0.4,1.5-3.1,3.9-4.7,4.6c-1.9,0.7-6,0.7-7.1,0
		c-1.1-0.5-2.1-2.3-1.1-2.3c0.2,0,0.4,0.3,0.4,0.5c0,0.8,2.2,1.6,4,1.6c1.9,0,4.7-1.2,6.5-2.7c1.1-1,1.7-2,1.9-4.5
		c0.6-3.1,1.5-4.9,2.9-4.5c0.4,0.1,0.7,1,0.7,2.2c0,2.2,1.9,5,3.6,5.4c1.7,0.5,1.7-0.1,0-1c-1.9-1-2.7-2.3-2.7-5.4
		c0-3-0.7-3.5-3.1-2c-1.1,0.8-1.7,1.5-2.1,3.5c-0.4,1.5-0.6,3-0.7,3.5c-0.4,1.2-2.5,3.4-4.2,3.8c-2.7,1-6.5,0.3-6.5-1.2
		c0-0.3,1-1.6,2.2-3c2.7-2.8,5.6-7.3,5.6-8.7c0-1.5-1.9-4.3-4.3-6.6c-1.4-1.2-2.5-2.7-2.7-3c-0.2-0.5,0.4-2.2,1-3.7
		c0.7-1.5,1.4-3.1,1.4-3.7c0-0.8-1.9-1.9-5.2-2.7c-0.6-0.1-1.9-1.2-3.1-2.6c-1-1.2-2.1-2.2-2.2-2.2c-0.1,0-0.4,1-0.4,2.2
		c0,1.6-0.4,2.6-1.1,3.4c-1,0.8-1.1,1.5-1,3.7c0.2,2.7-1,5.1-2.1,5.4c-0.7,0.3,1.4,2.3,2.7,2.8c0.6,0.1,1.4,1,1.7,2
		c0.6,1.2,1.4,2,2.5,2.3c1.4,0.5,1.7,1,1.7,2.2c0.2,1.2,0,1.5-1,1.6c-1,0.1-1,0.5-0.6,1.5c0.6,2,0.4,8.3-0.4,10.7
		c-0.4,1.3-1.5,3-3.1,4.5c-2.2,2.3-2.5,2.3-2.2,5.3c0,1.6,0.4,4.2,1,5.7c1.1,4.2,1.4,6.6,1,9.3c-1.1,5.4-1.1,6.6,0,8.3
		c1.9,2.7,1.4,6.4-1.1,8.3c-0.7,0.5-1.1,1.3-1,1.6c0.4,0.8,3.8,2.6,5.3,2.6c2.5,0,3.6,5.4,1.5,7.3c-0.6,0.5-1.4,0.8-1.9,0.8
		c-1.1,0-1,0.5,0.6,2.6c1,1,1.4,2.3,1.4,3.5c0,1,0.2,2.2,0.6,2.6c0.4,0.5,0.4-0.1,0.2-2.3c-0.2-2-0.6-3.4-1.4-4.2
		c-1-1-1-1.3-0.4-1.6c0.4-0.1,1-0.3,1.1-0.3c1,0,2.1-3,1.7-4.6c-0.6-2.8-1.5-3.8-4.6-4.5c-3.5-0.8-4-1.5-2.5-3.1
		c0.7-0.8,1.7-2.6,1.9-3.8c0.6-2.2,0.6-2.7-0.4-3.9c-1.5-2.3-1.7-3.5-1-6.1c1-3.4,1-7.5,0-10.8c-0.4-1.5-1-4.2-1.1-6.1l-0.4-3.5
		l1.9-1.9c1-1,2.2-2.3,2.7-3c1.4-2.3,2.2-7,2.1-10c-0.2-2.2-0.2-3,0.6-3.9c1.4-1.6,0.6-4.2-1.4-5.1c-0.7-0.3-1.9-1.2-2.2-2
		c-0.4-0.8-1.7-1.9-2.7-2.3s-1.7-1-1.7-1s0.4-1,1.1-2.2c0.6-1.5,1-2.8,1-4.3c-0.2-1.2,0.2-2.6,0.4-2.8c0.4-0.3,1-1.3,1.4-2.2l1-1.5
		l1.1,1.2c0.6,0.7,2.5,1.6,4,2.2c1.5,0.5,3.1,1.2,3.1,1.5c0,1-2.7,6.8-3.1,6.1c-0.2-0.3,0.4-1.9,1.1-3.4c0.7-1.5,1.1-2.8,1.1-3
		c0-0.1-1.1-0.5-1.9-0.8c-2.2-0.3-5-2-5.2-2.8c-0.2-0.5-0.2-0.3-0.4,0.3c0,0.7-0.6,1.5-1,2c-0.7,0.5-1,1.5-1.1,4.2
		c-0.2,2.3-0.4,3.7-1.1,4.2c-0.7,0.8-0.7,0.8,1.1,2c1.1,0.7,2.2,1.6,2.5,2.7c0.4,1,1,1.5,1.9,1.6c2.1,0.5,3.2,4.3,1.9,5.8
		c-0.4,0.3-0.6,2.7-0.7,5.4c-0.2,4.2-0.4,5.3-1.4,7.3c-0.7,1.3-2.1,3.1-3.1,3.9c-1.4,1.3-1.7,1.9-1.7,3.8c0,1.2,0.4,3.9,1,6.1
		c1.1,4.6,1.4,9.5,0.2,11.6c-1,2.2-1,2.8,0.2,4.9c1.4,2.3,1.4,6-0.2,8.7l-1.1,2.2l1.1,0.7c0.6,0.3,1.5,0.7,2.1,0.7s1.4,0.1,1.7,0.3
		c1,0.5,2.7,4.2,2.7,5.4c0,1.5-1.4,3.5-2.7,4.5c-0.6,0.3-1,0.7-0.6,0.7c0.7,0,2.2,4.2,2.2,6.4c0,1.3,0.4,1.9,1.7,2.6
		c1,0.5,1.9,1.6,2.2,2.7c0.4,1,1,2,1.1,2c2.2,0.7,6.7,5.8,8.2,9.5l0.7,2.2l2.5-0.3c2.9-0.3,3.2-0.1,4.2,2.8c0.6,1.6,1,2,3.2,2.8
		c2.1,0.8,3.1,0.8,5.6,0.7c3.1-0.3,3.1-0.3,4,1.2c1.1,1.6,1.4,1.6,3.2,0.5c1.4-0.8,3.2-0.8,3.2,0c0,0.5,6.1,8,6.7,8
		c0.4,0,2.1-1.2,2.5-2.3L699.9,156.3z"/>
</g>
<g id="NorthernEurope">
	<g id="path9050">
		<path fill="#999999" d="M478.3,181.7l-2.7-6.1l-7.1-8c0,0,3.2-8,3.5-10.8c0.4-2.7,5.6-5.3,5.6-5.3l6.8-7.2l6.1-7.7l2.2-6.4
			c0,0-1-5.8-1.5-5.8c-0.6,0.1-0.2-3.7,1.9-4.3c1.9-0.7,1.7-1,1.7-1l1.7,1.9l1,2.3l-1,2.2l-0.4,3.4c0,0,0.4,3,3.2,2.8
			c2.9-0.3,8.1-1.5,8.1-1.5l13.9-2.2l6.1,0.5l4.2-1.5l7.8,5.1c0.2,2.3,1.1,6,1.1,8.5l3.2,5.1l1.4,2.2l-0.6,2.2l-1.7,3.8l-2.2,5.3
			l-1.7,2.2l-1.4,0.5l-2.5,0.7h-1.7c0,0-1.1,0-1.1,2.8c0,1,3.8,0.8,3.8,0.8l-1.5,1.9l-2.9,1.5c0,0-2.1,2.8-2.7,3.4
			c-0.2,0.1-2.1,4.3-2.1,4.3c0.2,0.3,0.7,3.7,0.6,4.2l0.2,3.4l-0.7-0.1l-2.7-0.3l-3.2,0.3h-5c0,0-1.9-2.7-1.5-3.7
			c0.4-0.8,1-3.8,1-3.8l0.2-0.5V175c0,0,0.4-1-1.4-1.5c-1.7-0.5-8.2,0.1-8.2,0.1l-1.7,0.1l-2.9,2c-0.2,1-0.2,2-1.1,3l-1.1,1.6
			l-1.4,0.5c0,0-0.2,0.3-1.5,0.3c-1.4,0.1-3.1,0.5-3.1,0.5C490.9,183.2,484.3,182.3,478.3,181.7z"/>
		<path fill-opacity="0" stroke="#000000" stroke-width="2.000000e-03" d="M478.3,181.7l-2.7-6.1l-7.1-8c0,0,3.2-8,3.5-10.8
			c0.4-2.7,5.6-5.3,5.6-5.3l6.8-7.2l6.1-7.7l2.2-6.4c0,0-1-5.8-1.5-5.8c-0.6,0.1-0.2-3.7,1.9-4.3c1.9-0.7,1.7-1,1.7-1l1.7,1.9l1,2.3
			l-1,2.2l-0.4,3.4c0,0,0.4,3,3.2,2.8c2.9-0.3,8.1-1.5,8.1-1.5l13.9-2.2l6.1,0.5l4.2-1.5l7.8,5.1c0.2,2.3,1.1,6,1.1,8.5l3.2,5.1
			l1.4,2.2l-0.6,2.2l-1.7,3.8l-2.2,5.3l-1.7,2.2l-1.4,0.5l-2.5,0.7h-1.7c0,0-1.1,0-1.1,2.8c0,1,3.8,0.8,3.8,0.8l-1.5,1.9l-2.9,1.5
			c0,0-2.1,2.8-2.7,3.4c-0.2,0.1-2.1,4.3-2.1,4.3c0.2,0.3,0.7,3.7,0.6,4.2l0.2,3.4l-0.7-0.1l-2.7-0.3l-3.2,0.3h-5
			c0,0-1.9-2.7-1.5-3.7c0.4-0.8,1-3.8,1-3.8l0.2-0.5V175c0,0,0.4-1-1.4-1.5c-1.7-0.5-8.2,0.1-8.2,0.1l-1.7,0.1l-2.9,2
			c-0.2,1-0.2,2-1.1,3l-1.1,1.6l-1.4,0.5c0,0-0.2,0.3-1.5,0.3c-1.4,0.1-3.1,0.5-3.1,0.5C490.9,183.2,484.3,182.3,478.3,181.7z"/>
	</g>
</g>
<g id="EasternAustralia">
	<g id="path8950">
		<path fill="#B3B3B3" d="M729.7,387.1l1,13l0.6,11.6l0.1,17.9l2.2,1.9l32.9,0.1l-1,26.8l0.4,7.7l-1.5,6.5l-3.1,2.3l1.1,5.3l1.4,3.5
			l5.6,0.7l1,0.3l1.7,2l6,1.2l1.4-2.2h0.4l1.7,2.6l4.7,0.3c0,0,2.5-2.3,2.7-3.1s8.8-1,8.8-1s1.5-0.7,1.9-2.3
			c0.2-1.6,0.4-2.3,0.4-2.3l0.4-0.1l0.4,0.7h0.2l-0.2-0.8l-0.4-0.5l-0.4-0.1h-0.6c0,0-0.4,0-0.2-0.5c0.2-0.5,1.1-1.3,1.1-1.3l1-0.7
			l0.4-0.1h0.2l0.2-0.1l0.2-0.3l0.2-0.5c0,0,0-1.2,0.4-1.2c0.4-0.1,0.6,0,0.6,0l0.4,0.1h0.2h0.2h0.2l0.2-0.1l0.2-0.1V474v-0.3v-0.1
			v-0.1l0,0l0,0H805l-0.4,0.3l-0.2,0.1l-0.2,0.1c0,0-0.2,0.1-0.2,0c0,0-0.4-0.3-0.2-1c0.2-0.8,0.6-1.9,0.6-1.9l1.1-2.2l1.1-2.2
			l1.7-3l1.1-1.5l0.4-0.1l0.2-0.1c0,0-0.2-0.1-0.2-0.5c0-0.3,0.6-0.8,0.6-0.8l0.4-0.3l0.2-0.5l0.2-0.1v-0.3c0,0,0-0.3,0.6-0.3
			c0.6-0.1,0.6-0.1,0.6-0.1l0.2-0.1c0-0.1-0.2-0.1-0.2-0.1s0-0.1,0-0.3c0-0.1,0.2-0.5,0.4-0.5c0.2,0,0.2-0.1,0.4-0.3
			c0.2-0.1,1.9-1.6,1.9-1.6l-1-18.8l-1-2.7l-3.5-3.5l0.2-0.3l-1.1-0.1l-0.6-3.4l-0.6-0.8L804,423l-0.6-1.6l-0.2-2.8l-0.4-1.5
			l-0.4-0.7l0.2-0.1l1,0.3l0.2-0.1v-0.3l-1.1-0.8l-1.5-0.3l-6.3-3.5l-2.5-2.7l-0.6-4.2c0,0-6.7-6-6.8-7.2c-0.2-1-1.7-5.1-1.7-5.1
			l-0.2-1.9l0.4-0.3c0,0-2.2-5.8-3.8-8.1c-1.4-2.3-4.3-5.3-4.3-5.3l-2.5-0.3l-1.7,1.5l-0.6,2.8c0,0-0.2,1.3-0.4,1.5
			c-0.2,0-0.4,0-0.4,0v0.3c0,0-1.4,7.2-2.2,7.2c-1-0.1,0.2,3.4,0.4,4.9c0.2,1.5-1.1,8-1.1,8l-1.5,0.7l-1.9-0.8l-4-3.5l-4.2-1.5
			l-0.7-0.7c0,0-3.8-0.3-2.5-2s4.6-5.3,4.6-5.3l0.4-1.5l-0.2-3.7l-15.6-0.5L729.7,387.1z"/>
		<path fill-opacity="0" stroke="#000000" stroke-width="2.000000e-03" d="M729.7,387.1l1,13l0.6,11.6l0.1,17.9l2.2,1.9l32.9,0.1
			l-1,26.8l0.4,7.7l-1.5,6.5l-3.1,2.3l1.1,5.3l1.4,3.5l5.6,0.7l1,0.3l1.7,2l6,1.2l1.4-2.2h0.4l1.7,2.6l4.7,0.3c0,0,2.5-2.3,2.7-3.1
			s8.8-1,8.8-1s1.5-0.7,1.9-2.3c0.2-1.6,0.4-2.3,0.4-2.3l0.4-0.1l0.4,0.7h0.2l-0.2-0.8l-0.4-0.5l-0.4-0.1h-0.6c0,0-0.4,0-0.2-0.5
			c0.2-0.5,1.1-1.3,1.1-1.3l1-0.7l0.4-0.1h0.2l0.2-0.1l0.2-0.3l0.2-0.5c0,0,0-1.2,0.4-1.2c0.4-0.1,0.6,0,0.6,0l0.4,0.1h0.2h0.2h0.2
			l0.2-0.1l0.2-0.1V474v-0.3v-0.1v-0.1l0,0l0,0H805l-0.4,0.3l-0.2,0.1l-0.2,0.1c0,0-0.2,0.1-0.2,0c0,0-0.4-0.3-0.2-1
			c0.2-0.8,0.6-1.9,0.6-1.9l1.1-2.2l1.1-2.2l1.7-3l1.1-1.5l0.4-0.1l0.2-0.1c0,0-0.2-0.1-0.2-0.5c0-0.3,0.6-0.8,0.6-0.8l0.4-0.3
			l0.2-0.5l0.2-0.1v-0.3c0,0,0-0.3,0.6-0.3c0.6-0.1,0.6-0.1,0.6-0.1l0.2-0.1c0-0.1-0.2-0.1-0.2-0.1s0-0.1,0-0.3
			c0-0.1,0.2-0.5,0.4-0.5c0.2,0,0.2-0.1,0.4-0.3c0.2-0.1,1.9-1.6,1.9-1.6l-1-18.8l-1-2.7l-3.5-3.5l0.2-0.3l-1.1-0.1l-0.6-3.4
			l-0.6-0.8L804,423l-0.6-1.6l-0.2-2.8l-0.4-1.5l-0.4-0.7l0.2-0.1l1,0.3l0.2-0.1v-0.3l-1.1-0.8l-1.5-0.3l-6.3-3.5l-2.5-2.7l-0.6-4.2
			c0,0-6.7-6-6.8-7.2c-0.2-1-1.7-5.1-1.7-5.1l-0.2-1.9l0.4-0.3c0,0-2.2-5.8-3.8-8.1c-1.4-2.3-4.3-5.3-4.3-5.3l-2.5-0.3l-1.7,1.5
			l-0.6,2.8c0,0-0.2,1.3-0.4,1.5c-0.2,0-0.4,0-0.4,0v0.3c0,0-1.4,7.2-2.2,7.2c-1-0.1,0.2,3.4,0.4,4.9c0.2,1.5-1.1,8-1.1,8l-1.5,0.7
			l-1.9-0.8l-4-3.5l-4.2-1.5l-0.7-0.7c0,0-3.8-0.3-2.5-2s4.6-5.3,4.6-5.3l0.4-1.5l-0.2-3.7l-15.6-0.5L729.7,387.1z"/>
	</g>
</g>
<g id="Ontario">
	<g id="path26397">
		<path fill="#666666" d="M209.3,162.3c-1-1.3-1.4,9.5-1.1,13c-1,1.6-1.1,1.5-2.1,4.6c-0.6,11-1.4,19.2-1.7,29l31.6,0.3l6.8,2.2
			l13.8-1.9l6.3,1.9l2.5,5.8l13.8,6.5l1.9-21l-3.8-0.3l-5.6-11.9l3.8-2.6l-8.8-0.8l-4.2-2.3l-6.8-1.2l-4.2-1l-7.1-4.2l-1.4-1.5h2.9
			l1-1.5l-1.4-1.9l-1-1.5l-1.4,1.6l-1.5,0.1l-1.5-1.2l0.4-4.3l0.4-3.5l-0.6-0.7l-1.9,5.1l1-5.4c-1.9,0.7-2.7-0.5-4.2-1l-9.2-0.5
			l-9.6-0.1h-7.1V162.3z"/>
		<path fill-opacity="0" stroke="#000000" stroke-width="0.119" d="M209.3,162.3c-1-1.3-1.4,9.5-1.1,13c-1,1.6-1.1,1.5-2.1,4.6
			c-0.6,11-1.4,19.2-1.7,29l31.6,0.3l6.8,2.2l13.8-1.9l6.3,1.9l2.5,5.8l13.8,6.5l1.9-21l-3.8-0.3l-5.6-11.9l3.8-2.6l-8.8-0.8
			l-4.2-2.3l-6.8-1.2l-4.2-1l-7.1-4.2l-1.4-1.5h2.9l1-1.5l-1.4-1.9l-1-1.5l-1.4,1.6l-1.5,0.1l-1.5-1.2l0.4-4.3l0.4-3.5l-0.6-0.7
			l-1.9,5.1l1-5.4c-1.9,0.7-2.7-0.5-4.2-1l-9.2-0.5l-9.6-0.1h-7.1V162.3z"/>
	</g>
</g>
<g id="Siberia">
	<path id="path13055" fill="#999999" d="M729.5,157.3c0-0.5,0.4-2,1-3.1c1-2.2,1-2.2-0.7-5.1c-1.7-3.5-1.7-7.2-0.4-9.5
		c6.3-2.8-0.2-1.6-3.8-3.7c-3.5-2-5.2-3.1-5.2-3.9c0-0.3,1-2.3,2.1-4.5l2.1-3.8l-1.4-3.5c-0.7-2-1.4-3.9-1.4-4.6
		c0-1.2,1.7-2.2,4.2-2.2c1.1,0,1.5-0.1,1.9-1.2c0.6-2.7,1.5-3.9,4-5.4c1.4-1,3.1-2.2,3.2-2.7c1.4-2,5.7-0.3,7.4,2.8
		c1.5,2.8,2.2,3.4,3.8,2.2c1-0.8,1.1-1.5,1-3.7c-0.2-1.5,0.2-2.8,0.4-3c1-0.5,0.6-2.7-0.4-3.5c-1-1-1.5-5.1-1-6
		c0.4-0.3,0.6-1.2,1-2.2c0.2-0.8,1-2.7,1.7-4.2l1.4-2.7l-1.4-2.2c-1.4-2-1.4-2.3-1-3.8c0.4-1.5,0.4-1.6-0.4-2
		c-1.4-0.3-1.9-2-1.9-4.5c0-1.2-0.4-2.8-1.4-4.2c-1.5-2.7-1.7-4.3-0.4-5.4c0.7-0.8,0.7-0.8-0.4-2.2c-0.6-0.8-1.7-1.3-2.5-1.3
		c-0.6,0-2.1-0.3-3.2-0.8c-3.2-1.2-3.5-3.5-0.4-5.1c1-0.5,2.7-1.9,4-3c2.5-2.2,3.2-2.6,5.2-1.3c0.7,0.5,1.7,0.5,3.2,0.3
		c3.5-0.5,3.8-0.8,4-5.8c0.2-2.3-0.2-4.5,0.2-4.9c-0.4-0.3,0.2-1,0-1.5c-0.6-0.8-0.4-1.2,1.1-2.6c1.5-1.5,1.7-1.6,1.1-2.8
		c-0.4-0.7-1.1-1.3-2.1-1.6c-2.2-0.8-3.2-1.6-3.2-3.4c0-1.2-0.4-1.5-1.5-2c-1-0.3-1.7-1-1.9-1.5c-0.4-0.8-0.6-0.8-3.1-0.5
		c-1.4,0.1-3.2,0.7-4,1.2c-1.7,1.2-3.5,1-5.6-0.3l-1.7-1.2l-1.9,1.5c-1,0.8-1.9,1.5-2.2,1.5c-0.2,0-1,0.5-1.7,1
		c-2.7,2.2-5.3,3.5-7.2,3.5c-2.2,0-3.1-0.7-3.1-2.7c0-2.7,3.2-6.1,7.4-8.5c1.9-1,4-2,4.2-2c1.4,0,0.6,0.8-1.9,1.6
		c-5.3,2.2-9.7,7.3-8.8,9.9c0.4,1,0.7,1.2,2.2,1c1.5-0.1,6.3-3,6.8-3.9c0.2-0.1,0.6-0.3,1-0.3c0.4,0,1.5-0.5,2.5-1.3
		c2.1-1.6,2.7-1.6,4.3-0.5c1.7,1,3.6,1.2,5.3,0.1c0.6-0.3,2.5-0.8,4-1c2.5-0.1,3.1-0.1,4,1c0.6,0.7,1.7,1.2,2.2,1.2
		c0.7,0,0.6-0.1-0.4-0.8c-0.7-0.3-1.5-1.2-1.7-1.6c-0.2-0.8-0.6-0.8-3.8-0.7c-2.5,0.1-4,0.3-4.6,1c-1.5,1.2-3.5,1-5.2-0.7l-1.7-1.5
		l-2.2,1.9c-1.1,1-2.5,1.9-2.7,1.9c-0.2,0-1.9,1-3.8,2.3c-3.8,2.6-6,3-6,1.2c0-2.6,5-7,10.2-9c1.4-0.5,1.5-0.8,1.9-3.7
		c0.2-1.6,0.4-3.5,0.2-3.7c-0.2-0.3-1.7-0.5-4.7-0.7l-4.6-0.1l-0.7-2c-0.4-1-1.1-2.3-1.7-2.8l-1-1L715.7,5c-1.4,0.8-2.7,1.9-3.1,2.2
		c-0.7,1-3.1,1-4,0.1C708,7,707.1,6.9,704.3,7c-3.2,0.1-3.8,0.3-5.3,1.6c-1.7,1.3-1.9,1.5-4.2,1.2c-3.8-0.3-6.1,0.3-8.9,3.1
		c-1.4,1.3-3.2,2.7-4,2.8c-1.4,0.5-1.7,0.8-1.9,2.8c-0.2,1.3-0.6,2.3-1.1,2.6c-0.5,0.2-1.7,0-3.1-0.3c-2.9-0.7-4.2-0.3-4.6,1
		c-0.4,1.5,0.4,3,2.9,5.7c2.2,2.2,2.5,3,1.5,3.5c-1,0.5-5.2-0.8-5.3-1.5c-0.2-0.3-1-1.5-1.9-2.3c-1.5-1.5-1.7-1.5-2.2-0.7
		c-1.4,1.6-0.4,5,2.2,7.5c2.2,2,3.5,4.9,2.7,6.5s-1.9,2-3.6,0.5c-1-0.7-2.2-1.3-3.2-1.6c-1.4-0.3-1.9-0.8-2.5-2.3
		c-0.6-1.9-2.1-3-2.7-2.6c-0.2,0.1-0.4,1.2-0.6,2.2c-0.2,1.5,0.2,3,1.7,6.5c1,2.6,2.2,4.6,2.5,4.9c0.4,0.1,1.9,0.3,3.5,0.3
		c2.2,0,3.1,0.1,4,1c1.4,1.3,3.6,7.2,3.5,9.2c-0.2,2.2,0.4,2.6,1,0.5c0.4-1.5,0.6-1.5,0.6-0.3c0,0.7-0.6,2-1,2.6
		c-0.6,1,0.7,4.2,1.7,4.2c1.1,0,1.4,0.8,1,2c-0.2,1,0,1.6,1.4,2.3l1.9,0.3l0.2,3.4l0.4,3.5l3.2,3.9c1.9,2.2,4.3,5.1,5.7,6.5
		c3.2,3,3.8,5.3,1.9,8.3l-1.1,2l2.2,2l1.9,2l0.2,3.9c0.2,3.8-0.4,3-1.7,3.9c-1.1,0.8-1,1.9-1,3.5c0,2-1.4,1-2.9,3.4
		c-0.6,1-0.2,1.9,0,2.2c0.2,0.3,0.4,0.8,0.4,1c0,0.1,1,1.5,1.5,1.2c0,0,1.9,0,2.5-0.3c1.7-0.8,3.8,2.2,3.8,4.5
		c0,1.6,0.2,1.9,1.5,2.2c1.5,0.3,2.5,1,4.7,4.2c0.6,0.8,2.1,2.6,3.2,3.7l2.2,2.3v4.6v3.9l2.5,1.3c3.1,1.6,3.2,1.6,5,0.3
		c1-0.5,1.7-0.8,2.5-0.7c1.5,0.3,4,3.9,5.2,7.7c1,2.8,1.1,3,3.1,3.7C729,159,729.5,158.7,729.5,157.3z"/>
</g>
</svg>
