<?xml version="1.0" encoding="utf-8"?>
<!-- Generator: Adobe Illustrator 18.0.0, SVG Export Plug-In . SVG Version: 6.00 Build 0)  -->
<!DOCTYPE svg PUBLIC "-//W3C//DTD SVG 1.1//EN" "http://www.w3.org/Graphics/SVG/1.1/DTD/svg11.dtd">
<svg version="1.1" id="svg" xmlns:svg="http://www.w3.org/2000/svg"
	 xmlns="http://www.w3.org/2000/svg" xmlns:xlink="http://www.w3.org/1999/xlink" x="0px" y="0px" viewBox="0 0 1216.4 1084.7"
	 enable-background="new 0 0 1216.4 1084.7" xml:space="preserve">
<g id="Greenland">
	<g id="path27138">
		<path fill="#B3B3B3" d="M230,79.5l8.4-8.7c0,0,0-3.7-1-4.1c-1-0.4,1.5-2.4,1.5-2.4l2.7-0.1l3.1-1.6l1.4-2.2c0,0,7.9-4.5,9.2-4.2
			c1.4,0.2,3.5,2,3.5,2l1.7-0.4l2.7-2.4l5.9-2.7l11.3-8l2.1-0.4l3.1,0.5l1.6,0.7l2.7,0.4h1.6l10,1l1.9,0.2l6,6.5l3.8-0.1l3.2-1.9
			l4.6-1.9l-2.2,3.6l-3.9,5.4c0,0-2,4.7-1.7,4.9c0.2,0.2,0.8,4.1,0.8,4.1s-0.7,6-0.3,6.4c0.4,0.4,2,3.3,2,3.3l-2.2,3.5l0.1,2.1
			l-2.1-0.1l-2.7,2.4l1.2,3.8L315,94l-3.9,1.5l-7,0.8l-4.2,2l-5.2,5.1l-6.1,5.7l-6.8,3.4c0,0-2.7,1-3.6,2.9
			c-0.9,1.9-4.2,9.9-4.2,9.9l-1.3,4.9c0,0-0.6,4.1,0,3.7c0.6-0.4-1.6,1.2-1.6,1.2l-2.7-1.6l-6-4.9l-4.2-3.4l-0.8-3.7l-2.2-7.5
			l-0.6-1.5l2.1-2.3l1.1-3.7l-3.1-4.5l0.1-0.4l0.5-0.2c0,0,0.6-1.5,0.4-2.3c-0.2-0.8-1-2.7-1-2.7l-1.9-3.9c0,0-2.9-5.1-5.6-6.2
			c-2.7-1.2-4.8-4.9-4.8-4.9l-2.4-1.7l-1.8,0.2l-1.2,0.6l-0.6,0.1l0.5-0.5l-2.2,0.2L230,79.5z"/>
		<path fill-opacity="0" stroke="#000000" stroke-width="2.000000e-03" d="M230,79.5l8.4-8.7c0,0,0-3.7-1-4.1
			c-1-0.4,1.5-2.4,1.5-2.4l2.7-0.1l3.1-1.6l1.4-2.2c0,0,7.9-4.5,9.2-4.2c1.4,0.2,3.5,2,3.5,2l1.7-0.4l2.7-2.4l5.9-2.7l11.3-8
			l2.1-0.4l3.1,0.5l1.6,0.7l2.7,0.4h1.6l10,1l1.9,0.2l6,6.5l3.8-0.1l3.2-1.9l4.6-1.9l-2.2,3.6l-3.9,5.4c0,0-2,4.7-1.7,4.9
			c0.2,0.2,0.8,4.1,0.8,4.1s-0.7,6-0.3,6.4c0.4,0.4,2,3.3,2,3.3l-2.2,3.5l0.1,2.1l-2.1-0.1l-2.7,2.4l1.2,3.8L315,94l-3.9,1.5l-7,0.8
			l-4.2,2l-5.2,5.1l-6.1,5.7l-6.8,3.4c0,0-2.7,1-3.6,2.9c-0.9,1.9-4.2,9.9-4.2,9.9l-1.3,4.9c0,0-0.6,4.1,0,3.7
			c0.6-0.4-1.6,1.2-1.6,1.2l-2.7-1.6l-6-4.9l-4.2-3.4l-0.8-3.7l-2.2-7.5l-0.6-1.5l2.1-2.3l1.1-3.7l-3.1-4.5l0.1-0.4l0.5-0.2
			c0,0,0.6-1.5,0.4-2.3c-0.2-0.8-1-2.7-1-2.7l-1.9-3.9c0,0-2.9-5.1-5.6-6.2c-2.7-1.2-4.8-4.9-4.8-4.9l-2.4-1.7l-1.8,0.2l-1.2,0.6
			l-0.6,0.1l0.5-0.5l-2.2,0.2L230,79.5z"/>
	</g>
</g>
<g id="NorthWestTerritory">
	<path id="path11771" fill="#999999" d="M209.9,153.9c1.5-2.4,5.7-6.9,7.3-7.7c1.8-0.9,3-0.8,1.3,0.2c-3.4,1.8-10,9.4-8.2,9.4
		c0.2,0,0.9-0.9,1.6-2c1.4-2.2,5.7-6.3,7.2-6.9c0.6-0.2,1.7-0.4,2.5-0.4c0.8,0,1.6-0.2,1.9-0.3c0.9-0.6,1.5-2.2,1.5-4
		c0-2.7,2.5-4.5,6.1-4.5c1.4,0,2.1-0.4,4.9-2.9c3.8-3.4,4.1-3.8,4.8-6.4l0.6-2l0.3,1.3l0.3,1.3l0.1-1.2c0-0.7,0.4-1.4,0.8-1.6
		c0.7-0.4,0.7-0.5,0-0.5c-0.4,0-1-0.1-1.3-0.1c-0.3,0-1-0.9-1.6-1.9c-1.6-2.8-3.3-2.9-8.6-0.3c-3.4,1.7-4.6,1.4-6.2-1.9
		c-0.7-1.3-1.8-5.6-2.3-8.8c-0.3-1.7,0.6-3.6,3-6.4c1.7-2,2.9-4.6,2.4-5c-0.5-0.5-4.8,0.4-6.1,1.3c-0.8,0.5-2.3,2.2-3.3,3.8
		c-1,1.6-2.5,3.6-3.2,4.4c-1.3,1.5-1.3,1.6-1.3,6.9c0,4.6-0.1,5.4-0.8,6.1c-1.1,1-2,0.6-3.6-2c-0.8-1.2-1.7-2.5-2-2.8
		c-1.3-1.3-2.6,0.5-2.4,3c0.2,1.8-1,3.4-2.6,3.4c-1.4,0-6.7-1.5-8.5-2.5c-1-0.5-1.3-0.5-2.6,0.4c-1.2,0.8-1.5,1.4-1.7,2.9
		c-0.1,1-0.5,2.1-0.7,2.3c-0.6,0.6-6.2,1.1-8.2,0.7c-0.9-0.2-2.3-1-3.3-1.8c-3.1-2.7-4.8-4.1-6.5-5.2c-1.5-1-1.8-1.1-2.3-0.5
		c-0.4,0.4-1.2,0.6-1.9,0.6c-1.9,0-3.4-1.8-4.6-5.4c-0.3-0.9-1.2-1-1.2-0.1c0,0.8-2.1,1.4-2.8,0.7c-1-1-2.3-0.5-4.9,1.7
		c-3.2,2.8-5.8,3.6-11.1,3.5c-2.2,0-4.7,0.1-5.5,0.3c-1.4,0.3-1.7,0.2-2.5-0.8c-0.5-0.6-1-1.4-1.1-1.6c-0.2-0.6-7.4,0.5-7.4,1.1
		c0,0.4,2.4,0.2,5.1-0.4c1.2-0.3,1.5-0.1,2.3,1.1c1.2,1.6,3.3,2.2,5.2,1.3c0.8-0.4,1.8-0.5,2.6-0.3c2.2,0.5,5.2,0.4,7.4-0.2
		c2.8-0.8,3.7-1.4,5.9-3.4c1.9-1.7,2-1.8,3.6-1.3c0.9,0.3,2,0.4,2.4,0.2c0.4-0.1,0.7-0.1,0.7,0.2c0,0.6-1.9,0.6-3.3,0
		c-1-0.5-1.3-0.3-3.1,1.4c-3.3,3-5.4,3.8-11,3.9c-2.7,0-5.8,0.2-7.1,0.4c-1.9,0.2-2.4,0.1-3.2-0.6c-0.5-0.5-1-1.1-1.1-1.4
		c-0.1-0.3-1.2-0.4-3.3-0.2c-3.7,0.3-3.7,0.3-3.7,5.5c0,2.4-0.2,3.6-0.8,4.4c-0.7,0.9-0.8,2.4-0.9,9.9c-0.1,8.5-0.1,8.9,0.8,9.8
		c0.9,1,0.9,1,15.8,1c13.5,0,15,0.1,16,0.8c1,0.7,3.1,0.8,25,0.9c19.4,0.1,24.2,0.3,25.1,0.8C208.5,156,208.7,155.9,209.9,153.9z"/>
</g>
<g id="Venezuela">
	<path id="path12167" fill="#C8BEB7" d="M214,362.3c0.7-1.1,0.9-3.6,0.4-5c-0.7-1.9-0.6-4.7,0.1-5.8c0.8-1.1,3.3-2.4,4.8-2.4
		c0.6,0,1.8,0.6,2.8,1.4c1.3,1.2,2,1.4,3.4,1.4c1,0,2.4-0.3,3-0.6c1.2-0.5,1.2-0.5,0.9-3.5c-0.4-3.9,0.1-4.4,3.4-3.7
		c2.2,0.5,2.2,0.5,4-1c2.6-2.2,3.7-2.4,5-0.9c0.6,0.7,1.2,2,1.3,3c0.6,3.9,3.6,5.2,10.6,4.4c5.1-0.6,7.6-1.5,11-4.1
		c2.3-1.7,4.7-5.3,4.2-6.1c-0.6-1-3-1.4-8-1.4c-5.1,0-5.3,0-7.6-1.4c-1.3-0.8-2.6-1.6-2.9-1.9c-1.4-1-7.4-7.2-8.2-8.3
		c-1.4-2-4-2.6-11.9-2.8l-7.1-0.2l-3.9-2c-2.2-1.1-4.7-2.6-5.7-3.3c-1.8-1.3-3.2-1.4-4.7-0.2c-0.4,0.3-1.8,1.2-3.3,2
		c-5.9,3.2-6.2,3.5-9,7.6c-1.5,2.2-3.6,4.7-4.5,5.4c-2.2,1.6-2.7,2.9-2.1,5c0.2,0.9,0.4,2.8,0.4,4.2c0,2.2-0.2,2.7-1.2,3.8
		c-0.7,0.7-1.6,1.4-2.1,1.7s-0.7,0.6-0.6,0.8c0.6,0.6,3.3-1.5,4.1-3.1c0.8-1.7,0.9-4.8,0.2-7.6c-0.4-1.7-0.4-2.1,0.3-3.1
		c0.4-0.6,1.3-1.5,2-1.9c0.7-0.4,2.4-2.4,3.8-4.5c2.4-3.6,2.8-4,6.7-6.2c2.3-1.3,4.8-2.8,5.7-3.4c1.9-1.2,2.5-1.2,4,0
		c1.1,0.9,7.1,4.1,10.3,5.5c1,0.4,0.9,0.5-0.5,0.2c-0.9-0.1-2.9-0.9-4.3-1.8c-1.5-0.8-2.8-1.5-2.9-1.5c-0.1,0-1.1-0.6-2.1-1.3
		c-2-1.3-3.1-1.6-3.5-0.9c-0.1,0.2-1.7,1.1-3.4,2c-5.3,2.7-6.6,3.7-8.5,6.8c-1,1.6-2.9,4-4.4,5.4l-2.6,2.5l0.5,3.5
		c0.3,1.9,0.4,4.1,0.2,4.9c-0.3,1.4-3.3,5-4.2,5c-0.9,0,3.1,3.6,5.2,4.7c1.2,0.6,3.1,1.8,4.3,2.6c1.2,0.8,3.6,2.2,5.5,3
		c1.9,0.8,4.4,2,5.6,2.6C210.8,363.3,213.3,363.4,214,362.3z"/>
</g>
<g id="Peru">
	<path id="path12223" fill="#CCCCCC" d="M260.6,433.2c1.7-1,3.1-2.1,3.1-2.4c0-0.7-1.9-5.7-3.1-8.2c-0.9-1.8-1.3-2.2-3.1-2.8
		c-1.8-0.6-2.2-1-2.8-2.5c-0.4-1-0.7-3-0.7-4.5c0-2.4-0.3-3.3-1.9-6.6c-1.1-2.1-3-5-4.2-6.5c-1.2-1.5-2.6-3.2-3-3.9
		c-0.6-1-1.1-1.2-2.3-1.2c-2.4,0-7.8-3.1-11.6-6.6l-3.2-3l-2.6,1c-1.5,0.5-3.8,1.4-5.3,2c-3.1,1.2-6.3,0.9-7.7-0.5
		c-1.2-1.2-1-2.4,0.7-4.1c0.8-0.8,1.5-1.7,1.5-2c0-0.8-1.5-0.5-3.2,0.6c-0.9,0.6-1.9,1-2.3,0.9c-0.4-0.1-1.5-1.2-2.5-2.4
		c-1-1.2-2.6-2.6-3.7-3.2c-2.4-1.3-2.7-2.6-1.6-5.5c0.7-1.8,1.5-2.8,4.3-5.3c1.9-1.7,3.5-3.1,3.5-3.3s-1.4-0.9-3.2-1.7
		c-6.3-2.8-13.7-7.2-16.5-9.8l-1.8-1.7l-1.4,2c-0.8,1.1-1.5,2-1.6,2c-0.3,0,0.6-1.7,1.7-3.2c0.5-0.7,0.7-1.4,0.6-1.5
		c-0.3-0.3-1,0.3-1.7,1.6c-0.3,0.5-1.5,2.4-2.7,4.3l-2.2,3.4l-0.4,6c-0.2,3.3-0.3,6.7-0.1,7.4c0.2,1.4,1.7,3.2,5.8,6.9
		c2.2,2,2.8,3,5.9,9.9c1.1,2.6,2.1,3.8,5.4,7.1c2.6,2.5,5.3,4.7,7.6,6c2.5,1.4,4.8,3.3,7.6,6.2c2.2,2.3,3.9,3.7,3.7,3.2
		c-0.7-2.1-8.5-9-11.8-10.6c-0.9-0.4-1.7-1-1.7-1.2c0-0.2,0.1-0.4,0.2-0.4c0.6,0,5.2,3,7.2,4.7c5.3,4.5,6.7,6.2,6.8,7.9
		c0,0.7,8.9,8.8,10.2,9.3c0.2,0.1,0.8-0.7,1.3-1.7c0.9-1.8,2.3-2.7,3.5-2.3c0.4,0.1,1.4,0.7,2.2,1.2c0.8,0.5,2.6,1.1,4,1.3
		c4.5,0.5,4.7,0.6,6,2.6c1.4,2.3,4.5,3.8,7.7,3.8c1.3,0,2.2,0.2,2.6,0.7c1,1.1,1.3,5.9,0.6,7.6c-0.3,0.8-0.6,1.7-0.6,1.9
		C254,436.6,257.4,435.2,260.6,433.2z"/>
</g>
<g id="Argentina">
	<path id="path12297" fill="#B3B3B3" d="M239.7,532.4c1.3-0.5,3-1.1,3.7-1.5l1.2-0.6l-2-1.2c-2.8-1.7-5.6-4.6-6.2-6.2
		c-0.3-1-0.3-2.2,0-4.1c1-5.7,2.5-9.4,4.6-11.6l1.1-1.2l-2.4-1.3c-1.3-0.7-2.6-1.8-2.9-2.4c-0.4-1-0.3-1.4,1.4-3.9
		c1-1.5,2.3-3.4,2.9-4.1c1-1.3,1-1.4,0.4-4.9c-0.4-1.9-0.8-3.9-0.9-4.4c-0.4-1.3,0.8-2.4,2.9-2.4c2.9,0,3.9-0.6,4.5-2.9
		c0.6-2.3,1-2.6,3.9-3c2.7-0.4,6.1-2.5,8.2-5c2.9-3.4,2.9-3.7,1.6-6.2c-1.4-2.8-1.2-3.6,1.1-3.6c2.4,0,5-1.7,7.1-4.7
		c0.8-1.2,0.9-1.4,0.3-1.4c-0.4,0-0.7,0.2-0.7,0.4c0,0.2-0.9,1.3-1.9,2.4c-1.4,1.4-2.4,2-3.6,2.2c-4.4,0.7-4.9,1.5-3.1,4.7
		c1,1.7,1,2.1,0.5,3.3c-0.3,0.7-1.8,2.4-3.2,3.8c-2.6,2.4-5,3.5-7.7,3.5c-1.6,0-3,1.2-3,2.6c0,1.8-1,2.8-3.2,3c-1,0.1-2.4,0.4-3,0.7
		c-1,0.5-1.1,0.7-1,3.4l0.1,2.8l-0.6-2.4c-0.6-2.2-0.5-2.5,0.2-3.5c0.6-0.9,1.4-1.2,3.4-1.5c2.2-0.3,2.7-0.6,3.2-1.5
		c0.3-0.6,0.5-1.5,0.5-1.9c0-1.2,1.4-2,3.7-2.3c3.2-0.4,5.8-1.9,8.3-4.8l2.2-2.5l-1-2c-1.7-3.4-1.1-5.5,1.4-5.5
		c0.7,0,1.9-0.3,2.7-0.6c1.5-0.6,4.7-3.6,4.7-4.4c0-0.2-0.5-1-1.1-1.7c-0.8-0.9-1.1-1.8-1.1-3.1c0-1.4-0.2-1.8-1.1-2.2
		c-1.3-0.5-3.1-3.2-3.5-5.2c-0.3-1.3-0.4-1.4-1.6-1.2c-1.1,0.2-1.4,0.1-1.8-0.8c-0.6-1.4,0.1-2.9,2.9-6.1c1.1-1.2,2-2.3,2-2.5
		c0-0.1-0.7,0.2-1.7,0.8c-5.5,3.4-8.1,4.1-9.5,2.7l-0.9-0.9l0.9-2.5c0.7-1.8,0.9-3,0.7-4.4c-0.3-2-0.4-2.1-2.8-2
		c-0.6,0-2.4-0.5-4-1.2c-2.2-1-3.1-1.7-3.9-3.1c-1-1.7-1.1-1.8-4.2-2.1c-1.7-0.2-3.5-0.6-4-0.9c-0.5-0.3-1.4-0.9-2.1-1.3l-1.2-0.8
		l-0.9,1.7c-0.7,1.5-2.4,2.8-3.5,2.8c-0.2,0-2.4-1.8-4.9-3.9c-3.1-2.6-4.7-3.8-4.9-3.4c-0.2,0.3-0.3,0.1-0.3-0.4
		c0-1.4-0.8-1.6-1-0.3c-0.4,2,0.5,12.2,1.4,16.7c1.2,5.6,1.1,6.8-0.3,9.3c-1.5,2.7-1.4,6.3,0.4,9c1.1,1.7,1.2,2.2,1.2,6.2
		c0,4.4,0,4.5-1.3,5.6c-0.7,0.7-2,2.4-2.9,3.8c-1.7,2.9-2,4.7-1,7.6c0.3,0.9,1.2,4.5,1.9,7.8c1.1,5.2,1.4,6.2,2.2,6.5
		c0.5,0.2,1.4,0.9,1.9,1.6c1.2,1.5,1.3,5.7,0.2,8.1c-0.4,0.9-1.4,3.1-2.2,4.8c-0.8,1.8-1.4,3.4-1.2,3.6c0.1,0.2,0.9,0.7,1.7,1
		c2.5,1,2.8,1.7,2.8,5.2c0,5.4,0.7,7.9,3.4,11.4c1.3,1.7,2.9,3.5,3.6,4c0.7,0.5,2.1,2.2,3.2,3.6C233.5,533.4,235.2,534,239.7,532.4z
		"/>
</g>
<g id="Brazil">
	<g id="path27119">
		<path fill="#B3B3B3" d="M270.5,341.1l12.3,7.1c0,0,5.4,6.8,9.5,10.8c1.5,1.5,8.1,1.3,8.1,1.3l13.6,5.3c5.2,2.8,5.5,5.5,6.8,8.3
			c0.6,4.5-3.3,5.4-4.3,7.8c-4.2,5.1-6,10.9-6,10.9l-5.4,11.3l-8.6,17.4c0,0-15.1,6.3-14.9,8.1c0.3,1.8-12.4,26-12.4,26
			c-1.2-2-2.7-2.9-2.2-6.3c-0.9-0.8-4.6-2.3-4.5-6.8c-3.3-0.9-2.5-0.3-3.1-1c0.1-3.3,3.3-5.6,5.1-8.4c-1.4-10.6-6-12.9-7.3-14.4
			c-0.5-0.4-0.6-0.2-1.6-1.7c-1-0.4-0.9-7.3-0.9-7.3s-1.5-4.4-10.8-16.5c0.9,2.1-9.3,0.1-15.1-8.6c-1.2-1.9-12,6.4-16.6,2.7
			c-1.8-1.4,1.7-5.7,2.4-5.7c-0.2-1.1-0.7-0.9-1.2-0.8c-2.4,1.1-4.9,3.5-6.7,0.5l-6.3-6c0.4-2.9,2.9-7.5,9.1-11.6
			c1.4,0,3.9,1.7,5.4-1.2l-0.1-4.6c-0.6-1.9-0.6-3.6-0.2-5.4c1.8-2.5,4-2.7,5.2-2.3l4.5,2.4c0,0,2.6,0.7,5.9-1.6l0-6.1l4.2,1
			l2.1-0.9c1-1.6,1.9-3.2,3.8-2.5c0.5,0.4,1,0.9,1.4,1.7l1.7,4.9l1.8,1.5l3.7,1l3.2-0.1c6.2-0.5,8.5-1,11.3-2.7L270.5,341.1z"/>
		<path fill-opacity="0" stroke="#000000" stroke-width="2.000000e-03" d="M270.5,341.1l12.3,7.1c0,0,5.4,6.8,9.5,10.8
			c1.5,1.5,8.1,1.3,8.1,1.3l13.6,5.3c5.2,2.8,5.5,5.5,6.8,8.3c0.6,4.5-3.3,5.4-4.3,7.8c-4.2,5.1-6,10.9-6,10.9l-5.4,11.3l-8.6,17.4
			c0,0-15.1,6.3-14.9,8.1c0.3,1.8-12.4,26-12.4,26c-1.2-2-2.7-2.9-2.2-6.3c-0.9-0.8-4.6-2.3-4.5-6.8c-3.3-0.9-2.5-0.3-3.1-1
			c0.1-3.3,3.3-5.6,5.1-8.4c-1.4-10.6-6-12.9-7.3-14.4c-0.5-0.4-0.6-0.2-1.6-1.7c-1-0.4-0.9-7.3-0.9-7.3s-1.5-4.4-10.8-16.5
			c0.9,2.1-9.3,0.1-15.1-8.6c-1.2-1.9-12,6.4-16.6,2.7c-1.8-1.4,1.7-5.7,2.4-5.7c-0.2-1.1-0.7-0.9-1.2-0.8c-2.4,1.1-4.9,3.5-6.7,0.5
			l-6.3-6c0.4-2.9,2.9-7.5,9.1-11.6c1.4,0,3.9,1.7,5.4-1.2l-0.1-4.6c-0.6-1.9-0.6-3.6-0.2-5.4c1.8-2.5,4-2.7,5.2-2.3l4.5,2.4
			c0,0,2.6,0.7,5.9-1.6l0-6.1l4.2,1l2.1-0.9c1-1.6,1.9-3.2,3.8-2.5c0.5,0.4,1,0.9,1.4,1.7l1.7,4.9l1.8,1.5l3.7,1l3.2-0.1
			c6.2-0.5,8.5-1,11.3-2.7L270.5,341.1z"/>
	</g>
</g>
<g id="CentralAmerica">
	<path id="path12123" fill="#B3B3B3" d="M190.2,334.7c0.5-0.9,1.5-2.2,2.4-2.7c1.3-0.9,3.8-4.2,3.8-4.9c0-0.1-1.4-0.3-3.2-0.5
		c-4.4-0.3-4.7-0.5-4.7-2.5c0-1.1,0.4-2.1,1.3-3.2c0.7-0.9,1.7-2.5,2.2-3.6c0.5-1.1,1.5-2.6,2.3-3.3c0.7-0.7,1.3-1.6,1.3-2.1
		c0-0.5-1.1-2-2.4-3.3c-3.7-3.7-3.7-5.2-0.2-6.9c1-0.5,2.2-1.3,2.5-1.7c0.6-0.9,0.8-4,0.3-6.3c-0.3-1.3-0.4-1.4-2-1.4
		c-1.9,0-4.6,1.2-5.7,2.5c-0.4,0.5-1,1.6-1.2,2.4c-0.3,0.9-0.8,1.7-1,1.8c-0.9,0.3-8-0.2-8.5-0.6c-0.3-0.2-0.6-1.4-0.8-2.7
		c-0.2-1.3-0.4-3.1-0.5-4c-0.2-1.3,0.1-2.2,1.1-4.3c1.1-2.1,1.3-2.9,1-3.9c-0.2-0.7-0.3-1.7-0.1-2.2c0.3-1.1-0.5-1.2-0.9-0.2
		c-0.2,0.4-0.4,0.6-0.5,0.5c-0.1-0.1,0-0.6,0.2-1.1c0.4-0.7,0.2-1.3-1.1-3.2c-0.8-1.3-1.7-2.7-1.8-3.1c-0.2-0.6,1.1,0.7-0.6-1.1
		l-2.1-2.4l-2.3-2.1c-2.3-2.1-0.1-2.1-9.6-1.7c-2.5,0.1-5-0.1-7.4,0c-1-0.7-4.2-3.4-3.2-2.4c0,0-2.4-2.6-4.3-2.9
		c-1.2-0.2-2.5-0.5-3-0.8c-0.6-0.3-2-0.6-2-0.4c0,0.2,0.3,0.2,0.1,0c-0.2-0.2-1.6-0.4-2-0.7c-0.5-0.4,0.6-0.1,1.4,1.7
		c1,2,1.3,3.5,1.5,6.5c0.5,6.7,1.4,9.9,3.8,14c3.4,5.5,3.7,6.1,4.6,8.5c0.5,1.2,1.3,2.9,1.8,3.9c2.8,4.6,2.5-1.2-0.5-8.3
		c-1.8-4.2-4.4-11.4-5.5-15.4c-0.5-1.6-0.1-2.5,1.1-2.5c1,0,2.1,1.6,2.7,3.7c0.2,0.7,0.9,2.2,1.6,3.3c0.7,1.1,2.1,3.9,3.1,6.3
		c1.1,2.5,2.6,5,3.6,6.2c2.9,3.1,3.6,5.2,3.5,10.1c-0.1,4,0,4.3,1,5.3c0.6,0.6,3.2,1.9,5.9,2.9c2.6,1,5.4,2.4,6.3,3.1
		c1.5,1.2,1.5,1.4,1.7,4.8c0.1,3.3,0.2,3.6,1.2,3.8c1.5,0.4,2.7,3.4,3,7.3c0.3,3.4,1.8,7.2,3.3,8.6c0.8,0.7,5.6,2.8,6.5,2.9
		C189.1,336.3,189.7,335.6,190.2,334.7z"/>
</g>
<g id="EasternUnitedStates">
	<path id="path12031" fill="#B3B3B3" d="M238.7,287.4c2.5-1.6,3.1-3.2,2.8-8c-0.1-2.3-0.6-5.2-1-6.4c-0.4-1.3-0.6-2.8-0.5-3.5
		c0.5-2.1,3.2-4.9,7.9-8.1c3.5-2.4,4.8-3.6,6.2-5.7c1.4-2.1,1.7-2.9,1.5-4.1c-0.9-5.4-1-5,2.1-8.6c0.9-1,2.3-2.7,3.3-3.7
		c1.8-2,5.3-8.8,5.3-10.4c0-2,3.1-6.4,4.4-6.4c0.3,0,0.6-0.2,0.6-0.5c0-0.9-1.3-0.5-2.6,0.8c-1.8,1.7-2.7,3.3-3.1,5.4
		c-0.4,2.4-3.8,9.3-5,10.3c-1.7,1.4-6.3,7.2-6.6,8.4c-0.2,0.6,0,2.1,0.3,3.3c0.5,2.1,0.5,2.3-0.8,4.7c-1.3,2.4-5,5.5-8.8,7.7
		c-2.6,1.5-5.9,5.7-5.9,7.7c0,0.5,0.3,1.8,0.6,2.8c0.8,2.4,1.4,6.1,0.9,5.6c-0.4-0.4-1.4-4.5-1.8-7.7c-0.2-1.1,0-2.2,0.7-3.5
		c0.9-1.8,4.7-5.7,5.5-5.7c0.8,0,7.1-5.1,8.2-6.7c1.2-1.6,1.2-2.2,0.7-6.7c-0.3-2.8-0.7-2.2,6.1-10.1c2.3-2.6,3.6-5.1,4.6-8.4
		c1.4-4.9,2-6,3.8-7.6c1-0.9,2.2-1.6,2.7-1.6c1.7,0,3.2-4.6,1.3-7.3c-2-2.8-5.3-1.6-7.1,0.7c0,0-2.3,2.8-5.4,3.3
		c-3.8,0.5-6.5,0-8.2-1.7c-1.9-1.8-2.8-2.1-5.3-1.7c-1.7,0.3-2.6,0.8-5,3.1c-1.6,1.5-3.5,3.6-4.3,4.5l-1.3,1.7l2.1-1.2
		c1.2-0.7,2.6-1.7,3.2-2.2c1-1,5.2-2.5,6.9-2.5c1.1,0,1.7,2.1,1.2,4.2c-0.6,2.1-0.8,2.3-4,3c-2.2,0.5-2.6,0.7-3.5,2.3
		c-1.4,2.5-4.6,4.5-7.7,4.7c-2.2,0.2-2.6,0.1-3.6-0.9c-1.7-1.7-1.2-3.3,1.6-4.8c2-1.1,2.2-1.3,1.3-1.6c-1-0.4-3.2-4.5-3.2-6
		c0-0.7-0.1-0.7-1-0.2c-0.9,0.5-0.9,0.9-0.7,4.1l0.3,3.6l-1.9,1.2c-1,0.6-2.4,1.2-3.2,1.2c-1.1,0-1.4-0.2-1.6-1.5
		c-0.1-0.8-0.1-3.1,0.1-5.1c0.3-2.9,0.7-4.1,2.3-6.6c1-1.7,1.8-3.4,1.7-3.8c-0.1-0.5-1.3-0.9-4.5-1.4c-2.4-0.4-4.7-0.9-5.1-1
		c-1.2-0.5-1-2.1,0.6-4.5c1.7-2.5,1.6-1.5-2.2-2.1l-3.4-0.5l0.1,17.3l0.1,17.3l-1.6,2.1c-0.9,1.2-3,1-3.5,1.2
		c-0.5,0.2-5.7-0.2-5.7-0.2l-5.7,0.6l-0.8,3.8c-0.8,2.8,1.2,3.6-1.6,4.4c-1.2,0.4-2.8-0.2-3.1,0.6c0,0-1.6,0.3-2.1,0.9
		c-0.7,0.9-3.5,5.4-3.7,7.6l-0.7,4l-3.6,2l-0.7,2.9l0.2,2.4c0.4,2.6,7.5,4.2,8.6,6.1c0.9,1.5,1.7,2.8,1.9,2.9
		c0.2,0.1,1.6-0.6,3.2-1.6c4.3-2.8,8.6-4.5,11.3-4.3c4.3,0.3,5.5,0.2,8.8-0.7c4-1.1,4.4-1.1,2.6-0.2c-1.9,1-7.8,2-10.4,1.7
		c-3.5-0.4-9.3,1.9-14,5.5c-2.2,1.7-0.2,1.2,2.3-0.5c4.8-3.4,6.4-3.9,11.8-4c3.6,0,5.8-0.3,8.3-1.1l3.5-1l2.6,1.2
		c4,1.8,4.9,1.9,7.2,0.8c4.4-2,5.9-0.6,5.4,5.4c-0.3,3.8,0.5,8.3,1.8,9.8C234.6,289.1,236.6,288.7,238.7,287.4z"/>
</g>
<g id="WesternUnitedStates">
	<path id="path11997" fill="#808080" d="M178.1,270.7c-0.9-5.3-0.6-6.1,2.4-7.9c2.4-1.4,2.6-1.7,2.6-3.6c0-2.8,0.8-5.4,1.9-6.4
		c0.5-0.4,0.9-1.2,0.9-1.7c0-1,2.3-2.7,4.2-3.2c2.5-0.6,3.3-1.7,3.3-4.3c0-1.5,0.4-2.9,0.9-3.5c0.8-1,1.3-1.1,7.2-1.1h6.3l1.5-1.6
		l1.5-1.6v-17.9v-17.9h-37.8c-32.6,0-37.8,0.1-37.2,0.7c0.4,0.4,0.6,1.8,0.5,3.5c-0.2,2.7-0.3,2.8-2.6,4.2c-1.4,0.8-2.8,1.3-3.1,1.2
		c-0.4-0.1,0.5-0.8,2-1.5c1.5-0.7,2.8-1.7,3-2.3c0.4-1.2-0.2-4.3-1-5.1c-1.1-1.1-1.6-0.6-0.8,0.8c1.9,3.1,0.8,5.2-3.6,6.7
		c-1.5,0.5-1.6,0.7-1.7,4c0,1.9-0.1,5.2-0.1,7.3c0,2.1,0,4.7,0,5.8c0,1.1-0.5,2.8-1.2,4c-1.7,2.7-2.2,6.7-1.7,12.1
		c0.5,4.8,1.5,7.8,3.3,10c0.6,0.7,1.4,2.1,1.8,3c0.4,1,1.1,1.9,1.5,2c0.8,0.3,0.7,0.1-3.3-7.4c-1.6-2.8-2.6-6.5-1.7-6.1
		c0.3,0.2,0.7,1.1,0.9,2.1c0.2,1,1.3,3.3,2.4,5.1c1.1,1.8,2.3,4.1,2.7,5.2c0.8,2.3,3.6,3.8,8.6,4.8c2.6,0.5,3.8,1.1,6.7,3.4l3.5,2.8
		h7.7h7.7l1.9,1.7c1.1,0.9,2.4,2.3,2.9,3.1c1,1.4,1.7,1.6,5,1.7C178.5,273.2,178.5,273.2,178.1,270.7z"/>
</g>
<g id="Quebec">
	<g id="path26414">
		<path fill="#CCCCCC" d="M243.8,213.6l3.6,0.3l1.1,0.1l1.4,0.2l1.4,0.8l1.7,1.3l1.4,0.9l1.5,0.5l2-0.1l2.4-0.5l1.2-0.6l1-0.9
			l1.1-1.4l1-1.8l1.2-1.1l3.1-1.5l1,0.5l1.7,1.2l1,1.1l0.8,2.1l0.3,2.2l0,2.3l-0.3,2.3l-0.5,1.7l0.1,1.7l1.2,4l0.5,0.7l-0.5,0.1
			l-0.7-0.2l-0.5-1.6l-0.6-2.4l-0.4,0.6l0.2,1.7l0.3,1.6l0.4,0.6l0.6,0.4l0.8,0.3l0.7,0l1.3-0.7l0.8-1l1-1.8l1.2-3.1l0.5-1.2
			c0,0,0.6-0.4,0.9-0.6c0.3-0.2,1.1-0.6,1.1-0.6l0.9-0.9l2-4.4l-0.1-0.9l-0.3-0.4l-1.1-0.2l-3.5-0.2c0,0-0.5-0.1-1-0.3
			c-0.5-0.2-0.2-2-0.2-2l-0.3-3.8l-0.2-1.4l-0.4-1.1c0,0-1.4-2.4-0.2-3.3c1.3-0.9,2.4-1.4,2.4-1.4s1.7-0.5,2-0.5c0.3,0,2.3,0,2.6,0
			c0.3,0.1,1.7-0.2,2.3-0.5c0.6-0.3,3.2-2.5,3.2-2.5l3-1.7l3.2-1.7l1.4-1.1l1.2-1.8l0.6-2.3l-0.2-1.4l-0.8-1.5l-1.5-2l-1.6-2
			l-0.9-1.8l-0.1-0.6l-0.6-0.9l-3.8-2c0,0-2.2-1.7-2.1-2.3c0.1-0.6-0.8-2.4-0.7-4.8c0.1-2.4-3.2-3.7-3.3-5.3c0-1.5-0.4-3.6-0.4-3.6
			s-0.9-1.5-2.4-0.7c-1.5,0.9-2.3,2-2.3,2l-1.2,1.6l-2,2.1c0,0,1.2-0.2,0,0c-1.2,0.2-1.4,0.7-2.1,0c-0.7-0.7-1.2-0.4-0.8-3.4
			c0.4-2.9,0.5-5.1,0.3-5.7c-0.1-0.6-0.9-2.8-0.9-2.8l-2.1-3.2l-0.7-1.2l0.3-0.3l1.4,0.9l1.2,0.9c0,0-2.9-3-2.7-3.6
			c0.2-0.6-0.4,1.1-1.1,0.4c-0.7-0.7,10-12.3,9.6-12.4c-0.4-0.1-0.2-0.9-0.2-0.9L257,150.6l-1.2,8l-3.2,3.6l-0.4,3.7l1.8,6.6
			l-1.3,2.9l-3,2.5l-2.4,1.2l-1.3,2.7l0.1,2.9l0.3,6l-0.5,2L243.8,213.6z"/>
		<path fill-opacity="0" stroke="#000000" stroke-width="2.000000e-02" d="M243.8,213.6l3.6,0.3l1.1,0.1l1.4,0.2l1.4,0.8l1.7,1.3
			l1.4,0.9l1.5,0.5l2-0.1l2.4-0.5l1.2-0.6l1-0.9l1.1-1.4l1-1.8l1.2-1.1l3.1-1.5l1,0.5l1.7,1.2l1,1.1l0.8,2.1l0.3,2.2l0,2.3l-0.3,2.3
			l-0.5,1.7l0.1,1.7l1.2,4l0.5,0.7l-0.5,0.1l-0.7-0.2l-0.5-1.6l-0.6-2.4l-0.4,0.6l0.2,1.7l0.3,1.6l0.4,0.6l0.6,0.4l0.8,0.3l0.7,0
			l1.3-0.7l0.8-1l1-1.8l1.2-3.1l0.5-1.2c0,0,0.6-0.4,0.9-0.6c0.3-0.2,1.1-0.6,1.1-0.6l0.9-0.9l2-4.4l-0.1-0.9l-0.3-0.4l-1.1-0.2
			l-3.5-0.2c0,0-0.5-0.1-1-0.3c-0.5-0.2-0.2-2-0.2-2l-0.3-3.8l-0.2-1.4l-0.4-1.1c0,0-1.4-2.4-0.2-3.3c1.3-0.9,2.4-1.4,2.4-1.4
			s1.7-0.5,2-0.5c0.3,0,2.3,0,2.6,0c0.3,0.1,1.7-0.2,2.3-0.5c0.6-0.3,3.2-2.5,3.2-2.5l3-1.7l3.2-1.7l1.4-1.1l1.2-1.8l0.6-2.3
			l-0.2-1.4l-0.8-1.5l-1.5-2l-1.6-2l-0.9-1.8l-0.1-0.6l-0.6-0.9l-3.8-2c0,0-2.2-1.7-2.1-2.3c0.1-0.6-0.8-2.4-0.7-4.8
			c0.1-2.4-3.2-3.7-3.3-5.3c0-1.5-0.4-3.6-0.4-3.6s-0.9-1.5-2.4-0.7c-1.5,0.9-2.3,2-2.3,2l-1.2,1.6l-2,2.1c0,0,1.2-0.2,0,0
			c-1.2,0.2-1.4,0.7-2.1,0c-0.7-0.7-1.2-0.4-0.8-3.4c0.4-2.9,0.5-5.1,0.3-5.7c-0.1-0.6-0.9-2.8-0.9-2.8l-2.1-3.2l-0.7-1.2l0.3-0.3
			l1.4,0.9l1.2,0.9c0,0-2.9-3-2.7-3.6c0.2-0.6-0.4,1.1-1.1,0.4c-0.7-0.7,10-12.3,9.6-12.4c-0.4-0.1-0.2-0.9-0.2-0.9L257,150.6
			l-1.2,8l-3.2,3.6l-0.4,3.7l1.8,6.6l-1.3,2.9l-3,2.5l-2.4,1.2l-1.3,2.7l0.1,2.9l0.3,6l-0.5,2L243.8,213.6z"/>
	</g>
</g>
<g id="Alaska">
	<g id="path27016">
		<path fill="#999999" d="M96.8,111.7l3.9,2.4l5.7,2.5l6,0.9l5.8,2.5l7.2,3.1c-0.2,2.9,0.4,6.8-0.8,8.6l-1.1,3.7l-0.2,12.7
			c0.6,1-0.2,1.7,0.2,2.7c0.5,1.2,0,0.8,0.5,1.2c1,0.8,1.3,4.3,1.9,4.3l1.6,2.6l-0.8,9.3l3.1,3.7l-3.2,6.2l-4.1-7.5l3,7.6v0.5
			l-2.2-3.7l-2.2-5.1l-0.1-0.8l-0.1-1.1l-1.3-1.5l-2.4-1.3l-2.1-1.2l-1.9-3.2l-1.2-1.4l-1.7-0.8l-3.5-0.6l-2.5-1.2l-3.3-3.1
			l-0.9-0.1l-2,2.6l-2.1,2.8l-3.2,2l-1,0.3l-0.4-2.1l-1-0.7l-1.4,0.4l-1.4,1.7l-0.8,2l-0.1,0.8l-6.9,6.9l-2.6,2.1l-2.8,0.7l-1.4-0.1
			l-1-1.2l1.1-2l6.1-3.3l-3.5-5.7l-4.4-2l-1.7-3.1v-2.2l-3.7-4.2l-0.3-5.9l3.8-4h8.5l1.6-3.7c0,0-1.2-1.2-2.7-0.9
			c-1.5,0.3-7.1-0.4-7.1-0.4l-1.4-4.6c0,0,2.3-2.6,3.1-2.2s5.2,0.9,5.2,0.9l2.5,0.4c0,0,2.8,0.5,1.1-2.2c-1.7-2.8-4.5-4.6-4.5-4.6
			s-2.9-1.5-1.6-2.9c1.3-1.3,7.3,1.2,7.3,1.2s1.9,1.5,2.7-3C85,112.6,96.8,111.7,96.8,111.7z"/>
		<path fill-opacity="0" stroke="#000000" stroke-width="2.000000e-03" d="M96.8,111.7l3.9,2.4l5.7,2.5l6,0.9l5.8,2.5l7.2,3.1
			c-0.2,2.9,0.4,6.8-0.8,8.6l-1.1,3.7l-0.2,12.7c0.6,1-0.2,1.7,0.2,2.7c0.5,1.2,0,0.8,0.5,1.2c1,0.8,1.3,4.3,1.9,4.3l1.6,2.6
			l-0.8,9.3l3.1,3.7l-3.2,6.2l-4.1-7.5l3,7.6v0.5l-2.2-3.7l-2.2-5.1l-0.1-0.8l-0.1-1.1l-1.3-1.5l-2.4-1.3l-2.1-1.2l-1.9-3.2
			l-1.2-1.4l-1.7-0.8l-3.5-0.6l-2.5-1.2l-3.3-3.1l-0.9-0.1l-2,2.6l-2.1,2.8l-3.2,2l-1,0.3l-0.4-2.1l-1-0.7l-1.4,0.4l-1.4,1.7l-0.8,2
			l-0.1,0.8l-6.9,6.9l-2.6,2.1l-2.8,0.7l-1.4-0.1l-1-1.2l1.1-2l6.1-3.3l-3.5-5.7l-4.4-2l-1.7-3.1v-2.2l-3.7-4.2l-0.3-5.9l3.8-4h8.5
			l1.6-3.7c0,0-1.2-1.2-2.7-0.9c-1.5,0.3-7.1-0.4-7.1-0.4l-1.4-4.6c0,0,2.3-2.6,3.1-2.2s5.2,0.9,5.2,0.9l2.5,0.4
			c0,0,2.8,0.5,1.1-2.2c-1.7-2.8-4.5-4.6-4.5-4.6s-2.9-1.5-1.6-2.9c1.3-1.3,7.3,1.2,7.3,1.2s1.9,1.5,2.7-3
			C85,112.6,96.8,111.7,96.8,111.7z"/>
	</g>
</g>
<g id="Alberta">
	<path id="path11873" fill="#808080" d="M132.4,198.8c-0.4-0.6-0.6-1.3-0.5-1.6c0.1-0.3,0.6,0.2,1.1,1.1l1,1.6H157H180l0.3-6.3
		c0.2-3.5,0.4-10.1,0.6-14.7c0.3-7.6,0.4-8.5,1.3-10.1c0.9-1.5,1-2.2,1-8.3c0-5,1.1-6.3,0.7-6.4c0,0-6,0.2-13.7-0.1
		c-10.2-0.4-12.7-0.5-13.9-1.1c-1.1-0.6-10.4-0.8-19.8-0.8h-11.4l0.3,1.7c0.1,0.9,0.8,2.3,1.5,3.1c1.3,1.4,1.3,1.5,1,5.9l-0.3,4.4
		l1.3,1.4c2.5,2.7,2.5,2.7,1.5,4.8c-0.5,1-1.6,2.9-2.5,4.2c-1.4,2.2-1.5,2.4-0.9,4c1,2.8,1.9,4.3,4,6.7c1.7,1.9,2,2.5,1.9,4.1
		c0,1-0.2,2.4-0.4,3c-0.3,0.8-0.3,0.4-0.1-1.2c0.3-2.7-0.5-4.6-2.7-6.4c-0.9-0.8-1.9-2.3-2.7-4.3c-0.7-1.7-1.4-3-1.6-2.8
		c-0.4,0.2,1,4.1,2.1,5.9c0.4,0.6,1.3,1.6,2,2.2c1.9,1.5,2.3,2.9,1.6,6c-0.5,2.4-0.4,2.8,0.2,3.9c0.4,0.7,1,1.2,1.2,1.2
		C132.9,199.9,132.8,199.4,132.4,198.8z"/>
</g>
<g id="SouthAfrica">
	<g id="path7935">
		<path fill="#999999" d="M442.2,359.2l-1.3,0l-1.5,0.5l0.2,1.6l0.6,2.5l0.6,2.2l1.6,1.9l1.7,2.2v1.4l-0.7,1l-1,0.9l-0.3,0.5
			c0,0-0.2,0.4-0.3,0.6c-0.1,0.3,0.2,1.1,0.2,1.1l0.6,0.9l0.3,0.3l0.6,0.7l0.3,0.5l0.2,0.5l0,0.3l0,0.3l0,0.2l0,0.2l0,0.2l-0.1,0.2
			l0,0.1l0,0.1l-0.1,0.3l-0.1,0.2l-1,1.7l-0.5,0.6l-0.3,0.4l-0.4,0.5l-0.2,0.3l-0.4,0.5l-0.3,0.5l-0.2,0.5c0,0-0.1,0.2-0.1,0.5
			c0,0.2,0.1,0.6,0.1,0.6l0.1,0.5c0,0,0,0.4,0,0.4c0,0.1,0,0.2-0.1,0.5c-0.1,0.3-0.2,0.5-0.2,0.5l-0.3,0.5l-0.3,0.4l-0.3,0.3
			l-0.3,0.5l-0.3,0.4l-0.3,0.5l-0.3,0.5l-0.2,0.4l-0.1,0.3l-0.1,0.3l0,0.3l0,0.3l0,0.5l0,0.5l0,0.5l0.1,0.9l0.1,0.9l0.2,1.3l0.1,0.4
			l0.4,1.2l0.4,0.6l0.5,0.9l0.5,0.6l4.4,6.7l0.3,14.1c0,0,3,9.1,5.9,13c2.9,3.9,2.8,6.5,2.8,6.5l-1.3,2.7c0,0-1.7,7.2,7.8,6.1
			c9.5-1.2,13.2-3.1,13.2-3.1l7-6.6l3.7-2.3l1.7-2.8l1.4-3.1l1.9-1.7l1.6-6.1l3.5-2.8l2.9,0.4l2.8-3.3l18.7-13.3l-0.4-23.7l-6.9-7.7
			l-4.2,3.3l-4.5,0.1l-2.4,2.4l-1,9.7c0,0-8.1,1.4-7.2-2.8c0.9-4.2,1-4.8,1-4.8l-1.3-7.3c0,0-5-2-4.7-3.2c0.3-1.3,0.7-1.5,0.7-1.5
			s0.1-0.8-0.2-0.8c-0.2-0.1-1.9-1.1-1.9-1.1l-0.9,0l-0.6,0.3l-1.1,0.7c0,0-0.8,0.3-0.3,2.3c0.6,2.1,1.1,2.5,1.1,2.5
			s1.3,1.4,1.3,1.5c0,0.1,0.1,1.4,0,1.5c-0.1,0.1-0.3,2.5-0.3,2.5s-0.8,1.5-1.3,1.1c-0.5-0.4-3.1,0.3-3.7-0.5
			c-0.6-0.8-2.9-2.6-2.9-2.6l-5.1,0.4l-2.2,0l-1.8-1.4l-1.4-0.7c0,0-1.9-0.1-2.3-1.9c-0.4-1.8-0.4-4.7-0.4-4.7l-0.5-1.6l-3.4-2.8
			l-5.1,0.8c0,0-1.4,2.1-4.4-3.8C446.8,356.7,442.2,359.2,442.2,359.2L442.2,359.2z"/>
		<path fill-opacity="0" stroke="#000000" stroke-width="2.000000e-03" d="M442.2,359.2l-1.3,0l-1.5,0.5l0.2,1.6l0.6,2.5l0.6,2.2
			l1.6,1.9l1.7,2.2v1.4l-0.7,1l-1,0.9l-0.3,0.5c0,0-0.2,0.4-0.3,0.6c-0.1,0.3,0.2,1.1,0.2,1.1l0.6,0.9l0.3,0.3l0.6,0.7l0.3,0.5
			l0.2,0.5l0,0.3l0,0.3l0,0.2l0,0.2l0,0.2l-0.1,0.2l0,0.1l0,0.1l-0.1,0.3l-0.1,0.2l-1,1.7l-0.5,0.6l-0.3,0.4l-0.4,0.5l-0.2,0.3
			l-0.4,0.5l-0.3,0.5l-0.2,0.5c0,0-0.1,0.2-0.1,0.5c0,0.2,0.1,0.6,0.1,0.6l0.1,0.5c0,0,0,0.4,0,0.4c0,0.1,0,0.2-0.1,0.5
			c-0.1,0.3-0.2,0.5-0.2,0.5l-0.3,0.5l-0.3,0.4l-0.3,0.3l-0.3,0.5l-0.3,0.4l-0.3,0.5l-0.3,0.5l-0.2,0.4l-0.1,0.3l-0.1,0.3l0,0.3
			l0,0.3l0,0.5l0,0.5l0,0.5l0.1,0.9l0.1,0.9l0.2,1.3l0.1,0.4l0.4,1.2l0.4,0.6l0.5,0.9l0.5,0.6l4.4,6.7l0.3,14.1c0,0,3,9.1,5.9,13
			c2.9,3.9,2.8,6.5,2.8,6.5l-1.3,2.7c0,0-1.7,7.2,7.8,6.1c9.5-1.2,13.2-3.1,13.2-3.1l7-6.6l3.7-2.3l1.7-2.8l1.4-3.1l1.9-1.7l1.6-6.1
			l3.5-2.8l2.9,0.4l2.8-3.3l18.7-13.3l-0.4-23.7l-6.9-7.7l-4.2,3.3l-4.5,0.1l-2.4,2.4l-1,9.7c0,0-8.1,1.4-7.2-2.8
			c0.9-4.2,1-4.8,1-4.8l-1.3-7.3c0,0-5-2-4.7-3.2c0.3-1.3,0.7-1.5,0.7-1.5s0.1-0.8-0.2-0.8c-0.2-0.1-1.9-1.1-1.9-1.1l-0.9,0
			l-0.6,0.3l-1.1,0.7c0,0-0.8,0.3-0.3,2.3c0.6,2.1,1.1,2.5,1.1,2.5s1.3,1.4,1.3,1.5c0,0.1,0.1,1.4,0,1.5c-0.1,0.1-0.3,2.5-0.3,2.5
			s-0.8,1.5-1.3,1.1c-0.5-0.4-3.1,0.3-3.7-0.5c-0.6-0.8-2.9-2.6-2.9-2.6l-5.1,0.4l-2.2,0l-1.8-1.4l-1.4-0.7c0,0-1.9-0.1-2.3-1.9
			c-0.4-1.8-0.4-4.7-0.4-4.7l-0.5-1.6l-3.4-2.8l-5.1,0.8c0,0-1.4,2.1-4.4-3.8C446.8,356.7,442.2,359.2,442.2,359.2L442.2,359.2z"/>
	</g>
</g>
<g id="Congo">
	<path id="path14279" fill="#CCCCCC" d="M482.8,381.2c1.1,1,1.6-2.4,1.4-2.6c0.2-0.4,0.4-2.5-0.7-3.3c-1.2-0.9-1.8-3.4-1.6-4.7
		c0.1-0.7,2.2-1.3,2.3-2c1.7,0.2,0.5-0.5-0.2-1.3c-0.6-0.6-0.7-1.6-0.6-5.1l0.2-4.3l2.8-4.6c3.8-6.2,4.7-7.5,8.1-11.7
		c1.6-1.9,2.9-3.7,2.9-4s-0.4-0.9-0.9-1.3c-0.8-0.7-1.8-0.9-7.6-1c-5.6-0.1-6.8-0.3-7.6-0.9c-0.5-0.4-2-1.2-3.4-1.8l-2.5-1v-2.5
		c0-2.3-0.1-2.6-1.7-4.2c-0.9-1-2.4-3.1-3.3-4.6c-2.5-4.7-3.2-5.7-3.5-5.6c-0.2,0.1-3.2,2.4-6.7,5.3l-6.4,5.1l-0.2,5.2
		c-0.4,8.7-1.6,10.2-7.6,10.4c-1.9,0-2.9,0.3-3.5,0.9c-1.1,1-3.3,1.7-5.5,1.7c-2.3,0-2.8,0.5-3,3.1c-0.2,2.6-0.3,2.5,3.6,8.2
		l1.8,4.9c0.9-0.3,3.2-0.5,2.7-0.4c0,0,1.2-0.3,1.3-0.3c0.5,0,1.6-0.4,3.8,0.6c2.3,0.8,3.1,5.1,4.6,5.8c0,0,0.9,1.7,1.9,1.4
		c0.1,0.1,2.4-0.5,3.1-0.9c0.4,0,0.9-0.2,1.2-0.3c1.9-0.3,4.4,2.2,4.6,2.4c1.3,1.3,0.7,6.9,1.2,7.4c0.4,0.4,2.8,1.9,3.2,1.9
		c0.2,0,0.9,1.1,1.9,1.4c1.5,0.5,6.7-0.5,7.2-0.4c0.6,0.2,1.1,1,3,2.6C480.5,381.8,482.5,380.9,482.8,381.2z"/>
</g>
<g id="EastAfrica">
	<path id="path14305" fill="#CCCCCC" d="M499.7,277.9C499.7,277.9,499.7,277.9,499.7,277.9c-0.2,0.1,0.6,1.3,1.7,2.5
		c2.6,3,1.8,3-1,0l-2.1-2.3l-7.2,0.8c-5.8,0.6-7.5,0.7-8.8,0.2c-4.3-1.4-10.6,0.9-13.5,4.8l-1.7,2.2l0.6,2.3
		c0.4,1.4,0.6,4.4,0.6,7.7c0,4.8-0.1,5.5-0.9,6.1c-0.7,0.5-0.8,1.2-0.8,4.1c0,3.3-1.8,3.9-0.2,6.1c0.9,1.3,0.9,1.4,1.7,3
		c0.8,1.6,3.4,6.7,4.5,7.8c1.8,1.8,2.9,2.3,2.9,4.2c0,2.3,0.2,4,1.5,4c0.2,0.8,3.3,1.5,3.6,1.8c0.4,0.5,2.1,1.4,6,1.4
		c6.5,0,9.6-0.5,10.6,1.5c0.5,1.1,0.8,1.3,0.5,1.8c-0.2,0.5-2.2,4-2.6,4.4c-2.6,2.3-5.2,5.5-5.9,6.7c-0.7,1.2-3.5,5.5-4.5,7.1
		c-1.6,2.6-1.1,4-1.1,4.1c-0.3,3.7-0.2,7.1,3,9.3c1.7,1.1,0.3,1.5,0.1,2.5c-0.2,1.1,2.4,2.3,3.5,2.7c1.6,0.6,1,1.8,1.5,3.6
		c0.2,0.6,0.5,3.1,0.6,3.3c0.5,2.2,0,2.4-0.2,3.6c-0.4,2.2-1.2,2.9,0.1,4.2c1.4,1.4,5.7,1.9,6,0.3c0.1-0.7,0.4-3.3,0.6-5.6
		c0.3-4.9,1.7-5.4,3.8-6.1c0.7-0.2,1.4,0.5,3.4-0.2c1,0.4,3.4-2,4.3-3.1c0.9-1.1-0.6-2.9-0.6-5.9c0-1.9-0.1-3.3-0.4-3.8
		c-1-1.9-2.5-3.5-0.7-6.4c1.8-2.7,8.1-9.2,14.2-14.6c1.8-1.6,4.1-3.8,5-5.1c2.4-2.9,6-8.2,5.6-8.2c-0.2,0,0-0.3,0.4-0.8
		c0.4-0.4,0.9-1.5,1.2-2.3c0.3-0.8,0.7-1.7,0.9-2c0.2-0.2,0.5-1.1,0.6-2c0.2-0.8,0.7-2.3,1.1-3.3c0.4-1,0.9-2.4,1.1-3.1
		c0.2-0.7,0.4-1.1,0.5-0.7c0.1,0.3-0.2,1.8-0.7,3.3c-1.2,3.6-1.6,5.9-1.1,5.4c0.2-0.2,0.9-1.9,1.4-3.7c1.6-5.3,2.3-7.7,2-8.6
		c-0.4,0-0.8,0.1-0.9,0.1c-0.7,0-1.2-0.3-1.7-0.6c-0.1,0-0.1,0-0.2,0c-1.4,0.2-4.4,0.8-6.7,1.3c-2.3,0.6-5.3,1.2-6.6,1.3
		c-2.3,0.3-2.5,0.2-3.7-1.1c-1.1-1.2-1.3-1.6-1.2-3.8c0.1-2.1-0.1-2.6-1.1-3.6c-3.8-3.6-5.8-5.1-7-5.5c-1.7-0.6-2.4-2-2.4-4.8
		c0-1.9-0.1-2.2-2.3-4l-2.3-2l0.9-0.8c1-0.8,1.2-1.7,0.5-2.4c-0.2-0.2-0.5-0.9-0.6-1.5c-0.2-0.9-0.2-0.8-0.3,0.4
		c0,1.2-0.2,1.4-0.7,1c-0.5-0.4-0.7-0.4-0.9,0.2c-0.3,0.7-2,0.9-2,0.3c0-0.6,1.8-1.8,2.3-1.5c0.3,0.2,0.3-0.5,0.2-1.8
		c-0.2-1.7-0.6-2.4-2.5-4.3C501,278.8,499.9,277.9,499.7,277.9z"/>
</g>
<g id="Egypt">
	<path id="path13777" fill="#CCCCCC" d="M468.9,283.3c0.8-1.2,1.9-2,4.3-3.2c3.9-1.9,6.9-2.3,10.2-1.5c1.9,0.5,3.3,0.5,7.1,0
		c2.6-0.3,5.3-0.7,6-0.8c1.1-0.3,1.2-0.4,0.6-1.4c-0.3-0.6-1.2-2.4-2.1-4c-0.8-1.6-1.9-3.5-2.5-4.2c-0.5-0.7-1.2-1.9-1.5-2.6
		c-0.6-1.5-0.2-5.3,0.6-6.1c0.7-0.7,0.2-2-1.1-3.2c-0.5-0.5-1.3-1.4-1.6-2.1c-0.6-1.2-0.7-1.2-1.6-0.6c-1.1,0.7-5.2,1.4-5.2,0.9
		c0-0.2,0.8-0.4,1.8-0.5c1-0.1,2.4-0.5,3.2-1l1.5-0.9l1.1,1.4c2.4,3.2,3.4,4.9,3.2,5.5c-0.1,0.3-0.4,0.6-0.5,0.6
		c-0.2,0-0.6,1-0.9,2.2c-0.6,2.2-0.5,2.2,1.1,5.2c0.9,1.6,2.5,4.6,3.6,6.5c2,3.7,2.8,4.7,2.8,3.8c0-0.3-1.1-2.6-2.5-5
		c-4.2-7.6-4.5-8.1-4.3-9.7c0.1-0.8,0.6-1.8,1.2-2.2c1-0.7,1-0.8,0.1-2.2c-0.8-1.3-2.5-3.9-4.2-6.1c-0.7-0.9-0.7-0.9-2.9,0.3
		c-1.9,1-2.6,1.1-4.9,0.9c-3.7-0.3-6-1.2-11.5-4.5c-2.6-1.6-5-2.8-5.3-2.8c-0.8,0-1.7,0.8-1.8,1.6c-0.4,3.7-0.9,5.9-1.4,6.4
		c-1,0.8-3.8,0.2-6.5-1.4c-4.9-3-6.1-4-6.8-5.5c-0.8-1.6-1-1.7-4.7-2.2c-3-0.4-2.1,0.5,1,1c1.9,0.3,2.4,0.6,3.3,1.9
		c1.5,2.2,8.6,7.1,10.3,7.1c0.4,0,0.7,0.2,0.7,0.4c0,0.9-1.7,0.4-4.9-1.7c-4.1-2.6-6.5-4.6-7-6c-0.3-0.9-0.7-1.1-1.9-1.1
		c-0.8,0-2.1-0.2-2.8-0.5c-1.1-0.4-1.4-0.3-2.7,1.2c-0.8,0.9-1.4,1.9-1.4,2.1c0,0.2-0.7,1.4-1.5,2.6c-1.9,2.7-2,4.4-0.5,9.6
		c1.8,6.1,2.7,7.7,6.3,11.5l3.4,3.5l2.7-0.1c2.4-0.1,3,0.1,4.9,1.3c1.2,0.8,3.1,1.8,4.3,2.2c1.5,0.5,2.4,1.2,3,2.2
		c0.5,0.8,1,1.4,1.2,1.4c0.2,0,1.2,0.7,2.2,1.6c1.8,1.5,1.9,1.5,2.7,0.8C467.5,285.3,468.4,284.2,468.9,283.3z"/>
</g>
<g id="NorthAfrica">
	<g id="path8787">
		<path fill="#B3B3B3" d="M394.3,247.2l-1.9,3.2l-1.6,4.6l-2.3,5.1l-3.4,3.8l-3,10.4l-2.4,1.7l-1.1,2.3l2,7.4l0,2l-0.7,2.8l-1.7,2.7
			l-1.4,2l-0.3,5.9l1.7,5.6l2.8,5.4l3.1,2.2l1.7,4.6l0.3,2.6l2.7,2.3l6,6.2l5.7,0.4l2.8-1.9l2.5-0.1l3.3,2.3l2.3,0.6l1.4-1l3.1-1.6
			l2.8-0.6l2.8-0.7l2,0.6l1.2-0.3l2.3,2.3l1.2,2.4l3.1,0.7l3,0.6l1.8,0.9l1.1,2.4l-2.5,5.8l5.9-1.3l2.7-1.6l1.9-0.1l3.5-0.4l2.1-0.7
			l0.7-0.6l0.6-1.3l0.3-1.5l0.6-4.7l0.2-3.9l-0.2-2.5l2.3-1.9l2-1.9l8.9-6.3l-1.2-3l1.2-9.4c1.4,0.2,1.1-1.4,1.3-2.4l0.1-7.8
			l-0.9-4.1l-4.8-3.9l-2.8-2.7l-6.3-2.9c-0.9-1.6-4.7-1-7.2-1.2l-4.7-4.5c0,0-9.9-12.1-4.6-21.2c3.7-6.4,3.4-3.8,4.4-6
			c0.6-1.1,1.5-0.8,1.5-0.8s2.5,0.3,2-0.9c-0.5-1.2-1.7-1.8-1.7-1.8l-3.3,0.1c0,0-8.8-0.3-12.5-2.9c-3.7-2.5-10.5-1.8-10.5-1.8
			l-3.6,0.3l-2.8,1.8c0,0-4.5,0.6-8.2-0.6C398.2,237.4,394.3,247.2,394.3,247.2L394.3,247.2z"/>
		<path fill-opacity="0" stroke="#000000" stroke-width="2.000000e-03" d="M394.3,247.2l-1.9,3.2l-1.6,4.6l-2.3,5.1l-3.4,3.8
			l-3,10.4l-2.4,1.7l-1.1,2.3l2,7.4l0,2l-0.7,2.8l-1.7,2.7l-1.4,2l-0.3,5.9l1.7,5.6l2.8,5.4l3.1,2.2l1.7,4.6l0.3,2.6l2.7,2.3l6,6.2
			l5.7,0.4l2.8-1.9l2.5-0.1l3.3,2.3l2.3,0.6l1.4-1l3.1-1.6l2.8-0.6l2.8-0.7l2,0.6l1.2-0.3l2.3,2.3l1.2,2.4l3.1,0.7l3,0.6l1.8,0.9
			l1.1,2.4l-2.5,5.8l5.9-1.3l2.7-1.6l1.9-0.1l3.5-0.4l2.1-0.7l0.7-0.6l0.6-1.3l0.3-1.5l0.6-4.7l0.2-3.9l-0.2-2.5l2.3-1.9l2-1.9
			l8.9-6.3l-1.2-3l1.2-9.4c1.4,0.2,1.1-1.4,1.3-2.4l0.1-7.8l-0.9-4.1l-4.8-3.9l-2.8-2.7l-6.3-2.9c-0.9-1.6-4.7-1-7.2-1.2l-4.7-4.5
			c0,0-9.9-12.1-4.6-21.2c3.7-6.4,3.4-3.8,4.4-6c0.6-1.1,1.5-0.8,1.5-0.8s2.5,0.3,2-0.9c-0.5-1.2-1.7-1.8-1.7-1.8l-3.3,0.1
			c0,0-8.8-0.3-12.5-2.9c-3.7-2.5-10.5-1.8-10.5-1.8l-3.6,0.3l-2.8,1.8c0,0-4.5,0.6-8.2-0.6C398.2,237.4,394.3,247.2,394.3,247.2
			L394.3,247.2z"/>
	</g>
</g>
<g id="NewGuinea">
	<path id="path14065" fill="#CCCCCC" d="M693.5,286.2c-0.7,0-1.5,0.5-2.3,1.5c-0.5,0.7-1.4,1.9-2,2.6c-0.7,0.9-0.8,1.3-0.4,1.3
		c0.3,0,0.8-0.2,1.1-0.5c0.3-0.3,0.6-0.3,0.8,0c0.4,0.6-1.4,1.5-2,1.1c-1.1-0.7-1.2,0.9-0.1,1.9c0.6,0.6,1.2,1.7,1.3,2.6
		c0.2,0.9,0.7,1.8,1.3,2.2c0.6,0.4,1.1,1.2,1.3,2c0.2,0.7,0.5,1.4,0.7,1.6c0.2,0.1,0.6,0.7,0.8,1.3c0.2,0.6,1.1,1.3,1.8,1.7
		c1.2,0.5,1.3,0.6,0.5,0.7c-1.4,0.1-1.7,1.8-0.7,3.4c0.6,1,0.8,1.1,1,0.5c0.2-1.3,1.3-0.8,1.6,0.7c0.2,1.1,0.4,1.3,0.7,0.8
		c0.6-1,0.5-2.3-0.3-3.2c-0.6-0.6-0.6-0.8-0.1-0.8c0.4,0,0.3-0.2-0.3-0.6c-1.5-1.1-0.5-1.1,3.2,0c3.4,1,3.6,1.2,4.1,2.7
		c0.7,2,0.7,6.3,0,8.9c-0.6,2.2-0.3,2.7,2,2.7c0.8,0,1.5,0.3,1.6,0.7c0.2,0.5,0.7,0.6,2.4,0.4c1.7-0.2,2.3-0.1,3,0.5
		c1.8,1.6,3.1,2.2,5.7,2.5c1.5,0.2,3.3,0.4,4,0.5c1.3,0.2,1.5,0.1,2.3-1.5c2-4,6.2-2.8,8.2,2.4c0.7,1.7,0.9,1.9,2.1,2
		c0.8,0,2.3,0.4,3.4,0.8c2.4,0.9,2.9,0.8,3.8-0.9c0.4-0.7,0.6-2,0.6-2.9c0-1.5-0.2-1.9-1.7-3c-2.2-1.7-2.9-2.9-2.3-4
		c0.4-0.7,0.3-1-0.6-1.4c-0.6-0.3-1.3-1-1.6-1.6c-0.5-1-0.4-1.3,0.9-2.5c0.8-0.7,1.4-1.6,1.4-1.8c0-0.8-1.8-2.7-3.4-3.6
		c-2-1.2-3.2-3.2-3.2-5.6v-2l-2.8-0.8c-2.4-0.7-3.3-1.3-6.9-4.5c-5.9-5.4-9.7-7.1-14-6.5c-2.8,0.4-3.3,1.1-3.3,4.4
		c0,1.5-0.2,3.3-0.4,4c-0.4,1-0.7,1.1-1.9,1c-2-0.2-3.4-2.7-3.4-6l0-2.3l-1.9,0c-2,0-3.9-1-5-2.5
		C694.3,286.5,693.9,286.2,693.5,286.2L693.5,286.2z"/>
</g>
<g id="Indonesia">
	<g id="path8904">
		<path fill="#CCCCCC" d="M671.7,342.8l-3.3-2l-1.6-1l-0.1,3.3l-1.2,0.3l2.6,2.3l1.7,3.7l-0.7,2.7l-11.4,1.3l-12.2-1.8l-0.3-4.5
			l-3.4,1.8c0,0-6.4-4.8-7.9-6.3c-1.5-1.6-1.5-4.6-8.6-10.5c-7.1-5.9-11.5-20.2-10.8-21c0.7-0.8,2-3.1,2-3.1l2.4-0.2l9,4.1l5.6,5.7
			l7.5,9.8l0.6-0.7c0,0-0.9-6.1-0.8-9.3c0.1-3.2,0.9-2.4,0.9-2.4s1.8,0.9,2.3,0.7c0.4-0.1,2.3-1.9,2.3-1.9l3.4-5.3l1.8-1.7l2.8-4.2
			l0.4-1.4l0.9-1.1l4.4-0.3l1.1-0.3l-0.5-1.9l-1-0.3l2.6,0.1l0.5,2l16.8,8.2l7.6,3.5v1.8l-0.6,0.9l-1.9,2.6l-2.9,23.1l-1,5.4
			l-1.6,0.2l-0.6-1.1l-1.6-1.6c0,0-3.4-2.7-3-1.7C674.4,342.2,671.7,342.8,671.7,342.8z"/>
		<path fill-opacity="0" stroke="#000000" stroke-width="2.000000e-03" d="M671.7,342.8l-3.3-2l-1.6-1l-0.1,3.3l-1.2,0.3l2.6,2.3
			l1.7,3.7l-0.7,2.7l-11.4,1.3l-12.2-1.8l-0.3-4.5l-3.4,1.8c0,0-6.4-4.8-7.9-6.3c-1.5-1.6-1.5-4.6-8.6-10.5
			c-7.1-5.9-11.5-20.2-10.8-21c0.7-0.8,2-3.1,2-3.1l2.4-0.2l9,4.1l5.6,5.7l7.5,9.8l0.6-0.7c0,0-0.9-6.1-0.8-9.3
			c0.1-3.2,0.9-2.4,0.9-2.4s1.8,0.9,2.3,0.7c0.4-0.1,2.3-1.9,2.3-1.9l3.4-5.3l1.8-1.7l2.8-4.2l0.4-1.4l0.9-1.1l4.4-0.3l1.1-0.3
			l-0.5-1.9l-1-0.3l2.6,0.1l0.5,2l16.8,8.2l7.6,3.5v1.8l-0.6,0.9l-1.9,2.6l-2.9,23.1l-1,5.4l-1.6,0.2l-0.6-1.1l-1.6-1.6
			c0,0-3.4-2.7-3-1.7C674.4,342.2,671.7,342.8,671.7,342.8z"/>
	</g>
</g>
<g id="Madagascar">
	<path id="path14441" fill="#666666" d="M520.1,462.5c1.5-1.3,3.5-1.5,4.6-0.4c0.5,0.5,1.1,0.9,1.4,0.9c0.8,0,3.1-4.1,3.1-5.5
		c0-1.7,1-3.1,2.3-3.5c1-0.3,1.6-1.1,5-7.8c5.4-10.6,6.1-12.4,6.4-16.4l0.3-3.8l2.3-2.3c2-2,2.4-2.7,3-5.3c0.4-1.7,0.7-3.5,0.7-4.1
		c0-1.1-4-9.3-5.1-10.4c-0.8-0.8-0.9-0.7-2,2.4c-1.2,3.3-1.6,3.8-3,3.5c-1.7-0.4-2.2,0.2-2.3,2.6c-0.1,1.7-0.3,2.3-1.1,2.6
		c-0.5,0.2-1.2,1-1.5,1.8c-0.3,0.7-1.5,1.9-2.6,2.7c-1.7,1.1-2.3,1.3-4.3,1.2c-1.8-0.1-2.8,0.1-3.9,0.8c-0.8,0.5-1.5,0.7-1.5,0.4
		c0-0.3-0.3-0.5-0.6-0.5c-0.8,0-2.1,1.8-1.7,2.4c0.6,1,0.5,5.7-0.1,6.7c-0.7,1.1-0.9,3.9-0.2,4.3c1.1,0.7-0.4,6.8-1.8,6.8
		c-0.2,0-1.3,1.2-2.4,2.7c-2.3,3.1-2.5,4.8-1.1,6.7c1,1.2,1,2.4,0,4.9c-0.5,1.2-0.4,1.5,1.5,4.5C517.4,464,518.1,464.3,520.1,462.5z
		"/>
</g>
<g id="Slam">
	<path id="path13821" fill="#B3B3B3" d="M645.4,227.6c-0.3,0-0.5,0.1-1,0.4c-2.2,1.2-3.5,2.6-4.9,5.3c-0.7,1.5-2.6,4.6-4.2,7
		l-2.9,4.3l1.1,1.6c0.6,0.9,2.6,4.6,4.4,8.3c2.4,4.8,3.8,7.2,5.2,8.5l1.9,1.9l2.6-0.3c2.4-0.3,2.7-0.2,4.5,1.1
		c1,0.8,1.8,1.6,1.6,1.8c-0.1,0.2-0.1,0.4,0.2,0.4c0.7,0,2.2,3.1,2.9,6.2c0.6,2.2,0.6,3.2,0.1,6c-0.6,3.7-1.3,4.9-0.8,1.4
		c0.7-4.7,0.5-7.1-0.9-10.1c-1.3-3-3.6-5.5-5.2-5.9c-0.5-0.1-2-0.2-3.3-0.1c-2.3,0.2-2.4,0.1-4.6-2.2c-1.3-1.3-2.3-2.6-2.3-2.8
		c0-0.6-5.5-11.5-6.8-13.5c-1.4-2-1.7-1.3-0.4,0.9c0.6,1,2.5,4.5,4.2,7.9c4.5,9,6.3,10.8,10.2,10.3c1.6-0.2,2.4-0.1,3.2,0.4
		c3.1,2.1,5.5,6.5,5.5,10.3c0,1.1-0.2,3.3-0.5,5c-0.6,3.8-0.4,4.7,1.8,7.3c1,1.1,1.8,2.3,1.8,2.5c0,0.9,4.1,6.6,5,6.9
		c1.4,0.6,4,0.5,4.6-0.1c0.4-0.4,0.2-0.8-0.6-1.8c-0.6-0.7-1.1-1.7-1.1-2.1s-0.4-1.1-0.8-1.4c-1.5-1-1.9-2.5-1.8-5.8
		c0.1-2.9,0.1-3.1-0.9-3.5c-2.2-0.8-3.7-7.7-2-9.4c0.8-0.8,0.9-0.8,2-0.2c0.5,0.3,1.2,1.2,1.6,2.2c0.6,1.5,1,1.8,2.8,2.4
		c2.5,0.8,4.6,3.3,5.3,6.2c1.4,5.6,1.4,5.6,2.4,5.3c0.5-0.2,1.4-0.8,2-1.4c1-1,1.1-1.1,1.5-0.3c0.7,1.2,0.7,1.3,1.4,0.3
		c0.6-0.8,0.6-0.8,0.7,0.3c0,1,0.1,1,0.5,0.3c0.2-0.4,0.3-1,0.2-1.2c-0.1-0.2,0-0.5,0.2-0.7c0.7-0.4,0.5-1.1-0.2-1.1
		c-1.1,0-1.2-1.4-0.1-2.6c0.7-0.9,1.3-2.7,2-6.4c1.2-5.9,1.1-9.4-0.2-10.1c-1.6-0.9-2.8-2.6-3.7-5.4c-0.9-2.8-4.2-7.6-6.7-10
		c-1.5-1.4-2.6-3.8-2.5-5.8c0-1.9,0.4-2.6,2.1-4.5c0.8-0.9,1.3-1.7,1.2-1.9c-0.2-0.2-1.1,0.5-2,1.5c-3,3.2-2.8,7.4,0.5,10.8
		c2.7,2.9,6,7.9,6.8,10.5c0.5,1.6,1.4,3,2.7,4.2c1.8,1.8,1.9,2,1.8,4.2l-0.1,2.3l-0.2-2.3c-0.1-1.9-0.4-2.4-1.3-3.1
		c-1.8-1.2-2.6-2.4-3.4-4.8c-0.8-2.6-3.6-6.9-6.5-10.1c-2.2-2.4-3-4.2-3-7.2c0-2.2,0.4-3.1,2.5-5.6l1.5-1.8l-2.8-3.1l-2.8-3.1
		l-2.4,2.2c-1.3,1.2-2.9,2.9-3.6,3.8c-1.6,2.2-3.1,2.8-4.7,2c-2.1-1.1-5.2-4.4-6.6-6.9c-0.8-1.3-2.1-3.3-3-4.3
		C646.2,228,645.8,227.6,645.4,227.6z"/>
</g>
<g id="Afghanistan">
	<path id="path13415" fill="#CCCCCC" d="M564.3,202.7c1.3-2.7,2.6-4,4.2-4c2,0,3.5-1,4.8-3.1c1.7-2.8,3.2-3,6.8-1
		c1.4,0.8,2.8,1.7,3.2,2.1c0.6,0.5,1,0.4,3.2-1.2c4.1-3,4.4-4.7,1.6-7.5c-2.3-2.3-3.1-4-3.1-7.2c0-2.1,0.2-2.7,1.3-4
		c0.7-0.8,1.9-1.8,2.6-2.2c0.7-0.4,2.6-2.5,4.3-4.9c2.6-3.8,3-4.5,3.2-6.8c0.2-1.9,0-3-0.5-4c-0.9-1.8-0.9-3-0.1-4.6
		c0.8-1.5,0.5-2-3.1-6c-2.1-2.2-2.4-2.5-3.1-1.9c-1.2,0.9-2.4,0.7-3.8-0.8c-1.2-1.3-1.5-1.3-3.7-1.1c-2,0.2-2.7,0.1-5-1.1
		c-2.4-1.3-2.8-1.6-3.3-3.4c-0.6-2-0.6-2-2.2-1.8c-2.2,0.4-3.6-0.9-4.9-4.4c-0.8-2.2-1.6-3.4-4.3-6.1c-1.8-1.8-3.3-3.7-3.3-4.2
		c0-0.5-0.3-1.1-0.7-1.4c-0.6-0.5-0.9-0.4-1.9,0.6c-0.7,0.6-1.9,1.4-2.7,1.7c-0.8,0.3-2.3,1.3-3.2,2.1c-2.7,2.3-5.1,3.1-7.5,2.4
		c-4.3-1.1-4.3-1.1-5.9,0.6c-1.5,1.7-2.1,1.8-5.8,1.6c-1.3-0.1-2,0.2-3,1.1c-0.9,0.8-1.9,1.3-3.3,1.5c-1.1,0.1-2.1,0.5-2.2,0.7
		c-0.1,0.3-0.4,1.5-0.6,2.7c-0.3,1.2-1,2.8-1.6,3.5c-1.5,1.8-1.5,5.3,0,8.1c0.6,1.1,1.5,2.9,2.2,4.1c0.6,1.2,1.4,2.6,1.8,3.1
		l0.7,1.1l1-0.9c0.6-0.5,1.5-1.1,2-1.3c0.5-0.2,1-0.5,1-0.7c0-0.6,2.1-1,3.3-0.7c1.3,0.3,3.1,3.2,3.5,5.7c0.4,2.1-0.3,3.8-2.2,5.9
		c-1.5,1.5-1.5,1.8-1.3,3.7c0.2,1.2,0.1,2.1-0.1,2.1c-0.2,0-0.5-1.1-0.5-2.5c-0.1-2.3,0-2.6,1.5-3.9c1.8-1.6,2.4-3.8,1.6-6.3
		c-1.2-4.1-3.4-5.1-6.5-3c-0.9,0.6-1.8,1.1-1.9,1.1c-0.2,0-0.7,0.4-1.1,0.8c-0.8,0.7-0.9,0.7-1.6-0.2c-0.4-0.6-1.2-2-1.8-3.2
		c-0.6-1.2-1.6-2.9-2.2-3.7c-0.9-1.2-1.1-2.2-1.3-5c-0.2-3.3-0.2-3.5,1.2-4.9c1.2-1.3,1.6-2.4,2-5.6c0.1-1,0.4-1.2,2.2-1.4
		c1.4-0.2,2.7-0.8,3.8-1.7c1.6-1.3,1.9-1.4,3.8-1.1c2.9,0.4,4,0,5.1-1.8c1.1-1.8,1.8-1.9,5.1-0.9c2.9,0.9,5.1,0.4,7.6-1.8
		c1-0.8,2.9-2.1,4.3-2.8c1.4-0.7,2.6-1.4,2.6-1.6c0-0.6-5.5,2.3-6.9,3.6c-2.4,2.3-5.7,2.9-8.3,1.5c-2-1.1-4.4-0.3-5.1,1.7l-0.5,1.4
		l-2.8-0.2c-2.4-0.2-3-0.1-4.4,0.8c-0.9,0.6-1.8,1.3-1.9,1.5c-0.2,0.3-1.1,0.5-2.1,0.5c-1,0-2.1,0.2-2.3,0.3c-0.3,0.2-0.7,1.6-1,3.2
		c-0.4,2-0.9,3.3-1.6,4.1c-1,1.1-1.1,1.6-1.1,4.6c0,2.9,0.2,3.7,1.1,5.1c0.6,0.9,1.6,2.6,2.2,3.8c0.6,1.2,1.8,3,2.7,4.1
		c1.4,1.7,1.6,1.8,1.9,1.1c0.7-2.1,5-4.6,6.4-3.8c1.1,0.6,2.2,3.3,2.2,5.5c0,1.5-0.3,2-1.8,3.5l-1.8,1.7l0.3,3.9
		c0.3,3.5,0.4,3.9,1.4,4.4c0.6,0.3,1.4,0.5,1.7,0.5c0.3,0,1,0.5,1.4,1.2c0.6,1,0.7,1.5,0.3,3c-0.7,2.5,0,4.7,1.4,5.1
		c0.6,0.2,1.5,0.7,2,1.2c0.8,0.8,0.8,1,0.2,2.5c-1,2.4-0.8,3.2,0.6,4c1.3,0.7,1.8,2.2,1.8,5.4c0,0.7,0.2,1.2,0.4,1.2
		c0.6,0,0.6-2.9,0-5c-0.3-1-0.8-1.8-1.6-2.1c-1.3-0.6-1.4-1.2-0.5-3.4c0.6-1.4,0.6-1.7-0.1-2.6c-0.4-0.6-1.4-1.3-2.2-1.7
		c-1.6-0.7-1.8-1.5-1.1-4.9c0.4-1.7,0.4-1.7,0.3,0.9c-0.1,2.3,0.1,2.8,0.8,3.2c2.8,1.5,3.3,2.1,3.1,3.8c-0.1,0.9-0.3,2.1-0.6,2.6
		c-0.4,0.7-0.3,1,0.8,1.6c1.3,0.8,1.8,2.5,1.8,5.7c0,1.4,0.1,1.4,1.6,1.2c3.3-0.6,9.4,2.1,10.7,4.7c1.1,2.2,3.1,3.4,5.3,3.2
		C563,205.3,563.2,205.1,564.3,202.7L564.3,202.7z"/>
</g>
<g id="China">
	<path id="path13599" fill="#CCCCCC" d="M606.4,137.9C606.4,137.9,606.4,137.9,606.4,137.9c-0.3,0.2-0.4,1.1-0.2,2
		c0.2,1.7,0.2,1.8-1.8,2.7c-1.1,0.5-2,1.1-2,1.4c0,0.3-0.4,1.3-0.9,2.2c-0.5,0.9-1.1,2.6-1.3,3.7c-0.3,1.2-0.7,2.4-1,2.8
		c-0.3,0.4-1,1.4-1.5,2.4c-0.9,1.7-1,1.7-0.2,2.9c1,1.5,1.1,6.7,0.1,8.5c-1.6,3-6.4,9.2-7.5,9.6c-0.7,0.3-1.7,1-2.2,1.6
		c-1.3,1.4-1.3,4.3,0.1,6.5c1.4,2.2,4,4.2,5.2,3.9c1.4-0.4,3.1,0.9,3.6,2.9l0.5,1.7l3.2,0.4l3.2,0.4l0.1,5.8
		c0.1,5.8,0.1,5.8-1.2,7.9c-0.7,1.2-1.3,2.3-1.3,2.6c0,0.3,0.9,0.9,2,1.3c1.1,0.4,3.5,1.7,5.2,2.9c2.7,1.8,3.4,2.1,5.2,2.1
		c1.5,0,2.8,0.4,4.7,1.4c1.4,0.7,3.4,1.5,4.4,1.6c1.5,0.2,2.1,0.6,3.2,2c1.6,1.9,2.6,2.1,5.7,1c4.2-1.5,8.2,0.3,9.9,4.4
		c0.9,2.1,1.3,2.3,2.6,1.3c1.5-1.1,3.4-0.8,4.9,0.8c1.2,1.3,3.7,4.9,4.8,7c0.2,0.4,1.5,1.7,2.8,2.8l2.4,2.1l1.3-1.5
		c3-3.6,6.8-7,7.8-7c0.7,0,2.1,1.1,4.7,3.7c2.6,2.7,3.9,3.7,4.4,3.5c1-0.4,2.7,0.8,3.4,2.5l0.6,1.4l1.3-1.2c0.7-0.7,1.3-1.6,1.3-2.1
		c0-0.5,0.4-1.6,0.9-2.3c0.7-1.2,1.1-1.4,2.3-1.4l1.4,0.1l-1.6,0.5c-1.4,0.4-1.7,0.7-2.1,2.5c-0.5,2-2.3,4.5-3.4,4.5
		c-0.3,0-0.7-0.4-0.8-0.8c-0.1-0.4-0.8-1.4-1.6-2.1c-1-1-1.4-1.1-1.8-0.7c-0.4,0.4-0.4,0.5,0.2,0.5c0.4,0,1.5,1.1,2.4,2.4
		c1.5,2.3,2.8,3.1,2.8,1.9c0-0.3,0.6-1.1,1.3-1.9c0.9-0.9,1.4-2.1,1.7-3.3l0.3-2l2.1-0.1l2.1-0.1l0.7-2.4c0.6-2.1,0.9-2.5,2.6-3.3
		c4.7-2.5,6.7-4.9,7.2-9c0.2-1.5,0.6-3.1,0.9-3.6c0.5-0.8,0.6-1.4,0.1-3.6c-0.5-2.3-0.4-2.8,0.2-4.2c0.4-0.9,1-1.7,1.4-1.8
		c1-0.4,0.8-1-0.9-2.9c-1.7-1.9-1.9-3.2-0.7-4.8c1-1.3,1.1-3.2,0.2-4c-0.5-0.4-0.7-1.2-0.6-2.4c0.2-2.4-1.9-6.6-3.9-7.8
		c-1.9-1.2-4.1-3.8-4.1-4.8c0-0.5-0.2-0.9-0.4-0.9c-0.6,0-0.5,1.3,0.2,2.6c0.3,0.6,1.6,1.9,2.9,2.9c2.8,2.2,4.4,5,4.4,7.7
		c0,1.1,0.3,2.4,0.6,2.9c0.9,1.2,0.8,2.4-0.2,3.7c-0.5,0.6-0.9,1.5-0.9,2c0,1,1.1,2.9,2.1,3.4c0.7,0.4,0.8,1.9,0.1,2.3
		c-0.2,0.2-0.8,1-1.3,2c-0.8,1.6-0.8,1.8-0.2,3.9c0.7,2.1,0.7,2.2-0.2,3.9c-0.5,0.9-0.9,1.4-0.9,1c0-0.4,0.3-1.1,0.7-1.6
		c0.6-0.9,0.6-1.2-0.1-3.2c-0.8-2.4-0.5-4.1,1.2-6c0.8-0.9,0.8-0.9-0.5-2.4c-1.7-1.8-1.8-4.2-0.4-6.2c0.9-1.2,0.9-1.3,0.2-2.1
		c-0.5-0.5-0.8-1.8-0.9-3.5c-0.2-3.2-1.3-5-4.3-7.3c-2.3-1.8-3.2-3-3.7-5c-0.2-0.8-0.5-1.5-0.7-1.6c-0.2-0.1-2.8-0.6-5.7-1.2
		c-4.2-0.7-5.6-0.8-6.5-0.5c-1.7,0.8-3,0.6-5.8-0.9l-2.6-1.3l-2,0.9c-1.1,0.5-2.7,0.9-3.6,0.9c-1.3,0-1.8-0.2-2.2-1.2
		c-0.6-1.1-0.9-1.2-3.7-1.3c-1.7-0.1-4.4-0.2-6.1-0.1c-4.4,0.1-7.2-0.7-8-2.2c-0.5-1-3.6-2.9-6.1-3.7c-0.4-0.1-1.8-1.7-3.1-3.5
		c-1.3-1.8-3.2-3.8-4.2-4.5l-1.8-1.3V158c0-2.8-0.2-3.6-0.9-4.6c-0.5-0.6-1.2-1.2-1.6-1.2c-0.4,0-1.7-0.5-3-1.1
		c-2.3-1.1-2.4-1.2-3.3-3.9c-1.3-4.3-2.6-6.5-3.5-6.1c-1.2,0.5-3.5,0.8-4.6,0.5c-0.6-0.1-2.1-1.1-3.3-2.1
		C607.9,138.6,606.7,137.9,606.4,137.9z"/>
</g>
<g id="Mongolia">
	<path id="path13231" fill="#B3B3B3" d="M678.6,113.3c-0.1,0-0.2,0.1-0.3,0.1c-0.3,0.2-1.5,0.7-2.7,0.9c-1.2,0.3-2.6,0.6-3.1,0.7
		c-0.8,0.2-1,0.6-1.2,3.9c-0.3,4.5-1.7,9.1-3.3,10.9c-1.1,1.4-1.2,1.4-3.9,1.1c-2.8-0.3-3.3-0.2-7.5,2.1c-1.9,1-10.5,0.6-13.9-0.7
		c-2.2-0.9-2.4-0.9-3.6-0.2c-1.7,1-4.9,1-6.3-0.1c-0.6-0.5-1.7-1-2.4-1.1c-3.3-0.7-3.3-0.7-3,0c0.1,0.4-1.7,1.1-2.2,2.4
		c-1.1,2.5-1.6,3.6,0.4,8l1.8,3.4l-1.2,2.3c-1,3.5-0.8,4.5,2,5.8c0.8,1.1,1.4,2.6,1.5,5.3c0.1,3.2,0.2,3.4,1.6,4.4
		c0.8,0.5,2.5,2.4,3.8,4.1c2,2.6,2.8,3.3,4.6,4c2.2,0.8,4.2,2.3,5,3.8c0.4,0.6,1.2,0.8,4.8,0.9c11.7,0.4,11.2,0.3,12.3,1.6
		c0.9,1.1,1.2,1.2,2.6,0.9c0.9-0.2,1.8-0.5,1.9-0.7c0.5-0.8,3.8-0.4,5.9,0.8c2,1.1,2.2,1.2,3.9,0.6c1.9-0.6,3.7-0.4,10.8,1.1l3,0.7
		l1.6-1.2c2.3-1.8,2.1-3.3-0.3-2.1c-2.1,1.1-4,0.7-4.9-1.1c-0.4-0.8-1.1-1.7-1.5-2c-2.6-1.4-2.5-3.6,0.2-7.5
		c1.9-2.8,4.6-5.1,5.3-4.5c0.1,0.1-0.3,0.5-1.1,0.9c-1.7,0.9-5.5,6.5-5.5,8.1c0,1,1,2.3,2.2,2.9c0.2,0.1,0.6,0.7,1,1.5
		c0.8,1.5,2.3,1.9,4.4,1.2c2.6-0.9,3.4,1.2,1.2,3.1c-0.8,0.7-1.2,1.2-1,1.2c0.8,0,3.3-2.6,3.3-3.4c0-0.5-0.5-1.2-1.2-1.6
		c-1.1-0.7-1.3-0.7-2.7-0.1c-2.2,1-2.8,0.9-3.5-0.8c-0.4-0.9-1.2-1.8-2-2.2c-1.6-0.8-1.7-1.6-0.3-3.7c0.6-0.9,1.5-2.3,2.1-3.2
		c2.5-3.9,5.8-3.1,4.7,1.1c-0.6,2.5,0.2,3.1,1.8,1.3c2.5-2.6,5.4-1.4,5.4,2.2c0,2,0.3,2.2,2.4,1.6c1.4-0.4,1.7-0.4,2.5,0.3
		c0.5,0.5,0.9,1.4,0.9,2.1c0,0.7,0.2,2.6,0.5,4.1c0.5,2.6,0.6,2.8,1.7,2.8c1,0,1.3-0.3,2-2.2c0.4-1.2,1-2.3,1.2-2.5
		c0.2-0.1,0.7-0.9,1.1-1.8c0.5-1.3,0.5-1.7,0-3c-0.4-0.8-0.9-1.5-1.3-1.5c-0.4,0-2.3-1.7-4.2-3.8c-2.3-2.4-3.6-3.5-3.6-3
		c0,0.7,3.9,4.8,7.5,7.8c1.7,1.4,1.6,2.5-0.2,5.2c-0.6,0.8-1.3,2.1-1.5,2.8c-0.3,0.7-0.6,1.2-0.9,1.2c-0.5,0-1.5-4.5-1.3-6.1
		c0.1-0.8,0.4,0,0.8,2.2l0.6,3.5l0.5-1.5c0.3-0.8,1-2.1,1.5-2.9c1.3-1.8,1.2-3.4,0-4.1c-1.7-0.9-6.1-5.3-7.8-7.8
		c-1.8-2.6-2.5-6-1.8-7.9c0.2-0.7,1-1.8,1.7-2.5c0.7-0.7,1.4-2.2,1.7-3.3c0.3-1.1,0.6-2.3,0.8-2.8c0.2-0.6,0.1-0.8-0.6-0.8
		c-1.2,0-3.7-2.5-3.7-3.8c0-1.8-0.5-2.3-3.1-3.3c-3.8-1.4-4.4-3.3-1.9-6.5c1.4-1.9,1.1-2.5-1.3-2.9c-1.4-0.2-2.2-0.6-3-1.5
		c-0.6-0.7-1.7-1.9-2.5-2.8c-0.8-0.8-2.7-3.5-4.3-6C680.7,114.7,679.4,113.2,678.6,113.3L678.6,113.3z"/>
</g>
<g id="Irkutsk">
	<path id="path12951" fill="#B3B3B3" d="M657.7,131.9c2.9-1.5,3.4-1.6,5.9-1.3l2.7,0.3l1.7-1.6c2.1-2,2.1-5.5,2.9-8.8
		c0.7-3.1-1.2-5.2,3.2-6.1c1.6-0.3,3.4-0.8,3.9-1.1c0.7-0.4,1.3,0.1,1.9,0.4c1.1,0.6,2.8,3.5,5,7c3.4,5.5,8.6,10.2,9.2,8.8
		c0.4-1,1.1,0,1-4.3c-0.1-3.8,0-4.5,0.9-6c0.7-1.1,1-2.4,1-3.8c0-2.4-0.5-3.1-4.7-7.4c-2.6-2.7-3.4-2.8-6.9-1.2
		c-4.1,1.9-5.4,1.3-5.5-2.5c0-1.8-0.2-2.1-3.9-5.8c-2.1-2.2-4.4-4.7-5-5.7l-1.2-1.7l0.1-9.4l0.1-9.4h-5.2c-4.8,0-5.3,0.1-6.7,1.1
		c-1.8,1.3-2.4,1.4-3.6,0.2l-1-0.9l-0.3,2.7c-0.4,3.4-2,5.9-3.7,5.6c-0.7-0.1-1.3,0.1-1.8,0.6c-0.5,0.5-2.5-3-3.5-3
		c-1.4,0-2.5,3.6-3.3,5.2c-0.5,1-1.2,2.7-1.2,3.4c0,0.7,0,1.2-0.4,1.6c-0.7,0.8,0,1.2,1.3,3.4c1.1,1.9,0.8,1.7,0.6,3.1
		c-0.2,0.9-0.5,0.1-0.6,1.6c-0.8,1.8,0.9,4-0.5,5.4c-0.9,0.9-0.6,1.1-1.2,1.1c-1.3,0-2-1.8-2.9-3c-1.2-3.9-5.7-5.1-8.4-0.3
		c-2,1.7-3.2,3.5-3.2,4.1c0,1.4-0.1,2.7-0.9,3c-0.4,0.1-1,0-1.8-0.1c-3.6-0.3-3.4,2.9-2,4.5c0.2,0.8,0.7,2.4,1.1,3.5
		c0.9,2.1-0.1,3.8-0.7,4.2c-0.3,0.2-2.5,5.6-2.5,6.1c0,0.1,2.6,1.8,4.2,2.8c2.4,1.6,3.3,1.9,5.5,2c1.7,0.1,3.6,0.5,5.4,1.5l1.8,1
		c0.8-0.3,2.4-0.1,3.7-0.5c2.1-0.7,1.7-0.9,3.9-0.2c2.1,0.7,6.4,1.3,10.8,1.4C654.1,133.4,655.5,133,657.7,131.9z"/>
</g>
<g id="Yakutsk">
	<path id="path12701" fill="#999999" d="M647.5,81c0.3,0,2.6-0.4,2.8-0.5c1.3-0.5,1.9-1.3,2.3-2.6c0.5-1.6,0.3-1.8,0.4-2.1l0.3-3.5
		c0.9,0.6,1.2,1.6,2.6,1.7c0.6,0,1,0,2.1-0.8c1.3-1,0.6-1,5.3-1.2l6.6,0.1l0-6.1c0-3.3,3.3-4,3.3-6.7c0-1.8,1.1-3.6,2.6-4.2
		c0.7-0.3,2-1.3,2.9-2.3c1.7-1.8,4.2-2.7,5.5-1.9c0.6,0.3,2.2,3.1,2.8,4.6c0.1,0.2,1,0.1,2-0.1c1.6-0.4,2-0.4,2.7,0.2
		c0.9,0.8,2.1,1,2.5,0.4c0.1-0.2,0.6-1.9,0.9-3.8l0.7-3.5l-3.2-3l-3.2-3l0.2-4c0.2-4.4,0.5-5.1,3.3-6.5c2.1-1.1,4.7-3.8,5.4-5.8
		c0.5-1.3,0.4-1.6-0.2-2.3c-1.1-1.2-0.8-1.6,0.4-0.7c1.3,0.8,1.4,0.5,0.4-0.7c-0.5-0.6-1.4-0.8-2.8-0.8c-2.3,0-2.7-0.3-3.4-2.9
		c-0.3-1.1-0.9-2-1.6-2.4c-1-0.6-1.2-0.5-2.6,0.8c-1.8,1.8-2.9,1.8-3.5,0.1c-0.7-1.9-1.5-2.2-6.1-2.2h-4.1l0.3,1.4
		c0.1,0.8,0.4,1.9,0.5,2.4c0.2,0.7,0,1.1-0.8,1.7c-0.9,0.6-1.6,0.6-4.3,0.3c-1.8-0.2-3.4-0.3-3.7-0.2c-0.3,0.1-0.9,0.9-1.4,1.8
		c-1.3,2.4-2.6,2.4-5.1-0.1c-1.1-1.1-2.3-2-2.7-2c-1.2,0-2.1-1.8-2.1-4c0-2.7-0.7-3.6-3.2-3.8c-1.9-0.2-2.1-0.1-3.7,1.6
		c-3.6,3.7-4.2,4.5-4,4.8c0.2,0.2,1.5-1,3-2.7c1.5-1.6,2.9-2.8,3-2.7c0.5,0.3-4.4,5.5-5.6,6c-1.6,0.6-2,2.2-0.6,3.5
		c1.2,1.1,3,1.8,3.7,3.6c0.5,1.2-0.7,1.7-1.6,2.7c-0.6,0.7-0.8,1.2-0.8,1.2s0.3,3.4,0.2,6c-0.1,2.5-0.5,4.9-0.6,5.8
		c0,0-0.6,1-3.7,0.8c-2.3-0.1-2.3-1.2-3.3-1c-1.2-0.6-2.6,1.7-3.4,2.6c-0.5,0.5-2.1,1.4-3.2,2.4c-1.9,1.5-1.6,3-0.8,3.4
		c0,0.4,1.5,1.5,2.4,1.4c1.5-0.1,2.8-0.1,4.3,2.4c1.2,2-0.5,1.3-0.8,2.8c-0.2,1.3,0.7,3.3,0.8,3.5c0.3,0.7,1.4,3.3,1.4,5.1
		c0,2,0.4,3.5,1.2,3.7c1.4,0.4,1.5,0.5,0.9,2.2c-0.4,1.2-0.1,2.5,0.7,3.9c0.5,0.9,0.7,2.3,1.2,2.1C644.7,77.6,646.8,80.9,647.5,81
		L647.5,81z"/>
</g>
<g id="Japan">
	<path id="path13309" fill="#CCCCCC" d="M757.7,72.8c-0.6,0-0.9,0.3-1.3,1.1c-0.7,1.4-0.6,1.8,0.8,2.6c2,1.1,3.2,5.6,1.8,6.8
		c-0.6,0.5-1.4,2.9-2.2,6.2c-0.2,0.9,0.1,1.5,1.5,3.1c2.5,2.8,2.6,3.7,0.7,5.6c-0.9,0.9-1.8,2.1-2.1,2.8c-0.5,1.2-0.4,1.4,0.8,2.6
		c1,0.9,1.4,1.7,1.4,2.7c0,1.8-0.7,3.1-1.6,3.1c-0.5,0-0.6,0.3-0.5,0.9c0.2,0.7,0,0.9-0.7,0.9c-0.7,0-0.8,0.1-0.4,0.4
		c0.3,0.2,1,0.3,1.4,0.2c0.8-0.2,0.8,0,0.6,1.9c-0.3,2.2-1.2,3.7-2.2,3.7c-0.3,0-0.6,0.2-0.6,0.5c0,0.3-0.2,0.4-0.4,0.2
		c-0.2-0.1-1.1,0.8-2,2c-1.3,1.7-1.7,2.7-2,4.8c-0.2,1.5-0.5,2.8-0.7,3c-0.2,0.2-1.4,0.7-2.7,1.1c-2.3,0.8-2.8,1.3-2.8,3.2
		c0,0.7-0.8,2.1-2.3,3.8c-2.2,2.5-2.3,2.8-2.2,4.6c0.2,1.7,0,2.1-1.4,3.6c-2.1,2.3-2.1,3.3,0.2,4.4c1,0.5,2,1.4,2.2,2
		c0.7,1.9,2.6,4.6,3.2,4.6c0.3,0,1.2-0.8,1.9-1.9c1.1-1.5,1.4-2.5,1.5-4.7c0.2-2.9,0.5-3.4,2.6-3.9c1.5-0.4,5.3-3.6,5.3-4.5
		c0-0.4,0.3-1.2,0.7-1.7c0.7-0.9,0.7-0.9,2.3-0.3c1.5,0.6,1.7,0.6,2.1,0c0.3-0.4,0.6-1.5,0.8-2.6c0.2-1.4,0.8-2.5,2.4-4.2
		c1.9-2.2,2.3-2.4,4.4-2.6c2.1-0.2,2.4-0.4,3.4-1.9c0.6-0.9,1.7-2.1,2.4-2.6c1-0.7,1.3-1.3,1.3-2.2c0-2.4-1.4-9-2.3-11.1
		c-0.8-1.7-0.8-2.5-0.5-3.8c0.7-2.6,0-7.4-1.2-8.8c-2.2-2.5-4.1-4.2-5.8-5.3c-3.1-2-1.9-3.7,3.4-4.7l3-0.6v-1.6c0-1.2,0.4-2,1.5-3.2
		c0.8-0.9,1.6-1.6,1.8-1.6s0.9-0.7,1.6-1.6l1.2-1.6l-1-0.7c-0.5-0.4-1.5-1.3-2.1-2c-1.1-1.2-1.2-1.2-2.2-0.5
		c-1.7,1.1-8,0.6-10.9-0.8c-1.2-0.6-2.8-1.3-3.6-1.4C758.1,72.8,757.9,72.8,757.7,72.8z"/>
</g>
<g id="Lamchatka">
	<g id="path6802">
		<path fill="#999999" d="M700.7,24.6l-1.4,2.2l-4.6,4.9l-3.3,2.1l-0.7,1.2l-0.7,2.7l-0.1,5.1l6.4,5.7l-1.7,7.9c0,0-0.6,1.3-1.3,1.4
			c-2-3.3-5.8-1.6-5.9-1.6l-0.9-0.3c-0.3-1.6-1.1-3.1-1.9-3.8c-0.9-0.8-1.3-0.9-2-0.7c-0.3-0.6-5.5,3.7-5.5,3.7s-2,1.1-2.4,1.8
			c-0.8,1.3-1,2.9-0.9,2.9l-1.6,2.7c-0.8,0.8-1.7,1.6-1.7,2.2c0,0-0.2,0.5-0.3,3.5c0,0.8,0.1,4,0.1,4l-0.1,15.9l-0.1,2.8
			c0,0,0.7,1.2,1.6,2.1c0.9,1,7.4,8.2,7.4,8.2s1.3,1.8,1.4,3.5c0.1,1.7,1,2.4,1,2.4c0.3,1.3,5.2-1.1,6.1-1.9c0.8-0.7,1.3-1,2.1-0.1
			c0.8,0.9,4.6,3.6,4.6,3.6l3.2,4.6c1.5,0.2-1.2,3.6-1.7,12.6c-0.2,4.2-0.9,3.2-0.6,3.4c0,0,2.3,2.5,1.1,2.4
			c-1.5-0.1-2.2,3.1-2.1,3.1c0,0-0.3,2.6,1,2.9c0.9,0.2,4.5,2.2,4.5,2.2s0.6,3,1.9,4c1.9,1.4,3.3,1.8,3.3,1.8l1.5-0.9l1.7-2.9
			l0.1-0.3l2.2-13.5v-5.6l-1.1-2.7l-0.7-4.9l-1.9-5.3l-0.4-4.7l-0.4-3l-1.6-1.8l-1.6-2.4l-2.7-0.6l-2.6,1.4l-2.3-0.1l-1.2-2.2
			l-1.7-1.4l-1.6-1l-1.2-1.2l0.6-2.6l0.5-2.8l0.7-1.1l1.2-0.8l1.5-2.3l0.6-1.9l1.4-2.8l2.8-0.6l1.3-0.9l2.3-1.1l3.1-0.4l2,0.4
			l0.8,0.8l1-0.4l1.2-1.3l0.5-1.3l3.5-0.3l1.2,2.2l1,2.3l2.6-0.5l0.6-2l-2.5-4.6l-0.4-3c0,0,1.7-2.8,3.7-3c2-0.3,3.7,2.3,3.7,2.3
			l1,2.7l1.4,0.2l0.8-2l0.5-5.4l2.3-0.5l3.1,1.5l-2.6,6.9l-2.1,6.9l-2.5,6.1l-1.1,10.3l3.3,8l3.5,6.1l4.6,3.5l3.7-4.8l0.4-7.8
			l-1.4-3.7l0.1-8.6l-2-5.3l-1.8-3.8l1.1-2.9l2.5-1.1l0.8-2.4h3l1.7,2.5l1.6-0.4c0,0,1.5-3.4,2-3.5c0.4-0.1,3.1-4,3.1-4l3.7-4.7
			l3.2-3.9l-2.2-3.7l-2.6-3l-0.8-3.3l2.9,0.8l3.6,2.3l2.6,1.4l0.6,3.3l4.5-0.6l3.1-2l2-2.9l-0.4-1.4l2.5-0.6l-0.9-2.2l-2.3-2.5
			c0,0-6.2-3.4-6.9-3.4c-0.7,0-5.3-1.7-5.3-1.7s-19-12.1-18-12.7s-9.3-0.4-9.3-0.4l-3.7,4l-7.6-1.2l-7.7-0.6l-6.8-3.7L700.7,24.6z"
			/>
		<path fill-opacity="0" stroke="#000000" stroke-width="2.000000e-03" d="M700.7,24.6l-1.4,2.2l-4.6,4.9l-3.3,2.1l-0.7,1.2
			l-0.7,2.7l-0.1,5.1l6.4,5.7l-1.7,7.9c0,0-0.6,1.3-1.3,1.4c-2-3.3-5.8-1.6-5.9-1.6l-0.9-0.3c-0.3-1.6-1.1-3.1-1.9-3.8
			c-0.9-0.8-1.3-0.9-2-0.7c-0.3-0.6-5.5,3.7-5.5,3.7s-2,1.1-2.4,1.8c-0.8,1.3-1,2.9-0.9,2.9l-1.6,2.7c-0.8,0.8-1.7,1.6-1.7,2.2
			c0,0-0.2,0.5-0.3,3.5c0,0.8,0.1,4,0.1,4l-0.1,15.9l-0.1,2.8c0,0,0.7,1.2,1.6,2.1c0.9,1,7.4,8.2,7.4,8.2s1.3,1.8,1.4,3.5
			c0.1,1.7,1,2.4,1,2.4c0.3,1.3,5.2-1.1,6.1-1.9c0.8-0.7,1.3-1,2.1-0.1c0.8,0.9,4.6,3.6,4.6,3.6l3.2,4.6c1.5,0.2-1.2,3.6-1.7,12.6
			c-0.2,4.2-0.9,3.2-0.6,3.4c0,0,2.3,2.5,1.1,2.4c-1.5-0.1-2.2,3.1-2.1,3.1c0,0-0.3,2.6,1,2.9c0.9,0.2,4.5,2.2,4.5,2.2s0.6,3,1.9,4
			c1.9,1.4,3.3,1.8,3.3,1.8l1.5-0.9l1.7-2.9l0.1-0.3l2.2-13.5v-5.6l-1.1-2.7l-0.7-4.9l-1.9-5.3l-0.4-4.7l-0.4-3l-1.6-1.8l-1.6-2.4
			l-2.7-0.6l-2.6,1.4l-2.3-0.1l-1.2-2.2l-1.7-1.4l-1.6-1l-1.2-1.2l0.6-2.6l0.5-2.8l0.7-1.1l1.2-0.8l1.5-2.3l0.6-1.9l1.4-2.8l2.8-0.6
			l1.3-0.9l2.3-1.1l3.1-0.4l2,0.4l0.8,0.8l1-0.4l1.2-1.3l0.5-1.3l3.5-0.3l1.2,2.2l1,2.3l2.6-0.5l0.6-2l-2.5-4.6l-0.4-3
			c0,0,1.7-2.8,3.7-3c2-0.3,3.7,2.3,3.7,2.3l1,2.7l1.4,0.2l0.8-2l0.5-5.4l2.3-0.5l3.1,1.5l-2.6,6.9l-2.1,6.9l-2.5,6.1l-1.1,10.3
			l3.3,8l3.5,6.1l4.6,3.5l3.7-4.8l0.4-7.8l-1.4-3.7l0.1-8.6l-2-5.3l-1.8-3.8l1.1-2.9l2.5-1.1l0.8-2.4h3l1.7,2.5l1.6-0.4
			c0,0,1.5-3.4,2-3.5c0.4-0.1,3.1-4,3.1-4l3.7-4.7l3.2-3.9l-2.2-3.7l-2.6-3l-0.8-3.3l2.9,0.8l3.6,2.3l2.6,1.4l0.6,3.3l4.5-0.6l3.1-2
			l2-2.9l-0.4-1.4l2.5-0.6l-0.9-2.2l-2.3-2.5c0,0-6.2-3.4-6.9-3.4c-0.7,0-5.3-1.7-5.3-1.7s-19-12.1-18-12.7s-9.3-0.4-9.3-0.4l-3.7,4
			l-7.6-1.2l-7.7-0.6l-6.8-3.7L700.7,24.6z"/>
	</g>
</g>
<g id="WesternAustralia">
	<g id="path8926">
		<path fill="#CCCCCC" d="M623.5,373.2l-2.1,9.6l-8-4.5l-7.3,8.2l-0.4,1.2l-0.1,2.1l-1.1,3.2l-2.5-1c0,0-1.4-2.4-2-1.4
			c-0.6,0.9-0.5,3.4-0.5,3.4s-0.1,4.1-0.3,4.2c-0.2,0.1-1.4,2-1.4,2l-5,3.7l-6.1,3.5l-3.3,1.9l-2.1,1.3l-3.6,2.2l-1.3,0.5l-1.4,0.8
			l-0.8,0.8l-0.2,0.6l0,0.9l0.2,0.6l0.7,0.2l0.6,0.1l0.4,0.6l0.3,1.3l0.3,2.1l0.2,1.6l0.8,2.7l0.5,0.8l0.7,1.6l0.2,1.1l0.1,1.4
			l0.1,2.7l0,2.6l0,1.4l1.4,1.4l1.7,1.9l1,1.4l0.3,0.8l0.8,2.4l1.9,3.5l0.5,0.5l0.4,0l0.9,0.6l1.2,1.3l0.6,1.4l-0.5,1.6l-0.3,1.3
			l-1.6,2l-0.4,2l0.9,2l2.4,0.4h5.1l3.1-1.4l2.3-3.5l3.7-0.9l4.7-0.9l2.2-1.1l9.8-8.4c0,0,9-2.7,9.9-2.1s4.9,0.6,4.9,0.6l1.7,0.1
			l1,0.3l1.8,1.8l1.1,1.6l0.5,1l0.3,1.8l0.7,2.3l0.5,0.1l1.7-1.2l0.4-0.8l0.5-0.3l2.2,0.7l0.1,1.8h2.3l1,1.9l2,1.5l2.1-3.2l0.6-6.8
			l-0.9-6.2l1.4-23.1l-29.4-1.3l-0.6-4.5l-0.6-24.1l-1.5-1.5L623.5,373.2z"/>
		<path fill-opacity="0" stroke="#000000" stroke-width="3.000000e-03" d="M623.5,373.2l-2.1,9.6l-8-4.5l-7.3,8.2l-0.4,1.2l-0.1,2.1
			l-1.1,3.2l-2.5-1c0,0-1.4-2.4-2-1.4c-0.6,0.9-0.5,3.4-0.5,3.4s-0.1,4.1-0.3,4.2c-0.2,0.1-1.4,2-1.4,2l-5,3.7l-6.1,3.5l-3.3,1.9
			l-2.1,1.3l-3.6,2.2l-1.3,0.5l-1.4,0.8l-0.8,0.8l-0.2,0.6l0,0.9l0.2,0.6l0.7,0.2l0.6,0.1l0.4,0.6l0.3,1.3l0.3,2.1l0.2,1.6l0.8,2.7
			l0.5,0.8l0.7,1.6l0.2,1.1l0.1,1.4l0.1,2.7l0,2.6l0,1.4l1.4,1.4l1.7,1.9l1,1.4l0.3,0.8l0.8,2.4l1.9,3.5l0.5,0.5l0.4,0l0.9,0.6
			l1.2,1.3l0.6,1.4l-0.5,1.6l-0.3,1.3l-1.6,2l-0.4,2l0.9,2l2.4,0.4h5.1l3.1-1.4l2.3-3.5l3.7-0.9l4.7-0.9l2.2-1.1l9.8-8.4
			c0,0,9-2.7,9.9-2.1s4.9,0.6,4.9,0.6l1.7,0.1l1,0.3l1.8,1.8l1.1,1.6l0.5,1l0.3,1.8l0.7,2.3l0.5,0.1l1.7-1.2l0.4-0.8l0.5-0.3
			l2.2,0.7l0.1,1.8h2.3l1,1.9l2,1.5l2.1-3.2l0.6-6.8l-0.9-6.2l1.4-23.1l-29.4-1.3l-0.6-4.5l-0.6-24.1l-1.5-1.5L623.5,373.2z"/>
	</g>
</g>
<g id="MiddleEast">
	<path id="path13859" fill="#B3B3B3" d="M491.7,196.4c-0.1,0-0.3,0-0.4,0c-1.8,0-3.9,0.5-6.2,1.5c-5.1,2.2-9.7,3.7-11.2,3.7
		c-1.5,0-2.1-0.5-4.5-3.5l-1.1-1.4l-1,0.9c-2.2,2.1-3.1,4.1-4.1,9l-1,4.9l1,1.4c0.7,1,1,2.2,1.2,4.9c0.2,2.6,0.4,3.6,0.9,3.8
		c4.7,1.9,7,2.4,11.6,2.4c4.6,0,4.8,0,5.7,1.2c0.8,1,1.3,1.2,3,1.2c1.9,0,2.2-0.2,3.6-1.8c1.7-2,2.8-2.3,4.4-1
		c1.6,1.3,1.8,2.3,1.3,6.4c-0.3,2.8-0.3,4.4,0.1,5.8c0.6,2.1,0.2,5.6-0.9,8.2c-0.3,0.8-1.7,2.5-2.9,3.8l-2.3,2.3l1.7,2.3
		c3.1,4.3,3.7,5.3,4.2,7c0.4,1.4,0.8,1.8,2.9,2.7c1.7,0.7,2.6,1.4,3.1,2.4c0.4,0.7,1.4,2,2.2,2.8c1,0.9,2.2,2.9,3.3,5.5
		c1.9,4.4,3.5,6.8,6.7,9.6c1.9,1.7,2.7,3.5,1.7,3.5c-0.2,0-0.5,0.4-0.6,0.9s-0.1,0.8,0.1,0.7c0.2-0.1,0.6,0.1,0.9,0.5
		c0.4,0.5,0.6,0.5,0.9,0.1c0.8-1.2,2.5,1.7,4.2,7.3c0.4,1.4,1.4,3.3,2.2,4.2c1.2,1.4,1.7,1.6,4.2,1.9c4.4,0.4,8.9,0,9.6-0.9
		c0.4-0.4,1.6-1.2,2.6-1.8c1.1-0.5,3.2-1.9,4.7-2.9c1.5-1.1,4-2.5,5.6-3.2c2.3-1,3.1-1.6,4.1-3.3c0.7-1.1,2.3-3.3,3.6-4.8
		c2.5-2.9,5.9-9.1,6.7-12.3c0.7-2.6-0.1-7.4-1.4-9.3c-0.5-0.8-1.7-1.8-2.6-2.3c-0.9-0.5-2-1.6-2.5-2.6c-0.7-1.3-1.3-1.9-2.5-2.2
		c-1.3-0.3-1.8-0.2-3.3,0.8c-3.2,2.1-7.7,1.3-7.7-1.4c0-0.8-0.3-1.2-1.3-1.5c-0.7-0.2-2.1-1.5-3.2-2.7c-1.1-1.2-2.5-2.7-3.1-3.3
		c-1-0.9-1.2-1.7-1.7-5c-0.5-3.9-0.5-4,0.5-5.1c0.6-0.6,1.4-1.1,1.8-1.1c0.5,0,1.4-0.6,2.2-1.3c0.7-0.7,1.6-1.3,1.9-1.3
		c1.2,0,2.8,5.1,2.9,9c0,2.4,0.3,2.8,2.8,5c1.8,1.6,3.1,1.8,6.2,0.9c2.2-0.6,3.1-0.2,3.8,1.7c0.3,0.9,0.7,1,2.4,1
		c2,0,2.2-0.1,5.3-3.4c1.8-1.9,3.6-4,3.9-4.6c0.3-0.7,0.8-1.2,1.1-1.2c0.2,0,0.4-0.2,0.4-0.4c0-1.1-1.1-0.2-3.7,3.2
		c-2.8,3.6-5.3,5.9-5.8,5.4c-0.1-0.1-0.2-0.3-0.1-0.4c1.8-1.3,3.5-3,5.9-6.1l3-3.7l-1.2-2.2c-1.1-2-1.2-2.5-1-5.4
		c0.1-2.2,0-3.5-0.4-4.1c-0.3-0.4-1.5-2.7-2.7-5l-2.1-4.2l-0.4-6.8c-0.3-6.4-0.4-6.9-1.4-7.5c-0.9-0.6-2.1-1.8-5.2-5.1
		c-1.2-1.3-5.7-2.6-7.6-2.2c-1.5,0.3-1.5,0.3-1.7,2.7c-0.4,4.4-2.3,5.3-8.8,3.8c-5.1-1.2-6.7-1.9-8.1-3.8l-1.1-1.5l-1.9,1
		c-1,0.6-3.2,1.5-4.9,2c-2.5,0.9-3.5,1-6.1,0.8c-1.7-0.1-3.3-0.5-3.6-0.7c-0.3-0.3-1.2-0.3-2.3,0c-1.9,0.4-3.6,0.6-3.2,0.2
		c0.1-0.1,1.3-0.4,2.6-0.7c1.8-0.3,3.2-0.3,5.7,0.2c3.1,0.6,3.4,0.6,6-0.3c1.5-0.5,3.7-1.5,5-2.2c2.1-1.1,3.6-1.3,3.6-0.4
		c0,0.2,0.7,1.1,1.6,1.9c1.3,1.3,2.3,1.7,5.8,2.5c5,1.2,6.5,1.2,7.8-0.1c1.1-1,1.8-3.8,1.2-4.5c-0.3-0.3-0.5,0.3-0.7,1.6
		c-0.2,1.1-0.6,2.2-0.9,2.5c-0.8,0.7-3.5,0.7-5.5,0c-0.8-0.3-2.2-0.6-3.1-0.7c-2.1-0.3-4.4-1.9-5.4-3.8l-0.8-1.5l-3.2,1.6
		c-5,2.5-7.3,3.2-10,2.8c-1.3-0.2-2.9-0.5-3.4-0.8c-0.8-0.4-1.5-0.4-3.2,0.1c-1.2,0.3-3.7,0.7-5.5,0.8c-2.9,0.2-3.5,0.1-4.8-0.7
		c-0.8-0.5-1.7-1.5-2-2.2C495.3,197.1,493.8,196.5,491.7,196.4z"/>
</g>
<g id="SouthernEurope">
	<path id="path13549" fill="#CCCCCC" d="M458.5,231.2c-0.1-0.2,0.1-0.5,0.4-0.7c0.4-0.1,0.6-0.4,0.5-0.6c-0.1-0.2,0.3-0.8,0.9-1.3
		c1.4-1.2,1.4-1.6,0-2.8c-1.4-1.2-1.4-2,0.1-3.5l1.2-1.2l-1-0.8c-2.1-1.6-3.5-3.2-3.8-4.4c-0.1-0.7-0.3-1.4-0.4-1.6
		c-0.1-0.2,0.1-0.8,0.3-1.3c0.3-0.7,0.7-0.8,2.3-0.5c1.3,0.2-2-0.2-1.7-0.6c0.3-0.3,1.3-2.5,2-5.8c0.7-3.2,0.8-3.6,1.2-4.1
		c1.3-1.6,2.2-3.1,3.9-4.9c1.6-1.8-3.5-4.5-2.9-6.7c0.2-1,8.7-7.2,8.5-8.1c-0.4-2.2-1.4-7-1.4-12.4c0-2.6-0.5-3.5-5.7-9.9
		c-0.3-0.3-0.9-0.5-1.1-0.5c-0.9,0-5,4.6-6.3,7.3c-1.2,2.3-1.3,2.9-1,4.6c0.2,1.1,0.3,2.8,0.4,3.9l0,1.9h-5.3c-5,0-5.3-0.1-5.9-1
		c-1.1-1.8-1.3-5-0.5-7.2c1-2.6,0.7-2.8-3.9-2.8c-5,0-6.9,1.3-6.9,4.6c0,1.7-2.5,3.3-5,3.3c-1.2,0-2.5,0.3-3.1,0.7
		c-0.8,0.5-1.6,0.6-3.1,0.4c-1.1-0.1-2.8-0.4-3.9-0.5c-1.5-0.2-2.1-0.1-3.1,0.7c-1.1,0.9-1.2,1.2-1.2,4.4c0,3.1-0.1,3.6-1.1,4.8
		l-1.1,1.3l1.2,1.7c1,1.5,1.1,2,0.9,4.4c-0.2,2.4-0.1,2.8,0.8,3.7c0.6,0.5,1.3,0.9,1.5,0.7c0.7-0.5,3.5,0.6,4,1.6
		c0.3,0.5,0.4,1.8,0.4,3c-0.1,1.2,0,2.3,0.1,2.3c0.1,0.1,0.6,0.3,1.1,0.6c1.8,0.8,8.1,9.6,8.1,11.3c0,0.8-0.7,0.4-0.8-0.5
		c0-0.5-1.3-2.5-2.8-4.5c-3.7-4.8-4.4-5.6-5.6-6.1c-1-0.4-1-0.6-0.8-2.6c0.2-2,0.2-2.3-0.9-3.3c-1.1-1-3.1-1.5-2.6-0.6
		c0.1,0.2,0.5,0.4,0.9,0.4c1.2,0,1.7,1.3,1.6,4c-0.1,2.6-0.1,2.6,1.2,2.9c0.9,0.2,1.8,1,3,2.5c0.9,1.2,2,2.5,2.3,2.9
		c2.1,2.2,2.8,3.5,2.7,5.4c0,1.1-0.3,2.7-0.6,3.7l-0.5,1.8l-4.3,0.3c-2.5,0.1-4.5,0.5-4.9,0.8c-0.6,0.5-0.5,0.8,1,2.1
		c1.6,1.4,1.8,1.5,4.1,1.3c2.8-0.3,4,0,3.7,0.9c-0.1,0.3,0,0.7,0.2,0.9c0.3,0.2,0.5,0.1,0.5-0.1c0-0.2,0.4-0.5,0.9-0.6
		c0.5-0.1,0.9-0.4,0.8-0.6c-0.2-1,0.2-1.4,1.3-1.7c0.8-0.2,2.3-1.3,3.9-3.2l2.6-2.9l-0.6-1.5c-0.4-0.9-0.6-2.3-0.5-3.2
		c0.1-1.4,0.3-1.6,1.3-1.7c0.7-0.1,1.6,0.3,2.5,1c1.7,1.4,2.3,1.4,2.3,0.1c0-1.9-2.7-6.5-5.3-9.1c-2.7-2.7-3.2-3.9-1.9-5.4
		c1.2-1.3,3.4-1,6.2,0.9c3.3,2.3,3.9,3,4.2,5.3c0.6,4.1,1.3,6.5,2.4,8.2c3.2,4.7,3.5,5.7,3.5,9.2c0,2.9,0.1,3.4,1.1,4.3
		c0.6,0.6,1.1,1.4,1.1,1.8c0,0.6,0.5,0.9,2.2,1.1c2.7,0.4,3.3,1,1,1.1l-1.7,0.1l1.9,0.3c1,0.2,2.1,0.5,2.4,0.8
		C458.5,231.7,458.8,231.8,458.5,231.2z"/>
</g>
<g id="Ukraine">
	<path id="path13349" fill="#CCCCCC" d="M522.5,198.3c4.7-2.2,5-2.7,5.1-6.9c0-4.5,0-4.4,1.3-5c1.5-0.7,1.4-1.3-0.7-3.3
		c-2-1.9-7.4-11-7.8-13.2c-0.4-2.1,0-2.9,2.8-5.6l2.5-2.4l-1.6-2.3c-4.1-6.2-5.7-9.6-6-12.5c-0.3-4.1,0.1-6.4,1.7-8.1
		c0.7-0.8,1.3-2,1.3-2.6c0-2,0.9-4.4,1.8-4.9c0.5-0.3,1.6-0.4,2.4-0.3c1,0.2,1.6,0,2-0.4c1.2-1.5,4-2.5,6.4-2.3
		c2,0.2,2.3,0.1,2.3-0.6c0-2.1,6.4-3.4,9.2-2c1.6,0.8,1.6,0.8,4.6-1.4c1.2-0.9,2.9-1.9,4-2.3l1.9-0.7l0-2.5c0-1.9-0.2-2.7-0.9-3.5
		c-1.1-1.2-1.7-4-1.1-5.2c0.3-0.5,1.1-1,1.8-1.1c0.8-0.2,1.3-0.6,1.3-1c0-1.2-0.6-1.8-2.6-2.5c-2.6-0.9-4-2.4-4.3-4.6
		c-0.2-1.4,0-1.9,0.7-2.7c0.5-0.5,1.3-1.7,1.6-2.5c0.6-1.4,0.6-1.6,0-2.3c-1.1-1.2-1.8-6-1.1-7.4c1-2.2,1-6.7,0.1-11
		c-0.5-2.2-0.9-5.6-0.9-7.4c0-3.1,0.1-3.4,1.4-4.7c3.1-3.2,3.6-4.5,3.8-8.9c0.1-3.3,0-4.2-0.5-4.8c-0.4-0.4-0.7-0.9-0.7-1.1
		c0-0.6-4.7-4.1-6.5-4.8c-2.6-1.1-5.2-0.8-7.8,1c-2.9,1.9-5.2,2.3-9,1.3l-2.8-0.7l-1.3,1.1c-0.7,0.6-1.5,1.1-1.6,1.1
		c-0.2,0-1.2,0.9-2.4,2c-2.4,2.3-7.1,5.3-8.8,5.7c-1.9,0.5-2.9-0.4-3.1-2.5c-0.1-1.6-0.3-1.9-1.8-2.7c-0.9-0.5-2.3-0.9-3.1-0.9
		l-1.4-0.1l0.1,3.1c0.1,2.3,0.4,3.6,1.2,5c1.3,2.3,1.2,3.6-0.4,4.4c-0.7,0.3-1.7,0.8-2.4,1.1c-0.7,0.3-1.6,1.4-2.2,2.6
		c-0.6,1.1-1.5,2.3-2.1,2.6c-0.9,0.5-1.3,0.4-3.3-0.6c-2.9-1.5-4.2-1.6-3.7-0.2c0.2,0.5,0.3,1.6,0.4,2.3c0.1,1.3,0,1.3-1.8,1.5
		c-2.4,0.2-3.5-0.5-3.9-2.2c-0.2-0.9-1.5-2.6-3.6-4.7c-1.8-1.8-3.2-3.6-3.1-4c0.1-0.6,1-0.6,5.7-0.5c5,0.1,5.7,0.1,6.8-0.7
		c0.7-0.5,2.2-1,3.4-1.1c2.6-0.3,3.3-1.1,3.3-3.5c0-1.9-1.4-5-2.5-5.5c-1.6-0.8-9.1-2-15.5-2.5c-1.8-0.1-4.3-0.4-5.5-0.5
		c-1.5-0.2-2.1-0.1-1.8,0.2c0.2,0.3,3.4,0.8,7.1,1.1c3.6,0.4,7.8,0.9,9.3,1.1c1.5,0.3,3.4,0.6,4.3,0.7c1.9,0.3,2.7,1,3.6,3.4
		c1,2.3,0.2,2-0.9-0.4c-0.5-1.1-1.2-2.1-1.5-2.2c-1.4-0.4-12.3-2-15.7-2.2c-1.9-0.1-4.3-0.4-5.1-0.5c-1.6-0.2-1.6-0.2-2.5,2.2
		c-0.8,2.1-0.9,3.4-0.9,9.5c0,9.2,1.1,21,2.3,24.3c1.5,4.4,1.1,6.1-2.4,8.2c-0.8,0.5-1.2,1.1-1.2,1.7c0,1.6-1.2,3.9-2.3,4.7
		c-0.6,0.4-2.4,0.8-4,1c-1.6,0.2-2.9,0.4-2.9,0.6c0,0.6,2,2.5,2.9,2.8c1.9,0.6,2.4,5.1,0.8,7.6c-1,1.5-3.5,1.4-5.6-0.4
		c-1.1-0.9-1.7-1.2-1.8-0.8c-0.1,0.3-0.4,1.4-0.7,2.4c-0.6,1.9-0.3,5.2,0.4,6.1c0.2,0.3,0.5,1.2,0.5,2c0.1,1.3,0.5,1.8,3,3.4
		c4.3,2.9,4.3,2.8,4.6,6.6c0.4,4.2,1.6,7.6,3.3,9.6c1.6,1.8,1.7,2.5,0.4,5.3c-0.5,1.2-1.6,3.9-2.3,6.1c-1.6,4.5-2.6,5.5-5.7,5.9
		c-1.6,0.2-2,0.4-2.2,1.2c-0.2,0.9,0,1,1.6,1.2c2,0.3,3.3,1.5,6.8,6.6c2,3,2.1,3.1,2.1,6.9c0.1,6.1,1.4,11.5,2.7,11.6
		c0.3,0,1.2-1.3,1.9-2.9c1.6-3.3,3.2-4.4,4.9-3.8c0.6,0.2,2.6,1.9,4.5,3.7c1.9,1.8,3.7,3.3,4,3.3c0.3,0,0.9-0.4,1.4-0.9
		c0.8-0.9,0.8-0.9-0.1-1.7c-1.8-1.5-2.5-4.7-1.2-5.9c0.4-0.4,1.4-0.7,2.4-0.7c1,0,3-0.5,4.5-1.1c1.5-0.6,3.2-1.1,3.9-1.1
		c1.2,0,3.1,1.1,3.1,1.8c0,0.2-0.4,0.1-1-0.2c-1.3-0.9-3.6-0.9-5.8,0.2c-1,0.5-2.5,1-3.4,1.1c-2.9,0.4-3.5,0.6-3.7,1.4
		c-0.3,0.8,0.9,3.6,1.4,3.6c0.2,0,0.5,0.4,0.8,0.8c0.4,0.7,0.4,1-0.4,2c-1.4,1.8-3,1.5-5.3-1c-4.1-4.3-5.1-5.1-6.3-4.8
		c-0.6,0.1-1.5,0.9-2.1,1.7c-1.4,1.9-2.6,4.7-2.1,4.7c0.2,0,0.7-0.5,1-1.2c1.3-2.9,2.5-4.5,3.7-4.5c0.7,0,1.1,0.3,1.1,0.7
		c0,0.4,0.4,0.8,1,1.1s2,1.5,3.2,2.9c1.8,2,2.4,2.5,3.5,2.5c1.5,0,3-1,3.8-2.6c0.5-0.9,0.4-1.2-1.1-2.7c-2.3-2.3-2-3.1,1.5-3.8
		c1.5-0.3,3.3-0.9,3.9-1.3c1.1-0.7,4.1-1,5-0.4c0.7,0.5,0.5,1.8-0.5,2.8c-1.3,1.4-0.7,1.7,0.7,0.3c0.7-0.7,1.1-1.5,0.9-1.8
		c-0.1-0.4-0.1-0.6,0.2-0.6c1.1,0,0.2,2.5-1.5,4.3c-2.1,2.2-2.2,2.3-0.9,2.9c0.6,0.3,1.6,1.4,2.2,2.4c0.6,1.1,1.3,1.9,1.5,1.9
		c0.6,0,10.9,10.2,11.7,11.6c0.6,1,1.1,1.2,2.3,1.2c2.2,0,9.3-3.4,9.7-4.5c0.2-0.5,0.3-2.2,0.2-3.7c0-2.2,0.1-3.1,0.9-4.1
		c0.5-0.7,1.1-1.3,1.4-1.3c0.3,0,0,0.5-0.6,1.1c-1,1-1.1,1.5-1,4.5c0.1,1.8-0.1,3.7-0.4,4.2c-0.6,1.1-7.3,4.4-9,4.4
		c-3.4,0-3.6-0.1-4.1-1.3c-0.5-1.2-5.8-6.6-10.1-10.3c-1.3-1.1-2.7-2.7-3.2-3.6c-0.5-1-1.3-1.8-2-1.9c-1.4-0.3-1.4-1.3-0.1-2.7
		c0.7-0.7,0.8-1,0.3-1c-0.3,0-1.2,0.7-1.9,1.6c-1.2,1.5-1.2,1.7-0.5,2.2c0.4,0.3,1.1,0.6,1.6,0.6c0.5,0,1.1,0.6,1.6,1.4
		c0.8,1.6,1.5,2.2,5.2,5.4c3.9,3.3,8.1,7.8,8.4,8.9c0.3,1.2,1.1,1.4,4.1,1.3C518.5,199.9,520.2,199.4,522.5,198.3z"/>
</g>
<g id="WesternEurope">
	<g id="path9072">
		<path fill="#999999" d="M403.8,160.1l-6.2,2.6l-1.3,3.4l-1,0.4l-7,0.4l-3.6,4.4l-2.9,1.5l-7.5,0.6l-0.5,0.6l-0.3,1.2l3.1,4.1
			l3.6,4.4l1.4,3.3l-0.1,7.3l-1,1.9l-3.1,1.7l-9.3,1l-1.5-1.9l-3.3-0.4l-4.6,2.4l0.5,4.6l2.1,2.6l2.2,3.4l0.6,3.8l-2,5l-2.5,6.6
			c0,0-0.8,2.2,0.3,1.9c1.1-0.4,4.4,4.8,4.4,4.8l4.5,0.9l6.1,0.7l5.6,1.3c0,0,0.7,0.9,2.3,1.8s2.4,1.2,2.4,1.2l4.8,0.4l0.8-0.4
			l0.2-1.3l0.7-1l3-2.1l2.5-0.7l0.7-0.9v-1.3l1.4-1.9l1.9-1.9l1.5-2.2l1.3-3.4l0.9-2.2l-2.3-6.7l-0.1-1l0.5-0.8l0.8-0.7l0.9-1l0-1.1
			l-1.4-2.7c0,0-1.4-3.6-0.2-5.2c1.1-1.7,1.8-2.3,1.8-2.3l-0.1-0.3c0,0,1.6-0.3,2.3-0.1c0.7,0.2,1.8,2,1.8,2l0.9,0.7
			c0,0,0.4,0.7,1.1,0.3c0.6-0.4,2.1-2.1,2.1-2.1l0.4-1.7c-0.2-0.2-0.8-1.1-1.2-1.2c0-0.8,0.1-3.6,0.1-3.6c0.2,0.2-0.2-2.9-0.5-3.3
			c-0.5-1.3-1.4-1.7-1.4-2.1c-0.2-0.9,0.5-1.4,0.5-1.4l1-1.1c0,0,0.7-1.7,0.6-2.2c-0.1-0.5-0.1-1.7-0.1-1.7l0.2-1.2l0.1-1.7
			c0.2-0.3,0.4-1.5,0.8-1.6l0.9-0.9l-2-0.6l-0.3-0.2l-0.5-1.2l-0.7-1.7l-0.7-2l-0.7-1.4c0,0-1.9-2.7-2.5-3.2
			c-0.5-0.5-2.3-3.1-2.3-3.1L403.8,160.1z"/>
		<path fill-opacity="0" stroke="#000000" d="M403.8,160.1l-6.2,2.6l-1.3,3.4l-1,0.4l-7,0.4l-3.6,4.4l-2.9,1.5l-7.5,0.6l-0.5,0.6
			l-0.3,1.2l3.1,4.1l3.6,4.4l1.4,3.3l-0.1,7.3l-1,1.9l-3.1,1.7l-9.3,1l-1.5-1.9l-3.3-0.4l-4.6,2.4l0.5,4.6l2.1,2.6l2.2,3.4l0.6,3.8
			l-2,5l-2.5,6.6c0,0-0.8,2.2,0.3,1.9c1.1-0.4,4.4,4.8,4.4,4.8l4.5,0.9l6.1,0.7l5.6,1.3c0,0,0.7,0.9,2.3,1.8s2.4,1.2,2.4,1.2
			l4.8,0.4l0.8-0.4l0.2-1.3l0.7-1l3-2.1l2.5-0.7l0.7-0.9v-1.3l1.4-1.9l1.9-1.9l1.5-2.2l1.3-3.4l0.9-2.2l-2.3-6.7l-0.1-1l0.5-0.8
			l0.8-0.7l0.9-1l0-1.1l-1.4-2.7c0,0-1.4-3.6-0.2-5.2c1.1-1.7,1.8-2.3,1.8-2.3l-0.1-0.3c0,0,1.6-0.3,2.3-0.1c0.7,0.2,1.8,2,1.8,2
			l0.9,0.7c0,0,0.4,0.7,1.1,0.3c0.6-0.4,2.1-2.1,2.1-2.1l0.4-1.7c-0.2-0.2-0.8-1.1-1.2-1.2c0-0.8,0.1-3.6,0.1-3.6
			c0.2,0.2-0.2-2.9-0.5-3.3c-0.5-1.3-1.4-1.7-1.4-2.1c-0.2-0.9,0.5-1.4,0.5-1.4l1-1.1c0,0,0.7-1.7,0.6-2.2c-0.1-0.5-0.1-1.7-0.1-1.7
			l0.2-1.2l0.1-1.7c0.2-0.3,0.4-1.5,0.8-1.6l0.9-0.9l-2-0.6l-0.3-0.2l-0.5-1.2l-0.7-1.7l-0.7-2l-0.7-1.4c0,0-1.9-2.7-2.5-3.2
			c-0.5-0.5-2.3-3.1-2.3-3.1L403.8,160.1z"/>
	</g>
</g>
<g id="Iceland">
	<g id="path9094">
		<path fill="#CCCCCC" d="M362.3,122.7l4.7-5.1l0.9-0.1l1.1,1.1l1.1,2l2.5,1.1l2-0.4l1.2-1.1l0.7-0.6l1.3,0l2.2-0.1l4.7-1.3l4.3-2.8
			h1.5l2.2,1.3l2.4,2.4l2.3,2l2,1.6l0.7,2.1l0.5,1.3l-1.6,3.9l-1.7,2.4l-0.2,1.2l-2,0.7l-2.7,0.9l-1.8,0.8l-9.1,5.3l-1,0.7l-1.2-0.2
			l-1.8-0.5l-2.2-0.5l-2.8-1l-1.1-0.2l-4.2-0.8l-1.2-0.6l0.5-1l0.5-2.9l-0.3-2.1l-0.5-0.5l-1.6-1.5l-1.7-0.5l0.2-1l1-1.1l0.2-1.4
			L364,125l-1.1-0.8l-0.8-0.3l-0.3-0.6l1.4-1.1l0.8-0.7L362.3,122.7z"/>
		<path fill-opacity="0" stroke="#000000" stroke-width="2.000000e-03" d="M362.3,122.7l4.7-5.1l0.9-0.1l1.1,1.1l1.1,2l2.5,1.1
			l2-0.4l1.2-1.1l0.7-0.6l1.3,0l2.2-0.1l4.7-1.3l4.3-2.8h1.5l2.2,1.3l2.4,2.4l2.3,2l2,1.6l0.7,2.1l0.5,1.3l-1.6,3.9l-1.7,2.4
			l-0.2,1.2l-2,0.7l-2.7,0.9l-1.8,0.8l-9.1,5.3l-1,0.7l-1.2-0.2l-1.8-0.5l-2.2-0.5l-2.8-1l-1.1-0.2l-4.2-0.8l-1.2-0.6l0.5-1l0.5-2.9
			l-0.3-2.1l-0.5-0.5l-1.6-1.5l-1.7-0.5l0.2-1l1-1.1l0.2-1.4L364,125l-1.1-0.8l-0.8-0.3l-0.3-0.6l1.4-1.1l0.8-0.7L362.3,122.7z"/>
	</g>
</g>
<g id="GreatBritain">
	<path id="path13133" fill="#B3B3B3" d="M340.2,175.7c0.9-0.6,1.5-0.9,1.9-0.7c1.3,0.6,2.5,0,3.3-1.6c0.4-0.7,0.7-0.8,2.5-0.7
		c1.6,0.1,2.1,0.2,2.1,0.6c0,0.4,0.4,0.5,1.1,0.5c0.8,0,1.1-0.1,1-0.6c-0.1-0.5,0.1-0.6,0.9-0.6c0.6,0,3.1-0.5,5.6-1
		c4.4-1,4.6-1,5.2-2.2c0.7-1.2,0.7-1.2-0.1-2c-1-1-0.9-1.9,0.2-3.5c0.5-0.7,1.2-1.9,1.5-2.6c0.5-1.1,0.5-1.3-0.5-2.3
		c-0.6-0.6-1.6-1.2-2.5-1.5c-2.6-0.7-5-2.9-5.6-5.3c-0.2-0.8-0.6-1.6-0.9-1.7c-0.3-0.1-0.4-0.6-0.3-1.5c0.1-0.8,0.2-1.1,0.4-0.7
		c0.2,0.5,0.3,0.5,0.7,0.1c0.3-0.3,0.3-0.5,0.1-0.5c-0.2,0-0.4-0.3-0.4-0.6c0-0.4-0.1-0.5-0.5-0.2c-0.7,0.5-1.4,0-1.2-0.9
		c0.2-0.5,0.1-0.6-0.1-0.2c-0.2,0.3-0.6,0.4-1,0.3c-0.7-0.2-0.7-0.2,0,0.3c0.5,0.4,0.5,0.6,0.2,0.8c-0.3,0.2-1-0.3-1.8-1
		c-0.7-0.7-1.9-1.8-2.7-2.4c-1.9-1.5-1.8-2.4,0.5-4.8c1.9-2.1,2.3-2.8,2.9-5.2c0.2-1,0.2-1.4-0.1-1.4c-0.2,0-1.2-0.4-2.3-0.8
		c-1.8-0.8-1.9-0.9-2.7-3.4c-0.5-1.4-1-2.6-1.1-2.7c-0.2-0.1-1.5,0.1-3.1,0.5c-3.6,0.9-4.3,1.6-5.6,6.1c-0.5,1.9-1.2,3.8-1.4,4.4
		c-0.3,0.8-0.2,1.3,0.3,2.4c0.6,1.3,0.6,2.7,0,4c-0.2,0.5,0,0.7,1.2,1.2c2.1,0.8,3,3,1.7,4.1c-0.5,0.4-1.2,0.3-4-0.5
		c-1.9-0.5-3.6-1-3.8-1c-0.2,0-0.8,0.5-1.3,1.2c-1,1.3-4.2,4.2-6.2,5.4c-2.1,1.3-2.4,2.4-1.6,6.5c0.7,4.1,0.6,4.3-2.5,5.3
		c-2.1,0.6-2.9,1.6-3.4,3.8c-0.2,1.1,0.3,3.3,0.9,3.3c0.1,0,0.9,0.6,1.7,1.3c0.9,0.8,1.9,1.3,2.6,1.3c2.7,0.1,6,0,7.8-0.2l2-0.3
		l1.1-2.3c0.6-1.3,1.5-4.2,2-6.6c1-4.8,1.2-5.3,2.5-6c1.5-0.8,2.8-0.1,3.8,1.8c1.2,2.4,1,3.9-0.7,3.9c-0.7,0-1.8,1.3-1.8,2.2
		c0,0.5,0.3,0.6,1.8,0.6c3.7,0,3.6,2.6-0.2,4.4c-1.2,0.6-4.2,3.8-4.2,4.4C336.3,177.5,338.8,176.7,340.2,175.7z"/>
</g>
<g id="Scandinavia">
	<path fill="#B3B3B3" d="M416.9,98.9l-3.5-13.4c0,0-0.5-2,3-5.8c3.5-3.8,14.4-10.1,14.4-10.1l3.8-8.3l2.8-4.3c0,0,4-1.5,3.8-2.8
		c-0.3-1.3-1.8-2.5-1.8-2.5l1.5-2l6.6,2.8c0,0,3-2,4.3-3.3c1.3-1.3,1.5-5.3,1.5-5.3l4.5-1.8l6.6,1.3l3.3-1.8l5.7,3.3
		c-0.6,2.2-1.3,5.5-2,7.4c0.1,9.5,0.3,11.2,1.1,26.4c1.2,2,2.2,10.2,1.3,9.9c-0.5-0.2-2.1,2.9-3.4,2.5l-12.3,0.9l-1.9-2.1l0.5-5.9
		l0.5-8.4l-2.5-0.9l-5,11l1.4,9.4l-7.3,7.5l0.7,7.5c0.2,3-2.6,4.2-5.7,5.2c-1.8,0-9.9-13.4-10.9-13.2c-2.1,0.4-4.3,3.2-4.3,3.2
		l-6.6-1.8L416.9,98.9z"/>
	<path fill-opacity="0" stroke="#000000" stroke-width="2.000000e-02" d="M416.9,98.9l-3.5-13.4c0,0-0.5-2,3-5.8
		c3.5-3.8,14.4-10.1,14.4-10.1l3.8-8.3l2.8-4.3c0,0,4-1.5,3.8-2.8c-0.3-1.3-1.8-2.5-1.8-2.5l1.5-2l6.6,2.8c0,0,3-2,4.3-3.3
		c1.3-1.3,1.5-5.3,1.5-5.3l4.5-1.8l6.6,1.3l3.3-1.8l5.7,3.3c-0.6,2.2-1.3,5.5-2,7.4c0.1,9.5,0.3,11.2,1.1,26.4
		c1.2,2,2.2,10.2,1.3,9.9c-0.5-0.2-2.1,2.9-3.4,2.5l-12.3,0.9l-1.9-2.1l0.5-5.9l0.5-8.4l-2.5-0.9l-5,11l1.4,9.4l-7.3,7.5l0.7,7.5
		c0.2,3-2.6,4.2-5.7,5.2c-1.8,0-9.9-13.4-10.9-13.2c-2.1,0.4-4.3,3.2-4.3,3.2l-6.6-1.8L416.9,98.9z"/>
</g>
<path id="Siberia" fill="#999999" d="M625.3,149.7c0-0.5,0.3-1.9,0.7-3.1c0.7-2.1,0.7-2.1-0.7-5.1c-1.5-3.3-1.4-6.9-0.4-9.3
	c5.4-2.8-0.1-1.6-3.3-3.6c-3-1.9-4.3-3.1-4.3-3.9c0-0.4,0.8-2.3,1.8-4.4l1.8-3.7l-1.1-3.5c-0.6-1.9-1.1-3.9-1.1-4.5
	c0-1.2,1.5-2.1,3.5-2.1c1.1,0,1.3-0.2,1.6-1.2c0.6-2.6,1.3-3.8,3.5-5.4c1.2-0.9,2.5-2.1,2.8-2.6c1.2-2,4.8-0.4,6.3,2.8
	c1.3,2.8,2,3.3,3.2,2.1c0.8-0.8,0.9-1.4,0.8-3.6c-0.1-1.5,0.1-2.7,0.3-2.9c0.7-0.4,0.6-2.5-0.3-3.4c-0.8-0.9-1.3-5-0.7-5.8
	c0.2-0.3,0.6-1.2,0.7-2c0.2-0.8,0.8-2.6,1.4-4.1l1.2-2.6l-1.2-2.1c-1.1-1.8-1.2-2.3-0.8-3.8c0.4-1.5,0.3-1.7-0.4-1.9
	c-1.1-0.3-1.7-1.9-1.7-4.4c0-1.2-0.4-2.8-1.1-4.1c-1.3-2.5-1.4-4.2-0.4-5.3c0.7-0.7,0.6-0.9-0.3-2.1c-0.6-0.7-1.5-1.3-2-1.3
	c-0.5,0-1.8-0.3-2.7-0.7c-2.8-1.1-2.9-3.4-0.3-5c0.8-0.5,2.3-1.8,3.4-2.9c2.1-2.2,2.8-2.4,4.3-1.3c0.7,0.5,1.5,0.6,2.7,0.4
	c3-0.5,3.2-0.8,3.3-5.6c0.1-2.3-0.1-4.4,0.1-4.6c-0.3-0.2,0.1-0.9,0-1.4c-0.5-0.8-0.3-1.1,1-2.5c1.3-1.4,1.4-1.7,1-2.7
	c-0.3-0.6-1.1-1.4-1.7-1.6c-2-0.9-2.8-1.7-2.8-3.2c0-1.1-0.3-1.5-1.3-1.9c-0.7-0.3-1.4-1-1.6-1.5c-0.3-0.8-0.5-0.9-2.6-0.6
	c-1.3,0.2-2.7,0.7-3.3,1.1c-1.4,1.1-3,1-4.8-0.3l-1.5-1.1l-1.5,1.4c-0.8,0.7-1.7,1.4-1.9,1.4c-0.2,0-0.8,0.5-1.4,1
	c-2.3,2.1-4.6,3.4-6.2,3.4c-2,0-2.6-0.6-2.6-2.6c0-2.5,2.7-6,6.4-8.3c1.7-1,3.3-1.9,3.6-1.9c1.2,0,0.5,0.7-1.7,1.7
	c-4.4,2-8.3,7.1-7.4,9.6c0.4,1,0.6,1.1,2,0.9c1.3-0.2,5.4-3,5.9-3.9c0.1-0.2,0.4-0.3,0.8-0.3s1.3-0.6,2.1-1.3
	c1.8-1.6,2.2-1.6,3.7-0.4c1.4,1.1,3.1,1.1,4.5,0.2c0.6-0.4,2.1-0.8,3.4-0.9c2.2-0.2,2.5-0.1,3.5,0.9c0.6,0.6,1.4,1.1,1.9,1.1
	c0.6,0,0.5-0.2-0.4-0.7c-0.7-0.4-1.3-1.1-1.4-1.6c-0.2-0.8-0.6-0.8-3.3-0.7c-2.1,0.1-3.3,0.4-3.9,0.9c-1.3,1.1-2.9,0.9-4.4-0.6
	l-1.4-1.4l-1.9,1.8c-1,1-2,1.8-2.2,1.8c-0.2,0-1.6,1-3.2,2.2c-3.2,2.5-5,2.9-5,1.2c0-2.5,4.2-6.8,8.6-8.7c1.2-0.6,1.3-0.8,1.7-3.7
	c0.2-1.7,0.2-3.3,0.1-3.6c-0.1-0.4-1.5-0.6-4.1-0.7l-3.9-0.1l-0.7-1.8c-0.4-1-1-2.2-1.5-2.7L615.5,0l-2,1.4
	c-1.1,0.8-2.2,1.8-2.5,2.2c-0.6,1-2.6,1-3.4,0.1c-0.5-0.6-1.2-0.7-3.6-0.5c-2.7,0.2-3.2,0.4-4.5,1.7c-1.4,1.3-1.7,1.4-3.6,1.2
	c-3.3-0.4-5.2,0.4-7.6,3.1c-1.1,1.3-2.7,2.6-3.5,2.8c-1.2,0.4-1.4,0.7-1.7,2.7c-0.2,1.3-0.6,2.3-0.9,2.4c-0.3,0.1-1.5,0-2.6-0.3
	c-2.5-0.6-3.5-0.3-3.9,1.1c-0.4,1.5,0.3,3,2.4,5.5c1.8,2.2,2.1,2.9,1.3,3.4c-0.8,0.5-4.3-0.7-4.6-1.5c-0.1-0.4-0.9-1.4-1.6-2.2
	c-1.3-1.4-1.4-1.4-2-0.7c-1.2,1.7-0.3,4.8,2,7.3c1.9,2,2.9,4.7,2.3,6.3c-0.6,1.7-1.6,1.9-3.1,0.6c-0.7-0.6-2-1.3-2.8-1.6
	c-1.2-0.4-1.6-0.9-2.1-2.3c-0.6-1.8-1.8-3-2.4-2.4c-0.2,0.2-0.4,1.1-0.5,2.2c-0.2,1.4,0.2,2.9,1.4,6.3c0.9,2.4,1.8,4.5,2.1,4.7
	c0.3,0.2,1.6,0.3,2.9,0.3c1.9,0,2.5,0.2,3.3,1.1c1.2,1.3,3.1,6.9,2.9,8.9c-0.2,2,0.4,2.4,0.9,0.6c0.4-1.5,0.4-1.5,0.5-0.2
	c0,0.7-0.6,1.9-0.8,2.4c-0.6,1.1,0.7,4.1,1.5,4.1c1,0,1.1,0.9,0.8,2c-0.2,0.9,0,1.7,1.2,2.3l1.6,0.2l0.2,3.2l0.3,3.5l2.8,3.9
	c1.5,2.2,3.7,5,4.9,6.2c2.7,3,3.2,5.3,1.7,8.1l-1,1.9l1.9,1.9l1.6,1.9l0.2,3.9c0.2,3.7-0.3,2.9-1.4,4c-0.9,0.9-0.8,1.7-0.8,3.5
	c0,2-1.2,1-2.4,3.2c-0.6,1-0.2,1.8,0,2.2c0.1,0.4,0.2,0.8,0.2,1c0,0.2,0.7,1.5,1.3,1.2c0,0,1.7,0,2.2-0.3c1.4-0.9,3.2,2.1,3.2,4.3
	c0,1.6,0.1,1.8,1.3,2c1.3,0.3,2,1,4.1,4c0.5,0.8,1.8,2.4,2.8,3.7l1.9,2.3v3.9v3.9l2.1,1.3c2.5,1.6,2.7,1.6,4.2,0.4
	c0.8-0.6,1.5-0.8,2.1-0.6c1.3,0.4,3.4,3.9,4.4,7.3c0.8,2.7,1.1,3,2.5,3.6C624.9,151.2,625.3,151.1,625.3,149.7z"/>
<g id="India">
	<path id="path13895" fill="#CCCCCC" d="M593.6,190.2c-0.4,0-0.9,0.5-1.3,1.3c-1.6,3.1-7.8,7.7-9.1,6.8c-2.1-1.6-5.1-3.4-6-3.6
		c-0.8-0.2-1.2,0-1.8,0.8c-1.7,2.6-2.9,3.6-5.3,4.1c-2.4,0.5-2.5,0.6-4,3.4c-1.2,2.3-1.8,2.9-3,3.3l-1.5,0.4l0.3,6.2
		c0.4,6.9,0.7,8.2,3.5,13.1c1.9,3.3,2,3.6,2,7c0,3.1,0.2,3.9,1.1,5.5c0.6,1.1,1.3,1.8,1.6,1.7c0.8-0.5,3.6,0.8,5.3,2.4
		c0.9,0.9,2.2,2.6,2.8,3.8c1.6,3,1.9,3.4,3.3,3.4c2.1,0,2.9,1,2.9,3.5c0,1.2,0.3,2.5,0.6,3c0.6,0.7,0.7,0.6,2-0.9
		c1-1.2,1.8-1.7,3.2-1.9c1.6-0.2,1.9-0.1,2.6,0.9c0.6,0.9,0.7,1.6,0.5,3c-0.4,2.4-1.9,6.2-2,4.9c0-0.5,0.3-1.7,0.6-2.5
		c0.7-1.7,0.9-4.1,0.3-5c-0.9-1.3-3.5-0.7-4.7,1.2c-1.6,2.5-3.5,1.3-3.5-2.2c0-2.5-0.3-2.9-2.4-3.3c-1.9-0.3-2.4-0.7-3.5-3
		c-1.6-3.2-5.2-6.5-7-6.5c-1.4,0-1.1,0.7,0.4,1c1.7,0.3,5.7,4.4,6,6.1c0.3,1.5,2.1,3,3.7,3c1.8,0,2.4,1,1.9,3
		c-0.4,1.6-0.3,1.7,1.4,3.3l1.8,1.7l0.7-1c1.2-1.9,3.1-3.5,3.9-3.4c1,0.2,1.2,2.6,0.3,4.8c-0.5,1.2-0.7,2.9-0.6,5.6
		c0,2.1-0.1,5-0.3,6.5c-0.3,2.6-0.3,2.7,1,3.9c1.1,1.1,1.4,1.6,1.4,3.5c0.1,3.8,0.4,4.5,2.7,6c2,1.2,2.1,1.4,2.1,3.2
		c0,1,0.6,3.7,1.3,5.8c0.7,2.2,1.3,4.1,1.3,4.3c0,0.2,0.9,1.6,1.9,3.2c1.1,1.6,2.3,3.9,2.7,5.3c1,3.3,2.1,3.4,4.4,0.1
		c1.1-1.6,1.6-2.8,1.6-3.9c0-0.8,0.7-3.4,1.6-5.6c1.5-3.7,1.6-4.4,1.3-6.9c-0.3-2.4-0.1-3.3,1.1-6.8c0.8-2.2,1.7-5.9,2.1-8.3
		c1-6.3,1-6.3,2.2-7.3c1.8-1.5,2.8-4.4,2.8-7.8c0-2.6,0.1-3.1,1.2-4.1c1-1,1.5-1.2,3.8-1.2h2.6l-0.3-1.9c-0.7-4.8-0.7-5.6-0.3-6.5
		c0.4-0.7,0.8-0.9,1.6-0.8c1.2,0.2,1.4-0.3,0.3-0.7c-2.6-1-4.2,2.9-2.6,6.5c0.8,1.8,0.3,2.5-1.8,2.5c-2.7,0-4.7,1.6-5.4,4.3
		c-0.4,1.6-0.7,1-0.5-1c0.1-1.2,2.9-3.7,4.1-3.8c0.5,0,1.5-0.1,2.1-0.1c0.7,0,1-0.3,0.9-0.7c-0.5-1.6-0.4-6,0.1-7
		c0.5-0.9,0.9-1.1,2.5-1.1c1.9,0,2-0.1,4.4-3.4c1.3-1.9,3.3-5.1,4.4-7.1c1.8-3.6,1.9-3.8,1.4-5.5c-1.2-4.1-4.4-5.7-8.4-4.2
		c-3.1,1.1-4.8,0.9-6.3-0.7c-0.7-0.8-1.3-1.5-1.3-1.7c0-0.2-1.2-0.5-2.6-0.8c-1.4-0.3-3.3-1-4.2-1.6c-1.2-0.8-2.2-1.1-4-1.1
		c-2.1,0-2.7-0.2-5.8-2.4c-1.9-1.3-4.1-2.6-5-2.9c-3.9-1.3-4.4-2.7-2.2-6.4c1.5-2.4,1.9-4.8,1.5-9l-0.3-2.7l-2.7-0.2
		c-3-0.3-3.5-0.6-4.1-2.9C594.7,190.8,594.1,190.2,593.6,190.2z"/>
</g>
<g id="Ural">
	<path id="path13061" fill="#999999" d="M600.4,148.8c0.3-1.2,0-2,0.3-2.4c0.3-0.4,1.3-1.7,1.3-2.2c0,0,0.4-1.6,2-2
		c1.1-0.3,1.8-1.3,1.6-2.2c0-1.8-0.7-1.9,1-2.9c1.5-0.9,0.6-1.7,0.6-4.2c0-2.5-0.1-2.7-2.3-5.2c-1.3-1.4-2.6-3.2-2.9-4
		c-0.4-1.1-1-1.5-2.5-1.9c-1.1-0.3-2-0.7-2-0.9c0-0.2-0.1-0.6-0.2-0.8c-0.1-0.2-0.1-1.2-0.2-2.1c0-0.9-0.4-2.1-0.9-2.7
		c-0.7-0.9-1-1-2.2-0.6c-1.9,0.7-2.5,0.3-3.4-1.9c-0.7-1.8-0.7-2,0-3c0.4-0.6,1.1-1.2,1.5-1.3c0.6-0.2,0.9-0.8,1.1-2.5
		c0.1-1.5,0.5-2.6,1.2-3.3c0.9-0.9,1-1.4,0.8-4.2c-0.2-3.1-0.2-3.2-2-4.8c-2.1-1.8-2.2-2.4-0.9-5c1.2-2.4,0.9-4.5-1.2-6.3
		c-0.9-0.8-2.7-3.1-4.2-5.2c-1.4-2.1-2.9-4.1-3.3-4.4c-0.5-0.4-0.6-1.5-0.6-4.2c0-3.6,0-3.7-1-3.7c-0.6,0-1.4-0.3-1.9-0.6
		c-0.8-0.5-0.8-0.8-0.3-2c0.5-1.3,0.4-1.4-0.4-1.7c-0.5-0.2-1.2-1-1.5-1.8c-0.3-0.8-0.8-1.4-1-1.4c-1.8,0.4-5.2-4.2-4.6-6.4
		c0.1-0.5,0-1-0.2-1.2c-0.6-0.4-1.4,1.1-1.6,3.2c-0.1,0.9-0.3,2.1-0.4,2.8c-0.3,1.4-2.6,3.9-4.1,4.5c-1.6,0.6-5,0.6-6.1,0
		c-1-0.5-1.7-2.3-1-2.3c0.2,0,0.4,0.3,0.4,0.6c0,0.7,1.8,1.6,3.3,1.6c1.6,0,4.1-1.1,5.6-2.6c1-1,1.4-1.8,1.7-4.3
		c0.4-3.1,1.3-4.7,2.4-4.3c0.4,0.2,0.6,0.9,0.6,2.1c0,2.1,1.6,4.9,3.1,5.4c1.5,0.5,1.5-0.1,0-0.9c-1.7-1-2.3-2.3-2.3-5.3
		c0-2.9-0.7-3.4-2.6-2c-1,0.7-1.4,1.5-1.8,3.5c-0.3,1.4-0.6,2.9-0.7,3.4c-0.3,1.2-2.1,3.2-3.5,3.7c-2.3,0.9-5.5,0.3-5.5-1.1
		c0-0.3,0.9-1.7,1.9-3c2.2-2.7,4.7-7.1,4.7-8.4c0-1.4-1.6-4.2-3.8-6.4c-1.1-1.2-2.1-2.5-2.2-3c-0.1-0.5,0.2-2.1,0.9-3.6
		c0.6-1.5,1.1-3.1,1.1-3.5c0-0.8-1.7-1.8-4.3-2.5c-0.5-0.1-1.7-1.3-2.6-2.5c-0.9-1.2-1.8-2.2-2-2.2c-0.2,0-0.4,1-0.4,2.1
		c0,1.6-0.3,2.4-1,3.1c-0.8,0.8-0.9,1.5-0.9,3.6c0.1,2.6-0.7,5-1.8,5.4c-0.7,0.2,1.1,2.4,2.4,2.8c0.4,0.1,1.1,1,1.5,1.9
		c0.5,1.1,1.2,1.9,2.1,2.3c1.1,0.5,1.4,0.9,1.5,2.1c0.1,1.2,0,1.5-0.8,1.7c-0.7,0.2-0.8,0.4-0.6,1.4c0.5,1.9,0.3,8-0.3,10.3
		c-0.4,1.3-1.3,2.9-2.6,4.4c-2,2.2-2,2.3-2,5.2c0,1.6,0.4,4.1,0.7,5.5c1,4.1,1.2,6.4,0.7,9c-1,5.5-1,6.5,0,8.1
		c1.6,2.5,1.1,6.1-1.1,8.1c-0.6,0.6-1,1.3-0.8,1.7c0.3,0.8,3.3,2.4,4.5,2.4c2,0,3.1,5.3,1.4,7.1c-0.5,0.5-1.2,0.9-1.5,0.9
		c-0.9,0-0.8,0.6,0.4,2.5c0.7,1.1,1.1,2.2,1.1,3.4c0,1,0.2,2.1,0.5,2.5c0.3,0.5,0.4-0.1,0.2-2.2c-0.2-1.9-0.6-3.3-1.2-4.1
		c-0.8-1-0.8-1.3-0.3-1.6c0.3-0.2,0.7-0.4,0.9-0.4c0.8,0,1.7-2.9,1.5-4.5c-0.4-2.7-1.3-3.7-3.8-4.3c-3-0.7-3.5-1.4-2.1-3.1
		c0.6-0.7,1.4-2.4,1.7-3.7c0.5-2.2,0.5-2.5-0.3-3.9c-1.3-2.3-1.5-3.4-0.8-6c0.8-3.2,0.8-7.3,0-10.5c-0.4-1.4-0.8-4.1-0.9-6l-0.3-3.4
		l1.6-1.8c0.9-1,1.9-2.3,2.2-3c1.2-2.3,2-6.9,1.8-9.7c-0.2-2-0.1-2.9,0.5-3.8c1.1-1.6,0.5-4.1-1.1-5c-0.7-0.4-1.6-1.3-2-2
		c-0.4-0.7-1.4-1.7-2.2-2.2c-0.8-0.5-1.5-0.9-1.5-1c0-0.1,0.4-1.1,0.9-2.2c0.6-1.4,0.9-2.8,0.8-4.2c-0.1-1.2,0.1-2.4,0.4-2.7
		c0.3-0.3,0.8-1.3,1.2-2.1l0.8-1.5l0.9,1.2c0.5,0.6,2.1,1.6,3.5,2.1c1.4,0.5,2.5,1.2,2.5,1.5c0,1-2.4,6.7-2.5,6.1
		c-0.1-0.3,0.3-1.7,1-3.2c0.6-1.4,1.1-2.8,0.9-3c-0.1-0.2-0.9-0.5-1.7-0.7c-1.9-0.4-4.2-1.8-4.4-2.8c-0.1-0.5-0.2-0.3-0.2,0.4
		c0,0.6-0.4,1.5-0.9,1.9c-0.6,0.6-0.9,1.5-1,4c-0.1,2.2-0.4,3.5-0.9,4.1c-0.7,0.8-0.6,0.9,1,1.9c1.1,0.7,1.9,1.6,2.2,2.5
		c0.3,0.9,0.8,1.5,1.6,1.7c1.7,0.4,2.8,4.2,1.6,5.7c-0.3,0.4-0.6,2.5-0.6,5.4c-0.1,4.1-0.3,5.1-1.2,7.2c-0.6,1.3-1.8,3.1-2.5,3.9
		c-1.2,1.3-1.4,1.8-1.4,3.7c0,1.2,0.4,4,0.9,6c1,4.5,1.1,9.1,0.2,11.3c-0.9,2.1-0.8,2.7,0.2,4.7c1.2,2.3,1.2,5.8-0.2,8.4l-1,2.1
		l0.9,0.6c0.5,0.4,1.3,0.7,1.8,0.7c0.5,0,1.1,0.2,1.4,0.3c0.7,0.5,2.3,4.1,2.3,5.3c0,1.4-1.1,3.4-2.3,4.3c-0.5,0.4-0.7,0.7-0.5,0.7
		c0.6,0,1.9,4,1.9,6.1c0,1.3,0.3,1.7,1.4,2.5c0.8,0.5,1.6,1.6,2,2.6c0.3,1,0.8,1.8,1.1,1.9c1.9,0.6,5.7,5.7,6.9,9.2l0.7,2l2.1-0.3
		c2.4-0.3,2.7-0.1,3.6,2.7c0.5,1.6,0.8,2,2.7,2.8c1.8,0.8,2.6,0.9,4.8,0.6c2.6-0.3,2.6-0.3,3.4,1.1c0.9,1.6,1.1,1.7,2.7,0.5
		c1.1-0.8,2.7-0.8,2.7,0c0,0.6,5.1,7.8,5.7,7.8c0.3,0,1.8-1.1,2.1-2.3L600.4,148.8z"/>
</g>
<g id="NorthernEurope">
	<g id="path9050">
		<path fill="#999999" d="M412.3,173.4l-2.3-6l-6-7.8c0,0,2.7-7.8,3-10.5s4.8-5.1,4.8-5.1l5.8-6.9l5.2-7.5l1.9-6.1
			c0,0-0.7-5.7-1.3-5.6s-0.1-3.5,1.5-4.2c1.6-0.7,1.5-1,1.5-1l1.4,1.8l0.8,2.3l-0.8,2.2l-0.4,3.2c0,0,0.4,3,2.8,2.7
			c2.5-0.3,6.7-1.5,6.7-1.5l11.8-2l5.1,0.4l3.7-1.4l6.6,4.9c0.2,2.3,0.9,5.8,1,8.2l2.7,4.9l1.1,2.1l-0.4,2.1l-1.4,3.8l-1.9,5.2
			l-1.5,2.2l-1.2,0.6l-2,0.7l-1.4,0c0,0-0.9,0-0.9,2.7c0,1,3.3,0.8,3.3,0.8l-1.3,1.7l-2.4,1.5c0,0-1.8,2.8-2.3,3.3
			c-0.1,0.1-1.8,4.2-1.8,4.2c0.1,0.3,0.6,3.6,0.6,4l0.2,3.2l-0.6-0.2l-2.3-0.2l-2.8,0.2l-4.2,0c0,0-1.6-2.6-1.3-3.5
			c0.3-0.9,0.8-3.8,0.8-3.8l0.2-0.5l0-1.4c0,0,0.3-1.1-1.2-1.5c-1.5-0.5-7,0.2-7,0.2l-1.5,0.2l-2.4,1.9c-0.2,1-0.1,2-1,3l-1.1,1.7
			l-1.2,0.5c0,0-0.1,0.3-1.3,0.4c-1.1,0.1-2.6,0.5-2.6,0.5C423.1,174.8,417.5,174.1,412.3,173.4z"/>
		<path fill-opacity="0" stroke="#000000" stroke-width="2.000000e-03" d="M412.3,173.4l-2.3-6l-6-7.8c0,0,2.7-7.8,3-10.5
			s4.8-5.1,4.8-5.1l5.8-6.9l5.2-7.5l1.9-6.1c0,0-0.7-5.7-1.3-5.6s-0.1-3.5,1.5-4.2c1.6-0.7,1.5-1,1.5-1l1.4,1.8l0.8,2.3l-0.8,2.2
			l-0.4,3.2c0,0,0.4,3,2.8,2.7c2.5-0.3,6.7-1.5,6.7-1.5l11.8-2l5.1,0.4l3.7-1.4l6.6,4.9c0.2,2.3,0.9,5.8,1,8.2l2.7,4.9l1.1,2.1
			l-0.4,2.1l-1.4,3.8l-1.9,5.2l-1.5,2.2l-1.2,0.6l-2,0.7l-1.4,0c0,0-0.9,0-0.9,2.7c0,1,3.3,0.8,3.3,0.8l-1.3,1.7l-2.4,1.5
			c0,0-1.8,2.8-2.3,3.3c-0.1,0.1-1.8,4.2-1.8,4.2c0.1,0.3,0.6,3.6,0.6,4l0.2,3.2l-0.6-0.2l-2.3-0.2l-2.8,0.2l-4.2,0
			c0,0-1.6-2.6-1.3-3.5c0.3-0.9,0.8-3.8,0.8-3.8l0.2-0.5l0-1.4c0,0,0.3-1.1-1.2-1.5c-1.5-0.5-7,0.2-7,0.2l-1.5,0.2l-2.4,1.9
			c-0.2,1-0.1,2-1,3l-1.1,1.7l-1.2,0.5c0,0-0.1,0.3-1.3,0.4c-1.1,0.1-2.6,0.5-2.6,0.5C423.1,174.8,417.5,174.1,412.3,173.4z"/>
	</g>
</g>
<g id="EasternAustralia">
	<g id="path8950">
		<path fill="#B3B3B3" d="M625.6,373.2l0.9,12.6l0.6,11.4l0.2,17.3l2,1.8l27.8,0.2l-0.7,26l0.3,7.4l-1.3,6.4l-2.5,2.3l0.9,5.2
			l1.2,3.4l4.6,0.6l0.7,0.3l1.5,1.9l5.1,1.2l1.2-2h0.3l1.4,2.4l4.1,0.3c0,0,2.1-2.2,2.3-3.1c0.2-0.9,7.3-1,7.3-1s1.3-0.7,1.5-2.3
			c0.2-1.6,0.4-2.2,0.4-2.2l0.4-0.1l0.4,0.6l0.2,0l-0.1-0.8l-0.3-0.5l-0.2-0.2l-0.4,0c0,0-0.3,0-0.2-0.5c0.1-0.5,1.1-1.3,1.1-1.3
			l0.7-0.6l0.3-0.1h0.1l0.1-0.1l0.2-0.3l0.1-0.5c0,0,0-1.1,0.3-1.2c0.3-0.1,0.6,0,0.6,0l0.4,0.1l0.2,0l0.1,0l0.1,0l0.1-0.1l0.1-0.1
			l0-0.2l0-0.3l0-0.2l0-0.1l0,0l0,0l-0.1,0L689,457l-0.2,0.2l-0.1,0.1c0,0-0.1,0.1-0.2,0c0,0-0.3-0.3-0.1-1c0.2-0.7,0.6-1.8,0.6-1.8
			l1-2.2l1-2l1.5-2.9l0.9-1.4l0.3-0.1l0.1-0.1c0,0-0.1-0.2-0.1-0.4s0.5-0.8,0.5-0.8l0.3-0.4l0.2-0.4l0-0.2l0-0.3c0,0,0-0.3,0.5-0.4
			c0.5-0.1,0.5-0.1,0.5-0.1s0.2-0.1,0.2-0.2c0-0.1-0.1-0.2-0.1-0.2s0-0.2,0-0.2c0-0.1,0.2-0.5,0.3-0.5c0.1,0,0.1-0.1,0.2-0.3
			c0.2-0.2,1.6-1.6,1.6-1.6l-0.8-18.3l-0.7-2.6l-2.9-3.4l0.1-0.3l-1.1-0.2l-0.6-3.1l-0.5-0.8l-3-3.2l-0.5-1.6l0-2.8l-0.3-1.4
			l-0.3-0.6l0.1-0.2l0.8,0.3l0.2,0l0-0.3l-0.9-0.9l-1.3-0.4l-5.4-3.4l-2.1-2.7l-0.5-4c0,0-5.6-5.8-5.8-6.9c-0.2-1.1-1.5-5-1.5-5
			l-0.1-1.8l0.3-0.3c0,0-2-5.7-3.2-8c-1.2-2.3-3.8-5.1-3.8-5.1l-2.1-0.3l-1.4,1.5l-0.5,2.8c0,0-0.2,1.3-0.3,1.4c-0.1,0-0.3,0-0.3,0
			l0,0.3c0,0-1.2,6.9-2,6.9c-0.8-0.1,0.2,3.2,0.3,4.7c0.1,1.5-1,7.8-1,7.8l-1.3,0.6l-1.6-0.7l-3.4-3.4l-3.7-1.4l-0.6-0.6
			c0,0-3.3-0.3-2.1-2c1.2-1.7,3.8-5.3,3.8-5.3l0.4-1.4l-0.2-3.5l-13.3-0.6L625.6,373.2z"/>
		<path fill-opacity="0" stroke="#000000" stroke-width="2.000000e-03" d="M625.6,373.2l0.9,12.6l0.6,11.4l0.2,17.3l2,1.8l27.8,0.2
			l-0.7,26l0.3,7.4l-1.3,6.4l-2.5,2.3l0.9,5.2l1.2,3.4l4.6,0.6l0.7,0.3l1.5,1.9l5.1,1.2l1.2-2h0.3l1.4,2.4l4.1,0.3
			c0,0,2.1-2.2,2.3-3.1c0.2-0.9,7.3-1,7.3-1s1.3-0.7,1.5-2.3c0.2-1.6,0.4-2.2,0.4-2.2l0.4-0.1l0.4,0.6l0.2,0l-0.1-0.8l-0.3-0.5
			l-0.2-0.2l-0.4,0c0,0-0.3,0-0.2-0.5c0.1-0.5,1.1-1.3,1.1-1.3l0.7-0.6l0.3-0.1h0.1l0.1-0.1l0.2-0.3l0.1-0.5c0,0,0-1.1,0.3-1.2
			c0.3-0.1,0.6,0,0.6,0l0.4,0.1l0.2,0l0.1,0l0.1,0l0.1-0.1l0.1-0.1l0-0.2l0-0.3l0-0.2l0-0.1l0,0l0,0l-0.1,0L689,457l-0.2,0.2
			l-0.1,0.1c0,0-0.1,0.1-0.2,0c0,0-0.3-0.3-0.1-1c0.2-0.7,0.6-1.8,0.6-1.8l1-2.2l1-2l1.5-2.9l0.9-1.4l0.3-0.1l0.1-0.1
			c0,0-0.1-0.2-0.1-0.4s0.5-0.8,0.5-0.8l0.3-0.4l0.2-0.4l0-0.2l0-0.3c0,0,0-0.3,0.5-0.4c0.5-0.1,0.5-0.1,0.5-0.1s0.2-0.1,0.2-0.2
			c0-0.1-0.1-0.2-0.1-0.2s0-0.2,0-0.2c0-0.1,0.2-0.5,0.3-0.5c0.1,0,0.1-0.1,0.2-0.3c0.2-0.2,1.6-1.6,1.6-1.6l-0.8-18.3l-0.7-2.6
			l-2.9-3.4l0.1-0.3l-1.1-0.2l-0.6-3.1l-0.5-0.8l-3-3.2l-0.5-1.6l0-2.8l-0.3-1.4l-0.3-0.6l0.1-0.2l0.8,0.3l0.2,0l0-0.3l-0.9-0.9
			l-1.3-0.4l-5.4-3.4l-2.1-2.7l-0.5-4c0,0-5.6-5.8-5.8-6.9c-0.2-1.1-1.5-5-1.5-5l-0.1-1.8l0.3-0.3c0,0-2-5.7-3.2-8
			c-1.2-2.3-3.8-5.1-3.8-5.1l-2.1-0.3l-1.4,1.5l-0.5,2.8c0,0-0.2,1.3-0.3,1.4c-0.1,0-0.3,0-0.3,0l0,0.3c0,0-1.2,6.9-2,6.9
			c-0.8-0.1,0.2,3.2,0.3,4.7c0.1,1.5-1,7.8-1,7.8l-1.3,0.6l-1.6-0.7l-3.4-3.4l-3.7-1.4l-0.6-0.6c0,0-3.3-0.3-2.1-2
			c1.2-1.7,3.8-5.3,3.8-5.3l0.4-1.4l-0.2-3.5l-13.3-0.6L625.6,373.2z"/>
	</g>
</g>
<g id="Ontario">
	<g id="path26397">
		<path fill="#666666" d="M184.4,154.5c-0.7-1.3-1.2,9.2-0.9,12.6c-0.9,1.6-1.1,1.5-1.8,4.5c-0.5,10.8-1.2,18.7-1.4,28.2l26.8,0.3
			l5.9,2.1l11.7-1.8l5.3,1.8l2.1,5.6l11.7,6.3l1.6-20.4l-3.2-0.4l-4.8-11.6l3.2-2.5l-7.5-0.8l-3.8-2.2l-5.8-1.2l-3.6-1l-6-4.1
			l-1.1-1.4h2.4l0.8-1.4l-1.1-1.7l-0.8-1.4l-1.1,1.6l-1.3,0.1l-1.3-1.2l0.4-4.2l0.3-3.4l-0.5-0.6l-1.6,5l0.8-5.3
			c-1.7,0.7-2.3-0.5-3.6-1l-7.8-0.4l-8.2-0.1L184.4,154.5z"/>
		<path fill-opacity="0" stroke="#000000" stroke-width="0.119" d="M184.4,154.5c-0.7-1.3-1.2,9.2-0.9,12.6
			c-0.9,1.6-1.1,1.5-1.8,4.5c-0.5,10.8-1.2,18.7-1.4,28.2l26.8,0.3l5.9,2.1l11.7-1.8l5.3,1.8l2.1,5.6l11.7,6.3l1.6-20.4l-3.2-0.4
			l-4.8-11.6l3.2-2.5l-7.5-0.8l-3.8-2.2l-5.8-1.2l-3.6-1l-6-4.1l-1.1-1.4h2.4l0.8-1.4l-1.1-1.7l-0.8-1.4l-1.1,1.6l-1.3,0.1l-1.3-1.2
			l0.4-4.2l0.3-3.4l-0.5-0.6l-1.6,5l0.8-5.3c-1.7,0.7-2.3-0.5-3.6-1l-7.8-0.4l-8.2-0.1L184.4,154.5z"/>
	</g>
</g>
</svg>
