<?xml version="1.0" encoding="utf-8"?>
<!-- Generator: Adobe Illustrator 18.0.0, SVG Export Plug-In . SVG Version: 6.00 Build 0)  -->
<!DOCTYPE svg PUBLIC "-//W3C//DTD SVG 1.1//EN" "http://www.w3.org/Graphics/SVG/1.1/DTD/svg11.dtd">
<svg version="1.1" id="Layer_1" xmlns="http://www.w3.org/2000/svg" xmlns:xlink="http://www.w3.org/1999/xlink" x="0px" y="0px"
	 viewBox="0 0 960 560" enable-background="new 0 0 960 560" xml:space="preserve">
<g id="Greenland">
	<g id="path27138">
		<path fill="#B3B3B3" d="M207.4,49.1l5.1-5.4c0,0,0-2.3-0.6-2.5s0.9-1.4,0.9-1.4l1.7-0.1l1.9-1l0.9-1.4c0,0,4.8-2.8,5.7-2.6
			s2.1,1.2,2.1,1.2l1.1-0.2l1.7-1.4l3.6-1.7l7-5l1.3-0.2l1.9,0.3l1,0.4l1.7,0.3h1l6.2,0.6l1.2,0.2l3.7,4l2.4-0.1l2-1.2l2.8-1.2
			l-1.3,2.1l-2.4,3.3c0,0-1.2,2.9-1.1,3c0.2,0.1,0.5,2.5,0.5,2.5s-0.4,3.7-0.2,3.9s1.2,2,1.2,2l-1.4,2.1l0.1,1.3l-1.3-0.1l-1.7,1.5
			l0.7,2.4l2.9,3.1l-2.4,0.9l-4.3,0.5l-2.6,1.2l-3.2,3.1l-3.7,3.5l-4.2,2.1c0,0-1.7,0.6-2.2,1.8s-2.6,6.1-2.6,6.1l-0.8,3.1
			c0,0-0.3,2.5,0,2.2c0.3-0.2-1,0.7-1,0.7l-1.7-1l-3.7-3.1l-2.6-2.1l-0.5-2.3l-1.4-4.7l-0.3-1l1.3-1.4l0.7-2.3l-2-2.8l0.1-0.3
			l0.3-0.1c0,0,0.4-0.9,0.2-1.4c-0.1-0.5-0.6-1.7-0.6-1.7l-1.2-2.4c0,0-1.8-3.1-3.5-3.8c-1.7-0.7-2.9-3-2.9-3l-1.5-1l-1.2,0.1
			l-0.8,0.5l-0.3,0.1l0.3-0.3l-1.3,0.1L207.4,49.1z"/>
		<path fill-opacity="0" stroke="#000000" stroke-width="2.000000e-03" d="M207.4,49.1l5.1-5.4c0,0,0-2.3-0.6-2.5s0.9-1.4,0.9-1.4
			l1.7-0.1l1.9-1l0.9-1.4c0,0,4.8-2.8,5.7-2.6s2.1,1.2,2.1,1.2l1.1-0.2l1.7-1.4l3.6-1.7l7-5l1.3-0.2l1.9,0.3l1,0.4l1.7,0.3h1
			l6.2,0.6l1.2,0.2l3.7,4l2.4-0.1l2-1.2l2.8-1.2l-1.3,2.1l-2.4,3.3c0,0-1.2,2.9-1.1,3c0.2,0.1,0.5,2.5,0.5,2.5s-0.4,3.7-0.2,3.9
			s1.2,2,1.2,2l-1.4,2.1l0.1,1.3l-1.3-0.1l-1.7,1.5l0.7,2.4l2.9,3.1l-2.4,0.9l-4.3,0.5l-2.6,1.2l-3.2,3.1l-3.7,3.5l-4.2,2.1
			c0,0-1.7,0.6-2.2,1.8s-2.6,6.1-2.6,6.1l-0.8,3.1c0,0-0.3,2.5,0,2.2c0.3-0.2-1,0.7-1,0.7l-1.7-1l-3.7-3.1l-2.6-2.1l-0.5-2.3
			l-1.4-4.7l-0.3-1l1.3-1.4l0.7-2.3l-2-2.8l0.1-0.3l0.3-0.1c0,0,0.4-0.9,0.2-1.4c-0.1-0.5-0.6-1.7-0.6-1.7l-1.2-2.4
			c0,0-1.8-3.1-3.5-3.8c-1.7-0.7-2.9-3-2.9-3l-1.5-1l-1.2,0.1l-0.8,0.5l-0.3,0.1l0.3-0.3l-1.3,0.1L207.4,49.1z"/>
	</g>
</g>
<g id="NorthWestTerritory">
	<path id="path11771" fill="#999999" d="M195,95.1c0.9-1.4,3.5-4.3,4.5-4.7c1.1-0.6,1.8-0.5,0.8,0.1c-2.1,1.2-6.2,5.8-5.1,5.8
		c0.1,0,0.6-0.5,1-1.2c0.9-1.4,3.5-3.9,4.5-4.3c0.3-0.1,1-0.2,1.5-0.2c0.5,0,1-0.1,1.2-0.2c0.5-0.3,0.9-1.4,0.9-2.4
		c0-1.7,1.6-2.8,3.8-2.8c0.9,0,1.3-0.2,3.1-1.8c2.4-2.1,2.5-2.4,3-3.9l0.3-1.2l0.2,0.8l0.2,0.8l0.1-0.7c0-0.4,0.2-0.9,0.5-1
		c0.5-0.3,0.5-0.3,0-0.3c-0.3,0-0.6-0.1-0.8-0.1s-0.6-0.6-1-1.2c-1-1.7-2.1-1.8-5.3-0.2c-2.1,1-2.8,0.9-3.9-1.2
		c-0.4-0.8-1.1-3.5-1.4-5.4c-0.2-1,0.4-2.2,1.8-4c1-1.3,1.8-2.8,1.5-3.1s-2.9,0.2-3.8,0.8c-0.5,0.3-1.4,1.4-2,2.4s-1.5,2.2-2,2.7
		c-0.8,0.9-0.8,1-0.8,4.3c0,2.9-0.1,3.3-0.5,3.7c-0.7,0.6-1.2,0.3-2.2-1.2c-0.5-0.7-1-1.6-1.3-1.7c-0.8-0.8-1.6,0.3-1.5,1.8
		c0.1,1.1-0.6,2.1-1.6,2.1c-0.9,0-4.1-0.9-5.2-1.5c-0.6-0.3-0.8-0.3-1.6,0.2c-0.7,0.5-0.9,0.9-1.1,1.8c-0.1,0.6-0.3,1.3-0.5,1.4
		c-0.3,0.3-3.9,0.6-5.1,0.4c-0.5-0.1-1.4-0.6-2-1.1c-1.9-1.7-2.9-2.5-4-3.2c-0.9-0.6-1.1-0.6-1.4-0.3c-0.2,0.2-0.7,0.4-1.2,0.4
		c-1.2,0-2.1-1.1-2.8-3.3c-0.2-0.6-0.7-0.6-0.7-0.1c0,0.5-1.3,0.9-1.7,0.5c-0.6-0.6-1.4-0.3-3,1c-2,1.7-3.6,2.2-6.9,2.1
		c-1.3,0-2.9,0.1-3.4,0.2c-0.9,0.2-1,0.1-1.6-0.5c-0.3-0.4-0.6-0.9-0.6-1c-0.1-0.3-4.6,0.3-4.6,0.7c0,0.2,1.4,0.1,3.2-0.2
		c0.7-0.2,0.9-0.1,1.4,0.6c0.7,1,2.1,1.3,3.2,0.8c0.5-0.2,1.1-0.3,1.6-0.2c1.4,0.3,3.2,0.3,4.6-0.1c1.7-0.5,2.2-0.9,3.7-2.1
		c1.2-1.1,1.2-1.1,2.2-0.8c0.6,0.2,1.3,0.2,1.5,0.2c0.2-0.1,0.5-0.1,0.5,0.1c0,0.4-1.2,0.4-2,0c-0.6-0.3-0.8-0.2-2,0.9
		c-2,1.9-3.3,2.3-6.8,2.4c-1.7,0-3.6,0.1-4.4,0.2c-1.2,0.2-1.4,0.1-2-0.4c-0.3-0.3-0.6-0.7-0.7-0.9c-0.1-0.2-0.7-0.2-2.1-0.1
		c-2.2,0.2-2.2,0.2-2.2,3.4c0,1.5-0.1,2.2-0.5,2.7c-0.4,0.6-0.5,1.4-0.6,6.1c-0.1,5.2-0.1,5.5,0.5,6.1c0.6,0.6,0.6,0.6,9.7,0.6
		c8.3,0,9.2,0.1,9.9,0.5c0.6,0.5,1.9,0.5,15.5,0.6c12,0.1,14.9,0.2,15.5,0.5C194,96.4,194.1,96.3,195,95.1z"/>
</g>
<g id="Venezuela">
	<path id="path12167" fill="#C8BEB7" d="M197.5,223.8c0.5-0.7,0.6-2.2,0.3-3.1c-0.4-1.2-0.4-2.9,0.1-3.6c0.5-0.7,2-1.4,2.9-1.4
		c0.4,0,1.2,0.4,1.7,0.9c0.8,0.7,1.2,0.9,2.1,0.9c0.6,0,1.4-0.2,1.9-0.3c0.7-0.3,0.7-0.3,0.6-2.1c-0.2-2.4,0.1-2.8,2.1-2.3
		c1.4,0.3,1.4,0.3,2.5-0.6c1.6-1.3,2.3-1.5,3.1-0.6c0.3,0.4,0.7,1.3,0.8,1.8c0.4,2.4,2.2,3.2,6.5,2.7c3.2-0.3,4.7-0.9,6.8-2.5
		c1.4-1.1,2.9-3.2,2.6-3.7c-0.4-0.6-1.8-0.9-5-0.9c-3.2,0-3.3,0-4.7-0.9c-0.8-0.5-1.6-1-1.8-1.2c-0.8-0.6-4.6-4.4-5.1-5.1
		c-0.9-1.3-2.4-1.6-7.3-1.7l-4.4-0.1l-2.4-1.3c-1.3-0.7-2.9-1.6-3.5-2.1c-1.2-0.8-2-0.9-2.9-0.1c-0.2,0.2-1.2,0.7-2,1.2
		c-3.6,2-3.8,2.1-5.6,4.7c-0.9,1.4-2.2,2.9-2.8,3.3c-1.3,1-1.7,1.8-1.3,3.1c0.2,0.5,0.3,1.7,0.3,2.6c0,1.4-0.1,1.7-0.7,2.3
		c-0.4,0.4-1,0.9-1.3,1s-0.5,0.4-0.3,0.5c0.3,0.3,2.1-1,2.5-1.9c0.5-1.1,0.6-2.9,0.1-4.7c-0.2-1-0.2-1.3,0.2-1.9
		c0.2-0.4,0.8-0.9,1.2-1.2s1.5-1.5,2.4-2.8c1.5-2.2,1.7-2.4,4.1-3.8c1.4-0.8,3-1.7,3.5-2.1c1.2-0.7,1.5-0.7,2.5,0.1
		c0.7,0.6,4.4,2.5,6.3,3.4c0.6,0.3,0.6,0.3-0.3,0.2c-0.6-0.1-1.8-0.6-2.7-1.1c-0.9-0.5-1.7-0.9-1.8-0.9s-0.7-0.3-1.3-0.8
		c-1.2-0.8-1.9-1-2.1-0.6c-0.1,0.1-1,0.7-2.1,1.3c-3.3,1.7-4.1,2.3-5.2,4.2c-0.6,1-1.8,2.5-2.7,3.3l-1.6,1.6l0.3,2.1
		c0.2,1.2,0.2,2.5,0.1,3c-0.2,0.9-2,3.1-2.6,3.1s1.9,2.2,3.2,2.9c0.7,0.4,2,1.1,2.7,1.6c0.7,0.5,2.2,1.3,3.4,1.8s2.7,1.2,3.5,1.6
		C195.5,224.5,197,224.5,197.5,223.8z"/>
</g>
<g id="Peru">
	<path id="path12223" fill="#CCCCCC" d="M226.2,267.6c1-0.6,1.9-1.3,1.9-1.5c0-0.4-1.2-3.5-2-5.1c-0.5-1.1-0.8-1.4-1.9-1.7
		c-1.1-0.4-1.3-0.6-1.7-1.6c-0.2-0.6-0.4-1.8-0.4-2.8c0-1.4-0.2-2-1.2-4.1c-0.6-1.3-1.8-3.1-2.6-4c-0.7-0.9-1.6-2-1.8-2.4
		c-0.3-0.6-0.6-0.7-1.4-0.7c-1.5,0-4.8-1.9-7.2-4l-2-1.8l-1.6,0.6c-0.9,0.3-2.4,0.9-3.3,1.2c-1.9,0.7-3.9,0.6-4.8-0.3
		c-0.7-0.7-0.6-1.5,0.4-2.5c0.5-0.5,1-1.1,1-1.2c0-0.5-0.9-0.3-2,0.4c-0.6,0.3-1.2,0.6-1.4,0.5c-0.2-0.1-0.9-0.7-1.5-1.5
		c-0.6-0.7-1.6-1.6-2.2-2c-1.4-0.8-1.7-1.6-1-3.4c0.4-1.1,0.9-1.7,2.7-3.2c1.2-1,2.2-2,2.2-2s-0.9-0.6-2-1
		c-3.9-1.7-8.5-4.4-10.2-6.1l-1.1-1l-0.9,1.2c-0.5,0.7-0.9,1.2-1,1.2c-0.2,0,0.3-1,1-2c0.3-0.4,0.5-0.9,0.3-0.9
		c-0.2-0.2-0.6,0.2-1.1,1c-0.2,0.3-0.9,1.5-1.6,2.7l-1.3,2.1l-0.2,3.7c-0.1,2.1-0.2,4.1-0.1,4.6c0.2,0.9,1.1,2,3.6,4.2
		c1.3,1.2,1.7,1.8,3.6,6.1c0.7,1.6,1.3,2.4,3.3,4.4c1.6,1.6,3.3,2.9,4.7,3.7c1.6,0.9,3,2,4.7,3.8c1.4,1.4,2.4,2.3,2.3,2
		c-0.5-1.3-5.2-5.6-7.3-6.5c-0.6-0.3-1-0.6-1-0.7s0.1-0.2,0.1-0.2c0.3,0,3.2,1.8,4.4,2.9c3.3,2.8,4.2,3.8,4.2,4.9
		c0,0.4,5.5,5.4,6.3,5.8c0.1,0.1,0.5-0.4,0.8-1c0.6-1.2,1.4-1.7,2.2-1.4c0.2,0.1,0.9,0.4,1.4,0.7s1.6,0.7,2.5,0.8
		c2.8,0.3,2.9,0.4,3.7,1.6c0.9,1.4,2.8,2.3,4.8,2.3c0.8,0,1.4,0.2,1.6,0.4c0.6,0.7,0.8,3.6,0.3,4.7c-0.2,0.5-0.4,1-0.4,1.2
		C222.1,269.8,224.3,268.8,226.2,267.6z"/>
</g>
<g id="Argentina">
	<path id="path12297" fill="#B3B3B3" d="M213.3,329c0.8-0.3,1.8-0.7,2.2-0.9l0.7-0.4l-1.2-0.7c-1.7-1.1-3.5-2.8-3.8-3.9
		c-0.2-0.6-0.2-1.3,0-2.5c0.6-3.5,1.6-5.8,2.8-7.2l0.7-0.7l-1.4-0.8c-0.8-0.5-1.6-1.2-1.8-1.5c-0.3-0.6-0.2-0.9,0.9-2.4
		c0.6-0.9,1.4-2.1,1.8-2.5c0.6-0.8,0.6-0.9,0.2-3c-0.2-1.2-0.5-2.4-0.6-2.7c-0.3-0.8,0.5-1.4,1.8-1.4c1.8,0,2.4-0.4,2.8-1.8
		c0.4-1.4,0.6-1.6,2.4-1.8c1.7-0.2,3.8-1.5,5.1-3.1c1.8-2.1,1.8-2.2,1-3.9c-0.9-1.7-0.7-2.2,0.6-2.2c1.5,0,3.1-1.1,4.4-2.9
		c0.5-0.7,0.5-0.9,0.2-0.9c-0.2,0-0.4,0.1-0.4,0.3s-0.5,0.8-1.2,1.5c-0.9,0.9-1.4,1.3-2.2,1.4c-2.7,0.4-3.1,0.9-1.9,2.9
		c0.6,1,0.6,1.3,0.3,2c-0.2,0.5-1.1,1.5-2,2.4c-1.6,1.5-3.1,2.1-4.8,2.1c-1,0-1.8,0.7-1.8,1.6c0,1.2-0.6,1.7-2,1.9
		c-0.6,0.1-1.5,0.3-1.8,0.5c-0.6,0.3-0.7,0.5-0.6,2.1l0.1,1.8l-0.3-1.5c-0.3-1.4-0.3-1.6,0.1-2.2c0.4-0.5,0.9-0.7,2.1-0.9
		c1.4-0.2,1.7-0.3,2-0.9c0.2-0.4,0.3-0.9,0.3-1.2c0-0.7,0.9-1.3,2.3-1.4c2-0.2,3.6-1.2,5.1-2.9l1.4-1.6l-0.6-1.4
		c-1-2.1-0.7-3.3,0.9-3.3c0.5,0,1.2-0.2,1.7-0.4c0.9-0.4,2.9-2.2,2.9-2.7c0-0.1-0.3-0.6-0.7-1.1c-0.5-0.6-0.7-1.2-0.7-1.9
		c0-0.9-0.1-1.1-0.7-1.3c-0.8-0.3-1.9-2-2.2-3.2c-0.2-0.8-0.2-0.9-1-0.7c-0.6,0.1-0.9,0.1-1.1-0.5c-0.4-0.9,0.1-1.8,1.8-3.7
		c0.7-0.7,1.2-1.4,1.2-1.5c0-0.1-0.5,0.1-1,0.5c-3.4,2.1-5,2.5-5.9,1.7l-0.6-0.6l0.6-1.5c0.4-1.1,0.5-1.8,0.4-2.8
		c-0.2-1.3-0.3-1.3-1.7-1.2c-0.3,0-1.5-0.3-2.5-0.7c-1.4-0.6-1.9-1-2.4-1.9c-0.6-1-0.7-1.1-2.6-1.3c-1-0.1-2.2-0.3-2.5-0.5
		s-0.9-0.6-1.3-0.8l-0.7-0.5l-0.5,1c-0.5,0.9-1.5,1.7-2.2,1.7c-0.1,0-1.5-1.1-3.1-2.4c-1.9-1.6-2.9-2.3-3.1-2.1
		c-0.1,0.2-0.2,0.1-0.2-0.3c0-0.9-0.5-1-0.6-0.2c-0.2,1.2,0.3,7.6,0.9,10.3c0.7,3.5,0.7,4.2-0.2,5.7c-0.9,1.7-0.9,3.9,0.2,5.6
		c0.7,1,0.7,1.3,0.7,3.9c0,2.7,0,2.8-0.8,3.5c-0.5,0.4-1.2,1.4-1.8,2.4c-1,1.8-1.2,2.9-0.6,4.7c0.2,0.6,0.7,2.8,1.2,4.8
		c0.7,3.2,0.9,3.8,1.4,4c0.3,0.1,0.9,0.6,1.2,1c0.7,0.9,0.8,3.5,0.1,5c-0.2,0.5-0.9,1.9-1.4,3s-0.9,2.1-0.7,2.2
		c0.1,0.2,0.6,0.5,1,0.6c1.6,0.6,1.7,1,1.7,3.2c0,3.3,0.5,4.8,2.1,7c0.8,1,1.8,2.2,2.2,2.5c0.4,0.3,1.3,1.3,2,2.2
		C209.5,329.5,210.5,329.9,213.3,329z"/>
</g>
<g id="Brazil">
	<g id="path27119">
		<path fill="#B3B3B3" d="M232.3,210.7l7.6,4.4c0,0,3.3,4.2,5.9,6.6c0.9,0.9,5,0.7,5,0.7l8.4,3.3c3.2,1.7,3.4,3.4,4.2,5.1
			c0.3,2.8-2,3.3-2.7,4.8c-2.6,3.2-3.7,6.7-3.7,6.7l-3.3,7l-5.3,10.7c0,0-9.3,3.9-9.2,5c0.2,1.1-7.7,16-7.7,16
			c-0.7-1.2-1.7-1.8-1.4-3.9c-0.6-0.5-2.8-1.4-2.8-4.2c-2.1-0.6-1.6-0.2-1.9-0.6c0.1-2,2-3.5,3.1-5.2c-0.9-6.6-3.7-8-4.5-8.9
			c-0.3-0.2-0.3-0.2-1-1c-0.6-0.2-0.6-4.5-0.6-4.5s-0.9-2.8-6.7-10.2c0.6,1.3-5.8,0.1-9.3-5.3c-0.7-1.2-7.4,3.9-10.3,1.7
			c-1.1-0.9,1.1-3.5,1.5-3.5c-0.1-0.7-0.5-0.5-0.7-0.5c-1.4,0.7-3.1,2.1-4.1,0.3l-3.9-3.7c0.2-1.8,1.8-4.7,5.6-7.2
			c0.9,0,2.4,1,3.3-0.7l-0.1-2.8c-0.4-1.2-0.3-2.2-0.1-3.3c1.2-1.6,2.5-1.7,3.2-1.4l2.8,1.5c0,0,1.6,0.4,3.6-1v-3.7l2.6,0.6l1.3-0.6
			c0.6-1,1.2-2,2.3-1.6c0.3,0.3,0.6,0.6,0.9,1l1.1,3l1.1,0.9l2.3,0.6l2-0.1c3.8-0.3,5.2-0.6,6.9-1.7L232.3,210.7z"/>
		<path fill-opacity="0" stroke="#000000" stroke-width="2.000000e-03" d="M232.3,210.7l7.6,4.4c0,0,3.3,4.2,5.9,6.6
			c0.9,0.9,5,0.7,5,0.7l8.4,3.3c3.2,1.7,3.4,3.4,4.2,5.1c0.3,2.8-2,3.3-2.7,4.8c-2.6,3.2-3.7,6.7-3.7,6.7l-3.3,7l-5.3,10.7
			c0,0-9.3,3.9-9.2,5c0.2,1.1-7.7,16-7.7,16c-0.7-1.2-1.7-1.8-1.4-3.9c-0.6-0.5-2.8-1.4-2.8-4.2c-2.1-0.6-1.6-0.2-1.9-0.6
			c0.1-2,2-3.5,3.1-5.2c-0.9-6.6-3.7-8-4.5-8.9c-0.3-0.2-0.3-0.2-1-1c-0.6-0.2-0.6-4.5-0.6-4.5s-0.9-2.8-6.7-10.2
			c0.6,1.3-5.8,0.1-9.3-5.3c-0.7-1.2-7.4,3.9-10.3,1.7c-1.1-0.9,1.1-3.5,1.5-3.5c-0.1-0.7-0.5-0.5-0.7-0.5c-1.4,0.7-3.1,2.1-4.1,0.3
			l-3.9-3.7c0.2-1.8,1.8-4.7,5.6-7.2c0.9,0,2.4,1,3.3-0.7l-0.1-2.8c-0.4-1.2-0.3-2.2-0.1-3.3c1.2-1.6,2.5-1.7,3.2-1.4l2.8,1.5
			c0,0,1.6,0.4,3.6-1v-3.7l2.6,0.6l1.3-0.6c0.6-1,1.2-2,2.3-1.6c0.3,0.3,0.6,0.6,0.9,1l1.1,3l1.1,0.9l2.3,0.6l2-0.1
			c3.8-0.3,5.2-0.6,6.9-1.7L232.3,210.7z"/>
	</g>
</g>
<g id="CentralAmerica">
	<path id="path12123" fill="#B3B3B3" d="M182.7,206.8c0.3-0.6,0.9-1.3,1.4-1.7c0.8-0.5,2.4-2.6,2.4-3.1c0-0.1-0.9-0.2-2-0.3
		c-2.7-0.2-2.9-0.3-2.9-1.5c0-0.7,0.2-1.3,0.8-2c0.5-0.5,1-1.5,1.4-2.2c0.3-0.7,0.9-1.6,1.4-2s0.8-1,0.8-1.3s-0.7-1.2-1.5-2.1
		c-2.3-2.3-2.3-3.2-0.1-4.3c0.6-0.3,1.3-0.8,1.6-1.1c0.4-0.5,0.5-2.5,0.2-3.9c-0.2-0.8-0.3-0.9-1.2-0.9c-1.2,0-2.8,0.7-3.5,1.6
		c-0.2,0.3-0.6,1-0.7,1.5c-0.2,0.6-0.5,1-0.6,1.1c-0.6,0.2-5-0.1-5.2-0.4c-0.2-0.1-0.4-0.9-0.5-1.7c-0.1-0.8-0.2-1.9-0.3-2.4
		c-0.1-0.8,0.1-1.4,0.7-2.7c0.7-1.3,0.8-1.8,0.6-2.4c-0.1-0.5-0.2-1-0.1-1.4c0.2-0.6-0.3-0.7-0.6-0.1c-0.1,0.2-0.2,0.4-0.3,0.3
		c-0.1-0.1,0-0.4,0.1-0.7c0.2-0.5,0.1-0.8-0.6-2c-0.5-0.8-1-1.7-1.1-1.9c-0.1-0.4,0.7,0.4-0.3-0.7l-1.3-1.4l-1.4-1.3
		c-1.4-1.3-0.1-1.3-5.9-1c-1.6,0.1-3.1-0.1-4.6,0c-0.6-0.4-2.6-2.1-2-1.5c0,0-1.5-1.6-2.7-1.8c-0.7-0.1-1.6-0.3-1.9-0.5
		c-0.3-0.2-1.2-0.3-1.2-0.2s0.2,0.1,0.1,0c-0.1-0.2-1-0.2-1.2-0.5c-0.3-0.2,0.3-0.1,0.9,1c0.6,1.2,0.8,2.1,0.9,4
		c0.3,4.2,0.9,6.1,2.4,8.7c2.1,3.4,2.2,3.8,2.8,5.2c0.3,0.7,0.8,1.8,1.2,2.4c1.7,2.8,1.5-0.7-0.3-5.1c-1.1-2.6-2.7-7-3.4-9.5
		c-0.3-1-0.1-1.6,0.7-1.6c0.6,0,1.3,1,1.7,2.3c0.1,0.5,0.5,1.4,1,2c0.4,0.7,1.3,2.4,1.9,3.9c0.7,1.6,1.6,3.1,2.2,3.8
		c1.8,2,2.2,3.2,2.1,6.2c-0.1,2.5,0,2.7,0.6,3.3c0.4,0.4,2,1.2,3.6,1.8c1.6,0.6,3.3,1.5,3.9,1.9c0.9,0.7,1,0.9,1,3
		c0.1,2,0.2,2.2,0.7,2.4c0.9,0.2,1.7,2.1,1.9,4.5c0.2,2.1,1.1,4.4,2.1,5.3c0.5,0.5,3.5,1.7,4,1.8C182,207.8,182.4,207.3,182.7,206.8
		z"/>
</g>
<g id="EasternUnitedStates">
	<path id="path12031" fill="#B3B3B3" d="M212.7,177.6c1.6-1,1.9-2,1.7-5c-0.1-1.4-0.3-3.2-0.6-4c-0.3-0.8-0.4-1.7-0.3-2.2
		c0.3-1.3,2-3,4.9-5c2.1-1.4,3-2.2,3.8-3.5c0.9-1.3,1-1.8,0.9-2.5c-0.6-3.3-0.6-3.1,1.3-5.3c0.5-0.6,1.4-1.6,2-2.3
		c1.2-1.2,3.3-5.4,3.3-6.5c0-1.2,1.9-4,2.7-4c0.2,0,0.3-0.1,0.3-0.3c0-0.5-0.8-0.3-1.6,0.5c-1.1,1.1-1.7,2-1.9,3.3
		c-0.3,1.5-2.4,5.8-3.1,6.4c-1,0.9-3.9,4.4-4,5.2c-0.1,0.4,0,1.3,0.2,2.1c0.3,1.3,0.3,1.4-0.5,2.9c-0.8,1.4-3.1,3.4-5.4,4.7
		c-1.6,0.9-3.7,3.6-3.7,4.7c0,0.3,0.2,1.1,0.4,1.7c0.5,1.5,0.9,3.7,0.6,3.5c-0.2-0.2-0.9-2.8-1.2-4.8c-0.1-0.7,0-1.4,0.4-2.1
		c0.6-1.1,2.9-3.5,3.4-3.5s4.4-3.1,5.1-4.1c0.7-1,0.7-1.4,0.5-4.2c-0.2-1.7-0.4-1.3,3.8-6.2c1.4-1.6,2.2-3.1,2.8-5.2
		c0.9-3,1.3-3.7,2.4-4.7c0.6-0.6,1.4-1,1.7-1c1,0,2-2.8,0.8-4.5c-1.2-1.7-3.3-1-4.4,0.5c0,0-1.4,1.7-3.3,2c-2.4,0.3-4,0-5.1-1
		c-1.2-1.1-1.7-1.3-3.3-1c-1.1,0.2-1.6,0.5-3.1,2c-1,1-2.2,2.2-2.7,2.8l-0.8,1l1.3-0.7c0.7-0.4,1.6-1,2-1.4c0.6-0.6,3.2-1.6,4.2-1.6
		c0.7,0,1,1.3,0.7,2.6c-0.3,1.3-0.5,1.4-2.5,1.8c-1.4,0.3-1.6,0.5-2.2,1.4c-0.9,1.6-2.8,2.8-4.8,2.9c-1.3,0.1-1.6,0.1-2.2-0.6
		c-1-1.1-0.7-2,1-3c1.3-0.7,1.3-0.8,0.8-1c-0.6-0.2-2-2.8-2-3.7c0-0.5-0.1-0.5-0.6-0.1s-0.6,0.5-0.4,2.5l0.2,2.2l-1.2,0.7
		c-0.6,0.4-1.5,0.7-2,0.7c-0.7,0-0.9-0.1-1-0.9c-0.1-0.5-0.1-1.9,0.1-3.1c0.2-1.8,0.5-2.5,1.4-4.1c0.6-1,1.1-2.1,1.1-2.4
		c-0.1-0.3-0.8-0.6-2.8-0.9c-1.5-0.2-2.9-0.5-3.2-0.6c-0.7-0.3-0.6-1.3,0.3-2.8c1-1.6,1-0.9-1.3-1.3l-2.1-0.3l0.1,10.7l0.1,10.7
		l-1,1.3c-0.5,0.7-1.8,0.6-2.2,0.7c-0.3,0.1-3.5-0.1-3.5-0.1l-3.5,0.3l-0.5,2.4c-0.5,1.7,0.7,2.2-1,2.7c-0.7,0.2-1.7-0.1-1.9,0.4
		c0,0-1,0.2-1.3,0.6c-0.4,0.5-2.2,3.3-2.3,4.7l-0.5,2.5l-2.2,1.2l-0.5,1.8l0.1,1.4c0.2,1.6,4.6,2.6,5.4,3.8c0.5,0.9,1.1,1.7,1.2,1.8
		s1-0.4,2-1c2.7-1.7,5.3-2.8,7-2.7c2.7,0.2,3.4,0.1,5.4-0.5c2.5-0.7,2.7-0.7,1.6-0.1c-1.2,0.6-4.8,1.2-6.4,1
		c-2.1-0.2-5.8,1.2-8.7,3.3c-1.3,1-0.1,0.7,1.4-0.3c2.9-2.1,4-2.4,7.3-2.5c2.2,0,3.6-0.2,5.1-0.7l2.1-0.6l1.6,0.7
		c2.5,1.1,3,1.2,4.5,0.5c2.7-1.3,3.6-0.3,3.3,3.3c-0.2,2.3,0.3,5.1,1.1,6.1C210.1,178.6,211.4,178.4,212.7,177.6z"/>
</g>
<g id="WesternUnitedStates">
	<path id="path11997" fill="#808080" d="M175.2,167.2c-0.5-3.2-0.3-3.8,1.5-4.9c1.4-0.9,1.6-1.1,1.6-2.2c0-1.7,0.5-3.3,1.2-3.9
		c0.3-0.3,0.6-0.7,0.6-1c0-0.6,1.4-1.6,2.6-2c1.5-0.4,2-1,2-2.7c0-0.9,0.2-1.8,0.6-2.2c0.5-0.6,0.8-0.6,4.4-0.6h3.9l0.9-1l0.9-1v-11
		v-11h-23.4c-20.1,0-23.3,0.1-23,0.4c0.2,0.2,0.3,1.2,0.3,2.1c-0.1,1.7-0.2,1.7-1.6,2.6c-0.8,0.5-1.7,0.8-1.9,0.7
		c-0.2-0.1,0.3-0.5,1.2-0.9c0.9-0.5,1.7-1.1,1.9-1.4c0.3-0.7-0.1-2.7-0.6-3.2c-0.7-0.7-1-0.3-0.5,0.5c1.2,1.9,0.5,3.2-2.2,4.2
		c-1,0.3-1,0.4-1,2.5c0,1.2-0.1,3.2-0.1,4.5c0,1.3-0.1,2.9,0,3.6c0,0.7-0.3,1.7-0.7,2.4c-1,1.7-1.4,4.2-1,7.5c0.3,2.9,0.9,4.8,2,6.2
		c0.3,0.5,0.9,1.3,1.1,1.9c0.2,0.6,0.6,1.2,0.9,1.3c0.5,0.2,0.5,0.1-2.1-4.6c-1-1.7-1.6-4-1-3.7c0.2,0.1,0.4,0.7,0.6,1.3
		c0.1,0.6,0.7,2,1.4,3.1c0.7,1.1,1.4,2.5,1.7,3.2c0.5,1.4,2.2,2.4,5.3,2.9c1.6,0.3,2.4,0.7,4.2,2.1l2.2,1.7h4.7h4.7l1.2,1
		c0.6,0.6,1.4,1.4,1.8,1.9c0.6,0.9,1,1,3.1,1.1C175.5,168.7,175.5,168.7,175.2,167.2z"/>
</g>
<g id="Quebec">
	<g id="path26414">
		<path fill="#CCCCCC" d="M215.9,131.9l2.2,0.2l0.7,0.1l0.9,0.1l0.9,0.5l1.1,0.7l0.9,0.6l1,0.3l1.3-0.1l1.4-0.3l0.7-0.4l0.6-0.5
			l0.7-0.9l0.6-1.1l0.7-0.7l1.9-0.9l0.6,0.3l1,0.7l0.6,0.7l0.5,1.3l0.2,1.4v1.4l-0.2,1.4l-0.3,1l0.1,1l0.7,2.5l0.3,0.5l-0.3,0.1
			l-0.4-0.1l-0.3-1l-0.3-1.5l-0.2,0.3l0.1,1.1l0.2,1l0.2,0.3l0.3,0.2l0.5,0.2h0.5l0.8-0.4l0.5-0.6l0.6-1.2l0.7-1.9l0.3-0.7
			c0,0,0.3-0.3,0.6-0.4c0.2-0.1,0.7-0.3,0.7-0.3l0.6-0.5l1.2-2.7l-0.1-0.5l-0.2-0.2l-0.7-0.1l-2.5-0.2c0,0-0.3-0.1-0.6-0.2
			c-0.3-0.1-0.1-1.2-0.1-1.2l-0.2-2.4l-0.1-0.9l-0.3-0.7c0,0-0.9-1.5-0.1-2.1s1.5-0.9,1.5-0.9s1.1-0.3,1.2-0.3c0.2,0,1.4,0,1.6,0
			c0.2,0.1,1.1-0.1,1.4-0.3s2-1.5,2-1.5l1.8-1l2-1l0.9-0.7l0.7-1.2l0.3-1.4l-0.1-0.9l-0.5-1l-1-1.3l-1-1.3l-0.5-1.1l-0.1-0.3
			l-0.3-0.6l-2.3-1.3c0,0-1.4-1-1.3-1.4c0.1-0.3-0.5-1.4-0.4-2.9c0.1-1.5-2-2.3-2-3.2c0-1-0.3-2.2-0.3-2.2s-0.5-0.9-1.5-0.4
			c-1,0.5-1.4,1.3-1.4,1.3l-0.7,1l-1.3,1.3c0,0,0.7-0.1,0,0s-0.9,0.4-1.3,0c-0.5-0.4-0.7-0.3-0.5-2.1c0.2-1.8,0.3-3.2,0.2-3.5
			s-0.5-1.7-0.5-1.7l-1.3-2l-0.5-0.7l0.2-0.2l0.9,0.6l0.7,0.5c0,0-1.8-1.8-1.7-2.2s-0.3,0.7-0.7,0.2c-0.4-0.4,6.2-7.6,5.9-7.7
			c-0.2-0.1-0.1-0.6-0.1-0.6L224,92.9l-0.7,5l-2,2.2l-0.3,2.3l1.1,4.1l-0.8,1.8l-1.8,1.6l-1.5,0.7l-0.8,1.7l0.1,1.8l0.2,3.7L217,119
			L215.9,131.9z"/>
		<path fill-opacity="0" stroke="#000000" stroke-width="2.000000e-02" d="M215.9,131.9l2.2,0.2l0.7,0.1l0.9,0.1l0.9,0.5l1.1,0.7
			l0.9,0.6l1,0.3l1.3-0.1l1.4-0.3l0.7-0.4l0.6-0.5l0.7-0.9l0.6-1.1l0.7-0.7l1.9-0.9l0.6,0.3l1,0.7l0.6,0.7l0.5,1.3l0.2,1.4v1.4
			l-0.2,1.4l-0.3,1l0.1,1l0.7,2.5l0.3,0.5l-0.3,0.1l-0.4-0.1l-0.3-1l-0.3-1.5l-0.2,0.3l0.1,1.1l0.2,1l0.2,0.3l0.3,0.2l0.5,0.2h0.5
			l0.8-0.4l0.5-0.6l0.6-1.2l0.7-1.9l0.3-0.7c0,0,0.3-0.3,0.6-0.4c0.2-0.1,0.7-0.3,0.7-0.3l0.6-0.5l1.2-2.7l-0.1-0.5l-0.2-0.2
			l-0.7-0.1l-2.5-0.2c0,0-0.3-0.1-0.6-0.2c-0.3-0.1-0.1-1.2-0.1-1.2l-0.2-2.4l-0.1-0.9l-0.3-0.7c0,0-0.9-1.5-0.1-2.1
			s1.5-0.9,1.5-0.9s1.1-0.3,1.2-0.3c0.2,0,1.4,0,1.6,0c0.2,0.1,1.1-0.1,1.4-0.3s2-1.5,2-1.5l1.8-1l2-1l0.9-0.7l0.7-1.2l0.3-1.4
			l-0.1-0.9l-0.5-1l-1-1.3l-1-1.3l-0.5-1.1l-0.1-0.3l-0.3-0.6l-2.3-1.3c0,0-1.4-1-1.3-1.4c0.1-0.3-0.5-1.4-0.4-2.9
			c0.1-1.5-2-2.3-2-3.2c0-1-0.3-2.2-0.3-2.2s-0.5-0.9-1.5-0.4c-1,0.5-1.4,1.3-1.4,1.3l-0.7,1l-1.3,1.3c0,0,0.7-0.1,0,0
			s-0.9,0.4-1.3,0c-0.5-0.4-0.7-0.3-0.5-2.1c0.2-1.8,0.3-3.2,0.2-3.5s-0.5-1.7-0.5-1.7l-1.3-2l-0.5-0.7l0.2-0.2l0.9,0.6l0.7,0.5
			c0,0-1.8-1.8-1.7-2.2s-0.3,0.7-0.7,0.2c-0.4-0.4,6.2-7.6,5.9-7.7c-0.2-0.1-0.1-0.6-0.1-0.6L224,92.9l-0.7,5l-2,2.2l-0.3,2.3
			l1.1,4.1l-0.8,1.8l-1.8,1.6l-1.5,0.7l-0.8,1.7l0.1,1.8l0.2,3.7L217,119L215.9,131.9z"/>
	</g>
</g>
<g id="Alaska">
	<g id="path27016">
		<path fill="#999999" d="M125,69l2.4,1.5l3.5,1.6l3.7,0.5l3.6,1.6l4.5,1.9c-0.1,1.8,0.2,4.2-0.5,5.3l-0.6,2.3l-0.1,7.8
			c0.3,0.6-0.1,1.1,0.1,1.7c0.3,0.7,0,0.5,0.3,0.7c0.6,0.5,0.8,2.7,1.2,2.7l1,1.6l-0.5,5.7l2,2.2l-2,3.8l-2.5-4.7l1.8,4.7v0.3
			l-1.4-2.2l-1.3-3.1l-0.1-0.5l-0.1-0.6l-0.8-0.9l-1.5-0.8l-1.3-0.7l-1.2-2l-0.7-0.9l-1.1-0.5l-2.1-0.3l-1.6-0.7l-2-1.9l-0.6-0.1
			l-1.3,1.6l-1.3,1.7l-2,1.3l-0.6,0.2l-0.2-1.3l-0.6-0.4l-0.9,0.2l-0.9,1l-0.5,1.2L119,101l-4.3,4.3l-1.6,1.3l-1.7,0.4l-0.9-0.1
			l-0.6-0.7l0.6-1.2l3.8-2l-2.1-3.5l-2.7-1.3l-1-1.9v-1.4l-2.3-2.6l-0.2-3.6l2.4-2.5h5.2l1-2.3c0,0-0.7-0.7-1.7-0.6
			c-1,0.1-4.4-0.3-4.4-0.3l-0.9-2.9c0,0,1.4-1.6,1.9-1.4c0.5,0.2,3.2,0.6,3.2,0.6l1.6,0.2c0,0,1.7,0.3,0.6-1.4
			c-1-1.7-2.8-2.9-2.8-2.9s-1.8-0.9-1-1.8c0.8-0.8,4.5,0.7,4.5,0.7s1.2,0.9,1.7-1.8C117.8,69.5,125,69,125,69z"/>
		<path fill-opacity="0" stroke="#000000" stroke-width="2.000000e-03" d="M125,69l2.4,1.5l3.5,1.6l3.7,0.5l3.6,1.6l4.5,1.9
			c-0.1,1.8,0.2,4.2-0.5,5.3l-0.6,2.3l-0.1,7.8c0.3,0.6-0.1,1.1,0.1,1.7c0.3,0.7,0,0.5,0.3,0.7c0.6,0.5,0.8,2.7,1.2,2.7l1,1.6
			l-0.5,5.7l2,2.2l-2,3.8l-2.5-4.7l1.8,4.7v0.3l-1.4-2.2l-1.3-3.1l-0.1-0.5l-0.1-0.6l-0.8-0.9l-1.5-0.8l-1.3-0.7l-1.2-2l-0.7-0.9
			l-1.1-0.5l-2.1-0.3l-1.6-0.7l-2-1.9l-0.6-0.1l-1.3,1.6l-1.3,1.7l-2,1.3l-0.6,0.2l-0.2-1.3l-0.6-0.4l-0.9,0.2l-0.9,1l-0.5,1.2
			L119,101l-4.3,4.3l-1.6,1.3l-1.7,0.4l-0.9-0.1l-0.6-0.7l0.6-1.2l3.8-2l-2.1-3.5l-2.7-1.3l-1-1.9v-1.4l-2.3-2.6l-0.2-3.6l2.4-2.5
			h5.2l1-2.3c0,0-0.7-0.7-1.7-0.6c-1,0.1-4.4-0.3-4.4-0.3l-0.9-2.9c0,0,1.4-1.6,1.9-1.4c0.5,0.2,3.2,0.6,3.2,0.6l1.6,0.2
			c0,0,1.7,0.3,0.6-1.4c-1-1.7-2.8-2.9-2.8-2.9s-1.8-0.9-1-1.8c0.8-0.8,4.5,0.7,4.5,0.7s1.2,0.9,1.7-1.8C117.8,69.5,125,69,125,69z"
			/>
	</g>
</g>
<g id="Alberta">
	<path id="path11873" fill="#808080" d="M147,122.8c-0.2-0.3-0.4-0.8-0.3-1s0.4,0.1,0.7,0.7l0.6,1h14.2h14.2l0.2-3.9
		c0.1-2.1,0.3-6.2,0.3-9.1c0.2-4.7,0.2-5.2,0.8-6.2c0.6-0.9,0.6-1.4,0.6-5.1c0-3.1,0.7-3.9,0.5-3.9c0,0-3.7,0.1-8.5-0.1
		c-6.3-0.2-7.9-0.3-8.6-0.7c-0.7-0.3-6.4-0.5-12.2-0.5h-7.1l0.2,1c0.1,0.6,0.5,1.4,0.9,1.9c0.8,0.9,0.8,0.9,0.6,3.6l-0.2,2.7
		l0.8,0.9c1.6,1.7,1.6,1.7,0.9,2.9c-0.3,0.6-1,1.8-1.5,2.6c-0.9,1.4-0.9,1.4-0.5,2.5c0.6,1.7,1.2,2.7,2.5,4.2c1,1.2,1.2,1.6,1.2,2.5
		c0,0.6-0.1,1.4-0.3,1.8c-0.2,0.5-0.2,0.2-0.1-0.7c0.2-1.7-0.3-2.8-1.7-4c-0.6-0.5-1.2-1.4-1.7-2.7c-0.4-1-0.9-1.8-1-1.8
		c-0.2,0.2,0.6,2.5,1.3,3.6c0.2,0.3,0.8,1,1.2,1.3c1.2,1,1.4,1.8,1,3.7c-0.3,1.5-0.3,1.7,0.2,2.4c0.3,0.4,0.6,0.7,0.7,0.7
		C147.4,123.5,147.2,123.2,147,122.8z"/>
</g>
<g id="SouthAfrica">
	<g id="path7935">
		<path fill="#999999" d="M338.4,221.9h-0.8l-0.9,0.3l0.1,1l0.4,1.6l0.3,1.3l1,1.2l1.1,1.3v0.9l-0.5,0.6l-0.6,0.6l-0.2,0.3
			c0,0-0.1,0.2-0.2,0.4c-0.1,0.2,0.1,0.6,0.1,0.6l0.3,0.6l0.2,0.2l0.4,0.5l0.2,0.3l0.1,0.3l0.1,0.2v0.2v0.2v0.1l-0.1,0.2l-0.1,0.2
			v0.1l-0.1,0.1l-0.1,0.2l-0.1,0.1l-0.6,1l-0.3,0.4l-0.2,0.2l-0.2,0.3l-0.1,0.2l-0.2,0.3l-0.2,0.3l-0.1,0.3c0,0-0.1,0.1-0.1,0.3
			c0,0.2,0.1,0.4,0.1,0.4l0.1,0.3c0,0,0,0.2,0,0.3s0,0.1-0.1,0.3c-0.1,0.2-0.1,0.3-0.1,0.3l-0.2,0.3l-0.2,0.2l-0.2,0.2l-0.2,0.3
			l-0.2,0.2l-0.2,0.3l-0.2,0.3l-0.1,0.2l-0.1,0.2l-0.1,0.2v0.2v0.2v0.3v0.3v0.3l0.1,0.6l0.1,0.6l0.1,0.8l0.1,0.2l0.2,0.7l0.2,0.4
			l0.3,0.5l0.3,0.4l2.7,4.2l0.2,8.7c0,0,1.8,5.6,3.6,8c1.8,2.4,1.7,4,1.7,4l-0.8,1.7c0,0-1,4.4,4.8,3.7c5.9-0.7,8.1-1.9,8.1-1.9
			l4.3-4.1l2.2-1.4l1-1.7l0.9-1.9l1.2-1l1-3.8l2.1-1.7l1.8,0.3l1.7-2l11.5-8.2l-0.3-14.7l-4.3-4.7l-2.6,2l-2.8,0.1l-1.5,1.5l-0.6,6
			c0,0-5,0.9-4.4-1.7c0.5-2.6,0.6-2.9,0.6-2.9l-0.7-4.5c0,0-3.1-1.2-2.9-2c0.2-0.7,0.5-0.9,0.5-0.9s0.1-0.5-0.1-0.5
			s-1.2-0.7-1.2-0.7h-0.6l-0.3,0.2l-0.7,0.4c0,0-0.5,0.2-0.2,1.4s0.7,1.6,0.7,1.6s0.8,0.9,0.8,0.9c0,0.1,0.1,0.9,0,0.9
			s-0.2,1.6-0.2,1.6s-0.5,0.9-0.7,0.6s-1.9,0.2-2.2-0.3c-0.3-0.5-1.8-1.6-1.8-1.6l-3.1,0.2H355l-1.1-0.9l-0.9-0.4
			c0,0-1.2-0.1-1.4-1.2c-0.2-1.2-0.2-2.9-0.2-2.9l-0.3-1L349,226l-3.1,0.5c0,0-0.9,1.3-2.7-2.4C341.3,220.3,338.4,221.9,338.4,221.9
			L338.4,221.9z"/>
		<path fill-opacity="0" stroke="#000000" stroke-width="2.000000e-03" d="M338.4,221.9h-0.8l-0.9,0.3l0.1,1l0.4,1.6l0.3,1.3l1,1.2
			l1.1,1.3v0.9l-0.5,0.6l-0.6,0.6l-0.2,0.3c0,0-0.1,0.2-0.2,0.4c-0.1,0.2,0.1,0.6,0.1,0.6l0.3,0.6l0.2,0.2l0.4,0.5l0.2,0.3l0.1,0.3
			l0.1,0.2v0.2v0.2v0.1l-0.1,0.2l-0.1,0.2v0.1l-0.1,0.1l-0.1,0.2l-0.1,0.1l-0.6,1l-0.3,0.4l-0.2,0.2l-0.2,0.3l-0.1,0.2l-0.2,0.3
			l-0.2,0.3l-0.1,0.3c0,0-0.1,0.1-0.1,0.3c0,0.2,0.1,0.4,0.1,0.4l0.1,0.3c0,0,0,0.2,0,0.3s0,0.1-0.1,0.3c-0.1,0.2-0.1,0.3-0.1,0.3
			l-0.2,0.3l-0.2,0.2l-0.2,0.2l-0.2,0.3l-0.2,0.2l-0.2,0.3l-0.2,0.3l-0.1,0.2l-0.1,0.2l-0.1,0.2v0.2v0.2v0.3v0.3v0.3l0.1,0.6
			l0.1,0.6l0.1,0.8l0.1,0.2l0.2,0.7l0.2,0.4l0.3,0.5l0.3,0.4l2.7,4.2l0.2,8.7c0,0,1.8,5.6,3.6,8c1.8,2.4,1.7,4,1.7,4l-0.8,1.7
			c0,0-1,4.4,4.8,3.7c5.9-0.7,8.1-1.9,8.1-1.9l4.3-4.1l2.2-1.4l1-1.7l0.9-1.9l1.2-1l1-3.8l2.1-1.7l1.8,0.3l1.7-2l11.5-8.2l-0.3-14.7
			l-4.3-4.7l-2.6,2l-2.8,0.1l-1.5,1.5l-0.6,6c0,0-5,0.9-4.4-1.7c0.5-2.6,0.6-2.9,0.6-2.9l-0.7-4.5c0,0-3.1-1.2-2.9-2
			c0.2-0.7,0.5-0.9,0.5-0.9s0.1-0.5-0.1-0.5s-1.2-0.7-1.2-0.7h-0.6l-0.3,0.2l-0.7,0.4c0,0-0.5,0.2-0.2,1.4s0.7,1.6,0.7,1.6
			s0.8,0.9,0.8,0.9c0,0.1,0.1,0.9,0,0.9s-0.2,1.6-0.2,1.6s-0.5,0.9-0.7,0.6s-1.9,0.2-2.2-0.3c-0.3-0.5-1.8-1.6-1.8-1.6l-3.1,0.2H355
			l-1.1-0.9l-0.9-0.4c0,0-1.2-0.1-1.4-1.2c-0.2-1.2-0.2-2.9-0.2-2.9l-0.3-1L349,226l-3.1,0.5c0,0-0.9,1.3-2.7-2.4
			C341.3,220.3,338.4,221.9,338.4,221.9L338.4,221.9z"/>
	</g>
</g>
<g id="Congo">
	<path id="path14279" fill="#CCCCCC" d="M363.5,235.5c0.6,0.6,1-1.4,0.9-1.6c0.1-0.3,0.2-1.5-0.5-2c-0.7-0.6-1.1-2.1-1-2.9
		c0.1-0.4,1.4-0.8,1.4-1.2c1,0.1,0.3-0.3-0.1-0.7c-0.3-0.4-0.4-1-0.3-3.2l0.1-2.7l1.7-2.9c2.3-3.8,2.9-4.7,5-7.2
		c1-1.2,1.8-2.3,1.8-2.5s-0.2-0.5-0.6-0.8c-0.5-0.5-1.1-0.5-4.7-0.6c-3.5-0.1-4.2-0.2-4.7-0.6c-0.3-0.3-1.3-0.7-2.1-1.1l-1.6-0.6
		v-1.5c0-1.4-0.1-1.6-1-2.6c-0.6-0.6-1.5-1.9-2-2.9c-1.6-2.9-2-3.5-2.1-3.5c-0.1,0.1-2,1.5-4.1,3.2l-3.9,3.2l-0.2,3.2
		c-0.2,5.4-1,6.3-4.7,6.4c-1.2,0-1.8,0.2-2.2,0.5c-0.7,0.6-2.1,1-3.4,1c-1.4,0-1.7,0.3-1.8,2c-0.1,1.6-0.2,1.5,2.2,5.1l1.1,3
		c0.5-0.2,2-0.3,1.7-0.3c0,0,0.7-0.2,0.8-0.2c0.3,0,1-0.3,2.4,0.4c1.4,0.5,2,3.2,2.8,3.6c0,0,0.6,1,1.2,0.9c0.1,0.1,1.5-0.3,2-0.6
		c0.3,0,0.5-0.1,0.7-0.2c1.2-0.2,2.7,1.3,2.8,1.4c0.8,0.8,0.4,4.3,0.7,4.6c0.2,0.2,1.7,1.2,2,1.2c0.1,0,0.5,0.7,1.2,0.9
		c0.9,0.3,4.2-0.3,4.4-0.2c0.4,0.1,0.7,0.6,1.8,1.6C362.1,235.8,363.3,235.3,363.5,235.5z"/>
</g>
<g id="EastAfrica">
	<path id="path14305" fill="#CCCCCC" d="M373.9,171.7L373.9,171.7c-0.1,0.1,0.4,0.8,1.1,1.6c1.6,1.8,1.1,1.8-0.6,0l-1.3-1.4
		l-4.4,0.5c-3.6,0.4-4.6,0.4-5.4,0.2c-2.7-0.9-6.6,0.5-8.4,3l-1,1.4l0.3,1.4c0.2,0.9,0.3,2.7,0.3,4.8c0,3-0.1,3.4-0.5,3.7
		c-0.5,0.3-0.5,0.7-0.5,2.5c0,2-1.1,2.4-0.1,3.7c0.6,0.8,0.6,0.9,1,1.8c0.5,1,2.1,4.2,2.8,4.8c1.2,1.1,1.8,1.4,1.8,2.5
		c0,1.4,0.1,2.5,0.9,2.5c0.1,0.5,2,0.9,2.2,1.2c0.2,0.3,1.3,0.9,3.7,0.9c4,0,5.9-0.3,6.5,0.9c0.3,0.7,0.5,0.7,0.3,1.1
		c-0.2,0.3-1.3,2.5-1.6,2.7c-1.6,1.4-3.2,3.4-3.6,4.2c-0.4,0.7-2.2,3.4-2.8,4.4c-1,1.6-0.7,2.5-0.7,2.5c-0.2,2.3-0.1,4.4,1.8,5.7
		c1,0.7,0.2,0.9,0.1,1.6c-0.1,0.7,1.5,1.4,2.1,1.7c1,0.3,0.6,1.1,0.9,2.2c0.1,0.4,0.3,1.9,0.3,2c0.3,1.3,0,1.5-0.1,2.2
		c-0.3,1.4-0.7,1.8,0.1,2.6c0.9,0.9,3.5,1.2,3.7,0.2c0.1-0.5,0.2-2,0.3-3.5c0.2-3.1,1-3.3,2.4-3.8c0.5-0.1,0.9,0.3,2.1-0.1
		c0.6,0.2,2.1-1.2,2.7-1.9c0.6-0.7-0.3-1.8-0.4-3.6c0-1.2-0.1-2-0.2-2.3c-0.6-1.2-1.6-2.2-0.4-4c1.1-1.7,5-5.7,8.8-9
		c1.1-1,2.5-2.4,3.1-3.1c1.5-1.8,3.7-5.1,3.5-5.1c-0.1,0,0-0.2,0.2-0.5c0.2-0.3,0.6-0.9,0.7-1.4s0.5-1.1,0.6-1.2
		c0.1-0.2,0.3-0.7,0.4-1.2s0.4-1.4,0.7-2s0.6-1.4,0.7-1.9c0.1-0.5,0.2-0.6,0.3-0.5c0.1,0.2-0.1,1.1-0.4,2c-0.7,2.2-1,3.7-0.6,3.3
		c0.2-0.2,0.5-1.2,0.9-2.3c1-3.3,1.4-4.7,1.2-5.3c-0.2,0.1-0.5,0.1-0.5,0.1c-0.5,0-0.7-0.2-1-0.3c-0.1,0-0.1,0-0.1,0
		c-0.9,0.1-2.7,0.5-4.2,0.8s-3.3,0.7-4.1,0.8c-1.4,0.2-1.6,0.1-2.3-0.6c-0.7-0.7-0.8-1-0.7-2.3c0.1-1.3-0.1-1.6-0.7-2.2
		c-2.4-2.2-3.6-3.2-4.3-3.4c-1-0.3-1.4-1.2-1.4-2.9c0-1.2-0.1-1.3-1.4-2.5l-1.4-1.2l0.6-0.5c0.6-0.5,0.7-1,0.3-1.5
		c-0.1-0.1-0.3-0.6-0.3-0.9c-0.1-0.6-0.1-0.5-0.2,0.2s-0.1,0.9-0.4,0.6s-0.4-0.2-0.5,0.1c-0.2,0.5-1.3,0.6-1.3,0.2s1.2-1.1,1.4-0.9
		c0.2,0.1,0.2-0.3,0.1-1.1c-0.1-1.1-0.3-1.5-1.6-2.7C374.7,172.3,374.1,171.7,373.9,171.7z"/>
</g>
<g id="Egypt">
	<path id="path13777" fill="#CCCCCC" d="M354.9,175c0.5-0.7,1.2-1.3,2.7-2c2.4-1.2,4.3-1.4,6.3-1c1.2,0.3,2,0.3,4.4,0
		c1.6-0.2,3.3-0.4,3.7-0.5c0.7-0.2,0.7-0.2,0.4-0.9c-0.2-0.3-0.7-1.5-1.3-2.5c-0.5-1-1.2-2.1-1.5-2.6c-0.3-0.5-0.7-1.2-0.9-1.6
		c-0.3-0.9-0.1-3.2,0.4-3.7c0.4-0.4,0.2-1.2-0.7-2c-0.3-0.3-0.8-0.9-1-1.3c-0.3-0.7-0.5-0.7-1-0.4c-0.7,0.5-3.2,0.9-3.2,0.6
		c0-0.1,0.5-0.2,1.1-0.3c0.6-0.1,1.5-0.3,2-0.6l0.9-0.5l0.6,0.9c1.5,2,2.1,3.1,2,3.4c-0.1,0.2-0.2,0.3-0.3,0.3
		c-0.1,0-0.3,0.6-0.5,1.4c-0.3,1.3-0.3,1.4,0.7,3.2c0.6,1,1.6,2.8,2.2,4c1.3,2.3,1.7,2.9,1.7,2.4c0-0.2-0.7-1.6-1.6-3.1
		c-2.6-4.7-2.8-5-2.7-6c0.1-0.5,0.4-1.1,0.7-1.3c0.6-0.5,0.6-0.5,0.1-1.4c-0.5-0.8-1.6-2.4-2.6-3.7c-0.4-0.5-0.4-0.5-1.8,0.2
		c-1.2,0.6-1.6,0.7-3,0.6c-2.3-0.2-3.7-0.7-7.1-2.8c-1.6-1-3.1-1.7-3.2-1.7c-0.5,0-1,0.5-1.1,1c-0.2,2.3-0.5,3.7-0.9,3.9
		c-0.6,0.5-2.4,0.1-4-0.9c-3.1-1.8-3.7-2.5-4.2-3.4c-0.5-1-0.6-1-2.9-1.3c-1.8-0.2-1.3,0.3,0.6,0.6c1.2,0.2,1.5,0.3,2,1.2
		c0.9,1.3,5.3,4.4,6.3,4.4c0.2,0,0.4,0.1,0.4,0.3c0,0.6-1,0.2-3-1c-2.5-1.6-4-2.8-4.3-3.7c-0.2-0.6-0.5-0.7-1.2-0.7
		c-0.5,0-1.3-0.1-1.7-0.3c-0.7-0.3-0.9-0.2-1.7,0.7c-0.5,0.6-0.9,1.2-0.9,1.3c0,0.2-0.5,0.9-1,1.6c-1.2,1.7-1.2,2.7-0.3,5.9
		c1.1,3.7,1.7,4.8,3.9,7.1l2.1,2.1l1.7-0.1c1.5-0.1,1.8,0.1,3,0.8c0.7,0.5,2,1.1,2.7,1.3c1,0.3,1.5,0.7,1.8,1.3
		c0.3,0.5,0.6,0.9,0.7,0.9s0.7,0.5,1.4,1c1.1,0.9,1.2,0.9,1.7,0.5C354.1,176.2,354.6,175.6,354.9,175z"/>
</g>
<g id="NorthAfrica">
	<g id="path8787">
		<path fill="#B3B3B3" d="M308.8,152.7l-1.2,2l-1,2.8l-1.4,3.2l-2.1,2.4l-1.8,6.4l-1.4,1.1l-0.7,1.4l1.3,4.6v1.3l-0.4,1.7l-1,1.7
			l-0.9,1.2l-0.2,3.6l1,3.5l1.7,3.3l1.9,1.4l1.1,2.9l0.2,1.6l1.7,1.4l3.7,3.9l3.6,0.2l1.7-1.2l1.6-0.1l2,1.4l1.4,0.4l0.9-0.6l1.9-1
			l1.7-0.3l1.7-0.5l1.2,0.3l0.7-0.2l1.4,1.4l0.7,1.4l1.9,0.5l1.8,0.3l1.2,0.6l0.7,1.5l-1.6,3.6l3.7-0.7l1.7-1l1.2-0.1l2.2-0.2
			l1.3-0.4l0.4-0.3l0.3-0.8l0.2-0.9l0.3-2.9l0.1-2.4l-0.1-1.5l1.4-1.2l1.3-1.2l5.5-3.9l-0.7-1.9l0.7-5.8c0.9,0.1,0.7-0.9,0.7-1.5
			l0.1-4.8l-0.6-2.5l-2.9-2.4l-1.7-1.7l-3.9-1.8c-0.6-1-2.9-0.6-4.4-0.7l-2.9-2.8c0,0-6.1-7.4-2.9-13.1c2.3-4,2.1-2.4,2.7-3.7
			c0.3-0.6,0.9-0.5,0.9-0.5s1.6,0.2,1.3-0.6s-1-1.1-1-1.1l-2.1,0.1c0,0-5.4-0.2-7.7-1.8c-2.3-1.6-6.5-1.2-6.5-1.2l-2.2,0.2l-1.7,1.1
			c0,0-2.8,0.4-5.1-0.4C311.3,146.6,308.8,152.7,308.8,152.7L308.8,152.7z"/>
		<path fill-opacity="0" stroke="#000000" stroke-width="2.000000e-03" d="M308.8,152.7l-1.2,2l-1,2.8l-1.4,3.2l-2.1,2.4l-1.8,6.4
			l-1.4,1.1l-0.7,1.4l1.3,4.6v1.3l-0.4,1.7l-1,1.7l-0.9,1.2l-0.2,3.6l1,3.5l1.7,3.3l1.9,1.4l1.1,2.9l0.2,1.6l1.7,1.4l3.7,3.9
			l3.6,0.2l1.7-1.2l1.6-0.1l2,1.4l1.4,0.4l0.9-0.6l1.9-1l1.7-0.3l1.7-0.5l1.2,0.3l0.7-0.2l1.4,1.4l0.7,1.4l1.9,0.5l1.8,0.3l1.2,0.6
			l0.7,1.5l-1.6,3.6l3.7-0.7l1.7-1l1.2-0.1l2.2-0.2l1.3-0.4l0.4-0.3l0.3-0.8l0.2-0.9l0.3-2.9l0.1-2.4l-0.1-1.5l1.4-1.2l1.3-1.2
			l5.5-3.9l-0.7-1.9l0.7-5.8c0.9,0.1,0.7-0.9,0.7-1.5l0.1-4.8l-0.6-2.5l-2.9-2.4l-1.7-1.7l-3.9-1.8c-0.6-1-2.9-0.6-4.4-0.7l-2.9-2.8
			c0,0-6.1-7.4-2.9-13.1c2.3-4,2.1-2.4,2.7-3.7c0.3-0.6,0.9-0.5,0.9-0.5s1.6,0.2,1.3-0.6s-1-1.1-1-1.1l-2.1,0.1c0,0-5.4-0.2-7.7-1.8
			c-2.3-1.6-6.5-1.2-6.5-1.2l-2.2,0.2l-1.7,1.1c0,0-2.8,0.4-5.1-0.4C311.3,146.6,308.8,152.7,308.8,152.7L308.8,152.7z"/>
	</g>
</g>
<g id="NewGuinea">
	<path id="path14065" fill="#CCCCCC" d="M493.7,176.8c-0.4,0-0.9,0.3-1.4,0.9c-0.3,0.5-0.9,1.2-1.3,1.6c-0.5,0.6-0.5,0.8-0.2,0.8
		c0.2,0,0.5-0.1,0.7-0.3c0.2-0.2,0.3-0.2,0.5,0c0.2,0.3-0.8,0.9-1.2,0.7c-0.6-0.4-0.7,0.6-0.1,1.2c0.3,0.3,0.7,1.1,0.8,1.6
		c0.1,0.5,0.5,1.1,0.8,1.3c0.3,0.2,0.7,0.7,0.8,1.2c0.1,0.5,0.3,0.9,0.5,1c0.2,0.1,0.4,0.5,0.5,0.8s0.6,0.8,1.2,1
		c0.7,0.3,0.8,0.4,0.3,0.4c-0.9,0.1-1.1,1.1-0.5,2.1c0.4,0.6,0.5,0.7,0.6,0.3c0.2-0.8,0.8-0.5,1,0.4c0.1,0.7,0.2,0.8,0.5,0.5
		c0.4-0.6,0.3-1.4-0.2-2c-0.3-0.4-0.3-0.5-0.1-0.5c0.2,0,0.2-0.1-0.2-0.4c-0.9-0.7-0.3-0.7,2,0c2.1,0.6,2.2,0.7,2.5,1.7
		c0.4,1.3,0.4,3.9,0,5.5c-0.3,1.4-0.2,1.7,1.3,1.7c0.5,0,0.9,0.2,1,0.4c0.1,0.3,0.5,0.4,1.4,0.2c1-0.1,1.4-0.1,1.8,0.3
		c1.1,1,2,1.4,3.5,1.6c0.9,0.1,2,0.2,2.5,0.3c0.8,0.1,0.9,0.1,1.4-0.9c1.3-2.5,3.9-1.7,5.1,1.5c0.4,1,0.6,1.2,1.3,1.2
		c0.5,0,1.4,0.2,2.1,0.5c1.4,0.6,1.8,0.5,2.3-0.5c0.2-0.4,0.4-1.3,0.4-1.8c0-0.9-0.2-1.2-1.1-1.8c-1.4-1-1.8-1.8-1.4-2.5
		c0.2-0.5,0.2-0.6-0.4-0.9c-0.3-0.2-0.8-0.6-1-1c-0.3-0.6-0.2-0.8,0.6-1.5c0.5-0.5,0.9-1,0.9-1.2c0-0.5-1.1-1.7-2.1-2.2
		c-1.3-0.7-2-2-2-3.5v-1.3l-1.7-0.5c-1.4-0.4-2.1-0.8-4.3-2.8c-3.7-3.3-6-4.4-8.6-4c-1.7,0.2-2,0.7-2,2.8c0,1-0.1,2.1-0.3,2.4
		c-0.2,0.6-0.4,0.7-1.2,0.6c-1.2-0.1-2.1-1.7-2.1-3.7v-1.4h-1.2c-1.2,0-2.4-0.6-3.1-1.6C494.1,177,493.9,176.8,493.7,176.8
		L493.7,176.8z"/>
</g>
<g id="Indonesia">
	<g id="path8904">
		<path fill="#CCCCCC" d="M480.2,211.8l-2.1-1.2l-1-0.6l-0.1,2l-0.7,0.2l1.6,1.4l1.1,2.3l-0.5,1.7l-7,0.8l-7.6-1.1l-0.2-2.8
			l-2.1,1.1c0,0-4-2.9-4.9-3.9c-0.9-1-0.9-2.8-5.3-6.5c-4.4-3.6-7.1-12.5-6.7-12.9s1.3-1.9,1.3-1.9l1.5-0.1l5.5,2.5l3.5,3.5l4.6,6.1
			l0.3-0.5c0,0-0.5-3.7-0.5-5.7c0.1-2,0.6-1.4,0.6-1.4s1.1,0.5,1.4,0.5c0.3-0.1,1.4-1.2,1.4-1.2l2.1-3.3l1.1-1l1.7-2.6l0.2-0.9
			l0.5-0.7l2.7-0.2l0.7-0.2l-0.3-1.2l-0.6-0.2l1.6,0.1l0.3,1.3l10.4,5.1l4.7,2.2v1.1l-0.3,0.6l-1.2,1.6l-1.8,14.3l-0.6,3.3l-1,0.2
			l-0.3-0.7l-1-1c0,0-2.1-1.7-1.8-1C481.9,211.4,480.2,211.8,480.2,211.8z"/>
		<path fill-opacity="0" stroke="#000000" stroke-width="2.000000e-03" d="M480.2,211.8l-2.1-1.2l-1-0.6l-0.1,2l-0.7,0.2l1.6,1.4
			l1.1,2.3l-0.5,1.7l-7,0.8l-7.6-1.1l-0.2-2.8l-2.1,1.1c0,0-4-2.9-4.9-3.9c-0.9-1-0.9-2.8-5.3-6.5c-4.4-3.6-7.1-12.5-6.7-12.9
			s1.3-1.9,1.3-1.9l1.5-0.1l5.5,2.5l3.5,3.5l4.6,6.1l0.3-0.5c0,0-0.5-3.7-0.5-5.7c0.1-2,0.6-1.4,0.6-1.4s1.1,0.5,1.4,0.5
			c0.3-0.1,1.4-1.2,1.4-1.2l2.1-3.3l1.1-1l1.7-2.6l0.2-0.9l0.5-0.7l2.7-0.2l0.7-0.2l-0.3-1.2l-0.6-0.2l1.6,0.1l0.3,1.3l10.4,5.1
			l4.7,2.2v1.1l-0.3,0.6l-1.2,1.6l-1.8,14.3l-0.6,3.3l-1,0.2l-0.3-0.7l-1-1c0,0-2.1-1.7-1.8-1C481.9,211.4,480.2,211.8,480.2,211.8z
			"/>
	</g>
</g>
<g id="Madagascar">
	<path id="path14441" fill="#666666" d="M386.5,285.7c0.9-0.8,2.1-0.9,2.8-0.3c0.3,0.3,0.7,0.6,0.9,0.6c0.5,0,1.9-2.5,1.9-3.4
		c0-1,0.6-1.9,1.4-2.1c0.6-0.2,1-0.7,3.1-4.8c3.3-6.5,3.7-7.6,3.9-10.1l0.2-2.4l1.4-1.4c1.2-1.3,1.4-1.7,1.8-3.3
		c0.2-1,0.4-2.2,0.4-2.5c0-0.7-2.5-5.8-3.2-6.5c-0.5-0.5-0.6-0.4-1.3,1.5c-0.7,2-1,2.4-1.8,2.1c-1-0.2-1.3,0.1-1.4,1.6
		c-0.1,1.1-0.2,1.4-0.7,1.6c-0.3,0.1-0.7,0.6-1,1.1c-0.2,0.5-0.9,1.2-1.6,1.6c-1,0.7-1.4,0.8-2.7,0.7c-1.1-0.1-1.7,0.1-2.4,0.5
		c-0.5,0.3-0.9,0.5-0.9,0.3s-0.2-0.3-0.4-0.3c-0.5,0-1.3,1.1-1,1.5c0.4,0.6,0.3,3.5-0.1,4.2c-0.5,0.7-0.5,2.4-0.1,2.7
		c0.7,0.5-0.3,4.2-1.1,4.2c-0.2,0-0.8,0.7-1.5,1.7c-1.4,1.9-1.6,3-0.6,4.2c0.6,0.7,0.6,1.5,0,3c-0.3,0.7-0.2,0.9,0.9,2.8
		C384.9,286.7,385.3,286.8,386.5,285.7z"/>
</g>
<g id="Slam">
	<path id="path13821" fill="#B3B3B3" d="M464,140.6c-0.2,0-0.3,0.1-0.6,0.2c-1.4,0.7-2.2,1.6-3,3.3c-0.5,0.9-1.6,2.8-2.6,4.3
		l-1.8,2.7l0.7,1c0.3,0.5,1.6,2.8,2.7,5.1c1.4,2.9,2.4,4.4,3.2,5.3l1.2,1.2l1.6-0.2c1.5-0.2,1.7-0.1,2.8,0.7c0.6,0.5,1.1,1,1,1.1
		c-0.1,0.2-0.1,0.3,0.1,0.3c0.4,0,1.3,2,1.8,3.8c0.3,1.4,0.3,2,0.1,3.7c-0.3,2.3-0.8,3.1-0.5,0.9c0.4-2.9,0.3-4.4-0.5-6.2
		c-0.8-1.8-2.2-3.4-3.2-3.7c-0.3-0.1-1.3-0.1-2-0.1c-1.4,0.1-1.4,0.1-2.9-1.3c-0.8-0.8-1.4-1.6-1.4-1.7c0-0.4-3.4-7.1-4.2-8.3
		c-0.9-1.3-1.1-0.7-0.2,0.5c0.4,0.6,1.6,2.8,2.5,4.9c2.8,5.5,3.9,6.7,6.3,6.3c1-0.1,1.5-0.1,2,0.2c2,1.3,3.4,4,3.4,6.3
		c0,0.7-0.1,2.1-0.3,3.1c-0.4,2.3-0.2,2.9,1.2,4.5c0.6,0.7,1.1,1.4,1.1,1.6c0,0.6,2.5,4,3.1,4.3c0.9,0.3,2.5,0.3,2.8-0.1
		c0.2-0.2,0.2-0.5-0.3-1.1c-0.3-0.5-0.7-1-0.7-1.3s-0.2-0.7-0.5-0.9c-0.9-0.6-1.2-1.6-1.1-3.6c0.1-1.8,0.1-2-0.5-2.1
		c-1.4-0.5-2.3-4.8-1.3-5.8c0.5-0.5,0.5-0.5,1.2-0.1c0.3,0.2,0.7,0.7,1,1.3c0.3,0.9,0.6,1.2,1.7,1.5c1.6,0.5,2.8,2,3.3,3.8
		c0.9,3.5,0.9,3.5,1.4,3.2c0.3-0.1,0.9-0.5,1.2-0.9c0.6-0.6,0.7-0.6,0.9-0.2c0.4,0.7,0.5,0.7,0.9,0.2c0.4-0.5,0.4-0.5,0.4,0.2
		c0,0.6,0.1,0.6,0.3,0.2c0.2-0.3,0.2-0.6,0.1-0.7c-0.1-0.1-0.1-0.3,0.1-0.4c0.4-0.2,0.3-0.7-0.1-0.7c-0.7,0-0.7-0.9-0.1-1.6
		c0.5-0.5,0.8-1.7,1.3-3.9c0.7-3.6,0.7-5.8-0.1-6.2c-1-0.6-1.7-1.6-2.3-3.3c-0.6-1.7-2.6-4.7-4.1-6.2c-1-0.9-1.6-2.4-1.6-3.6
		c0-1.2,0.2-1.6,1.3-2.8c0.5-0.6,0.8-1.1,0.7-1.2c-0.1-0.1-0.6,0.3-1.2,0.9c-1.8,2-1.7,4.6,0.3,6.7c1.7,1.8,3.7,4.9,4.2,6.5
		c0.3,1,0.9,1.8,1.7,2.6c1.1,1.1,1.2,1.2,1.2,2.6l-0.1,1.4l-0.1-1.4c-0.1-1.2-0.2-1.5-0.8-1.9c-1.1-0.7-1.6-1.5-2.1-3
		c-0.5-1.6-2.2-4.3-4-6.2c-1.4-1.4-1.8-2.6-1.8-4.4c0-1.3,0.2-1.9,1.6-3.5l0.9-1.1l-1.7-1.9l-1.7-1.9l-1.4,1.3
		c-0.8,0.7-1.8,1.8-2.2,2.3c-1,1.3-1.9,1.7-2.9,1.2c-1.3-0.7-3.2-2.7-4.1-4.3c-0.5-0.8-1.3-2-1.8-2.7
		C464.4,140.9,464.2,140.6,464,140.6z"/>
</g>
<g id="Afghanistan">
	<path id="path13415" fill="#CCCCCC" d="M413.9,125.2c0.8-1.7,1.6-2.5,2.6-2.5c1.3,0,2.2-0.6,3-1.9c1.1-1.7,2-1.8,4.2-0.6
		c0.9,0.5,1.7,1,2,1.3c0.4,0.3,0.6,0.2,2-0.7c2.5-1.8,2.7-2.9,1-4.6c-1.4-1.4-1.9-2.5-1.9-4.4c0-1.3,0.1-1.7,0.8-2.5
		c0.5-0.5,1.2-1.2,1.6-1.3c0.5-0.2,1.6-1.5,2.7-3c1.6-2.3,1.8-2.8,2-4.2c0.1-1.2,0-1.8-0.3-2.5c-0.6-1.1-0.6-1.8-0.1-2.8
		c0.5-0.9,0.3-1.3-1.9-3.7c-1.3-1.4-1.5-1.5-1.9-1.2c-0.7,0.6-1.4,0.5-2.4-0.5c-0.7-0.8-0.9-0.8-2.2-0.7c-1.3,0.2-1.7,0.1-3.1-0.7
		c-1.5-0.7-1.7-1-2-2.1c-0.3-1.3-0.4-1.3-1.3-1.1c-1.4,0.2-2.2-0.6-3-2.7c-0.5-1.4-1-2.1-2.7-3.8c-1.1-1.2-2-2.3-2-2.6
		s-0.2-0.7-0.4-0.9c-0.3-0.3-0.5-0.2-1.2,0.3c-0.4,0.4-1.2,0.9-1.7,1.1s-1.4,0.8-2,1.3c-1.7,1.4-3.2,1.9-4.7,1.5
		c-2.7-0.7-2.7-0.7-3.6,0.4c-0.9,1-1.3,1.1-3.6,1c-0.8-0.1-1.2,0.1-1.8,0.7c-0.5,0.5-1.2,0.8-2.1,0.9c-0.7,0.1-1.3,0.3-1.3,0.5
		c-0.1,0.2-0.2,0.9-0.4,1.7c-0.2,0.7-0.6,1.7-1,2.2c-0.9,1.1-0.9,3.3,0,5c0.3,0.7,1,1.8,1.3,2.5c0.3,0.7,0.9,1.6,1.2,2l0.5,0.6
		l0.6-0.6c0.3-0.3,0.9-0.7,1.2-0.7c0.3-0.1,0.6-0.3,0.6-0.4c0-0.3,1.3-0.6,2.1-0.4c0.8,0.2,1.9,2,2.1,3.5c0.2,1.3-0.2,2.4-1.4,3.6
		c-0.9,1-1,1.1-0.7,2.3c0.1,0.7,0.1,1.3-0.1,1.3c-0.1,0-0.3-0.7-0.3-1.6c-0.1-1.4,0-1.6,0.9-2.4c1.2-1,1.5-2.3,1-3.9
		c-0.7-2.5-2.1-3.1-4-1.8c-0.6,0.4-1.1,0.7-1.2,0.7c-0.1,0-0.4,0.2-0.7,0.5c-0.5,0.5-0.5,0.5-1-0.1c-0.2-0.3-0.7-1.2-1.2-2
		c-0.3-0.7-1-1.8-1.3-2.3c-0.5-0.7-0.7-1.4-0.8-3.1c-0.1-2.1-0.1-2.1,0.7-3c0.7-0.8,1-1.5,1.2-3.5c0.1-0.6,0.2-0.7,1.4-0.9
		c0.9-0.1,1.7-0.5,2.4-1.1c1-0.8,1.2-0.9,2.4-0.7c1.8,0.3,2.5,0,3.2-1.2c0.6-1.2,1.1-1.2,3.2-0.5c1.8,0.6,3.2,0.2,4.7-1.1
		c0.6-0.5,1.8-1.3,2.7-1.7c0.9-0.4,1.6-0.9,1.6-1c0-0.3-3.4,1.4-4.3,2.2c-1.5,1.4-3.5,1.8-5.1,0.9c-1.2-0.6-2.7-0.2-3.2,1l-0.3,0.9
		l-1.7-0.1c-1.4-0.1-1.9-0.1-2.7,0.5c-0.6,0.3-1.1,0.7-1.2,0.9c-0.1,0.2-0.7,0.3-1.3,0.3s-1.3,0.1-1.4,0.2s-0.5,1-0.6,2
		c-0.2,1.2-0.5,2-1,2.5c-0.6,0.6-0.7,1-0.7,2.8c0,1.8,0.1,2.2,0.7,3.2c0.4,0.6,1,1.6,1.3,2.4c0.3,0.7,1.1,1.8,1.6,2.5
		c0.9,1,1,1.2,1.2,0.7c0.5-1.3,3.1-2.8,4-2.3c0.7,0.4,1.3,2,1.3,3.4c0,0.9-0.2,1.3-1.1,2.1l-1.1,1l0.2,2.4c0.2,2.2,0.2,2.4,0.9,2.7
		c0.3,0.2,0.9,0.3,1,0.3c0.2,0,0.6,0.3,0.9,0.7c0.4,0.6,0.4,0.9,0.2,1.8c-0.4,1.6,0,2.9,0.9,3.1c0.4,0.1,0.9,0.4,1.2,0.7
		c0.5,0.5,0.5,0.6,0.1,1.6c-0.6,1.4-0.5,2,0.3,2.5c0.8,0.4,1.1,1.4,1.2,3.3c0,0.4,0.1,0.7,0.3,0.7c0.3,0,0.3-1.8,0-3.1
		c-0.2-0.6-0.5-1.1-1-1.3c-0.8-0.3-0.9-0.7-0.3-2.1c0.3-0.9,0.3-1-0.1-1.6c-0.2-0.3-0.9-0.8-1.4-1c-1-0.4-1.1-0.9-0.6-3.1
		c0.2-1,0.2-1,0.2,0.5c-0.1,1.4,0.1,1.7,0.5,2c1.7,0.9,2,1.3,2,2.4c-0.1,0.6-0.2,1.3-0.3,1.6c-0.2,0.5-0.2,0.6,0.5,1
		c0.7,0.5,1.1,1.5,1.1,3.5c0,0.9,0.1,0.9,1,0.7c2.1-0.3,5.8,1.3,6.6,2.9c0.7,1.3,1.9,2.1,3.2,2C413.1,126.8,413.2,126.7,413.9,125.2
		L413.9,125.2z"/>
</g>
<g id="China">
	<path id="path13599" fill="#CCCCCC" d="M439.8,85.2L439.8,85.2c-0.2,0.1-0.2,0.6-0.1,1.3c0.2,1.1,0.1,1.1-1.1,1.7
		c-0.7,0.3-1.3,0.7-1.3,0.9s-0.2,0.8-0.5,1.3c-0.3,0.6-0.7,1.6-0.8,2.3c-0.2,0.7-0.5,1.5-0.6,1.7c-0.2,0.2-0.6,0.9-0.9,1.4
		c-0.6,1-0.6,1.1-0.1,1.8c0.6,0.9,0.6,4.2,0.1,5.2c-1,1.8-4,5.7-4.7,5.9c-0.4,0.2-1,0.6-1.4,1c-0.8,0.9-0.8,2.7,0.1,4
		c0.9,1.4,2.5,2.6,3.2,2.4c0.9-0.2,1.9,0.6,2.2,1.8l0.3,1l2,0.2l2,0.2l0.1,3.6c0.1,3.6,0.1,3.6-0.7,4.9c-0.5,0.7-0.8,1.4-0.8,1.6
		c0,0.2,0.6,0.6,1.3,0.8c0.7,0.3,2.1,1.1,3.2,1.8c1.6,1.1,2.1,1.3,3.2,1.3c0.9,0,1.8,0.2,2.9,0.9c0.9,0.5,2.1,0.9,2.8,1
		c0.9,0.1,1.3,0.3,2,1.2c1,1.2,1.6,1.3,3.5,0.6c2.6-0.9,5.1,0.2,6.1,2.8c0.5,1.3,0.8,1.4,1.6,0.8c0.9-0.7,2.1-0.5,3,0.5
		c0.7,0.8,2.3,3.1,3,4.3c0.1,0.2,0.9,1,1.7,1.7l1.4,1.3l0.8-0.9c1.8-2.2,4.2-4.3,4.8-4.3c0.5,0,1.3,0.7,2.9,2.3
		c1.6,1.7,2.4,2.2,2.7,2.1c0.6-0.2,1.7,0.5,2.1,1.5l0.3,0.9l0.7-0.7c0.4-0.4,0.8-1,0.8-1.3c0-0.3,0.2-1,0.5-1.4
		c0.5-0.7,0.7-0.9,1.4-0.9l0.9,0.1l-1,0.3c-0.9,0.2-1,0.4-1.3,1.6c-0.3,1.3-1.4,2.8-2.1,2.8c-0.2,0-0.4-0.2-0.5-0.5s-0.5-0.9-1-1.3
		c-0.6-0.6-0.9-0.7-1.2-0.5c-0.2,0.2-0.2,0.3,0.1,0.3c0.2,0,0.9,0.7,1.4,1.5c0.9,1.4,1.7,2,1.7,1.2c0-0.2,0.3-0.7,0.8-1.2
		c0.5-0.6,0.9-1.3,1-2.1l0.2-1.2l1.3-0.1l1.3-0.1l0.4-1.4c0.3-1.3,0.6-1.6,1.6-2.1c2.9-1.5,4.1-3.1,4.4-5.6c0.1-0.9,0.3-1.9,0.6-2.2
		c0.3-0.5,0.3-0.9,0.1-2.2c-0.3-1.4-0.3-1.7,0.1-2.6c0.2-0.5,0.6-1,0.9-1.1c0.6-0.2,0.5-0.6-0.5-1.8c-1.1-1.2-1.2-2-0.4-2.9
		c0.6-0.8,0.7-2,0.1-2.5c-0.3-0.2-0.4-0.7-0.3-1.4c0.1-1.5-1.2-4-2.4-4.8s-2.5-2.3-2.5-3c0-0.3-0.1-0.5-0.3-0.5
		c-0.4,0-0.3,0.8,0.1,1.6c0.2,0.3,1,1.2,1.8,1.8c1.7,1.3,2.7,3.1,2.7,4.8c0,0.7,0.2,1.5,0.4,1.8c0.5,0.7,0.5,1.5-0.1,2.3
		c-0.3,0.3-0.5,0.9-0.5,1.2c0,0.6,0.7,1.8,1.3,2.1c0.4,0.2,0.5,1.2,0.1,1.4c-0.2,0.1-0.5,0.6-0.8,1.2c-0.5,1-0.5,1.1-0.1,2.4
		c0.4,1.3,0.4,1.4-0.1,2.4c-0.3,0.6-0.6,0.9-0.6,0.6s0.2-0.7,0.4-1c0.4-0.5,0.3-0.7-0.1-2c-0.5-1.5-0.3-2.5,0.7-3.7
		c0.5-0.6,0.5-0.6-0.3-1.4c-1-1.1-1.2-2.6-0.2-3.8c0.6-0.7,0.6-0.8,0.1-1.3c-0.3-0.3-0.5-1.1-0.6-2.2c-0.1-2-0.8-3.1-2.7-4.5
		c-1.4-1.1-2-1.8-2.2-3.1c-0.1-0.5-0.3-0.9-0.4-1c-0.1-0.1-1.7-0.4-3.6-0.7c-2.6-0.5-3.5-0.5-4-0.3c-1,0.5-1.9,0.3-3.6-0.5l-1.6-0.8
		l-1.2,0.6c-0.7,0.3-1.7,0.6-2.2,0.6c-0.8,0-1.1-0.1-1.4-0.7c-0.3-0.6-0.6-0.7-2.2-0.8c-1-0.1-2.7-0.1-3.7-0.1
		c-2.7,0.1-4.4-0.5-4.9-1.3c-0.3-0.6-2.2-1.8-3.7-2.3c-0.2-0.1-1.2-1-2-2.1c-0.8-1.1-2-2.4-2.6-2.8L454,100v-2.1
		c0-1.7-0.1-2.2-0.6-2.8c-0.3-0.4-0.7-0.7-1-0.7s-1.1-0.3-1.9-0.7c-1.4-0.7-1.5-0.7-2-2.4c-0.8-2.7-1.6-4-2.1-3.8
		c-0.7,0.3-2.2,0.5-2.9,0.3c-0.3-0.1-1.3-0.6-2-1.3C440.8,85.6,440.1,85.2,439.8,85.2z"/>
</g>
<g id="Mongolia">
	<path id="path13231" fill="#B3B3B3" d="M484.5,70c-0.1,0-0.1,0.1-0.2,0.1c-0.2,0.2-0.9,0.4-1.7,0.6c-0.7,0.2-1.6,0.3-1.9,0.4
		c-0.5,0.1-0.6,0.4-0.7,2.4c-0.2,2.8-1,5.6-2,6.7c-0.7,0.9-0.7,0.9-2.4,0.7c-1.7-0.2-2-0.1-4.6,1.3c-1.2,0.6-6.5,0.3-8.5-0.5
		c-1.4-0.5-1.5-0.6-2.2-0.1c-1.1,0.6-3.1,0.6-3.9-0.1c-0.3-0.3-1-0.6-1.5-0.7c-2-0.4-2-0.4-1.8,0c0.1,0.2-1,0.7-1.4,1.4
		c-0.6,1.6-1,2.2,0.2,4.9l1.1,2.1l-0.7,1.4c-0.6,2.1-0.5,2.8,1.2,3.6c0.5,0.6,0.9,1.6,0.9,3.2c0.1,2,0.1,2.1,1,2.7
		c0.5,0.3,1.6,1.5,2.4,2.5c1.3,1.6,1.7,2,2.9,2.5c1.4,0.5,2.6,1.4,3.1,2.4c0.2,0.4,0.7,0.5,2.9,0.6c7.2,0.2,6.9,0.2,7.6,1
		c0.5,0.6,0.7,0.7,1.6,0.6c0.6-0.1,1.1-0.3,1.2-0.4c0.3-0.5,2.4-0.2,3.7,0.5c1.2,0.7,1.4,0.7,2.4,0.3c1.2-0.4,2.3-0.2,6.7,0.7
		l1.8,0.4l1-0.7c1.4-1.1,1.3-2-0.2-1.3c-1.3,0.7-2.5,0.4-3-0.7c-0.2-0.5-0.7-1-1-1.2c-1.6-0.9-1.6-2.2,0.1-4.7
		c1.2-1.7,2.9-3.2,3.2-2.8c0.1,0.1-0.2,0.3-0.6,0.6c-1,0.5-3.4,4-3.4,5c0,0.6,0.6,1.4,1.4,1.8c0.1,0.1,0.4,0.5,0.6,0.9
		c0.5,0.9,1.4,1.2,2.7,0.7c1.6-0.6,2.1,0.7,0.7,1.9c-0.5,0.4-0.7,0.7-0.6,0.7c0.5,0,2-1.6,2-2.1c0-0.3-0.3-0.7-0.7-1
		c-0.7-0.5-0.8-0.5-1.7-0.1c-1.3,0.6-1.7,0.6-2.1-0.5c-0.2-0.5-0.7-1.2-1.2-1.4c-1-0.5-1-1-0.2-2.3c0.3-0.5,0.9-1.4,1.3-2
		c1.6-2.4,3.6-2,2.9,0.7c-0.4,1.6,0.1,1.9,1.2,0.8c1.5-1.6,3.3-0.9,3.3,1.4c0,1.3,0.2,1.4,1.4,1c0.9-0.3,1.1-0.2,1.6,0.2
		c0.3,0.3,0.6,0.9,0.6,1.3s0.1,1.6,0.3,2.5c0.3,1.6,0.3,1.7,1,1.7c0.6,0,0.8-0.2,1.2-1.4c0.3-0.7,0.6-1.4,0.7-1.6
		c0.2-0.1,0.5-0.6,0.6-1.1c0.3-0.8,0.3-1,0-1.8c-0.2-0.5-0.6-1-0.8-1s-1.4-1-2.6-2.3c-1.4-1.5-2.2-2.1-2.2-1.8
		c0,0.5,2.4,2.9,4.6,4.8c1,0.9,1,1.6-0.1,3.2c-0.3,0.5-0.7,1.3-0.9,1.7c-0.2,0.4-0.4,0.7-0.5,0.7c-0.3,0-0.9-2.8-0.8-3.7
		c0.1-0.5,0.2,0,0.5,1.4l0.3,2.1l0.3-0.9c0.2-0.5,0.6-1.3,0.9-1.8c0.8-1.1,0.7-2.1,0-2.5c-1-0.6-3.7-3.3-4.8-4.8
		c-1.1-1.6-1.6-3.7-1.2-4.9c0.2-0.4,0.6-1.1,1-1.6c0.4-0.5,0.9-1.4,1-2c0.2-0.7,0.4-1.4,0.5-1.7c0.1-0.3,0.1-0.5-0.3-0.5
		c-0.7,0-2.2-1.6-2.2-2.3c0-1.1-0.3-1.4-1.9-2c-2.4-0.9-2.7-2-1.2-4c0.9-1.2,0.7-1.6-0.8-1.8c-0.9-0.1-1.4-0.4-1.8-0.9
		c-0.3-0.4-1-1.2-1.5-1.7s-1.7-2.2-2.7-3.7C485.7,70.9,485,69.9,484.5,70L484.5,70z"/>
</g>
<g id="Irkutsk">
	<path id="path12951" fill="#B3B3B3" d="M471.6,81.5c1.8-0.9,2.1-1,3.6-0.8l1.7,0.2l1-1c1.3-1.2,1.3-3.4,1.8-5.4
		c0.5-1.9-0.7-3.2,2-3.7c1-0.2,2.1-0.5,2.4-0.7c0.5-0.2,0.8,0.1,1.2,0.3c0.7,0.3,1.7,2.2,3.1,4.3c2.1,3.4,5.3,6.3,5.7,5.4
		c0.3-0.6,0.7,0,0.6-2.7c-0.1-2.3,0-2.8,0.6-3.7c0.4-0.7,0.6-1.5,0.6-2.4c0-1.4-0.3-1.9-2.9-4.6c-1.6-1.7-2.1-1.7-4.3-0.7
		c-2.5,1.2-3.3,0.8-3.3-1.6c0-1.1-0.2-1.3-2.4-3.6c-1.3-1.3-2.7-2.9-3.1-3.5l-0.7-1.1l0.1-5.8l0.1-5.8H476c-3,0-3.3,0.1-4.1,0.7
		c-1.1,0.8-1.5,0.9-2.2,0.1l-0.6-0.6l-0.2,1.7c-0.2,2.1-1.3,3.6-2.3,3.5c-0.4-0.1-0.8,0.1-1.1,0.4c-0.3,0.3-1.6-1.8-2.1-1.8
		c-0.9,0-1.6,2.2-2,3.2c-0.3,0.6-0.7,1.7-0.7,2.1c0,0.5,0,0.7-0.2,1c-0.5,0.5,0,0.7,0.7,2.1c0.6,1.2,0.5,1,0.3,1.9
		c-0.1,0.6-0.3,0.1-0.3,1c-0.5,1.1,0.5,2.4-0.3,3.3c-0.6,0.6-0.3,0.7-0.7,0.7c-0.8,0-1.2-1.1-1.8-1.9c-0.7-2.4-3.6-3.1-5.2-0.2
		c-1.2,1-2,2.2-2,2.5c0,0.9-0.1,1.7-0.6,1.8c-0.2,0.1-0.6,0-1.2-0.1c-2.2-0.2-2.1,1.8-1.2,2.8c0.1,0.5,0.4,1.5,0.7,2.2
		c0.6,1.3-0.1,2.4-0.5,2.6c-0.2,0.1-1.6,3.5-1.6,3.7c0,0.1,1.6,1.1,2.6,1.7c1.5,1,2.1,1.2,3.3,1.3c1,0.1,2.2,0.3,3.3,0.9l1.1,0.6
		c0.5-0.2,1.5-0.1,2.3-0.3c1.3-0.4,1-0.6,2.4-0.1c1.3,0.4,4,0.7,6.6,0.9C469.3,82.4,470.2,82.2,471.6,81.5z"/>
</g>
<g id="Yakutsk">
	<path id="path12701" fill="#999999" d="M465.2,50.1c0.2,0.1,1.6-0.2,1.8-0.3c0.8-0.3,1.2-0.8,1.4-1.6c0.3-1,0.2-1.1,0.3-1.3
		l0.2-2.2c0.5,0.3,0.7,1,1.6,1c0.3,0,0.6,0,1.3-0.5c0.8-0.6,0.3-0.6,3.2-0.7l4,0.1v-3.7c0-2.1,2-2.5,2-4.1c0-1.1,0.7-2.2,1.6-2.6
		c0.5-0.2,1.3-0.8,1.8-1.4c1-1.1,2.6-1.7,3.4-1.2c0.3,0.2,1.4,1.9,1.7,2.8c0.1,0.1,0.6,0.1,1.2-0.1c1-0.3,1.2-0.2,1.7,0.2
		c0.5,0.5,1.3,0.6,1.6,0.2c0.1-0.1,0.3-1.2,0.6-2.4l0.5-2.1l-2-1.8l-2-1.8l0.1-2.5c0.1-2.7,0.3-3.1,2.1-4c1.3-0.6,2.9-2.4,3.3-3.6
		c0.3-0.8,0.3-1-0.1-1.4c-0.6-0.7-0.5-1,0.2-0.5c0.8,0.5,0.9,0.3,0.2-0.4c-0.3-0.3-0.9-0.5-1.7-0.5c-1.4,0-1.7-0.2-2.1-1.8
		c-0.2-0.7-0.6-1.3-1-1.5c-0.6-0.3-0.7-0.3-1.6,0.5c-1.2,1.1-1.8,1.1-2.1,0.1c-0.4-1.2-0.9-1.4-3.8-1.4h-2.5l0.2,0.9
		c0.1,0.5,0.2,1.2,0.3,1.5c0.1,0.5,0,0.7-0.5,1c-0.5,0.3-1,0.4-2.7,0.2c-1.1-0.1-2.1-0.2-2.3-0.1c-0.2,0.1-0.6,0.6-0.9,1.2
		c-0.8,1.5-1.6,1.5-3.1-0.1c-0.7-0.7-1.4-1.2-1.7-1.2c-0.7,0-1.3-1.1-1.3-2.5c0-1.7-0.5-2.2-2-2.4C467.1,8,467,8,466,9.1
		c-2.2,2.3-2.6,2.8-2.4,2.9c0.1,0.1,0.9-0.6,1.8-1.6c0.9-1,1.8-1.7,1.9-1.7c0.3,0.2-2.8,3.4-3.5,3.7c-1,0.3-1.2,1.3-0.4,2.2
		c0.7,0.7,1.8,1.2,2.3,2.2c0.3,0.7-0.4,1-1,1.7c-0.3,0.5-0.5,0.7-0.5,0.7s0.2,2.1,0.1,3.7c-0.1,1.6-0.3,3.1-0.4,3.6
		c0,0-0.3,0.6-2.3,0.5c-1.4-0.1-1.4-0.7-2-0.6c-0.7-0.4-1.6,1-2.1,1.6c-0.3,0.3-1.3,0.9-2,1.4c-1.2,1-1,1.8-0.5,2.1
		c0,0.3,0.9,0.9,1.4,0.9c0.9-0.1,1.7-0.1,2.7,1.5c0.7,1.2-0.3,0.8-0.5,1.8c-0.2,0.8,0.5,2.1,0.5,2.1c0.2,0.5,0.9,2,0.9,3.2
		c0,1.3,0.2,2.2,0.7,2.3c0.9,0.3,0.9,0.3,0.6,1.3c-0.2,0.7-0.1,1.6,0.5,2.4c0.3,0.6,0.5,1.4,0.7,1.3C463.5,47.9,464.8,50,465.2,50.1
		L465.2,50.1z"/>
</g>
<g id="Japan">
	<path id="path13309" fill="#CCCCCC" d="M533.3,44.9c-0.4,0-0.5,0.2-0.8,0.7c-0.5,0.9-0.3,1.2,0.5,1.6c1.2,0.6,2,3.5,1.1,4.2
		c-0.3,0.3-0.9,1.8-1.3,3.8c-0.1,0.5,0.1,0.9,0.9,1.9c1.6,1.7,1.6,2.2,0.5,3.4c-0.5,0.5-1.1,1.3-1.3,1.7c-0.3,0.7-0.3,0.9,0.5,1.6
		c0.6,0.6,0.9,1,0.9,1.7c0,1.1-0.5,1.9-1,1.9c-0.3,0-0.4,0.2-0.3,0.5c0.1,0.4,0,0.5-0.5,0.6c-0.5,0-0.5,0.1-0.2,0.2
		c0.2,0.1,0.6,0.2,0.9,0.1c0.5-0.1,0.5,0,0.3,1.2c-0.2,1.4-0.7,2.3-1.4,2.3c-0.2,0-0.3,0.1-0.3,0.3s-0.1,0.2-0.2,0.2
		c-0.1-0.1-0.7,0.5-1.3,1.2c-0.8,1.1-1.1,1.7-1.2,3c-0.1,0.9-0.3,1.7-0.5,1.8c-0.1,0.1-0.9,0.5-1.7,0.7c-1.4,0.5-1.7,0.8-1.7,2
		c0,0.5-0.5,1.3-1.4,2.4c-1.3,1.6-1.4,1.7-1.3,2.8c0.1,1,0,1.3-0.9,2.2c-1.3,1.4-1.3,2,0.1,2.7c0.6,0.3,1.2,0.9,1.3,1.2
		c0.5,1.2,1.6,2.9,2,2.9c0.2,0,0.8-0.5,1.2-1.2c0.6-0.9,0.9-1.5,0.9-2.9c0.1-1.8,0.3-2.1,1.6-2.4c0.9-0.2,3.3-2.2,3.3-2.8
		c0-0.2,0.2-0.7,0.4-1c0.4-0.6,0.5-0.6,1.4-0.2c0.9,0.4,1,0.4,1.3,0c0.2-0.2,0.4-0.9,0.5-1.6c0.1-0.9,0.5-1.6,1.4-2.6
		c1.2-1.4,1.4-1.5,2.7-1.6c1.3-0.1,1.5-0.2,2.1-1.2c0.3-0.6,1-1.3,1.5-1.6c0.6-0.4,0.8-0.8,0.8-1.4c0-1.4-0.8-5.5-1.4-6.9
		c-0.5-1.1-0.5-1.5-0.3-2.4c0.4-1.6,0-4.6-0.8-5.4c-1.3-1.5-2.5-2.6-3.6-3.3c-2-1.2-1.2-2.3,2.1-2.9l1.9-0.3v-1c0-0.7,0.2-1.2,0.9-2
		c0.5-0.5,1-1,1.2-1c0.1,0,0.6-0.5,1-1l0.7-1l-0.6-0.4c-0.3-0.2-0.9-0.7-1.3-1.2c-0.7-0.7-0.7-0.7-1.4-0.3c-1,0.7-4.9,0.4-6.7-0.5
		c-0.8-0.4-1.7-0.7-2.2-0.9C533.6,45,533.4,44.9,533.3,44.9z"/>
</g>
<g id="Lamchatka">
	<g id="path6802">
		<path fill="#999999" d="M498.1,15.2l-0.9,1.4l-2.8,3l-2.1,1.3l-0.4,0.7l-0.4,1.7l-0.1,3.1l4,3.5l-1,4.8c0,0-0.3,0.8-0.8,0.9
			c-1.2-2.1-3.6-1-3.7-1l-0.6-0.2c-0.2-1-0.7-2-1.2-2.3c-0.6-0.5-0.8-0.5-1.2-0.4c-0.2-0.3-3.4,2.2-3.4,2.2s-1.3,0.7-1.5,1.1
			c-0.5,0.8-0.6,1.8-0.6,1.8l-1,1.7c-0.5,0.5-1,1-1,1.4c0,0-0.1,0.3-0.2,2.1c0,0.5,0.1,2.5,0.1,2.5l0,9.8l-0.1,1.7
			c0,0,0.4,0.7,1,1.3c0.5,0.6,4.6,5.1,4.6,5.1s0.8,1.1,0.9,2.2s0.6,1.4,0.6,1.4c0.2,0.8,3.2-0.7,3.7-1.2c0.5-0.5,0.8-0.6,1.3-0.1
			c0.5,0.6,2.8,2.2,2.8,2.2l2,2.9c0.9,0.1-0.7,2.2-1,7.8c-0.1,2.6-0.6,2-0.4,2.1c0,0,1.4,1.6,0.7,1.5c-0.9-0.1-1.3,1.9-1.3,2
			c0,0-0.2,1.6,0.6,1.8c0.5,0.1,2.8,1.4,2.8,1.4s0.4,1.8,1.2,2.4c1.2,0.9,2.1,1.1,2.1,1.1l0.9-0.6l1-1.8l0.1-0.2l1.4-8.4v-3.5
			l-0.6-1.7l-0.5-3l-1.2-3.3l-0.2-2.9l-0.2-1.8l-1-1.1l-1-1.5l-1.7-0.5l-1.6,0.9l-1.4-0.1l-0.7-1.4l-1-0.9l-1-0.6l-0.7-0.7l0.4-1.6
			l0.3-1.7l0.5-0.6l0.7-0.5l0.9-1.4l0.4-1.2l0.9-1.7l1.7-0.4l0.8-0.6l1.4-0.6l1.9-0.2l1.3,0.3l0.5,0.5l0.6-0.2l0.7-0.8l0.3-0.8
			l2.1-0.2l0.7,1.4l0.6,1.4l1.6-0.3l0.4-1.2l-1.6-2.9l-0.3-1.8c0,0,1-1.7,2.3-1.8c1.3-0.2,2.2,1.4,2.2,1.4l0.6,1.7l0.9,0.1l0.5-1.3
			l0.3-3.3l1.4-0.3l1.9,0.9l-1.6,4.3l-1.3,4.3l-1.6,3.7l-0.6,6.4l2,5l2.1,3.8l2.9,2.1l2.2-3l0.3-4.8l-0.9-2.2l0.1-5.3l-1.3-3.2
			l-1.1-2.4l0.6-1.8l1.6-0.6l0.5-1.5h1.8l1,1.6l1-0.3c0,0,0.9-2.1,1.2-2.1s1.9-2.5,1.9-2.5l2.3-2.9l2-2.4l-1.4-2.3l-1.6-1.8l-0.5-2
			l1.8,0.5l2.2,1.4l1.6,0.9l0.4,2l2.8-0.4l1.9-1.3l1.2-1.8l-0.3-0.9l1.6-0.4l-0.6-1.4l-1.4-1.6c0,0-3.9-2.1-4.3-2.1
			c-0.5,0-3.2-1-3.2-1s-11.7-7.5-11.1-7.8c0.6-0.4-5.7-0.2-5.7-0.2l-2.2,2.5l-4.7-0.7l-4.7-0.4l-4.2-2.2L498.1,15.2z"/>
		<path fill-opacity="0" stroke="#000000" stroke-width="2.000000e-03" d="M498.1,15.2l-0.9,1.4l-2.8,3l-2.1,1.3l-0.4,0.7l-0.4,1.7
			l-0.1,3.1l4,3.5l-1,4.8c0,0-0.3,0.8-0.8,0.9c-1.2-2.1-3.6-1-3.7-1l-0.6-0.2c-0.2-1-0.7-2-1.2-2.3c-0.6-0.5-0.8-0.5-1.2-0.4
			c-0.2-0.3-3.4,2.2-3.4,2.2s-1.3,0.7-1.5,1.1c-0.5,0.8-0.6,1.8-0.6,1.8l-1,1.7c-0.5,0.5-1,1-1,1.4c0,0-0.1,0.3-0.2,2.1
			c0,0.5,0.1,2.5,0.1,2.5l0,9.8l-0.1,1.7c0,0,0.4,0.7,1,1.3c0.5,0.6,4.6,5.1,4.6,5.1s0.8,1.1,0.9,2.2s0.6,1.4,0.6,1.4
			c0.2,0.8,3.2-0.7,3.7-1.2c0.5-0.5,0.8-0.6,1.3-0.1c0.5,0.6,2.8,2.2,2.8,2.2l2,2.9c0.9,0.1-0.7,2.2-1,7.8c-0.1,2.6-0.6,2-0.4,2.1
			c0,0,1.4,1.6,0.7,1.5c-0.9-0.1-1.3,1.9-1.3,2c0,0-0.2,1.6,0.6,1.8c0.5,0.1,2.8,1.4,2.8,1.4s0.4,1.8,1.2,2.4
			c1.2,0.9,2.1,1.1,2.1,1.1l0.9-0.6l1-1.8l0.1-0.2l1.4-8.4v-3.5l-0.6-1.7l-0.5-3l-1.2-3.3l-0.2-2.9l-0.2-1.8l-1-1.1l-1-1.5l-1.7-0.5
			l-1.6,0.9l-1.4-0.1l-0.7-1.4l-1-0.9l-1-0.6l-0.7-0.7l0.4-1.6l0.3-1.7l0.5-0.6l0.7-0.5l0.9-1.4l0.4-1.2l0.9-1.7l1.7-0.4l0.8-0.6
			l1.4-0.6l1.9-0.2l1.3,0.3l0.5,0.5l0.6-0.2l0.7-0.8l0.3-0.8l2.1-0.2l0.7,1.4l0.6,1.4l1.6-0.3l0.4-1.2l-1.6-2.9l-0.3-1.8
			c0,0,1-1.7,2.3-1.8c1.3-0.2,2.2,1.4,2.2,1.4l0.6,1.7l0.9,0.1l0.5-1.3l0.3-3.3l1.4-0.3l1.9,0.9l-1.6,4.3l-1.3,4.3l-1.6,3.7
			l-0.6,6.4l2,5l2.1,3.8l2.9,2.1l2.2-3l0.3-4.8l-0.9-2.2l0.1-5.3l-1.3-3.2l-1.1-2.4l0.6-1.8l1.6-0.6l0.5-1.5h1.8l1,1.6l1-0.3
			c0,0,0.9-2.1,1.2-2.1s1.9-2.5,1.9-2.5l2.3-2.9l2-2.4l-1.4-2.3l-1.6-1.8l-0.5-2l1.8,0.5l2.2,1.4l1.6,0.9l0.4,2l2.8-0.4l1.9-1.3
			l1.2-1.8l-0.3-0.9l1.6-0.4l-0.6-1.4l-1.4-1.6c0,0-3.9-2.1-4.3-2.1c-0.5,0-3.2-1-3.2-1s-11.7-7.5-11.1-7.8c0.6-0.4-5.7-0.2-5.7-0.2
			l-2.2,2.5l-4.7-0.7l-4.7-0.4l-4.2-2.2L498.1,15.2z"/>
	</g>
</g>
<g id="WesternAustralia">
	<g id="path8926">
		<path fill="#CCCCCC" d="M450.4,230.6l-1.3,5.9l-5-2.8l-4.5,5.1l-0.2,0.7l-0.1,1.3l-0.7,2l-1.6-0.6c0,0-0.9-1.4-1.2-0.9
			c-0.4,0.6-0.3,2.1-0.3,2.1s-0.1,2.5-0.2,2.6s-0.9,1.3-0.9,1.3l-3.1,2.2l-3.8,2.2l-2,1.2l-1.3,0.8l-2.2,1.4l-0.8,0.3l-0.9,0.5
			l-0.5,0.5l-0.1,0.3l-0.1,0.6l0.2,0.4l0.4,0.1l0.3,0.1l0.2,0.4l0.2,0.8l0.2,1.3l0.2,1l0.5,1.7l0.3,0.5l0.5,1l0.1,0.7l0.1,0.9
			l0.1,1.7v1.6v0.9l0.9,0.9l1,1.2l0.6,0.9l0.2,0.5l0.5,1.5l1.2,2.2l0.3,0.3l0.2,0.1l0.6,0.4l0.7,0.8l0.4,0.9l-0.3,1l-0.2,0.8l-1,1.2
			l-0.2,1.3l0.6,1.2l1.5,0.2h3.1l1.9-0.9l1.4-2.1l2.3-0.5l2.9-0.5l1.4-0.6l6.1-5.2c0,0,5.5-1.7,6.1-1.3c0.5,0.4,3,0.3,3,0.3l1.1,0.1
			l0.6,0.2l1.1,1.1l0.7,1l0.3,0.6l0.2,1.1l0.4,1.4l0.3,0.1l1-0.7l0.2-0.5l0.3-0.2l1.3,0.4l0.1,1.1h1.4l0.6,1.2l1.3,0.9l1.3-2
			l0.4-4.2l-0.5-3.8l0.9-14.2l-18.1-0.7l-0.4-2.8l-0.4-14.9l-0.9-0.9L450.4,230.6z"/>
		<path fill-opacity="0" stroke="#000000" stroke-width="3.000000e-03" d="M450.4,230.6l-1.3,5.9l-5-2.8l-4.5,5.1l-0.2,0.7l-0.1,1.3
			l-0.7,2l-1.6-0.6c0,0-0.9-1.4-1.2-0.9c-0.4,0.6-0.3,2.1-0.3,2.1s-0.1,2.5-0.2,2.6s-0.9,1.3-0.9,1.3l-3.1,2.2l-3.8,2.2l-2,1.2
			l-1.3,0.8l-2.2,1.4l-0.8,0.3l-0.9,0.5l-0.5,0.5l-0.1,0.3l-0.1,0.6l0.2,0.4l0.4,0.1l0.3,0.1l0.2,0.4l0.2,0.8l0.2,1.3l0.2,1l0.5,1.7
			l0.3,0.5l0.5,1l0.1,0.7l0.1,0.9l0.1,1.7v1.6v0.9l0.9,0.9l1,1.2l0.6,0.9l0.2,0.5l0.5,1.5l1.2,2.2l0.3,0.3l0.2,0.1l0.6,0.4l0.7,0.8
			l0.4,0.9l-0.3,1l-0.2,0.8l-1,1.2l-0.2,1.3l0.6,1.2l1.5,0.2h3.1l1.9-0.9l1.4-2.1l2.3-0.5l2.9-0.5l1.4-0.6l6.1-5.2
			c0,0,5.5-1.7,6.1-1.3c0.5,0.4,3,0.3,3,0.3l1.1,0.1l0.6,0.2l1.1,1.1l0.7,1l0.3,0.6l0.2,1.1l0.4,1.4l0.3,0.1l1-0.7l0.2-0.5l0.3-0.2
			l1.3,0.4l0.1,1.1h1.4l0.6,1.2l1.3,0.9l1.3-2l0.4-4.2l-0.5-3.8l0.9-14.2l-18.1-0.7l-0.4-2.8l-0.4-14.9l-0.9-0.9L450.4,230.6z"/>
	</g>
</g>
<g id="MiddleEast">
	<path id="path13859" fill="#B3B3B3" d="M369,121.3c-0.1,0-0.2,0-0.2,0c-1.1,0-2.4,0.3-3.8,0.9c-3.2,1.3-6,2.2-6.9,2.2
		c-0.9,0-1.3-0.3-2.8-2.1l-0.7-0.9l-0.6,0.6c-1.4,1.3-2,2.5-2.5,5.6l-0.6,3.1l0.6,0.9c0.5,0.6,0.6,1.4,0.7,3s0.2,2.2,0.6,2.3
		c2.9,1.2,4.3,1.5,7.2,1.5s2.9,0,3.5,0.7c0.5,0.6,0.8,0.7,1.8,0.7c1.2,0,1.3-0.1,2.2-1.2c1-1.2,1.7-1.4,2.7-0.6c1,0.8,1.1,1.4,0.8,4
		c-0.2,1.7-0.2,2.7,0.1,3.6c0.3,1.3,0.1,3.5-0.6,5.1c-0.2,0.5-1,1.6-1.8,2.4l-1.4,1.4l1,1.4c1.9,2.7,2.3,3.3,2.6,4.3
		c0.3,0.9,0.5,1.1,1.8,1.7c1,0.5,1.6,0.9,1.9,1.4c0.2,0.5,0.9,1.3,1.4,1.7c0.6,0.6,1.3,1.8,2,3.3c1.2,2.7,2.2,4.2,4.1,5.9
		c1.2,1,1.7,2.2,1,2.2c-0.1,0-0.3,0.2-0.4,0.5c-0.1,0.3-0.1,0.5,0.1,0.4c0.1-0.1,0.3,0.1,0.6,0.3c0.3,0.3,0.4,0.3,0.6,0.1
		c0.5-0.7,1.5,1,2.6,4.5c0.3,0.9,0.9,2,1.4,2.6c0.7,0.9,1,1,2.6,1.2c2.7,0.3,5.5,0,5.9-0.6c0.2-0.3,1-0.7,1.6-1.1
		c0.7-0.3,2-1.2,2.9-1.8c0.9-0.6,2.5-1.6,3.5-2c1.4-0.6,1.9-1,2.5-2.1c0.5-0.7,1.4-2,2.2-2.9c1.6-1.8,3.6-5.6,4.2-7.6
		c0.4-1.6-0.1-4.6-0.9-5.8c-0.3-0.5-1-1.1-1.6-1.4c-0.6-0.3-1.2-1-1.6-1.6c-0.4-0.8-0.8-1.2-1.5-1.3c-0.8-0.2-1.1-0.1-2,0.5
		c-2,1.3-4.7,0.8-4.7-0.8c0-0.5-0.2-0.7-0.8-0.9c-0.4-0.2-1.3-0.9-2-1.7c-0.6-0.7-1.5-1.7-1.9-2c-0.6-0.5-0.7-1-1-3.1
		c-0.3-2.4-0.3-2.5,0.3-3.1c0.3-0.3,0.9-0.6,1.2-0.6s0.9-0.3,1.3-0.8s1-0.8,1.2-0.8c0.7,0,1.7,3.1,1.8,5.6c0,1.5,0.2,1.7,1.7,3.1
		c1.2,1,1.9,1.1,3.9,0.6c1.3-0.3,1.9-0.1,2.4,1c0.2,0.5,0.5,0.6,1.5,0.6c1.2,0,1.3-0.1,3.3-2.1c1.1-1.2,2.2-2.4,2.4-2.9
		c0.2-0.4,0.5-0.7,0.6-0.7c0.2,0,0.3-0.1,0.3-0.3c0-0.7-0.7-0.1-2.3,2c-1.7,2.2-3.3,3.6-3.6,3.3c-0.1-0.1-0.1-0.2-0.1-0.2
		c1.1-0.8,2.1-1.9,3.7-3.7l1.8-2.2l-0.7-1.3c-0.7-1.2-0.7-1.6-0.6-3.3c0.1-1.4,0-2.2-0.2-2.5c-0.2-0.3-0.9-1.7-1.6-3.1l-1.3-2.6
		l-0.2-4.2c-0.2-4-0.3-4.3-0.9-4.6c-0.5-0.3-1.3-1.1-3.2-3.2c-0.7-0.8-3.5-1.6-4.7-1.4c-0.9,0.2-0.9,0.2-1.1,1.7
		c-0.2,2.7-1.4,3.2-5.4,2.4c-3.1-0.7-4.2-1.2-5-2.4l-0.7-0.9l-1.2,0.6c-0.6,0.3-2,0.9-3,1.3c-1.6,0.5-2.2,0.6-3.7,0.5
		c-1-0.1-2.1-0.3-2.2-0.4c-0.2-0.2-0.7-0.2-1.4,0c-1.2,0.3-2.2,0.3-2,0.1c0.1-0.1,0.8-0.3,1.6-0.4c1.1-0.2,2-0.2,3.5,0.1
		c1.9,0.3,2.1,0.3,3.7-0.2c0.9-0.3,2.3-0.9,3.1-1.3c1.3-0.7,2.2-0.8,2.2-0.2c0,0.1,0.5,0.6,1,1.2c0.8,0.8,1.4,1,3.6,1.6
		c3.1,0.7,4,0.7,4.8-0.1c0.7-0.6,1.1-2.4,0.7-2.8c-0.2-0.2-0.3,0.2-0.5,1c-0.1,0.7-0.3,1.4-0.6,1.6c-0.5,0.4-2.1,0.4-3.4,0.1
		c-0.5-0.2-1.4-0.3-1.9-0.5c-1.3-0.2-2.7-1.2-3.3-2.4l-0.5-1l-2,1c-3.1,1.6-4.5,2-6.2,1.7c-0.8-0.1-1.8-0.3-2.1-0.5
		c-0.5-0.2-0.9-0.2-2,0.1c-0.7,0.2-2.3,0.4-3.4,0.5c-1.8,0.1-2.2,0.1-2.9-0.4c-0.5-0.3-1-0.9-1.2-1.4
		C371.2,121.8,370.3,121.4,369,121.3z"/>
</g>
<g id="SouthernEurope">
	<path id="path13549" fill="#CCCCCC" d="M348.5,142.8c-0.1-0.1,0.1-0.3,0.3-0.4c0.2-0.1,0.3-0.3,0.3-0.4c-0.1-0.1,0.2-0.5,0.5-0.8
		c0.9-0.7,0.9-1,0-1.7s-0.9-1.2,0.1-2.2l0.7-0.7l-0.6-0.5c-1.3-1-2.2-2-2.4-2.7c-0.1-0.4-0.2-0.9-0.2-1c-0.1-0.2,0.1-0.5,0.2-0.7
		c0.2-0.4,0.5-0.5,1.4-0.3c0.8,0.1-1.3-0.1-1-0.4c0.2-0.2,0.8-1.6,1.3-3.6c0.5-2,0.5-2.2,0.7-2.5c0.8-1,1.4-1.9,2.4-3.1
		c1-1.1-2.1-2.8-1.8-4.2c0.2-0.6,5.4-4.4,5.2-5c-0.2-1.3-0.9-4.3-0.9-7.7c0-1.6-0.3-2.2-3.6-6.1c-0.2-0.2-0.5-0.3-0.7-0.3
		c-0.6,0-3.1,2.8-3.9,4.5c-0.7,1.4-0.8,1.8-0.6,2.9c0.1,0.7,0.2,1.7,0.2,2.4v1.2h-3.3c-3.1,0-3.3-0.1-3.6-0.6
		c-0.7-1.1-0.8-3.1-0.3-4.4c0.6-1.6,0.4-1.7-2.4-1.7c-3.1,0-4.3,0.8-4.3,2.9c0,1-1.6,2-3.1,2c-0.7,0-1.6,0.2-2,0.5
		c-0.5,0.3-1,0.4-1.9,0.3c-0.7-0.1-1.7-0.2-2.4-0.3c-0.9-0.1-1.3-0.1-1.9,0.4c-0.7,0.6-0.7,0.7-0.7,2.7c0,1.9-0.1,2.2-0.7,2.9
		l-0.7,0.8l0.7,1c0.6,0.9,0.7,1.2,0.6,2.7s-0.1,1.7,0.5,2.2c0.3,0.3,0.8,0.5,0.9,0.4c0.5-0.3,2.2,0.4,2.5,1c0.2,0.3,0.2,1.2,0.2,1.9
		c-0.1,0.7,0,1.4,0.1,1.4s0.4,0.2,0.7,0.3c1.1,0.5,5,5.9,5,6.9c0,0.5-0.4,0.2-0.5-0.3c0-0.3-0.8-1.6-1.7-2.8c-2.3-3-2.7-3.5-3.5-3.7
		c-0.6-0.2-0.6-0.3-0.5-1.6c0.2-1.3,0.1-1.4-0.5-2c-0.7-0.6-1.9-0.9-1.6-0.4c0.1,0.2,0.3,0.3,0.5,0.3c0.7,0,1,0.8,1,2.5
		c-0.1,1.6-0.1,1.6,0.7,1.8c0.5,0.1,1.2,0.6,1.8,1.6c0.6,0.7,1.2,1.6,1.4,1.8c1.3,1.3,1.7,2.2,1.7,3.3c0,0.6-0.2,1.7-0.3,2.3
		l-0.3,1.1l-2.7,0.2c-1.5,0.1-2.8,0.3-3.1,0.5c-0.3,0.3-0.3,0.5,0.6,1.3c1,0.9,1.1,0.9,2.5,0.7c1.7-0.2,2.5,0,2.2,0.5
		c-0.1,0.2,0,0.5,0.2,0.5c0.2,0.1,0.3,0.1,0.3-0.1s0.2-0.3,0.6-0.4c0.3-0.1,0.5-0.2,0.5-0.3c-0.1-0.6,0.1-0.9,0.8-1
		c0.5-0.1,1.4-0.8,2.4-2l1.6-1.8l-0.4-1c-0.2-0.5-0.3-1.4-0.3-2c0.1-0.9,0.2-1,0.8-1.1c0.5-0.1,1,0.2,1.6,0.6c1,0.9,1.4,0.9,1.4,0.1
		c0-1.2-1.7-4-3.3-5.6c-1.7-1.7-2-2.4-1.2-3.3c0.7-0.8,2.1-0.6,3.9,0.6c2.1,1.4,2.4,1.8,2.6,3.3c0.3,2.5,0.8,4,1.5,5
		c2,2.9,2.2,3.5,2.2,5.7c0,1.8,0.1,2.1,0.7,2.7c0.3,0.3,0.7,0.9,0.7,1.2c0,0.4,0.3,0.5,1.4,0.7c1.7,0.2,2,0.6,0.6,0.7l-1,0.1
		l1.2,0.2c0.6,0.1,1.3,0.3,1.5,0.5C348.5,143.1,348.7,143.2,348.5,142.8z"/>
</g>
<g id="Ukraine">
	<path id="path13349" fill="#CCCCCC" d="M388,122.5c2.9-1.4,3.1-1.7,3.1-4.2c0.1-2.8,0-2.7,0.8-3.1c0.9-0.4,0.9-0.8-0.4-2
		c-1.2-1.2-4.6-6.8-4.8-8.1c-0.2-1.3,0-1.8,1.7-3.5l1.5-1.5l-1-1.4c-2.5-3.8-3.5-5.9-3.7-7.7c-0.2-2.5,0.1-4,1-5
		c0.5-0.5,0.8-1.2,0.8-1.6c0-1.3,0.6-2.8,1.2-3.1c0.3-0.2,1-0.2,1.4-0.2c0.6,0.1,1,0,1.2-0.3c0.7-0.9,2.5-1.5,4-1.4
		c1.3,0.1,1.4,0.1,1.4-0.3c0-1.3,3.9-2.1,5.7-1.2c1,0.5,1,0.5,2.8-0.9c0.7-0.5,1.8-1.2,2.5-1.4l1.2-0.4v-1.6c0-1.2-0.1-1.7-0.6-2.2
		c-0.7-0.7-1-2.5-0.6-3.2c0.2-0.3,0.6-0.6,1.1-0.7c0.5-0.1,0.8-0.3,0.8-0.6c0-0.7-0.3-1.1-1.6-1.6c-1.6-0.6-2.5-1.5-2.7-2.8
		c-0.1-0.9,0-1.2,0.5-1.7c0.3-0.3,0.8-1,1-1.6c0.3-0.9,0.3-1-0.1-1.4c-0.6-0.7-1.1-3.7-0.7-4.6c0.6-1.4,0.6-4.1,0.1-6.8
		c-0.3-1.4-0.6-3.5-0.6-4.6c0-1.9,0.1-2.1,0.9-2.9c1.9-2,2.2-2.8,2.4-5.5c0.1-2,0-2.6-0.3-2.9c-0.2-0.2-0.5-0.6-0.5-0.7
		c0-0.3-2.9-2.5-4-2.9c-1.6-0.7-3.2-0.5-4.8,0.6c-1.8,1.2-3.2,1.4-5.5,0.8l-1.7-0.5l-0.8,0.7c-0.5,0.4-0.9,0.7-1,0.7
		c-0.1,0-0.7,0.6-1.5,1.2c-1.5,1.4-4.3,3.3-5.4,3.5c-1.2,0.3-1.8-0.2-1.9-1.6c-0.1-1-0.2-1.2-1.1-1.7c-0.6-0.3-1.4-0.5-1.9-0.6
		l-0.9-0.1l0.1,1.9c0.1,1.4,0.3,2.2,0.7,3.1c0.8,1.4,0.7,2.2-0.2,2.7c-0.4,0.2-1.1,0.5-1.5,0.7c-0.4,0.2-1,0.9-1.4,1.6
		c-0.3,0.7-0.9,1.4-1.3,1.6c-0.6,0.3-0.8,0.3-2.1-0.3c-1.8-0.9-2.6-1-2.3-0.1c0.1,0.3,0.2,1,0.2,1.4c0.1,0.7,0,0.8-1.1,0.9
		c-1.5,0.1-2.2-0.3-2.4-1.4c-0.1-0.6-0.9-1.6-2.2-2.9c-1.1-1.2-2-2.2-2-2.5c0.1-0.3,0.6-0.4,3.5-0.3c3.1,0.1,3.5,0.1,4.2-0.5
		c0.4-0.3,1.4-0.6,2.1-0.7c1.6-0.2,2.1-0.7,2.1-2.2c0-1.2-0.9-3.1-1.6-3.4c-1-0.5-5.6-1.2-9.6-1.6c-1.1-0.1-2.7-0.2-3.4-0.3
		c-1-0.1-1.3-0.1-1.1,0.1c0.2,0.2,2.1,0.5,4.4,0.7c2.2,0.2,4.8,0.5,5.7,0.7c0.9,0.2,2.1,0.3,2.7,0.5c1.2,0.2,1.7,0.6,2.2,2.1
		c0.6,1.4,0.1,1.3-0.5-0.2c-0.3-0.7-0.7-1.3-1-1.3c-0.9-0.3-7.6-1.2-9.7-1.4c-1.2-0.1-2.7-0.2-3.2-0.3c-1-0.2-1-0.2-1.6,1.4
		c-0.5,1.3-0.6,2.1-0.6,5.9c0,5.7,0.7,13,1.4,15.1c1,2.8,0.6,3.8-1.4,5c-0.5,0.3-0.7,0.7-0.7,1.1c0,1-0.7,2.4-1.4,2.9
		c-0.3,0.2-1.5,0.5-2.5,0.6c-1,0.1-1.8,0.3-1.8,0.4c0,0.4,1.2,1.5,1.8,1.7c1.2,0.3,1.4,3.2,0.5,4.7c-0.6,0.9-2.2,0.9-3.5-0.2
		c-0.7-0.6-1-0.7-1.1-0.5c-0.1,0.2-0.2,0.9-0.5,1.5c-0.3,1.2-0.2,3.2,0.3,3.7c0.1,0.2,0.3,0.7,0.3,1.2c0.1,0.8,0.3,1.1,1.8,2.1
		c2.7,1.8,2.7,1.7,2.8,4c0.2,2.6,1,4.7,2.1,5.9c1,1.2,1,1.6,0.2,3.3c-0.3,0.7-1,2.4-1.4,3.7c-1,2.8-1.6,3.4-3.5,3.6
		c-1,0.1-1.3,0.2-1.3,0.7c-0.1,0.5,0,0.6,1,0.7c1.3,0.2,2,0.9,4.2,4.1c1.3,1.8,1.3,1.9,1.3,4.2c0.1,3.7,0.9,7.2,1.7,7.2
		c0.2,0,0.7-0.8,1.2-1.8c1-2,2-2.7,3.1-2.3c0.3,0.1,1.6,1.2,2.8,2.3s2.2,2.1,2.4,2.1s0.6-0.2,0.9-0.6c0.5-0.6,0.5-0.6-0.1-1
		c-1.1-0.9-1.5-2.9-0.7-3.6c0.2-0.2,0.9-0.4,1.5-0.4c0.6,0,1.8-0.3,2.8-0.7c0.9-0.3,2-0.7,2.4-0.7c0.7,0,1.9,0.7,1.9,1.1
		c0,0.2-0.3,0.1-0.6-0.2c-0.8-0.6-2.2-0.5-3.6,0.1c-0.6,0.3-1.6,0.6-2.1,0.7c-1.8,0.2-2.1,0.4-2.3,0.9c-0.2,0.5,0.5,2.2,0.9,2.2
		c0.1,0,0.3,0.2,0.5,0.5c0.3,0.4,0.2,0.6-0.2,1.2c-0.9,1.1-1.8,0.9-3.3-0.6c-2.5-2.7-3.2-3.1-3.9-2.9c-0.3,0.1-1,0.6-1.3,1
		c-0.9,1.2-1.6,2.9-1.3,2.9c0.2,0,0.4-0.3,0.6-0.7c0.8-1.8,1.6-2.8,2.2-2.8c0.4,0,0.7,0.2,0.7,0.4s0.3,0.5,0.6,0.6
		c0.3,0.1,1.2,0.9,2,1.8c1.1,1.2,1.5,1.6,2.2,1.5c0.9,0,1.8-0.6,2.3-1.6c0.3-0.6,0.2-0.7-0.7-1.7c-1.4-1.4-1.2-1.9,0.9-2.4
		c1-0.2,2-0.6,2.4-0.8c0.7-0.5,2.5-0.6,3.1-0.2c0.5,0.3,0.3,1.1-0.3,1.7c-0.8,0.9-0.4,1,0.5,0.2c0.4-0.4,0.6-0.9,0.6-1.1
		c-0.1-0.2-0.1-0.4,0.1-0.4c0.6,0,0.1,1.6-0.9,2.7c-1.3,1.3-1.3,1.4-0.6,1.8c0.4,0.2,1,0.9,1.4,1.5s0.8,1.2,0.9,1.2
		c0.3,0,6.7,6.3,7.2,7.2c0.3,0.6,0.6,0.7,1.4,0.7c1.3,0,5.8-2.1,6-2.8c0.1-0.3,0.2-1.3,0.1-2.3c-0.1-1.4,0.1-1.9,0.5-2.5
		c0.3-0.5,0.7-0.8,0.9-0.8s0,0.3-0.3,0.7c-0.6,0.6-0.6,0.9-0.6,2.8c0.1,1.2-0.1,2.3-0.2,2.6c-0.3,0.7-4.6,2.8-5.5,2.8
		c-2.1,0-2.2-0.1-2.5-0.8c-0.3-0.7-3.6-4.1-6.2-6.3c-0.8-0.7-1.7-1.7-2-2.2c-0.3-0.6-0.8-1.1-1.2-1.2c-0.8-0.2-0.9-0.8-0.1-1.7
		c0.4-0.5,0.5-0.6,0.2-0.6c-0.2,0-0.7,0.5-1.2,1c-0.7,0.9-0.7,1-0.3,1.3c0.3,0.2,0.7,0.3,1,0.3s0.7,0.3,1,0.9c0.5,1,0.9,1.4,3.2,3.3
		c2.4,2.1,5,4.8,5.2,5.5c0.2,0.7,0.6,0.9,2.5,0.8C385.5,123.5,386.6,123.2,388,122.5z"/>
</g>
<g id="WesternEurope">
	<g id="path9072">
		<path fill="#999999" d="M314.7,98.9l-3.8,1.6l-0.8,2.1l-0.6,0.2l-4.3,0.3l-2.2,2.7l-1.8,0.9l-4.6,0.4l-0.3,0.4l-0.2,0.7l1.9,2.5
			l2.2,2.7l0.9,2l-0.1,4.5l-0.6,1.2l-1.9,1l-5.8,0.6l-0.9-1.2l-2-0.2L287,123l0.3,2.8l1.3,1.6l1.4,2.1l0.4,2.4l-1.3,3.1l-1.5,4.1
			c0,0-0.5,1.4,0.2,1.2c0.6-0.2,2.7,2.9,2.7,2.9l2.8,0.6l3.7,0.5l3.5,0.8c0,0,0.5,0.5,1.4,1.1c1,0.5,1.5,0.7,1.5,0.7l2.9,0.3
			l0.5-0.3l0.1-0.8l0.5-0.6l1.9-1.3l1.5-0.5l0.5-0.6v-0.8l0.9-1.2l1.2-1.2l0.9-1.4l0.8-2.1l0.6-1.4l-1.4-4.1l-0.1-0.6l0.3-0.5
			l0.5-0.5l0.5-0.6v-0.7l-0.9-1.7c0,0-0.9-2.2-0.2-3.2s1.1-1.4,1.1-1.4l-0.1-0.2c0,0,1-0.2,1.4-0.1s1.1,1.2,1.1,1.2l0.5,0.5
			c0,0,0.3,0.5,0.6,0.2c0.4-0.2,1.3-1.3,1.3-1.3l0.2-1c-0.1-0.1-0.5-0.7-0.7-0.7c0-0.5,0.1-2.2,0.1-2.2c0.1,0.1-0.1-1.8-0.3-2
			c-0.3-0.8-0.9-1-0.9-1.3c-0.1-0.5,0.3-0.9,0.3-0.9l0.6-0.7c0,0,0.4-1,0.4-1.3c-0.1-0.3-0.1-1-0.1-1l0.1-0.7l0.1-1
			c0.1-0.2,0.2-0.9,0.5-1l0.6-0.6l-1.3-0.4l-0.2-0.2l-0.3-0.7l-0.4-1.1l-0.5-1.2l-0.5-0.9c0,0-1.2-1.7-1.5-2c-0.3-0.3-1.4-2-1.4-2
			L314.7,98.9z"/>
		<path fill-opacity="0" stroke="#000000" d="M314.7,98.9l-3.8,1.6l-0.8,2.1l-0.6,0.2l-4.3,0.3l-2.2,2.7l-1.8,0.9l-4.6,0.4l-0.3,0.4
			l-0.2,0.7l1.9,2.5l2.2,2.7l0.9,2l-0.1,4.5l-0.6,1.2l-1.9,1l-5.8,0.6l-0.9-1.2l-2-0.2L287,123l0.3,2.8l1.3,1.6l1.4,2.1l0.4,2.4
			l-1.3,3.1l-1.5,4.1c0,0-0.5,1.4,0.2,1.2c0.6-0.2,2.7,2.9,2.7,2.9l2.8,0.6l3.7,0.5l3.5,0.8c0,0,0.5,0.5,1.4,1.1
			c1,0.5,1.5,0.7,1.5,0.7l2.9,0.3l0.5-0.3l0.1-0.8l0.5-0.6l1.9-1.3l1.5-0.5l0.5-0.6v-0.8l0.9-1.2l1.2-1.2l0.9-1.4l0.8-2.1l0.6-1.4
			l-1.4-4.1l-0.1-0.6l0.3-0.5l0.5-0.5l0.5-0.6v-0.7l-0.9-1.7c0,0-0.9-2.2-0.2-3.2s1.1-1.4,1.1-1.4l-0.1-0.2c0,0,1-0.2,1.4-0.1
			s1.1,1.2,1.1,1.2l0.5,0.5c0,0,0.3,0.5,0.6,0.2c0.4-0.2,1.3-1.3,1.3-1.3l0.2-1c-0.1-0.1-0.5-0.7-0.7-0.7c0-0.5,0.1-2.2,0.1-2.2
			c0.1,0.1-0.1-1.8-0.3-2c-0.3-0.8-0.9-1-0.9-1.3c-0.1-0.5,0.3-0.9,0.3-0.9l0.6-0.7c0,0,0.4-1,0.4-1.3c-0.1-0.3-0.1-1-0.1-1l0.1-0.7
			l0.1-1c0.1-0.2,0.2-0.9,0.5-1l0.6-0.6l-1.3-0.4l-0.2-0.2l-0.3-0.7l-0.4-1.1l-0.5-1.2l-0.5-0.9c0,0-1.2-1.7-1.5-2
			c-0.3-0.3-1.4-2-1.4-2L314.7,98.9z"/>
	</g>
</g>
<g id="Iceland">
	<g id="path9094">
		<path fill="#CCCCCC" d="M289.1,75.8l2.9-3.1l0.5-0.1l0.7,0.7l0.6,1.3l1.5,0.7l1.3-0.2l0.7-0.6l0.5-0.4h0.8L300,74l2.9-0.8l2.7-1.7
			h0.9l1.4,0.8l1.5,1.5l1.4,1.2l1.2,1l0.5,1.3l0.3,0.8l-1,2.4l-1,1.5l-0.1,0.7l-1.2,0.4l-1.7,0.6l-1.1,0.5l-5.7,3.3l-0.6,0.4
			l-0.7-0.1l-1.1-0.3l-1.4-0.3l-1.7-0.6l-0.6-0.1l-2.6-0.5l-0.7-0.3l0.3-0.6l0.3-1.8l-0.2-1.3l-0.3-0.3l-1-0.9l-1.1-0.3l0.2-0.6
			l0.6-0.7l0.1-0.9l-0.3-0.9l-0.7-0.5l-0.5-0.2l-0.2-0.3l0.9-0.7l0.5-0.5L289.1,75.8z"/>
		<path fill-opacity="0" stroke="#000000" stroke-width="2.000000e-03" d="M289.1,75.8l2.9-3.1l0.5-0.1l0.7,0.7l0.6,1.3l1.5,0.7
			l1.3-0.2l0.7-0.6l0.5-0.4h0.8L300,74l2.9-0.8l2.7-1.7h0.9l1.4,0.8l1.5,1.5l1.4,1.2l1.2,1l0.5,1.3l0.3,0.8l-1,2.4l-1,1.5l-0.1,0.7
			l-1.2,0.4l-1.7,0.6l-1.1,0.5l-5.7,3.3l-0.6,0.4l-0.7-0.1l-1.1-0.3l-1.4-0.3l-1.7-0.6l-0.6-0.1l-2.6-0.5l-0.7-0.3l0.3-0.6l0.3-1.8
			l-0.2-1.3l-0.3-0.3l-1-0.9l-1.1-0.3l0.2-0.6l0.6-0.7l0.1-0.9l-0.3-0.9l-0.7-0.5l-0.5-0.2l-0.2-0.3l0.9-0.7l0.5-0.5L289.1,75.8z"/>
	</g>
</g>
<g id="GreatBritain">
	<path id="path13133" fill="#B3B3B3" d="M275.4,108.5c0.5-0.4,0.9-0.5,1.2-0.4c0.8,0.3,1.5,0.1,2.1-1c0.2-0.5,0.4-0.5,1.6-0.5
		c1,0.1,1.3,0.2,1.3,0.4c0,0.2,0.2,0.3,0.7,0.3c0.5,0,0.7-0.1,0.6-0.4c-0.1-0.3,0.1-0.4,0.6-0.4c0.3,0,1.9-0.3,3.5-0.6
		c2.7-0.6,2.8-0.6,3.2-1.3c0.4-0.7,0.4-0.7-0.1-1.2c-0.6-0.6-0.6-1.2,0.1-2.2c0.3-0.5,0.7-1.2,0.9-1.6c0.3-0.7,0.3-0.7-0.3-1.4
		c-0.3-0.4-1-0.7-1.6-0.9c-1.6-0.4-3.1-1.8-3.5-3.3c-0.1-0.5-0.4-1-0.5-1c-0.2-0.1-0.2-0.4-0.2-0.9c0.1-0.5,0.2-0.7,0.2-0.5
		c0.1,0.3,0.2,0.3,0.4,0.1c0.2-0.2,0.2-0.3,0.1-0.3c-0.1,0-0.2-0.2-0.2-0.3c0-0.3-0.1-0.3-0.3-0.1c-0.4,0.3-0.9,0-0.7-0.5
		c0.1-0.3,0.1-0.3-0.1-0.1c-0.1,0.2-0.4,0.2-0.6,0.2c-0.4-0.1-0.4-0.1,0,0.2c0.3,0.2,0.3,0.3,0.1,0.5c-0.2,0.1-0.6-0.2-1.1-0.6
		c-0.5-0.5-1.2-1.1-1.7-1.5c-1.2-0.9-1.1-1.4,0.3-2.9c1.2-1.3,1.4-1.7,1.8-3.2c0.1-0.6,0.1-0.9-0.1-0.9c-0.1,0-0.7-0.2-1.4-0.5
		c-1.1-0.5-1.2-0.6-1.7-2.1c-0.3-0.9-0.6-1.6-0.7-1.7c-0.1-0.1-0.9,0.1-1.9,0.3c-2.2,0.5-2.7,1-3.5,3.7c-0.3,1.2-0.7,2.4-0.9,2.7
		c-0.2,0.5-0.2,0.8,0.2,1.5c0.4,0.8,0.4,1.6,0,2.5c-0.1,0.3,0,0.5,0.7,0.7c1.3,0.5,1.8,1.9,1,2.5c-0.3,0.2-0.7,0.2-2.4-0.3
		c-1.2-0.3-2.2-0.6-2.3-0.6s-0.5,0.3-0.8,0.7c-0.6,0.8-2.6,2.5-3.9,3.3c-1.3,0.8-1.4,1.5-1,4c0.5,2.5,0.4,2.7-1.5,3.2
		c-1.3,0.4-1.8,1-2.1,2.3c-0.2,0.7,0.2,2,0.5,2c0.1,0,0.6,0.3,1,0.7c0.6,0.5,1.2,0.8,1.6,0.8c1.7,0.1,3.7,0,4.8-0.1l1.2-0.2l0.7-1.4
		c0.3-0.8,0.9-2.6,1.2-4c0.6-3,0.7-3.3,1.6-3.7c0.9-0.5,1.7-0.1,2.3,1.1c0.7,1.5,0.6,2.4-0.4,2.4c-0.5,0-1.1,0.8-1.1,1.4
		c0,0.3,0.2,0.4,1.1,0.4c2.2,0,2.2,1.6-0.1,2.7c-0.7,0.3-2.6,2.4-2.6,2.8C273,109.6,274.6,109.2,275.4,108.5z"/>
</g>
<g id="Scandinavia">
	<g id="path5813">
		<path fill="#B3B3B3" d="M322.7,61.1l-2.2-8.2c0,0-0.3-1.3,1.8-3.6c2.2-2.3,8.9-6.2,8.9-6.2l2.3-5.1l1.7-2.7c0,0,2.5-0.9,2.3-1.7
			c-0.2-0.7-1.1-1.6-1.1-1.6l0.9-1.3l4,1.7c0,0,1.8-1.3,2.7-2c0.7-0.7,0.9-3.3,0.9-3.3l2.8-1.1l4,0.7l2-1.1l3.5,2
			c-0.4,1.3-0.8,3.4-1.2,4.6c0.1,5.9,0.2,6.9,0.7,16.3c0.7,1.3,1.3,6.3,0.8,6.1c-0.3-0.1-1.3,1.8-2.1,1.6l-7.6,0.6l-1.2-1.3l0.3-3.6
			l0.3-5.2l-1.6-0.6l-2.9,7l0.9,5.8l-4.5,4.6l0.5,4.6c0.1,1.8-1.6,2.6-3.5,3.2c-1.1,0-6.1-8.2-6.7-8.1c-1.3,0.2-2.7,2-2.7,2
			l-4.1-1.1L322.7,61.1z"/>
		<path fill-opacity="0" stroke="#000000" stroke-width="2.000000e-02" d="M322.7,61.1l-2.2-8.2c0,0-0.3-1.3,1.8-3.6
			c2.2-2.3,8.9-6.2,8.9-6.2l2.3-5.1l1.7-2.7c0,0,2.5-0.9,2.3-1.7c-0.2-0.7-1.1-1.6-1.1-1.6l0.9-1.3l4,1.7c0,0,1.8-1.3,2.7-2
			c0.7-0.7,0.9-3.3,0.9-3.3l2.8-1.1l4,0.7l2-1.1l3.5,2c-0.4,1.3-0.8,3.4-1.2,4.6c0.1,5.9,0.2,6.9,0.7,16.3c0.7,1.3,1.3,6.3,0.8,6.1
			c-0.3-0.1-1.3,1.8-2.1,1.6l-7.6,0.6l-1.2-1.3l0.3-3.6l0.3-5.2l-1.6-0.6l-2.9,7l0.9,5.8l-4.5,4.6l0.5,4.6c0.1,1.8-1.6,2.6-3.5,3.2
			c-1.1,0-6.1-8.2-6.7-8.1c-1.3,0.2-2.7,2-2.7,2l-4.1-1.1L322.7,61.1z"/>
	</g>
</g>
<g id="India">
	<path id="path13895" fill="#CCCCCC" d="M431.9,117.5c-0.3,0-0.6,0.3-0.8,0.8c-1,2-4.8,4.8-5.6,4.2c-1.3-1-3.1-2.1-3.7-2.2
		c-0.5-0.1-0.7,0-1.1,0.5c-1,1.6-1.8,2.2-3.3,2.5c-1.4,0.3-1.5,0.4-2.4,2.1c-0.7,1.4-1.2,1.8-1.8,2l-0.9,0.3l0.2,3.8
		c0.2,4.3,0.5,5.1,2.2,8.1c1.2,2,1.2,2.2,1.2,4.3c0,1.9,0.1,2.4,0.7,3.4c0.4,0.6,0.8,1.1,1,1c0.5-0.3,2.2,0.5,3.3,1.5
		c0.6,0.5,1.3,1.6,1.7,2.3c1,1.8,1.2,2.1,2,2.1c1.3,0,1.8,0.6,1.8,2.1c0,0.7,0.2,1.6,0.4,1.8c0.3,0.4,0.5,0.3,1.2-0.5
		c0.6-0.7,1.1-1,2-1.2c1-0.1,1.2-0.1,1.6,0.6c0.3,0.5,0.4,1,0.3,1.8c-0.2,1.4-1.2,3.9-1.2,3.1c0-0.3,0.2-1,0.4-1.6
		c0.5-1,0.5-2.5,0.2-3.1c-0.5-0.8-2.2-0.4-2.9,0.7c-1,1.6-2.2,0.8-2.2-1.4c0-1.5-0.2-1.8-1.5-2c-1.2-0.2-1.5-0.5-2.2-1.8
		c-1-2-3.2-4-4.3-4c-0.9,0-0.7,0.5,0.2,0.6c1,0.2,3.5,2.7,3.7,3.8c0.2,1,1.3,1.8,2.2,1.8c1.1,0,1.5,0.6,1.2,1.8
		c-0.2,1-0.2,1,0.9,2.1l1.1,1l0.4-0.6c0.7-1.2,1.9-2.2,2.4-2.1c0.6,0.1,0.7,1.6,0.2,3c-0.3,0.7-0.4,1.8-0.4,3.5c0,1.3-0.1,3.1-0.2,4
		c-0.2,1.6-0.2,1.7,0.6,2.4c0.7,0.7,0.9,1,0.9,2.2c0.1,2.3,0.3,2.8,1.7,3.7c1.2,0.7,1.3,0.9,1.3,2c0,0.6,0.3,2.2,0.8,3.6
		c0.5,1.3,0.8,2.5,0.8,2.7s0.5,1,1.2,2c0.6,1,1.4,2.4,1.6,3.3c0.6,2.1,1.3,2.1,2.7,0.1c0.7-1,1-1.7,1-2.4c0-0.5,0.4-2.1,1-3.5
		c0.9-2.3,1-2.7,0.8-4.3c-0.2-1.5-0.1-2.1,0.7-4.2c0.5-1.3,1-3.6,1.3-5.1c0.6-3.9,0.6-3.9,1.4-4.5c1.1-1,1.7-2.8,1.7-4.8
		c0-1.6,0.1-1.9,0.7-2.5c0.6-0.6,0.9-0.7,2.4-0.7h1.6l-0.2-1.2c-0.5-2.9-0.5-3.5-0.2-4c0.2-0.5,0.5-0.6,1-0.5
		c0.7,0.1,0.9-0.2,0.2-0.5c-1.6-0.6-2.6,1.8-1.6,4c0.5,1.1,0.2,1.5-1.2,1.5c-1.7,0-2.9,1-3.3,2.7c-0.2,1-0.4,0.6-0.3-0.6
		c0.1-0.7,1.8-2.3,2.5-2.4c0.3,0,0.9-0.1,1.3-0.1c0.5,0,0.6-0.2,0.6-0.4c-0.3-1-0.3-3.7,0.1-4.3c0.3-0.6,0.6-0.7,1.6-0.7
		c1.2,0,1.2-0.1,2.7-2.1c0.8-1.2,2-3.1,2.7-4.4c1.2-2.2,1.2-2.4,0.9-3.4c-0.7-2.5-2.7-3.5-5.2-2.6c-1.9,0.7-2.9,0.6-3.9-0.4
		c-0.5-0.5-0.8-0.9-0.8-1c0-0.1-0.7-0.3-1.6-0.5s-2.1-0.6-2.6-1c-0.7-0.5-1.3-0.7-2.5-0.7c-1.3,0-1.7-0.1-3.6-1.4
		c-1.2-0.8-2.5-1.6-3.1-1.8c-2.4-0.8-2.7-1.7-1.3-3.9c0.9-1.5,1.2-2.9,0.9-5.5l-0.2-1.7l-1.6-0.2c-1.8-0.2-2.1-0.3-2.5-1.8
		C432.6,117.9,432.3,117.5,431.9,117.5z"/>
</g>
<g id="Ural">
	<path id="path13061" fill="#999999" d="M436.1,91.9c0.2-0.7,0-1.2,0.2-1.5s0.8-1,0.8-1.3c0,0,0.2-1,1.3-1.2c0.6-0.2,1.2-0.8,1-1.4
		c0-1.1-0.5-1.2,0.6-1.8c0.9-0.5,0.3-1,0.3-2.6s-0.1-1.7-1.4-3.2c-0.8-0.9-1.6-2-1.8-2.5c-0.3-0.6-0.6-0.9-1.6-1.2
		c-0.6-0.2-1.2-0.5-1.2-0.6s-0.1-0.3-0.1-0.5c-0.1-0.2-0.1-0.7-0.1-1.3c0-0.6-0.3-1.3-0.5-1.7c-0.5-0.6-0.6-0.6-1.4-0.3
		c-1.2,0.4-1.6,0.2-2.1-1.2c-0.4-1.1-0.4-1.3,0-1.8c0.2-0.3,0.7-0.7,1-0.8c0.4-0.1,0.6-0.5,0.6-1.5c0.1-0.9,0.3-1.6,0.7-2
		c0.5-0.6,0.6-0.9,0.5-2.6c-0.1-1.9-0.1-2-1.3-2.9c-1.3-1.1-1.4-1.5-0.6-3.1c0.7-1.5,0.5-2.8-0.7-3.9c-0.5-0.5-1.7-1.9-2.6-3.2
		c-0.9-1.3-1.8-2.5-2-2.7c-0.3-0.2-0.4-1-0.4-2.6c0-2.2,0-2.3-0.6-2.3c-0.3,0-0.9-0.2-1.2-0.4c-0.5-0.3-0.5-0.5-0.2-1.3
		c0.3-0.7,0.3-0.9-0.2-1.1c-0.3-0.1-0.7-0.6-0.9-1.2c-0.2-0.5-0.5-0.9-0.6-0.9c-1.2,0.3-3.2-2.6-2.8-3.9c0.1-0.3,0-0.6-0.1-0.7
		c-0.3-0.2-0.9,0.7-1,2c-0.1,0.6-0.2,1.3-0.3,1.7c-0.2,0.9-1.6,2.4-2.5,2.8c-1,0.4-3.1,0.4-3.7,0c-0.6-0.3-1.1-1.4-0.6-1.4
		c0.1,0,0.2,0.2,0.2,0.3c0,0.5,1.2,1,2.1,1c1,0,2.5-0.7,3.4-1.6c0.6-0.6,0.9-1.2,1-2.7c0.3-1.9,0.8-2.9,1.5-2.7
		c0.2,0.1,0.4,0.6,0.4,1.3c0,1.3,1,3,1.9,3.3c0.9,0.3,0.9-0.1,0-0.6c-1-0.6-1.4-1.4-1.4-3.3c0-1.8-0.4-2.1-1.6-1.2
		c-0.6,0.5-0.9,0.9-1.1,2.1c-0.2,0.9-0.3,1.8-0.4,2.1c-0.2,0.7-1.3,2-2.2,2.3c-1.4,0.6-3.4,0.2-3.4-0.7c0-0.2,0.5-1,1.2-1.8
		c1.4-1.7,2.9-4.4,2.9-5.2c0-0.9-1-2.6-2.3-4c-0.7-0.7-1.3-1.6-1.4-1.8c-0.1-0.3,0.2-1.3,0.5-2.2c0.4-0.9,0.7-1.9,0.7-2.2
		c0-0.5-1-1.1-2.7-1.6c-0.3-0.1-1-0.7-1.6-1.5c-0.5-0.7-1.1-1.3-1.2-1.3c-0.1,0-0.2,0.6-0.2,1.3c0,1-0.2,1.5-0.6,2
		c-0.5,0.5-0.6,0.9-0.5,2.2c0.1,1.6-0.5,3.1-1.1,3.3c-0.4,0.2,0.7,1.4,1.4,1.7c0.3,0.1,0.7,0.6,0.9,1.2c0.3,0.7,0.7,1.2,1.3,1.4
		c0.7,0.3,0.9,0.6,0.9,1.3c0.1,0.7,0,0.9-0.5,1s-0.5,0.3-0.3,0.9c0.3,1.2,0.2,5-0.2,6.4c-0.2,0.8-0.8,1.8-1.6,2.7
		c-1.2,1.4-1.3,1.4-1.2,3.2c0,1,0.2,2.5,0.5,3.4c0.6,2.5,0.7,4,0.5,5.6c-0.6,3.3-0.6,4,0,5c1,1.6,0.7,3.8-0.6,5
		c-0.4,0.3-0.6,0.8-0.5,1c0.2,0.5,2,1.5,2.8,1.5c1.3,0,1.9,3.3,0.8,4.4c-0.3,0.3-0.7,0.5-1,0.5c-0.6,0-0.5,0.3,0.3,1.5
		c0.5,0.6,0.7,1.4,0.7,2.1c0,0.6,0.1,1.3,0.3,1.5c0.2,0.3,0.2-0.1,0.1-1.4c-0.1-1.2-0.3-2-0.7-2.5c-0.5-0.6-0.5-0.8-0.2-1
		c0.2-0.1,0.5-0.2,0.6-0.2c0.5,0,1.1-1.8,0.9-2.8c-0.3-1.7-0.8-2.3-2.4-2.7c-1.8-0.5-2.1-0.9-1.3-1.9c0.4-0.5,0.9-1.5,1-2.3
		c0.3-1.3,0.3-1.6-0.2-2.4c-0.8-1.4-0.9-2.1-0.5-3.7c0.5-2,0.5-4.5,0-6.5c-0.2-0.9-0.5-2.5-0.6-3.7l-0.2-2.1l1-1.1
		c0.5-0.6,1.2-1.4,1.4-1.8c0.7-1.4,1.2-4.2,1.1-6c-0.1-1.3-0.1-1.8,0.3-2.4c0.7-1,0.3-2.5-0.7-3.1c-0.4-0.2-1-0.7-1.2-1.2
		c-0.2-0.5-0.9-1.1-1.4-1.4c-0.5-0.3-0.9-0.6-0.9-0.6s0.2-0.6,0.6-1.3c0.3-0.9,0.5-1.7,0.5-2.6c-0.1-0.7,0.1-1.5,0.2-1.7
		c0.2-0.2,0.5-0.8,0.7-1.3l0.5-0.9l0.6,0.7c0.3,0.4,1.3,1,2.1,1.3s1.6,0.7,1.6,0.9c0,0.6-1.4,4.1-1.6,3.7c-0.1-0.2,0.2-1.1,0.6-2
		c0.4-0.9,0.6-1.7,0.6-1.8s-0.6-0.3-1-0.5c-1.2-0.2-2.6-1.2-2.7-1.7c-0.1-0.3-0.1-0.2-0.2,0.2c0,0.4-0.3,0.9-0.5,1.2
		c-0.4,0.3-0.5,0.9-0.6,2.5c-0.1,1.4-0.2,2.2-0.6,2.5c-0.4,0.5-0.4,0.5,0.6,1.2c0.6,0.4,1.2,1,1.3,1.6c0.2,0.6,0.5,0.9,1,1
		c1.1,0.3,1.7,2.6,1,3.5c-0.2,0.2-0.3,1.6-0.4,3.3c-0.1,2.5-0.2,3.2-0.7,4.4c-0.4,0.8-1.1,1.9-1.6,2.4c-0.7,0.8-0.9,1.1-0.9,2.3
		c0,0.7,0.2,2.4,0.5,3.7c0.6,2.8,0.7,5.7,0.1,7c-0.5,1.3-0.5,1.7,0.1,2.9c0.7,1.4,0.7,3.6-0.1,5.2l-0.6,1.3l0.6,0.4
		c0.3,0.2,0.8,0.4,1.1,0.4s0.7,0.1,0.9,0.2c0.5,0.3,1.4,2.5,1.4,3.3c0,0.9-0.7,2.1-1.4,2.7c-0.3,0.2-0.5,0.4-0.3,0.4
		c0.4,0,1.2,2.5,1.2,3.8c0,0.8,0.2,1.1,0.9,1.5c0.5,0.3,1,1,1.2,1.6c0.2,0.6,0.5,1.2,0.6,1.2c1.2,0.4,3.5,3.5,4.3,5.7l0.4,1.3
		l1.3-0.2c1.5-0.2,1.7-0.1,2.2,1.7c0.3,1,0.5,1.2,1.7,1.7c1.1,0.5,1.6,0.5,2.9,0.4c1.6-0.2,1.6-0.2,2.1,0.7c0.6,1,0.7,1,1.7,0.3
		c0.7-0.5,1.7-0.5,1.7,0c0,0.3,3.2,4.8,3.5,4.8c0.2,0,1.1-0.7,1.3-1.4L436.1,91.9z"/>
</g>
<g id="NorthernEurope">
	<g id="path9050">
		<path fill="#999999" d="M320,107.1l-1.4-3.7l-3.7-4.8c0,0,1.7-4.8,1.8-6.5c0.2-1.6,2.9-3.2,2.9-3.2l3.6-4.3l3.2-4.6l1.2-3.8
			c0,0-0.5-3.5-0.8-3.5c-0.3,0.1-0.1-2.2,1-2.6c1-0.4,0.9-0.6,0.9-0.6l0.9,1.1l0.5,1.4l-0.5,1.3l-0.2,2c0,0,0.2,1.8,1.7,1.7
			c1.5-0.2,4.2-0.9,4.2-0.9l7.3-1.3l3.2,0.3l2.2-0.9l4.1,3.1c0.1,1.4,0.6,3.6,0.6,5.1l1.7,3.1l0.7,1.3l-0.3,1.3l-0.9,2.3l-1.2,3.2
			l-0.9,1.3l-0.7,0.3l-1.3,0.4h-0.9c0,0-0.6,0-0.6,1.7c0,0.6,2,0.5,2,0.5l-0.8,1.1l-1.5,0.9c0,0-1.1,1.7-1.4,2
			c-0.1,0.1-1.1,2.6-1.1,2.6c0.1,0.2,0.4,2.2,0.3,2.5l0.1,2l-0.4-0.1l-1.4-0.2l-1.7,0.2h-2.6c0,0-1-1.6-0.8-2.2
			c0.2-0.5,0.5-2.3,0.5-2.3l0.1-0.3v-0.9c0,0,0.2-0.6-0.7-0.9s-4.3,0.1-4.3,0.1l-0.9,0.1l-1.5,1.2c-0.1,0.6-0.1,1.2-0.6,1.8l-0.6,1
			l-0.7,0.3c0,0-0.1,0.2-0.8,0.2c-0.7,0.1-1.6,0.3-1.6,0.3C326.6,108,323.1,107.5,320,107.1z"/>
		<path fill-opacity="0" stroke="#000000" stroke-width="2.000000e-03" d="M320,107.1l-1.4-3.7l-3.7-4.8c0,0,1.7-4.8,1.8-6.5
			c0.2-1.6,2.9-3.2,2.9-3.2l3.6-4.3l3.2-4.6l1.2-3.8c0,0-0.5-3.5-0.8-3.5c-0.3,0.1-0.1-2.2,1-2.6c1-0.4,0.9-0.6,0.9-0.6l0.9,1.1
			l0.5,1.4l-0.5,1.3l-0.2,2c0,0,0.2,1.8,1.7,1.7c1.5-0.2,4.2-0.9,4.2-0.9l7.3-1.3l3.2,0.3l2.2-0.9l4.1,3.1c0.1,1.4,0.6,3.6,0.6,5.1
			l1.7,3.1l0.7,1.3l-0.3,1.3l-0.9,2.3l-1.2,3.2l-0.9,1.3l-0.7,0.3l-1.3,0.4h-0.9c0,0-0.6,0-0.6,1.7c0,0.6,2,0.5,2,0.5l-0.8,1.1
			l-1.5,0.9c0,0-1.1,1.7-1.4,2c-0.1,0.1-1.1,2.6-1.1,2.6c0.1,0.2,0.4,2.2,0.3,2.5l0.1,2l-0.4-0.1l-1.4-0.2l-1.7,0.2h-2.6
			c0,0-1-1.6-0.8-2.2c0.2-0.5,0.5-2.3,0.5-2.3l0.1-0.3v-0.9c0,0,0.2-0.6-0.7-0.9s-4.3,0.1-4.3,0.1l-0.9,0.1l-1.5,1.2
			c-0.1,0.6-0.1,1.2-0.6,1.8l-0.6,1l-0.7,0.3c0,0-0.1,0.2-0.8,0.2c-0.7,0.1-1.6,0.3-1.6,0.3C326.6,108,323.1,107.5,320,107.1z"/>
	</g>
</g>
<g id="EasternAustralia">
	<g id="path8950">
		<path fill="#B3B3B3" d="M451.7,230.6l0.5,7.8l0.3,7l0.1,10.7l1.2,1.1l17.2,0.1l-0.5,16.1l0.2,4.6l-0.8,3.9l-1.6,1.4l0.6,3.2
			l0.7,2.1l2.9,0.4l0.5,0.2l0.9,1.2l3.1,0.7l0.7-1.3h0.2l0.9,1.5l2.5,0.2c0,0,1.3-1.4,1.4-1.9c0.1-0.5,4.6-0.6,4.6-0.6
			s0.8-0.4,1-1.4c0.1-1,0.2-1.4,0.2-1.4l0.2-0.1l0.2,0.4h0.1l-0.1-0.5l-0.2-0.3l-0.2-0.1h-0.3c0,0-0.2,0-0.1-0.3
			c0.1-0.3,0.6-0.8,0.6-0.8l0.5-0.4l0.2-0.1h0.1l0.1-0.1l0.1-0.2l0.1-0.3c0,0,0-0.7,0.2-0.7c0.2-0.1,0.3,0,0.3,0l0.2,0.1h0.1h0.1
			h0.1l0.1-0.1l0.1-0.1v-0.1v-0.2v-0.1v-0.1l0,0l0,0h-0.1l-0.2,0.2l-0.1,0.1l-0.1,0.1c0,0-0.1,0.1-0.1,0c0,0-0.2-0.2-0.1-0.6
			c0.1-0.5,0.3-1.1,0.3-1.1l0.6-1.3l0.6-1.3l0.9-1.8l0.6-0.9l0.2-0.1l0.1-0.1c0,0-0.1-0.1-0.1-0.3s0.3-0.5,0.3-0.5l0.2-0.2l0.1-0.3
			l0.1-0.1v-0.2c0,0,0-0.2,0.3-0.2c0.3-0.1,0.3-0.1,0.3-0.1s0.1-0.1,0.1-0.1c0-0.1-0.1-0.1-0.1-0.1s0-0.1,0-0.2
			c0-0.1,0.1-0.3,0.2-0.3s0.1-0.1,0.2-0.2s1-1,1-1l-0.5-11.3l-0.5-1.6l-1.8-2.1l0.1-0.2l-0.6-0.1l-0.3-2l-0.3-0.5l-1.8-2l-0.3-1
			l-0.1-1.7l-0.2-0.9l-0.2-0.4l0.1-0.1l0.5,0.2l0.1-0.1v-0.2l-0.6-0.5l-0.8-0.2l-3.3-2.1l-1.3-1.6l-0.3-2.5c0,0-3.5-3.6-3.6-4.3
			c-0.1-0.6-0.9-3.1-0.9-3.1l-0.1-1.1l0.2-0.2c0,0-1.2-3.5-2-4.9c-0.7-1.4-2.3-3.2-2.3-3.2l-1.3-0.2l-0.9,0.9l-0.3,1.7
			c0,0-0.1,0.8-0.2,0.9c-0.1,0-0.2,0-0.2,0v0.2c0,0-0.7,4.3-1.2,4.3c-0.5-0.1,0.1,2,0.2,2.9s-0.6,4.8-0.6,4.8l-0.8,0.4l-1-0.5
			l-2.1-2.1l-2.2-0.9l-0.4-0.4c0,0-2-0.2-1.3-1.2c0.7-1,2.4-3.2,2.4-3.2l0.2-0.9l-0.1-2.2l-8.2-0.3L451.7,230.6z"/>
		<path fill-opacity="0" stroke="#000000" stroke-width="2.000000e-03" d="M451.7,230.6l0.5,7.8l0.3,7l0.1,10.7l1.2,1.1l17.2,0.1
			l-0.5,16.1l0.2,4.6l-0.8,3.9l-1.6,1.4l0.6,3.2l0.7,2.1l2.9,0.4l0.5,0.2l0.9,1.2l3.1,0.7l0.7-1.3h0.2l0.9,1.5l2.5,0.2
			c0,0,1.3-1.4,1.4-1.9c0.1-0.5,4.6-0.6,4.6-0.6s0.8-0.4,1-1.4c0.1-1,0.2-1.4,0.2-1.4l0.2-0.1l0.2,0.4h0.1l-0.1-0.5l-0.2-0.3
			l-0.2-0.1h-0.3c0,0-0.2,0-0.1-0.3c0.1-0.3,0.6-0.8,0.6-0.8l0.5-0.4l0.2-0.1h0.1l0.1-0.1l0.1-0.2l0.1-0.3c0,0,0-0.7,0.2-0.7
			c0.2-0.1,0.3,0,0.3,0l0.2,0.1h0.1h0.1h0.1l0.1-0.1l0.1-0.1v-0.1v-0.2v-0.1v-0.1l0,0l0,0h-0.1l-0.2,0.2l-0.1,0.1l-0.1,0.1
			c0,0-0.1,0.1-0.1,0c0,0-0.2-0.2-0.1-0.6c0.1-0.5,0.3-1.1,0.3-1.1l0.6-1.3l0.6-1.3l0.9-1.8l0.6-0.9l0.2-0.1l0.1-0.1
			c0,0-0.1-0.1-0.1-0.3s0.3-0.5,0.3-0.5l0.2-0.2l0.1-0.3l0.1-0.1v-0.2c0,0,0-0.2,0.3-0.2c0.3-0.1,0.3-0.1,0.3-0.1s0.1-0.1,0.1-0.1
			c0-0.1-0.1-0.1-0.1-0.1s0-0.1,0-0.2c0-0.1,0.1-0.3,0.2-0.3s0.1-0.1,0.2-0.2s1-1,1-1l-0.5-11.3l-0.5-1.6l-1.8-2.1l0.1-0.2l-0.6-0.1
			l-0.3-2l-0.3-0.5l-1.8-2l-0.3-1l-0.1-1.7l-0.2-0.9l-0.2-0.4l0.1-0.1l0.5,0.2l0.1-0.1v-0.2l-0.6-0.5l-0.8-0.2l-3.3-2.1l-1.3-1.6
			l-0.3-2.5c0,0-3.5-3.6-3.6-4.3c-0.1-0.6-0.9-3.1-0.9-3.1l-0.1-1.1l0.2-0.2c0,0-1.2-3.5-2-4.9c-0.7-1.4-2.3-3.2-2.3-3.2l-1.3-0.2
			l-0.9,0.9l-0.3,1.7c0,0-0.1,0.8-0.2,0.9c-0.1,0-0.2,0-0.2,0v0.2c0,0-0.7,4.3-1.2,4.3c-0.5-0.1,0.1,2,0.2,2.9s-0.6,4.8-0.6,4.8
			l-0.8,0.4l-1-0.5l-2.1-2.1l-2.2-0.9l-0.4-0.4c0,0-2-0.2-1.3-1.2c0.7-1,2.4-3.2,2.4-3.2l0.2-0.9l-0.1-2.2l-8.2-0.3L451.7,230.6z"/>
	</g>
</g>
<g id="Ontario">
	<g id="path26397">
		<path fill="#666666" d="M179.1,95.5c-0.5-0.8-0.7,5.7-0.6,7.8c-0.5,1-0.6,0.9-1.1,2.8c-0.3,6.6-0.7,11.6-0.9,17.4l16.6,0.2
			l3.6,1.3l7.2-1.1l3.3,1.1l1.3,3.5l7.2,3.9l1-12.6l-2-0.2l-2.9-7.2l2-1.5l-4.6-0.5L207,109l-3.6-0.7l-2.2-0.6l-3.7-2.5l-0.7-0.9
			h1.5l0.5-0.9l-0.7-1.1l-0.5-0.9l-0.7,1l-0.8,0.1l-0.8-0.7l0.2-2.6l0.2-2.1l-0.3-0.4l-1,3.1l0.5-3.3c-1,0.4-1.4-0.3-2.2-0.6
			l-4.8-0.3l-5-0.1L179.1,95.5z"/>
		<path fill-opacity="0" stroke="#000000" stroke-width="0.119" d="M179.1,95.5c-0.5-0.8-0.7,5.7-0.6,7.8c-0.5,1-0.6,0.9-1.1,2.8
			c-0.3,6.6-0.7,11.6-0.9,17.4l16.6,0.2l3.6,1.3l7.2-1.1l3.3,1.1l1.3,3.5l7.2,3.9l1-12.6l-2-0.2l-2.9-7.2l2-1.5l-4.6-0.5L207,109
			l-3.6-0.7l-2.2-0.6l-3.7-2.5l-0.7-0.9h1.5l0.5-0.9l-0.7-1.1l-0.5-0.9l-0.7,1l-0.8,0.1l-0.8-0.7l0.2-2.6l0.2-2.1l-0.3-0.4l-1,3.1
			l0.5-3.3c-1,0.4-1.4-0.3-2.2-0.6l-4.8-0.3l-5-0.1L179.1,95.5z"/>
	</g>
</g>
<g id="Siberia">
	<path id="path13055" fill="#999999" d="M451.6,92.5c0-0.3,0.2-1.2,0.5-1.9c0.5-1.3,0.5-1.3-0.4-3.1c-0.9-2.1-0.9-4.3-0.2-5.7
		c3.3-1.7-0.1-1-2-2.2c-1.8-1.2-2.7-1.9-2.7-2.4c0-0.2,0.5-1.4,1.1-2.7l1.1-2.3l-0.7-2.1c-0.4-1.2-0.7-2.4-0.7-2.8
		c0-0.7,0.9-1.3,2.2-1.3c0.6,0,0.8-0.1,1-0.7c0.3-1.6,0.8-2.4,2.1-3.3c0.7-0.6,1.6-1.3,1.7-1.6c0.7-1.2,3-0.2,3.9,1.7
		c0.8,1.7,1.2,2,2,1.3c0.5-0.5,0.6-0.9,0.5-2.2c-0.1-0.9,0.1-1.7,0.2-1.8c0.5-0.3,0.3-1.6-0.2-2.1c-0.5-0.6-0.8-3.1-0.5-3.6
		c0.2-0.2,0.3-0.7,0.5-1.3c0.1-0.5,0.5-1.6,0.9-2.5l0.7-1.6l-0.7-1.3c-0.7-1.2-0.7-1.4-0.5-2.3c0.2-0.9,0.2-1-0.2-1.2
		c-0.7-0.2-1-1.2-1-2.7c0-0.7-0.2-1.7-0.7-2.5c-0.8-1.6-0.9-2.6-0.2-3.3c0.4-0.5,0.4-0.5-0.2-1.3c-0.3-0.5-0.9-0.8-1.3-0.8
		c-0.3,0-1.1-0.2-1.7-0.5c-1.7-0.7-1.8-2.1-0.2-3.1c0.5-0.3,1.4-1.1,2.1-1.8c1.3-1.3,1.7-1.5,2.7-0.8c0.4,0.3,0.9,0.3,1.7,0.2
		c1.8-0.3,2-0.5,2.1-3.5c0.1-1.4-0.1-2.7,0.1-2.9c-0.2-0.2,0.1-0.6,0-0.9c-0.3-0.5-0.2-0.7,0.6-1.5c0.8-0.9,0.9-1,0.6-1.7
		c-0.2-0.4-0.6-0.8-1.1-1c-1.2-0.5-1.7-1-1.7-2c0-0.7-0.2-0.9-0.8-1.2c-0.5-0.2-0.9-0.6-1-0.9c-0.2-0.5-0.3-0.5-1.6-0.3
		c-0.7,0.1-1.7,0.4-2.1,0.7c-0.9,0.7-1.8,0.6-2.9-0.2l-0.9-0.7l-1,0.9c-0.5,0.5-1,0.9-1.2,0.9c-0.1,0-0.5,0.3-0.9,0.6
		c-1.4,1.3-2.8,2.1-3.8,2.1c-1.2,0-1.6-0.4-1.6-1.6c0-1.6,1.7-3.7,3.9-5.1c1-0.6,2.1-1.2,2.2-1.2c0.7,0,0.3,0.5-1,1
		c-2.8,1.3-5.1,4.4-4.6,5.9c0.2,0.6,0.4,0.7,1.2,0.6c0.8-0.1,3.3-1.8,3.6-2.4c0.1-0.1,0.3-0.2,0.5-0.2c0.2,0,0.8-0.3,1.3-0.8
		c1.1-1,1.4-1,2.3-0.3c0.9,0.6,1.9,0.7,2.8,0.1c0.3-0.2,1.3-0.5,2.1-0.6c1.3-0.1,1.6-0.1,2.1,0.6c0.3,0.4,0.9,0.7,1.2,0.7
		c0.4,0,0.3-0.1-0.2-0.5c-0.4-0.2-0.8-0.7-0.9-1c-0.1-0.5-0.3-0.5-2-0.4c-1.3,0.1-2.1,0.2-2.4,0.6c-0.8,0.7-1.8,0.6-2.7-0.4
		l-0.9-0.9l-1.2,1.1c-0.6,0.6-1.3,1.1-1.4,1.1s-1,0.6-2,1.4c-2,1.5-3.1,1.8-3.1,0.7c0-1.5,2.6-4.2,5.3-5.4c0.7-0.3,0.8-0.5,1-2.2
		c0.1-1,0.2-2.1,0.1-2.2c-0.1-0.2-0.9-0.3-2.5-0.4l-2.4-0.1l-0.4-1.2c-0.2-0.6-0.6-1.4-0.9-1.7l-0.5-0.6l-1.2,0.9
		c-0.7,0.5-1.4,1.1-1.6,1.3c-0.4,0.6-1.6,0.6-2.1,0.1C440.5,2,440,1.9,438.5,2c-1.7,0.1-2,0.2-2.8,1c-0.9,0.8-1,0.9-2.2,0.7
		c-2-0.2-3.2,0.2-4.7,1.9c-0.7,0.8-1.7,1.6-2.1,1.7c-0.7,0.3-0.9,0.5-1,1.7c-0.1,0.8-0.3,1.4-0.6,1.5s-0.9,0-1.6-0.2
		c-1.5-0.4-2.2-0.2-2.4,0.6c-0.2,0.9,0.2,1.8,1.5,3.4c1.2,1.3,1.3,1.8,0.8,2.1c-0.5,0.3-2.7-0.5-2.8-0.9c-0.1-0.2-0.5-0.9-1-1.4
		c-0.8-0.9-0.9-0.9-1.2-0.4c-0.7,1-0.2,3,1.2,4.5c1.2,1.2,1.8,2.9,1.4,3.9c-0.4,1-1,1.2-1.9,0.3c-0.5-0.4-1.2-0.8-1.7-1
		c-0.7-0.2-1-0.5-1.3-1.4c-0.3-1.1-1.1-1.8-1.4-1.5c-0.1,0.1-0.2,0.7-0.3,1.3c-0.1,0.9,0.1,1.8,0.9,3.9c0.5,1.5,1.2,2.8,1.3,2.9
		c0.2,0.1,1,0.2,1.8,0.2c1.2,0,1.6,0.1,2.1,0.6c0.7,0.8,1.9,4.3,1.8,5.5c-0.1,1.3,0.2,1.5,0.5,0.3c0.2-0.9,0.3-0.9,0.3-0.2
		c0,0.4-0.3,1.2-0.5,1.5c-0.3,0.6,0.4,2.5,0.9,2.5c0.6,0,0.7,0.5,0.5,1.2c-0.1,0.6,0,1,0.7,1.4l1,0.2l0.1,2l0.2,2.1l1.7,2.4
		c1,1.3,2.3,3.1,3,3.9c1.7,1.8,2,3.2,1,5l-0.6,1.2l1.2,1.2l1,1.2l0.1,2.4c0.1,2.3-0.2,1.8-0.9,2.4c-0.6,0.5-0.5,1.1-0.5,2.1
		c0,1.2-0.7,0.6-1.5,2c-0.3,0.6-0.1,1.1,0,1.3c0.1,0.2,0.2,0.5,0.2,0.6s0.5,0.9,0.8,0.7c0,0,1,0,1.3-0.2c0.9-0.5,2,1.3,2,2.7
		c0,1,0.1,1.1,0.8,1.3c0.8,0.2,1.3,0.6,2.5,2.5c0.3,0.5,1.1,1.5,1.7,2.2l1.2,1.4V83v2.4l1.3,0.8c1.6,1,1.7,1,2.6,0.2
		c0.5-0.3,0.9-0.5,1.3-0.4c0.8,0.2,2.1,2.4,2.7,4.6c0.5,1.7,0.6,1.8,1.6,2.2C451.3,93.5,451.6,93.3,451.6,92.5z"/>
</g>
</svg>
