<svg x="0" y="0" width="1125.84375" height="564.79688" version="1.1" xmlns="http://www.w3.org/2000/svg" xmlns:xlink="http://www.w3.org/1999/xlink"><g fill="none" stroke="none" stroke-width="1" stroke-linecap="butt" stroke-linejoin="miter" stroke-miterlimit="10" stroke-dasharray="" stroke-dashoffset="0" font-family="sans-serif" font-weight="normal" font-size="12" text-anchor="start" mix-blend-mode="normal"><g><g><path d="M321.59688,24.39378l-0.99375,1.275l2.025,1.0125l-0.50625,0.76875l-0.525,0.24375l3.5625,2.79375l-5.56875,-2.53125l1.7625,2.53125l-1.7625,-1.275l-1.03125,3.3l-0.99375,-1.03125l1.25625,-2.53125l-1.25625,-1.7625l-1.275,1.5375l-1.25625,-0.76875l-0.2625,4.03125l-1.25625,-1.5l0.75,-2.53125l-2.79375,3.28125l2.53125,1.5l-0.225,0l-2.79375,0.28125l0.75,1.25625l2.04375,-1.03125l1.25625,0.525l-3.01875,1.0125l2.75625,0l-0.76875,0.75l-0.99375,-0.4875l-1.275,0.4875l2.75625,0.24375l1.05,0.525l-4.55625,0.24375l3.28125,1.7625l-2.25,0l0.4875,1.25625l-2.025,-1.5l-1.25625,1.7625l0.2625,0.2625l2.75625,0.75l-2.53125,-0.50625l-0.75,0.50625l2.025,2.025l-1.275,0l1.275,1.03125l-1.275,-0.525l-0.225,2.79375l0.99375,0.75l1.5375,-1.03125l0.99375,3.3l-1.7625,1.03125l-1.03125,3.7875l4.05,1.0125l2.025,-1.5375l0.76875,1.03125l-2.2875,0.99375l2.2875,-0.4875l-3.54375,1.7625l3.28125,0l-0.76875,1.25625l1.5375,0.76875l2.025,-0.2625l-1.25625,-0.73125l1.7625,0l0.76875,-1.8l2.5125,-0.50625l1.275,0.50625l6.31875,1.8l0.24375,1.7625l0.4875,-1.03125l3.5625,3.05625l2.775,0.73125l-1.0125,0.76875l1.0125,-0.24375l0.61875,1.2375l0.13125,1.29375l2.30625,-0.525l-2.04375,-2.53125l2.04375,1.5375l1.25625,-1.275l-0.2625,1.7625l0.99375,-1.25625l0,1.7625l0.525,-0.99375l0,0.75l1.275,-0.4875l-0.76875,0.73125l3.0375,0.76875l-3.3,0.4875l-1.25625,1.5375l3.7875,0l1.7625,-1.5375l0.2625,0.28125l1.5375,2.775l0.99375,-0.75l0.50625,0.99375l-1.275,-0.24375l2.025,1.51875l0.2625,1.51875l1.78125,-0.2625l-3.80625,1.51875l2.025,-0.2625l-1.51875,0.76875l0.99375,1.7625l0.76875,-2.75625l0,0.73125l1.7625,-1.5l-2.26875,4.03125l2.53125,-1.7625l-2.025,2.53125l2.53125,-0.50625l-0.76875,1.51875l1.5375,-0.525l0.2625,-2.25l0.99375,-0.2625l-1.25625,4.81875l1.7625,-1.5375l-0.76875,2.025l1.8,0.50625l0.225,-2.26875l1.275,-0.2625l-1.275,2.79375l0.50625,-0.50625l1.25625,1.7625l0.525,-1.25625l-0.2625,1.5l1.5375,1.275l0,-2.775l-1.5375,-1.03125l3.80625,1.275l-2.025,0.525l1.25625,-0.2625l-0.99375,2.26875l1.7625,-1.51875l-1.275,1.78125l1.0125,-0.50625l0,1.5l1.25625,-0.99375l-0.24375,1.25625l1.275,-0.76875l-1.03125,1.03125l1.5375,-0.76875l0.99375,1.7625l0,-1.51875l0.76875,2.2875l1.7625,-0.4875l0.2625,1.25625l0.76875,-1.03125l0,1.275l0.225,-1.0125l0.525,1.0125l0.75,-0.24375l-0.50625,0.99375l1.25625,-1.25625l-0.4875,1.25625l1.51875,-0.99375l1.7625,1.25625l1.5,-3.7875l0.28125,2.53125l0.2625,-1.8l0.4875,2.04375l0.24375,-1.5l1.03125,0.99375l-0.2625,-1.5375l1.0125,2.30625l-0.2625,-2.04375l1.275,1.78125l-0.2625,-1.5l1.78125,-0.54375l-2.53125,0l1.51875,-1.5l-1.51875,0l0.24375,-1.51875l-1.25625,0.76875l1.0125,-1.0125l-1.25625,0l0.50625,-1.25625l-1.03125,0.4875l0.525,-1.25625l-0.76875,0.50625l0,-1.5375l-2.53125,-0.225l1.275,-0.50625l-2.025,0l0.99375,-1.8l-1.5,-0.73125l1.25625,-0.2625l-1.7625,-0.2625l1.275,-0.50625l-1.03125,0l0.50625,-1.25625l-1.5,0.2625l1.5,-0.76875l-1.5,-0.76875l-1.275,0.50625l0.76875,-1.5l-3.05625,-1.03125l1.25625,-0.73125l-1.25625,-1.275l-0.24375,-0.2625l1.275,-2.025l-2.53125,-2.025l0.99375,-0.50625l0.76875,1.5375l0.99375,-0.2625l-1.25625,-0.76875l1.03125,0.2625l0.225,-2.025l-1.25625,-0.24375l1.03125,-1.03125l-3.5625,-4.29375l-0.24375,-1.7625l-2.53125,-0.75l2.26875,0l0.76875,-1.5375l-0.99375,-0.73125l0.99375,0l-0.2625,-3.80625l-3.2625,-5.8125l-0.2625,-0.50625l-2.26875,2.26875l0.73125,2.53125l0,0.2625l-0.225,0.24375l-0.76875,0.4875l-0.50625,-2.53125l-0.46875,1.1625l0.46875,-2.41875l-1.7625,-0.50625l1.25625,3.01875l0,0.01872l-0.525,1.25625l-1.7625,-2.53125l1.03125,-0.4875l-0.525,-1.7625l-2.26875,2.25l0,-1.25625l-1.51875,0.2625l3.54375,-2.025l3.80625,0.2625l-1.275,-1.25625l1.5,0.4875l0,-0.99375l-2.26875,0l-1.25625,-1.03125l-0.2625,0.50625l-0.73125,-0.75l0,1.0125l-0.76875,-0.76875l-2.53125,0.76875l0.76875,1.25625l-0.76875,-0.4875l-0.50625,0.75l0.24375,-1.51875l-1.25625,0l0.4875,1.51875l-1.5,0.24375l0,-2.26875l-1.03125,2.025l0,-1.25625l-1.25625,0.24375l1.51875,-0.50625l-0.75,-1.5375l-2.04375,0.2625l2.04375,-0.4875l-1.0125,-0.50625l1.275,-1.25625l-0.76875,1.25625l2.025,-0.525l-0.2625,-2.00625l-1.5,-0.525l-1.03125,0.76875l1.5375,0.76875l-1.7625,0l-1.8,-1.0125l1.5375,-1.25625l0.2625,-0.2625l-0.76875,-0.76875l-0.50625,0.76875l-0.525,0.4875l-1.5,-0.75l-0.76875,1.25625l0.2625,-1.5l-1.78125,0.99375l2.025,-1.25625l0.2625,-0.24375l-2.2875,-0.75l-0.24375,0.225l-1.03125,1.03125l-0.4875,-1.5375l-0.50625,1.275l-2.025,0l0.2625,-1.7625l0,-1.275l-2.025,-0.4875l-0.76875,0.99375l-0.24375,0.50625l-0.2625,-0.75l-0.2625,-0.525l-0.73125,0.2625l-0.76875,0.2625l1.25625,1.0125l-1.7625,-0.50625l-2.79375,-2.025l-3.7875,-2.025l0.50625,1.25625l0,0.2625l-1.275,-0.2625l-0.225,-0.225l-1.03125,-2.30625l-0.50625,1.7625l0,0.54375l-0.2625,-0.54375l-0.4875,-2.5125l-3.3,-1.275z" fill="#c169f5"/><path d="M220.06563,144.05625l0.2625,-2.75625l-1.6092,1.4006z" fill="#b97099" stroke="#000000"/><path d="M218.63019,142.61127l-0.32707,0.45123l0.4158,-0.3619z" fill="#1aab6d" stroke="#000000"/><path d="M236.39293,160.49213l-10.33043,1.41412l-7.43231,-19.29498l1.69793,-2.34252l-4.55625,-2.26875l-0.4875,6.05625l0.99375,0l-1.5,2.53125l1.5,0.50625l-1.25625,-0.24375l-5.30625,12.39375l-0.2625,5.55l-2.025,3.5625l0.2625,6.54375l1.25625,4.06875l2.26875,0.2625l0,2.53125l-0.99375,-1.5375l-0.2625,2.26875l3.54375,9.375l-0.525,2.26875l1.8,0.99375l4.29375,2.53125l2.75625,3.80625l3.3,13.40625l0.50625,1.0125l4.81875,6.075l-1.03125,1.7625l1.03125,1.25625l-3.80625,-0.99375l4.575,4.78125l1.5,-0.75l3.01875,3.7875l-0.225,4.81875l6.05625,5.56875l1.0125,2.5125l2.00625,-0.75l-0.99375,-3.3l-3.0375,-1.5l-2.025,-8.60625l-3.7875,-5.30625l-0.2625,-2.53125l-5.0625,-7.0875l-0.24375,-7.3125l5.56875,3.525l1.25625,5.0625l0.76875,3.01875l-0.01872,0.0375l-0.75,0.73125l0.76875,1.0125l0,-1.6875l0.24375,0.9375l3.28125,4.5375l2.025,0.525l-0.2625,2.00625l4.55625,4.55625l-0.99375,2.025l4.55625,2.79375l0,1.7625l7.06875,7.0875l2.5125,5.55l-1.25625,2.26875l1.03125,0.76875l-1.7625,0.50625l0.73125,1.51875l7.35,6.5625l5.8125,1.51875l3.28125,2.53125l4.05,1.275l13.14375,4.05l8.60625,-2.025l8.4,4.8375l1.55625,-5.5875l4.85625,-0.525l-0.1125,-1.3875l-3.50625,-1.9875l1.21875,-0.4125l-0.01872,-2.04375l6.80625,-1.06875l2.90625,-3.4875l1.66875,1.78125l1.25625,-5.2875l-1.25625,-0.2625l3.01875,-6.5625l-5.04375,-0.2625l-7.59375,3.28125l-1.275,6.05625l-3.01875,3.80625l-2.79375,-0.50625l-7.81875,2.79375l-2.79375,-2.2875l-2.53125,0.2625l-7.59375,-11.8875l-0.225,-2.025l-0.2625,-7.0875l0.2625,-2.79375l1.5,-0.73125l-0.50625,1.5l1.25625,-3.525l-0.99375,-4.81875l-1.25625,-0.24375l1.25625,0l0.73125,-3.3l2.79375,-1.25625l-0.99375,-0.99375l2.26875,0.225l-0.76875,0.50625l3.7875,-2.26875l0.2625,-2.53125l-15.12819,-18.78125l-18,11l-6,-7l5.73407,-18.83491l-22.73407,-5.16509l-7,-6z" fill="#70bf43" stroke="#000000"/><path d="M236.39293,160.49213l-10.33043,1.41412l-7.43231,-19.29498l1.69793,-2.34252l-4.55625,-2.26875l-0.4875,6.05625l0.99375,0l-1.5,2.53125l1.5,0.50625l-1.25625,-0.24375l-5.30625,12.39375l-0.2625,5.55l-2.025,3.5625l0.2625,6.54375l1.25625,4.06875l2.26875,0.2625l0,2.53125l-0.99375,-1.5375l-0.2625,2.26875l3.54375,9.375l-0.525,2.26875l1.8,0.99375l4.29375,2.53125l2.75625,3.80625l3.3,13.40625l0.50625,1.0125l4.81875,6.075l-1.03125,1.7625l1.03125,1.25625l-3.80625,-0.99375l4.575,4.78125l1.5,-0.75l3.01875,3.7875l-0.225,4.81875l6.05625,5.56875l1.0125,2.5125l2.00625,-0.75l-0.99375,-3.3l-3.0375,-1.5l-2.025,-8.60625l-3.7875,-5.30625l-0.2625,-2.53125l-5.0625,-7.0875l-0.24375,-7.3125l5.56875,3.525l1.25625,5.0625l0.76875,3.01875l-0.01872,0.0375l-0.75,0.73125l0.76875,1.0125l0,-1.6875l0.24375,0.9375l3.28125,4.5375l2.025,0.525l-0.2625,2.00625l4.55625,4.55625l-0.99375,2.025l4.55625,2.79375l0,1.7625l7.06875,7.0875l2.5125,5.55l-1.25625,2.26875l1.03125,0.76875l-1.7625,0.50625l0.73125,1.51875l7.35,6.5625l5.8125,1.51875l3.28125,2.53125l4.05,1.275l13.14375,4.05l8.60625,-2.025l8.4,4.8375l1.55625,-5.5875l4.85625,-0.525l-0.1125,-1.3875l-3.50625,-1.9875l1.21875,-0.4125l-0.01872,-2.04375l6.80625,-1.06875l2.90625,-3.4875l1.66875,1.78125l1.25625,-5.2875l-1.25625,-0.2625l3.01875,-6.5625l-5.04375,-0.2625l-7.59375,3.28125l-1.275,6.05625l-3.01875,3.80625l-2.79375,-0.50625l-7.81875,2.79375l-2.79375,-2.2875l-2.53125,0.2625l-7.59375,-11.8875l-0.225,-2.025l-0.2625,-7.0875l0.2625,-2.79375l1.5,-0.73125l-0.50625,1.5l1.25625,-3.525l-0.99375,-4.81875l-1.25625,-0.24375l1.25625,0l0.73125,-3.3l2.79375,-1.25625l-0.99375,-0.99375l2.26875,0.225l-0.76875,0.50625l3.7875,-2.26875l0.2625,-2.53125l-15.12819,-18.78125l-18,11l-6,-7l5.73407,-18.83491l-22.73407,-5.16509l-7,-6z" fill="#7f4ed5" stroke="#000000"/><path d="M297.24322,221.74703l0.72872,-0.55328l-1.78125,-0.50625z" fill="#3b3089" stroke="#000000"/><path d="M297.24322,221.74703l-0.28378,0.21547l0.33908,-0.1598z" fill="#aa4758" stroke="#000000"/><path d="M211.95132,104.58421l-1.48569,1.05329l1.51875,-0.50625l0.69512,-0.23171z" fill="#727d05" stroke="#000000"/><path d="M213.50313,105.25621l0,-0.63121l-0.82363,0.27454z" fill="#a50828" stroke="#000000"/><path d="M213.50313,105.25621l0,0.86879l-1.78125,3.5625l2.2875,-1.5375l1.5,-2.025z" fill="#c49413" stroke="#000000"/><path d="M282.20702,166.30288l4.85548,-10.39663l12,1l3.96612,-12.88171l-14.96612,-27.11829l-31.38963,7.04429l13.38963,23.95571l-33.66957,12.58588l-3.33043,15.41412l7,6l22.73407,5.16509l18.26593,0.83491z" fill="#26c898" stroke="#000000"/><path d="M256.67287,123.95054l-5.61037,-21.04429l-35.55312,3.21875l-2.00625,3.0375l0.75,0.76875l-2.00625,0.4875l-0.525,1.03125l1.51875,1.275l-1.51875,0.4875l0.76875,2.79375l2.2875,-1.78125l-0.76875,1.51875l1.275,0.76875l-1.78125,-1.03125l1.275,4.05l-2.025,1.0125l1.25625,-0.50625l-0.2625,1.275l2.53125,-1.0125l-3.0375,2.53125l0,1.5l1.275,-0.50625l-1.7625,0.76875l1.5,0.50625l-1.7625,0.2625l2.53125,0.76875l-2.26875,0l3.01875,1.25625l-0.99375,0l0.50625,0.73125l2.025,-0.4875l-2.2875,0.75l1.0125,1.275l1.0125,-1.0125l-0.76875,1.0125l1.2375,0.50625l-0.20625,0.2625l2.00625,0l-1.78125,1.5l1.03125,1.25625l1.0125,-0.73125l0.4875,-0.525l0,0.75l0.2625,1.275l-1.25625,0.50625l2.025,-0.24375l-0.76875,2.53125l1.275,1.5l-1.5375,5.8125l5.99687,17.85l10.33043,-1.41412l33.66957,-12.58588z" fill="#4998c7" stroke="#000000"/><path d="M256.67287,123.95054l31.38963,-7.04429l14.96612,27.11829l11.03388,-3.11829l6.65322,-15.80625l-2.25,-8.3625l-6.3375,1.03125l-13.40625,-6.31875l-4.29375,2.025l0.75,-1.78125l-2.26875,-5.0625l-2.025,0l0,1.25625l-1.5,-2.25l-0.28125,-5.56875l2.53125,-4.81875l-0.75,-0.73125l3.01875,-2.79375l-1.25625,-0.76875l2.025,0l1.03125,-1.5l-2.2875,-1.8l-1.0125,0.76875l0.24375,-0.99375l-3.0375,-0.2625l0,-1.275l5.83125,2.53125l0.75,-2.75625l3.3,-0.525l1.25625,-3.80625l-7.06875,-1.9875l1.7625,-0.54375l4.29375,1.8l1.7625,-3.3l-1.7625,-1.25625l5.04375,0.76875l-3.01875,-2.53125l2.025,-0.2625l1.25625,1.7625l2.04375,-4.55625l-3.05625,-3.0375l1.51875,-0.99375l-1.25625,-0.76875l0.4875,-1.25625l-2.75625,-0.50625l0.73125,-0.76875l-4.29375,0.2625l2.2875,3.54375l-1.25625,0.2625l0,5.2875l-1.25625,1.03125l-2.53125,-6.31875l-1.8,-1.03125l-0.4875,4.05l-2.53125,-4.05l1.51875,-0.50625l-3.5625,-0.50625l0.2625,-1.0125l0,-1.0125l1.275,0.2625l-4.55625,-6.075l-2.26875,4.29375l0.99375,0.2625l-0.225,2.53125l0,0.4875l4.03125,1.5375l-1.275,0.225l-0.225,2.04375l0.99375,-1.0125l0.50625,1.5l-2.53125,2.04375l0.50625,3.28125l-2.00625,-0.99375l0.73125,-3.05625l-0.99375,1.03125l0.2625,-1.03125l-1.275,-0.75l-2.025,0.50625l0.76875,1.7625l1.25625,-0.2625l0,1.8l-2.025,-2.2875l-0.2625,1.51875l-1.7625,0.24375l-3.3,0l-1.7625,-2.00625l-2.26875,0l-1.51875,-3.05625l-4.05,2.025l1.78125,0.76875l2.775,-1.5375l-3.80625,2.79375l1.275,2.53125l-0.24375,1.0125l-1.03125,-0.50625l0.76875,2.2875l-1.7625,-2.79375l0.99375,-0.76875l-2.75625,-3.01875l-2.79375,0.99375l-4.8,-1.25625l0.24375,-1.5l2.025,-0.2625l-0.99375,-2.04375l-2.79375,-0.73125l-3.3,-2.79375l-2.025,-1.7625l-3.7875,0.50625l0.75,-2.26875l0.2625,-0.525l-0.4875,0.525l-2.025,2.00625l-0.50625,-3.0375l-0.525,-2.26875l0,1.7625l-1.0125,0l-4.55625,1.0125l2.30625,-1.7625l0.99375,-0.76875l-1.7625,0.525l-4.06875,0.73125l-1.5,-0.225l0.50625,-1.7625l-2.79375,0.73125l-0.225,2.2875l-3.3,-5.55l-1.5375,-3.05625l-0.4875,-0.73125l-6.58125,-6.09375l-0.50625,-1.5l1.03125,-0.525l-1.5375,-1.275l0.2625,-1.5l-1.78125,0.24375l1.51875,-0.73125l0.2625,-1.03125l-2.79375,0.2625l-1.25625,-1.275l-1.7625,0.76875l0.225,-0.525l0.525,-0.24375l-2.2875,-0.75l-1.25625,0.2625l-4.29375,0.73125l-1.7625,-1.7625l-0.00009,0l-2.025,0.50625l-0.76875,4.05l-1.5,1.51875l1.25625,2.26875l-1.51875,1.275l0.75,1.51875l-1.0125,-1.51875l1.0125,-2.025l-1.7625,3.28125l-2.2875,-2.53125l1.25625,-1.7625l-5.2875,-1.7625l0,3.0375l-1.03125,-0.76875l-1.5,2.26875l1.7625,3.54375l0.76875,-0.4875l-0.76875,0.99375l2.53125,0l0.50625,1.25625l-1.7625,0l-1.03125,2.04375l-1.5,0.4875l-0.76875,-1.25625l-2.53125,0.2625l-0.2625,-1.8l-6.825,2.04375l-0.75,1.51875l0.75,0.99375l-0.99375,0l0.24375,0.76875l0.525,1.7625l-1.275,-0.75l-2.025,2.025l2.775,1.7625l-2.53125,3.5625l-2.00625,0.225l3.0375,1.275l0,0.75l-0.50625,2.79375l2.53125,-1.51875l-1.03125,1.7625l2.53125,0.525l-2.53125,0.73125l-2.53125,2.79375l-5.8125,-0.4875l-0.75,0l-1.51875,1.5l-1.275,-2.26875l-2.53125,0.2625l0.2625,1.5l1.78125,-0.76875l-0.50625,1.03125l2.75625,0.50625l0.2625,0.2625l-0.4875,0.99375l10.85625,-1.25625l2.79375,0.75l3.01875,-1.0125l-0.76875,-1.5l1.03125,-1.03125l9.8625,-1.7625l2.025,1.0125l-2.025,0l0.4875,2.26875l-1.25625,-2.025l-2.00625,-0.24375l-3.3,2.26875l1.275,1.0125l-2.53125,1.0125l3.7875,0.76875l0.76875,-1.03125l-0.2625,1.03125l0.99375,-1.25625l1.03125,1.5l1.7625,-0.76875l0,-2.00625l2.53125,-0.525l-1.25625,1.275l1.25625,-0.50625l-0.4875,1.03125l2.025,0l-1.275,0.4875l0.75,0.76875l-1.0125,0l1.0125,0.24375l-0.75,1.03125l1.5,0.99375l-0.225,2.025l4.51875,2.26875l0.525,2.53125l0.75,-0.24375l1.25625,-0.2625l0.525,1.275l-1.25625,0.4875l0.73125,-1.5l-1.5,1.0125l2.26875,7.3125l1.25625,0l-0.225,-3.2625l0.73125,1.7625l0.76875,-1.03125l-1.0125,2.53125l1.275,1.275l2.025,-4.5375l-1.25625,4.29375l0.73125,0.99375l1.25625,-0.75l-1.5,1.51875l1.275,1.275l-1.03125,0l0.76875,1.51875l-0.76875,-1.25625l0.2625,1.5l-1.25625,0.2625l2.25,5.04375l-1.02681,0.72796l39.11118,-1.67796z" fill="#ea90f9" stroke="#000000"/><path d="M282.20702,166.30288l-1.14452,21.60337l-18.26593,-0.83491l-5.73407,18.83491l6,7l18,-11l16.23602,19.89645l2.92342,-1.3777l5.325,0.2625l1.5375,-1.25625l3.525,2.53125l1.25625,-1.275l1.275,0.76875l-0.50625,-1.7625l1.5,0.225l1.5375,2.04375l1.25625,-1.275l-2.53125,-0.99375l1.5375,-1.5375l-1.5375,-0.2625l-2.53125,-0.4875l7.59375,-1.51875l0.2625,-1.78125l0.73125,1.51875l-0.73125,0.76875l3.2625,-2.025l-0.4875,0.99375l3.28125,-0.99375l-0.99375,0.50625l3.01875,-0.24375l0.50625,0.99375l0.76875,1.275l2.53125,-1.7625l0.99375,-0.76875l1.25625,0.2625l0.50625,0.24375l4.05,3.28125l0,3.80625l1.275,-0.50625l-0.50625,2.025l1.275,1.7625l1.25625,-0.4875l1.5,3.7875l2.53125,0.73125l0,1.8l1.8,-0.76875l0,0.76875l0.73125,-7.0875l-5.56875,-11.1375l-2.25,-4.29375l2.25,-4.575l-0.75,-0.99375l1.03125,0.76875l1.5,-2.2875l3.05625,-4.8l6.31875,-6.58125l-2.025,0.2625l1.25625,-1.5375l-1.7625,-0.225l2.75625,-0.2625l1.03125,-1.51875l-0.76875,-1.25625l-0.2625,1.5l-0.225,-1.25625l-2.025,0.75l1.25625,-1.7625l1.25625,0.50625l-1.0125,-2.26875l2.025,3.0375l-2.26875,-3.80625l-3.3,-0.4875l1.78125,0.225l-1.51875,-1.5l1.275,1.0125l0.24375,-1.5375l-0.24375,-0.09375l0,-1.1625l-3.5625,-0.75l-7.70944,-8.05l-8,6l-14,9l-12,-7l3,-12l-12,14l-2,-16z" fill="#3cf483" stroke="#000000"/><path d="M347.77194,177.95625l0,-1.25625l3.3,1.5l-2.26875,-4.29375l2.00625,-1.7625l-0.75,3.0375l3.0375,2.775l-0.2625,3.54375l1.25625,-5.83125l-2.5125,-4.55625l2.5125,2.2875l1.275,-3.7875l-1.275,-2.53125l1.275,-2.79375l5.325,-3.01875l-0.50625,-2.025l0.99375,1.25625l3.0375,-2.025l-0.76875,-1.275l-0.24375,1.5375l-2.775,-1.7625l0.2625,-5.83125l0.99375,-0.4875l-0.50625,-1.275l1.7625,0l-0.225,-3.28125l0.4875,1.51875l1.0125,-1.8l1.03125,0.76875l1.7625,-3.01875l-1.275,-1.275l2.04375,0l3.525,-5.325l-0.50625,2.53125l1.0125,-0.4875l2.5125,-1.275l-0.99375,2.025l-1.51875,-0.75l-2.26875,4.81875l0.99375,2.75625l2.025,0.50625l1.0125,-5.56875l1.78125,-0.225l-0.525,-1.03125l4.3125,-4.29375l0.75,-0.99375l-1.2375,-0.31875l2.00625,-2.98125l0.2625,-0.50625l-0.50625,-0.2625l-1.03125,-0.2625l0,2.79375l-0.76875,0.50625l0.525,-3.0375l-1.25625,-2.53125l-0.76875,4.8l1.425,1.44375l-1.6875,-0.4125l-2.75625,2.26875l-4.33125,-0.76875l-1.5,-2.53125l-1.25625,0.76875l0,-3.3l-1.5375,1.5375l-0.75,-1.0125l-2.26875,0.75l3.28125,-1.7625l1.275,-2.26875l-1.7625,-2.2875l-3.5625,1.25625l-3.3,4.05l-4.29375,9.61875l1.5375,-4.81875l-0.76875,-1.7625l4.05,-6.31875l0.24375,-3.0375l0.2625,-1.25625l13.14375,-6.825l0.2625,0l0.24375,-4.81875l2.79375,-2.53125l0.76875,-3.7875l-1.8,-0.50625l1.25625,-0.76875l-1.9875,0.525l1.25625,-0.76875l-1.25625,-0.2625l-0.2625,-2.25l-2.26875,-0.76875l-0.76875,2.26875l-0.76875,-2.00625l-2.25,0.24375l-1.8,4.29375l1.25625,-4.03125l-1.5,2.025l2.53125,-4.33125l-1.7625,0.2625l0,-0.75l-1.51875,1.25625l-0.76875,-0.99375l-0.24375,0.99375l-0.2625,-0.99375l-0.05622,0.54375l-0.9375,0.7125l0,-1.03125l-0.2625,0.525l-0.76875,1.51875l-0.99375,-3.0375l0,1.25625l-0.50625,-0.99375l-2.2875,0.50625l0.2625,-1.275l-1.275,0.76875l0.50625,-0.76875l-1.25625,0l0.75,-0.75l-2.025,0.2625l1.7625,-0.54375l-0.4875,-1.7625l-2.79375,-0.225l0.75,-1.03125l-1.7625,-0.50625l-0.2625,-0.99375l-0.99375,1.5l0.2625,-2.26875l-1.275,1.5l0.24375,-2.00625l-0.99375,-1.0125l-1.5375,0.75l0.76875,-0.99375l-3.7875,-1.8l0,-0.99375l-1.0125,0l0.24375,2.53125l1.51875,0.99375l-1.0125,1.03125l1.0125,0.24375l-0.75,1.51875l1.25625,1.7625l-1.7625,-1.7625l-0.76875,4.06875l-1.51875,-1.8l-0.24375,2.53125l-0.76875,-3.0375l-3.525,1.5375l0.24375,-1.275l1.03125,0.50625l-0.28125,-2.025l-0.99375,0.50625l-1.03125,-2.26875l-2.025,0.50625l2.025,-1.0125l-1.5,-3.5625l-0.2625,1.275l-3.525,-0.24375l-0.525,-1.51875l-1.275,0.4875l-3.7875,-2.25l-0.73125,1.7625l-5.5875,-0.24375l-0.73125,1.5l1.9875,2.2875l-0.225,3.0375l1.25625,-0.50625l1.5,2.775l-0.73125,5.8125l3.7875,1.5375l3.2625,5.55l0,-0.4875l1.5375,1.25625l-1.5375,0.24375l0,-1.0125l-0.99375,4.8l-3.7875,3.7875l2.26875,1.275l3.54375,6.825l-1.03125,2.2875l1.275,2.025l-1.7625,-1.5375l-0.50625,2.26875l-0.50625,0l-1.51875,0l-0.24375,-1.7625l-5.325,-3.7875l-6.65322,15.80625l-11.03388,3.11829l-3.96612,12.88171l-12,-1l-4.85548,10.39663l12.85548,-2.39663l2,16l12,-14l-3,12l12,7l14,-9l8,-6z" fill="#5fd8f6" stroke="#000000"/></g><g><path d="M396.53034,418.00476l-11.46784,-21.09851l-17,2l-1,6l-17.98219,9.65271l0.66258,4.80374l-2.46479,13.80283l1.23239,3.69719l-0.24648,0.49296l-0.98591,2.2183l1.47887,11.33805l-3.20423,13.30987l-1.47888,0.98592l2.4648,7.64086l-1.23239,5.91549l2.57737,1.54231c-1.25273,1.50748 -0.21305,0.061 0.38037,-0.30991l1.23239,0.49295l0.73944,-0.73943l-1.47887,1.97183l1.72535,0.73943l-0.24648,1.2324l-1.23239,-0.73944l1.23239,1.23239l-0.98591,-0.49295l-0.24648,3.45071l1.23239,1.23239l-1.23239,1.23239l2.2183,1.23239l-2.2183,2.4648l1.97183,0.73944l-1.97183,0.24648l0,1.23239l1.23239,-0.73944l-0.73944,3.20423c-0.26926,-0.75746 -1.15705,-1.18874 -1.23239,-1.23239l-0.98591,0l0.49295,-1.23239l-0.73943,0.98591l-0.98592,-0.73943l-0.98591,0.24648l1.02385,1.08875l-0.03791,0.6366c-1.28511,1.10747 -1.58427,1.30265 0,0.24647l0.49296,1.2324l1.47887,-0.24648l0.98592,1.47887l-1.2324,0.98592l1.47888,0l-1.97183,0.73943l2.46479,-0.49296l1.72535,1.2324l-1.23239,-0.24648l0.98591,1.23239l-3.45071,-0.73943l2.21832,1.23239l-1.23239,0.73943l0.98591,0.49296c-0.02993,1.10478 -1.18809,2.91346 0.24648,1.47887l1.47887,1.72535l-1.72535,-0.24648l0.73944,1.2324l0.73943,0.98591c-1.94087,-0.23409 -2.3802,-0.36316 -0.24647,0.24648c0.02185,0.28121 -0.32491,-1.23475 0.24647,1.72535l0.73944,-1.72535c1.0609,1.15529 1.9224,-0.74646 -0.73944,1.72535l-0.49295,0.24648l1.47887,0.49296l-0.24648,1.72535l1.47887,1.23239l-0.24648,-1.23239l0.73944,1.23239l-0.73944,-1.72535l1.97183,0.73944c0.06483,-1.28488 -2.07901,-3.61721 -0.08182,-0.3831l-0.16468,2.6014l0,-1.47887l-0.24648,1.23239l-0.24647,-0.98591l-0.49296,0l-0.49296,0l-0.73943,0l0.49295,2.4648l1.72535,-0.98592l3.20424,0c3.38465,-3.29114 0.1734,-2.62804 -0.24648,2.21832l-1.47888,0.49296l2.95776,1.47887c4.40343,-2.64653 3.67164,-5.03403 6.16197,-5.42254l-1.72535,-2.21832l-1.47887,0l1.47887,-0.24648l-1.47887,-1.47887l2.21832,-3.20423l-0.49296,-0.49296l-0.49296,-0.98591l0.73944,0.98591l0.24648,0.24648l0.98591,-0.24648l0,-0.24648l0.49296,-3.20423l4.43663,-3.94367l-0.24648,-2.46479l-2.71128,-0.49296l-2.46479,-3.20423l1.47887,-2.95775l3.94367,-1.2324l0.24647,-4.43662l2.71128,-2.4648l-1.97183,-1.23239l1.72535,-0.49296l0.73944,1.23239l1.47887,-0.98591l-0.49296,-1.72535l-1.97183,1.23239l-1.72535,-1.23239l-0.24648,-4.92958l3.69719,1.47887l4.19015,-0.98592l0,-5.91549l0.98591,0.49295l-0.98591,-2.2183l3.69719,0.73943l3.20423,-0.73943l4.6831,-0.98592l2.95776,-1.47887l2.71127,-4.43662l0,-1.97183l-1.97183,-1.47887l0.73944,-2.4648l-4.43663,-3.45071l0.73944,-4.92958l-0.24648,3.20423l1.97183,1.97183l5.17606,1.97183l6.40845,-0.73944l5.42254,-5.9155l1.47888,-4.6831l4.43662,-5.17606l-0.73944,-1.47887l2.21832,1.97183l-5.42254,6.16197l4.43663,-3.69719l2.71127,-4.19014l1.72535,-2.4648l3.45071,-2.71127l1.47888,-5.42254l-0.98592,-3.20424l1.97183,-2.71127l-1.23239,-0.73944l-8.34952,-13.19588z" fill="#f33434" stroke="#000000"/><path d="M425.41202,420.10213l1.72535,0.49296l0.28891,-0.34669z" fill="#338492" stroke="#000000"/><path d="M401.78946,340.38359l-6.18649,5.15883l-19.54046,4.36382l-9.07768,19.50047l0.07768,12.49953l-22.74215,6.40007l4.43663,4.19015l0.98591,6.16197l0.49296,5.42254l-1.47887,8.13382l0.32333,2.34415l17.98219,-9.65271l1,-6l17,-2l11.46784,21.09851l13.53216,-23.09851l-2,-18l-12,-14z" fill="#abee88" stroke="#000000"/><path d="M396.53034,418.00476l20.53216,-11.09851l10.36378,13.34216l2.17588,-2.61106l4.43663,-2.71128l3.20423,0l3.94367,-2.95775l2.71127,0.73943l1.72535,-1.23239l0,1.23239l3.69719,0.24648l0.24648,-1.72535l3.69719,-1.47887l-0.24648,-1.97183l4.43663,-5.66902l0.73943,-1.23239l0.98592,-4.6831l2.2183,-2.21832l2.95776,-18.48594l0.49295,-0.98591l0.73944,1.72535l1.47887,-0.98591l7.64086,-9.11973l4.43662,-5.66902l0.73944,-4.43663l-1.23239,-6.40845l-1.2324,-1.72535l-5.17606,-1.23239l-4.6831,-5.42254l-5.42254,-3.94367l-8.13381,-0.98592l-4.19015,-2.46479l-5.42254,3.20423l0.49296,-2.4648l1.47887,-0.98591l-2.4648,0.24648l1.97183,-1.47887l-1.23239,-2.4648l-1.72535,1.47887l-0.24648,-1.97183l-0.73944,0.73944l0.49296,-0.73944l-1.23239,0.24648l-0.98592,-1.47887l-0.49295,0.98592l-0.24648,-1.47888l-0.49296,0.73944l-3.69719,-2.21832l-0.24648,0.73944l-2.46479,-0.73944l-1.72535,2.71128l1.47887,0.49295l-1.2324,0.49296l-0.98591,-1.23239l-3.20423,3.45071l0.98591,-2.4648l-4.43662,0.49296l5.91549,-1.23239l1.97183,-4.19015l-7.64085,-1.23239l-1.72535,3.20423l0,-1.72535l-1.72535,1.47887l0,-1.43875l-15.17346,-7.09505l-3.27304,22.47734l-5.72696,22.52266l12,14l2,18z" fill="#6155d0" stroke="#000000"/><path d="M396.53034,418.00476l20.53216,-11.09851l10.36378,13.34216l2.17588,-2.61106l4.43663,-2.71128l3.20423,0l3.94367,-2.95775l2.71127,0.73943l1.72535,-1.23239l0,1.23239l3.69719,0.24648l0.24648,-1.72535l3.69719,-1.47887l-0.24648,-1.97183l4.43663,-5.66902l0.73943,-1.23239l0.98592,-4.6831l2.2183,-2.21832l2.95776,-18.48594l0.49295,-0.98591l0.73944,1.72535l1.47887,-0.98591l7.64086,-9.11973l4.43662,-5.66902l0.73944,-4.43663l-1.23239,-6.40845l-1.2324,-1.72535l-5.17606,-1.23239l-4.6831,-5.42254l-5.42254,-3.94367l-8.13381,-0.98592l-4.19015,-2.46479l-5.42254,3.20423l0.49296,-2.4648l1.47887,-0.98591l-2.4648,0.24648l1.97183,-1.47887l-1.23239,-2.4648l-1.72535,1.47887l-0.24648,-1.97183l-0.73944,0.73944l0.49296,-0.73944l-1.23239,0.24648l-0.98592,-1.47887l-0.49295,0.98592l-0.24648,-1.47888l-0.49296,0.73944l-3.69719,-2.21832l-0.24648,0.73944l-2.46479,-0.73944l-1.72535,2.71128l1.47887,0.49295l-1.2324,0.49296l-0.98591,-1.23239l-3.20423,3.45071l0.98591,-2.4648l-4.43662,0.49296l5.91549,-1.23239l1.97183,-4.19015l-7.64085,-1.23239l-1.72535,3.20423l0,-1.72535l-1.72535,1.47887l0,-1.43875l-15.17346,-7.09505l-3.27304,22.47734l-5.72696,22.52266l12,14l2,18z" fill="#e9c77d" stroke="#000000"/><path d="M420.23596,325.0013l0,-0.2866l-1.72535,1.72535z" fill="#ffba7b" stroke="#000000"/><path d="M366.98482,369.40672l9.07768,-19.50047l19.54046,-4.36382l-4.54046,-29.63618l-10,11l-5,-12l-7.61243,1.19624l-23.38757,-3.19624l-4.67069,13.09853l-1.32931,23.90147l16,-6z" fill="#29e09e" stroke="#000000"/><path d="M340.39181,326.00478l-9.32931,-1.09853l-19.662,11.33011l-0.84779,2.03469l-4.43662,3.94367l1.72535,4.92958l-0.98592,1.47888l4.19015,2.2183l3.94367,5.17606l3.20423,6.40846l2.21832,4.6831l5.66902,7.64086l-0.49296,1.97183l1.97183,2.71127l2.95775,2.71128l13.80283,6.16197l22.74215,-6.40007l-0.07768,-12.49953l-11.92232,-25.50047l-16,6z" fill="#f97e26" stroke="#000000"/><path d="M340.39181,326.00478l4.67069,-13.09853l19,-8l4.38757,11.19624l-28.38757,-17.19624l4.50435,-8.69864l-2.46479,0.98592l-1.47888,-2.4648l0.49296,-0.49295l1.72535,-2.4648l-1.47887,-2.95775l3.45071,-1.72535l-2.21832,-1.2324l-6.16197,4.19015l-3.20423,0.24648l-0.49296,1.23239l-1.97183,-0.24648l-1.72535,0.98592l-1.72535,2.46479l0,0.49296l0.24648,1.72535l-4.92958,3.45071l0.49295,2.21832l-1.35645,-0.07661l-1.00675,1.82696l-1.47887,0.5654l1.62374,2.61383l-0.98591,8.38029l1.72535,0.73944l-0.49296,0.98591l-2.2183,3.69719l-2.95776,1.2324l0,2.46479l-1.97183,0.49296l0.49296,1.97183l-3.94367,1.47887l-0.24648,0.24648l0.24648,1.23239l0.24648,0.73944l-0.24648,0.24648l-1.72535,2.2183l0.73944,0.73944l-2.21832,1.72535l0,4.6831l2.4648,1.2324l0.73943,-1.47888l0.49296,-0.49295l0.73944,1.23239l-0.38461,0.92306l19.662,-11.33011z" fill="#8eaf3c" stroke="#000000"/><path d="M401.78946,340.38359l3.27304,-22.47734l13.4481,8.5338l1.47887,-3.20423l5.42254,-4.43663l-0.73944,0l0.73944,-1.72535l-3.20424,-1.72535l-2.2183,-7.64085l-0.98592,-0.73944l-0.24648,1.23239l-2.46479,-3.20423l-7.39438,-3.69719l-11.33805,-0.24648l-4.6831,-3.69719l-1.23239,1.72535l0.73943,-3.20423l-2.21832,-2.21832l-3.45071,-1.97182l-0.98591,-0.24648l-2.4648,0l0,-2.71128l-2.95775,-1.72535l-2.71127,0.49296l-0.49296,-0.73944l-1.47887,-1.23239l-1.36477,-0.8202l-1.59298,0.57372l-5.42254,1.47887l-4.43662,-1.97183l-7.1479,0.98592l-0.98592,-2.4648l-4.43662,-0.49295l-1.47887,-2.4648l-0.73944,1.97183l1.47887,-0.24648l0,0.73944l-1.23239,-0.24648l-5.42254,2.71127l1.23239,2.71128l0.73944,0.73943l-0.24648,1.47887l-4.50435,8.69864l24,6l4.38757,11.19624l7.61243,-1.19624l5,12l10,-11l4.54046,29.63618z" fill="#60df53" stroke="#000000"/><path d="M401.78946,340.38359l3.27304,-22.47734l13.4481,8.5338l1.47887,-3.20423l5.42254,-4.43663l-0.73944,0l0.73944,-1.72535l-3.20424,-1.72535l-2.2183,-7.64085l-0.98592,-0.73944l-0.24648,1.23239l-2.46479,-3.20423l-7.39438,-3.69719l-11.33805,-0.24648l-4.6831,-3.69719l-1.23239,1.72535l0.73943,-3.20423l-2.21832,-2.21832l-3.45071,-1.97182l-0.98591,-0.24648l-2.4648,0l0,-2.71128l-2.95775,-1.72535l-2.71127,0.49296l-0.49296,-0.73944l-1.47887,-1.23239l-1.36477,-0.8202l-1.59298,0.57372l-5.42254,1.47887l-4.43662,-1.97183l-7.1479,0.98592l-0.98592,-2.4648l-4.43662,-0.49295l-1.47887,-2.4648l-0.73944,1.97183l1.47887,-0.24648l0,0.73944l-1.23239,-0.24648l-5.42254,2.71127l1.23239,2.71128l0.73944,0.73943l-0.24648,1.47887l-4.50435,8.69864l24,6l4.38757,11.19624l7.61243,-1.19624l5,12l10,-11l4.54046,29.63618z" fill="#780aa0" stroke="#000000"/><path d="M311.24982,336.28954l0.41286,0.82572l0.24648,-0.73944l0.49296,-0.49295z" fill="#b2905b" stroke="#000000"/><path d="M311.70371,336.12935l0.20544,0l0.49296,-0.24648z" fill="#327937" stroke="#000000"/><path d="M311.70371,336.12935l-0.53399,0l0.08009,0.16019z" fill="#f745a7" stroke="#000000"/><path d="M428.4938,322.08004l-2.71127,0.24647l1.47887,1.2324z" fill="#9b995b"/><path d="M350.60638,491.90418l-0.98591,0.98591l1.23239,0.73944z" fill="#e002a5"/></g><g><path d="M598.02107,419.06815l6.04143,-9.1619l14.74813,15.57226l14.25187,-24.57226l-20.36582,-17.17168l-1.54154,-0.32978l-0.90965,-0.43125l-0.87493,-1.04641l-0.47218,-0.90689l-0.55551,-0.97665l-0.7916,-0.86884l-0.98603,-0.83079l-0.95131,-0.50735l-0.7916,-0.21562l-0.95131,0l-0.67356,0.10781l-0.67356,0.18391l-0.70828,0.28538l-0.75688,0.32978l-2.2151,1.08446l-1.11102,0.68492l-0.70828,0.57711l-0.04166,0.76103l0,0.61516l-0.31942,0.21562l-0.86798,-0.10781c0,0 -0.63339,-0.06976 -0.7916,-0.06976c-0.15843,0 -0.39708,0.21486 -0.55551,0.32344c-0.15843,0.10837 -0.11805,0.43125 -0.11805,0.43125l0.04166,0.72297l-0.04166,1.12251l-0.3958,0.21562l-0.71522,0l-1.54154,-0.10781c0,0 -0.51512,0.03922 -0.67356,0.18391c-0.15843,0.14449 -0.23609,0.28538 -0.23609,0.28538l-0.20137,0.43759l-0.43052,0.72297l-0.67356,0.68492c0,0 -0.638,0.54215 -0.75688,0.72297c-0.11866,0.18082 -0.03472,0.4693 -0.03472,0.4693l0.3958,0.14586l0.47218,0l0.43746,0.14586l0.07638,0.53906l-0.04166,1.19227l-0.15277,0.83713l-0.36108,0.17757l-0.86798,0l-1.54848,-0.06976l-1.02769,0.06976l-0.35414,0.36149l-0.04166,0.76103l0.20137,2.27673l-0.08333,1.37619c0,0 -0.11721,0.18067 -0.23609,0.36149c-0.11888,0.18082 -0.27776,0 -0.27776,0l-0.43052,-0.29173l-0.67356,-0.53906l-0.63884,-0.5454l-0.90965,-1.12251l-0.3958,-0.32344l-0.3958,0.03805l-0.47218,0.43125l-0.67356,0.68492l-0.7916,1.0147l-0.67356,1.484l-0.20137,1.484l-0.03472,1.9533l-0.11805,1.80744l-0.3958,1.4079l-0.7916,1.59181l-0.99297,1.15422l-1.78458,1.9533l-1.70125,1.19227l-1.5832,0.86884l-0.54033,17.98404z" fill="#6adc25" stroke="#000000"/><path d="M539.6729,427.37877l0.05754,0.14014l0.27776,0.9386l0.36108,0.50735l0.27776,0.03805l0.35414,-0.4693z" fill="#6bb05f" stroke="#000000"/><path d="M539.6729,427.37877l-0.25493,-0.62089l-0.36108,-0.13952l-0.19443,0.03171l-0.00612,0.01875z" fill="#3816c2" stroke="#000000"/><path d="M571.89777,455.39608l-13.83527,-11.48983l-19.20617,-17.23743l-0.11192,0.34274l-0.07638,0.5454l-0.12499,1.19227l0,1.66157l0.04166,3.72902l-0.11805,1.8772l-0.11805,0.9386l-0.51385,0.94494l-0.31942,0.68492l0.20137,0.65321l0.55551,1.19227l0.7916,1.11617l0.94437,0.58345l0.55551,0.06976l0.43746,0.29173l0.04166,0.21562l-0.08333,2.49236l0.36108,0.25368l0.59023,-0.03171c0,0 0.39563,0.06844 0.7916,0.28538c0.39597,0.21694 0.3167,0.21679 0.3958,0.36149c0.07933,0.1447 0.11805,0.65321 0.11805,0.65321l0.04166,1.15422l-0.04166,0.79908l-0.19443,0.32344l-0.55551,0.06976l-0.67356,-0.17757l-0.90965,-0.61516l-1.06936,-0.90689l-0.71522,-0.8625l-0.74994,-0.29173l-0.67356,0.03805l-0.35414,0.32344l0.03472,0.43125l0.15971,0.39954l0.47913,0.4693l0.82632,0.90689l1.46516,1.4079l1.27073,0.83079l0.3958,0.43759l0.19443,0.4693l0,0.57711l0,0.79273l0.43746,0.61516c0,0 0.31586,0.18143 0.51385,0.25368c0.19798,0.07245 0.67356,0.18391 0.67356,0.18391l0.71522,0.03805l0.11805,0.24733l-0.15971,0.5454l0.04166,0.83079l0.11805,0.97665l0.35414,0.72297l0.55551,0.57711l0.59023,0.4693l0.95131,0.58345l0.87493,0.36149l0.35414,0.32344l0.11805,0.76103c0,0 -0.07849,0.86366 -0.11805,1.00836c-0.03955,0.1447 0.19443,0.61516 0.19443,0.61516l0.27776,0.39954l0.67356,0.65321c0,0 0.87621,0.90171 1.03464,1.04641c0.15843,0.1447 0.63189,0.76103 0.63189,0.76103c0,0 0.3533,0.86559 0.47218,1.04641c0.11888,0.18082 0.20137,1.04641 0.20137,1.04641l0.27775,0.76103l0.23609,0.50735l0.67356,0.65321l0.86798,0.72297l1.06936,0.9386l1.1874,1.23032l0.27776,0.53906l0,0.32978l0.08333,1.58547l-0.04166,1.88354l-0.04166,1.08446l0.27776,0.61516l0.27776,0.53906l0.04166,0.94494l0,1.4079l-0.43746,0.50735c0,0 -0.55679,0.29117 -0.71522,0.39954c-0.15843,0.10878 -0.59023,0.17757 -0.59023,0.17757c0,0 -0.75144,0.36265 -0.90965,0.50735c-0.15843,0.1447 -0.04166,0.43125 -0.04166,0.43125l-0.04166,0.61516l-0.03472,1.23032l0.15277,0.43759l0.59717,0.57711l1.30545,0.61516l1.54154,0.10781l0.67356,0.39954l1.34711,0.9386l1.22907,0.79273l1.77763,0.36149l1.38878,0.03805l4.07605,-0.03805l1.50682,-0.03805l0.74994,-0.28538l0.83327,-0.5454l0.86798,-1.04641l0.71522,-0.97665l0.63189,-0.57711l1.03464,-0.69126l1.49988,-1.15422l2.81227,-1.15422l2.06233,-0.72297l1.54154,-0.18391l2.05539,-0.10781l1.74291,0.14586c0,0 2.37969,-0.00203 2.73589,-0.03805c0.35619,-0.03612 2.49285,-0.17757 2.49285,-0.17757l1.979,-0.47564l1.02769,-0.32344l0.23609,-0.32344l0.27776,-0.5454l0.55551,-0.9386l0.55551,-1.0147l0.74994,-0.8625l-24.87853,-4.26322z" fill="#6829e1" stroke="#000000"/><path d="M598.02107,419.06815l-26.95857,9.8381l0.54033,-17.98404l-1.62487,0.39954l-2.01372,0.39954l-1.62487,0.10781l-1.27073,0.03171l-0.94437,0.22197l-1.15268,0.57711l-0.86798,0.83079l-0.47913,0.65321l-0.98603,0.8625l-1.11102,0.58345l-1.22212,0.32344l-1.06936,0.65321c0,0 -0.75838,0.68244 -0.91659,0.75468c-0.15843,0.07225 -1.1874,0.58345 -1.1874,0.58345l-1.38183,0.28538l-1.8193,0l-1.54848,0.36149l-1.62487,0.79908l-1.38183,0.97665l-1.02769,0.90055l-1.66653,1.80744l-2.13871,1.84549l-0.82632,1.51571l-0.52079,1.26838l-0.19443,0.86884l17.06133,15.37265l13.83527,11.48983l12.16473,2.51017l12,-10l-19,-12z" fill="#e15cec" stroke="#000000"/><path d="M598.02107,419.06815l-26.95857,9.8381l0.54033,-17.98404l-1.62487,0.39954l-2.01372,0.39954l-1.62487,0.10781l-1.27073,0.03171l-0.94437,0.22197l-1.15268,0.57711l-0.86798,0.83079l-0.47913,0.65321l-0.98603,0.8625l-1.11102,0.58345l-1.22212,0.32344l-1.06936,0.65321c0,0 -0.75838,0.68244 -0.91659,0.75468c-0.15843,0.07225 -1.1874,0.58345 -1.1874,0.58345l-1.38183,0.28538l-1.8193,0l-1.54848,0.36149l-1.62487,0.79908l-1.38183,0.97665l-1.02769,0.90055l-1.66653,1.80744l-2.13871,1.84549l-0.82632,1.51571l-0.52079,1.26838l-0.19443,0.86884l17.06133,15.37265l13.83527,11.48983l12.16473,2.51017l12,-10l-19,-12z" fill="#8151ac" stroke="#000000"/><path d="M571.89777,455.39608l0.16473,17.51017l24.87853,4.26322l1.38878,-0.76103l1.979,-1.05275l2.37481,-0.8625l2.18038,-0.72297l2.68728,-0.39954c0,0 1.7463,-0.39954 1.94429,-0.39954c0.19821,0 0.47218,-0.4693 0.47218,-0.4693l0.67356,-0.68492l0.67356,-0.32978l1.11102,-0.06976l2.09705,0l1.49988,-0.21562l1.94429,-0.5454l1.89568,-0.79273l1.86096,-0.83079l3.2914,-1.19227l14.04738,-18.93432l-18.41898,-10.91339l-1.83289,-12.51435l-14.74813,-15.57226l-6.04143,9.1619l-20.95857,16.8381l19,12l-12,10z" fill="#1bcb7e" stroke="#000000"/><path d="M618.81063,425.47851l1.83289,12.51435l18.41898,-25.08661l14,24l19,-13l21,7l17,0l1.14,-25.07657l-1.06936,-1.26838l-0.83327,-1.26838l-0.3958,-1.66157l-0.11805,-1.73133l-0.04166,-2.92995l-0.15971,-1.55376l-0.27081,-1.23032l-0.31942,-0.36149l-0.83327,-0.25368l-0.43746,-0.4693l-0.51385,-0.4693l-0.47218,-1.0147l-0.11805,-0.76103l-0.15971,-1.04641l-0.19443,-1.9533l-0.04166,-1.484l-0.20137,-1.00836l-0.31247,-0.65321l-0.75688,-1.12251l-0.70828,-1.15422l-0.63884,-0.79908l-0.59023,-0.43125l-0.74994,-0.18391c0,0 -0.7931,0.03805 -0.95131,0.03805c-0.15843,0 -0.71522,0.06976 -0.71522,0.06976l-0.7916,0.18391l-0.95131,0l-0.43052,-0.10781l-0.12499,-0.39954l-0.03472,-0.61516l0,-1.19227l-0.08333,-1.4079l-0.27776,-1.26838l-0.43052,-1.19227l-0.71522,-1.52205l-0.59023,-1.30009l-0.43746,-1.08446l-0.08333,-0.76103l0,-1.04641l0.15971,-0.43125l0.20137,-0.4693l-0.08333,-0.32978l-0.31247,-0.03171l-0.23609,-0.03805l-0.63884,0.03805l-0.70828,0.06976l-0.20137,-0.10781l-0.07638,-0.32978l0,-0.90055l-0.08333,-0.83079l-0.19443,-1.16056l-0.47218,-1.15422l-0.59717,-0.76103l-0.67356,-0.39954l-0.86798,-0.03171l0,0l-0.43746,0.21562l-0.15971,0.28538l-0.23609,0.50735l-0.27776,0.69126l-0.63189,1.19227l-0.51385,1.19227l-0.63884,1.51571l-0.31247,1.73767l-0.20137,1.91525l-0.07638,0.39954l-0.35414,0.14586l-0.52079,0.06976l-0.19443,0.14586l-0.23609,0.36149l0,0.72297l-0.08333,1.12251l-0.19443,1.47766l-0.75688,4.81349l-0.03472,2.4226l-0.15971,2.13087l-0.23609,1.59181l-0.55551,1.55376l-0.7916,1.73767l-0.83327,1.69962l-0.43746,1.59181l-0.27081,1.33814l-0.24304,0.72297l-0.23609,0.10781l-0.98603,0.03171l-1.86096,0.03805l-2.34009,0l-1.10408,-0.25368l-1.03464,-0.61516l-0.51385,-0.57711l-0.63189,-1.15422l-0.15971,-0.61516l-0.43052,-0.21562l-0.83327,-0.36783l-0.83327,-0.57711l-1.26379,-0.86884l-1.1874,-1.00836l-0.91659,-0.69126l-1.34017,-0.64687l-1.62487,-0.5454l-1.74291,-0.68492l-1.34711,-0.76103l-1.86096,-1.15422l-3.56221,-1.99135l-1.74291,-0.68492l-1.42349,-0.36149l-1.15268,-0.14586l-0.90965,0.14586l-0.07638,-0.25368l0.31942,-0.25368l0.63189,-0.4693l0.98603,-0.9386l1.1874,-1.44595l0.71522,-1.26838l0.3958,-1.76938l0.3958,-1.80744l0.23609,-0.29173l0.47913,-0.06976l1.02769,0l1.74291,0.06976l0.82632,-0.06976l0.20137,-0.18391l0.15971,-0.21562l0,-0.32344l0.23609,-1.16056l0.11805,-1.19227l0.15971,-1.08446l-0.04166,-0.61516l-0.27776,-0.32344l-0.47218,-0.22197l-0.55551,-0.13952l-0.59023,0.03171l-0.59717,0.22197l-0.31942,0.21562l-0.15277,0.43125l-0.24304,0.43759l-0.31247,0.10781l-0.43746,0.03171l-0.43746,-0.06976l-0.47218,-0.18391l-0.15971,-0.4693l-0.11805,-0.57711l-0.11805,-0.21562l-0.43746,-0.03805l-0.55551,-0.03171l-0.51385,0.13952l-0.07638,0.25368l-0.27776,0.21562l-0.55551,-0.06976l-0.67356,-0.06976l-1.22907,-0.03805l-0.98603,-0.03805l-0.67356,-0.25368l-0.51385,-0.43125l-0.23609,-0.57711l-0.20137,-0.39954l-0.27776,-0.03805l-3.83996,-0.03171l-0.90965,-0.10781l-0.90965,-0.43759l-1.14574,-0.4693l-0.59717,-0.21562l-0.74994,0l-0.36108,-0.21562l-0.07638,-0.29173l-0.27776,-0.4693l-0.31247,-0.57711l-0.31942,-0.22197l-0.27776,0.11415l0.07638,0.50101l0.04166,0.61516l-0.19443,0.4693l-0.31942,0l-0.23609,-0.21562l-0.51385,-0.50735l-0.7916,-0.3932l-1.27073,-0.90689l-1.10408,-0.53906l-0.59717,-0.11415l-0.55551,0.11415l-0.43746,0.32344l-0.3958,0.43125l-0.03472,0.4693l0.27776,0.22197l0.47218,0.03171l0.67356,-0.03171l0.43746,0.13952l0.55551,0.43759l0.47218,0.53906l0.27776,0.50735l0.07638,0.90689l-0.23609,0.72297l-0.63189,0.75468l-0.99297,0.5454l-1.38183,0.21562l-1.5832,0.14586l-1.15268,0.10781l-1.61792,0.14586l-1.38878,0.17757l-1.65959,0.36149l-1.1874,0.65321l-0.7916,0.72297l-0.36108,0.72297l-0.15971,0.76103l0.04166,0.83079l0.35414,0.72297l0.20137,0.50735l-0.20137,0.25368l-0.35414,0l-0.55551,-0.03805l-0.82632,0.06976l-0.36108,0.18391l-0.15971,0.39954l-0.54857,0.64687l-0.83327,0.94494l-0.55551,0.9386l-0.31942,0.79273l-0.15277,1.23032l0.15277,0.43125l0.3958,0.14586c0,0 0.48041,0.10781 0.63884,0.10781c0.15843,0 0.27776,0.22197 0.27776,0.22197l0.23609,0.43125l0.11805,0.61516l-0.08333,0.83079l-0.19443,0.14586l-0.55551,0.17757l-0.95131,0l-1.77763,0.11415l-1.94429,0.10781l20.36582,17.17168z" fill="#9a5281" stroke="#000000"/><path d="M620.64352,437.99286l18.41898,10.91339l-14.04738,18.93432l2.05539,-0.50735l0.95131,-0.21562l1.46516,-0.0761l1.1874,-0.03805l1.34711,0.29173l1.14574,0.4693c0,0 0.27903,0.29289 0.43746,0.43759c0.15843,0.14449 0,0.43125 0,0.43125l-0.04166,0.68492l0.15971,0.4693l0.47218,0.39954l0.75688,0.21562l1.30545,0l2.13871,-0.06976l1.49988,0.17757l1.34711,0.43759l1.38878,0.03805l0.7916,0.13952l0.07638,0.39954c0,0 -0.03955,0.68609 0,0.83079c0.03977,0.1447 0.27776,0.39954 0.27776,0.39954l0.51385,0.10781l0.55551,-0.03805l0.74994,0.14586l0.27776,0.21562l-0.03472,0.5454l-0.15971,0.36149l-0.31942,0.14586c0,0 -0.35269,0.07265 -0.59023,0.25368c-0.23776,0.18082 -0.47913,0.32344 -0.47913,0.32344l-0.27776,0.57711l0.24304,0.50735l0.3958,0.21562l0.94437,0.03805l0.91659,0.32344l1.22212,1.16056l0.63884,1.15422l0.43052,1.59181l0.51385,1.88354l0.7916,1.62352l0.99297,1.0147l0.95131,0.61516l0.86798,-0.03805l0.31942,-0.25368l0,-0.65321l-0.08333,-0.83079l0.11805,-0.61516l0.3958,-0.50101l0.40274,-0.47564l0.54857,-0.36149l0.95131,-0.68492l1.42349,-1.19227l0.83327,-0.9386l1.979,-2.16892l1.02769,-1.30643l0.71522,-1.23032l0.27776,-0.4693l0.31942,0.10781l0.07638,0.61516l0.07638,0.86884l-0.11805,1.19227l0.08333,1.41424l-0.11805,1.30009l-0.43746,1.51571l-0.59717,1.16056l-0.63189,0.79273l-1.06936,1.05275l-0.98603,0.72297l-0.87493,0.79273l-0.67356,0.57711l-0.11805,0.50735l0.20137,0.29173l0.74994,0.03171l1.46516,-0.06976l0.71522,-0.10781l0.74994,-0.36149l0.43746,-0.50735l0.35414,-0.53906l0.15971,-0.79908l0.15971,-0.90055l-0.08333,-1.05275l0.20137,-0.43125l0.27776,-0.10781l0.51385,-0.18391l0.55551,0.14586l0.27081,0.29173l0.12499,0.61516l0.03472,1.00836l0.11805,1.08446l0.08333,1.16056l-0.23609,0.75468l-0.52079,0.5454l-0.59023,0.36149l-0.07638,0.39954l-0.04166,0.83079l0.04166,0.72297l0.15277,0.25368c0,0 0.63317,0.06976 0.7916,0.06976c0.15843,0 0.7971,-0.03805 1.03464,-0.03805c0.23754,0 0.70828,-0.21562 0.70828,-0.21562l0.67356,-0.36149l1.22907,-0.68492l0.35414,-0.14586l0.15971,0.14586l-0.07638,0.43125l0,0.5454l0.03472,0.32344l0.59717,0.43759l1.02769,0.25368c0,0 0.75122,0.32288 0.90965,0.43125c0.15821,0.10857 0.7916,0.72297 0.7916,0.72297l0.47913,1.33814l-0.08333,1.91525l-0.03472,1.9533l-0.08333,1.55376l0.36108,1.0147l1.26379,1.33814c0,0 0.98942,0.36093 1.1874,0.4693c0.19798,0.10857 1.30545,0.03805 1.30545,0.03805l1.22907,0.10781l1.1874,0.43125l1.22907,0.65321l1.54154,0.57711l0.74994,0.03805c0,0 1.35028,-0.00248 1.54848,0.06976c0.19776,0.07245 0.7931,0.03749 0.95131,0.14586c0.15843,0.10857 0.78594,0.21507 0.94437,0.32344c0.15843,0.10857 0.83327,0.90689 0.83327,0.90689l0.59717,0.32344l2.09705,0.10781l2.77061,0l0.43746,-0.32344l0.7916,-0.50735l0.43052,-0.76103l-0.03472,-0.97665l0.03472,-1.22398l0.43746,-0.36783l0.23609,0.11415l0.67356,0.9386l0.23609,0.57711l-0.07638,0.79908l-0.19443,0.3932l-0.59717,0l-0.11805,0.14586l0.47218,0.4693l0.75688,0.5454l0.70828,0.50101l0.43746,0.11415l0.15971,-0.22197l-0.04166,-0.79273l-0.04166,-0.9386l0.24304,-0.32978l0.3958,0.18391l0.51385,0.4693l0.35414,0.90689l0,0.79273c0,0.1447 0.35414,0.29173 0.35414,0.29173l1.22907,0.21562l1.34711,0.43125l0.74994,0l0.31942,-0.17757l0.04166,-0.36149l0.11805,-1.0147l0.27776,-0.43125l0.54857,-0.14586l0.63884,-0.0761l0.86798,-0.4693l1.74291,-0.90055l1.62487,-0.43759l2.09705,-0.32344l3.0067,-0.10781l2.29842,-0.03805l1.5832,-0.4693l0.99297,-0.97665l0.47218,-0.86884l0.43746,-1.36985l0.31247,-1.66791l-0.03472,-1.33814l0.03472,-1.26203l0.47913,-0.72297l0.95131,-0.9386l1.34017,-1.08446l1.22907,-1.41424l0.63189,-1.4079l0.7916,-1.0147l0.75688,-0.9386l1.38183,-1.69962l0.87493,-1.62986l0.51385,-1.44595l0.55551,-1.26203l0.55551,-0.9386l0.66661,-0.83713l1.15268,-0.97665l1.1874,-0.79273l1.77763,-1.12251l1.62487,-1.26203l0.71522,-1.41424l0.31247,-1.44595l0.24304,-1.9533l0.35414,-2.45431l0.35414,-1.26838l0.59717,-1.19227l0.86798,-1.66157l0.83327,-2.27673l0.67356,-1.9533l0.27776,-1.9533l0.15971,-2.13721l-0.15971,-1.19227l-0.20137,-2.38455l0.08333,-2.99971l-0.15971,-3.07581l-0.15971,-1.4079c0,0 0.23798,-0.68802 0.27776,-0.86884c0.03955,-0.18082 0.31942,-0.14586 0.31942,-0.14586l0.35414,-0.03805l0.51385,-0.03171l0.74994,-0.4693l0.3958,-0.97665l0.11805,-0.72297l0.27776,-0.72297l0.24304,-0.58345l-0.12499,-0.25368l-0.3958,-0.21562l-0.74994,0l-0.67356,0.21562c0,0 -0.23737,0.28924 -0.3958,0.36149c-0.15843,0.07225 -0.19443,0.65321 -0.19443,0.65321c0,0 -0.04166,0.36478 -0.04166,0.5454c0,0.18062 -0.35414,0.21562 -0.35414,0.21562l-0.51385,-0.03805l-0.47913,-0.21562l-0.95131,-0.79908l-0.90965,-1.00836l-1.1874,-1.66157l-1.38878,-2.06111l-0.98603,-1.19862l-0.71522,-0.83079l-0.86798,-0.86884l-0.59717,-0.8625l-0.47218,-1.37619l-0.27776,-1.55376l-0.15971,-1.52205l-0.03472,-2.45431l-0.12499,-0.76103l-0.23609,-0.21562l-0.43746,0l-0.51385,0.10781l-0.11805,0.32344l-0.07638,0.86884l0.11805,1.15422l-0.23609,0.65321l-0.3958,-0.06976l-0.15971,-0.36149l-0.27776,-0.65321l-0.35414,-0.83079l-0.36108,-0.90689l-0.27081,-0.28538l-0.55551,-0.14586l-0.31942,0.10781l-0.15971,0.50735l-0.07638,0.61516l-0.23609,0.10781l-0.11805,-0.29173l0.07638,-0.53906l-0.43746,-1.73767l-0.7916,-1.80744l-0.74994,-1.59181l-1.06936,-1.84549l-1.06936,-2.09282l-0.67356,-1.59181l-0.83327,-1.08446l-0.86798,-0.86884l-0.99297,-0.57711l-1.30545,-0.69126l-0.7916,-0.43125l-0.35414,-0.39954l-0.20137,-1.00836l-0.19443,-0.32978l-0.23609,-0.03171l-0.59717,0l-0.74994,-0.22197l-0.90965,-0.50101l-1.34711,-1.08446l-1.14,25.07657l-17,0l-21,-7l-19,13l-14,-24z" fill="#db9c9c" stroke="#000000"/><path d="M705.90432,508.10515c-0.25854,0 -0.84021,0.43759 -0.84021,0.43759l-0.77771,0.92591l0.05555,0.87518l-0.06249,1.7567l-0.06249,1.54108l0.31942,1.27472l0.58329,0.48198l1.03464,0.79273l1.35406,0.69761c0,0 1.16443,1.45412 1.22907,1.62986c0.06463,0.17574 0.19443,0.61516 0.19443,0.61516l0.52079,0.78639l0,0.61516c0,0.26361 -0.13193,0.39954 -0.13193,0.39954c0,0 -0.12604,0.0897 -0.51385,0.17757c-0.3878,0.08787 -0.77771,0.30441 -0.77771,0.30441l-0.45135,0.43759c0,0 0.12766,0.43988 0.25692,0.65956c0.12978,0.21967 0.97214,0.44393 0.97214,0.44393l0.77077,0.52638l0.38886,0.742l-0.06249,1.0147l0.13193,1.09714l0.51385,1.09714l1.03464,1.3635c0,0 1.0325,0.9214 1.09713,1.09714c0.06463,0.17574 0.64578,0.43759 0.64578,0.43759c0,0 0.77715,0.30762 1.42349,0.61516c0.64634,0.30755 0.58329,0.26636 0.58329,0.26636l0.77771,0.30441c0,0 0.18801,0.13547 0.38191,0.35515c0.1939,0.21968 0.71522,0.21562 0.71522,0.21562l0.45135,0.08879c0,0 0.44974,-0.04439 0.70828,-0.04439l0.71522,0l0.51385,0l0.58329,0.31075l1.03464,0.57077l1.42349,0.3932l1.22212,0.04439l1.03464,-0.3488l0.52079,-0.70395l0.84021,-1.3635l1.03464,-0.61516l1.15963,-1.00836l0.77771,-0.39954l1.16657,-0.57077l0.70828,-0.12684l0.97214,0c0.32317,0 0.51651,0.17306 0.64578,0.3488c0.12927,0.17574 0.32156,0.66139 0.25692,0.83713c-0.06463,0.17574 0.25692,0.78639 0.25692,0.78639l0.90965,0.04439l0.84021,-0.04439l0.12499,-0.21562c0,0 0.25692,-0.30716 0.25692,-0.57077l0,-0.70395l0,-0.74834l0.26387,-0.57077l0.84021,-0.30441l0.06249,-0.53272l0,-0.3488l-0.45135,-0.3488l-0.9027,-0.26636l-0.32636,-0.65956l0.19443,-0.88152l0.64578,-0.65321l0.70828,-0.65956l1.03464,-0.57077l0.77771,-0.04439l1.22907,-0.22197l0.31942,-0.3932l-0.12499,-0.88152l-0.06249,-1.45229l0.12499,-1.26838l0.52079,-0.92591l0.64578,-1.4079l0.31942,-1.18593l0.06944,-1.18593l-0.13193,-1.14154l-0.64578,-0.83079l-0.84021,-0.35515l-1.361,-0.3488l-1.22212,0l-1.16657,0.43759l-1.16657,0.48198l-1.41655,0.22197l-2.20121,0.22197l-2.45119,0.12684l-1.55543,0.22197l-1.68042,0.13318c0,0 -1.28781,0.26093 -1.61098,0.3488c-0.32317,0.08787 -0.7761,0.35018 -1.03464,0.48198c-0.25853,0.13181 -1.81235,0.08879 -1.81235,0.08879l-1.87485,-0.12684l-1.61098,-0.61516l-1.61792,-0.92591l-1.81235,-0.91957l-1.61098,-0.92591l-1.29156,-0.3488l-1.87485,-0.13318l-1.16657,-0.26636l-0.25692,-0.43759l-1.03464,-0.57077z" fill="#fd0acb"/></g></g></g></svg>