<svg x="0" y="0" width="1125.84375" height="564.79688" version="1.1" xmlns="http://www.w3.org/2000/svg" xmlns:xlink="http://www.w3.org/1999/xlink"><g fill="none" stroke="none" stroke-width="1" stroke-linecap="butt" stroke-linejoin="miter" stroke-miterlimit="10" stroke-dasharray="" stroke-dashoffset="0" font-family="sans-serif" font-weight="normal" font-size="12" text-anchor="start" mix-blend-mode="normal"><g fill="#8d5f08"><path d="M385.59688,20.39378l-0.99375,1.275l2.025,1.0125l-0.50625,0.76875l-0.525,0.24375l3.5625,2.79375l-5.56875,-2.53125l1.7625,2.53125l-1.7625,-1.275l-1.03125,3.3l-0.99375,-1.03125l1.25625,-2.53125l-1.25625,-1.7625l-1.275,1.5375l-1.25625,-0.76875l-0.2625,4.03125l-1.25625,-1.5l0.75,-2.53125l-2.79375,3.28125l2.53125,1.5l-0.225,0l-2.79375,0.28125l0.75,1.25625l2.04375,-1.03125l1.25625,0.525l-3.01875,1.0125l2.75625,0l-0.76875,0.75l-0.99375,-0.4875l-1.275,0.4875l2.75625,0.24375l1.05,0.525l-4.55625,0.24375l3.28125,1.7625l-2.25,0l0.4875,1.25625l-2.025,-1.5l-1.25625,1.7625l0.2625,0.2625l2.75625,0.75l-2.53125,-0.50625l-0.75,0.50625l2.025,2.025l-1.275,0l1.275,1.03125l-1.275,-0.525l-0.225,2.79375l0.99375,0.75l1.5375,-1.03125l0.99375,3.3l-1.7625,1.03125l-1.03125,3.7875l4.05,1.0125l2.025,-1.5375l0.76875,1.03125l-2.2875,0.99375l2.2875,-0.4875l-3.54375,1.7625l3.28125,0l-0.76875,1.25625l1.5375,0.76875l2.025,-0.2625l-1.25625,-0.73125l1.7625,0l0.76875,-1.8l2.5125,-0.50625l1.275,0.50625l6.31875,1.8l0.24375,1.7625l0.4875,-1.03125l3.5625,3.05625l2.775,0.73125l-1.0125,0.76875l1.0125,-0.24375l0.61875,1.2375l0.13125,1.29375l2.30625,-0.525l-2.04375,-2.53125l2.04375,1.5375l1.25625,-1.275l-0.2625,1.7625l0.99375,-1.25625l0,1.7625l0.525,-0.99375l0,0.75l1.275,-0.4875l-0.76875,0.73125l3.0375,0.76875l-3.3,0.4875l-1.25625,1.5375l3.7875,0l1.7625,-1.5375l0.2625,0.28125l1.5375,2.775l0.99375,-0.75l0.50625,0.99375l-1.275,-0.24375l2.025,1.51875l0.2625,1.51875l1.78125,-0.2625l-3.80625,1.51875l2.025,-0.2625l-1.51875,0.76875l0.99375,1.7625l0.76875,-2.75625l0,0.73125l1.7625,-1.5l-2.26875,4.03125l2.53125,-1.7625l-2.025,2.53125l2.53125,-0.50625l-0.76875,1.51875l1.5375,-0.525l0.2625,-2.25l0.99375,-0.2625l-1.25625,4.81875l1.7625,-1.5375l-0.76875,2.025l1.8,0.50625l0.225,-2.26875l1.275,-0.2625l-1.275,2.79375l0.50625,-0.50625l1.25625,1.7625l0.525,-1.25625l-0.2625,1.5l1.5375,1.275l0,-2.775l-1.5375,-1.03125l3.80625,1.275l-2.025,0.525l1.25625,-0.2625l-0.99375,2.26875l1.7625,-1.51875l-1.275,1.78125l1.0125,-0.50625l0,1.5l1.25625,-0.99375l-0.24375,1.25625l1.275,-0.76875l-1.03125,1.03125l1.5375,-0.76875l0.99375,1.7625l0,-1.51875l0.76875,2.2875l1.7625,-0.4875l0.2625,1.25625l0.76875,-1.03125l0,1.275l0.225,-1.0125l0.525,1.0125l0.75,-0.24375l-0.50625,0.99375l1.25625,-1.25625l-0.4875,1.25625l1.51875,-0.99375l1.7625,1.25625l1.5,-3.7875l0.28125,2.53125l0.2625,-1.8l0.4875,2.04375l0.24375,-1.5l1.03125,0.99375l-0.2625,-1.5375l1.0125,2.30625l-0.2625,-2.04375l1.275,1.78125l-0.2625,-1.5l1.78125,-0.54375l-2.53125,0l1.51875,-1.5l-1.51875,0l0.24375,-1.51875l-1.25625,0.76875l1.0125,-1.0125l-1.25625,0l0.50625,-1.25625l-1.03125,0.4875l0.525,-1.25625l-0.76875,0.50625l0,-1.5375l-2.53125,-0.225l1.275,-0.50625l-2.025,0l0.99375,-1.8l-1.5,-0.73125l1.25625,-0.2625l-1.7625,-0.2625l1.275,-0.50625l-1.03125,0l0.50625,-1.25625l-1.5,0.2625l1.5,-0.76875l-1.5,-0.76875l-1.275,0.50625l0.76875,-1.5l-3.05625,-1.03125l1.25625,-0.73125l-1.25625,-1.275l-0.24375,-0.2625l1.275,-2.025l-2.53125,-2.025l0.99375,-0.50625l0.76875,1.5375l0.99375,-0.2625l-1.25625,-0.76875l1.03125,0.2625l0.225,-2.025l-1.25625,-0.24375l1.03125,-1.03125l-3.5625,-4.29375l-0.24375,-1.7625l-2.53125,-0.75l2.26875,0l0.76875,-1.5375l-0.99375,-0.73125l0.99375,0l-0.2625,-3.80625l-3.2625,-5.8125l-0.2625,-0.50625l-2.26875,2.26875l0.73125,2.53125l0,0.2625l-0.225,0.24375l-0.76875,0.4875l-0.50625,-2.53125l-0.46875,1.1625l0.46875,-2.41875l-1.7625,-0.50625l1.25625,3.01875l0,0.01872l-0.525,1.25625l-1.7625,-2.53125l1.03125,-0.4875l-0.525,-1.7625l-2.26875,2.25l0,-1.25625l-1.51875,0.2625l3.54375,-2.025l3.80625,0.2625l-1.275,-1.25625l1.5,0.4875l0,-0.99375l-2.26875,0l-1.25625,-1.03125l-0.2625,0.50625l-0.73125,-0.75l0,1.0125l-0.76875,-0.76875l-2.53125,0.76875l0.76875,1.25625l-0.76875,-0.4875l-0.50625,0.75l0.24375,-1.51875l-1.25625,0l0.4875,1.51875l-1.5,0.24375l0,-2.26875l-1.03125,2.025l0,-1.25625l-1.25625,0.24375l1.51875,-0.50625l-0.75,-1.5375l-2.04375,0.2625l2.04375,-0.4875l-1.0125,-0.50625l1.275,-1.25625l-0.76875,1.25625l2.025,-0.525l-0.2625,-2.00625l-1.5,-0.525l-1.03125,0.76875l1.5375,0.76875l-1.7625,0l-1.8,-1.0125l1.5375,-1.25625l0.2625,-0.2625l-0.76875,-0.76875l-0.50625,0.76875l-0.525,0.4875l-1.5,-0.75l-0.76875,1.25625l0.2625,-1.5l-1.78125,0.99375l2.025,-1.25625l0.2625,-0.24375l-2.2875,-0.75l-0.24375,0.225l-1.03125,1.03125l-0.4875,-1.5375l-0.50625,1.275l-2.025,0l0.2625,-1.7625l0,-1.275l-2.025,-0.4875l-0.76875,0.99375l-0.24375,0.50625l-0.2625,-0.75l-0.2625,-0.525l-0.73125,0.2625l-0.76875,0.2625l1.25625,1.0125l-1.7625,-0.50625l-2.79375,-2.025l-3.7875,-2.025l0.50625,1.25625l0,0.2625l-1.275,-0.2625l-0.225,-0.225l-1.03125,-2.30625l-0.50625,1.7625l0,0.54375l-0.2625,-0.54375l-0.4875,-2.5125l-3.3,-1.275z" data-paper-data="{&quot;id&quot;:&quot;NorthAmerica0&quot;}"/></g><g fill="#87b474" stroke="#000000"><path d="M284.06563,140.05625l0.2625,-2.75625l-2.025,1.7625l2.025,-2.79375l-4.55625,-2.26875l-0.3084,3.83128z" data-paper-data="{&quot;id&quot;:&quot;NorthAmerica1&quot;}"/></g><g fill="#b25ab3" stroke="#000000"><path d="M311.23026,188.06671l16.87152,-26.72057l-48.63831,-23.51486l-0.1791,2.22497l0.99375,0l-1.5,2.53125l1.5,0.50625l-1.25625,-0.24375l-5.30625,12.39375l-0.2625,5.55l-2.025,3.5625l0.2625,6.54375l1.25625,4.06875l2.26875,0.2625l0,2.53125l-0.99375,-1.5375l-0.2625,2.26875l3.54375,9.375l-0.525,2.26875l1.8,0.99375l4.29375,2.53125l2.75625,3.80625l3.3,13.40625l0.50625,1.0125l4.81875,6.075l-1.03125,1.7625l1.03125,1.25625l-3.80625,-0.99375l4.575,4.78125l1.5,-0.75l3.01875,3.7875l-0.225,4.81875l6.05625,5.56875l1.0125,2.5125l2.00625,-0.75l-0.99375,-3.3l-3.0375,-1.5l-2.025,-8.60625l-3.7875,-5.30625l-0.2625,-2.53125l-5.0625,-7.0875l-0.24375,-7.3125l5.56875,3.525z" data-paper-data="{&quot;id&quot;:&quot;NorthAmerica2&quot;}"/></g><g fill="#42b593" stroke="#000000"><path d="M361.57381,217.49603l0.39813,-0.30228l-1.78125,-0.50625z" data-paper-data="{&quot;id&quot;:&quot;NorthAmerica3&quot;}"/></g><g fill="#ed4c59" stroke="#000000"><path d="M361.57381,217.49603l-0.61437,0.46647l0.78195,-0.36851z" data-paper-data="{&quot;id&quot;:&quot;NorthAmerica4&quot;}"/></g><g fill="#be0351" stroke="#000000"><path d="M361.74139,217.59399l2.48055,-1.16899l5.325,0.2625l1.5375,-1.25625l3.525,2.53125l1.25625,-1.275l1.275,0.76875l-0.50625,-1.7625l1.5,0.225l1.5375,2.04375l1.25625,-1.275l-2.53125,-0.99375l1.5375,-1.5375l-1.5375,-0.2625l-2.53125,-0.4875l7.59375,-1.51875l0.2625,-1.78125l0.73125,1.51875l-0.73125,0.76875l3.2625,-2.025l-0.4875,0.99375l3.28125,-0.99375l-0.99375,0.50625l3.01875,-0.24375l0.50625,0.99375l0.76875,1.275l2.53125,-1.7625l0.99375,-0.76875l1.25625,0.2625l0.50625,0.24375l4.05,3.28125l0,3.80625l1.275,-0.50625l-0.50625,2.025l1.275,1.7625l1.25625,-0.4875l1.5,3.7875l2.53125,0.73125l0,1.8l1.8,-0.76875l0,0.76875l0.73125,-7.0875l-5.56875,-11.1375l-2.25,-4.29375l2.25,-4.575l-0.75,-0.99375l-70.3751,-34.02381l-7.48255,-3.61754l-16.87152,26.72057z" data-paper-data="{&quot;id&quot;:&quot;NorthAmerica5&quot;}"/></g><g fill="#ca5c19" stroke="#000000"><path d="M311.23026,188.06671l-12.48339,19.77079l1.25625,5.0625l0.76875,3.01875l-0.01872,0.0375l-0.75,0.73125l0.76875,1.0125l0,-1.6875l0.24375,0.9375l3.28125,4.5375l2.025,0.525l-0.2625,2.00625l4.55625,4.55625l-0.99375,2.025l4.55625,2.79375l0,1.7625l7.06875,7.0875l2.5125,5.55l-1.25625,2.26875l1.03125,0.76875l-1.7625,0.50625l0.73125,1.51875l7.35,6.5625l5.8125,1.51875l3.28125,2.53125l4.05,1.275l13.14375,4.05l8.60625,-2.025l8.4,4.8375l1.55625,-5.5875l4.85625,-0.525l-0.1125,-1.3875l-3.50625,-1.9875l1.21875,-0.4125l-0.01872,-2.04375l6.80625,-1.06875l2.90625,-3.4875l1.66875,1.78125l1.25625,-5.2875l-1.25625,-0.2625l3.01875,-6.5625l-5.04375,-0.2625l-7.59375,3.28125l-1.275,6.05625l-3.01875,3.80625l-2.79375,-0.50625l-7.81875,2.79375l-2.79375,-2.2875l-2.53125,0.2625l-7.59375,-11.8875l-0.225,-2.025l-0.2625,-7.0875l0.2625,-2.79375l1.5,-0.73125l-0.50625,1.5l1.25625,-3.525l-0.99375,-4.81875l-1.25625,-0.24375l1.25625,0l0.73125,-3.3l2.79375,-1.25625l-0.99375,-0.99375l2.26875,0.225l-0.76875,0.50625l3.7875,-2.26875l0.2625,-2.53125z" data-paper-data="{&quot;id&quot;:&quot;NorthAmerica6&quot;}"/></g><g fill="#1e364d" stroke="#000000"><path d="M311.23026,188.06671l-12.48339,19.77079l1.25625,5.0625l0.76875,3.01875l-0.01872,0.0375l-0.75,0.73125l0.76875,1.0125l0,-1.6875l0.24375,0.9375l3.28125,4.5375l2.025,0.525l-0.2625,2.00625l4.55625,4.55625l-0.99375,2.025l4.55625,2.79375l0,1.7625l7.06875,7.0875l2.5125,5.55l-1.25625,2.26875l1.03125,0.76875l-1.7625,0.50625l0.73125,1.51875l7.35,6.5625l5.8125,1.51875l3.28125,2.53125l4.05,1.275l13.14375,4.05l8.60625,-2.025l8.4,4.8375l1.55625,-5.5875l4.85625,-0.525l-0.1125,-1.3875l-3.50625,-1.9875l1.21875,-0.4125l-0.01872,-2.04375l6.80625,-1.06875l2.90625,-3.4875l1.66875,1.78125l1.25625,-5.2875l-1.25625,-0.2625l3.01875,-6.5625l-5.04375,-0.2625l-7.59375,3.28125l-1.275,6.05625l-3.01875,3.80625l-2.79375,-0.50625l-7.81875,2.79375l-2.79375,-2.2875l-2.53125,0.2625l-7.59375,-11.8875l-0.225,-2.025l-0.2625,-7.0875l0.2625,-2.79375l1.5,-0.73125l-0.50625,1.5l1.25625,-3.525l-0.99375,-4.81875l-1.25625,-0.24375l1.25625,0l0.73125,-3.3l2.79375,-1.25625l-0.99375,-0.99375l2.26875,0.225l-0.76875,0.50625l3.7875,-2.26875l0.2625,-2.53125z" data-paper-data="{&quot;id&quot;:&quot;NorthAmerica6&quot;}"/></g><g fill="#d67960" stroke="#000000"><path d="M405.95944,198.9875l1.03125,0.76875l0.13452,-0.20514z" data-paper-data="{&quot;id&quot;:&quot;NorthAmerica7&quot;}"/></g><g fill="#a90c5d" stroke="#000000"><path d="M390.28447,126.65l1.51875,0l0.50625,0l0.37513,-1.68112z" data-paper-data="{&quot;id&quot;:&quot;NorthAmerica8&quot;}"/></g><g fill="#38b99e" stroke="#000000"><path d="M275.99525,100.55307l-1.52962,1.08443l1.51875,-0.50625l0.74687,-0.24896z" data-paper-data="{&quot;id&quot;:&quot;NorthAmerica9&quot;}"/></g><g fill="#8df1b1" stroke="#000000"><path d="M277.50313,101.22757l0,-0.60257l-0.77188,0.25729z" data-paper-data="{&quot;id&quot;:&quot;NorthAmerica10&quot;}"/></g><g fill="#cefade" stroke="#000000"><path d="M277.50313,101.22757l0,0.89743l-1.78125,3.5625l2.2875,-1.5375l1.5,-2.025z" data-paper-data="{&quot;id&quot;:&quot;NorthAmerica11&quot;}"/></g><g fill="#82c090" stroke="#000000"><path d="M328.10179,161.34614l7.48255,3.61754l32.89504,-23.04072l-63.87755,-28.57363l-25.09246,-11.22433l-2.00625,3.0375l0.75,0.76875l-2.00625,0.4875l-0.525,1.03125l1.51875,1.275l-1.51875,0.4875l0.76875,2.79375l2.2875,-1.78125l-0.76875,1.51875l1.275,0.76875l-1.78125,-1.03125l1.275,4.05l-2.025,1.0125l1.25625,-0.50625l-0.2625,1.275l2.53125,-1.0125l-3.0375,2.53125l0,1.5l1.275,-0.50625l-1.7625,0.76875l1.5,0.50625l-1.7625,0.2625l2.53125,0.76875l-2.26875,0l3.01875,1.25625l-0.99375,0l0.50625,0.73125l2.025,-0.4875l-2.2875,0.75l1.0125,1.275l1.0125,-1.0125l-0.76875,1.0125l1.2375,0.50625l-0.20625,0.2625l2.00625,0l-1.78125,1.5l1.03125,1.25625l1.0125,-0.73125l0.4875,-0.525l0,0.75l0.2625,1.275l-1.25625,0.50625l2.025,-0.24375l-0.76875,2.53125l1.275,1.5l-1.5375,5.8125z" data-paper-data="{&quot;id&quot;:&quot;NorthAmerica12&quot;}"/></g><g fill="#32419b" stroke="#000000"><path d="M331.61572,74.075l-1.7625,-2.79375l0.99375,-0.76875l-2.75625,-3.01875l-2.79375,0.99375l-4.8,-1.25625l0.24375,-1.5l2.025,-0.2625l-0.99375,-2.04375l-2.79375,-0.73125l-3.3,-2.79375l-2.025,-1.7625l-3.7875,0.50625l0.75,-2.26875l0.2625,-0.525l-0.4875,0.525l-2.025,2.00625l-0.50625,-3.0375l-0.525,-2.26875l0,1.7625l-1.0125,0l-4.55625,1.0125l2.30625,-1.7625l0.99375,-0.76875l-1.7625,0.525l-4.06875,0.73125l-1.5,-0.225l0.50625,-1.7625l-2.79375,0.73125l-0.225,2.2875l-3.3,-5.55l-1.5375,-3.05625l-0.4875,-0.73125l-6.58125,-6.09375l-0.50625,-1.5l1.03125,-0.525l-1.5375,-1.275l0.2625,-1.5l-1.78125,0.24375l1.51875,-0.73125l0.2625,-1.03125l-2.79375,0.2625l-1.25625,-1.275l-1.7625,0.76875l0.225,-0.525l0.525,-0.24375l-2.2875,-0.75l-1.25625,0.2625l-4.29375,0.73125l-1.7625,-1.7625l-0.00009,0l-2.025,0.50625l-0.76875,4.05l-1.5,1.51875l1.25625,2.26875l-1.51875,1.275l0.75,1.51875l-1.0125,-1.51875l1.0125,-2.025l-1.7625,3.28125l-2.2875,-2.53125l1.25625,-1.7625l-5.2875,-1.7625l0,3.0375l-1.03125,-0.76875l-1.5,2.26875l1.7625,3.54375l0.76875,-0.4875l-0.76875,0.99375l2.53125,0l0.50625,1.25625l-1.7625,0l-1.03125,2.04375l-1.5,0.4875l-0.76875,-1.25625l-2.53125,0.2625l-0.2625,-1.8l-6.825,2.04375l-0.75,1.51875l0.75,0.99375l-0.99375,0l0.24375,0.76875l0.525,1.7625l-1.275,-0.75l-2.025,2.025l2.775,1.7625l-2.53125,3.5625l-2.00625,0.225l3.0375,1.275l0,0.75l-0.50625,2.79375l2.53125,-1.51875l-1.03125,1.7625l2.53125,0.525l-2.53125,0.73125l-2.53125,2.79375l-5.8125,-0.4875l-0.75,0l-1.51875,1.5l-1.275,-2.26875l-2.53125,0.2625l0.2625,1.5l1.78125,-0.76875l-0.50625,1.03125l2.75625,0.50625l0.2625,0.2625l-0.4875,0.99375l10.85625,-1.25625l2.79375,0.75l3.01875,-1.0125l-0.76875,-1.5l1.03125,-1.03125l9.8625,-1.7625l2.025,1.0125l-2.025,0l0.4875,2.26875l-1.25625,-2.025l-2.00625,-0.24375l-3.3,2.26875l1.275,1.0125l-2.53125,1.0125l3.7875,0.76875l0.76875,-1.03125l-0.2625,1.03125l0.99375,-1.25625l1.03125,1.5l1.7625,-0.76875l0,-2.00625l2.53125,-0.525l-1.25625,1.275l1.25625,-0.50625l-0.4875,1.03125l2.025,0l-1.275,0.4875l0.75,0.76875l-1.0125,0l1.0125,0.24375l-0.75,1.03125l1.5,0.99375l-0.225,2.025l4.51875,2.26875l0.525,2.53125l0.75,-0.24375l1.25625,-0.2625l0.525,1.275l-1.25625,0.4875l0.73125,-1.5l-1.5,1.0125l2.26875,7.3125l1.25625,0l-0.225,-3.2625l0.73125,1.7625l0.76875,-1.03125l-1.0125,2.53125l1.275,1.275l2.025,-4.5375l-1.25625,4.29375l0.73125,0.99375l1.25625,-0.75l-1.5,1.51875l1.275,1.275l-1.03125,0l0.76875,1.51875l-0.76875,-1.25625l0.2625,1.5l-1.25625,0.2625l2.25,5.04375l-0.98288,0.69682l28.60659,12.79627z" data-paper-data="{&quot;id&quot;:&quot;NorthAmerica13&quot;}"/></g><g fill="#fc4418" stroke="#000000"><path d="M304.60184,113.34933l63.87755,28.57363l21.80508,-15.27296l-0.24375,-1.7625l-5.325,-3.7875l-2.25,-8.3625l-6.3375,1.03125l-13.40625,-6.31875l-4.29375,2.025l0.75,-1.78125l-2.26875,-5.0625l-2.025,0l0,1.25625l-1.5,-2.25l-0.28125,-5.56875l2.53125,-4.81875l-0.75,-0.73125l3.01875,-2.79375l-1.25625,-0.76875l2.025,0l1.03125,-1.5l-2.2875,-1.8l-1.0125,0.76875l0.24375,-0.99375l-3.0375,-0.2625l0,-1.275l5.83125,2.53125l0.75,-2.75625l3.3,-0.525l1.25625,-3.80625l-7.06875,-1.9875l1.7625,-0.54375l4.29375,1.8l1.7625,-3.3l-1.7625,-1.25625l5.04375,0.76875l-3.01875,-2.53125l2.025,-0.2625l1.25625,1.7625l2.04375,-4.55625l-3.05625,-3.0375l1.51875,-0.99375l-1.25625,-0.76875l0.4875,-1.25625l-2.75625,-0.50625l0.73125,-0.76875l-4.29375,0.2625l2.2875,3.54375l-1.25625,0.2625l0,5.2875l-1.25625,1.03125l-2.53125,-6.31875l-1.8,-1.03125l-0.4875,4.05l-2.53125,-4.05l1.51875,-0.50625l-3.5625,-0.50625l0.2625,-1.0125l0,-1.0125l1.275,0.2625l-4.55625,-6.075l-2.26875,4.29375l0.99375,0.2625l-0.225,2.53125l0,0.4875l4.03125,1.5375l-1.275,0.225l-0.225,2.04375l0.99375,-1.0125l0.50625,1.5l-2.53125,2.04375l0.50625,3.28125l-2.00625,-0.99375l0.73125,-3.05625l-0.99375,1.03125l0.2625,-1.03125l-1.275,-0.75l-2.025,0.50625l0.76875,1.7625l1.25625,-0.2625l0,1.8l-2.025,-2.2875l-0.2625,1.51875l-1.7625,0.24375l-3.3,0l-1.7625,-2.00625l-2.26875,0l-1.51875,-3.05625l-4.05,2.025l1.78125,0.76875l2.775,-1.5375l-3.80625,2.79375l1.275,2.53125l-0.24375,1.0125l-1.03125,-0.50625l0.76875,2.2875z" data-paper-data="{&quot;id&quot;:&quot;NorthAmerica14&quot;}"/></g><g fill="#a1d0d9" stroke="#000000"><path d="M368.47938,141.92296l-32.89504,23.04072l71.54086,34.58742l1.36548,-2.08236l3.05625,-4.8l6.31875,-6.58125l-2.025,0.2625l1.25625,-1.5375l-1.7625,-0.225l2.75625,-0.2625l1.03125,-1.51875l-0.76875,-1.25625l-0.2625,1.5l-0.225,-1.25625l-2.025,0.75l1.25625,-1.7625l1.25625,0.50625l-1.0125,-2.26875l2.025,3.0375l-2.26875,-3.80625l-3.3,-0.4875l1.78125,0.225l-1.51875,-1.5l1.275,1.0125l0.24375,-1.5375l-0.24375,-0.09375l0,-1.1625l-3.5625,-0.75l0,-1.25625l3.3,1.5l-2.26875,-4.29375l2.00625,-1.7625l-0.75,3.0375l3.0375,2.775l-0.2625,3.54375l1.25625,-5.83125l-2.5125,-4.55625l2.5125,2.2875l1.275,-3.7875l-1.275,-2.53125l1.275,-2.79375l5.325,-3.01875l-0.50625,-2.025l0.99375,1.25625l3.0375,-2.025l-0.76875,-1.275l-0.24375,1.5375l-2.775,-1.7625l0.2625,-5.83125l0.99375,-0.4875l-0.50625,-1.275l1.7625,0l-0.225,-3.28125l0.4875,1.51875l1.0125,-1.8l1.03125,0.76875l1.7625,-3.01875l-1.275,-1.275l2.04375,0l3.525,-5.325l-0.50625,2.53125l1.0125,-0.4875l2.5125,-1.275l-0.99375,2.025l-1.51875,-0.75l-2.26875,4.81875l0.99375,2.75625l2.025,0.50625l1.0125,-5.56875l1.78125,-0.225l-0.525,-1.03125l4.3125,-4.29375l0.75,-0.99375l-1.2375,-0.31875l2.00625,-2.98125l0.2625,-0.50625l-0.50625,-0.2625l-1.03125,-0.2625l0,2.79375l-0.76875,0.50625l0.525,-3.0375l-1.25625,-2.53125l-0.76875,4.8l1.425,1.44375l-1.6875,-0.4125l-2.75625,2.26875l-4.33125,-0.76875l-1.5,-2.53125l-1.25625,0.76875l0,-3.3l-1.5375,1.5375l-0.75,-1.0125l-2.26875,0.75l3.28125,-1.7625l1.275,-2.26875l-1.7625,-2.2875l-3.5625,1.25625l-3.3,4.05l-4.29375,9.61875l1.5375,-4.81875l-0.76875,-1.7625l4.05,-6.31875l0.24375,-3.0375l0.2625,-1.25625l13.14375,-6.825l0.2625,0l0.24375,-4.81875l2.79375,-2.53125l0.76875,-3.7875l-1.8,-0.50625l1.25625,-0.76875l-1.9875,0.525l1.25625,-0.76875l-1.25625,-0.2625l-0.2625,-2.25l-2.26875,-0.76875l-0.76875,2.26875l-0.76875,-2.00625l-2.25,0.24375l-1.8,4.29375l1.25625,-4.03125l-1.5,2.025l2.53125,-4.33125l-1.7625,0.2625l0,-0.75l-1.51875,1.25625l-0.76875,-0.99375l-0.24375,0.99375l-0.2625,-0.99375l-0.05622,0.54375l-0.9375,0.7125l0,-1.03125l-0.2625,0.525l-0.76875,1.51875l-0.99375,-3.0375l0,1.25625l-0.50625,-0.99375l-2.2875,0.50625l0.2625,-1.275l-1.275,0.76875l0.50625,-0.76875l-1.25625,0l0.75,-0.75l-2.025,0.2625l1.7625,-0.54375l-0.4875,-1.7625l-2.79375,-0.225l0.75,-1.03125l-1.7625,-0.50625l-0.2625,-0.99375l-0.99375,1.5l0.2625,-2.26875l-1.275,1.5l0.24375,-2.00625l-0.99375,-1.0125l-1.5375,0.75l0.76875,-0.99375l-3.7875,-1.8l0,-0.99375l-1.0125,0l0.24375,2.53125l1.51875,0.99375l-1.0125,1.03125l1.0125,0.24375l-0.75,1.51875l1.25625,1.7625l-1.7625,-1.7625l-0.76875,4.06875l-1.51875,-1.8l-0.24375,2.53125l-0.76875,-3.0375l-3.525,1.5375l0.24375,-1.275l1.03125,0.50625l-0.28125,-2.025l-0.99375,0.50625l-1.03125,-2.26875l-2.025,0.50625l2.025,-1.0125l-1.5,-3.5625l-0.2625,1.275l-3.525,-0.24375l-0.525,-1.51875l-1.275,0.4875l-3.7875,-2.25l-0.73125,1.7625l-5.5875,-0.24375l-0.73125,1.5l1.9875,2.2875l-0.225,3.0375l1.25625,-0.50625l1.5,2.775l-0.73125,5.8125l3.7875,1.5375l3.2625,5.55l0,-0.4875l1.5375,1.25625l-1.5375,0.24375l0,-1.0125l-0.99375,4.8l-3.7875,3.7875l2.26875,1.275l3.54375,6.825l-1.03125,2.2875l1.275,2.025l-1.7625,-1.5375l-0.13112,0.58763z" data-paper-data="{&quot;id&quot;:&quot;NorthAmerica15&quot;}"/></g><g fill="#c8dec0" stroke="#000000"><path d="M456.75511,349.14136l-30.99813,29.35511l0.98591,6.16197l0.49296,5.42254l-1.47887,8.13382l0.98591,7.1479l-2.46479,13.80283l1.23239,3.69719l-0.24648,0.49296l-0.98591,2.2183l1.47887,11.33805l-3.20423,13.30987l-1.47888,0.98592l2.4648,7.64086l-1.23239,5.91549l2.57737,1.54231c-1.25273,1.50748 -0.21305,0.061 0.38037,-0.30991l1.23239,0.49295l0.73944,-0.73943l-1.47887,1.97183l1.72535,0.73943l-0.24648,1.2324l-1.23239,-0.73944l1.23239,1.23239l-0.98591,-0.49295l-0.24648,3.45071l1.23239,1.23239l-1.23239,1.23239l2.2183,1.23239l-2.2183,2.4648l1.97183,0.73944l-1.97183,0.24648l0,1.23239l1.23239,-0.73944l-0.73944,3.20423c-0.26926,-0.75746 -1.15705,-1.18874 -1.23239,-1.23239l-0.98591,0l0.49295,-1.23239l-0.73943,0.98591l-0.98592,-0.73943l-0.98591,0.24648l1.02385,1.08875l-0.03791,0.6366c-1.28511,1.10747 -1.58427,1.30265 0,0.24647l0.49296,1.2324l1.47887,-0.24648l0.98592,1.47887l-1.2324,0.98592l1.47888,0l-1.97183,0.73943l2.46479,-0.49296l1.72535,1.2324l-1.23239,-0.24648l0.98591,1.23239l-3.45071,-0.73943l2.21832,1.23239l-1.23239,0.73943l0.98591,0.49296c-0.02993,1.10478 -1.18809,2.91346 0.24648,1.47887l1.47887,1.72535l-1.72535,-0.24648l0.73944,1.2324l0.73943,0.98591c-1.94087,-0.23409 -2.3802,-0.36316 -0.24647,0.24648c0.02185,0.28121 -0.32491,-1.23475 0.24647,1.72535l0.73944,-1.72535c1.0609,1.15529 1.9224,-0.74646 -0.73944,1.72535l-0.49295,0.24648l1.47887,0.49296l-0.24648,1.72535l1.47887,1.23239l-0.24648,-1.23239l0.73944,1.23239l-0.73944,-1.72535l1.97183,0.73944c0.06483,-1.28488 -2.07901,-3.61721 -0.08182,-0.3831l-0.16468,2.6014l0,-1.47887l-0.24648,1.23239l-0.24647,-0.98591l-0.49296,0l-0.49296,0l-0.73943,0l0.49295,2.4648l1.72535,-0.98592l3.20424,0c3.38465,-3.29114 0.1734,-2.62804 -0.24648,2.21832l-1.47888,0.49296l2.95776,1.47887c4.40343,-2.64653 3.67164,-5.03403 6.16197,-5.42254l-1.72535,-2.21832l-1.47887,0l1.47887,-0.24648l-1.47887,-1.47887l2.21832,-3.20423l-0.49296,-0.49296l-0.49296,-0.98591l0.73944,0.98591l0.24648,0.24648l0.98591,-0.24648l0,-0.24648l0.49296,-3.20423l4.43663,-3.94367l-0.24648,-2.46479l-2.71128,-0.49296l-2.46479,-3.20423l1.47887,-2.95775l3.94367,-1.2324l0.24647,-4.43662l2.71128,-2.4648l-1.97183,-1.23239l1.72535,-0.49296l0.73944,1.23239l1.47887,-0.98591l-0.49296,-1.72535l-1.97183,1.23239l-1.72535,-1.23239l-0.24648,-4.92958l3.69719,1.47887l4.19015,-0.98592l0,-5.91549l0.98591,0.49295l-0.98591,-2.2183l3.69719,0.73943l3.20423,-0.73943l4.6831,-0.98592l2.95776,-1.47887l2.71127,-4.43662l0,-1.97183l-1.97183,-1.47887l0.73944,-2.4648l-4.43663,-3.45071l0.73944,-4.92958l-0.24648,3.20423l1.97183,1.97183l5.17606,1.97183l6.40845,-0.73944l5.42254,-5.9155l1.47888,-4.6831l4.43662,-5.17606l-0.73944,-1.47887l2.21832,1.97183l-5.42254,6.16197l4.43663,-3.69719l2.71127,-4.19014l1.72535,-2.4648l3.45071,-2.71127l1.47888,-5.42254l-0.98592,-3.20424l1.97183,-2.71127l-1.23239,-0.73944l1.72535,0.49296l2.46479,-2.95775l4.43663,-2.71128l3.20423,0l3.94367,-2.95775l2.71127,0.73943l1.72535,-1.23239l0,1.23239l3.69719,0.24648l0.24648,-1.72535l3.69719,-1.47887l-0.24648,-1.97183l4.43663,-5.66902l0.73943,-1.23239l0.98592,-4.6831l2.2183,-2.21832l2.95776,-18.48594l0.49295,-0.98591l0.73944,1.72535l1.47887,-0.98591l7.64086,-9.11973l4.43662,-5.66902l0.73944,-4.43663l-1.23239,-6.40845l-1.2324,-1.72535l-5.17606,-1.23239l-4.6831,-5.42254l-5.42254,-3.94367l-8.13381,-0.98592l-4.19015,-2.46479l-5.42254,3.20423l0.49296,-2.4648l1.47887,-0.98591l-2.4648,0.24648l1.97183,-1.47887l-1.23239,-2.4648l-1.72535,1.47887l-0.24648,-1.97183l-0.73944,0.73944l0.49296,-0.73944l-1.23239,0.24648l-0.98592,-1.47887l-0.49295,0.98592l-0.24648,-1.47888l-0.49296,0.73944l-3.69719,-2.21832l-0.24648,0.73944l-2.46479,-0.73944l-1.72535,2.71128l1.47887,0.49295l-1.2324,0.49296l-0.98591,-1.23239l-3.20423,3.45071l0.98591,-2.4648l-4.43662,0.49296l5.91549,-1.23239l1.97183,-4.19015l-7.64085,-1.23239l-1.72535,3.20423l0,-1.72535l-1.72535,1.47887l0,-1.6339z" data-paper-data="{&quot;id&quot;:&quot;SouthAmerica0&quot;}"/></g><g fill="#0c9305" stroke="#000000"><path d="M497.23596,310.80615l0,-0.09145l-1.72535,1.72535z" data-paper-data="{&quot;id&quot;:&quot;SouthAmerica1&quot;}"/></g><g fill="#e772fd" stroke="#000000"><path d="M397.00598,295.18595l-0.08706,0.73999l1.72535,0.73944z" data-paper-data="{&quot;id&quot;:&quot;SouthAmerica2&quot;}"/></g><g fill="#172ff2" stroke="#000000"><path d="M398.64427,296.66539l-0.49296,0.98591l-2.2183,3.69719l-2.95776,1.2324l0,2.46479l-1.97183,0.49296l0.49296,1.97183l-3.94367,1.47887l-0.24648,0.24648l0.24648,1.23239l0.24648,0.73944l-0.24648,0.24648l-1.72535,2.2183l0.73944,0.73944l-2.21832,1.72535l0,4.6831l2.4648,1.2324l0.73943,-1.47888l0.49296,-0.49295l0.73944,1.23239l-1.2324,2.95775l-4.43662,3.94367l1.72535,4.92958l-0.98592,1.47888l4.19015,2.2183l3.94367,5.17606l3.20423,6.40846l2.21832,4.6831l5.66902,7.64086l-0.49296,1.97183l1.97183,2.71127l2.95775,2.71128l13.80283,6.16197l4.43663,4.19015l30.99813,-29.35511z" data-paper-data="{&quot;id&quot;:&quot;SouthAmerica3&quot;}"/></g><g fill="#0afdda" stroke="#000000"><path d="M456.75511,349.14136l38.75549,-36.70131l1.47887,-3.20423l5.42254,-4.43663l-0.73944,0l0.73944,-1.72535l-3.20424,-1.72535l-2.2183,-7.64085l-0.98592,-0.73944l-0.24648,1.23239l-2.46479,-3.20423l-7.39438,-3.69719l-11.33805,-0.24648l-4.6831,-3.69719l-1.23239,1.72535l0.73943,-3.20423l-2.21832,-2.21832l-3.45071,-1.97182l-0.98591,-0.24648l-2.4648,0l0,-2.71128l-2.95775,-1.72535l-2.71127,0.49296l-0.49296,-0.73944l-1.47887,-1.23239l-1.36477,-0.8202l-1.59298,0.57372l-5.42254,1.47887l-4.43662,-1.97183l-7.1479,0.98592l-0.98592,-2.4648l-4.43662,-0.49295l-1.47887,-2.4648l-0.73944,1.97183l1.47887,-0.24648l0,0.73944l-1.23239,-0.24648l-5.42254,2.71127l1.23239,2.71128l0.73944,0.73943l-0.24648,1.47887l-2.46479,0.98592l-1.47888,-2.4648l0.49296,-0.49295l1.72535,-2.4648l-1.47887,-2.95775l3.45071,-1.72535l-2.21832,-1.2324l-6.16197,4.19015l-3.20423,0.24648l-0.49296,1.23239l-1.97183,-0.24648l-1.72535,0.98592l-1.72535,2.46479l0,0.49296l0.24648,1.72535l-4.92958,3.45071l0.49295,2.21832l-1.35645,-0.07661l-1.00675,1.82696l-1.47887,0.5654l1.62374,2.61383l-0.89885,7.6403z" data-paper-data="{&quot;id&quot;:&quot;SouthAmerica4&quot;}"/></g><g fill="#865a8f" stroke="#000000"><path d="M456.75511,349.14136l38.75549,-36.70131l1.47887,-3.20423l5.42254,-4.43663l-0.73944,0l0.73944,-1.72535l-3.20424,-1.72535l-2.2183,-7.64085l-0.98592,-0.73944l-0.24648,1.23239l-2.46479,-3.20423l-7.39438,-3.69719l-11.33805,-0.24648l-4.6831,-3.69719l-1.23239,1.72535l0.73943,-3.20423l-2.21832,-2.21832l-3.45071,-1.97182l-0.98591,-0.24648l-2.4648,0l0,-2.71128l-2.95775,-1.72535l-2.71127,0.49296l-0.49296,-0.73944l-1.47887,-1.23239l-1.36477,-0.8202l-1.59298,0.57372l-5.42254,1.47887l-4.43662,-1.97183l-7.1479,0.98592l-0.98592,-2.4648l-4.43662,-0.49295l-1.47887,-2.4648l-0.73944,1.97183l1.47887,-0.24648l0,0.73944l-1.23239,-0.24648l-5.42254,2.71127l1.23239,2.71128l0.73944,0.73943l-0.24648,1.47887l-2.46479,0.98592l-1.47888,-2.4648l0.49296,-0.49295l1.72535,-2.4648l-1.47887,-2.95775l3.45071,-1.72535l-2.21832,-1.2324l-6.16197,4.19015l-3.20423,0.24648l-0.49296,1.23239l-1.97183,-0.24648l-1.72535,0.98592l-1.72535,2.46479l0,0.49296l0.24648,1.72535l-4.92958,3.45071l0.49295,2.21832l-1.35645,-0.07661l-1.00675,1.82696l-1.47887,0.5654l1.62374,2.61383l-0.89885,7.6403z" data-paper-data="{&quot;id&quot;:&quot;SouthAmerica4&quot;}"/></g><g fill="#f06a29"><path d="M388.16972,322.12935l0.49295,0.98591l0.24648,-0.73944l0.49296,-0.49295l-0.49296,0.24648z" data-paper-data="{&quot;id&quot;:&quot;SouthAmerica5&quot;}"/></g><g fill="#4d965f"><path d="M505.4938,308.08004l-2.71127,0.24647l1.47887,1.2324z" data-paper-data="{&quot;id&quot;:&quot;SouthAmerica6&quot;}"/></g><g fill="#b26103"><path d="M427.60638,477.90418l-0.98591,0.98591l1.23239,0.73944z" data-paper-data="{&quot;id&quot;:&quot;SouthAmerica7&quot;}"/></g></g></svg>