<?xml version="1.0" encoding="UTF-8"?>
<!DOCTYPE svg PUBLIC "-//W3C//DTD SVG 1.1//EN" "http://www.w3.org/Graphics/SVG/1.1/DTD/svg11.dtd">
<svg version="1.1" xmlns="http://www.w3.org/2000/svg" xmlns:xlink="http://www.w3.org/1999/xlink" x="0" y="0" width="960" height="560" viewBox="0, 0, 960, 560">
  <g id="Marrueco">
    <path d="M68.431,3.172 L63.424,9.848 L57.583,10.682 L55.914,15.689 L51.742,24.034 L48.404,30.709 L53.41,41.557 L61.755,44.061 L70.1,44.061 L75.106,44.061 L80.113,44.061 L90.127,40.723 L96.802,41.557 L107.65,38.22 L115.16,38.22 L118.498,46.564 L124.339,45.73 L131.849,52.405 L140.194,59.915 L150.208,70.763 L159.387,65.757 L166.062,65.757 L174.407,68.26 L187.758,63.253 L199.441,59.915 L213.626,52.405 L207.785,42.392 L206.116,34.882 L211.123,33.213 L211.957,25.703 L216.964,16.524 L220.302,7.345 L225.309,0.669 L139.36,0.669 L100.975,-1 L68.431,3.172 z" fill="#999999"/>
  </g>
  <g id="Algeria">
    <path d="M207.902,56.627 L212.342,52.68 L216.289,53.667 L220.729,55.147 L226.156,55.147 L231.09,50.707 L231.584,47.253 L237.997,48.733 L241.451,53.174 L248.852,50.213 L263.653,45.773 L274.507,39.853 L281.908,34.425 L281.414,39.359 L285.361,38.372 L289.308,38.866 L293.749,35.412 L298.189,35.412 L305.59,33.439 L314.964,26.038 L321.871,24.558 L321.871,29.492 L319.404,32.452 L311.51,35.906 L310.03,38.866 L303.123,42.319 L308.057,42.319 L313.977,37.879 L319.404,37.879 L316.444,43.8 L311.51,47.253 L304.603,52.68 L300.656,57.614 L294.242,59.588 L285.361,63.535 L281.908,67.482 L276.481,69.948 L279.934,69.948 L286.842,68.962 L295.229,65.015 L301.149,61.561 L309.043,54.654 L315.457,49.227 L320.391,43.306 L329.765,38.372 L330.259,42.319 L327.298,46.266 L322.858,50.213 L320.884,53.667 L325.818,49.72 L335.686,43.306 L341.113,39.359 L344.073,39.359 L343.58,43.8 L340.126,47.747 L335.192,50.707 L335.192,54.654 L329.765,56.134 L326.312,58.107 L321.871,60.574 L316.444,63.041 L310.524,64.028 L307.07,64.028 L305.096,69.948 L302.136,71.429 L298.189,73.895 L291.282,74.882 L287.335,79.816 L284.375,82.283 L278.948,85.736 L274.507,87.217 L268.093,88.203 L259.706,89.19 L252.799,89.19 L247.865,88.697 L247.865,82.283 L243.918,82.283 L240.958,82.283 L239.971,84.75 L244.905,88.203 L239.971,89.683 L234.05,91.657 L227.143,95.111 L225.663,98.564 L227.998,107.435 L225.309,108.608 L219.789,108.608 L220.962,98.639 L216.857,90.43 L213.925,80.462 L210.993,70.763 L207.902,56.627 z" fill="#999999"/>
  </g>
  <g id="Mauritania">
    <path d="M150.208,70.763 L146.881,73.358 L144.158,75.4 L141.435,80.505 L135.989,84.93 L127.821,86.789 L119.993,88.088 L116.93,90.375 L114.207,92.758 L109.782,96.842 L102.975,100.246 L97.189,101.267 L92.424,108.608 L90.042,112.839 L88,118.625 L88.34,122.65 L89.361,126.886 L92.765,129.856 L93.446,133.94 L94.126,137.003 L97.53,141.428 L103.316,145.008 L110.463,145.008 L114.888,147.214 L119.653,155.382 L126.8,156.744 L132.926,157.084 L145.519,156.404 L149.61,160.147 L152.667,163.551 L159.133,164.912 L173.088,163.551 L176.832,156.063 L178.533,153 L179.554,147.214 L180.575,145.008 L183.979,140.747 L187.723,136.323 L187.723,131.558 L189.428,126.886 L189.428,123.611 L187.156,126.593 L184.809,126.886 L180.996,124.833 L176.596,118.673 L166.623,113.1 L166.33,108.608 L161.93,106.06 L160.463,99.02 L157.237,96.087 L156.357,90.221 L154.01,86.789 L153.717,79.954 L149.61,73.795 L150.208,70.763 z" fill="#686868"/>
  </g>
  <g id="Zaire">
    <g>
      <path d="M235.199,351.077 L250.969,349.735 L271.428,333.964 L275.55,337.9 L296.229,337.9 L298.471,340.58 L308.781,341.061 L313.461,341.346 L318.155,344.874 L319.902,351.077 L321.809,354.247 L337.97,361.259 L342.565,365.855 L344.573,369.049 L344.573,370.726 L344.573,371.804 L344.573,373.122 L345.279,376.357 L345.878,378.109 L347.555,379.113 L349.353,381.27 L349.472,384.145 L349.472,386.781 L349.811,388.791 L350.628,390.424 L351.118,392.547 L352.424,395.65 L353.567,396.793 L354.874,398.916 L354.874,400.713 L355.037,404.796 L356.017,407.082 L356.834,408.062 L358.63,410.022 L360.1,410.512 L361.406,413.615 L361.354,416.202 L361.816,419.895 L362.739,421.742 L364.817,425.435 L364.586,427.743 L364.586,428.897 L364.355,430.513 L364.355,433.745 L364.355,436.515 L361.941,440.341 L358.832,440.03 L355.102,436.61 L355.102,433.812 L355.102,428.216 L344.573,427.905 L344.573,434.123 L344.573,438.164 L344.573,442.517 L342.355,445.937 L339.557,446.869 L332.718,446.247 L325.878,446.869 L322.909,449.667 L317.795,449.667 L309.09,449.667 L296.966,451.533 L289.504,450.289 L285.774,449.356 L276.136,450.6 L271.428,452.465 L265.566,454.641 L261.836,454.952 L254.685,448.113 L246.291,444.382 L239.763,436.61 L236.032,428.527 L232.923,421.377 L229.192,411.117 L225.809,398.682 L227.638,386.246 L227.327,375.987 L225.809,364.173 L227.949,355.779 L235.199,351.077 z" fill="#DDDDDD"/>
      <path d="M235.199,351.077 L250.969,349.735 L271.428,333.964 L275.55,337.9 L296.229,337.9 L298.471,340.58 L308.781,341.061 L313.461,341.346 L318.155,344.874 L319.902,351.077 L321.809,354.247 L337.97,361.259 L342.565,365.855 L344.573,369.049 L344.573,370.726 L344.573,371.804 L344.573,373.122 L345.279,376.357 L345.878,378.109 L347.555,379.113 L349.353,381.27 L349.472,384.145 L349.472,386.781 L349.811,388.791 L350.628,390.424 L351.118,392.547 L352.424,395.65 L353.567,396.793 L354.874,398.916 L354.874,400.713 L355.037,404.796 L356.017,407.082 L356.834,408.062 L358.63,410.022 L360.1,410.512 L361.406,413.615 L361.354,416.202 L361.816,419.895 L362.739,421.742 L364.817,425.435 L364.586,427.743 L364.586,428.897 L364.355,430.513 L364.355,433.745 L364.355,436.515 L361.941,440.341 L358.832,440.03 L355.102,436.61 L355.102,433.812 L355.102,428.216 L344.573,427.905 L344.573,434.123 L344.573,438.164 L344.573,442.517 L342.355,445.937 L339.557,446.869 L332.718,446.247 L325.878,446.869 L322.909,449.667 L317.795,449.667 L309.09,449.667 L296.966,451.533 L289.504,450.289 L285.774,449.356 L276.136,450.6 L271.428,452.465 L265.566,454.641 L261.836,454.952 L254.685,448.113 L246.291,444.382 L239.763,436.61 L236.032,428.527 L232.923,421.377 L229.192,411.117 L225.809,398.682 L227.638,386.246 L227.327,375.987 L225.809,364.173 L227.949,355.779 L235.199,351.077 z" fill-opacity="0" stroke="#000000" stroke-width="1"/>
    </g>
  </g>
  <g id="Syria">
    <g>
      <path d="M447.046,293.119 L448.468,308.137 L449.325,317.18 L460.662,325.05 L465.91,327.108 L478.084,332.344 L484.271,338.785 L503.238,342.762 L512.451,341.889 L531.234,343.921 L555.907,349.251 L574.642,360.599 L589.383,359.203 L606.887,357.545 L613.336,356.934 L617.61,352.99 L616.291,339.06 L613.532,309.934 L607.417,294.439 L602.483,281.593 L590.065,287.88 L595.314,294.231 L595.069,301.461 L590.163,298.732 L582.575,287.312 L578.012,268.578 L566.177,261.394 L539.121,250.527 L505.956,253.668 L472.17,260.075 L449.551,266.622 L428.571,271.633 L433.874,277.756 L439.702,280.399 L446.267,284.888 L447.046,293.119 z" fill="#DDDDDD"/>
      <path d="M447.046,293.119 L448.468,308.137 L449.325,317.18 L460.662,325.05 L465.91,327.108 L478.084,332.344 L484.271,338.785 L503.238,342.762 L512.451,341.889 L531.234,343.921 L555.907,349.251 L574.642,360.599 L589.383,359.203 L606.887,357.545 L613.336,356.934 L617.61,352.99 L616.291,339.06 L613.532,309.934 L607.417,294.439 L602.483,281.593 L590.065,287.88 L595.314,294.231 L595.069,301.461 L590.163,298.732 L582.575,287.312 L578.012,268.578 L566.177,261.394 L539.121,250.527 L505.956,253.668 L472.17,260.075 L449.551,266.622 L428.571,271.633 L433.874,277.756 L439.702,280.399 L446.267,284.888 L447.046,293.119 z" fill-opacity="0" stroke="#000000" stroke-width="1"/>
    </g>
  </g>
  <g id="Armenia">
    <g>
      <path d="M568.617,478.005 L552.213,485.462 L537.299,501.867 L543.265,513.797 L553.704,518.271 L562.652,519.763 L577.565,521.254 L589.496,527.219 L598.444,533.185 L610.375,524.237 L617.61,521.275 L622.724,515.692 L624.247,509.602 L626.708,499.451 L633.382,493.868 L638.965,485.748 L639.472,474.582 L629.322,471.537 L621.201,472.045 L613.081,473.06 L600.9,474.075 L596.333,479.658 L592.272,483.21 L585.167,479.658 L568.617,478.005 z" fill="#DDDDDD"/>
      <path d="M568.617,478.005 L552.213,485.462 L537.299,501.867 L543.265,513.797 L553.704,518.271 L562.652,519.763 L577.565,521.254 L589.496,527.219 L598.444,533.185 L610.375,524.237 L617.61,521.275 L622.724,515.692 L624.247,509.602 L626.708,499.451 L633.382,493.868 L638.965,485.748 L639.472,474.582 L629.322,471.537 L621.201,472.045 L613.081,473.06 L600.9,474.075 L596.333,479.658 L592.272,483.21 L585.167,479.658 L568.617,478.005 z" fill-opacity="0" stroke="#000000" stroke-width="1"/>
    </g>
  </g>
  <g id="Yemen">
    <g>
      <path d="M246.291,444.382 L246.291,448.968 L246.291,454.952 L244.625,460.672 L243.676,463.835 L243.359,468.264 L243.992,473.641 L246.291,478.07 L249.37,484.712 L249.37,491.671 L249.37,501.477 L250.951,505.906 L254.747,512.549 L257.278,516.977 L265.502,520.773 L268.349,525.518 L268.982,531.211 L269.93,540.068 L271.428,545.13 L276.573,548.293 L286.379,553.987 L291.44,554.303 L306.826,554.303 L316.113,554.303 L325.919,553.987 L332.246,553.354 L339.205,553.354 L349.011,554.619 L355.97,554.619 L364.817,554.619 L372.419,552.405 L378.429,551.772 L380.959,552.089 L387.602,552.089 L393.612,553.354 L401.52,553.038 L405.632,549.558 L411.326,544.497 L415.755,539.752 L420.816,536.905 L427.573,532.477 L431.254,523.303 L433.469,513.814 L433.785,504.008 L435.683,489.457 L436.948,479.018 L445.173,468.58 L441.377,459.09 L435.05,454.952 L433.785,457.192 L434.101,462.886 L432.52,466.366 L429.04,469.529 L421.765,477.437 L421.765,484.396 L415.438,484.712 L413.857,479.335 L414.173,470.794 L416.704,461.621 L411.642,458.458 L406.898,463.835 L403.418,468.264 L402.469,478.702 L393.928,478.702 L388.235,472.376 L380.643,465.1 L375.582,458.774 L375.266,452.447 L374.317,441.06 L368.939,436.315 L366.092,436.315 L364.355,436.515 L364.817,438.213 L364.817,440.427 L361.941,440.341 L358.832,440.03 L355.102,436.61 L355.102,428.216 L344.573,427.905 L344.573,431.887 L345.848,440.744 L344.573,445.172 L342.355,445.937 L339.557,446.869 L336.358,448.968 L334.46,446.437 L325.878,446.869 L324.338,450.866 L317.795,449.667 L309.09,449.667 L306.826,450.55 L303.144,450.55 L296.966,451.533 L294.081,451.093 L288.154,450.284 L285.774,449.356 L280.073,450.284 L278.187,450.823 L276.136,450.6 L271.428,452.465 L268.759,454.952 L266.873,454.952 L265.257,456.75 L262.563,456.211 L259.6,454.952 L257.175,450.284 L252.327,446.783 L246.291,444.382 z" fill="#DDDDDD"/>
      <path d="M246.291,444.382 L246.291,448.968 L246.291,454.952 L244.625,460.672 L243.676,463.835 L243.359,468.264 L243.992,473.641 L246.291,478.07 L249.37,484.712 L249.37,491.671 L249.37,501.477 L250.951,505.906 L254.747,512.549 L257.278,516.977 L265.502,520.773 L268.349,525.518 L268.982,531.211 L269.93,540.068 L271.428,545.13 L276.573,548.293 L286.379,553.987 L291.44,554.303 L306.826,554.303 L316.113,554.303 L325.919,553.987 L332.246,553.354 L339.205,553.354 L349.011,554.619 L355.97,554.619 L364.817,554.619 L372.419,552.405 L378.429,551.772 L380.959,552.089 L387.602,552.089 L393.612,553.354 L401.52,553.038 L405.632,549.558 L411.326,544.497 L415.755,539.752 L420.816,536.905 L427.573,532.477 L431.254,523.303 L433.469,513.814 L433.785,504.008 L435.683,489.457 L436.948,479.018 L445.173,468.58 L441.377,459.09 L435.05,454.952 L433.785,457.192 L434.101,462.886 L432.52,466.366 L429.04,469.529 L421.765,477.437 L421.765,484.396 L415.438,484.712 L413.857,479.335 L414.173,470.794 L416.704,461.621 L411.642,458.458 L406.898,463.835 L403.418,468.264 L402.469,478.702 L393.928,478.702 L388.235,472.376 L380.643,465.1 L375.582,458.774 L375.266,452.447 L374.317,441.06 L368.939,436.315 L366.092,436.315 L364.355,436.515 L364.817,438.213 L364.817,440.427 L361.941,440.341 L358.832,440.03 L355.102,436.61 L355.102,428.216 L344.573,427.905 L344.573,431.887 L345.848,440.744 L344.573,445.172 L342.355,445.937 L339.557,446.869 L336.358,448.968 L334.46,446.437 L325.878,446.869 L324.338,450.866 L317.795,449.667 L309.09,449.667 L306.826,450.55 L303.144,450.55 L296.966,451.533 L294.081,451.093 L288.154,450.284 L285.774,449.356 L280.073,450.284 L278.187,450.823 L276.136,450.6 L271.428,452.465 L268.759,454.952 L266.873,454.952 L265.257,456.75 L262.563,456.211 L259.6,454.952 L257.175,450.284 L252.327,446.783 L246.291,444.382 z" fill-opacity="0" stroke="#000000" stroke-width="1"/>
    </g>
  </g>
  <g id="Niger">
    <path d="M297.809,120.832 L303.729,118.859 L309.65,116.392 L316.064,119.352 L321.491,113.925 L321.491,110.965 L326.918,107.511 L329.878,99.124 L334.318,103.564 L351.093,98.137 L357.014,94.683 L366.388,94.683 L373.788,97.644 L380.696,95.177 L384.643,95.67 L391.057,92.71 L398.951,90.736 L404.378,88.763 L411.778,88.763 L417.699,86.789 L421.152,86.789 L427.073,87.776 L427.073,91.723 L424.606,98.63 L421.152,99.617 L418.192,104.058 L412.272,105.044 L406.845,108.991 L404.378,105.538 L405.858,101.097 L400.924,105.044 L400.431,108.005 L396.977,109.485 L391.057,103.564 L387.603,103.071 L383.163,106.031 L387.11,107.018 L387.11,111.458 L386.123,116.392 L389.083,120.339 L389.576,124.779 L385.136,127.74 L381.682,128.233 L376.255,134.153 L370.335,138.594 L362.934,143.034 L359.481,145.008 L348.626,145.008 L339.746,145.008 L325.438,142.047 L317.544,142.541 L310.636,137.607 L303.236,132.18 L297.809,120.832 z" fill="#7D7D7D"/>
  </g>
  <g id="Chad">
    <path d="M196.829,137.426 L192.882,136.439 L190.415,131.505 L189.428,123.611 L197.322,121.638 L204.23,117.691 L208.177,109.797 L212.124,108.81 L216.564,108.317 L219.524,103.876 L225.445,105.85 L226.925,111.277 L231.365,115.717 L234.819,118.184 L236.792,121.145 L236.299,112.757 L230.872,109.304 L235.806,105.357 L242.219,104.37 L247.647,103.383 L257.021,100.916 L261.461,92.529 L269.848,88.088 L271.822,94.996 L271.822,99.436 L267.875,104.863 L269.355,110.29 L269.355,118.678 L274.782,129.532 L279.223,133.972 L278.729,140.386 L278.729,144.333 L282.676,150.254 L289.09,156.668 L293.037,163.575 L294.517,172.949 L297.971,178.869 L291.557,182.323 L286.13,180.35 L280.209,180.35 L279.223,172.456 L278.236,164.068 L268.368,162.095 L265.408,162.095 L257.021,155.681 L255.541,149.76 L244.686,148.28 L237.779,143.84 L231.859,142.36 L225.445,143.346 L217.057,136.933 L207.19,135.946 L196.829,137.426 z" fill="#999999"/>
  </g>
  <g id="Etiopia">
    <path d="M322.409,210.988 L317.945,222.238 L306.326,238.817 L313.83,243.914 L319.043,247.371 L326.726,248.853 L335.232,253.243 L342.091,254.615 L353.067,258.731 L356.634,265.316 L361.298,272.999 L361.298,276.84 L361.298,282.603 L360.749,288.639 L361.024,295.773 L361.847,300.986 L364.042,307.846 L367.609,309.492 L374.743,310.315 L377.635,304.982 L381.752,296.337 L388.339,288.516 L394.514,279.459 L399.454,262.58 L395.749,240.762 L395.749,230.882 L392.867,221.002 L381.75,219.432 L374.018,217.342 L363.57,216.716 L350.823,214.417 L340.792,213.163 L330.761,211.909 L322.409,210.988 z" fill="#999999"/>
  </g>
  <g id="Mali">
    <path d="M150.208,70.763 L150.208,70.763 L149.61,73.795 L150.49,75.848 L152.25,77.901 L153.717,79.954 L153.717,82.301 L154.01,86.789 L154.597,88.088 L156.357,90.221 L156.65,92.861 L157.237,96.087 L158.997,98.14 L160.463,99.02 L161.05,101.367 L161.93,106.06 L164.276,106.94 L166.33,108.608 L166.623,113.1 L168.383,113.98 L171.609,115.446 L174.249,117.206 L176.596,118.673 L178.356,121.019 L180.996,124.833 L184.809,126.886 L187.156,126.593 L189.428,123.611 L193.315,122.65 L197.322,121.638 L204.23,117.691 L208.177,109.797 L216.564,108.317 L219.524,103.876 L221.474,105.18 L220.962,98.639 L216.857,90.43 L210.993,70.763 L207.902,56.627 L211.501,54.729 L205.635,54.729 L202.115,57.662 L195.369,59.715 L192.435,62.355 L185.102,63.822 L181.289,65.875 L177.769,66.168 L174.407,68.26 L170.436,66.168 L166.062,65.757 L159.387,65.757 L150.208,70.763 z" fill="#515151"/>
  </g>
  <g id="Nigeria">
    <g>
      <path d="M94.626,137.503 L94.887,142.081 L95.838,147.149 L97.738,150.633 L99.322,153.8 L99.322,157.285 L99.005,161.402 L99.955,163.936 L100.905,168.054 L100.905,173.438 L102.172,177.239 L104.39,180.723 L107.874,186.424 L108.507,194.343 L109.141,200.044 L115.475,202.261 L118.643,205.429 L119.276,209.863 L119.593,213.347 L121.177,216.198 L126.244,218.098 L131.946,220.949 L139.231,223.799 L147.149,228.867 L150.11,234.885 L154.751,240.586 L158.552,244.07 L163.619,247.871 L166.787,245.654 L168.054,239.953 L169.321,232.985 L171.538,228.234 L174.072,219.048 L176.606,211.447 L176.922,203.845 L177.239,195.293 L177.872,185.474 L177.872,177.872 L175.339,172.171 L173.588,164.051 L159.633,165.412 L153.167,164.051 L146.019,156.904 L133.426,157.584 L120.153,155.882 L115.388,147.714 L110.963,145.508 L103.816,145.508 L94.626,137.503 z" fill="#B8B8B8"/>
      <path d="M94.626,137.503 L94.887,142.081 L95.838,147.149 L97.738,150.633 L99.322,153.8 L99.322,157.285 L99.005,161.402 L99.955,163.936 L100.905,168.054 L100.905,173.438 L102.172,177.239 L104.39,180.723 L107.874,186.424 L108.507,194.343 L109.141,200.044 L115.475,202.261 L118.643,205.429 L119.276,209.863 L119.593,213.347 L121.177,216.198 L126.244,218.098 L131.946,220.949 L139.231,223.799 L147.149,228.867 L150.11,234.885 L154.751,240.586 L158.552,244.07 L163.619,247.871 L166.787,245.654 L168.054,239.953 L169.321,232.985 L171.538,228.234 L174.072,219.048 L176.606,211.447 L176.922,203.845 L177.239,195.293 L177.872,185.474 L177.872,177.872 L175.339,172.171 L173.588,164.051 L159.633,165.412 L153.167,164.051 L146.019,156.904 L133.426,157.584 L120.153,155.882 L115.388,147.714 L110.963,145.508 L103.816,145.508 L94.626,137.503 z" fill-opacity="0" stroke="#000000" stroke-width="1"/>
    </g>
  </g>
  <g id="Cameroon">
    <g>
      <path d="M364.542,308.346 L361.329,299.222 L361.249,289.139 L361.798,273.499 L353.567,259.231 L348.692,257.864 L342.591,255.115 L335.732,253.743 L329.162,249.823 L319.543,247.871 L306.826,239.317 L306.826,254.105 L301.972,264.507 L300.965,276.586 L294.697,288.117 L290.102,296.925 L285.866,303.094 L273.786,319.536 L271.428,333.964 L275.55,337.9 L281.294,337.9 L296.229,337.9 L298.471,340.58 L306.826,340.58 L313.461,341.346 L318.823,344.41 L320.737,351.077 L322.909,354.749 L337.97,361.259 L342.565,365.855 L347.543,368.918 L354.053,374.663 L360.181,378.109 L364.393,377.726 L364.393,370.833 L358.649,365.472 L354.819,365.089 L348.692,363.174 L344.573,359.728 L347.543,358.579 L352.522,359.345 L359.415,359.728 L362.861,364.323 L366.691,367.387 L370.137,360.877 L365.542,353.984 L361.712,351.077 L356.734,348.239 L353.288,345.176 L349.841,341.346 L350.607,337.517 L357.883,335.602 L360.181,336.751 L367.074,336.751 L369.754,336.368 L372.435,332.922 L377.03,328.709 L382.774,326.794 L382.391,321.433 L381.243,317.604 L378.179,314.157 L375.243,310.815 L364.542,308.346 z" fill="#B8B8B8"/>
      <path d="M364.542,308.346 L361.329,299.222 L361.249,289.139 L361.798,273.499 L353.567,259.231 L348.692,257.864 L342.591,255.115 L335.732,253.743 L329.162,249.823 L319.543,247.871 L306.826,239.317 L306.826,254.105 L301.972,264.507 L300.965,276.586 L294.697,288.117 L290.102,296.925 L285.866,303.094 L273.786,319.536 L271.428,333.964 L275.55,337.9 L281.294,337.9 L296.229,337.9 L298.471,340.58 L306.826,340.58 L313.461,341.346 L318.823,344.41 L320.737,351.077 L322.909,354.749 L337.97,361.259 L342.565,365.855 L347.543,368.918 L354.053,374.663 L360.181,378.109 L364.393,377.726 L364.393,370.833 L358.649,365.472 L354.819,365.089 L348.692,363.174 L344.573,359.728 L347.543,358.579 L352.522,359.345 L359.415,359.728 L362.861,364.323 L366.691,367.387 L370.137,360.877 L365.542,353.984 L361.712,351.077 L356.734,348.239 L353.288,345.176 L349.841,341.346 L350.607,337.517 L357.883,335.602 L360.181,336.751 L367.074,336.751 L369.754,336.368 L372.435,332.922 L377.03,328.709 L382.774,326.794 L382.391,321.433 L381.243,317.604 L378.179,314.157 L375.243,310.815 L364.542,308.346 z" fill-opacity="0" stroke="#000000" stroke-width="1"/>
    </g>
  </g>
  <g id="Sudan">
    <g>
      <path d="M173.588,164.051 L175.339,172.171 L177.872,177.872 L184.045,180.869 L189.928,182.823 L192.282,189.107 L197.774,192.245 L201.305,195.383 L208.402,198.521 L218.957,200.09 L230.725,205.19 L235.824,211.074 L237.394,222.057 L244.062,230.295 L261.322,235.002 L284.466,235.395 L306.826,239.317 L312.317,232.256 L317.025,225.588 L322.909,212.643 L309.179,202.836 L295.45,191.46 L293.096,185.184 L292.057,182.823 L288.389,180.084 L280.709,180.85 L278.736,164.568 L268.868,162.595 L257.521,156.181 L256.041,150.26 L245.186,148.78 L238.279,144.34 L229.156,142.034 L225.945,143.846 L217.557,137.433 L202.481,137.503 L197.329,137.926 L193.382,136.939 L189.928,124.111 L187.967,129.481 L188.223,132.058 L188.223,136.823 L185.221,137.503 L181.299,142.819 L181.075,145.508 L180.122,149.487 L179.033,153.5 L177.872,159.294 L173.588,164.051 z" fill="#B8B8B8"/>
      <path d="M173.588,164.051 L175.339,172.171 L177.872,177.872 L184.045,180.869 L189.928,182.823 L192.282,189.107 L197.774,192.245 L201.305,195.383 L208.402,198.521 L218.957,200.09 L230.725,205.19 L235.824,211.074 L237.394,222.057 L244.062,230.295 L261.322,235.002 L284.466,235.395 L306.826,239.317 L312.317,232.256 L317.025,225.588 L322.909,212.643 L309.179,202.836 L295.45,191.46 L293.096,185.184 L292.057,182.823 L288.389,180.084 L280.709,180.85 L278.736,164.568 L268.868,162.595 L257.521,156.181 L256.041,150.26 L245.186,148.78 L238.279,144.34 L229.156,142.034 L225.945,143.846 L217.557,137.433 L202.481,137.503 L197.329,137.926 L193.382,136.939 L189.928,124.111 L187.967,129.481 L188.223,132.058 L188.223,136.823 L185.221,137.503 L181.299,142.819 L181.075,145.508 L180.122,149.487 L179.033,153.5 L177.872,159.294 L173.588,164.051 z" fill-opacity="0" stroke="#000000" stroke-width="1"/>
    </g>
  </g>
  <g id="Somalia">
    <g>
      <path d="M166.787,245.654 L170.103,230.952 L171.538,228.234 L176.606,211.447 L177.872,177.872 L189.928,182.823 L191.914,187.331 L197.774,192.245 L201.305,195.383 L206.342,197.733 L218.957,200.09 L230.725,205.19 L235.824,211.074 L237.394,222.057 L244.062,230.295 L261.322,235.002 L280.497,234.643 L306.826,239.317 L306.826,242.696 L306.826,247.871 L306.826,251.085 L306.826,254.105 L304.992,258.467 L301.972,264.507 L300.965,272.224 L300.965,276.586 L298.471,279.271 L296.268,284.639 L294.59,290.008 L291.906,294.37 L288.55,298.061 L285.866,303.094 L281.168,309.47 L280.162,310.815 L276.471,315.509 L273.786,319.536 L272.78,325.911 L271.428,333.964 L267.747,336.313 L263.049,338.997 L257.345,344.366 L250.969,349.735 L247.614,350.741 L241.574,351.077 L235.199,351.077 L234.192,344.366 L234.192,340.004 L231.172,335.306 L223.455,325.911 L208.402,320.207 L201.309,307.792 L196.276,292.692 L189.928,282.962 L183.861,277.593 L177.872,264.842 L173.588,260.145 L170.103,254.776 L166.787,245.654 z" fill="#929292"/>
      <path d="M166.787,245.654 L170.103,230.952 L171.538,228.234 L176.606,211.447 L177.872,177.872 L189.928,182.823 L191.914,187.331 L197.774,192.245 L201.305,195.383 L206.342,197.733 L218.957,200.09 L230.725,205.19 L235.824,211.074 L237.394,222.057 L244.062,230.295 L261.322,235.002 L280.497,234.643 L306.826,239.317 L306.826,242.696 L306.826,247.871 L306.826,251.085 L306.826,254.105 L304.992,258.467 L301.972,264.507 L300.965,272.224 L300.965,276.586 L298.471,279.271 L296.268,284.639 L294.59,290.008 L291.906,294.37 L288.55,298.061 L285.866,303.094 L281.168,309.47 L280.162,310.815 L276.471,315.509 L273.786,319.536 L272.78,325.911 L271.428,333.964 L267.747,336.313 L263.049,338.997 L257.345,344.366 L250.969,349.735 L247.614,350.741 L241.574,351.077 L235.199,351.077 L234.192,344.366 L234.192,340.004 L231.172,335.306 L223.455,325.911 L208.402,320.207 L201.309,307.792 L196.276,292.692 L189.928,282.962 L183.861,277.593 L177.872,264.842 L173.588,260.145 L170.103,254.776 L166.787,245.654 z" fill-opacity="0" stroke="#000000" stroke-width="1"/>
    </g>
  </g>
  <g id="Kenya">
    <g>
      <path d="M166.787,245.654 L163.619,247.871 L162.816,251.179 L161.507,257.199 L160.46,261.125 L158.628,266.622 L154.44,270.548 L153.131,273.689 L150.11,278.4 L148.943,282.588 L150.11,285.99 L150.11,289.393 L148.681,301.957 L146.587,307.192 L144.755,312.688 L143.97,316.353 L143.577,319.506 L144.395,322.507 L145.76,327.692 L145.487,329.875 L144.668,332.33 L143.577,335.605 L143.577,339.152 L144.122,342.426 L143.85,345.973 L143.85,348.156 L144.941,351.077 L146.032,352.795 L146.851,357.434 L147.124,360.435 L147.124,363.71 L148.215,365.347 L150.11,367.257 L150.11,371.35 L150.11,374.078 L150.11,378.109 L151.49,380.354 L152.581,382.537 L153.4,384.993 L154.218,387.721 L155.431,390.17 L156.553,392.189 L158.795,395.328 L159.916,399.365 L160.365,402.504 L161.71,405.196 L164.626,409.008 L166.787,411.026 L170.456,413.493 L173.588,415.063 L175.166,420.669 L177.872,425.379 L179.651,431.434 L180.324,437.713 L180.1,440.404 L180.324,444.665 L182.118,446.235 L184.136,443.319 L184.36,438.386 L184.809,432.106 L183.912,423.809 L181.221,414.614 L183.912,413.269 L185.93,414.839 L186.154,417.754 L187.5,423.809 L187.051,427.397 L187.051,433.003 L187.051,438.161 L188.397,444.889 L188.173,449.598 L189.928,452.514 L193.106,454.952 L195.349,454.952 L198.489,451.617 L199.161,447.58 L198.264,439.507 L199.61,435.246 L202.974,433.9 L203.422,435.695 L206.786,441.749 L207.459,446.459 L212.841,452.962 L215.981,453.187 L221.974,453.187 L231.903,451.841 L237.509,449.374 L244.91,445.338 L246.291,444.382 L243.116,441.525 L240.2,438.161 L237.061,430.537 L235.042,426.949 L233.921,422.015 L231.903,417.754 L230.333,411.699 L227.642,404.747 L225.809,398.682 L227.638,386.246 L225.809,370.66 L225.809,364.173 L227.949,355.779 L235.199,351.077 L234.192,344.366 L234.594,339.04 L232.351,337.694 L228.315,331.864 L225.809,328.051 L221.974,326.257 L218.447,324.687 L214.187,322.445 L210.15,320.875 L208.402,320.207 L206.562,316.838 L204.768,313.026 L204.095,310.815 L202.077,308.765 L200.955,304.728 L197.592,295.982 L196.47,293.964 L194.9,290.376 L191.761,287.685 L189.928,282.962 L186.827,280.284 L183.861,277.593 L182.342,274.902 L180.548,269.296 L178.978,265.035 L175.39,263.017 L172.026,257.859 L169.559,252.701 L166.787,245.654 z" fill="#929292"/>
      <path d="M166.787,245.654 L163.619,247.871 L162.816,251.179 L161.507,257.199 L160.46,261.125 L158.628,266.622 L154.44,270.548 L153.131,273.689 L150.11,278.4 L148.943,282.588 L150.11,285.99 L150.11,289.393 L148.681,301.957 L146.587,307.192 L144.755,312.688 L143.97,316.353 L143.577,319.506 L144.395,322.507 L145.76,327.692 L145.487,329.875 L144.668,332.33 L143.577,335.605 L143.577,339.152 L144.122,342.426 L143.85,345.973 L143.85,348.156 L144.941,351.077 L146.032,352.795 L146.851,357.434 L147.124,360.435 L147.124,363.71 L148.215,365.347 L150.11,367.257 L150.11,371.35 L150.11,374.078 L150.11,378.109 L151.49,380.354 L152.581,382.537 L153.4,384.993 L154.218,387.721 L155.431,390.17 L156.553,392.189 L158.795,395.328 L159.916,399.365 L160.365,402.504 L161.71,405.196 L164.626,409.008 L166.787,411.026 L170.456,413.493 L173.588,415.063 L175.166,420.669 L177.872,425.379 L179.651,431.434 L180.324,437.713 L180.1,440.404 L180.324,444.665 L182.118,446.235 L184.136,443.319 L184.36,438.386 L184.809,432.106 L183.912,423.809 L181.221,414.614 L183.912,413.269 L185.93,414.839 L186.154,417.754 L187.5,423.809 L187.051,427.397 L187.051,433.003 L187.051,438.161 L188.397,444.889 L188.173,449.598 L189.928,452.514 L193.106,454.952 L195.349,454.952 L198.489,451.617 L199.161,447.58 L198.264,439.507 L199.61,435.246 L202.974,433.9 L203.422,435.695 L206.786,441.749 L207.459,446.459 L212.841,452.962 L215.981,453.187 L221.974,453.187 L231.903,451.841 L237.509,449.374 L244.91,445.338 L246.291,444.382 L243.116,441.525 L240.2,438.161 L237.061,430.537 L235.042,426.949 L233.921,422.015 L231.903,417.754 L230.333,411.699 L227.642,404.747 L225.809,398.682 L227.638,386.246 L225.809,370.66 L225.809,364.173 L227.949,355.779 L235.199,351.077 L234.192,344.366 L234.594,339.04 L232.351,337.694 L228.315,331.864 L225.809,328.051 L221.974,326.257 L218.447,324.687 L214.187,322.445 L210.15,320.875 L208.402,320.207 L206.562,316.838 L204.768,313.026 L204.095,310.815 L202.077,308.765 L200.955,304.728 L197.592,295.982 L196.47,293.964 L194.9,290.376 L191.761,287.685 L189.928,282.962 L186.827,280.284 L183.861,277.593 L182.342,274.902 L180.548,269.296 L178.978,265.035 L175.39,263.017 L172.026,257.859 L169.559,252.701 L166.787,245.654 z" fill-opacity="0" stroke="#000000" stroke-width="1"/>
    </g>
  </g>
  <g id="Oman">
    <g>
      <path d="M407.512,351.077 L416.443,351.077 L430.574,351.077 L435.661,355.896 L440.658,358.343 L444.704,359.566 L453.748,359.566 L462.792,358.751 L473.531,354.673 L484.836,351.077 L499.532,351.077 L517.054,351.077 L521.576,351.077 L528.358,353.857 L552.098,357.527 L563.968,359.974 L570.185,364.46 L574.142,368.988 L576.968,371.393 L580.924,373.84 L586.011,376.694 L592.229,381.18 L597.881,384.035 L603.534,388.113 L609.751,389.336 L615.969,390.152 L618.795,395.454 L615.403,401.983 L610.316,401.983 L596.751,397.085 L587.707,394.638 L582.62,398.716 L586.011,401.983 L592.794,401.983 L599.577,404.425 L610.316,405.649 L618.229,405.649 L623.882,405.649 L626.708,407.688 L626.708,410.95 L620.49,415.844 L610.316,416.252 L604.099,417.067 L597.316,419.904 L592.229,426.855 L587.707,429.71 L575.837,433.788 L565.098,437.458 L556.62,440.313 L547.576,441.128 L538.532,440.313 L535.706,428.078 L525.532,426.447 L515.358,419.904 L510.271,419.904 L494.445,413.805 L479.183,405.241 L475.792,405.241 L462.792,401.983 L446.4,400.347 L436.226,396.677 L427.182,386.89 L420.965,384.035 L413.052,368.988 L407.512,364.46 L402.878,362.829 L399.131,359.566 L394.399,356.712 L389.877,351.077 L407.512,351.077 z" fill="#929292"/>
      <path d="M407.512,351.077 L416.443,351.077 L430.574,351.077 L435.661,355.896 L440.658,358.343 L444.704,359.566 L453.748,359.566 L462.792,358.751 L473.531,354.673 L484.836,351.077 L499.532,351.077 L517.054,351.077 L521.576,351.077 L528.358,353.857 L552.098,357.527 L563.968,359.974 L570.185,364.46 L574.142,368.988 L576.968,371.393 L580.924,373.84 L586.011,376.694 L592.229,381.18 L597.881,384.035 L603.534,388.113 L609.751,389.336 L615.969,390.152 L618.795,395.454 L615.403,401.983 L610.316,401.983 L596.751,397.085 L587.707,394.638 L582.62,398.716 L586.011,401.983 L592.794,401.983 L599.577,404.425 L610.316,405.649 L618.229,405.649 L623.882,405.649 L626.708,407.688 L626.708,410.95 L620.49,415.844 L610.316,416.252 L604.099,417.067 L597.316,419.904 L592.229,426.855 L587.707,429.71 L575.837,433.788 L565.098,437.458 L556.62,440.313 L547.576,441.128 L538.532,440.313 L535.706,428.078 L525.532,426.447 L515.358,419.904 L510.271,419.904 L494.445,413.805 L479.183,405.241 L475.792,405.241 L462.792,401.983 L446.4,400.347 L436.226,396.677 L427.182,386.89 L420.965,384.035 L413.052,368.988 L407.512,364.46 L402.878,362.829 L399.131,359.566 L394.399,356.712 L389.877,351.077 L407.512,351.077 z" fill-opacity="0" stroke="#000000" stroke-width="1"/>
    </g>
  </g>
  <g id="Azerbajian">
    <g>
      <path d="M716.896,23.563 L717.268,16.868 L719.5,12.405 L719.5,7.941 L726.939,9.801 L732.146,9.429 L736.238,11.289 L740.701,11.289 L743.676,11.661 L746.28,11.661 L750,9.429 L757.81,10.173 L763.018,11.289 L769.341,5.709 L773.432,8.313 L776.036,12.033 L781.243,8.685 L789.426,9.057 L791.657,10.545 L796.493,8.685 L801.328,11.289 L807.279,13.52 L813.602,12.033 L817.322,14.636 L818.066,18.728 L822.529,18.728 L829.224,19.843 L831.084,16.124 L836.663,15.008 L842.242,14.636 L843.73,21.331 L851.169,20.587 L861.211,17.24 L874.229,11.289 L874.601,7.941 L881.668,6.081 L885.016,8.685 L881.296,12.033 L883.9,13.892 L887.619,5.338 L891.711,3.85 L892.368,10.341 L890.237,14.129 L890.237,17.444 L894.262,11.288 L896.392,11.762 L895.209,15.55 L894.498,18.864 L896.629,16.26 L900.417,13.656 L901.838,16.26 L902.074,19.101 L899.47,21.705 L897.813,24.309 L898.05,27.387 L896.392,31.175 L894.262,34.489 L891.184,36.147 L887.869,36.147 L884.555,38.041 L881.714,40.408 L882.898,43.012 L886.449,43.486 L886.449,46.09 L885.502,47.511 L881.24,49.168 L879.346,50.115 L876.032,52.246 L874.611,54.613 L873.901,57.217 L871.77,57.928 L865.852,60.532 L861.353,66.451 L861.827,68.581 L858.276,67.634 L855.908,65.267 L853.067,65.74 L851.647,66.687 L849.279,66.451 L844.781,67.634 L839.809,67.634 L831.523,67.161 L825.841,64.557 L823.473,65.504 L817.792,65.977 L807.848,68.345 L805.481,68.581 L803.113,67.634 L801.456,66.687 L798.615,63.846 L795.3,63.846 L791.749,61.479 L790.329,63.373 L790.092,67.161 L789.618,69.292 L786.304,70.002 L784.41,70.949 L781.332,72.133 L779.201,73.316 L774.466,74.263 L772.336,70.949 L770.915,70.475 L768.548,70.002 L763.813,69.528 L759.314,68.108 L754.343,66.924 L755.053,61.716 L754.343,58.875 L751.028,58.164 L747.714,57.217 L743.689,54.613 L739.664,53.666 L736.35,48.458 L732.088,46.564 L728.537,44.196 L725.696,40.882 L721.671,35.2 L719.304,31.412 L717.883,26.44 L716.896,23.563 z" fill="#929292"/>
      <path d="M716.896,23.563 L717.268,16.868 L719.5,12.405 L719.5,7.941 L726.939,9.801 L732.146,9.429 L736.238,11.289 L740.701,11.289 L743.676,11.661 L746.28,11.661 L750,9.429 L757.81,10.173 L763.018,11.289 L769.341,5.709 L773.432,8.313 L776.036,12.033 L781.243,8.685 L789.426,9.057 L791.657,10.545 L796.493,8.685 L801.328,11.289 L807.279,13.52 L813.602,12.033 L817.322,14.636 L818.066,18.728 L822.529,18.728 L829.224,19.843 L831.084,16.124 L836.663,15.008 L842.242,14.636 L843.73,21.331 L851.169,20.587 L861.211,17.24 L874.229,11.289 L874.601,7.941 L881.668,6.081 L885.016,8.685 L881.296,12.033 L883.9,13.892 L887.619,5.338 L891.711,3.85 L892.368,10.341 L890.237,14.129 L890.237,17.444 L894.262,11.288 L896.392,11.762 L895.209,15.55 L894.498,18.864 L896.629,16.26 L900.417,13.656 L901.838,16.26 L902.074,19.101 L899.47,21.705 L897.813,24.309 L898.05,27.387 L896.392,31.175 L894.262,34.489 L891.184,36.147 L887.869,36.147 L884.555,38.041 L881.714,40.408 L882.898,43.012 L886.449,43.486 L886.449,46.09 L885.502,47.511 L881.24,49.168 L879.346,50.115 L876.032,52.246 L874.611,54.613 L873.901,57.217 L871.77,57.928 L865.852,60.532 L861.353,66.451 L861.827,68.581 L858.276,67.634 L855.908,65.267 L853.067,65.74 L851.647,66.687 L849.279,66.451 L844.781,67.634 L839.809,67.634 L831.523,67.161 L825.841,64.557 L823.473,65.504 L817.792,65.977 L807.848,68.345 L805.481,68.581 L803.113,67.634 L801.456,66.687 L798.615,63.846 L795.3,63.846 L791.749,61.479 L790.329,63.373 L790.092,67.161 L789.618,69.292 L786.304,70.002 L784.41,70.949 L781.332,72.133 L779.201,73.316 L774.466,74.263 L772.336,70.949 L770.915,70.475 L768.548,70.002 L763.813,69.528 L759.314,68.108 L754.343,66.924 L755.053,61.716 L754.343,58.875 L751.028,58.164 L747.714,57.217 L743.689,54.613 L739.664,53.666 L736.35,48.458 L732.088,46.564 L728.537,44.196 L725.696,40.882 L721.671,35.2 L719.304,31.412 L717.883,26.44 L716.896,23.563 z" fill-opacity="0" stroke="#000000" stroke-width="1"/>
    </g>
  </g>
  <g id="Turkmenistan">
    <g>
      <path d="M639.441,98.682 L642.482,96.187 L645.014,93.568 L648.497,90.372 L649.88,86.931 L652.485,86.22 L654.507,83.476 L658.51,82.567 L660.085,79.443 L660.257,75.436 L660.107,70.539 L663.58,65.181 L669.408,60.13 L673.458,55.723 L673.563,50.889 L674.873,45.541 L676.693,40.317 L679.62,40.494 L681.964,38.639 L684.132,39.71 L685.919,41.228 L687.842,44.399 L689.567,46.172 L693.777,48.824 L696.391,50.274 L701.62,53.176 L704.181,57.043 L706.983,57.73 L710.039,58.479 L715.699,58.516 L722.004,60.331 L725.757,60.441 L730.014,59.595 L734.079,58.431 L738.7,53.894 L740.55,55.158 L745.27,57.934 L750.618,59.245 L754.625,59.417 L756.605,61.252 L759.152,61.876 L756.688,65.322 L754.333,65.015 L750.211,67.514 L750.923,70.119 L748.573,70.893 L744.508,72.056 L743.629,74.541 L741.919,76.011 L740.391,75.637 L739.008,79.077 L738.508,81.115 L735.592,83.1 L732.993,84.893 L728.044,87.459 L719.837,86.798 L716.334,85.669 L711.235,83.34 L708.252,84.498 L706.022,83.682 L701.692,82.621 L698.636,81.872 L693.038,81.58 L687.753,80.014 L687.128,82.561 L685.106,85.305 L683.67,91.163 L682.994,96.127 L682.941,98.544 L683.663,103.31 L684.822,106.294 L687.201,112.007 L689.768,116.955 L694.814,121.702 L699.808,128.865 L706.627,131.886 L711.174,138.67 L709.988,143.509 L711.588,145.791 L709.816,147.516 L709.956,150.25 L707.918,149.751 L701.743,148.508 L699.451,147.946 L696.016,147.644 L693.604,148.673 L689.404,148.183 L684.185,147.444 L683.334,142.106 L679.581,141.996 L672.772,141.137 L665.786,143.205 L662.548,144.301 L657.651,144.451 L652.937,142.756 L647.392,140.047 L643.499,137.203 L640.77,138.424 L636.893,138.823 L632.678,135.091 L628.708,129.258 L629.072,125.568 L629.999,119.585 L632.001,112.517 L630.91,110.359 L632.677,107.553 L634.705,105.89 L637.112,103.78 L635.818,99.144 L639.441,98.682 z" fill="#929292"/>
      <path d="M639.441,98.682 L642.482,96.187 L645.014,93.568 L648.497,90.372 L649.88,86.931 L652.485,86.22 L654.507,83.476 L658.51,82.567 L660.085,79.443 L660.257,75.436 L660.107,70.539 L663.58,65.181 L669.408,60.13 L673.458,55.723 L673.563,50.889 L674.873,45.541 L676.693,40.317 L679.62,40.494 L681.964,38.639 L684.132,39.71 L685.919,41.228 L687.842,44.399 L689.567,46.172 L693.777,48.824 L696.391,50.274 L701.62,53.176 L704.181,57.043 L706.983,57.73 L710.039,58.479 L715.699,58.516 L722.004,60.331 L725.757,60.441 L730.014,59.595 L734.079,58.431 L738.7,53.894 L740.55,55.158 L745.27,57.934 L750.618,59.245 L754.625,59.417 L756.605,61.252 L759.152,61.876 L756.688,65.322 L754.333,65.015 L750.211,67.514 L750.923,70.119 L748.573,70.893 L744.508,72.056 L743.629,74.541 L741.919,76.011 L740.391,75.637 L739.008,79.077 L738.508,81.115 L735.592,83.1 L732.993,84.893 L728.044,87.459 L719.837,86.798 L716.334,85.669 L711.235,83.34 L708.252,84.498 L706.022,83.682 L701.692,82.621 L698.636,81.872 L693.038,81.58 L687.753,80.014 L687.128,82.561 L685.106,85.305 L683.67,91.163 L682.994,96.127 L682.941,98.544 L683.663,103.31 L684.822,106.294 L687.201,112.007 L689.768,116.955 L694.814,121.702 L699.808,128.865 L706.627,131.886 L711.174,138.67 L709.988,143.509 L711.588,145.791 L709.816,147.516 L709.956,150.25 L707.918,149.751 L701.743,148.508 L699.451,147.946 L696.016,147.644 L693.604,148.673 L689.404,148.183 L684.185,147.444 L683.334,142.106 L679.581,141.996 L672.772,141.137 L665.786,143.205 L662.548,144.301 L657.651,144.451 L652.937,142.756 L647.392,140.047 L643.499,137.203 L640.77,138.424 L636.893,138.823 L632.678,135.091 L628.708,129.258 L629.072,125.568 L629.999,119.585 L632.001,112.517 L630.91,110.359 L632.677,107.553 L634.705,105.89 L637.112,103.78 L635.818,99.144 L639.441,98.682 z" fill-opacity="0" stroke="#000000" stroke-width="1"/>
    </g>
  </g>
  <g id="Uzbekistan">
    <g>
      <path d="M708.393,152.059 L706.557,150.223 L703.411,150.223 L697.642,150.748 L695.544,145.503 L693.971,145.766 L689.513,149.175 L688.726,151.534 L688.726,153.37 L686.891,153.37 L685.318,156.254 L684.007,163.596 L682.171,167.267 L680.336,170.152 L676.14,168.579 L673.78,170.938 L671.42,173.823 L667.487,172.774 L665.389,175.921 L664.34,178.805 L664.34,182.738 L661.718,183.263 L660.669,185.36 L663.029,188.769 L661.194,190.605 L658.834,191.916 L659.096,195.062 L660.407,198.471 L663.816,203.453 L664.865,208.173 L664.078,215.253 L666.438,215.777 L669.847,216.564 L674.567,217.875 L677.713,219.711 L677.976,222.595 L677.976,230.462 L679.024,232.559 L682.695,233.608 L685.055,236.755 L688.726,243.572 L690.037,246.195 L696.331,248.555 L697.38,259.305 L707.868,255.11 L713.637,256.945 L720.455,253.012 L723.601,253.274 L735.139,243.31 L739.072,243.31 L740.907,238.328 L745.103,235.706 L747.725,230.462 L749.298,226.528 L751.921,219.973 L752.969,218.137 L756.64,213.155 L760.836,213.155 L761.623,208.435 L760.836,204.502 L757.952,201.88 L755.592,200.045 L752.445,198.733 L749.036,196.111 L746.676,191.129 L745.103,188.769 L743.267,186.147 L737.499,186.147 L730.943,182.214 L726.486,181.689 L724.65,178.543 L723.601,175.396 L725.174,170.414 L725.699,165.956 L727.797,162.548 L730.157,158.352 L726.223,158.352 L720.455,159.663 L718.881,160.712 L717.308,161.499 L712.326,161.499 L708.393,152.059 z" fill="#DDDDDD"/>
      <path d="M708.393,152.059 L706.557,150.223 L703.411,150.223 L697.642,150.748 L695.544,145.503 L693.971,145.766 L689.513,149.175 L688.726,151.534 L688.726,153.37 L686.891,153.37 L685.318,156.254 L684.007,163.596 L682.171,167.267 L680.336,170.152 L676.14,168.579 L673.78,170.938 L671.42,173.823 L667.487,172.774 L665.389,175.921 L664.34,178.805 L664.34,182.738 L661.718,183.263 L660.669,185.36 L663.029,188.769 L661.194,190.605 L658.834,191.916 L659.096,195.062 L660.407,198.471 L663.816,203.453 L664.865,208.173 L664.078,215.253 L666.438,215.777 L669.847,216.564 L674.567,217.875 L677.713,219.711 L677.976,222.595 L677.976,230.462 L679.024,232.559 L682.695,233.608 L685.055,236.755 L688.726,243.572 L690.037,246.195 L696.331,248.555 L697.38,259.305 L707.868,255.11 L713.637,256.945 L720.455,253.012 L723.601,253.274 L735.139,243.31 L739.072,243.31 L740.907,238.328 L745.103,235.706 L747.725,230.462 L749.298,226.528 L751.921,219.973 L752.969,218.137 L756.64,213.155 L760.836,213.155 L761.623,208.435 L760.836,204.502 L757.952,201.88 L755.592,200.045 L752.445,198.733 L749.036,196.111 L746.676,191.129 L745.103,188.769 L743.267,186.147 L737.499,186.147 L730.943,182.214 L726.486,181.689 L724.65,178.543 L723.601,175.396 L725.174,170.414 L725.699,165.956 L727.797,162.548 L730.157,158.352 L726.223,158.352 L720.455,159.663 L718.881,160.712 L717.308,161.499 L712.326,161.499 L708.393,152.059 z" fill-opacity="0" stroke="#000000" stroke-width="1"/>
    </g>
  </g>
  <g id="Amman">
    <g>
      <path d="M711.85,353.954 L716.896,351.077 L721.121,346.822 L736.112,338.667 L746.092,334.365 L750.819,330.916 L752.92,324.561 L755.719,323.273 L757.539,323.714 L761.78,327.022 L764.988,330.551 L770.281,337.167 L773.007,344.886 L775.212,351.502 L779.222,359.804 L779.623,371.13 L779.623,377.084 L777.818,380.392 L776.615,387.009 L775.012,393.404 L770.281,399.579 L768.596,402.226 L765.99,408.401 L764.787,410.473 L763.584,412.812 L763.584,417.002 L763.384,419.869 L762.381,423.398 L759.775,427.808 L758.372,429.352 L757.539,432.385 L757.539,435.307 L755.719,437.953 L754.162,441.261 L752.92,443.025 L748.749,444.128 L746.343,441.482 L741.131,435.307 L739.728,435.086 L735.317,432.385 L730.105,428.69 L721.284,424.5 L714.267,420.089 L707.451,414.576 L696.625,403.99 L696.224,400.903 L695.823,395.61 L697.026,392.522 L699.896,391.86 L702.038,391.86 L704.443,390.096 L702.84,387.891 L699.031,383.259 L697.427,376.202 L697.427,370.13 L699.896,368.483 L701.637,371.571 L702.439,372.894 L706.047,374.217 L701.866,365.364 L708.997,360.599 L711.85,353.954 z" fill="#DDDDDD"/>
      <path d="M711.85,353.954 L716.896,351.077 L721.121,346.822 L736.112,338.667 L746.092,334.365 L750.819,330.916 L752.92,324.561 L755.719,323.273 L757.539,323.714 L761.78,327.022 L764.988,330.551 L770.281,337.167 L773.007,344.886 L775.212,351.502 L779.222,359.804 L779.623,371.13 L779.623,377.084 L777.818,380.392 L776.615,387.009 L775.012,393.404 L770.281,399.579 L768.596,402.226 L765.99,408.401 L764.787,410.473 L763.584,412.812 L763.584,417.002 L763.384,419.869 L762.381,423.398 L759.775,427.808 L758.372,429.352 L757.539,432.385 L757.539,435.307 L755.719,437.953 L754.162,441.261 L752.92,443.025 L748.749,444.128 L746.343,441.482 L741.131,435.307 L739.728,435.086 L735.317,432.385 L730.105,428.69 L721.284,424.5 L714.267,420.089 L707.451,414.576 L696.625,403.99 L696.224,400.903 L695.823,395.61 L697.026,392.522 L699.896,391.86 L702.038,391.86 L704.443,390.096 L702.84,387.891 L699.031,383.259 L697.427,376.202 L697.427,370.13 L699.896,368.483 L701.637,371.571 L702.439,372.894 L706.047,374.217 L701.866,365.364 L708.997,360.599 L711.85,353.954 z" fill-opacity="0" stroke="#000000" stroke-width="1"/>
    </g>
  </g>
  <g id="Haifa">
    <g>
      <path d="M748.749,444.128 L748.549,446.521 L748.077,452.655 L748.077,458.789 L752.324,464.451 L759.152,468.226 L763.648,471.537 L767.422,478.134 L775.916,482.381 L781.578,485.212 L783.937,488.515 L786.296,492.761 L787.711,495.12 L791.486,495.12 L795.732,495.12 L801.866,496.064 L804.697,497.951 L807.057,499.839 L811.303,499.839 L820.74,500.782 L823.571,496.064 L828.761,491.817 L835.838,491.346 L843.388,490.402 L849.993,486.627 L857.071,484.268 L860.845,484.268 L866.036,484.268 L875,480.022 L877.831,474.831 L881.606,471.537 L888.212,471.537 L891.043,464.923 L888.684,458.789 L883.965,458.317 L868.867,449.352 L860.374,449.352 L857.071,449.824 L853.768,449.824 L849.993,449.824 L845.275,446.993 L839.141,438.972 L836.31,435.669 L830.648,435.669 L824.986,436.613 L821.211,441.128 L814.606,441.128 L809.888,438.5 L801.394,435.197 L796.676,435.197 L790.542,436.141 L779.623,437.557 L772.141,436.613 L766.951,436.613 L759.152,436.613 L755.719,437.953 L754.162,441.261 L748.749,444.128 z" fill="#DDDDDD"/>
      <path d="M748.749,444.128 L748.549,446.521 L748.077,452.655 L748.077,458.789 L752.324,464.451 L759.152,468.226 L763.648,471.537 L767.422,478.134 L775.916,482.381 L781.578,485.212 L783.937,488.515 L786.296,492.761 L787.711,495.12 L791.486,495.12 L795.732,495.12 L801.866,496.064 L804.697,497.951 L807.057,499.839 L811.303,499.839 L820.74,500.782 L823.571,496.064 L828.761,491.817 L835.838,491.346 L843.388,490.402 L849.993,486.627 L857.071,484.268 L860.845,484.268 L866.036,484.268 L875,480.022 L877.831,474.831 L881.606,471.537 L888.212,471.537 L891.043,464.923 L888.684,458.789 L883.965,458.317 L868.867,449.352 L860.374,449.352 L857.071,449.824 L853.768,449.824 L849.993,449.824 L845.275,446.993 L839.141,438.972 L836.31,435.669 L830.648,435.669 L824.986,436.613 L821.211,441.128 L814.606,441.128 L809.888,438.5 L801.394,435.197 L796.676,435.197 L790.542,436.141 L779.623,437.557 L772.141,436.613 L766.951,436.613 L759.152,436.613 L755.719,437.953 L754.162,441.261 L748.749,444.128 z" fill-opacity="0" stroke="#000000" stroke-width="1"/>
    </g>
  </g>
  <g id="Tiberias">
    <g>
      <path d="M769.351,151.061 L770.537,147.358 L774.094,138.314 L772.671,131.944 L775.517,121.272 L775.517,115.581 L780.023,93.763 L776.94,80.72 L773.434,71.759 L791.19,67.971 L792.847,62.289 L796.398,64.657 L804.211,68.445 L826.939,65.367 L832.621,67.971 L854.165,66.551 L862.451,67.261 L866.969,72.074 L870.706,75.074 L871.453,83.036 L875.937,89.399 L881.168,92.751 L892.141,100.972 L892.141,113.676 L892.141,128.196 L892.141,132.359 L887.146,141.327 L885.652,154.778 L881.168,162.251 L874.442,166.223 L869.958,174.208 L862.485,174.208 L855.759,171.219 L849.034,166.223 L841.56,166.223 L836.329,159.262 L823.625,151.061 L813.163,151.061 L798.964,151.061 L785.512,151.061 L769.351,151.061 z" fill="#DDDDDD"/>
      <path d="M769.351,151.061 L770.537,147.358 L774.094,138.314 L772.671,131.944 L775.517,121.272 L775.517,115.581 L780.023,93.763 L776.94,80.72 L773.434,71.759 L791.19,67.971 L792.847,62.289 L796.398,64.657 L804.211,68.445 L826.939,65.367 L832.621,67.971 L854.165,66.551 L862.451,67.261 L866.969,72.074 L870.706,75.074 L871.453,83.036 L875.937,89.399 L881.168,92.751 L892.141,100.972 L892.141,113.676 L892.141,128.196 L892.141,132.359 L887.146,141.327 L885.652,154.778 L881.168,162.251 L874.442,166.223 L869.958,174.208 L862.485,174.208 L855.759,171.219 L849.034,166.223 L841.56,166.223 L836.329,159.262 L823.625,151.061 L813.163,151.061 L798.964,151.061 L785.512,151.061 L769.351,151.061 z" fill-opacity="0" stroke="#000000" stroke-width="1"/>
    </g>
  </g>
  <g id="TelAviv">
    <g>
      <path d="M761.623,211.488 L761.623,208.435 L760.836,204.502 L755.592,200.045 L752.445,198.733 L749.036,196.111 L746.676,191.129 L743.267,186.147 L737.499,186.147 L730.943,182.214 L726.486,181.689 L723.601,175.396 L725.174,170.414 L725.699,165.956 L730.157,158.352 L732.207,159.117 L732.207,162.911 L733.867,165.412 L739.795,162.674 L744.776,157.694 L748.57,157.694 L748.096,159.828 L749.281,161.488 L753.429,158.93 L754.262,150.25 L755.351,147.497 L755.351,145.503 L757.344,144.414 L761.623,148.445 L761.623,152.714 L766.356,153.662 L768.253,150.25 L771.62,150.25 L778.925,150.25 L783.25,150.25 L789.513,150.25 L795.775,150.25 L805.02,150.25 L813.163,151.061 L818.738,150.25 L823.625,151.061 L829.176,153.86 L836.329,159.262 L841.56,166.223 L849.034,166.223 L855.759,171.219 L862.485,174.208 L869.958,174.208 L873.614,177.872 L875.805,185.185 L875.805,189.566 L876.681,194.385 L876.243,201.395 L874.928,204.461 L872.3,207.528 L870.109,211.488 L868.795,218.919 L868.795,222.424 L867.043,225.052 L863.538,226.805 L856.528,228.557 L854.338,233.376 L851.709,235.129 L847.766,235.567 L842.947,234.252 L838.566,232.938 L831.118,228.995 L823.67,225.052 L823.67,220.671 L814.908,215.852 L810.527,215.852 L804.394,215.414 L800.451,216.728 L797.822,217.166 L792.127,217.166 L789.06,216.728 L785.993,216.29 L779.623,216.29 L775.041,217.604 L769.351,217.604 L766.278,216.29 L761.623,211.488 z" fill="#929292"/>
      <path d="M761.623,211.488 L761.623,208.435 L760.836,204.502 L755.592,200.045 L752.445,198.733 L749.036,196.111 L746.676,191.129 L743.267,186.147 L737.499,186.147 L730.943,182.214 L726.486,181.689 L723.601,175.396 L725.174,170.414 L725.699,165.956 L730.157,158.352 L732.207,159.117 L732.207,162.911 L733.867,165.412 L739.795,162.674 L744.776,157.694 L748.57,157.694 L748.096,159.828 L749.281,161.488 L753.429,158.93 L754.262,150.25 L755.351,147.497 L755.351,145.503 L757.344,144.414 L761.623,148.445 L761.623,152.714 L766.356,153.662 L768.253,150.25 L771.62,150.25 L778.925,150.25 L783.25,150.25 L789.513,150.25 L795.775,150.25 L805.02,150.25 L813.163,151.061 L818.738,150.25 L823.625,151.061 L829.176,153.86 L836.329,159.262 L841.56,166.223 L849.034,166.223 L855.759,171.219 L862.485,174.208 L869.958,174.208 L873.614,177.872 L875.805,185.185 L875.805,189.566 L876.681,194.385 L876.243,201.395 L874.928,204.461 L872.3,207.528 L870.109,211.488 L868.795,218.919 L868.795,222.424 L867.043,225.052 L863.538,226.805 L856.528,228.557 L854.338,233.376 L851.709,235.129 L847.766,235.567 L842.947,234.252 L838.566,232.938 L831.118,228.995 L823.67,225.052 L823.67,220.671 L814.908,215.852 L810.527,215.852 L804.394,215.414 L800.451,216.728 L797.822,217.166 L792.127,217.166 L789.06,216.728 L785.993,216.29 L779.623,216.29 L775.041,217.604 L769.351,217.604 L766.278,216.29 L761.623,211.488 z" fill-opacity="0" stroke="#000000" stroke-width="1"/>
    </g>
  </g>
  <g id="BeerSheva">
    <g>
      <path d="M892.141,100.972 L894.68,101.502 L898.316,103.32 L902.074,105.592 L904.225,109.108 L907.861,109.108 L911.498,113.32 L917.407,118.774 L919.679,127.386 L921.043,134.228 L923.316,139.683 L926.043,141.956 L927.861,145.503 L928.316,150.25 L929.225,156.046 L931.952,160.137 L933.77,165.412 L934.225,170.592 L935.134,174.208 L936.952,177.872 L936.497,182.823 L935.588,187.864 L936.952,193.773 L938.77,202.409 L938.77,205.591 L936.497,214.682 L936.497,217.409 L936.497,220.591 L936.497,223.773 L935.588,227.409 L935.134,230.591 L934.225,235.567 L932.861,239.317 L931.043,241.954 L928.77,245.654 L925.134,247.871 L923.77,253.318 L919.225,259.305 L915.588,266.045 L914.574,263.443 L913.213,261.628 L910.945,259.305 L908.904,259.305 L905.73,257.773 L902.074,255.505 L900.06,253.691 L898.926,252.104 L897.339,250.527 L895.978,247.871 L893.71,244.167 L892.141,243.713 L889.628,242.579 L886.68,240.538 L885.093,238.044 L883.505,235.567 L881.691,233.962 L876.681,230.56 L873.981,228.973 L872.847,227.839 L871.26,226.705 L869.899,226.705 L867.043,225.052 L868.795,222.424 L868.992,217.634 L869.899,214.686 L870.109,211.488 L872.3,207.528 L873.981,205.842 L874.928,204.461 L877.609,201.76 L876.681,198.811 L876.681,195.41 L876.681,191.555 L875.805,189.566 L875.805,185.185 L873.614,177.872 L869.958,174.208 L871.26,171.825 L872.847,170.691 L873.981,167.743 L875.568,165.412 L876.681,165.412 L879.197,162.301 L881.011,160.033 L883.052,158.672 L885.773,157.085 L885.652,154.778 L887.361,147.107 L887.146,141.327 L889.855,139.169 L891.043,136.221 L893.484,132.139 L892.141,128.196 L892.141,123.15 L892.141,118.079 L892.141,115.585 L892.141,111.729 L892.141,106.287 L892.141,100.972 z" fill="#B8B8B8"/>
      <path d="M892.141,100.972 L894.68,101.502 L898.316,103.32 L902.074,105.592 L904.225,109.108 L907.861,109.108 L911.498,113.32 L917.407,118.774 L919.679,127.386 L921.043,134.228 L923.316,139.683 L926.043,141.956 L927.861,145.503 L928.316,150.25 L929.225,156.046 L931.952,160.137 L933.77,165.412 L934.225,170.592 L935.134,174.208 L936.952,177.872 L936.497,182.823 L935.588,187.864 L936.952,193.773 L938.77,202.409 L938.77,205.591 L936.497,214.682 L936.497,217.409 L936.497,220.591 L936.497,223.773 L935.588,227.409 L935.134,230.591 L934.225,235.567 L932.861,239.317 L931.043,241.954 L928.77,245.654 L925.134,247.871 L923.77,253.318 L919.225,259.305 L915.588,266.045 L914.574,263.443 L913.213,261.628 L910.945,259.305 L908.904,259.305 L905.73,257.773 L902.074,255.505 L900.06,253.691 L898.926,252.104 L897.339,250.527 L895.978,247.871 L893.71,244.167 L892.141,243.713 L889.628,242.579 L886.68,240.538 L885.093,238.044 L883.505,235.567 L881.691,233.962 L876.681,230.56 L873.981,228.973 L872.847,227.839 L871.26,226.705 L869.899,226.705 L867.043,225.052 L868.795,222.424 L868.992,217.634 L869.899,214.686 L870.109,211.488 L872.3,207.528 L873.981,205.842 L874.928,204.461 L877.609,201.76 L876.681,198.811 L876.681,195.41 L876.681,191.555 L875.805,189.566 L875.805,185.185 L873.614,177.872 L869.958,174.208 L871.26,171.825 L872.847,170.691 L873.981,167.743 L875.568,165.412 L876.681,165.412 L879.197,162.301 L881.011,160.033 L883.052,158.672 L885.773,157.085 L885.652,154.778 L887.361,147.107 L887.146,141.327 L889.855,139.169 L891.043,136.221 L893.484,132.139 L892.141,128.196 L892.141,123.15 L892.141,118.079 L892.141,115.585 L892.141,111.729 L892.141,106.287 L892.141,100.972 z" fill-opacity="0" stroke="#000000" stroke-width="1"/>
    </g>
  </g>
  <g id="Gaza">
    <g>
      <path d="M761.623,211.488 L769.351,227.248 L773.09,239.317 L771.629,259.305 L771.629,273.995 L771.629,290.551 L769.351,298.829 L755.719,323.273 L750.359,316.157 L740.375,310.815 L728.965,310.815 L723.973,306.173 L711.137,284.779 L706.452,269.512 L702.056,265.117 L701.324,262.187 L697.38,259.305 L707.868,255.11 L713.637,256.945 L716.896,255.983 L720.455,253.012 L721.794,251.612 L723.601,251.612 L726.165,247.871 L730.279,245.654 L736.449,242.357 L740.305,239.317 L743.134,235.567 L745.448,233.615 L748.077,228.73 L749.818,224.102 L751.921,219.973 L756.64,213.155 L761.623,211.488 z" fill="#7D7D7D"/>
      <path d="M761.623,211.488 L769.351,227.248 L773.09,239.317 L771.629,259.305 L771.629,273.995 L771.629,290.551 L769.351,298.829 L755.719,323.273 L750.359,316.157 L740.375,310.815 L728.965,310.815 L723.973,306.173 L711.137,284.779 L706.452,269.512 L702.056,265.117 L701.324,262.187 L697.38,259.305 L707.868,255.11 L713.637,256.945 L716.896,255.983 L720.455,253.012 L721.794,251.612 L723.601,251.612 L726.165,247.871 L730.279,245.654 L736.449,242.357 L740.305,239.317 L743.134,235.567 L745.448,233.615 L748.077,228.73 L749.818,224.102 L751.921,219.973 L756.64,213.155 L761.623,211.488 z" fill-opacity="0" stroke="#000000" stroke-width="1"/>
    </g>
  </g>
  <g id="Jerusalem">
    <g>
      <path d="M755.351,321.862 L769.351,298.829 L771.629,290.551 L771.629,259.305 L773.09,239.317 L769.351,227.248 L761.623,211.488 L765.797,215.193 L769.351,217.604 L775.041,217.604 L779.623,216.29 L785.764,215.532 L791.139,217.221 L797.822,217.166 L804.394,215.414 L814.175,215.378 L823.67,220.671 L823.67,225.052 L837.437,232.687 L847.766,235.567 L851.709,235.129 L854.338,233.376 L856.528,228.557 L863.538,226.805 L867.043,224.012 L869.899,226.705 L871.26,226.705 L873.981,228.973 L883.505,235.567 L886.68,240.538 L893.145,243.801 L897.339,250.527 L900.06,253.691 L902.074,255.505 L908.532,259.305 L910.945,259.305 L914.327,263.018 L915.664,267.03 L915.925,271.01 L915.552,272.874 L915.179,276.603 L914.806,279.96 L913.687,282.943 L911.45,286.299 L906.975,294.13 L904.365,297.113 L902.074,300.842 L902.074,304.199 L899.89,308.673 L895.415,310.815 L891.043,312.402 L887.584,314.64 L883.482,319.115 L880.499,323.273 L876.681,326.573 L869.684,330.675 L864.091,330.675 L850.293,331.048 L847.31,331.421 L843.208,333.964 L839.479,333.964 L834.258,333.964 L829.037,333.964 L822.325,333.964 L813.748,338.879 L811.138,338.506 L808.528,338.506 L804.053,338.133 L797.34,338.133 L791.001,338.506 L782.424,337.76 L778.925,337.76 L773.09,340.743 L770.281,337.167 L769.351,333.964 L764.988,330.551 L759.152,326.2 L755.351,321.862 z" fill="#CBCBCB"/>
      <path d="M755.351,321.862 L769.351,298.829 L771.629,290.551 L771.629,259.305 L773.09,239.317 L769.351,227.248 L761.623,211.488 L765.797,215.193 L769.351,217.604 L775.041,217.604 L779.623,216.29 L785.764,215.532 L791.139,217.221 L797.822,217.166 L804.394,215.414 L814.175,215.378 L823.67,220.671 L823.67,225.052 L837.437,232.687 L847.766,235.567 L851.709,235.129 L854.338,233.376 L856.528,228.557 L863.538,226.805 L867.043,224.012 L869.899,226.705 L871.26,226.705 L873.981,228.973 L883.505,235.567 L886.68,240.538 L893.145,243.801 L897.339,250.527 L900.06,253.691 L902.074,255.505 L908.532,259.305 L910.945,259.305 L914.327,263.018 L915.664,267.03 L915.925,271.01 L915.552,272.874 L915.179,276.603 L914.806,279.96 L913.687,282.943 L911.45,286.299 L906.975,294.13 L904.365,297.113 L902.074,300.842 L902.074,304.199 L899.89,308.673 L895.415,310.815 L891.043,312.402 L887.584,314.64 L883.482,319.115 L880.499,323.273 L876.681,326.573 L869.684,330.675 L864.091,330.675 L850.293,331.048 L847.31,331.421 L843.208,333.964 L839.479,333.964 L834.258,333.964 L829.037,333.964 L822.325,333.964 L813.748,338.879 L811.138,338.506 L808.528,338.506 L804.053,338.133 L797.34,338.133 L791.001,338.506 L782.424,337.76 L778.925,337.76 L773.09,340.743 L770.281,337.167 L769.351,333.964 L764.988,330.551 L759.152,326.2 L755.351,321.862 z" fill-opacity="0" stroke="#000000" stroke-width="1"/>
    </g>
  </g>
  <g id="Iran">
    <g>
      <path d="M773.09,340.743 L774.766,351.077 L777.256,355.242 L779.222,359.804 L779.623,377.084 L777.818,380.392 L775.012,393.404 L768.596,402.226 L765.99,408.401 L763.584,412.812 L763.384,419.869 L762.381,423.398 L758.372,429.352 L757.539,432.385 L757.539,435.307 L761.623,436.32 L766.951,436.613 L772.141,436.613 L779.623,437.557 L790.542,436.141 L796.676,435.197 L801.394,435.197 L809.888,438.5 L814.606,441.128 L821.211,441.128 L824.986,436.613 L836.31,435.669 L840.07,432.722 L840.347,427.905 L840.347,425.805 L841.177,421.931 L843.944,416.95 L845.881,411.139 L845.881,406.988 L843.667,403.391 L839.517,403.391 L835.643,399.24 L828.448,390.385 L824.297,386.511 L818.486,378.109 L815.443,375.443 L812.675,372.952 L808.801,368.801 L803.267,364.097 L795.242,360.599 L790.262,354.136 L785.004,347.218 L780.853,346.664 L777.533,342.79 L773.09,340.743 z" fill="#EEEEEE"/>
      <path d="M773.09,340.743 L774.766,351.077 L777.256,355.242 L779.222,359.804 L779.623,377.084 L777.818,380.392 L775.012,393.404 L768.596,402.226 L765.99,408.401 L763.584,412.812 L763.384,419.869 L762.381,423.398 L758.372,429.352 L757.539,432.385 L757.539,435.307 L761.623,436.32 L766.951,436.613 L772.141,436.613 L779.623,437.557 L790.542,436.141 L796.676,435.197 L801.394,435.197 L809.888,438.5 L814.606,441.128 L821.211,441.128 L824.986,436.613 L836.31,435.669 L840.07,432.722 L840.347,427.905 L840.347,425.805 L841.177,421.931 L843.944,416.95 L845.881,411.139 L845.881,406.988 L843.667,403.391 L839.517,403.391 L835.643,399.24 L828.448,390.385 L824.297,386.511 L818.486,378.109 L815.443,375.443 L812.675,372.952 L808.801,368.801 L803.267,364.097 L795.242,360.599 L790.262,354.136 L785.004,347.218 L780.853,346.664 L777.533,342.79 L773.09,340.743 z" fill-opacity="0" stroke="#000000" stroke-width="1"/>
    </g>
  </g>
  <g id="Egypto">
    <g>
      <path d="M842.95,401.593 L838.8,401.593 L827.731,388.587 L823.58,384.714 L818.123,376.99 L811.958,371.155 L808.084,367.004 L803.104,362.572 L794.525,358.801 L784.287,345.42 L780.136,344.867 L776.816,340.993 L773.09,338.946 L778.208,335.962 L781.707,335.962 L790.284,336.708 L797.175,336.278 L803.336,336.335 L807.81,336.708 L810.421,336.708 L813.031,337.081 L821.608,332.167 L842.491,332.167 L846.593,329.623 L849.576,329.25 L868.967,328.877 L875.964,324.775 L879.781,321.475 L882.765,317.317 L886.867,312.842 L889.953,310.836 L899.173,306.876 L900.59,307.732 L901.357,308.081 L901.986,309.018 L902.685,310.641 L903.267,312.736 L904.075,315.36 L904.672,317.549 L905.269,320.335 L905.468,322.921 L905.468,325.508 L905.468,329.289 L905.468,332.167 L905.667,334.264 L906.463,337.647 L906.662,338.946 L907.06,340.035 L907.06,342.423 L906.861,343.816 L906.463,345.806 L906.264,347.199 L906.25,348.436 L905.984,349.279 L905.85,351.637 L906.384,353.237 L906.384,354.17 L906.517,356.437 L906.517,358.801 L906.517,360.17 L906.65,361.77 L906.384,363.566 L906.384,365.637 L906.117,367.104 L906.117,368.704 L905.584,369.771 L904.917,371.637 L904.25,373.104 L902.65,376.311 L901.357,379.371 L899.85,381.371 L898.65,384.304 L896.383,389.771 L895.583,392.038 L893.05,393.371 L890.326,393.771 L887.45,395.371 L880.25,396.572 L877.583,396.971 L875.964,397.372 L873.449,397.772 L869.849,398.038 L864.916,398.172 L859.449,398.438 L857.182,398.705 L854.515,399.505 L847.582,399.505 L842.95,401.593 z" fill="#929292"/>
      <path d="M842.95,401.593 L838.8,401.593 L827.731,388.587 L823.58,384.714 L818.123,376.99 L811.958,371.155 L808.084,367.004 L803.104,362.572 L794.525,358.801 L784.287,345.42 L780.136,344.867 L776.816,340.993 L773.09,338.946 L778.208,335.962 L781.707,335.962 L790.284,336.708 L797.175,336.278 L803.336,336.335 L807.81,336.708 L810.421,336.708 L813.031,337.081 L821.608,332.167 L842.491,332.167 L846.593,329.623 L849.576,329.25 L868.967,328.877 L875.964,324.775 L879.781,321.475 L882.765,317.317 L886.867,312.842 L889.953,310.836 L899.173,306.876 L900.59,307.732 L901.357,308.081 L901.986,309.018 L902.685,310.641 L903.267,312.736 L904.075,315.36 L904.672,317.549 L905.269,320.335 L905.468,322.921 L905.468,325.508 L905.468,329.289 L905.468,332.167 L905.667,334.264 L906.463,337.647 L906.662,338.946 L907.06,340.035 L907.06,342.423 L906.861,343.816 L906.463,345.806 L906.264,347.199 L906.25,348.436 L905.984,349.279 L905.85,351.637 L906.384,353.237 L906.384,354.17 L906.517,356.437 L906.517,358.801 L906.517,360.17 L906.65,361.77 L906.384,363.566 L906.384,365.637 L906.117,367.104 L906.117,368.704 L905.584,369.771 L904.917,371.637 L904.25,373.104 L902.65,376.311 L901.357,379.371 L899.85,381.371 L898.65,384.304 L896.383,389.771 L895.583,392.038 L893.05,393.371 L890.326,393.771 L887.45,395.371 L880.25,396.572 L877.583,396.971 L875.964,397.372 L873.449,397.772 L869.849,398.038 L864.916,398.172 L859.449,398.438 L857.182,398.705 L854.515,399.505 L847.582,399.505 L842.95,401.593 z" fill-opacity="0" stroke="#000000" stroke-width="1"/>
    </g>
  </g>
  <g id="Libia">
    <path d="M275.861,82.686 L270.928,82.193 L270.928,95.514 L276.848,99.955 L282.275,106.368 L285.236,117.716 L288.196,122.65 L293.623,119.69 L300.037,119.69 L307.931,119.69 L312.371,114.756 L310.398,108.835 L319.278,108.835 L319.278,102.915 L323.719,102.421 L330.626,101.435 L339.013,100.448 L343.454,98.968 L346.907,93.541 L357.762,95.514 L366.642,93.541 L377.003,89.594 L380.457,81.7 L385.884,79.233 L390.818,79.233 L401.672,72.326 L398.218,70.352 L405.126,68.872 L408.579,59.004 L404.632,58.018 L406.606,53.577 L402.659,51.11 L400.192,54.564 L397.725,56.538 L394.765,53.084 L399.205,48.15 L403.646,43.71 L405.126,34.829 L399.205,35.816 L389.831,38.776 L385.884,41.243 L383.417,42.23 L376.51,41.736 L374.043,44.696 L367.629,44.203 L364.669,49.137 L358.255,50.124 L350.361,53.084 L346.907,54.564 L346.907,58.511 L343.454,61.965 L335.066,63.445 L322.239,66.405 L316.318,66.898 L308.424,63.445 L305.957,65.418 L305.957,71.339 L298.557,71.339 L285.236,78.739 L275.861,82.686 z" fill="#DDDDDD"/>
  </g>
  <g id="Damasco">
    <g>
      <path d="M711.174,138.67 L706.627,131.886 L699.808,128.865 L694.814,121.702 L689.768,116.955 L683.663,103.31 L683.354,93.189 L684.303,87.289 L687.128,82.561 L687.623,78.723 L693.038,81.58 L698.636,81.872 L708.252,84.498 L711.235,83.34 L719.837,86.798 L728.044,87.459 L738.508,81.115 L740.391,75.637 L741.919,76.011 L743.629,74.541 L744.508,72.056 L750.923,70.119 L750.211,67.514 L754.333,65.015 L754.343,66.924 L763.813,69.528 L770.915,70.475 L774.466,74.263 L775.368,76.589 L775.842,78.012 L775.842,79.909 L776.079,82.281 L777.028,83.703 L777.976,86.075 L778.214,88.588 L778.925,92.952 L778.688,94.849 L777.976,97.458 L777.502,100.304 L776.554,104.81 L776.079,109.108 L775.131,111.687 L774.419,114.77 L774.419,118.564 L774.419,120.462 L773.233,124.111 L772.285,127.386 L771.573,131.133 L772.996,135.402 L772.996,137.503 L772.048,139.196 L770.862,141.805 L769.676,143.702 L769.439,146.548 L768.253,150.25 L766.356,153.662 L763.51,154.611 L761.623,154.848 L761.623,152.714 L761.623,148.445 L759.152,143.702 L757.344,144.414 L755.351,145.503 L755.351,147.497 L754.262,150.25 L753.787,152.714 L753.076,156.745 L752.127,158.88 L750.941,160.303 L749.281,161.488 L748.096,159.828 L748.57,157.694 L744.776,157.694 L741.93,159.828 L739.795,162.674 L735.764,164.097 L733.867,165.412 L732.207,162.911 L732.207,159.117 L730.157,158.352 L727.938,157.694 L726.223,158.352 L724.381,157.694 L721.061,158.405 L718.881,160.712 L716.896,161.251 L712.326,161.499 L710.152,155.322 L708.393,152.059 L706.557,150.223 L707.918,149.751 L709.956,150.25 L709.678,146.548 L711.588,145.791 L709.988,143.509 L711.174,138.67 z" fill="#DDDDDD"/>
      <path d="M711.174,138.67 L706.627,131.886 L699.808,128.865 L694.814,121.702 L689.768,116.955 L683.663,103.31 L683.354,93.189 L684.303,87.289 L687.128,82.561 L687.623,78.723 L693.038,81.58 L698.636,81.872 L708.252,84.498 L711.235,83.34 L719.837,86.798 L728.044,87.459 L738.508,81.115 L740.391,75.637 L741.919,76.011 L743.629,74.541 L744.508,72.056 L750.923,70.119 L750.211,67.514 L754.333,65.015 L754.343,66.924 L763.813,69.528 L770.915,70.475 L774.466,74.263 L775.368,76.589 L775.842,78.012 L775.842,79.909 L776.079,82.281 L777.028,83.703 L777.976,86.075 L778.214,88.588 L778.925,92.952 L778.688,94.849 L777.976,97.458 L777.502,100.304 L776.554,104.81 L776.079,109.108 L775.131,111.687 L774.419,114.77 L774.419,118.564 L774.419,120.462 L773.233,124.111 L772.285,127.386 L771.573,131.133 L772.996,135.402 L772.996,137.503 L772.048,139.196 L770.862,141.805 L769.676,143.702 L769.439,146.548 L768.253,150.25 L766.356,153.662 L763.51,154.611 L761.623,154.848 L761.623,152.714 L761.623,148.445 L759.152,143.702 L757.344,144.414 L755.351,145.503 L755.351,147.497 L754.262,150.25 L753.787,152.714 L753.076,156.745 L752.127,158.88 L750.941,160.303 L749.281,161.488 L748.096,159.828 L748.57,157.694 L744.776,157.694 L741.93,159.828 L739.795,162.674 L735.764,164.097 L733.867,165.412 L732.207,162.911 L732.207,159.117 L730.157,158.352 L727.938,157.694 L726.223,158.352 L724.381,157.694 L721.061,158.405 L718.881,160.712 L716.896,161.251 L712.326,161.499 L710.152,155.322 L708.393,152.059 L706.557,150.223 L707.918,149.751 L709.956,150.25 L709.678,146.548 L711.588,145.791 L709.988,143.509 L711.174,138.67 z" fill-opacity="0" stroke="#000000" stroke-width="1"/>
    </g>
  </g>
  <g id="Libano">
    <g>
      <path d="M697.38,259.305 L694.021,259.305 L689.029,265.524 L685.463,269.803 L683.324,273.369 L682.611,279.074 L678.332,283.353 L672.627,286.205 L671.914,293.337 L674.053,300.468 L676.906,305.46 L674.766,310.815 L674.053,316.157 L675.479,321.149 L680.471,328.281 L682.611,333.964 L682.611,339.691 L679.758,347.535 L679.758,356.093 L684.75,360.599 L692.595,360.599 L701.866,365.364 L708.997,360.599 L711.85,353.954 L721.121,346.822 L734.67,338.978 L746.081,333.964 L752.499,329.707 L755.351,321.862 L750.359,316.157 L740.375,310.815 L728.965,310.815 L723.973,306.173 L716.896,295.476 L711.137,284.779 L708.284,274.795 L706.452,269.512 L704.254,267.681 L702.056,265.117 L701.324,262.187 L697.38,259.305 z" fill="#FFFFFF"/>
      <path d="M697.38,259.305 L694.021,259.305 L689.029,265.524 L685.463,269.803 L683.324,273.369 L682.611,279.074 L678.332,283.353 L672.627,286.205 L671.914,293.337 L674.053,300.468 L676.906,305.46 L674.766,310.815 L674.053,316.157 L675.479,321.149 L680.471,328.281 L682.611,333.964 L682.611,339.691 L679.758,347.535 L679.758,356.093 L684.75,360.599 L692.595,360.599 L701.866,365.364 L708.997,360.599 L711.85,353.954 L721.121,346.822 L734.67,338.978 L746.081,333.964 L752.499,329.707 L755.351,321.862 L750.359,316.157 L740.375,310.815 L728.965,310.815 L723.973,306.173 L716.896,295.476 L711.137,284.779 L708.284,274.795 L706.452,269.512 L704.254,267.681 L702.056,265.117 L701.324,262.187 L697.38,259.305 z" fill-opacity="0" stroke="#000000" stroke-width="1"/>
    </g>
  </g>
</svg>
