<?xml version="1.0" encoding="UTF-8" standalone="no"?>
<!-- Created with Inkscape (http://www.inkscape.org/) -->

<svg
   xmlns:dc="http://purl.org/dc/elements/1.1/"
   xmlns:cc="http://creativecommons.org/ns#"
   xmlns:rdf="http://www.w3.org/1999/02/22-rdf-syntax-ns#"
   xmlns:svg="http://www.w3.org/2000/svg"
   xmlns="http://www.w3.org/2000/svg"
   xmlns:xlink="http://www.w3.org/1999/xlink"
   xmlns:sodipodi="http://sodipodi.sourceforge.net/DTD/sodipodi-0.dtd"
   xmlns:inkscape="http://www.inkscape.org/namespaces/inkscape"
   width="399.99973"
   height="452.306"
   id="svg3972"
   sodipodi:version="0.32"
   inkscape:version="0.48.4 r9939"
   version="1.0"
   sodipodi:docname="NorthAmerica.svg"
   inkscape:output_extension="org.inkscape.output.svg.inkscape">
  <defs
     id="defs3974">
    <linearGradient
       id="linearGradient15386">
      <stop
         style="stop-color:#35a5ec;stop-opacity:1"
         offset="0"
         id="stop15388" />
      <stop
         style="stop-color:#2681da;stop-opacity:1"
         offset="1"
         id="stop15390" />
    </linearGradient>
    <radialGradient
       inkscape:collect="always"
       xlink:href="#linearGradient15386"
       id="radialGradient3791"
       gradientUnits="userSpaceOnUse"
       gradientTransform="matrix(0.9590971,0,0,1.0620716,256.90022,-91.285194)"
       cx="-372.03143"
       cy="263.1394"
       fx="-372.03143"
       fy="263.1394"
       r="127.25526" />
    <inkscape:perspective
       sodipodi:type="inkscape:persp3d"
       inkscape:vp_x="0 : 526.18109 : 1"
       inkscape:vp_y="0 : 1000 : 0"
       inkscape:vp_z="744.09448 : 526.18109 : 1"
       inkscape:persp3d-origin="372.04724 : 350.78739 : 1"
       id="perspective3980" />
  </defs>
  <sodipodi:namedview
     id="base"
     pagecolor="#ffffff"
     bordercolor="#666666"
     borderopacity="1.0"
     inkscape:pageopacity="0.0"
     inkscape:pageshadow="2"
     inkscape:zoom="0.88271873"
     inkscape:cx="135"
     inkscape:cy="152.65338"
     inkscape:document-units="px"
     inkscape:current-layer="g2990"
     showgrid="false"
     inkscape:window-width="1301"
     inkscape:window-height="744"
     inkscape:window-x="65"
     inkscape:window-y="24"
     inkscape:window-maximized="1" />
  <metadata
     id="metadata3977">
    <rdf:RDF>
      <cc:Work
         rdf:about="">
        <dc:format>image/svg+xml</dc:format>
        <dc:type
           rdf:resource="http://purl.org/dc/dcmitype/StillImage" />
      </cc:Work>
    </rdf:RDF>
  </metadata>
  <g
     inkscape:label="Capa 1"
     inkscape:groupmode="layer"
     id="layer1"
     transform="translate(-28.571568,-140.4949)">
    <g
       id="g2989">
        <path
             style="fill:#008080;fill-opacity:1;fill-rule:nonzero;stroke:none"
             d="m 309.90848,156.84631 -1.65625,2.125 3.375,1.6875 -0.84375,1.28125 -0.875,0.40625 5.9375,4.65625 -9.28125,-4.21875 2.9375,4.21875 -2.9375,-2.125 -1.71875,5.5 -1.65625,-1.71875 2.09375,-4.21875 -2.09375,-2.9375 -2.125,2.5625 -2.09375,-1.28125 -0.4375,6.71875 -2.09375,-2.5 1.25,-4.21875 -4.65625,5.46875 4.21875,2.5 -0.375,0 -4.65625,0.46875 1.25,2.09375 3.40625,-1.71875 2.09375,0.875 -5.03125,1.6875 4.59375,0 -1.28125,1.25 -1.65625,-0.8125 -2.125,0.8125 4.59375,0.40625 1.75,0.875 -7.59375,0.40625 5.46875,2.9375 -3.75,0 0.8125,2.09375 -3.375,-2.5 -2.09375,2.9375 0.4375,0.4375 4.59375,1.25 -4.21875,-0.84375 -1.25,0.84375 3.375,3.375 -2.125,0 2.125,1.71875 -2.125,-0.875 -0.375,4.65625 1.65625,1.25 2.5625,-1.71875 1.65625,5.5 -2.9375,1.71875 -1.71875,6.3125 6.75,1.6875 3.375,-2.5625 1.28125,1.71875 -3.8125,1.65625 3.8125,-0.8125 -5.90625,2.9375 5.46875,0 -1.28125,2.09375 2.5625,1.28125 3.375,-0.4375 -2.09375,-1.21875 2.9375,0 1.28125,-3 4.1875,-0.84375 2.125,0.84375 10.53125,3 0.40625,2.9375 0.8125,-1.71875 5.9375,5.09375 4.625,1.21875 -1.6875,1.28125 1.6875,-0.40625 1.03125,2.0625 0.21875,2.15625 3.84375,-0.875 -3.40625,-4.21875 3.40625,2.5625 2.09375,-2.125 -0.4375,2.9375 1.65625,-2.09375 0,2.9375 0.875,-1.65625 0,1.25 2.125,-0.8125 -1.28125,1.21875 5.0625,1.28125 -5.5,0.8125 -2.09375,2.5625 6.3125,0 2.9375,-2.5625 0.4375,0.46875 2.5625,4.625 1.65625,-1.25 0.84375,1.65625 -2.125,-0.40625 3.375,2.53125 0.4375,2.53125 2.96875,-0.4375 -6.34375,2.53125 3.375,-0.4375 -2.53125,1.28125 1.65625,2.9375 1.28125,-4.59375 0,1.21875 2.9375,-2.5 -3.78125,6.71875 4.21875,-2.9375 -3.375,4.21875 4.21875,-0.84375 -1.28125,2.53125 2.5625,-0.875 0.4375,-3.75 1.65625,-0.4375 -2.09375,8.03125 2.9375,-2.5625 -1.28125,3.375 3,0.84375 0.375,-3.78125 2.125,-0.4375 -2.125,4.65625 0.84375,-0.84375 2.09375,2.9375 0.875,-2.09375 -0.4375,2.5 2.5625,2.125 0,-4.625 -2.5625,-1.71875 6.34375,2.125 -3.375,0.875 2.09375,-0.4375 -1.65625,3.78125 2.9375,-2.53125 -2.125,2.96875 1.6875,-0.84375 0,2.5 2.09375,-1.65625 -0.40625,2.09375 2.125,-1.28125 -1.71875,1.71875 2.5625,-1.28125 1.65625,2.9375 0,-2.53125 1.28125,3.8125 2.9375,-0.8125 0.4375,2.09375 1.28125,-1.71875 0,2.125 0.375,-1.6875 0.875,1.6875 1.25,-0.40625 -0.84375,1.65625 2.09375,-2.09375 -0.8125,2.09375 2.53125,-1.65625 2.9375,2.09375 2.5,-6.3125 0.46875,4.21875 0.4375,-3 0.8125,3.40625 0.40625,-2.5 1.71875,1.65625 -0.4375,-2.5625 1.6875,3.84375 -0.4375,-3.40625 2.125,2.96875 -0.4375,-2.5 2.96875,-0.90625 -4.21875,0 2.53125,-2.5 -2.53125,0 0.40625,-2.53125 -2.09375,1.28125 1.6875,-1.6875 -2.09375,0 0.84375,-2.09375 -1.71875,0.8125 0.875,-2.09375 -1.28125,0.84375 0,-2.5625 -4.21875,-0.375 2.125,-0.84375 -3.375,0 1.65625,-3 -2.5,-1.21875 2.09375,-0.4375 -2.9375,-0.4375 2.125,-0.84375 -1.71875,0 0.84375,-2.09375 -2.5,0.4375 2.5,-1.28125 -2.5,-1.28125 -2.125,0.84375 1.28125,-2.5 -5.09375,-1.71875 2.09375,-1.21875 -2.09375,-2.125 -0.40625,-0.4375 2.125,-3.375 -4.21875,-3.375 1.65625,-0.84375 1.28125,2.5625 1.65625,-0.4375 -2.09375,-1.28125 1.71875,0.4375 0.375,-3.375 -2.09375,-0.40625 1.71875,-1.71875 -5.9375,-7.15625 -0.40625,-2.9375 -4.21875,-1.25 3.78125,0 1.28125,-2.5625 -1.65625,-1.21875 1.65625,0 -0.4375,-6.34375 -5.4375,-9.6875 -0.4375,-0.84375 -3.78125,3.78125 1.21875,4.21875 0,0.4375 -0.375,0.40625 -1.28125,0.8125 -0.84375,-4.21875 -0.78125,1.9375 0.78125,-4.03125 -2.9375,-0.84375 2.09375,5.03125 0,0.0312 -0.875,2.09375 -2.9375,-4.21875 1.71875,-0.8125 -0.875,-2.9375 -3.78125,3.75 0,-2.09375 -2.53125,0.4375 5.90625,-3.375 6.34375,0.4375 -2.125,-2.09375 2.5,0.8125 0,-1.65625 -3.78125,0 -2.09375,-1.71875 -0.4375,0.84375 -1.21875,-1.25 0,1.6875 -1.28125,-1.28125 -4.21875,1.28125 1.28125,2.09375 -1.28125,-0.8125 -0.84375,1.25 0.40625,-2.53125 -2.09375,0 0.8125,2.53125 -2.5,0.40625 0,-3.78125 -1.71875,3.375 0,-2.09375 -2.09375,0.40625 2.53125,-0.84375 -1.25,-2.5625 -3.40625,0.4375 3.40625,-0.8125 -1.6875,-0.84375 2.125,-2.09375 -1.28125,2.09375 3.375,-0.875 -0.4375,-3.34375 -2.5,-0.875 -1.71875,1.28125 2.5625,1.28125 -2.9375,0 -3,-1.6875 2.5625,-2.09375 0.4375,-0.4375 -1.28125,-1.28125 -0.84375,1.28125 -0.875,0.8125 -2.5,-1.25 -1.28125,2.09375 0.4375,-2.5 -2.96875,1.65625 3.375,-2.09375 0.4375,-0.40625 -3.8125,-1.25 -0.40625,0.375 -1.71875,1.71875 -0.8125,-2.5625 -0.84375,2.125 -3.375,0 0.4375,-2.9375 0,-2.125 -3.375,-0.8125 -1.28125,1.65625 -0.40625,0.84375 -0.4375,-1.25 -0.4375,-0.875 -1.21875,0.4375 -1.28125,0.4375 2.09375,1.6875 -2.9375,-0.84375 -4.65625,-3.375 -6.3125,-3.375 0.84375,2.09375 0,0.4375 -2.125,-0.4375 -0.375,-0.375 -1.71875,-3.84375 -0.84375,2.9375 0,0.90625 -0.4375,-0.90625 -0.8125,-4.1875 -5.5,-2.125 z m -196.15625,18.21875 -3.375,0.84375 -1.28125,6.75 -2.5,2.53125 2.09375,3.78125 -2.53125,2.125 1.25,2.53125 -1.6875,-2.53125 1.6875,-3.375 -2.9375,5.46875 -3.8125,-4.21875 2.09375,-2.9375 -8.812502,-2.9375 0,5.0625 -1.71875,-1.28125 -2.5,3.78125 2.9375,5.90625 1.28125,-0.8125 -1.28125,1.65625 4.21875,0 0.84375,2.09375 -2.9375,0 -1.71875,3.40625 -2.5,0.8125 -1.28125,-2.09375 -4.21875,0.4375 -0.4375,-3 -11.375,3.40625 -1.25,2.53125 1.25,1.65625 -1.65625,0 0.40625,1.28125 0.875,2.9375 -2.125,-1.25 -3.375,3.375 4.625,2.9375 -4.21875,5.9375 -3.34375,0.375 5.0625,2.125 0,1.25 -0.84375,4.65625 4.21875,-2.53125 -1.71875,2.9375 4.21875,0.875 -4.21875,1.21875 -4.21875,4.65625 -9.6875,-0.8125 -1.25,0 -2.53125,2.5 -2.125,-3.78125 -4.21875,0.4375 0.4375,2.5 2.96875,-1.28125 -0.84375,1.71875 4.59375,0.84375 0.4375,0.4375 -0.8125,1.65625 18.09375,-2.09375 4.65625,1.25 5.03125,-1.6875 -1.28125,-2.5 1.71875,-1.71875 16.4375,-2.9375 3.375002,1.6875 -3.375002,0 0.8125,3.78125 -2.09375,-3.375 -3.34375,-0.40625 -5.5,3.78125 2.125,1.6875 -4.21875,1.6875 6.3125,1.28125 1.28125,-1.71875 -0.4375,1.71875 1.65625,-2.09375 1.71875,2.5 2.9375,-1.28125 0,-3.34375 4.218752,-0.875 -2.09375,2.125 2.09375,-0.84375 -0.8125,1.71875 3.375,0 -2.125,0.8125 1.25,1.28125 -1.6875,0 1.6875,0.40625 -1.25,1.71875 2.5,1.65625 -0.375,3.375 7.53125,3.78125 0.875,4.21875 1.25,-0.40625 2.09375,-0.4375 0.875,2.125 -2.09375,0.8125 1.21875,-2.5 -2.5,1.6875 3.78125,12.1875 2.09375,0 -0.375,-5.4375 1.21875,2.9375 1.28125,-1.71875 -1.6875,4.21875 2.125,2.125 3.375,-7.5625 -2.09375,7.15625 1.21875,1.65625 2.09375,-1.25 -2.5,2.53125 2.125,2.125 -1.71875,0 1.28125,2.53125 -1.28125,-2.09375 0.4375,2.5 -2.09375,0.4375 3.75,8.40625 -4.1875,2.96875 2.53125,-0.84375 2.53125,-0.84375 0,2.5 -2.96875,5.9375 3.8125,-2.5625 2.5,-3.375 -3.34375,5.0625 1.25,1.28125 -3.34375,0.8125 -0.875,1.71875 2.53125,2.125 -2.53125,0.8125 1.28125,4.65625 3.8125,-2.96875 -1.28125,2.53125 2.125,1.28125 -2.96875,-1.71875 2.125,6.75 -3.375,1.6875 2.09375,-0.84375 -0.4375,2.125 4.21875,-1.6875 -5.0625,4.21875 0,2.5 2.125,-0.84375 -2.9375,1.28125 2.5,0.84375 -2.9375,0.4375 4.21875,1.28125 -3.78125,0 5.03125,2.09375 -1.65625,0 0.84375,1.21875 3.375,-0.8125 -3.8125,1.25 1.6875,2.125 1.6875,-1.6875 -1.28125,1.6875 2.0625,0.84375 -0.34375,0.4375 3.34375,0 -2.96875,2.5 1.71875,2.09375 1.6875,-1.21875 0.8125,-0.875 0,1.25 0.4375,2.125 -2.09375,0.84375 3.375,-0.40625 -1.28125,4.21875 2.125,2.5 -2.5625,9.6875 0.4375,-4.59375 -3.375,2.9375 3.375,-4.65625 -7.59375,-3.78125 -0.8125,10.09375 1.65625,0 -2.5,4.21875 2.5,0.84375 -2.09375,-0.40625 -8.84375,20.65625 -0.4375,9.25 -3.375,5.9375 0.4375,10.90625 2.09375,6.78125 3.78125,0.4375 0,4.21875 -1.65625,-2.5625 -0.4375,3.78125 5.90625,15.625 -0.875,3.78125 3,1.65625 7.15625,4.21875 4.59375,6.34375 5.5,22.34375 0.84375,1.6875 8.03125,10.125 -1.71875,2.9375 1.71875,2.09375 -6.34375,-1.65625 7.625,7.96875 2.5,-1.25 5.03125,6.3125 -0.375,8.03125 10.09375,9.28125 1.6875,4.1875 3.34375,-1.25 -1.65625,-5.5 -5.0625,-2.5 -3.375,-14.34375 -6.3125,-8.84375 -0.4375,-4.21875 -8.4375,-11.8125 -0.40625,-12.1875 9.28125,5.875 2.09375,8.4375 1.28125,5.03125 -0.0312,0.0625 -1.25,1.21875 1.28125,1.6875 0,-2.8125 0.40625,1.5625 5.46875,7.5625 3.375,0.875 -0.4375,3.34375 7.59375,7.59375 -1.65625,3.375 7.59375,4.65625 0,2.9375 11.78125,11.8125 4.1875,9.25 -2.09375,3.78125 1.71875,1.28125 -2.9375,0.84375 1.21875,2.53125 12.25,10.9375 9.6875,2.53125 5.46875,4.21875 6.75,2.125 21.90625,6.75 14.34375,-3.375 14,8.0625 2.59375,-9.3125 8.09375,-0.875 -0.1875,-2.3125 -5.84375,-3.3125 2.03125,-0.6875 -0.0312,-3.40625 11.34375,-1.78125 4.84375,-5.8125 2.78125,2.96875 2.09375,-8.8125 -2.09375,-0.4375 5.03125,-10.9375 -8.40625,-0.4375 -12.65625,5.46875 -2.125,10.09375 -5.03125,6.34375 -4.65625,-0.84375 -13.03125,4.65625 -4.65625,-3.8125 -4.21875,0.4375 -12.65625,-19.8125 -0.375,-3.375 -0.4375,-11.8125 0.4375,-4.65625 2.5,-1.21875 -0.84375,2.5 2.09375,-5.875 -1.65625,-8.03125 -2.09375,-0.40625 2.09375,0 1.21875,-5.5 4.65625,-2.09375 -1.65625,-1.65625 3.78125,0.375 -1.28125,0.84375 6.3125,-3.78125 0.4375,-4.21875 2.96875,0.84375 -1.6875,1.28125 5.4375,-2.5625 8.875,0.4375 2.5625,-2.09375 5.875,4.21875 2.09375,-2.125 2.125,1.28125 -0.84375,-2.9375 2.5,0.375 2.5625,3.40625 2.09375,-2.125 -4.21875,-1.65625 2.5625,-2.5625 -2.5625,-0.4375 -4.21875,-0.8125 12.65625,-2.53125 0.4375,-2.96875 1.21875,2.53125 -1.21875,1.28125 5.4375,-3.375 -0.8125,1.65625 5.46875,-1.65625 -1.65625,0.84375 5.03125,-0.40625 0.84375,1.65625 1.28125,2.125 4.21875,-2.9375 1.65625,-1.28125 2.09375,0.4375 0.84375,0.40625 6.75,5.46875 0,6.34375 2.125,-0.84375 -0.84375,3.375 2.125,2.9375 2.09375,-0.8125 2.5,6.3125 4.21875,1.21875 0,3 3,-1.28125 0,1.28125 1.21875,-11.8125 -9.28125,-18.5625 -3.75,-7.15625 3.75,-7.625 -1.25,-1.65625 1.71875,1.28125 2.5,-3.8125 5.09375,-8 10.53125,-10.96875 -3.375,0.4375 2.09375,-2.5625 -2.9375,-0.375 4.59375,-0.4375 1.71875,-2.53125 -1.28125,-2.09375 -0.4375,2.5 -0.375,-2.09375 -3.375,1.25 2.09375,-2.9375 2.09375,0.84375 -1.6875,-3.78125 3.375,5.0625 -3.78125,-6.34375 -5.5,-0.8125 2.96875,0.375 -2.53125,-2.5 2.125,1.6875 0.40625,-2.5625 -0.40625,-0.15625 0,-1.9375 -5.9375,-1.25 0,-2.09375 5.5,2.5 -3.78125,-7.15625 3.34375,-2.9375 -1.25,5.0625 5.0625,4.625 -0.4375,5.90625 2.09375,-9.71875 -4.1875,-7.59375 4.1875,3.8125 2.125,-6.3125 -2.125,-4.21875 2.125,-4.65625 8.875,-5.03125 -0.84375,-3.375 1.65625,2.09375 5.0625,-3.375 -1.28125,-2.125 -0.40625,2.5625 -4.625,-2.9375 0.4375,-9.71875 1.65625,-0.8125 -0.84375,-2.125 2.9375,0 -0.375,-5.46875 0.8125,2.53125 1.6875,-3 1.71875,1.28125 2.9375,-5.03125 -2.125,-2.125 3.40625,0 5.875,-8.875 -0.84375,4.21875 1.6875,-0.8125 4.1875,-2.125 -1.65625,3.375 -2.53125,-1.25 -3.78125,8.03125 1.65625,4.59375 3.375,0.84375 1.6875,-9.28125 2.96875,-0.375 -0.875,-1.71875 7.1875,-7.15625 1.25,-1.65625 -2.0625,-0.53125 3.34375,-4.96875 0.4375,-0.84375 -0.84375,-0.4375 -1.71875,-0.4375 0,4.65625 -1.28125,0.84375 0.875,-5.0625 -2.09375,-4.21875 -1.28125,8 2.375,2.40625 -2.8125,-0.6875 -4.59375,3.78125 -7.21875,-1.28125 -2.5,-4.21875 -2.09375,1.28125 0,-5.5 -2.5625,2.5625 -1.25,-1.6875 -3.78125,1.25 5.46875,-2.9375 2.125,-3.78125 -2.9375,-3.8125 -5.9375,2.09375 -5.5,6.75 -7.15625,16.03125 2.5625,-8.03125 -1.28125,-2.9375 6.75,-10.53125 0.40625,-5.0625 0.4375,-2.09375 21.90625,-11.375 0.4375,0 0.40625,-8.03125 4.65625,-4.21875 1.28125,-6.3125 -3,-0.84375 2.09375,-1.28125 -3.3125,0.875 2.09375,-1.28125 -2.09375,-0.4375 -0.4375,-3.75 -3.78125,-1.28125 -1.28125,3.78125 -1.28125,-3.34375 -3.75,0.40625 -3,7.15625 2.09375,-6.71875 -2.5,3.375 4.21875,-7.21875 -2.9375,0.4375 0,-1.25 -2.53125,2.09375 -1.28125,-1.65625 -0.40625,1.65625 -0.4375,-1.65625 -0.0937,0.90625 -1.5625,1.1875 0,-1.71875 -0.4375,0.875 -1.28125,2.53125 -1.65625,-5.0625 0,2.09375 -0.84375,-1.65625 -3.8125,0.84375 0.4375,-2.125 -2.125,1.28125 0.84375,-1.28125 -2.09375,0 1.25,-1.25 -3.375,0.4375 2.9375,-0.90625 -0.8125,-2.9375 -4.65625,-0.375 1.25,-1.71875 -2.9375,-0.84375 -0.4375,-1.65625 -1.65625,2.5 0.4375,-3.78125 -2.125,2.5 0.40625,-3.34375 -1.65625,-1.6875 -2.5625,1.25 1.28125,-1.65625 -6.3125,-3 0,-1.65625 -1.6875,0 0.40625,4.21875 2.53125,1.65625 -1.6875,1.71875 1.6875,0.40625 -1.25,2.53125 2.09375,2.9375 -2.9375,-2.9375 -1.28125,6.78125 -2.53125,-3 -0.40625,4.21875 -1.28125,-5.0625 -5.875,2.5625 0.40625,-2.125 1.71875,0.84375 -0.46875,-3.375 -1.65625,0.84375 -1.71875,-3.78125 -3.375,0.84375 3.375,-1.6875 -2.5,-5.9375 -0.4375,2.125 -5.875,-0.40625 -0.875,-2.53125 -2.125,0.8125 -6.3125,-3.75 -1.21875,2.9375 -9.3125,-0.40625 -1.21875,2.5 3.3125,3.8125 -0.375,5.0625 2.09375,-0.84375 2.5,4.625 -1.21875,9.6875 6.3125,2.5625 5.4375,9.25 0,-0.8125 2.5625,2.09375 -2.5625,0.40625 0,-1.6875 -1.65625,8 -6.3125,6.3125 3.78125,2.125 5.90625,11.375 -1.71875,3.8125 2.125,3.375 -2.9375,-2.5625 -0.84375,3.78125 -0.84375,0 -2.53125,0 -0.40625,-2.9375 -8.875,-6.3125 -3.75,-13.9375 -10.5625,1.71875 -22.34375,-10.53125 -7.15625,3.375 1.25,-2.96875 -3.78125,-8.4375 -3.375,0 0,2.09375 -2.5,-3.75 -0.46875,-9.28125 4.21875,-8.03125 -1.25,-1.21875 5.03125,-4.65625 -2.09375,-1.28125 3.375,0 1.71875,-2.5 -3.8125,-3 -1.6875,1.28125 0.40625,-1.65625 -5.0625,-0.4375 0,-2.125 9.71875,4.21875 1.25,-4.59375 5.5,-0.875 2.09375,-6.34375 -11.78125,-3.3125 2.9375,-0.90625 7.15625,3 2.9375,-5.5 -2.9375,-2.09375 8.40625,1.28125 -5.03125,-4.21875 3.375,-0.4375 2.09375,2.9375 3.40625,-7.59375 -5.09375,-5.0625 2.53125,-1.65625 -2.09375,-1.28125 0.8125,-2.09375 -4.59375,-0.84375 1.21875,-1.28125 -7.15625,0.4375 3.8125,5.90625 -2.09375,0.4375 0,8.8125 -2.09375,1.71875 -4.21875,-10.53125 -3,-1.71875 -0.8125,6.75 -4.21875,-6.75 2.53125,-0.84375 -5.9375,-0.84375 0.4375,-1.6875 0,-1.6875 2.125,0.4375 -7.59375,-10.125 -3.78125,7.15625 1.65625,0.4375 -0.375,4.21875 0,0.8125 6.71875,2.5625 -2.125,0.375 -0.375,3.40625 1.65625,-1.6875 0.84375,2.5 -4.21875,3.40625 0.84375,5.46875 -3.34375,-1.65625 1.21875,-5.09375 -1.65625,1.71875 0.4375,-1.71875 -2.125,-1.25 -3.375,0.84375 1.28125,2.9375 2.09375,-0.4375 0,3 -3.375,-3.8125 -0.4375,2.53125 -2.9375,0.40625 -5.5,0 -2.9375,-3.34375 -3.78125,0 -2.53125,-5.09375 -6.75,3.375 2.96875,1.28125 4.625,-2.5625 -6.34375,4.65625 2.125,4.21875 -0.40625,1.6875 -1.71875,-0.84375 1.28125,3.8125 -2.9375,-4.65625 1.65625,-1.28125 -4.59375,-5.03125 -4.65625,1.65625 -8,-2.09375 0.40625,-2.5 3.375,-0.4375 -1.65625,-3.40625 -4.65625,-1.21875 -5.5,-4.65625 -3.375,-2.9375 -6.3125,0.84375 1.25,-3.78125 0.4375,-0.875 -0.8125,0.875 -3.375,3.34375 -0.84375,-5.0625 -0.875,-3.78125 0,2.9375 -1.6875,0 -7.59375,1.6875 3.84375,-2.9375 1.65625,-1.28125 -2.9375,0.875 -6.78125,1.21875 -2.5,-0.375 0.84375,-2.9375 -4.65625,1.21875 -0.375,3.8125 -5.5,-9.25 -2.5625,-5.09375 -0.8125,-1.21875 -10.96875,-10.15625 -0.84375,-2.5 1.71875,-0.875 -2.5625,-2.125 0.4375,-2.5 -2.96875,0.40625 2.53125,-1.21875 0.4375,-1.71875 -4.65625,0.4375 -2.09375,-2.125 -2.9375,1.28125 0.375,-0.875 0.875,-0.40625 -3.8125,-1.25 -2.09375,0.4375 -7.15625,1.21875 -2.9375,-2.9375 z"
             id="path5345"
             inkscape:connector-curvature="0" />
    </g>
  </g>
</svg>
