<?xml version="1.0" encoding="UTF-8" standalone="no"?>
<!-- Generator: Adobe Illustrator 16.0.4, SVG Export Plug-In . SVG Version: 6.00 Build 0)  -->

<svg
   xmlns:dc="http://purl.org/dc/elements/1.1/"
   xmlns:cc="http://creativecommons.org/ns#"
   xmlns:rdf="http://www.w3.org/1999/02/22-rdf-syntax-ns#"
   xmlns:svg="http://www.w3.org/2000/svg"
   xmlns="http://www.w3.org/2000/svg"
   xmlns:sodipodi="http://sodipodi.sourceforge.net/DTD/sodipodi-0.dtd"
   xmlns:inkscape="http://www.inkscape.org/namespaces/inkscape"
   version="1.1"
   id="svg2816"
   sodipodi:docname="Oceania.svg"
   inkscape:version="0.48.4 r9939"
   x="0px"
   y="0px"
   width="380"
   height="380"
   viewBox="0 0 380 380"
   enable-background="new 0 0 1000 905"
   xml:space="preserve"><metadata
     id="metadata18"><rdf:RDF><cc:Work
         rdf:about=""><dc:format>image/svg+xml</dc:format><dc:type
           rdf:resource="http://purl.org/dc/dcmitype/StillImage" /></cc:Work></rdf:RDF></metadata><defs
     id="defs3"><inkscape:perspective
       sodipodi:type="inkscape:persp3d"
       inkscape:vp_y="0 : 1000 : 0"
       inkscape:vp_x="0 : 0.5 : 1"
       inkscape:vp_z="1 : 0.5 : 1"
       id="perspective2824"
       inkscape:persp3d-origin="0.5 : 0.33333333 : 1" /></defs><sodipodi:namedview
     pagecolor="#ffffff"
     showgrid="false"
     borderopacity="1"
     inkscape:cy="463.40752"
     inkscape:zoom="0.56880292"
     bordercolor="#666666"
     objecttolerance="10"
     inkscape:cx="363.56412"
     guidetolerance="10"
     gridtolerance="10"
     id="namedview2818"
     inkscape:window-y="24"
     inkscape:window-width="1301"
     inkscape:pageshadow="2"
     inkscape:current-layer="g7"
     inkscape:window-x="65"
     inkscape:window-maximized="1"
     inkscape:window-height="744"
     inkscape:pageopacity="0" /><g
     id="g7"
     transform="matrix(0.37034003,0,0,0.33823352,10.75074,39.978576)"><g
       style="fill:#008080;fill-opacity:1"
       id="g9"
       transform="translate(-9.4943999,0)"><path
         style="fill:#008080;fill-opacity:1;fill-rule:nonzero;stroke:none"
         d="m 720.32653,22.213437 -1.96875,1.0625 -0.71875,1.40625 -1.0625,2.5 -1.25,3.40625 -2.84375,5.875 -2.3125,5.875 -2.875,7.46875 -1.40625,8.5625 -0.90625,9.4375 -0.34375,1.96875 -1.59375,0.71875 -2.34375,0.34375 -0.875,0.71875 -1.0625,1.78125 0,3.5625 -0.375,5.53125 -0.875,7.28125 -3.40625,23.718753 -0.15625,11.9375 -0.71875,10.5 -1.0625,7.84375 -2.5,7.65625 -3.5625,8.5625 -3.75,8.375 -1.96875,7.84375 -1.21875,6.59375 -1.09375,3.5625 -1.0625,0.53125 -4.4375,0.15625 -8.375,0.1875 -10.53125,0 -4.96875,-1.25 -4.65625,-3.03125 -2.3125,-2.84375 -2.84375,-5.6875 -0.71875,-3.03125 -1.9375,-1.0625 -3.75,-1.8125 -3.75,-2.84375 -5.6875,-4.28125 -5.34375,-4.96875 -4.125,-3.40625 -6.03125,-3.1875 -7.3125,-2.6875 -7.84375,-3.375 -6.0625,-3.75 -8.375,-5.6875 -16.03125,-9.8125 -7.84375,-3.375 -6.40625,-1.78125 -5.1875,-0.71875 -4.09375,0.71875 -0.34375,-1.25 1.4375,-1.25 2.84375,-2.3125 4.4375,-4.625 5.34375,-7.125 3.21875,-6.250003 1.78125,-8.71875 1.78125,-8.90625 1.0625,-1.4375 2.15625,-0.34375 4.625,0 7.84375,0.34375 3.71875,-0.34375 0.90625,-0.90625 0.71875,-1.0625 0,-1.59375 1.0625,-5.71875 0.53125,-5.875 0.71875,-5.34375 -0.1875,-3.03125 -1.25,-1.59375 -2.125,-1.09375 -2.5,-0.6875 -2.65625,0.15625 -2.6875,1.09375 -1.4375,1.0625 -0.6875,2.125 -1.09375,2.15625 -1.40625,0.53125 -1.96875,0.15625 -1.96875,-0.34375 -2.125,-0.90625 -0.71875,-2.3125 -0.53125,-2.84375 -0.53125,-1.0625 -1.96875,-0.1875 -2.5,-0.15625 -2.3125,0.6875 -0.34375,1.25 -1.25,1.0625 -2.5,-0.34375 -3.03125,-0.34375 -5.53125,-0.1875 -4.4375,-0.1875 -3.03125,-1.25 -2.3125,-2.125 -1.0625,-2.84375 -0.90625,-1.96875 -1.25,-0.1875 -17.28125,-0.15625 -4.09375,-0.53125 -4.09375,-2.15625 -5.15625,-2.3125 -2.6875,-1.0625 -3.375,0 -1.625,-1.0625 -0.34375,-1.4375 -1.25,-2.3125 -1.40625,-2.84375 -1.4375,-1.09375 -1.25,0.5625 0.34375,2.46875 0.1875,3.03125 -0.875,2.3125 -1.4375,0 -1.0625,-1.0625 -2.3125,-2.5 -3.5625,-1.9375 -5.71875,-4.46875 -4.96875,-2.65625 -2.6875,-0.5625 -2.5,0.5625 -1.96875,1.59375 -1.78125,2.125 -0.15625,2.3125 1.25,1.09375 2.125,0.15625 3.03125,-0.15625 1.96875,0.6875 2.5,2.15625 2.125,2.65625 1.25,2.5 0.34375,4.46875 -1.0625,3.5625 -2.84375,3.71875 -4.46875,2.6875 -6.21875,1.0625 -7.125,0.71875 -5.1875,0.53125 -7.28125,0.71875 -6.25,0.875 -7.46875,1.78125 -5.34375,3.21875 -3.5625,3.5625 -1.625,3.5625 -0.71875,3.75 0.1875,4.09375 1.59375,3.5625 0.90625,2.5 -0.90625,1.25 -1.59375,0 -2.5,-0.1875 -3.71875,0.34375 -1.625,0.90625 -0.71875,1.96875 -2.46875,3.1875 -3.75,4.65625 -2.5,4.625003 -1.4375,3.90625 -0.6875,6.0625 0.6875,2.125 1.78125,0.71875 c 0,0 2.162,0.53125 2.875,0.53125 0.713,0 1.25,1.09375 1.25,1.09375 l 1.0625,2.125 0.53125,3.03125 -0.375,4.09375 -0.875,0.71875 -2.5,0.875 -4.28125,0 -8,0.5625 -8.75,0.53125 -6.9375,-1.625 -4.09375,-2.125 -3.9375,-5.15625 -2.125,-4.46875 -2.5,-4.8125 -3.5625,-4.28125 -4.4375,-4.09375 -4.28125,-2.500003 -3.5625,-1.0625 -4.28125,0 -3.03125,0.53125 -3.03125,0.90625 -3.1875,1.40625 -3.40625,1.625003 -9.96875,5.34375 -5,3.375 -3.1875,2.84375 -0.1875,3.75 0,3.03125 -1.4375,1.0625 -3.90625,-0.53125 c 0,0 -2.8505,-0.34375 -3.5625,-0.34375 -0.713,0 -1.787,1.05875 -2.5,1.59375 -0.713,0.534 -0.53125,2.125 -0.53125,2.125 l 0.1875,3.5625 -0.1875,5.53125 -1.78125,1.0625 -3.21875,0 -6.9375,-0.53125 c 0,0 -2.31825,0.19325 -3.03125,0.90625 -0.713,0.712 -1.0625,1.40625 -1.0625,1.40625 l -0.90625,2.15625 -1.9375,3.5625 -3.03125,3.375 c 0,0 -2.87125,2.6715 -3.40625,3.5625 -0.534,0.891 -0.15625,2.3125 -0.15625,2.3125 l 1.78125,0.71875 2.125,0 1.96875,0.71875 0.34375,2.65625 -0.1875,5.875 -0.6875,4.125 -1.625,0.875 -3.90625,0 -6.96875,-0.34375 -4.625,0.34375 -1.59375,1.78125 -0.1875,3.75 0.90625,11.21875 -0.375,6.78125 c 0,0 -0.5275,0.89025 -1.0625,1.78125 -0.535,0.891 -1.25,0 -1.25,0 l -1.9375,-1.4375 -3.03125,-2.65625 -2.875,-2.6875 -4.09375,-5.53125 -1.78125,-1.59375 -1.78125,0.1875 -2.125,2.125 -3.03125,3.375 -3.5625,5 -3.03125,7.3125 -0.90625,7.3125 -0.15625,9.625 -0.53125,8.90625 -1.78125,6.9375 -3.5625,7.84375 -4.46875,5.6875 -8.03125,9.625 -7.65625,5.875 -7.125,4.28125 -7.3125,1.96875 -9.0625,1.96875 -7.3125,0.53125 -5.71875,0.15625 -4.25,1.09375 -5.1875,2.84375 -3.90625,4.09375 -2.15625,3.21875 -4.4375,4.25 -5,2.875 -5.5,1.59375 -4.8125,3.21875 c 0,0 -3.413,3.36275 -4.125,3.71875 -0.713,0.356 -5.34375,2.875 -5.34375,2.875 l -6.21875,1.40625 -8.187499,0 -6.96875,1.78125 -7.3125,3.9375 -6.21875,4.8125 -4.625,4.4375 -7.5,8.90625 -9.625,9.09375 -3.71875,7.46875 -2.34375,6.25 -0.875,4.28125 -1.59375,2.3125 -1.25,-0.1875 -1.625,-2.5 -1.25,-4.625 -1.40625,-3.75 -1.625,-0.6875 -0.875,0.15625 -0.53125,1.78125 -0.34375,2.6875 -0.5625,5.875 0,8.1875 0.1875,18.375 -0.53125,9.25 -0.53125,4.625 -2.3125,4.65625 -1.4375,3.375 0.90625,3.21875 2.5,5.875 3.5625,5.5 4.25,2.875 2.5,0.34375 1.96875,1.4375 0.1875,1.0625 -0.375,12.28125 1.625,1.25 2.65625,-0.15625 c 0,0 1.7805,0.33725 3.5625,1.40625 1.782,1.069 1.42525,1.06825 1.78125,1.78125 0.357,0.713 0.53125,3.21875 0.53125,3.21875 l 0.1875,5.6875 -0.1875,3.9375 -0.875,1.59375 -2.5,0.34375 -3.03125,-0.875 -4.09375,-3.03125 -4.8125,-4.46875 -3.21875,-4.25 -3.375,-1.4375 -3.03125,0.1875 -1.59375,1.59375 0.15625,2.125 0.71875,1.96875 2.15625,2.3125 3.71875,4.46875 6.59375,6.9375 5.71875,4.09375 1.78125,2.15625 0.875,2.3125 0,2.84375 0,3.90625 1.96875,3.03125 c 0,0 1.4215,0.894 2.3125,1.25 0.891,0.357 3.03125,0.90625 3.03125,0.90625 l 3.21875,0.1875 0.53125,1.21875 -0.71875,2.6875 0.1875,4.09375 0.53125,4.8125 1.59375,3.5625 2.5,2.84375 2.65625,2.3125 4.28125,2.875 3.9375,1.78125 1.59375,1.59375 0.53125,3.75 c 0,0 -0.35325,4.25575 -0.53125,4.96875 -0.178,0.713 0.875,3.03125 0.875,3.03125 l 1.25,1.96875 3.03125,3.21875 c 0,0 3.94325,4.44325 4.65625,5.15625 0.713,0.713 2.84375,3.75 2.84375,3.75 0,0 1.59,4.26525 2.125,5.15625 0.535,0.891 0.90625,5.15625 0.90625,5.15625 l 1.249999,3.75 1.0625,2.5 3.03125,3.21875 3.90625,3.5625 4.8125,4.625 5.34375,6.0625 1.25,2.65625 0,1.625 0.375,7.8125 -0.1875,9.28125 -0.1875,5.34375 1.25,3.03125 1.25,2.65625 0.1875,4.65625 0,6.9375 -1.96875,2.5 c 0,0 -2.50575,1.43475 -3.21875,1.96875 -0.713,0.536 -2.65625,0.875 -2.65625,0.875 0,0 -3.38175,1.787 -4.09375,2.5 -0.713,0.713 -0.1875,2.125 -0.1875,2.125 l -0.1875,3.03125 -0.15625,6.0625 0.6875,2.15625 2.6875,2.84375 5.875,3.03125 6.9375,0.53125 3.03125,1.96875 6.0625,4.625 5.53125,3.90625 8,1.78125 6.25,0.1875 18.34375,-0.1875 6.78125,-0.1875 3.375,-1.40625 3.75,-2.6875 3.90625,-5.15625 3.21875,-4.8125 2.84375,-2.84375 4.65625,-3.40625 6.75,-5.6875 12.65625,-5.6875 9.28125,-3.5625 6.9375,-0.90625 9.25,-0.53125 7.84375,0.71875 c 0,0 10.7095,-0.01 12.3125,-0.1875 1.603,-0.178 11.21875,-0.875 11.21875,-0.875 l 8.90625,-2.34375 4.625,-1.59375 1.0625,-1.59375 1.25,-2.6875 2.5,-4.625 2.5,-5 3.375,-4.25 6.25,-3.75 8.90625,-5.1875 10.6875,-4.25 9.8125,-3.5625 12.09375,-1.96875 c 0,0 7.859,-1.96875 8.75,-1.96875 0.892,0 2.125,-2.3125 2.125,-2.3125 l 3.03125,-3.375 3.03125,-1.625 5,-0.34375 9.4375,0 6.75,-1.0625 8.75,-2.6875 8.53125,-3.90625 8.375,-4.09375 14.8125,-5.875 9.25,-2.5 4.28125,-1.0625 6.59375,-0.375 5.34375,-0.1875 6.0625,1.4375 5.15625,2.3125 c 0,0 1.25575,1.44325 1.96875,2.15625 0.713,0.712 0,2.125 0,2.125 l -0.1875,3.375 0.71875,2.3125 2.125,1.96875 3.40625,1.0625 5.875,0 9.625,-0.34375 6.75,0.875 6.0625,2.15625 6.25,0.1875 3.5625,0.6875 0.34375,1.96875 c 0,0 -0.178,3.38075 0,4.09375 0.179,0.713 1.25,1.96875 1.25,1.96875 l 2.3125,0.53125 2.5,-0.1875 3.375,0.71875 1.25,1.0625 -0.15625,2.6875 -0.71875,1.78125 -1.4375,0.71875 c 0,0 -1.58725,0.358 -2.65625,1.25 -1.07,0.891 -2.15625,1.59375 -2.15625,1.59375 l -1.25,2.84375 1.09375,2.5 1.78125,1.0625 4.25,0.1875 4.125,1.59375 5.5,5.71875 2.875,5.6875 1.9375,7.84375 2.3125,9.28125 3.5625,8 4.46875,5 4.28125,3.03125 3.90625,-0.1875 1.4375,-1.25 0,-3.21875 -0.375,-4.09375 0.53125,-3.03125 1.78125,-2.46875 1.8125,-2.34375 2.46875,-1.78125 4.28125,-3.375 6.40625,-5.875 3.75,-4.625 8.90625,-10.6875 4.625,-6.4375 3.21875,-6.0625 1.25,-2.3125 1.4375,0.53125 0.34375,3.03125 0.34375,4.28125 -0.53125,5.875 0.375,6.96875 -0.53125,6.40625 -1.96875,7.46875 -2.6875,5.71875 -2.84375,3.90625 -4.8125,5.1875 -4.4375,3.5625 -3.9375,3.90625 -3.03125,2.84375 -0.53125,2.5 0.90625,1.4375 3.375,0.15625 6.59375,-0.34375 3.21875,-0.53125 3.375,-1.78125 1.96875,-2.5 1.59375,-2.65625 0.71875,-3.9375 0.71875,-4.4375 -0.375,-5.1875 0.90625,-2.125 1.25,-0.53125 2.3125,-0.90625 2.5,0.71875 1.21875,1.4375 0.5625,3.03125 0.15625,4.96875 0.53125,5.34375 0.375,5.71875 -1.0625,3.71875 -2.34375,2.6875 -2.65625,1.78125 -0.34375,1.96875 -0.1875,4.09375 0.1875,3.5625 0.6875,1.25 c 0,0 2.8495,0.34375 3.5625,0.34375 0.713,0 3.58725,-0.1875 4.65625,-0.1875 1.069,0 3.1875,-1.0625 3.1875,-1.0625 l 3.03125,-1.78125 5.53125,-3.375 1.59375,-0.71875 0.71875,0.71875 -0.34375,2.125 0,2.6875 0.15625,1.59375 2.6875,2.15625 4.625,1.25 c 0,0 3.38075,1.591 4.09375,2.125 0.712,0.535 3.5625,3.5625 3.5625,3.5625 l 2.15625,6.59375 -0.375,9.4375 -0.15625,9.625 -0.375,7.65625 1.625,5 5.6875,6.59375 c 0,0 4.45275,1.7785 5.34375,2.3125 0.891,0.535 5.875,0.1875 5.875,0.1875 l 5.53125,0.53125 5.34375,2.125 5.53125,3.21875 6.9375,2.84375 3.375,0.1875 c 0,0 6.07675,-0.0122 6.96875,0.34375 0.89,0.357 3.56925,0.18475 4.28125,0.71875 0.713,0.535 3.537,1.05975 4.25,1.59375 0.713,0.535 3.75,4.46875 3.75,4.46875 l 2.6875,1.59375 9.4375,0.53125 12.46875,0 1.96875,-1.59375 3.5625,-2.5 1.9375,-3.75 -0.15625,-4.8125 0.15625,-6.03125 1.96875,-1.8125 1.0625,0.5625 3.03125,4.625 1.0625,2.84375 -0.34375,3.9375 -0.875,1.9375 -2.6875,0 -0.53125,0.71875 2.125,2.3125 3.40625,2.6875 3.1875,2.46875 1.96875,0.5625 0.71875,-1.09375 -0.1875,-3.90625 -0.1875,-4.625 1.09375,-1.625 1.78125,0.90625 2.3125,2.3125 1.59375,4.46875 0,3.90625 c 0,0.713 1.59375,1.4375 1.59375,1.4375 l 5.53125,1.0625 6.0625,2.125 3.375,0 1.4375,-0.875 0.1875,-1.78125 0.53125,-5 1.25,-2.125 2.46875,-0.71875 2.875,-0.375 3.90625,-2.3125 7.84375,-4.4375 7.3125,-2.15625 9.4375,-1.59375 13.53125,-0.53125 10.34375,-0.1875 7.125,-2.3125 4.46875,-4.8125 2.125,-4.28125 1.96875,-6.75 1.40625,-8.21875 -0.15625,-6.59375 0.15625,-6.21875 2.15625,-3.5625 4.28125,-4.625 6.03125,-5.34375 5.53125,-6.96875 2.84375,-6.9375 3.5625,-5 3.40625,-4.625 6.21875,-8.375 3.9375,-8.03125 2.3125,-7.125 2.5,-6.21875 2.5,-4.625 3,-4.125 5.1875,-4.8125 5.34375,-3.90625 8,-5.53125 7.3125,-6.21875 3.21875,-6.96875 1.40625,-7.125 1.09375,-9.625 1.59375,-12.09375 1.59375,-6.25 2.6875,-5.875 3.90625,-8.1875 3.75,-11.21875 3.03125,-9.625 1.25,-9.625 0.71875,-10.53125 -0.71875,-5.875 -0.90625,-11.75 0.375,-14.78125 -0.71875,-15.15625 -0.71875,-6.9375 c 0,0 1.071,-3.39025 1.25,-4.28125 0.178,-0.891 1.4375,-0.71875 1.4375,-0.71875 l 1.59375,-0.1875 2.3125,-0.15625 3.375,-2.3125 1.78125,-4.8125 0.53125,-3.5625 1.25,-3.5625 1.09375,-2.875 -0.5625,-1.25 -1.78125,-1.0625 -3.375,0 -3.03125,1.0625 c 0,0 -1.06825,1.42525 -1.78125,1.78125 -0.713,0.356 -0.875,3.21875 -0.875,3.21875 0,0 -0.1875,1.7975 -0.1875,2.6875 0,0.89 -1.59375,1.0625 -1.59375,1.0625 l -2.3125,-0.1875 -2.15625,-1.0625 -4.28125,-3.9375 -4.09375,-4.96875 -5.34375,-8.1875 -6.25,-10.15625 -4.4375,-5.90625 -3.21875,-4.09375 -3.90625,-4.28125 -2.6875,-4.25 -2.125,-6.78125 -1.25,-7.65625 -0.71875,-7.5 -0.15625,-12.09375 -0.5625,-3.75 -1.0625,-1.0625 -1.96875,0 -2.3125,0.53125 -0.53125,1.59375 -0.34375,4.28125 0.53125,5.6875 -1.0625,3.21875 -1.78125,-0.34375 -0.71875,-1.78125 -1.25,-3.21875 -1.59375,-4.09375 -1.625,-4.46875 -1.21875,-1.40625 -2.5,-0.71875 -1.4375,0.53125 -0.71875,2.5 -0.34375,3.03125 -1.0625,0.53125 -0.53125,-1.4375 0.34375,-2.65625 -1.96875,-8.5625 -3.5625,-8.90625 -3.375,-7.84375 -4.8125,-9.09375 -4.8125,-10.3125 -3.03125,-7.84375 -3.75,-5.34375 -3.90625,-4.28125 -4.46875,-2.84375 -5.875,-3.40625 -3.5625,-2.125 -1.59375,-1.96875 -0.90625,-4.96875 -0.875,-1.625 -1.0625,-0.15625 -2.6875,0 -3.375,-1.09375 -4.09375,-2.46875 -6.0625,-5.34375 -4.8125,-6.25 -3.75,-6.25 -1.78125,-8.1875 -0.53125,-8.53125 -0.1875,-14.4375 -0.71875,-7.65625 -1.21875,-6.0625 -1.4375,-1.78125 -3.75,-1.25 -1.96875,-2.3125 -2.3125,-2.3125 -2.125,-5 -0.53125,-3.75 -0.71875,-5.15625 -0.875,-9.625 -0.1875,-7.3125 -0.90625,-4.96875 -1.40625,-3.21875 -3.40625,-5.53125 -3.1875,-5.6875 -2.875,-3.9375 -2.65625,-2.125 -3.375,-0.90625 c 0,0 -3.56925,0.1875 -4.28125,0.1875 -0.713,0 -3.21875,0.34375 -3.21875,0.34375 l -3.5625,0.90625 -4.28125,0 -1.9375,-0.53125 -0.5625,-1.96875 -0.15625,-3.03125 0,-5.875 -0.375,-6.937503 -1.25,-6.25 -1.9375,-5.875 -3.21875,-7.5 -2.65625,-6.40625 -1.96875,-5.34375 -0.375,-3.75 0,-5.15625 0.71875,-2.125 0.90625,-2.3125 -0.375,-1.625 -1.40625,-0.15625 -1.0625,-0.1875 -2.875,0.1875 -3.1875,0.34375 -0.90625,-0.53125 -0.34375,-1.625 0,-4.4375 -0.375,-4.09375 -0.875,-5.71875 -2.125,-5.6875 -2.6875,-3.75 -3.03125,-1.96875 -3.90625,-0.15625 z m 72.1875,717.250003 c -1.16351,0 -3.78125,2.15625 -3.78125,2.15625 l -3.5,4.5625 0.25,4.3125 -0.28125,8.65625 -0.28125,7.59375 1.4375,6.28125 2.625,2.375 4.65625,3.90625 6.09375,3.4375 c 0,0 5.24037,7.16528 5.53125,8.03125 0.29087,0.86598 0.875,3.03125 0.875,3.03125 l 2.34375,3.875 0,3.03125 c 0,1.29896 -0.59375,1.96875 -0.59375,1.96875 0,0 -0.56724,0.44201 -2.3125,0.875 -1.74526,0.43298 -3.5,1.5 -3.5,1.5 l -2.03125,2.15625 c 0,0 0.5745,2.16753 1.15625,3.25 0.58406,1.08246 4.375,2.1875 4.375,2.1875 l 3.46875,2.59375 1.75,3.65625 -0.28125,5 0.59375,5.40625 2.3125,5.40625 4.65625,6.71875 c 0,0 4.64662,4.54028 4.9375,5.40625 0.29087,0.86598 2.90625,2.15625 2.90625,2.15625 0,0 3.49748,1.5158 6.40625,3.03125 2.90876,1.51545 2.625,1.3125 2.625,1.3125 l 3.5,1.5 c 0,0 0.84612,0.66754 1.71875,1.75 0.87262,1.08247 3.21875,1.0625 3.21875,1.0625 l 2.03125,0.4375 c 0,0 2.02399,-0.21875 3.1875,-0.21875 l 3.21875,0 2.3125,0 2.625,1.53125 4.65625,2.8125 6.40625,1.9375 5.5,0.21875 4.65625,-1.71875 2.34375,-3.46875 3.78125,-6.71875 4.65625,-3.03125 5.21875,-4.96875 3.5,-1.96875 5.25,-2.8125 3.1875,-0.625 4.375,0 c 1.45438,0 2.3245,0.85278 2.90625,1.71875 0.58175,0.86597 1.44712,3.25903 1.15625,4.125 -0.29088,0.86598 1.15625,3.875 1.15625,3.875 l 4.09375,0.21875 3.78125,-0.21875 0.5625,-1.0625 c 0,0 1.15625,-1.51354 1.15625,-2.8125 l 0,-3.46875 0,-3.6875 1.1875,-2.8125 3.78125,-1.5 0.28125,-2.625 0,-1.71875 -2.03125,-1.71875 -4.0625,-1.3125 -1.46875,-3.25 0.875,-4.34375 2.90625,-3.21875 3.1875,-3.25 4.65625,-2.8125 3.5,-0.21875 5.53125,-1.09375 1.4375,-1.9375 -0.5625,-4.34375 -0.28125,-7.15625 0.5625,-6.25 2.34375,-4.5625 2.90625,-6.9375 1.4375,-5.84375 0.3125,-5.84375 -0.59375,-5.625 -2.90625,-4.09375 -3.78125,-1.75 -6.125,-1.71875 -5.5,0 -5.25,2.15625 -5.25,2.375 -6.375,1.09375 -9.90625,1.09375 -11.03125,0.625 -7,1.09375 -7.5625,0.65625 c 0,0 -5.79562,1.28577 -7.25,1.71875 -1.45438,0.43299 -3.49274,1.72553 -4.65625,2.375 -1.1635,0.64948 -8.15625,0.4375 -8.15625,0.4375 l -8.4375,-0.625 -7.25,-3.03125 -7.28125,-4.5625 -8.15625,-4.53125 -7.25,-4.5625 -5.8125,-1.71875 -8.4375,-0.65625 -5.25,-1.3125 -1.15625,-2.15625 -4.65625,-2.8125 -4.0625,0 z"
         id="path2830"
         inkscape:connector-curvature="0" /></g></g></svg>