<svg x="0" y="0" width="1125.84375" height="564.79688" version="1.1" xmlns="http://www.w3.org/2000/svg" xmlns:xlink="http://www.w3.org/1999/xlink"><g fill="none" stroke="none" stroke-width="1" stroke-linecap="butt" stroke-linejoin="miter" stroke-miterlimit="10" stroke-dasharray="" stroke-dashoffset="0" font-family="sans-serif" font-weight="normal" font-size="12" text-anchor="start" mix-blend-mode="normal"><g><g><path d="M106.75698,197.49647l0.98591,6.16197l0.49296,5.42254l-1.47887,8.13382l0.98591,7.1479l-2.46479,13.80283l1.23239,3.69719l-0.24648,0.49296l-0.98591,2.2183l1.47887,11.33805l-3.20423,13.30987l-1.47888,0.98592l2.4648,7.64086l-1.23239,5.91549l2.57737,1.54231c-1.25273,1.50748 -0.21305,0.061 0.38037,-0.30991l1.23239,0.49295l0.73944,-0.73943l-1.47887,1.97183l1.72535,0.73943l-0.24648,1.2324l-1.23239,-0.73944l1.23239,1.23239l-0.98591,-0.49295l-0.24648,3.45071l1.23239,1.23239l-1.23239,1.23239l2.2183,1.23239l-2.2183,2.4648l1.97183,0.73944l-1.97183,0.24648l0,1.23239l1.23239,-0.73944l-0.73944,3.20423c-0.26926,-0.75746 -1.15705,-1.18874 -1.23239,-1.23239l-0.98591,0l0.49295,-1.23239l-0.73943,0.98591l-0.98592,-0.73943l-0.98591,0.24648l1.02385,1.08875l-0.03791,0.6366c-1.28511,1.10747 -1.58427,1.30265 0,0.24647l0.49296,1.2324l1.47887,-0.24648l0.98592,1.47887l-1.2324,0.98592l1.47888,0l-1.97183,0.73943l2.46479,-0.49296l1.72535,1.2324l-1.23239,-0.24648l0.98591,1.23239l-3.45071,-0.73943l2.21832,1.23239l-1.23239,0.73943l0.98591,0.49296c-0.02993,1.10478 -1.18809,2.91346 0.24648,1.47887l1.47887,1.72535l-1.72535,-0.24648l0.73944,1.2324l0.73943,0.98591c-1.94087,-0.23409 -2.3802,-0.36316 -0.24647,0.24648c0.02185,0.28121 -0.32491,-1.23475 0.24647,1.72535l0.73944,-1.72535c1.0609,1.15529 1.9224,-0.74646 -0.73944,1.72535l-0.49295,0.24648l1.47887,0.49296l-0.24648,1.72535l1.47887,1.23239l-0.24648,-1.23239l0.73944,1.23239l-0.73944,-1.72535l1.97183,0.73944c0.06483,-1.28488 -2.07901,-3.61721 -0.08182,-0.3831l-0.16468,2.6014l0,-1.47887l-0.24648,1.23239l-0.24647,-0.98591l-0.49296,0l-0.49296,0l-0.73943,0l0.49295,2.4648l1.72535,-0.98592l3.20424,0c3.38465,-3.29114 0.1734,-2.62804 -0.24648,2.21832l-1.47888,0.49296l2.95776,1.47887c4.40343,-2.64653 3.67164,-5.03403 6.16197,-5.42254l-1.72535,-2.21832l-1.47887,0l1.47887,-0.24648l-1.47887,-1.47887l2.21832,-3.20423l-0.49296,-0.49296l-0.49296,-0.98591l0.73944,0.98591l0.24648,0.24648l0.98591,-0.24648l0,-0.24648l0.49296,-3.20423l4.43663,-3.94367l-0.24648,-2.46479l-2.71128,-0.49296l-2.46479,-3.20423l1.47887,-2.95775l3.94367,-1.2324l0.24647,-4.43662l2.71128,-2.4648l-1.97183,-1.23239l1.72535,-0.49296l0.73944,1.23239l1.47887,-0.98591l-0.49296,-1.72535l-1.97183,1.23239l-1.72535,-1.23239l-0.24648,-4.92958l3.69719,1.47887l4.19015,-0.98592l0,-5.91549l0.98591,0.49295l-0.98591,-2.2183l3.69719,0.73943l3.20423,-0.73943l4.6831,-0.98592l2.95776,-1.47887l2.71127,-4.43662l0,-1.97183l-1.97183,-1.47887l0.73944,-2.4648l-4.43663,-3.45071l0.73944,-4.92958l-0.24648,3.20423l1.97183,1.97183l5.17606,1.97183l6.40845,-0.73944l5.42254,-5.9155l1.47888,-4.6831l4.43662,-5.17606l-0.73944,-1.47887l2.21832,1.97183l-5.42254,6.16197l4.43663,-3.69719l2.71127,-4.19014l1.72535,-2.4648l3.45071,-2.71127l1.47888,-5.42254l-0.98592,-3.20424l1.97183,-2.71127l-1.23239,-0.73944l1.72535,0.49296l2.46479,-2.95775l4.43663,-2.71128l3.20423,0l3.94367,-2.95775l2.71127,0.73943l1.72535,-1.23239l0,1.23239l3.69719,0.24648l0.24648,-1.72535l3.69719,-1.47887l-0.24648,-1.97183l4.43663,-5.66902l0.73943,-1.23239l0.98592,-4.6831l2.2183,-2.21832l2.95776,-18.48594l0.49295,-0.98591l0.73944,1.72535l1.47887,-0.98591l7.64086,-9.11973l4.43662,-5.66902l0.73944,-4.43663l-1.23239,-6.40845l-1.2324,-1.72535l-5.17606,-1.23239l-4.6831,-5.42254l-5.42254,-3.94367l-8.13381,-0.98592l-4.19015,-2.46479l-5.42254,3.20423l0.49296,-2.4648l1.47887,-0.98591l-2.4648,0.24648l1.97183,-1.47887l-1.23239,-2.4648l-1.72535,1.47887l-0.24648,-1.97183l-0.73944,0.73944l0.49296,-0.73944l-1.23239,0.24648l-0.98592,-1.47887l-0.49295,0.98592l-0.24648,-1.47888l-0.49296,0.73944l-3.69719,-2.21832l-0.24648,0.73944l-2.46479,-0.73944l-1.72535,2.71128l1.47887,0.49295l-1.2324,0.49296l-0.50429,-0.63037z" fill="#873240" stroke="#000000"/><path d="M188.57674,134.26039l-0.48162,-0.60203l-3.20423,3.45071z" fill="#aded18" stroke="#000000"/><path d="M184.89089,137.10907l0.98591,-2.4648l-4.43662,0.49296l5.91549,-1.23239l1.97183,-4.19015l-7.64085,-1.23239l-1.72535,3.20423l0,-1.72535l-1.72535,1.47887l0,-1.72535l-1.72535,1.72535l1.47887,-3.20423l5.42254,-4.43663l-0.73944,0l0.73944,-1.72535l-3.20424,-1.72535l-2.2183,-7.64085l-0.98592,-0.73944l-0.24648,1.23239l-2.46479,-3.20423l-7.39438,-3.69719l-11.33805,-0.24648l-4.6831,-3.69719l-1.23239,1.72535l0.73943,-3.20423l-2.21832,-2.21832l-3.45071,-1.97182l-0.98591,-0.24648l-2.4648,0l0,-2.71128l-2.95775,-1.72535l-2.71127,0.49296l-0.49296,-0.73944l-1.47887,-1.23239l-1.36477,-0.8202l-1.59298,0.57372l-5.42254,1.47887l-4.43662,-1.97183l-7.1479,0.98592l-0.98592,-2.4648l-4.43662,-0.49295l-1.47887,-2.4648l-0.73944,1.97183l1.47887,-0.24648l0,0.73944l-1.23239,-0.24648l-5.42254,2.71127l1.23239,2.71128l0.73944,0.73943l-0.24648,1.47887l-2.46479,0.98592l-1.47888,-2.4648l0.49296,-0.49295l1.72535,-2.4648l-1.47887,-2.95775l3.45071,-1.72535l-2.21832,-1.2324l-6.16197,4.19015l-3.20423,0.24648l-0.49296,1.23239l-1.97183,-0.24648l-1.72535,0.98592l-1.72535,2.46479l0,0.49296l0.24648,1.72535l-4.92958,3.45071l0.49295,2.21832l-1.35645,-0.07661l-1.00675,1.82696l-1.47887,0.5654l1.62374,2.61383l-0.98591,8.38029l1.72535,0.73944l-0.49296,0.98591l-2.2183,3.69719l-2.95776,1.2324l0,2.46479l-1.97183,0.49296l0.49296,1.97183l-3.94367,1.47887l-0.24648,0.24648l0.24648,1.23239l0.24648,0.73944l-0.24648,0.24648l-1.72535,2.2183l0.73944,0.73944l-2.21832,1.72535l0,4.6831l2.4648,1.2324l0.73943,-1.47888l0.49296,-0.49295l0.73944,1.23239l-1.2324,2.95775l-4.43662,3.94367l1.72535,4.92958l-0.98592,1.47888l4.19015,2.2183l3.94367,5.17606l3.20423,6.40846l2.21832,4.6831l5.66902,7.64086l-0.49296,1.97183l1.97183,2.71127l2.95775,2.71128l13.80283,6.16197l4.43663,4.19015z" fill="#70a53d" stroke="#000000"/><path d="M69.16972,141.12935l0.49295,0.98591l0.24648,-0.73944l0.49296,-0.49295l-0.49296,0.24648z" fill="#a62623"/><path d="M186.4938,127.08004l-2.71127,0.24647l1.47887,1.2324z" fill="#4c804c"/><path d="M108.60638,296.90418l-0.98591,0.98591l1.23239,0.73944z" fill="#b1b493"/></g><g><path d="M352.64766,291.10385l1.34921,0.03054l3.01875,0.20625c0.6623,0.63685 1.62042,1.2787 2.00625,2.00625l0.22579,0.15698l0.16796,0.23677l0.43125,0.6l0.0006,0.36323l-0.0006,0.23677l2.00625,2.83125l2.19375,-0.20625l0.60079,0.13823l-0.18829,-0.13823l0.18829,0.13823l0.6,0l0.6,-0.6l1.2,0l1.83671,-0.15699l0.56329,0.15699l0.22421,0.04926l0.97579,0.55074l1.03046,1.06176l0.16954,0.13824l0.6,0l0.44921,0.25551l1.2,2.41875l-2.00625,6.01875l0.35704,0.90699l0.6,0.6l0,0.6l0,0.6l-0.6,0l-0.35704,-0.08199l-0.61875,3.20625l-1.40625,0l3.0375,5.4375l6.6375,6.43125c0.41463,3.43882 0.01692,2.11644 1.59375,5.2125l3.61875,7.2375l-1.2,2.00625l1.3875,2.83125l1.40625,3.1875l-0.58125,3.84375l-3.45,3.6l-2.19375,7.4625l0.4125,6.43125l8.23125,13.44375l1.425,10.8375l6.4125,10.275l2.79375,4.6125l0.225,2.19375l-1.21875,0.825l1.425,3.80625l1.0125,-0.6l3,2.00625l6.825,-2.19375l5.83125,0.6l5.83125,-1.6125l8.6625,-6.01875l2.79375,-3.61875l1.21875,-1.425l3.1875,-2.625l2.625,-6.80625l-0.4125,0.58125l-0.80625,-0.99375l8.86875,-5.23125l0.7875,-5.60625l-1.8,-4.81875l0.1875,-2.625l0.61875,0.6l4.40625,-3.01875l1.81875,-3l9.05625,-4.21875l0.39375,-0.80625l2.79375,-4.0125l-0.58125,-5.83125l0.58125,-0.61875l-0.4125,-4.425l1.03125,-2.00625l-1.8,-1.3875l-0.825,-0.61875l0,-0.1875l-0.7875,-5.25l0.6,-1.3875l-0.80625,0l1.2,-2.625l-2.2125,-3l1.40625,-4.21875l2.41875,-5.04375l0.6,-1.2l2.41875,-1.3875l-0.61875,-0.99375l1.63125,0l6.43125,-8.475l6.80625,-5.41875l5.025,-6.43125l6.6375,-15.46875l0,-1.81875l-0.1875,-1.0125l1.3875,-0.375l-0.99375,0l0.1875,-4.21875l-1.40625,-0.6l-3.1875,2.00625l-5.45625,0.6l-2.4,1.40625l-1.81875,-0.61875l-3.20625,1.6125l-4.2,-3.825l-1.81875,0.20625l2.4,-1.3875l-0.39375,-1.425l-6.6375,-6.6375l-2.8125,-0.99377l-0.61875,-1.0125l-0.58125,-0.58125l-0.1875,1.2l-4.2375,-9.05625l-3.6375,-2.41875l-1.575,-6.80625l0.58125,0.375l-1.575,-3l-3.6375,-2.625l-0.99375,-2.8125l0.7875,0l-2.025,-1.6125l-5.4,-9.43125l-3.01875,-3.225l-0.73125,-2.4c-0.00804,-0.01225 -0.01128,-0.04363 -0.01872,-0.05625c-0.04062,-0.06823 -0.07272,-0.14089 -0.09375,-0.225c-0.13789,-0.55155 -0.46875,-1.13055 -0.46875,-1.8375l0,-0.3c0,-0.30252 -0.04728,-0.60691 -0.09375,-0.91875l-1.01253,0.13125l-0.58125,-1.21875l-2.41875,-0.20625l-4.8375,2.00625l-5.60625,-1.59375l-4.8375,-0.20625l-0.80625,-1.2l-4.40625,-0.6l-0.61875,-1.21875l-3.61875,-0.7875l-4.21875,2.00625l0,3.6l-0.20625,0l-2.83125,1.44375l-3,-1.63125l-5.625,-1.40625l-1.40625,-2.60625l-4.81875,-1.40625l-2.79375,0.1875l-0.03913,-0.01721z" fill="#5d64cf" stroke="#000000"/><path d="M383.92025,213.1359l-5.41712,-2.38279l-0.39375,-1.2375l3.225,-2.56875l-1.59375,-2.4375l1.59375,-2.4l-1.59375,0.99375l-1.63125,-1.6125l-4.63125,1.425l-3.6,-0.80625l-2.83125,1.2l-3.39375,-0.80625l-7.25625,1.2l-3,1.6125l-2.19375,0.39375l-3.0375,1.6125l-2.00625,0l-0.20625,-0.99375l-4.2,0.61875l-1.425,-1.8375l-1.2,0.39375l-3.20625,4.63125l-7.05,3.825l-2.19375,3.01875l-0.61875,3.6l-0.20625,0.20625l-1.6125,2.00625l-4.0125,2.8125l-3.58125,0.825l-2.625,3.61875l-2.41875,1.3875l-2.00625,4.21875l-2.79375,2.25c-8.52961,10.76419 -1.54771,7.28405 -4.8375,13.425l0.375,4.8375l-2.4,6.225l-2.8125,2.83125l2.2125,2.56875l-0.20625,1.63125c2.53067,-0.40716 2.85206,-0.37159 0.11329,-0.51802l-0.50704,0.33052l-0.61875,2.60625l-0.07421,0.06323l0.07421,0.51802l0.52579,0.68198c0.35475,0.11621 0.41898,0.35461 0.6,0.6l0.69296,0.72427c0.40281,-0.02532 0.81216,-0.09785 1.2,-0.16875c-0.50178,1.56101 0.95182,2.48438 1.81875,2.19375l0.4125,2.83125l1.2,0.58125l1.2,0.61875l-0.61875,0.99375l1.0125,0.39375l0.20625,2.625c1.57678,-0.32102 0.59855,-0.07159 -0.39375,0.20625l2.2125,2.2125l-0.20625,1.2l3.4125,1.8l6.6375,6.225l3.43125,1.425l4.0125,-2.00625l6.225,-0.80625l5.8125,1.59375l6.0375,-2.79375l4.21875,-1.63125l4.87579,-0.81802z" fill="#cae906" stroke="#000000"/><path d="M306.80313,237.90312l0.16875,-0.24375l-0.6,0.61875z" fill="#03de6a"/><path d="M340.10313,204.86562l0.0375,0.075l0.1125,-0.075c-0.04914,0.0026 -0.10072,-0.00202 -0.15,0z" fill="#2c7c3e"/><path d="M464.13438,261.77187l0.1875,0.825l1.2,0.1875l-1.2,-1.0125z" fill="#9bd3fd"/><path d="M490.85313,348.79062l-1.6125,1.40625l-0.20625,2.83125l-1.59375,1.3875l-0.825,-0.58125l0,2.00625l-0.6,0l-1.18125,2.4l0.1875,-1.2l-1.40625,1.6125l0.39375,0.80625l-0.7875,0.39375l0.20625,-1.2l-1.425,1.0125l0,1.3875l-0.7875,-0.80625l-4.81875,1.425l-2.00625,4.0125l0.39375,7.44375l-3.225,3.80625l-1.18125,3.01875l0.39375,7.8375l2.19375,1.18125l5.625,-1.3875l9.84375,-19.89375l0.6,-3l1.21875,-1.0125l0,-4.0125l0.7875,-0.20625l0.43125,1.59375l0.99375,-1.59375l-0.4125,-7.425l-1.59375,-2.23125z" fill="#e3c93f"/></g></g></g></svg>