<?xml version="1.0" encoding="utf-8"?>
<!-- Generator: Adobe Illustrator 18.0.0, SVG Export Plug-In . SVG Version: 6.00 Build 0)  -->
<!DOCTYPE svg PUBLIC "-//W3C//DTD SVG 1.1//EN" "http://www.w3.org/Graphics/SVG/1.1/DTD/svg11.dtd">
<svg version="1.1"
	 id="svg2" inkscape:export-filename="C:\LIN\PROJECT\wk2008\MyMotudo\OpenClipArt\foo.png" inkscape:output_extension="org.inkscape.output.svg.inkscape" sodipodi:docname="soldier.svg" inkscape:export-ydpi="90" sodipodi:version="0.32" inkscape:export-xdpi="90" inkscape:version="0.46" xmlns:svg="http://www.w3.org/2000/svg" xmlns:rdf="http://www.w3.org/1999/02/22-rdf-syntax-ns#" xmlns:inkscape="http://www.inkscape.org/namespaces/inkscape" xmlns:cc="http://creativecommons.org/ns#" xmlns:sodipodi="http://sodipodi.sourceforge.net/DTD/sodipodi-0.dtd" xmlns:dc="http://purl.org/dc/elements/1.1/"
	 xmlns="http://www.w3.org/2000/svg" xmlns:xlink="http://www.w3.org/1999/xlink" x="0px" y="0px" viewBox="0 0 269.6 378.5"
	 enable-background="new 0 0 269.6 378.5" xml:space="preserve">
<sodipodi:namedview  inkscape:current-layer="layer1" inkscape:pageshadow="2" inkscape:window-width="1232" inkscape:pageopacity="0.0" inkscape:window-height="707" inkscape:window-x="100" inkscape:window-y="160" inkscape:cy="207.1177" showgrid="false" bordercolor="#666666" inkscape:zoom="1.2575" id="base" objecttolerance="10.0" gridtolerance="10.0" guidetolerance="10.0" borderopacity="1.0" inkscape:cx="86.67992" pagecolor="#ffffff">
	</sodipodi:namedview>
<defs>
	
	
		<inkscape:perspective  inkscape:persp3d-origin="200 : 133.33333 : 1" inkscape:vp_z="400 : 200 : 1" inkscape:vp_y="0 : 1000 : 0" inkscape:vp_x="0 : 200 : 1" sodipodi:type="inkscape:persp3d" id="perspective17">
		</inkscape:perspective>
	
		<inkscape:perspective  inkscape:persp3d-origin="200 : 133.33333 : 1" inkscape:vp_z="400 : 200 : 1" inkscape:vp_y="0 : 1000 : 0" inkscape:vp_x="0 : 200 : 1" sodipodi:type="inkscape:persp3d" id="perspective2412">
		</inkscape:perspective>
</defs>
<g>
	<path id="rect2389" sodipodi:nodetypes="ccccsccccscccc" d="M120.2,91.8c-7.2,0-15.5,0.2-24,0c-19.4,0-35,13.9-35,31.1v238.8
		c0,17.3,35.3,19.4,35.7,1.8l1.9-87.1c0-5.8,4.7-10.5,10.5-10.5h6.4c5.8,0,10.5,4.7,10.5,10.5l1.2,90.8c0.2,11.7,33.3,20.1,34.5-5.5
		V123c0-17.3-15.6-31.1-35-31.1C124.9,91.8,122.6,91.8,120.2,91.8z"/>
	<path id="rect3168" d="M37.4,102.7c-14.1-1.6-26.7,8.6-28.3,22.7l-5.8,52.8c-1.2,11.2,4.9,21.5,14.5,26.1l1.7-18.9l20.7,1.5
		l-4.5,18.9c9.8-2.7,17.4-11.2,18.6-21.9l5.8-52.8C61.7,116.9,51.5,104.3,37.4,102.7z"/>
	<path id="path3183" sodipodi:nodetypes="cccccccccccccc" d="M0.5,366.1l12.3-29.2L29.1,231l13.5,0.8l6.2-16.7l-17,0.7l5.8-28.1
		l-16.7-1.2l-2.1,28.4l-15.5-3.3l-0.2,14.6l13.9,3.1L0,336.4L0.5,366.1z"/>
	<path id="rect3166" d="M210.7,112.2l13.3,33.2c5.1,12.7-1.1,27.1-13.7,32.1l0,0c-12.7,5.1-27.1-1.1-32.1-13.7l-13.3-33.2
		c-5.1-12.7,1.1-27.1,13.7-32.1l0,0C191.2,93.4,205.6,99.6,210.7,112.2z"/>
	<path id="path2456" stroke="#FFFFFF" stroke-width="3.2" d="M127.2,156.7l70.8-33.4l70,27.8l-8,130.4l-55.7,61.2l-51.7-54.9
		L127.2,156.7z"/>
	
		<path id="path3232" sodipodi:rx="44.930416" sodipodi:ry="44.135189" sodipodi:cy="68.787277" sodipodi:cx="124.45328" sodipodi:type="arc" d="
		M151.1,44.1c0,24.4-20.1,44.1-44.9,44.1S61.2,68.5,61.2,44.1S81.3,0,106.1,0S151.1,19.8,151.1,44.1z"/>
</g>
</svg>
