<?xml version="1.0" encoding="utf-8"?>
<!-- Generator: Adobe Illustrator 18.0.0, SVG Export Plug-In . SVG Version: 6.00 Build 0)  -->
<!DOCTYPE svg PUBLIC "-//W3C//DTD SVG 1.1//EN" "http://www.w3.org/Graphics/SVG/1.1/DTD/svg11.dtd">
<svg version="1.1" id="Layer_2" xmlns="http://www.w3.org/2000/svg" xmlns:xlink="http://www.w3.org/1999/xlink" x="0px" y="0px"
	 viewBox="0 0 30 30" enable-background="new 0 0 30 30" xml:space="preserve">
<path fill="none" d="M16,25c1,0,1,0,2,0v-1c0-1,0-2,0-3s0-1,0-2h-1C16,21,16,23,16,25z"/>
<path d="M20.8,25.2h-1.6v-5.6h0.4l0.2-0.8l1.6,1.2v-0.6L20.2,18v-1.4c0,0,0.6,0.2,0.8-0.6s-0.4-2.2-0.4-2.2h-0.8c0,0-0.4-0.8,0-0.6
	c0.6,0.2,1.2-0.4,1.2-0.4s0-4,0-4.6C21,7.6,20.4,7,20.4,7s-1.2,0-1.6,0c-0.4,0-1.2,1-1.2,1V7.4H18l0.8-2.6C19,4.4,18.4,4,18.4,4
	h-2.2l-1.4-2.2l-0.2-0.6h-0.8v1.2l1.6,2l0.2,2.8l1.2,0.6v0.4L15.4,9l-0.2,2.4l-0.8,0.2l-0.4-7h-0.8L13,8.2h0.6l0.2,5v1l0.6,2.6v2
	l0.6,0.4l-0.8,5.6l-0.6,0.4h-1.4V26h-1.4v2.8h11.4v-2.4L20.8,25.2z M18,21c0,1,0,2,0,3v1c-1,0-1,0-2,0c0-2,0-4,1-6h1
	C18,20,18,20,18,21z"/>
</svg>
