<?xml version="1.0" encoding="utf-8"?>
<!-- Generator: Adobe Illustrator 18.0.0, SVG Export Plug-In . SVG Version: 6.00 Build 0)  -->
<!DOCTYPE svg PUBLIC "-//W3C//DTD SVG 1.1//EN" "http://www.w3.org/Graphics/SVG/1.1/DTD/svg11.dtd">
<svg version="1.1" id="Layer_2" xmlns="http://www.w3.org/2000/svg" xmlns:xlink="http://www.w3.org/1999/xlink" x="0px" y="0px"
	 viewBox="0 0 15 15" enable-background="new 0 0 15 15" xml:space="preserve">
<g>
	<path d="M7.7,2.2l-0.8-1V0.6h0.4l0.1,0.3L8.1,2l1.1,0c0,0,0.3,0.2,0.2,0.4L9,3.7H8.8l0,0.3c0,0,0.4-0.5,0.6-0.5c0.2,0,0.8,0,0.8,0
		s0.3,0.3,0.3,0.6s0,2.3,0,2.3s-0.3,0.3-0.6,0.2c-0.2-0.1,0,0.3,0,0.3h0.4c0,0,0.3,0.7,0.2,1.1c-0.1,0.4-0.4,0.3-0.4,0.3l0,0.7
		l0.6,0.7V10L9.9,9.4L9.8,9.8H9.6v2.8h0.8l0.7,0.6v1.2H5.4V13l0.7,0l0-0.4l0.7,0l0.3-0.2l0.4-2.8L7.2,9.4l0-1L6.9,7.1V6.6L6.8,4.1
		H6.5l0.1-1.8l0.4,0l0.2,3.5l0.4-0.1l0.1-1.2l0.7-0.4V3.9L7.8,3.6L7.7,2.2z"/>
	<rect x="8.2" y="9.9" fill="#FFFFFF" width="0.5" height="2.5"/>
	<polygon fill="#FFFFFF" points="7.4,6.3 7.4,6.6 7.6,6.7 7.9,6.7 7.9,6.3 	"/>
</g>
</svg>
